<svg viewBox="0 0 200 120" xmlns="http://www.w3.org/2000/svg" aria-labelledby="frb-cc-logo-amex-title"><linearGradient id="prefix__a" x1="187.34" x2="13.247" y1="3564.8" y2="3503.6" gradientTransform="translate(0 -3474.1)" gradientUnits="userSpaceOnUse"><stop stop-color="#51BCEA" offset="0"/><stop stop-color="#3078BC" offset="1"/></linearGradient><path d="M192.3 120H7.7c-4.2 0-7.7-3.5-7.7-7.7V7.7C0 3.5 3.5 0 7.7 0h184.6c4.2 0 7.7 3.5 7.7 7.7v104.7c0 4.1-3.5 7.6-7.7 7.6z" fill="url(#prefix__a)"/><path d="M162.8 60.1L179 42.5h-11L157.4 54l-10.2-11.5h-33.4v35h32.9l10.6-11.6 10.2 11.6h10.8l-15.5-17.4zm-20.3 10.1H122v-7h18.2V56H122v-6.4h20.8l9.1 10.2-9.4 10.4zm-95-7.7l-5.6-13.9-5.6 13.9m74.4 15h-8.5V50.1L90.1 77.5h-7.3L70.7 50.1v27.4h-17l-3.2-7.8H33.2L30 77.5h-9l14.9-35h12.3l14.1 33.1V42.5H76l10.9 23.7 10-23.7h13.8v35z" fill="#fff"/></svg>