<svg xmlns="http://www.w3.org/2000/svg" viewBox="0 0 32 32"><defs><linearGradient id="prefix__a" x1="19.429" y1="-155.102" x2="29.953" y2="-190.307" gradientTransform="matrix(1 0 0 -1 -7.5 -156.238)" gradientUnits="userSpaceOnUse"><stop offset="0" stop-color="#4367dc"/><stop offset=".04" stop-color="#4c62d6"/><stop offset=".11" stop-color="#6654c7"/><stop offset=".2" stop-color="#8f3dae"/><stop offset=".345" stop-color="#9e35a5"/><stop offset=".45" stop-color="#d42f7f"/><stop offset=".82" stop-color="#d73578"/></linearGradient><linearGradient id="prefix__b" x1="-425.78" y1="-156.081" x2="-414.349" y2="-191.001" gradientTransform="rotate(180 -201.25 -78.119)" gradientUnits="userSpaceOnUse"><stop offset=".477" stop-color="#9e35a5" stop-opacity="0"/><stop offset=".546" stop-color="#d42f7f" stop-opacity=".5"/><stop offset=".577" stop-color="#d6327b" stop-opacity=".522"/><stop offset=".618" stop-color="#da3b72" stop-opacity=".583"/><stop offset=".666" stop-color="#e14961" stop-opacity=".684"/><stop offset=".718" stop-color="#eb5e4b" stop-opacity=".824"/><stop offset=".773" stop-color="#f7772e"/><stop offset=".97" stop-color="#fef780"/></linearGradient><linearGradient id="prefix__c" x1="28.934" y1="-167.121" x2="20.503" y2="-181.301" gradientTransform="matrix(1 0 0 -1 -7.5 -156.238)" gradientUnits="userSpaceOnUse"><stop offset=".33" stop-color="#d42f7f"/><stop offset="1" stop-color="#f7772e"/></linearGradient></defs><path d="M33.42 10.907a11.71 11.71 0 00-.8-3.94 6.837 6.837 0 00-1.84-2.814 7.757 7.757 0 00-2.8-1.849 11.47 11.47 0 00-3.84-.804h-13.2a11.55 11.55 0 00-3.92.804 7.757 7.757 0 00-2.8 1.85 7.802 7.802 0 00-1.84 2.813 11.709 11.709 0 00-.8 3.94c-.08 1.688-.08 2.251-.08 6.593s0 4.905.08 6.593a11.709 11.709 0 00.8 3.94 7.802 7.802 0 001.84 2.814 7.757 7.757 0 002.8 1.849 11.55 11.55 0 003.92.804h13.2a11.47 11.47 0 003.84-.804 7.757 7.757 0 002.8-1.85 6.837 6.837 0 001.84-2.813 11.709 11.709 0 00.8-3.94c.08-1.688.08-2.251.08-6.593s0-4.905-.08-6.593zm-2.88 13.106a8.722 8.722 0 01-.56 2.974 5.374 5.374 0 01-3.04 3.056 8.602 8.602 0 01-2.96.563H11.02a8.602 8.602 0 01-2.96-.563 5.374 5.374 0 01-3.04-3.056 8.722 8.722 0 01-.56-2.974c-.08-1.689-.08-2.252-.08-6.513s0-4.824.08-6.513a8.722 8.722 0 01.56-2.974 5.374 5.374 0 013.04-3.056 8.602 8.602 0 012.96-.563h12.96a8.602 8.602 0 012.96.563 5.374 5.374 0 013.04 3.056 8.722 8.722 0 01.56 2.974c.08 1.689.08 2.252.08 6.513s0 4.824-.08 6.513z" transform="translate(-1.5 -1.5)" fill="url(#prefix__a)"/><path d="M1.5 17.5c0 4.342 0 4.905.08 6.593a11.709 11.709 0 00.8 3.94 6.837 6.837 0 001.84 2.814 7.757 7.757 0 002.8 1.849 11.47 11.47 0 003.84.804h13.2a11.55 11.55 0 003.92-.804 8.26 8.26 0 004.64-4.663 11.71 11.71 0 00.8-3.94c.08-1.688.08-2.251.08-6.593s0-4.905-.08-6.593a11.71 11.71 0 00-.8-3.94 7.802 7.802 0 00-1.84-2.814 7.757 7.757 0 00-2.8-1.849 11.55 11.55 0 00-3.92-.804h-13.2a11.47 11.47 0 00-3.84.804 7.757 7.757 0 00-2.8 1.85 6.837 6.837 0 00-1.84 2.813 11.709 11.709 0 00-.8 3.94c-.08 1.688-.08 2.251-.08 6.593zm2.88 0c0-4.261 0-4.824.08-6.513a8.722 8.722 0 01.56-2.974 5.374 5.374 0 013.04-3.056 8.602 8.602 0 012.96-.563h12.96a8.602 8.602 0 012.96.563 5.374 5.374 0 013.04 3.056 8.722 8.722 0 01.56 2.974c.08 1.689.08 2.252.08 6.513s0 4.824-.08 6.513a8.722 8.722 0 01-.56 2.974 5.374 5.374 0 01-3.04 3.056 8.602 8.602 0 01-2.96.563H11.02a8.602 8.602 0 01-2.96-.563 5.374 5.374 0 01-3.04-3.056 8.722 8.722 0 01-.56-2.974c-.08-1.689-.08-2.252-.08-6.513z" transform="translate(-1.5 -1.5)" fill="url(#prefix__b)"/><ellipse cx="24.56" cy="7.397" rx="1.92" ry="1.93" fill="#bc30a0"/><path d="M17.5 9.219a8.282 8.282 0 108.24 8.281 8.26 8.26 0 00-8.24-8.281zm0 13.668a5.387 5.387 0 115.36-5.387 5.374 5.374 0 01-5.36 5.387z" transform="translate(-1.5 -1.5)" fill="url(#prefix__c)"/></svg>