<svg width="32" xmlns="http://www.w3.org/2000/svg" viewBox="0 0 31.9 19.2"><path d="M30.8 19.2H1.2A1.2 1.2 0 010 18.1V1.2A1.2 1.2 0 011.2 0h29.5a1.2 1.2 0 011.2 1.1V18a1.1 1.1 0 01-.9 1.2z"/><path d="M12 17.3v-1c0-.4-.2-.7-.6-.7a.6.6 0 00-.6.3.6.6 0 00-.6-.3.5.5 0 00-.4.3v-.2h-.4v1.6h.4v-.9c-.1-.2.1-.4.3-.5h.1c.2 0 .3.2.3.5v.9h.4v-.9a.5.5 0 01.3-.5h.1c.2 0 .3.2.3.5v.9zm2-.8v-.8h-.3v.2a.9.9 0 00-.6-.3.9.9 0 00-.8.9.9.9 0 00.8.8l.6-.2v.2h.3zm-1.3 0a.5.5 0 01.5-.5.5.5 0 010 1 .5.5 0 01-.5-.5zm8.9-.9h.4l.3.2.2.2v.7l-.2.3-.3.2h-.7L21 17l-.2-.3a.8.8 0 010-.7c.1-.1.1-.2.2-.2l.3-.2zm0 .4h-.3c-.1.1-.1.1-.1.2a.3.3 0 000 .4c0 .1 0 .1.1.2h.7c.1-.1.1-.1.1-.2a.3.3 0 000-.4c0-.1 0-.1-.1-.2h-.4zm-5.6.5a.9.9 0 00-.7-.9h-.1a.9.9 0 00-.9.9.8.8 0 00.9.8 1 1 0 00.7-.2l-.2-.3-.5.2a.5.5 0 01-.5-.4h1.2a.1.1 0 00.1-.1zm-1.3-.2a.5.5 0 01.5-.4.4.4 0 01.4.4h-.9zm2.8-.2l-.6-.2c-.2 0-.3.1-.3.2l.3.2h.2c.3.1.6.2.6.5s-.3.5-.8.5a1 1 0 01-.7-.2l.2-.3c.1.2.3.2.5.2s.4-.1.4-.2-.1-.1-.3-.2h-.2a.5.5 0 01-.5-.5c0-.3.2-.5.6-.5l.7.2zm1.7-.1h-.6v.7c0 .2.1.3.2.3h.3v.3h-.4a.5.5 0 01-.6-.6V16h-.3v-.3h.3v-.5h.4v.5h.6zm1.2-.4h.3v.4h-.3c-.2 0-.3.1-.3.4v.9h-.4v-1.6h.3v.2c.1-.2.2-.3.4-.3zm2.5 1.5zm0 .2h.1v-.2h-.2c-.1.1-.1.2 0 .2zm0-.2h-.1v-.2zm-.1.1z" fill="#fff"/><path fill="#7673c0" d="M13.3 3.1h5.4v9.72h-5.4z"/><path d="M13.6 8A6.3 6.3 0 0116 3.1a6.232 6.232 0 00-7.7 9.8 6.5 6.5 0 007.7 0A6.3 6.3 0 0113.6 8z" fill="#eb001b"/><path d="M25.4 11.8v-.2h-.1v.2zm.4 0v-.2h-.2v.2h.3zM26 8a6.2 6.2 0 01-10 4.9 6.3 6.3 0 001-8.7l-1-1.1a6.1 6.1 0 018.6 1.1A5.9 5.9 0 0126 8z" fill="#00a1df"/></svg>