<svg viewBox="0 0 31.911 19.2" xmlns="http://www.w3.org/2000/svg"><path d="M30.8 19.2H1.2A1.155 1.155 0 010 18V1.2A1.216 1.216 0 011.2 0h29.5a1.155 1.155 0 011.2 1.2V18a1.078 1.078 0 01-1.1 1.2z" fill="#fff"/><path fill="#ff5f00" d="M13.121 4.968h5.672v9.264h-5.672z"/><path d="M13.705 9.6a5.882 5.882 0 012.25-4.631 5.891 5.891 0 100 9.264 5.882 5.882 0 01-2.25-4.633z" fill="#eb001b"/><path d="M24.925 13.252v-.19h.082v-.04h-.195v.04h.077v.19zm.378 0v-.23h-.059l-.069.164-.068-.164h-.06v.23h.043v-.174l.064.149h.044l.064-.149v.174zM25.488 9.6a5.891 5.891 0 01-9.533 4.631 5.891 5.891 0 000-9.264 5.891 5.891 0 019.533 4.631z" fill="#f79e1b"/></svg>