<svg xmlns="http://www.w3.org/2000/svg" viewBox="0 0 450 452.225"><path d="M399.546 358.99a1.455 1.455 0 00-.19-.31 2.185 2.185 0 00-.156-.19 1.073 1.073 0 00-.19-.227l-.204-.191a4.45 4.45 0 00-.775-.549L139.6 208.293a9.545 9.545 0 00-8.567 0L4.272 281.446l-.514.322-.167.144a3.15 3.15 0 00-.715.8 1.754 1.754 0 00-.263.548 1.694 1.694 0 000 .262 1.755 1.755 0 000 .43 2.52 2.52 0 000 .298 3.415 3.415 0 00.084.334 2.6 2.6 0 00.13.323 3.735 3.735 0 001.528 1.479L262.75 435.628a7.791 7.791 0 002.541.86 10.515 10.515 0 001.742.155 10.333 10.333 0 001.719-.144 4.235 4.235 0 00.56-.107 7.316 7.316 0 001.54-.525c.167-.072.31-.155.465-.239l126.715-73.165c1.682-.943 2.136-2.28 1.515-3.472zm-27.836-5.297l-8.102 4.69-107.97 62.283a6.553 6.553 0 01-.871.43 7.243 7.243 0 01-5.56 0 6.553 6.553 0 01-.872-.43L43.336 302.315 33.41 296.6a3.794 3.794 0 01-.93-.74c-1.027-1.122-.705-2.553.93-3.508l116.024-66.985a7.302 7.302 0 014.498-1.253 4.14 4.14 0 011.11.299 3.58 3.58 0 01.573.274L371.71 349.445a2.458 2.458 0 010 4.248z" fill="#455a64"/><path d="M3.77 281.78a9.605 9.605 0 00-3.77 7.1v5.655a9.462 9.462 0 004.283 7.434l258.43 149.218a8.126 8.126 0 003.15.967c.382 0 .752.06 1.193.071v-15.582a13.902 13.902 0 01-1.742-.144 7.887 7.887 0 01-2.553-.883L4.27 286.386c-2.183-1.253-2.362-3.245-.5-4.606z" fill="#37474f"/><path d="M331.094 389.38a17.241 17.241 0 00-15.297 0 6.169 6.169 0 00-2.29 2.089c-1.373 2.386 1.193 4.176 2.29 4.844a17.241 17.241 0 0015.297 0 6.467 6.467 0 002.29-2.088c1.373-2.386-1.157-4.176-2.29-4.844z" fill="#fde24f"/><path d="M77.998 251.581a1.277 1.277 0 000-2.386 4.63 4.63 0 00-4.188 0 1.277 1.277 0 000 2.386 4.63 4.63 0 004.188 0zM71.423 263.036a1.193 1.193 0 000-2.148 4.164 4.164 0 00-3.722 0 1.193 1.193 0 000 2.148 4.093 4.093 0 003.722 0zM77.711 259.492l20.81-12.015c1.193-.657 1.193-1.695.119-2.315a4.415 4.415 0 00-3.997.083l-20.81 12.004c-1.133.668-1.193 1.694-.119 2.315a4.415 4.415 0 003.997-.072zM398.604 357.905c1.766 1.372 1.575 3.317-.573 4.558l-126.727 73.165a8.615 8.615 0 01-4.283 1.015v15.57a8.698 8.698 0 004.271-1.026l126.727-73.153a9.438 9.438 0 004.284-7.422v-5.667a9.605 9.605 0 00-3.7-7.04z" fill="#263238"/><path d="M64.718 325.665a4.773 4.773 0 012.22 3.675 1.36 1.36 0 01-.621 1.289c-.263.155-1.265.752-1.552.907a1.635 1.635 0 01-1.598-.18L34.35 314.653a4.773 4.773 0 01-2.207-3.675 1.432 1.432 0 01.56-1.264l1.6-.931a1.635 1.635 0 011.599.179z" fill="#455a64"/><path d="M63.167 326.536L34.35 309.904c-1.193-.704-2.207-.203-2.207 1.121a4.773 4.773 0 002.207 3.675l28.816 16.705c1.193.704 2.219.202 2.219-1.122a4.773 4.773 0 00-2.22-3.747z" fill="#263238"/><path d="M26.142 303.389a4.773 4.773 0 012.22 3.687 1.396 1.396 0 01-.609 1.288c-.274.144-1.276.752-1.55.907a1.635 1.635 0 01-1.6-.19l-13.59-7.84a4.773 4.773 0 01-2.207-3.675 1.372 1.372 0 01.56-1.265c.263-.179 1.313-.775 1.6-.93a1.599 1.599 0 011.598.179z" fill="#455a64"/><path d="M24.603 304.284l-13.59-7.84c-1.193-.703-2.207-.202-2.207 1.122a4.773 4.773 0 002.207 3.675l13.59 7.84c1.193.703 2.208.202 2.208-1.122a4.773 4.773 0 00-2.208-3.675z" fill="#263238"/><path d="M371.71 353.633l-8.102 4.678-107.97 62.295a8.416 8.416 0 01-.871.43 7.243 7.243 0 01-5.56 0 8.416 8.416 0 01-.872-.43L43.336 302.256l-9.915-5.728a3.508 3.508 0 01-.93-.728c-1.027-1.121-.705-2.565.93-3.52l116.024-66.972a7.302 7.302 0 014.498-1.194 4.14 4.14 0 011.11.299 3.58 3.58 0 01.573.274L371.71 349.445a2.458 2.458 0 010 4.188z" fill="#fde24f"/><path d="M371.71 353.633l-8.102 4.678-107.97 62.295a8.416 8.416 0 01-.871.43 7.243 7.243 0 01-5.56 0 8.416 8.416 0 01-.872-.43L43.336 302.256l-9.915-5.728a3.508 3.508 0 01-.93-.728c-1.027-1.121-.705-2.565.93-3.52l116.024-66.972a7.302 7.302 0 014.498-1.194 4.14 4.14 0 011.11.299 3.58 3.58 0 01.573.274L371.71 349.445a2.458 2.458 0 010 4.188z" style="isolation:isolate" fill="#fff" opacity=".8"/><path d="M57.917 287.77a.572.572 0 01-.167-.06l-.561-.334-1.372.8a.215.215 0 01-.239 0l-.203-.107-.095-.072a.513.513 0 010-.084l-.573-2.016a.275.275 0 010-.084.203.203 0 01.072-.071l.19-.108a.334.334 0 01.18 0 .441.441 0 01.179.06l1.98 1.193.31-.167a.215.215 0 01.156 0 .358.358 0 01.179.06l.13.071c.06 0 .096.072.096.096s0 .06-.083.095l-.299.18.573.321a.227.227 0 01.096.096s0 .06-.096.095l-.227.143a.442.442 0 01-.226-.107zm-1.194-.716l-1.407-.823.417 1.396zM59.205 286.625a3.818 3.818 0 01-1.718-.525c-.56-.334-.87-.657-.907-.99s.191-.645.668-.931a4.09 4.09 0 01.62-.275 3.32 3.32 0 01.633-.131h.096l.12.227h-.084a2.315 2.315 0 00-.895.286c-.322.191-.478.406-.454.644s.263.466.704.716a2.78 2.78 0 001.193.418 1.969 1.969 0 001.062-.25l.31-.215a.87.87 0 00.18-.203l-.931-.537-.573.322a.227.227 0 01-.167 0 .358.358 0 01-.167-.06l-.131-.071s-.096-.072-.096-.096 0-.06.084-.095l.907-.525a.406.406 0 01.19 0 .346.346 0 01.204.071l1.324.764a.215.215 0 01.095.072v.071a1.54 1.54 0 01-.787.788 2.876 2.876 0 01-1.48.525zM70.552 279.824c.442.262.442.668 0 .918a1.694 1.694 0 01-1.587 0c-.441-.25-.441-.656 0-.918a1.766 1.766 0 011.587 0z" fill="#455a64"/><path d="M67.665 279.072c-.8.465-1.05 1.133-.74 1.718a.513.513 0 00.477.18c.263 0 .454-.18.37-.323-.226-.418 0-.883.513-1.193a3.162 3.162 0 012.088-.299c.263 0 .525 0 .561-.214 0-.132-.107-.239-.31-.287a4.773 4.773 0 00-2.96.418z" fill="#455a64"/><path d="M66.388 278.344c-1.193.68-1.623 1.647-1.277 2.542 0 .13.251.214.478.202.262 0 .43-.167.37-.31-.275-.728.071-1.515 1.038-2.076a6.061 6.061 0 013.58-.608c.262 0 .512 0 .536-.215 0-.131-.131-.25-.358-.275a7.254 7.254 0 00-4.367.74zM89.858 266.985a.25.25 0 01-.131 0v-.083l.238-1.194v-.083l.072-.072.418-.238a.239.239 0 01.13 0 .25.25 0 01.144 0l3.412 1.968a.072.072 0 010 .072.083.083 0 010 .083l-.43.251a.286.286 0 01-.142 0 .251.251 0 01-.143 0l-2.602-1.503-.143.692-.071.071a.322.322 0 01-.155 0zM92.53 265.446a.25.25 0 01-.143 0 .107.107 0 010-.084l.251-1.193a.227.227 0 010-.083l.06-.072.417-.239a.25.25 0 01.144 0 .286.286 0 01.143 0l3.4 1.97v.083a.083.083 0 010 .071l-.43.25a.25.25 0 01-.142 0h-.144l-2.6-1.503-.156.776a.167.167 0 01-.083.072.263.263 0 01-.144 0zM95.872 263.298a.322.322 0 01.143 0 .25.25 0 01.143 0l.525.298a.072.072 0 010 .072.095.095 0 010 .084l-.49.286h-.142a.25.25 0 01-.144 0l-.525-.298a.095.095 0 010-.084.107.107 0 010-.083zm1.849 1.062a.31.31 0 01.286 0l.513.298s.06 0 .06.084a.12.12 0 01-.06.083l-.489.275a.298.298 0 01-.286 0l-.513-.298s-.06 0-.06-.084a.084.084 0 01.06-.071zM101.336 263.298a.31.31 0 01-.286 0l-.632-.358-1.635.943h-.143a.263.263 0 01-.143 0l-.37-.215c-.06 0-.084-.06-.096-.095a.203.203 0 010-.12l-.405-2.088a.179.179 0 01.083-.203l.406-.238h.274l2.112 1.193.453-.263h.287l.37.227a.084.084 0 01.06.072.094.094 0 01-.06.083l-.454.263.645.37s.06 0 0 .083a.095.095 0 010 .084zm-1.587-.74l-1.121-.656.226 1.193zM99.904 259.981a.12.12 0 010-.083v-.084l1.981-1.193a.298.298 0 01.287 0l.37.215s.06 0 .06.083-.001.06-.06.084l-1.48.847.62.43a.872.872 0 01.215-.203l.215-.144a2.946 2.946 0 01.632-.262 2.541 2.541 0 01.668-.12 2.494 2.494 0 01.669 0 2.386 2.386 0 01.632.24 1.193 1.193 0 01.465.405.537.537 0 01.096.394.632.632 0 01-.203.381 2.614 2.614 0 01-.477.358 3.973 3.973 0 01-.704.31 3.471 3.471 0 01-.657.12 3.19 3.19 0 01-.596 0 1.969 1.969 0 01-.49-.167s-.06 0-.06-.084 0-.06.06-.083l.43-.25h.275a1.469 1.469 0 00.298.059h.286l.263-.084.238-.119c.203-.12.31-.239.323-.382s-.072-.25-.263-.358a.967.967 0 00-.573-.119 1.384 1.384 0 00-.656.179 1.741 1.741 0 00-.227.155.691.691 0 00-.095.12.239.239 0 010 .095.227.227 0 01-.096.083l-.489.287h-.274zM43.193 296.755l-1.098-.633 1.456-.847 1.098.633-1.456.847zM45.388 295.49l-2.195-1.265 1.456-.847 2.195 1.265-1.456.847zM47.584 294.225l-3.293-1.909 1.455-.835 3.305 1.897-1.467.847zM49.779 292.96l-4.391-2.541 1.468-.847 4.379 2.541-1.456.847zM149.027 231.536a1.635 1.635 0 00-.859.131l-5.476 3.15c-.358.203-.263.585.203.86l2.004 1.192a2.386 2.386 0 00.967.287 1.707 1.707 0 00.43 0 1.193 1.193 0 00.429-.12l5.476-3.15c.346-.214.263-.584-.214-.859l-1.993-1.193a2.386 2.386 0 00-.967-.298zm-3.221 5.37a.93.93 0 01-.406-.144l-2.004-1.193c-.346-.203-.418-.501-.155-.656l5.476-3.15a.632.632 0 01.227-.072h.131a.967.967 0 01.418.143l1.992 1.193c.346.203.418.501.167.645l-5.476 3.162a.764.764 0 01-.37.071z" fill="#455a64"/><path d="M144.625 234.567l2.386 1.36-.86.5a.525.525 0 01-.297 0l-1.754-1.013c-.251-.143-.31-.37-.12-.49zM145.03 234.34l1.026-.597 2.363 1.36-1.038.597-2.351-1.36zM146.462 233.517l1.014-.597 2.375 1.372-1.026.597-2.363-1.372zM149.063 232.192l1.706.99c.31.18.251.442-.179.68l-.346.203-2.386-1.372.823-.465a.49.49 0 01.382-.036zM150.209 231.703a1.468 1.468 0 011.014.274l.37.215c.405.239.632.501.477.597l-.25.167-1.886-1.086zM135.079 240.747l4.248-3.687 2.243 3.186-2.935-.799-3.556 1.3z" fill="#455a64"/><path d="M225.51 395.8v1.05a5.751 5.751 0 002.613 4.522l20.475 11.813a5.763 5.763 0 005.226 0l100.907-58.287a5.787 5.787 0 002.613-4.534v-1.038a5.787 5.787 0 00-2.613-4.534l-20.475-11.812a5.763 5.763 0 00-5.226 0l-100.907 58.298a5.787 5.787 0 00-2.613 4.522z" fill="#fde24f"/><path d="M355.029 345.03c1.086.824.966 2.029-.346 2.78l-100.907 58.3a5.5 5.5 0 01-2.613.632v7.063a5.298 5.298 0 002.625-.62l100.895-58.287a5.823 5.823 0 002.613-4.534v-1.038a5.81 5.81 0 00-2.267-4.295z" style="isolation:isolate" opacity=".15"/><path d="M227.681 391.552a5.847 5.847 0 00-2.219 4.248v1.05a5.74 5.74 0 002.625 4.522l20.463 11.813a5.226 5.226 0 002.613.62v-7.063a5.465 5.465 0 01-2.613-.633l-20.475-11.812c-1.3-.74-1.372-1.91-.393-2.745z" style="isolation:isolate" opacity=".3"/><path d="M257.976 384.107a1.05 1.05 0 01.525-.143 2.459 2.459 0 01.466.06l10.738 3.006.239.084a.19.19 0 01.107.167.179.179 0 01-.107.155l-1.6.919a.943.943 0 01-.464.143.955.955 0 01-.346 0l-1.408-.406-3.365 1.945.704.811a.286.286 0 01.071.203c0 .084-.083.167-.25.263l-1.599.919a.49.49 0 01-.274.071.537.537 0 01-.287-.071.334.334 0 01-.131-.132l-5.226-6.204a.465.465 0 01-.096-.263c0-.107.084-.203.251-.298zm3.484 4.379l2.053-1.193-4.07-1.193zM266.078 379.43a7.971 7.971 0 011.861-.776 9.367 9.367 0 011.969-.298 7.529 7.529 0 011.945.179 7.159 7.159 0 011.766.62l.489.275.43.25.417.239.453.274a3.58 3.58 0 011.11 1.027 1.814 1.814 0 01.31 1.097 2.136 2.136 0 01-.5 1.134 4.641 4.641 0 01-1.325 1.062l-3.413 1.969a.62.62 0 01-.346.083.585.585 0 01-.334-.083l-8.185-4.714c-.095-.06-.143-.119-.143-.202a.215.215 0 01.143-.191zm5.142 1.05a3.138 3.138 0 00-3.173.155l-1.289.752 4.773 2.78 1.348-.788c1.062-.608 1.133-1.193.203-1.802l-.49-.298-.453-.262-.441-.25zM275.23 374.144a7.97 7.97 0 011.86-.776 9.353 9.353 0 011.982-.298 8.042 8.042 0 011.932.18 6.872 6.872 0 011.766.62l.502.274.417.25.418.24.465.274a3.675 3.675 0 011.098 1.026 1.742 1.742 0 01.31 1.098 2.016 2.016 0 01-.49 1.133 4.773 4.773 0 01-1.324 1.062l-3.424 1.969a.608.608 0 01-.334.083.62.62 0 01-.346-.083l-8.185-4.713a.262.262 0 01-.143-.203.227.227 0 01.143-.191zm5.142 1.05a3.138 3.138 0 00-3.174.155l-1.288.752 4.772 2.78 1.36-.788c1.062-.608 1.122-1.193.203-1.801l-.489-.299c-.155-.083-.31-.167-.453-.262l-.454-.25zM289.583 365.911a.608.608 0 01.334-.083.62.62 0 01.346.083l1.349.776a.215.215 0 01.131.19.227.227 0 01-.131.203l-2.232 1.217 6.491 3.747c.096 0 .144.12.144.203a.227.227 0 01-.144.19l-1.658.955a.585.585 0 01-.334.084.62.62 0 01-.346-.084l-6.491-3.746-2.231 1.288a.776.776 0 01-.346.084.692.692 0 01-.334-.084l-1.349-.775c-.095-.06-.143-.12-.143-.203a.227.227 0 01.143-.191zM293.927 367.176a3.58 3.58 0 01-1.027-.955 1.67 1.67 0 01-.322-1.073 2.183 2.183 0 01.49-1.134 5.106 5.106 0 011.372-1.11 8.054 8.054 0 011.92-.787 8.711 8.711 0 011.957-.286 7.361 7.361 0 011.862.19 6.885 6.885 0 011.646.585l1.194.644 1.085.657a3.58 3.58 0 011.026.954 1.67 1.67 0 01.323 1.074 1.969 1.969 0 01-.49 1.193 4.642 4.642 0 01-1.372 1.098 7.862 7.862 0 01-1.92.811 8.59 8.59 0 01-1.958.275 7.361 7.361 0 01-1.86-.191 7.075 7.075 0 01-1.648-.585c-.37-.19-.74-.406-1.193-.632zm7.743-1.945l-.477-.31-.549-.334-.585-.322-.513-.263a3.032 3.032 0 00-.716-.262 3.27 3.27 0 00-.763-.096 3.138 3.138 0 00-.8.108 3.508 3.508 0 00-.8.322 1.778 1.778 0 00-.56.465.764.764 0 00-.179.465.74.74 0 00.155.442 1.706 1.706 0 00.454.405 4.285 4.285 0 00.453.299c.18.107.358.226.56.334l.574.322a5.76 5.76 0 00.537.274 3.472 3.472 0 001.491.358 2.935 2.935 0 001.587-.441c.525-.298.764-.597.74-.907a1.193 1.193 0 00-.609-.859zM308.09 359.062l.441.275.597.346.608.358.49.25a2.97 2.97 0 00.667.25 3.09 3.09 0 00.752.12 3.747 3.747 0 00.8-.095 2.958 2.958 0 00.847-.346 2.064 2.064 0 00.596-.466 1.038 1.038 0 00.215-.405.56.56 0 000-.346 1.192 1.192 0 00-.19-.275.704.704 0 01-.144-.25.626.626 0 01.215-.215l1.658-.955a.656.656 0 01.55 0 2.303 2.303 0 01.906.883 1.54 1.54 0 01.155 1.05 2.637 2.637 0 01-.585 1.11 4.844 4.844 0 01-1.312 1.038 7.661 7.661 0 01-1.897.776 7.993 7.993 0 01-1.957.286 7.397 7.397 0 01-1.873-.191 6.158 6.158 0 01-1.635-.585c-.37-.179-.74-.393-1.193-.62a10.04 10.04 0 01-1.11-.68 3.27 3.27 0 01-1.026-.93 1.79 1.79 0 01-.31-1.087 2.064 2.064 0 01.477-1.133 4.57 4.57 0 011.36-1.098 7.768 7.768 0 011.802-.752 9.903 9.903 0 011.91-.346 7.684 7.684 0 011.825.096 4.701 4.701 0 011.527.513.203.203 0 01.12.167.167.167 0 01-.12.155l-1.659.967a.74.74 0 01-.37.119 2.817 2.817 0 01-.417-.084 2.565 2.565 0 00-.477-.107 2.387 2.387 0 00-.597 0 4.142 4.142 0 00-.704.12 3.578 3.578 0 00-.811.357 1.742 1.742 0 00-.597.49.74.74 0 00-.167.453.764.764 0 00.191.441 2.829 2.829 0 00.441.346zM316.108 350.543a1.05 1.05 0 01.525-.143 2.458 2.458 0 01.465.06l10.739 3.006.238.084c.084 0 .12.095.12.167s0 .107-.12.155l-1.587.919a1.026 1.026 0 01-.477.143 1.194 1.194 0 01-.334 0l-1.408-.406-3.377 1.945.704.811a.286.286 0 01.072.203c0 .084-.084.167-.25.263l-1.6.93a.656.656 0 01-.548 0 .405.405 0 01-.144-.143l-5.214-6.204a.394.394 0 01-.095-.263c0-.107.071-.203.239-.31zm3.484 4.38l2.052-1.194-4.069-1.193zM324.293 345.818a9.365 9.365 0 011.67-.752 7.005 7.005 0 011.647-.346 5.703 5.703 0 011.623.12 5.346 5.346 0 011.527.596 2.577 2.577 0 011.193 1.193 1.193 1.193 0 01-.155 1.194l4.582.835a.441.441 0 01.179.06c.083 0 .119.095.119.167s0 .107-.12.155l-1.718.99a.787.787 0 01-.477.143h-.394l-4.116-.752-1.193.669 2.708 1.563c.096 0 .143.12.143.203a.227.227 0 01-.143.19l-1.658.955a.609.609 0 01-.334.084.62.62 0 01-.346-.084l-8.185-4.713a.227.227 0 01-.132-.203.239.239 0 01.132-.203zm2.386 3.043l1.444-.847a1.587 1.587 0 00.68-.62c.095-.216 0-.43-.382-.633a1.623 1.623 0 00-1.086-.215 2.96 2.96 0 00-1.085.382l-1.432.835zM335.747 339.208a.764.764 0 01.692 0l1.337.775a.227.227 0 01.143.191c0 .084 0 .144-.143.203l-2.232 1.289 6.503 3.746a.227.227 0 01.131.203.215.215 0 01-.13.191l-1.66.967a.87.87 0 01-.691 0l-6.491-3.759-2.231 1.289a.728.728 0 01-.334.083.74.74 0 01-.346-.083l-1.349-.776a.25.25 0 01-.131-.203.227.227 0 01.131-.19zM242.214 390.968c-3.21 1.85-3.21 4.844 0 6.682a12.79 12.79 0 0011.586 0c3.198-1.838 3.198-4.833 0-6.682a12.79 12.79 0 00-11.586 0zm9.546 2.183l-2.148 1.193 2.148 1.194a.43.43 0 010 .823 1.563 1.563 0 01-1.42 0l-2.16-1.193-2.147 1.193a1.563 1.563 0 01-1.42 0 .43.43 0 010-.823l2.147-1.194-2.147-1.193a.43.43 0 010-.823 1.563 1.563 0 011.42 0l2.147 1.193 2.16-1.193a1.563 1.563 0 011.42 0 .432.432 0 01-.096.86z" fill="#455a64"/><path d="M263.93 312.97a17.73 17.73 0 00-7.946-13.96c-2.315-1.36-4.403-1.42-5.883-.454l-5.429 3.055 11.395 19.652 5.381-3.055c1.504-.823 2.458-2.625 2.482-5.238z" fill="#37474f"/><path d="M250.34 302.208a17.79 17.79 0 017.946 13.96c0 5.13-3.65 7.159-8.065 4.593a17.79 17.79 0 01-7.947-13.96c.036-5.13 3.651-7.183 8.066-4.593z" fill="#455a64"/><path d="M247.572 309.904c0-2.005 1.193-2.924 2.732-2.04a6.479 6.479 0 012.685 5.213c0 2.005-1.193 2.912-2.733 2.04a6.539 6.539 0 01-2.684-5.213z" fill="#263238"/><path d="M258.286 316.168a14.735 14.735 0 00-1.097-5.37l-13.781-8.006a6.897 6.897 0 00-1.122 4.01v.19l15.988 9.283a.925.925 0 00.012-.107z" style="isolation:isolate" opacity=".15"/><path d="M206.801 356.628a17.194 17.194 0 01-8.495-1.527l-75.17-43.324c-4.546-2.291-9.653-8.233-9.975-13.865l-2.303-53.585 4.188-.239 2.315 53.597c.214 3.819 4.211 8.615 7.648 10.333l75.23 43.336a14.45 14.45 0 0012.623-.727l50.114-28.9c1.193-.787 1.897-1.73 1.849-2.529s-.8-1.587-2.076-2.23l-80.527-46.75c-4.535-2.278-9.617-8.232-9.94-13.864l-1.121-29.722 4.188-.227 1.121 29.71c.215 3.842 4.212 8.627 7.637 10.345l80.527 46.76c2.685 1.349 4.236 3.39 4.379 5.74s-1.193 4.63-3.735 6.276l-50.113 28.898a17.385 17.385 0 01-8.364 2.494z" fill="#455a64"/><path d="M193.294 355.423a17.73 17.73 0 00-7.946-13.96c-2.315-1.36-4.403-1.432-5.87-.453l-5.442 3.054 11.395 19.652 5.381-3.055c1.48-.823 2.482-2.625 2.482-5.238z" fill="#37474f"/><path d="M179.68 344.66a17.73 17.73 0 017.947 13.973c0 5.118-3.64 7.159-8.066 4.582a17.754 17.754 0 01-7.935-13.96c.036-5.12 3.64-7.207 8.054-4.594z" fill="#455a64"/><path d="M176.912 352.357c0-2.005 1.193-2.924 2.732-2.04a6.455 6.455 0 012.685 5.214c0 1.992-1.193 2.91-2.72 2.028a6.49 6.49 0 01-2.697-5.202z" fill="#263238"/><path d="M137.716 323.386a17.73 17.73 0 00-7.91-13.972c-2.327-1.36-4.403-1.431-5.883-.465l-5.44 3.043 11.358 19.675 5.393-3.055c1.504-.81 2.458-2.613 2.482-5.226z" fill="#37474f"/><path d="M124.15 312.612a17.754 17.754 0 017.922 13.924c0 5.12-3.663 7.16-8.077 4.57a17.73 17.73 0 01-7.911-13.972c.036-5.083 3.651-7.123 8.066-4.522z" fill="#455a64"/><path d="M121.37 320.284c0-1.992 1.193-2.911 2.732-2.028a6.503 6.503 0 012.685 5.214c0 2.004-1.193 2.911-2.745 2.04a6.55 6.55 0 01-2.672-5.226z" fill="#263238"/><path d="M101.873 179.394a13.972 13.972 0 015.358-14.867l50.006-28.266c4.546-2.983 9.545-.907 11.12 4.283l3.472 11.252-3.436 2.005-3.735-11.371a3.782 3.782 0 00-5.966-2.088L110 167.844a9.175 9.175 0 00-3.496 9.546l2.935 10.798-4.093 2.386z" fill="#455a64"/><path fill="#fde24f" d="M179.191 233.612l-67.176 38.79 98.175 56.676 67.175-38.79-98.174-56.676z"/><path style="isolation:isolate" opacity=".5" d="M179.191 233.612l-67.176 38.79 98.175 56.676 67.175-38.79-98.174-56.676z"/><path fill="#fde24f" d="M105.345 190.646l66.484-38.838 7.362 81.804-67.176 38.79-6.67-81.756z"/><path style="isolation:isolate" opacity=".35" d="M105.345 190.646l66.484-38.838 7.362 81.804-67.176 38.79-6.67-81.756z"/><path d="M171.817 151.808l7.362 81.804 98.174 56.676 15.512-68.62zm34.328 78.654a5.644 5.644 0 01-7.04-3.651l-16.227-42.107a5.298 5.298 0 119.82-3.735l16.227 42.107a5.632 5.632 0 01-2.768 7.386zm30.652 14.414a5.62 5.62 0 01-7.04-3.64l-16.179-42.107a5.298 5.298 0 119.808-3.782l16.227 42.107a5.62 5.62 0 01-2.804 7.422zM267.45 259.3a5.62 5.62 0 01-7.04-3.58l-16.215-42.107a5.286 5.286 0 119.796-3.782l16.227 42.107a5.62 5.62 0 01-2.756 7.362z" fill="#fde24f"/><path d="M171.817 151.808l7.362 81.804 98.174 56.676 15.512-68.62zm34.328 78.654a5.644 5.644 0 01-7.04-3.651l-16.227-42.107a5.298 5.298 0 119.82-3.735l16.227 42.107a5.632 5.632 0 01-2.768 7.386zm30.652 14.414a5.62 5.62 0 01-7.04-3.64l-16.179-42.107a5.298 5.298 0 119.808-3.782l16.227 42.107a5.62 5.62 0 01-2.804 7.422zM267.45 259.3a5.62 5.62 0 01-7.04-3.58l-16.215-42.107a5.286 5.286 0 119.796-3.782l16.227 42.107a5.62 5.62 0 01-2.756 7.362z" style="isolation:isolate" opacity=".23"/><path d="M105.345 190.646l6.67 81.756 98.175 56.676 15.51-68.608zm38.755 80.48a5.644 5.644 0 01-7.04-3.652l-16.215-42.107a5.286 5.286 0 119.796-3.77l16.227 42.095a5.632 5.632 0 01-2.768 7.433zm30.652 14.413a5.62 5.62 0 01-7.04-3.64l-16.179-42.106a5.298 5.298 0 119.808-3.783l16.215 42.107a5.62 5.62 0 01-2.804 7.422zm30.653 14.425a5.608 5.608 0 01-7.028-3.639l-16.227-42.107a5.298 5.298 0 119.808-3.782l16.215 42.107a5.62 5.62 0 01-2.768 7.421z" fill="#fde24f"/><path d="M105.345 190.646l6.67 81.756 98.175 56.676 15.51-68.608zm38.755 80.48a5.644 5.644 0 01-7.04-3.652l-16.215-42.107a5.286 5.286 0 119.796-3.77l16.227 42.095a5.632 5.632 0 01-2.768 7.433zm30.652 14.413a5.62 5.62 0 01-7.04-3.64l-16.179-42.106a5.298 5.298 0 119.808-3.783l16.215 42.107a5.62 5.62 0 01-2.804 7.422zm30.653 14.425a5.608 5.608 0 01-7.028-3.639l-16.227-42.107a5.298 5.298 0 119.808-3.782l16.215 42.107a5.62 5.62 0 01-2.768 7.421z" opacity=".15"/><path fill="#fde24f" d="M225.689 260.47l67.176-38.79-15.5 68.62-67.175 38.778 15.499-68.608z"/><path style="isolation:isolate" opacity=".4" d="M225.689 260.47l67.176-38.79-15.5 68.62-67.175 38.778 15.499-68.608z"/><path fill="#37474f" d="M249.886 112.338l-7.755 4.546.024-23.494-4.701-2.708-21.287 12.289-.035 28.983-12.409 7.027 27.777 18.017 23.088-41.952-4.702-2.708z"/><path fill="#455a64" d="M220.868 105.68l-.035 28.982-12.409 7.04 23.076 15.296 23.088-41.952-12.469 7.326.036-28.982-21.287 12.29z"/><path fill="#263238" d="M216.167 102.971l4.701 2.709-.035 28.982-4.701-2.708.035-28.983z"/><path fill="#fde24f" d="M119.998 130.581l67.271-38.837-5.608-80.921-61.663 35.604v84.154z"/><path style="isolation:isolate" fill="#fff" opacity=".6" d="M119.998 130.581l67.271-38.837-5.608-80.921-61.663 35.604v84.154z"/><path fill="#fde24f" d="M119.998 46.427v-6.479l-16.824-3.234L164.837 1.11l5.608 9.713h11.216l-61.663 35.604z"/><path style="isolation:isolate" fill="#fff" opacity=".3" d="M119.998 46.427v-6.479l-16.824-3.234L164.837 1.11l5.608 9.713h11.216l-61.663 35.604z"/><path fill="#fde24f" d="M164.837 1.11v19.425l5.608-3.234v-6.478l-5.608-9.713z"/><path style="isolation:isolate" opacity=".1" d="M164.837 1.11v19.425l5.608-3.234v-6.478l-5.608-9.713z"/><path fill="#fde24f" d="M181.661 10.823h-11.216v6.478l11.216-6.478z"/><path style="isolation:isolate" opacity=".2" d="M181.661 10.823h-11.216v6.478l11.216-6.478z"/><path fill="#fde24f" d="M103.174 36.714l-5.608 80.921 22.432 12.946V39.948l-16.824-3.234z"/><path style="isolation:isolate" opacity=".1" d="M103.174 36.714l-5.608 80.921 22.432 12.946V39.948l-16.824-3.234z"/><path fill="#fde24f" d="M119.998 39.948l-11.216 84.154 11.216 6.479V39.948z"/><path style="isolation:isolate" opacity=".2" d="M119.998 39.948l-11.216 84.154 11.216 6.479V39.948z"/><path fill="#fde24f" d="M119.998 130.581l-10.286-13.494-12.146.548 22.432 12.946z"/><path d="M121.358 35.855c0 1.098.763 1.551 1.718 1.003a3.842 3.842 0 001.73-2.995c0-1.098-.776-1.551-1.73-1.003a3.83 3.83 0 00-1.718 2.995zM144.302 22.91c0 1.097.776 1.55 1.73.99a3.806 3.806 0 001.73-2.983c0-1.098-.775-1.551-1.73-1.003a3.83 3.83 0 00-1.73 2.995z" fill="#37474f"/><path d="M123.076 34.602a.585.585 0 01-.573-.572V19.89c0-6.168 5.274-14.222 11.765-17.969 3.58-2.088 7.04-2.493 9.414-1.121 1.897 1.086 2.935 3.21 2.935 5.966v14.318a.585.585 0 01-.584.573.573.573 0 01-.573-.573V6.766c0-2.387-.823-4.105-2.386-4.988-2.005-1.193-5.024-.751-8.257 1.122-6.169 3.58-11.192 11.168-11.192 16.967V34.03a.585.585 0 01-.55.572z" fill="#37474f"/><path d="M138.408 45.568c0 1.097.776 1.539 1.73.99a3.806 3.806 0 001.73-2.983c0-1.098-.775-1.551-1.73-1.002a3.83 3.83 0 00-1.73 2.995zM161.389 32.622c0 1.098.775 1.539 1.73.99a3.806 3.806 0 001.73-2.983c0-1.11-.776-1.55-1.73-1.002a3.806 3.806 0 00-1.73 2.995z" fill="#455a64"/><path d="M140.162 44.315a.573.573 0 01-.56-.56V29.59c0-6.157 5.273-14.21 11.764-17.897 3.58-2.088 7.04-2.494 9.414-1.122 1.885 1.086 2.923 3.21 2.923 5.966v14.318a.573.573 0 01-.56.584h-.012a.585.585 0 01-.585-.584V16.538c0-2.387-.811-4.093-2.386-4.976-2.005-1.193-5.012-.751-8.257 1.122-6.169 3.58-11.18 11.168-11.18 16.955v14.115a.585.585 0 01-.56.56z" fill="#455a64"/><path d="M370.17 90.407c-3.472 7.47-9.414 19.83-12.671 26.68l-12.743-15.01h-10.739s12.886 27.442 20.57 33.862a6.061 6.061 0 008.568-.27q.117-.125.226-.255a113.35 113.35 0 008.627-11.932c6.085-9.402 8.805-13.459 8.805-13.459l7.66-32.216c-6.657-.5-13.482 2.232-18.303 12.6z" fill="#ffa8a7"/><path d="M389.75 77.772c-4.092-.156-8.543-.669-12.444 2.744a31.738 31.738 0 00-8.52 11.932c-2.637 6.204-6.717 14.067-6.717 14.067a34.304 34.304 0 007.636 7.97 19.341 19.341 0 009.175 3.854z" fill="#fde24f"/><path d="M389.75 77.772c-4.092-.156-8.543-.669-12.444 2.744a31.738 31.738 0 00-8.52 11.932c-2.637 6.204-6.717 14.067-6.717 14.067a34.304 34.304 0 007.636 7.97 19.341 19.341 0 009.175 3.854z" style="isolation:isolate" opacity=".45"/><path d="M357.499 117.087a45.553 45.553 0 013.925 5.345s-1.372-5.059-3.233-6.79z" fill="#f28f8f"/><path d="M330.831 82.139l1.015-1.062a1.277 1.277 0 011.133-.239l12.338 2.1a4.427 4.427 0 012.947 2.255l11.096 24.114a1.193 1.193 0 010 1.3l-1.05 1.098a1.265 1.265 0 01-1.193.239l-12.29-2.088a4.439 4.439 0 01-2.947-2.267l-11.096-24.114c-.275-.597-.275-1.074.047-1.336z" fill="#455a64"/><path d="M358.31 110.393l-11.096-24.126a4.45 4.45 0 00-2.947-2.255l-12.338-2.076c-1.193-.191-1.67.5-1.193 1.563l11.096 24.114a4.439 4.439 0 002.948 2.267l12.337 2.088c1.145.179 1.682-.525 1.193-1.575z" fill="#263238"/><path d="M345.65 84.573a4.367 4.367 0 011.576 1.706l11.096 24.102a1.193 1.193 0 010 1.265l.99-1.026a1.193 1.193 0 000-1.289l-11.096-24.114a4.128 4.128 0 00-1.456-1.61z" fill="#37474f"/><path d="M336.666 105.99c-5.107-5.858-4.964-13.196-2.613-15.32l1.551 3.388s7.815 1.742 11.574 1.456 6.825-1.193 7.85-.453c2.184 1.539 2.817 8.077-3.435 10.464-5.31 2.016-14.927.465-14.927.465zM426.452 298.509c-3.305 1.778-7.326 1.634-11.24 0l-1.634-21.382 12.874 1.682zM386.994 285.73c-2.78 6.025-7.815 4.355-13.483.501l1.003-21.477h13.661z" fill="#ffa8a7"/><path d="M402.374 318.745a4.904 4.904 0 00.143 3.305c.43.668 2.888 2.78 7.35 3.09 4.26.31 8.066-.262 10.56-1.849s3.71-3.34 3.95-5.763 0-4.773 1.12-6.646 2.77-3.663 3.139-4.594a9.402 9.402 0 000-4.94z" fill="#263238"/><path d="M414.031 297.566a11.825 11.825 0 01-.513 2.697 25.211 25.211 0 01-2.613 5.345 24.417 24.417 0 01-1.777 2.506c-1.29 1.527-2.888 2.78-4.248 4.26a8.65 8.65 0 00-2.637 5.226c-.18 3.34 3.448 4.474 6.24 4.975a20.606 20.606 0 009.068-.453 8.352 8.352 0 006.11-6.658c.154-.93.095-1.885.214-2.816a13.232 13.232 0 012.59-5.847 17.04 17.04 0 001.992-3.173c.87-2.077.179-4.403-.382-6.456-.477-1.777-1.026-3.794-1.646-3.58a2.207 2.207 0 01-.156 1.075 4.772 4.772 0 00-.489 1.05 8.217 8.217 0 01-.501 1.372 3.58 3.58 0 01-1.491 1.635c0-1.194-.084-2.518-.12-3.783a1.766 1.766 0 00-.286-1.11 1.802 1.802 0 00-1.074-.465 23.326 23.326 0 00-7.159-.584 1.193 1.193 0 00-.954.417 1.384 1.384 0 00-.168.847 31.713 31.713 0 010 3.52z" fill="#37474f"/><path d="M410.452 306.252c1.193-.93 4.033-.942 5.56-.775a9.27 9.27 0 014.331 1.515.99.99 0 001.277-.095.943.943 0 00-.095-1.42 9.402 9.402 0 00-4.88-1.814c-3.747-.262-4.845.382-4.845.382s-1.694 1.145-1.348 2.207zM407.612 309.725c1.575-.92 4.63-.788 6.157-.633a8.77 8.77 0 014.212 1.611.978.978 0 001.277-.107.919.919 0 00-.096-1.42 9.772 9.772 0 00-4.975-1.945c-3.747-.263-4.773.501-4.773.501a3.102 3.102 0 00-1.802 1.993zM418.16 300.131a9.128 9.128 0 00-4.713.394c-.656.37-1.098 1.408-.668 1.67a8.758 8.758 0 014.176-.572 12.47 12.47 0 014.056 1.121c.323.144.704.335 1.039.525a.883.883 0 001.19-.376l.003-.005a.823.823 0 00-.322-1.074 11.991 11.991 0 00-4.761-1.683z" fill="#f5f5f5"/><path d="M351.127 299.475a4.045 4.045 0 00.167 2.971c.418.871 4.964 3.437 11.097 3.019a25.426 25.426 0 0012.671-4.427c2.387-1.55 4.773-1.837 7.804-2.016s7.028-1.683 7.684-3.102a6.718 6.718 0 00-.096-3.866z" fill="#263238"/><path d="M375.766 280.623l-1.587-.62a1.277 1.277 0 00-.906-.096c-.394.143-.55.609-.657 1.014a15.238 15.238 0 01-.668 2.661 6.503 6.503 0 01-1.718 1.802 27.946 27.946 0 01-4.904 3.162c-2.004 1.074-3.961 1.909-6.037 2.84s-4.904 1.527-6.55 2.648c-2.387 1.623-2.721 5.692 0 7.303 2.385 1.384 8.578 2.887 15.105 1.038 3.58-1.003 7.493-4.773 12.158-5.167 2.971-.226 8.58-1.062 10.488-3.317.704-1.002-.238-4.164-1.002-6.896-.847-2.995-1.193-7.66-2.16-7.398-.071.99-.93 1.575-1.455 2.386a18.446 18.446 0 00-1.062 2.387 4.284 4.284 0 01-1.551 2.04 1.969 1.969 0 01-2.387-.131c-.87-.907-.358-2.494-.99-3.58a3.687 3.687 0 00-2.088-1.372z" fill="#37474f"/><path d="M368.094 286.97a2.78 2.78 0 012.196-1.467c1.348-.25 3.734.74 5.214 1.969a1.098 1.098 0 01-.167 1.825 1.098 1.098 0 01-1.265-.143 8.46 8.46 0 00-5.978-2.183zM363.918 289.31a3.174 3.174 0 012.601-1.337 9.915 9.915 0 015.704 2.136 1.074 1.074 0 01-.144 1.766 1.038 1.038 0 01-1.193-.132 8.483 8.483 0 00-6.968-2.434zM359.289 291.421a3.58 3.58 0 012.696-1.193 9.45 9.45 0 015.465 2.16 1.074 1.074 0 01-.143 1.766 1.062 1.062 0 01-1.193-.143 8.138 8.138 0 00-6.825-2.59z" fill="#f5f5f5"/><path d="M424.77 137.561c.764 23.399.704 79.943.704 79.943.25 2.911 1.432 8.89 2.386 20.535 1.265 15.165-1.467 48.49-1.467 48.49a15.511 15.511 0 01-12.218.072s-7.303-47.453-9.57-62.439c-2.04-13.125-6.037-42.763-6.037-42.763l-4.618 38.468a78.57 78.57 0 01-.465 19.234c-1.074 6.896-5.847 35.246-5.847 35.246a24.173 24.173 0 01-13.554-.513s-.441-49.123-.573-55.506c-.131-7.29 3.234-86.541 3.234-86.541z" fill="#37474f"/><path d="M398.52 181.399l-3.46-19.175s-9.545-.835-14.89-6.18c0 0 .942 5.238 13.005 8.352l3.448 19.401-2.72 36.034z" fill="#263238"/><path d="M377.926 95.788c1.026-7.493 2.016-17.563 13.626-18.028l14.986.715c3.687.967 18.03 2.661 18.03 2.661l.274 32.502s.906 23.434.632 35.975c-10.739 6.8-34.065 9.008-48.73-2.124-.44-10.345.156-44.279 1.182-51.7z" fill="#fafafa"/><path d="M379.847 39.208a14.831 14.831 0 005.584 20.218q.48.272.978.508l-2.696 1.86 26.942 2.387-.346 6.491a4.844 4.844 0 002.875-2.171c.967-1.73 3.58-12.35 3.58-12.35 2.53-5.799 3.77-11.764 1.957-13.745a5.06 5.06 0 00-2.685-1.551l3.58-1.802a2.876 2.876 0 00-3.792-1.471q-.055.024-.11.051a2.959 2.959 0 00-.812.609 7.529 7.529 0 00.18-1.194 5.298 5.298 0 00-.8-3.376 6.324 6.324 0 00-1.897-1.659c-3.03-1.897-6.622-2.6-9.999-3.794-1.909-.68-3.758-1.515-5.644-2.279a7.159 7.159 0 00-3.961-.716 2.625 2.625 0 00-2.16 3.019 5.083 5.083 0 00-5.56-.847 4.427 4.427 0 00-2.72 4.39 5.477 5.477 0 00-3.651.359 3.15 3.15 0 00-1.778 3.03 7.243 7.243 0 002.935 4.033z" fill="#37474f"/><path d="M398.818 43.002c2.482-.298 4.94-.704 7.398-1.085a.823.823 0 01.656.083.668.668 0 01.203.37c1.623 4.773 1.575 9.844 2.864 14.652.12.442.394 1.193.919 1.193.954.108 1.61-.74 2.016-1.48l.919-1.658a4.32 4.32 0 01.68-.847c1.193-1.062 4.57-2.386 6.157 1.265s-1.814 8.567-4.558 9.33c-4.773 1.325-5.358-1.718-5.358-1.718l-.906 16.943c-4.2 4.391-18.005 2.864-15.273-.954l.179-5.155a29.293 29.293 0 01-6.348.12c-3.436-.645-5.512-3.437-6.443-7.16-1.491-6.06-1.324-13.47-.155-22.67a12.625 12.625 0 01.847-3.173c4.833 2.696 10.715 2.6 16.203 1.944z" fill="#ffa8a7"/><path d="M394.714 74.001s7.768-1.3 10.512-2.649a8.877 8.877 0 003.842-3.58 12.242 12.242 0 01-2.255 4.284c-2.053 2.458-12.159 3.985-12.159 3.985z" fill="#f28f8f"/><path d="M395.824 54.886a1.659 1.659 0 101.706-1.67 1.694 1.694 0 00-1.706 1.67zM398.126 47.99l3.473 1.491a1.98 1.98 0 00-1.015-2.541 1.85 1.85 0 00-2.427.974l-.03.076z" fill="#263238"/><path d="M397.828 63.895l-5.44 1.85a2.816 2.816 0 003.485 1.925q.047-.013.094-.029a3.007 3.007 0 001.861-3.746z" fill="#b16668"/><path d="M395.979 67.618a2.923 2.923 0 001.885-2.077 2.386 2.386 0 00-3.413 2.136 2.673 2.673 0 001.528-.06z" fill="#f28f8f"/><path d="M382.03 49.386l3.46-1.325a1.79 1.79 0 00-2.284-1.09l-.102.04a1.897 1.897 0 00-1.074 2.375zM383.248 54.886a1.67 1.67 0 101.718-1.682 1.706 1.706 0 00-1.718 1.682z" fill="#263238"/><path d="M391.361 54.373l-.25 9.164-5.107-1.48 4.772-7.755a1.372 1.372 0 01.585.071z" fill="#f28f8f"/><path d="M376.1 105.107c.394-9.486 1.194-17.897 4.678-22.324s5.429-5.298 13.805-5.167v.573a3.102 3.102 0 00-2.387 1.372 49.397 49.397 0 00-6.443 14.318c-2.386 9.224-2.852 29.83-2.983 40.914s0 20.034 0 20.034-5.608-1.313-7.338-4.117c0 0 .263-36.105.668-45.603z" fill="#fde24f"/><path d="M376.1 105.107c.394-9.486 1.194-17.897 4.678-22.324s5.429-5.298 13.805-5.167v.573a3.102 3.102 0 00-2.387 1.372 49.397 49.397 0 00-6.443 14.318c-2.386 9.224-2.852 29.83-2.983 40.914s0 20.034 0 20.034-5.608-1.313-7.338-4.117c0 0 .263-36.105.668-45.603z" style="isolation:isolate" opacity=".35"/><path d="M405.059 90.002c1.193-5.06 3.663-8.353 4.772-10.966l10.477 1.48c3.854 1.778 8.865 5.966 8.495 10.261l-2.744 31.094.763 29.448c-5.966 9.295-23.863 7.576-23.863 7.576s-.513-13.244.06-38.825c.357-14.342.524-23.625 2.04-30.068z" fill="#fde24f"/><path d="M405.059 90.002c1.193-5.06 3.663-8.353 4.772-10.966l10.477 1.48c3.854 1.778 8.865 5.966 8.495 10.261l-2.744 31.094.763 29.448c-5.966 9.295-23.863 7.576-23.863 7.576s-.513-13.244.06-38.825c.357-14.342.524-23.625 2.04-30.068z" style="isolation:isolate" opacity=".35"/><path d="M404.57 92.495c.692-3.245 1.062-9.283 1.634-10.5s3.687-3.58 3.806-5.262v-1.061a5.274 5.274 0 012.625 1.348c.979.87 3.866 2.887 3.866 2.887a13.197 13.197 0 01-2.171 5.584c-1.718 2.47-4.105 4.081-4.475 3.472s-.31-1.539-.942-2.97c-.788-1.802-.979-2.566-1.814-.788-.62 1.42-2.53 7.29-2.53 7.29zM386.708 90.717c-.847 2.745 1.384-9.473 2.84-11.621s5.154-2.995 5.154-2.995l-.155 2.637a3.997 3.997 0 00-2.386 1.647 44.732 44.732 0 00-5.453 10.332z" fill="#37474f"/><path d="M404.188 95.06a226.574 226.574 0 0123.863 3.735l-.083.883a224.9 224.9 0 00-23.923-3.746 4.741 4.741 0 00.143-.871zM376.84 94.894c2.613-.31 5.584-.585 8.842-.74l-.215.895c-3.222.155-6.157.43-8.722.74.024-.299.06-.61.095-.895z" fill="#fde24f"/><path d="M448.347 122.432c-11.192-28.421-13.638-37.263-21.537-40.568a21.238 21.238 0 00-6.502-1.384c-1.945 3.58-4.773 17.325 4.557 26.894 0 0 6.778 16.705 10.19 24.603-.107 7.947.466 14.57-1.957 25.308a7.159 7.159 0 01-2.696 3.58c-2.84 1.562-3.317 3.328-5.417 5.345-1.635 1.575-3.067 1.944-2.828 2.47a3.078 3.078 0 003.58 1.264 26.633 26.633 0 004.402-2.303c.275.323-2.386 4.558-5.142 7.649-4.093 4.546-5.083 7.827 3.09 8.149 5.119.203 10.643-3.997 14.115-14.199.68-2.016 1.396-4.928 2.124-7.767.525-1.193 4.272-20.356 5.06-26.25 1.05-7.279.787-8.173-1.039-12.791z" fill="#ffa8a7"/><path d="M418.912 80.516a16.227 16.227 0 019.915 1.742c4.426 2.673 5.966 5.011 11.3 17.444s6.383 14.831 6.383 14.831-2.387 7.088-16.633 7.899l-6.384-14.557s-5.297-6.598-5.787-14.747 1.206-12.612 1.206-12.612z" fill="#fde24f"/><path d="M418.912 80.516a16.227 16.227 0 019.915 1.742c4.426 2.673 5.966 5.011 11.3 17.444s6.383 14.831 6.383 14.831-2.387 7.088-16.633 7.899l-6.384-14.557s-5.297-6.598-5.787-14.747 1.206-12.612 1.206-12.612z" style="isolation:isolate" opacity=".45"/></svg>