<svg xmlns="http://www.w3.org/2000/svg" viewBox="0 0 978.85 201.201"><path d="M273.766 107.99v-70.6h10.674v29.224l23.59-29.223h13.051L295.07 68.784l29.107 39.205h-13.769L284.44 71.92v36.07zM323.553 42.502a6.458 6.458 0 011.817-4.581 5.746 5.746 0 014.328-1.929 5.665 5.665 0 014.328 1.857 6.574 6.574 0 011.727 4.653 6.691 6.691 0 01-1.75 4.702 5.615 5.615 0 01-4.305 1.905 5.712 5.712 0 01-4.328-1.953 6.597 6.597 0 01-1.817-4.654zm1.301 65.487V62.274h9.733v45.715zM352.71 69.556a14.92 14.92 0 014.15-6.704 9.587 9.587 0 016.39-2.17 15.747 15.747 0 014.06.53 18.89 18.89 0 013.923 1.544l-3.498 8.873a8.745 8.745 0 00-2.713-1.423 10.825 10.825 0 00-3.252-.458 7.216 7.216 0 00-6.951 4.171q-2.109 4.172-2.108 14.01v20.06h-9.732V62.177h9.732zM411.289 107.99h-9.732v-5.932a17.561 17.561 0 01-6.077 5.883 16.14 16.14 0 01-7.961 1.929q-9.014 0-14.195-6.63-5.18-6.63-5.18-18.157 0-10.946 5.292-17.673a16.75 16.75 0 0113.814-6.727 16.327 16.327 0 018.903 2.338 13.47 13.47 0 015.404 6.727v-7.474h9.732zm-9.463-23.003q0-7.09-3.072-11.043a10.259 10.259 0 00-8.589-3.955 10.384 10.384 0 00-8.678 4.075q-3.162 4.076-3.162 11.308 0 7.283 3.05 11.236a10.985 10.985 0 0017.155-.338q3.295-4.29 3.296-11.283zM419.233 107.99V62.273h9.149v7.474a18.935 18.935 0 016.861-6.896 19.666 19.666 0 019.598-2.17 18.474 18.474 0 018.095 1.616 12.03 12.03 0 015.225 4.798 13.665 13.665 0 011.615 4.388 52.505 52.505 0 01.493 8.777v27.728h-9.822V84.504q0-9.017-2.04-11.983-2.042-2.966-7.243-2.965a13.274 13.274 0 00-6.077 1.35 10.288 10.288 0 00-4.194 3.81 10.86 10.86 0 00-1.502 4.219 56.045 56.045 0 00-.426 8.222v20.832zM507.724 107.99h-9.733v-5.932a17.563 17.563 0 01-6.076 5.883 16.14 16.14 0 01-7.96 1.929q-9.015 0-14.195-6.63t-5.18-18.157q0-10.946 5.292-17.673a16.75 16.75 0 0113.813-6.727 16.321 16.321 0 018.902 2.338 13.47 13.47 0 015.404 6.727v-7.474h9.733zm-9.463-23.003q0-7.09-3.072-11.043a10.255 10.255 0 00-8.588-3.955 10.384 10.384 0 00-8.678 4.075q-3.162 4.076-3.163 11.308 0 7.283 3.05 11.236a10.984 10.984 0 0017.154-.338q3.299-4.29 3.297-11.283zM538.68 107.99v-70.6h36.642v9.742h-25.966v17.6h25.966v10.08h-25.966v33.177zM577.436 85.18a25.422 25.422 0 011.771-9.476 24.4 24.4 0 015.091-7.933 22.8 22.8 0 017.534-5.256 22.928 22.928 0 0117.962 0 22.869 22.869 0 017.602 5.4 24.353 24.353 0 015.113 7.957 25.153 25.153 0 011.749 9.308 25.976 25.976 0 01-1.727 9.5 23.347 23.347 0 01-5.045 7.86 24.22 24.22 0 01-7.76 5.474 22.38 22.38 0 01-17.849 0 22.924 22.924 0 01-7.579-5.377 24.889 24.889 0 01-5.113-8.005 25.536 25.536 0 01-1.75-9.452zm36.552.096a15.917 15.917 0 00-3.813-10.778 12.042 12.042 0 00-18.634 0 17.062 17.062 0 000 21.556 12.02 12.02 0 0018.613 0 15.86 15.86 0 003.834-10.778zM638.795 69.556a14.916 14.916 0 014.149-6.704 9.584 9.584 0 016.39-2.17 15.738 15.738 0 014.059.53 18.897 18.897 0 013.925 1.544l-3.498 8.873a8.747 8.747 0 00-2.714-1.423 10.824 10.824 0 00-3.252-.458 7.216 7.216 0 00-6.951 4.171q-2.108 4.172-2.108 14.01v20.06h-9.732V62.177h9.732zM680.38 107.99v-70.6h10.675v26.041h32.29v-26.04h10.675v70.598h-10.674V73.703h-32.291v34.286zM739.631 85.18a25.422 25.422 0 011.772-9.476 24.401 24.401 0 015.09-7.933 22.8 22.8 0 017.535-5.256 22.928 22.928 0 0117.961 0 22.87 22.87 0 017.602 5.4 24.353 24.353 0 015.113 7.957 25.153 25.153 0 011.75 9.308 25.976 25.976 0 01-1.727 9.5 23.347 23.347 0 01-5.046 7.86 24.22 24.22 0 01-7.759 5.474 22.38 22.38 0 01-17.85 0 22.924 22.924 0 01-7.579-5.377 24.89 24.89 0 01-5.113-8.005 25.536 25.536 0 01-1.749-9.452zm36.552.096a15.917 15.917 0 00-3.813-10.778 12.042 12.042 0 00-18.633 0 17.062 17.062 0 000 21.556 12.02 12.02 0 0018.612 0 15.86 15.86 0 003.834-10.778zM800.99 107.99h-9.732V62.273h9.15v7.474a19.869 19.869 0 016.615-6.968 16.782 16.782 0 018.722-2.194 14.282 14.282 0 018.252 2.242 13.775 13.775 0 014.979 6.824 23.247 23.247 0 017.153-6.896 17.06 17.06 0 018.634-2.17 15.49 15.49 0 017.354 1.663 11.773 11.773 0 014.89 4.847 12.086 12.086 0 011.188 3.568 35 35 0 01.381 5.932v31.393h-9.732V84.504q0-9.21-1.816-12.128-1.817-2.917-6.48-2.917-5.743 0-8.186 3.93-2.445 3.931-2.445 13.768v20.832h-9.821V84.504q0-8.486-1.906-11.766-1.908-3.279-6.57-3.28a10.203 10.203 0 00-9.015 5.257 11.504 11.504 0 00-1.256 3.906 66.299 66.299 0 00-.359 8.536zM907.064 86.675h-33.996q.359 6.414 3.543 10.006a10.768 10.768 0 008.476 3.592 13.697 13.697 0 007.849-2.122 17.176 17.176 0 005.471-6.847l8.207 4.919a26.025 26.025 0 01-8.88 10.271 22.604 22.604 0 01-12.422 3.376q-10.226 0-16.28-6.703t-6.055-17.89q0-10.754 6.257-17.675a20.695 20.695 0 0116.078-6.92q10.27 0 16.01 6.317 5.741 6.318 5.742 17.698zm-10.092-7.04a11.376 11.376 0 00-3.498-7.5q-2.915-2.579-7.983-2.58a11.42 11.42 0 00-7.714 2.508 13.696 13.696 0 00-4.081 7.571z" fill="#e32227"/><path d="M212.728 182.99v-17.006l-11.636-20.152h5.9l7.247 12.614q.26.482.65 1.269.388.788.79 1.7.33-.888.696-1.675a14.99 14.99 0 01.767-1.446l7.436-12.462h5.618l-11.897 20.152v17.005zM226.32 170.984a13.378 13.378 0 01.932-4.987 12.835 12.835 0 012.679-4.175 11.993 11.993 0 013.965-2.766 12.06 12.06 0 019.454 0 12.026 12.026 0 014 2.842 12.817 12.817 0 012.692 4.188 13.244 13.244 0 01.92 4.898 13.672 13.672 0 01-.908 5 12.29 12.29 0 01-2.656 4.137 12.749 12.749 0 01-4.083 2.88 11.774 11.774 0 01-9.395 0 12.06 12.06 0 01-3.99-2.83 13.107 13.107 0 01-2.69-4.212 13.438 13.438 0 01-.92-4.975zm19.237.051a8.38 8.38 0 00-2.006-5.673 6.339 6.339 0 00-9.808 0 8.982 8.982 0 000 11.346 6.326 6.326 0 009.796 0 8.347 8.347 0 002.018-5.673zM261.107 158.929v13.552q0 3.503 1.345 5.026 1.346 1.523 4.367 1.523t4.367-1.523q1.345-1.522 1.345-5.026V158.93h5.123v11.903q0 6.904-2.573 10.025-2.573 3.122-8.215 3.122-5.736 0-8.309-3.096-2.573-3.097-2.572-10.051v-11.903zM289.45 162.76a7.847 7.847 0 012.184-3.527 5.044 5.044 0 013.363-1.142 8.308 8.308 0 012.137.279 9.933 9.933 0 012.065.813l-1.841 4.67a4.589 4.589 0 00-1.428-.75 5.715 5.715 0 00-1.712-.24 3.798 3.798 0 00-3.658 2.195q-1.11 2.195-1.11 7.373v10.558h-5.122v-24.111h5.122zM316.656 182.99v-37.158h7.576a46.095 46.095 0 0110.398.8 13.645 13.645 0 015.276 2.677 15.443 15.443 0 014.544 6.32 23.537 23.537 0 011.546 8.807 23.24 23.24 0 01-1.546 8.769 15.676 15.676 0 01-4.544 6.307 13.693 13.693 0 01-5.158 2.677 36.786 36.786 0 01-9.005.8h-9.087zm5.617-5.458h4.72a22.697 22.697 0 005.843-.558 8.323 8.323 0 003.387-1.878 11.205 11.205 0 002.94-4.48 20.309 20.309 0 000-12.462 11.205 11.205 0 00-2.94-4.48 8.487 8.487 0 00-3.505-1.877 26.424 26.424 0 00-6.385-.559h-4.06zM372.829 182.99h-5.123v-3.123a9.24 9.24 0 01-3.198 3.097 8.49 8.49 0 01-4.19 1.015 8.962 8.962 0 01-7.47-3.49q-2.727-3.49-2.727-9.555a14.612 14.612 0 012.785-9.302 8.816 8.816 0 017.27-3.541 8.585 8.585 0 014.686 1.231 7.085 7.085 0 012.844 3.54v-3.933h5.123zm-4.98-12.107a9.274 9.274 0 00-1.618-5.813 5.4 5.4 0 00-4.52-2.08 5.465 5.465 0 00-4.568 2.144 11.584 11.584 0 00-.059 11.865 5.782 5.782 0 009.029-.177 9.49 9.49 0 001.735-5.94zM379.22 148.522a3.396 3.396 0 01.956-2.41 3.023 3.023 0 012.278-1.016 2.981 2.981 0 012.278.977 3.459 3.459 0 01.908 2.45 3.521 3.521 0 01-.92 2.474 2.954 2.954 0 01-2.266 1.003 3.005 3.005 0 01-2.278-1.028 3.47 3.47 0 01-.956-2.45zm.685 34.467v-24.06h5.122v24.06zM392.339 182.99v-39.34h5.122v39.34zM408.384 194.309h-5.264l6.138-13.4-8.215-21.98h5.665l4.107 12.462q.355 1.14.626 2.322.271 1.179.437 2.398a30.718 30.718 0 011.463-4.036l.118-.304 5.524-12.842h5.547zM441.844 182.99v-38.63l21.953 22.715q.896.965 1.817 2.057.92 1.091 1.936 2.462v-25.762h5.193v38.603l-22.401-23.12q-.897-.94-1.735-1.98-.838-1.042-1.593-2.184v25.838zM501.558 171.771h-17.892a8.41 8.41 0 001.865 5.266 5.668 5.668 0 004.46 1.892 7.21 7.21 0 004.131-1.118 9.04 9.04 0 002.881-3.603l4.319 2.589a13.686 13.686 0 01-4.674 5.405 11.887 11.887 0 01-6.538 1.777 10.973 10.973 0 01-8.568-3.528q-3.187-3.527-3.187-9.416a13.339 13.339 0 013.293-9.302 10.893 10.893 0 018.462-3.642q5.406 0 8.426 3.325 3.024 3.325 3.022 9.314zm-5.31-3.706a5.987 5.987 0 00-1.842-3.946 6.118 6.118 0 00-4.202-1.358 6.01 6.01 0 00-4.06 1.32 7.208 7.208 0 00-2.148 3.984zM528.202 171.771H510.31a8.404 8.404 0 001.865 5.266 5.667 5.667 0 004.461 1.892 7.21 7.21 0 004.13-1.118 9.04 9.04 0 002.88-3.603l4.32 2.589a13.694 13.694 0 01-4.674 5.405 11.892 11.892 0 01-6.538 1.777 10.973 10.973 0 01-8.568-3.528q-3.188-3.527-3.187-9.416a13.339 13.339 0 013.293-9.302 10.892 10.892 0 018.462-3.642q5.405 0 8.427 3.325 3.022 3.325 3.021 9.314zm-5.311-3.706a5.986 5.986 0 00-1.841-3.946 6.118 6.118 0 00-4.201-1.358 6.009 6.009 0 00-4.06 1.32 7.204 7.204 0 00-2.148 3.984zM549.228 143.65h5.122v39.34h-5.122v-3.123a9.24 9.24 0 01-3.198 3.097 8.49 8.49 0 01-4.19 1.015 8.965 8.965 0 01-7.472-3.49q-2.726-3.49-2.725-9.555a14.609 14.609 0 012.785-9.302 8.816 8.816 0 017.27-3.541 8.586 8.586 0 014.686 1.231 7.085 7.085 0 012.844 3.54zm.141 27.233a9.277 9.277 0 00-1.616-5.813 5.4 5.4 0 00-4.52-2.08 5.465 5.465 0 00-4.568 2.144 11.586 11.586 0 00-.06 11.865 5.804 5.804 0 009.042-.165 9.521 9.521 0 001.722-5.951zM573.978 175.553l4.485-2.234a6.691 6.691 0 002.337 3.794 6.913 6.913 0 004.343 1.308 5.328 5.328 0 003.977-1.498 5.465 5.465 0 001.476-4.01q0-3.274-5.052-5.838-.707-.38-1.086-.557-5.711-2.996-7.612-5.42a9.314 9.314 0 01-1.9-5.926 9.86 9.86 0 012.868-7.36 10.269 10.269 0 017.518-2.818 11.981 11.981 0 016.397 1.587 8.24 8.24 0 013.564 4.556l-4.39 2.436a7.645 7.645 0 00-2.278-2.563 5.076 5.076 0 00-2.845-.813 5.007 5.007 0 00-3.6 1.27 4.47 4.47 0 00-1.333 3.4q0 3.352 5.854 6.244c.3.153.535.27.708.356q5.121 2.538 7.035 4.962a9.473 9.473 0 011.912 6.052 11.831 11.831 0 01-18.684 9.315 10.302 10.302 0 01-3.694-6.243zM603.03 182.99v-19.24h-3.918v-4.821h3.918v-9.113h5.123v9.113h3.918v4.822h-3.918v19.238zM614.591 170.984a13.397 13.397 0 01.932-4.987 12.844 12.844 0 012.68-4.175 11.995 11.995 0 013.965-2.766 12.06 12.06 0 019.453 0 12.02 12.02 0 014.001 2.842 12.825 12.825 0 012.692 4.188 13.243 13.243 0 01.92 4.898 13.672 13.672 0 01-.909 5 12.304 12.304 0 01-2.655 4.137 12.746 12.746 0 01-4.084 2.88 11.774 11.774 0 01-9.394 0 12.064 12.064 0 01-3.99-2.83 13.109 13.109 0 01-2.691-4.212 13.448 13.448 0 01-.92-4.975zm19.237.051a8.381 8.381 0 00-2.006-5.673 6.339 6.339 0 00-9.807 0 8.98 8.98 0 000 11.346 6.326 6.326 0 009.796 0 8.352 8.352 0 002.017-5.673zM649.544 162.76a7.848 7.848 0 012.184-3.527 5.042 5.042 0 013.363-1.142 8.317 8.317 0 012.137.279 9.954 9.954 0 012.065.813l-1.842 4.67a4.594 4.594 0 00-1.427-.75 5.714 5.714 0 00-1.712-.24 3.798 3.798 0 00-3.658 2.195q-1.11 2.195-1.11 7.373v10.558h-5.122v-24.111h5.122zM683.529 171.771h-17.893a8.404 8.404 0 001.865 5.266 5.667 5.667 0 004.461 1.892 7.21 7.21 0 004.131-1.118 9.04 9.04 0 002.88-3.603l4.32 2.589a13.694 13.694 0 01-4.675 5.405 11.892 11.892 0 01-6.538 1.777 10.973 10.973 0 01-8.568-3.528q-3.188-3.527-3.187-9.416a13.339 13.339 0 013.293-9.302 10.892 10.892 0 018.462-3.642q5.406 0 8.427 3.325 3.022 3.325 3.022 9.314zm-5.312-3.706a5.986 5.986 0 00-1.84-3.946 6.118 6.118 0 00-4.202-1.358 6.009 6.009 0 00-4.06 1.32 7.204 7.204 0 00-2.148 3.984zM692.375 176.695l4.603 1.827-6.137 13.604-3.045-1.294zM717.739 182.99v-38.63l21.952 22.715q.896.965 1.817 2.057.921 1.091 1.936 2.462v-25.762h5.193v38.603l-22.401-23.12q-.897-.94-1.735-1.98-.838-1.042-1.594-2.184v25.838zM754.25 170.984a13.397 13.397 0 01.93-4.987 12.844 12.844 0 012.68-4.175 11.995 11.995 0 013.966-2.766 12.06 12.06 0 019.454 0 12.02 12.02 0 014 2.842 12.825 12.825 0 012.692 4.188 13.243 13.243 0 01.92 4.898 13.672 13.672 0 01-.908 5 12.304 12.304 0 01-2.656 4.137 12.746 12.746 0 01-4.084 2.88 11.774 11.774 0 01-9.394 0 12.064 12.064 0 01-3.99-2.83 13.109 13.109 0 01-2.69-4.212 13.448 13.448 0 01-.92-4.975zm19.237.051a8.381 8.381 0 00-2.006-5.673 6.339 6.339 0 00-9.808 0 8.98 8.98 0 000 11.346 6.326 6.326 0 009.796 0 8.352 8.352 0 002.018-5.673zM805.49 184.435l-5.17-12.512q-.59-1.446-.968-2.575-.378-1.13-.685-2.222-.518 1.65-.92 2.83-.401 1.18-.637 1.765l-5.31 12.714-11.59-25.506h5.451l5.029 11.598a13.241 13.241 0 01.601 2.018q.295 1.282.508 2.83a8.304 8.304 0 01.283-1.903 18.417 18.417 0 01.873-2.437l5.477-12.995h.425l5.57 12.995a14.18 14.18 0 01.768 2.259 11.235 11.235 0 01.294 2.08 23.739 23.739 0 01.543-2.588 16.593 16.593 0 01.755-2.208l4.934-11.65h5.405zM870.297 164.487a20.367 20.367 0 01-1.38 7.487 19.123 19.123 0 01-4.025 6.294 18.83 18.83 0 01-6.02 4.239 17.305 17.305 0 01-7.034 1.472 17.533 17.533 0 01-7.117-1.485 18.276 18.276 0 01-5.983-4.226 18.997 18.997 0 01-4.013-6.27 21.294 21.294 0 010-15.023 19.221 19.221 0 014.013-6.32 18.23 18.23 0 015.995-4.214 18.077 18.077 0 0114.174 0 18.28 18.28 0 015.985 4.213 19.66 19.66 0 014.024 6.359 20.4 20.4 0 011.381 7.474zm-5.854 0a15.053 15.053 0 00-.956-5.355 14.001 14.001 0 00-2.75-4.518 12.193 12.193 0 00-4.048-3.008 11.756 11.756 0 00-9.701-.012 12.362 12.362 0 00-4.096 3.02 13.552 13.552 0 00-2.738 4.492 15.293 15.293 0 00-.945 5.381 15.012 15.012 0 00.945 5.33 13.91 13.91 0 002.738 4.492 12.4 12.4 0 004.084 3.02 11.6 11.6 0 004.862 1.041 11.423 11.423 0 004.804-1.041 12.706 12.706 0 004.095-3.02 14.042 14.042 0 002.75-4.505 14.88 14.88 0 00.956-5.317zM876.074 182.99v-24.061h4.816v3.933a9.955 9.955 0 013.611-3.629 10.346 10.346 0 015.051-1.142 9.712 9.712 0 014.26.85 6.322 6.322 0 012.75 2.526 7.167 7.167 0 01.85 2.31 27.568 27.568 0 01.26 4.618v14.594h-5.169v-12.36q0-4.746-1.074-6.307t-3.813-1.561a6.99 6.99 0 00-3.198.71 5.412 5.412 0 00-2.207 2.005 5.718 5.718 0 00-.79 2.221 29.58 29.58 0 00-.224 4.327v10.965zM904.489 182.99v-39.34h5.123v39.34zM916.238 148.522a3.4 3.4 0 01.956-2.41 3.024 3.024 0 012.278-1.016 2.98 2.98 0 012.277.977 3.455 3.455 0 01.91 2.45 3.52 3.52 0 01-.921 2.474 2.953 2.953 0 01-2.266 1.003 3.007 3.007 0 01-2.278-1.028 3.475 3.475 0 01-.956-2.45zm.684 34.467v-24.06h5.123v24.06zM929.12 182.99v-24.061h4.816v3.933a9.956 9.956 0 013.611-3.629 10.346 10.346 0 015.05-1.142 9.712 9.712 0 014.262.85 6.322 6.322 0 012.75 2.526 7.167 7.167 0 01.85 2.31 27.568 27.568 0 01.259 4.618v14.594h-5.169v-12.36q0-4.746-1.074-6.307t-3.813-1.561a6.99 6.99 0 00-3.198.71 5.412 5.412 0 00-2.207 2.005 5.718 5.718 0 00-.79 2.221 29.58 29.58 0 00-.225 4.327v10.965zM978.85 171.771h-17.893a8.404 8.404 0 001.865 5.266 5.667 5.667 0 004.461 1.892 7.21 7.21 0 004.131-1.118 9.04 9.04 0 002.88-3.603l4.32 2.589a13.694 13.694 0 01-4.674 5.405 11.892 11.892 0 01-6.538 1.777 10.973 10.973 0 01-8.569-3.528q-3.187-3.527-3.186-9.416a13.339 13.339 0 013.293-9.302 10.892 10.892 0 018.462-3.642q5.405 0 8.426 3.325 3.022 3.325 3.022 9.314zm-5.312-3.706a5.986 5.986 0 00-1.84-3.946 6.118 6.118 0 00-4.202-1.358 6.009 6.009 0 00-4.06 1.32 7.204 7.204 0 00-2.148 3.984z"/><path d="M172.9 98.67v99.31a3.166 3.166 0 01-3.12 3.22H121.9v-77.3a5.002 5.002 0 00-5-5H84.3a5.002 5.002 0 00-5 5v77.3H31.42a3.166 3.166 0 01-3.12-3.22V98.13a3.25 3.25 0 011.13-2.48l1.43-1.43 67.58-67.08a3.042 3.042 0 014.32.01l.02.02 66.87 67.07.02.02 2.19 2.02a3.256 3.256 0 011.03 2.39z" fill="#f3c319" fill-rule="evenodd"/><path d="M100.6 15.297L10.285 105.87a5.868 5.868 0 01-8.607-.228 6.692 6.692 0 01.216-9.094l94.512-94.78a5.863 5.863 0 018.391 0l94.512 94.78a6.691 6.691 0 01.217 9.094 5.868 5.868 0 01-8.607.228z" fill-rule="evenodd"/><path d="M100.6 57.264a15.346 15.346 0 11-10.85 4.495 15.297 15.297 0 0110.85-4.495zM43.027 193.35h46.781v3.338H43.027z"/><path d="M62.333 129.578v-6.777a.8.8 0 00-.8-.8h-2.06a.8.8 0 00-.801.8v6.777a3.444 3.444 0 00-3.157 3.432v10.157a3.444 3.444 0 003.445 3.444h3.085a3.444 3.444 0 003.444-3.444V133.01a3.444 3.444 0 00-3.156-3.432z" fill="#a84766"/><path fill="#ffd6e3" d="M57.094 132.314h6.817v9.514h-6.817z"/><path d="M62.333 126.088v-3.287a.8.8 0 00-.8-.8h-2.06a.8.8 0 00-.801.8v3.287z" fill="#80364f"/><path d="M74.709 129.578v-6.777a.8.8 0 00-.8-.8h-2.06a.8.8 0 00-.801.8v6.777a3.444 3.444 0 00-3.156 3.432v10.157a3.444 3.444 0 003.444 3.444h3.085a3.444 3.444 0 003.444-3.444V133.01a3.444 3.444 0 00-3.156-3.432z" fill="#a84766"/><path fill="#ffd6e3" d="M69.47 132.314h6.817v9.514H69.47z"/><path d="M74.709 126.088v-3.287a.8.8 0 00-.8-.8h-2.06a.8.8 0 00-.801.8v3.287z" fill="#80364f"/><path d="M86.132 135.226v-6.777a.8.8 0 00-.8-.8h-2.06a.8.8 0 00-.801.8v6.777a3.444 3.444 0 00-3.156 3.431v10.158a3.444 3.444 0 003.444 3.444h3.085a3.444 3.444 0 003.444-3.444v-10.158a3.444 3.444 0 00-3.156-3.431z" fill="#a84766"/><path fill="#ffd6e3" d="M80.893 137.961h6.817v9.514h-6.817z"/><path d="M86.132 131.736v-3.287a.8.8 0 00-.8-.8h-2.06a.8.8 0 00-.801.8v3.287z" fill="#80364f"/><ellipse cx="63.913" cy="563.548" rx="6.909" ry="11.969" transform="rotate(-32.853 -631.087 376.697)" fill="#84ba00"/><path d="M47.63 146.584l-.101.203 12.86 19.916q.114-.004.227-.01a13.822 13.822 0 00-12.985-20.109z" fill="#6d9900"/><ellipse cx="80.304" cy="553.048" rx="11.969" ry="6.909" transform="rotate(-77.853 -176.498 355.654)" fill="#84ba00"/><path d="M73.032 134.438l-.215.071-4.989 23.177q.083.078.167.154a13.822 13.822 0 005.037-23.402z" fill="#6d9900"/><ellipse cx="63.913" cy="547.701" rx="6.909" ry="11.969" transform="rotate(-35.797 -570.953 359.403)" fill="#84ba00"/><path d="M47.123 131.084q-.047.103-.091.207l13.866 19.23.226-.021a13.822 13.822 0 00-14.001-19.416z" fill="#6d9900"/><ellipse cx="101.887" cy="553.988" rx="11.969" ry="6.909" transform="rotate(-45.423 -389.108 362.228)" fill="#84ba00"/><path d="M100.498 138.553q-.11-.029-.22-.055l-16.64 16.887.058.22a13.822 13.822 0 0016.802-17.052z" fill="#6d9900"/><circle cx="75.612" cy="149.595" r="7.194" fill="#3f89ff"/><circle cx="95.717" cy="154.273" r="7.194" fill="#ff4f3f"/><circle cx="84.903" cy="149.595" r="7.194" fill="#3fc9ff"/><circle cx="77.708" cy="156.79" r="7.194" fill="#ffda3f"/><circle cx="88.522" cy="156.79" r="7.194" fill="#ff823f"/><circle cx="91.341" cy="166.97" r="7.194" fill="#ffe370"/><path fill="#f54800" d="M49.886 156.639h10.802v14.691H49.886z"/><path d="M61.064 155.062H49.511a.789.789 0 00-.789.788.789.789 0 00.79.789h11.552a.789.789 0 00.789-.789.789.789 0 00-.789-.788z" fill="#b33400"/><rect x="48.722" y="171.33" width="13.13" height="1.577" rx=".651" fill="#b33400"/><path fill="#f5c6b3" d="M49.886 160.528h10.802v6.913H49.886z"/><ellipse cx="55.288" cy="163.984" rx="3.727" ry="5.347" fill="#fff4f0"/><path fill="#f54800" d="M63.017 156.639h10.802v14.691H63.017z"/><path d="M74.194 155.062H62.641a.789.789 0 00-.788.788.789.789 0 00.788.789h11.553a.789.789 0 00.789-.789.789.789 0 00-.789-.788zM62.503 171.33h11.83a.65.65 0 01.65.65v.277a.65.65 0 01-.65.65h-11.83a.65.65 0 01-.65-.65v-.277a.65.65 0 01.65-.65z" fill="#b33400"/><path fill="#f5c6b3" d="M63.017 160.528h10.802v6.913H63.017z"/><ellipse cx="68.418" cy="163.984" rx="3.727" ry="5.347" fill="#fff4f0"/><path fill="#f54800" d="M55.288 138.793H66.09v14.691H55.288z"/><path d="M66.465 137.216H54.912a.789.789 0 00-.788.789.789.789 0 00.788.788h11.553a.789.789 0 00.789-.788.789.789 0 00-.789-.789zM66.465 153.484H54.912a.789.789 0 00-.788.789.789.789 0 00.788.789h11.553a.789.789 0 00.789-.79.789.789 0 00-.789-.788z" fill="#b33400"/><path fill="#f5c6b3" d="M55.288 142.682H66.09v6.913H55.288z"/><ellipse cx="60.689" cy="146.139" rx="3.727" ry="5.347" fill="#fff4f0"/><path d="M61.232 173.647a39.235 39.235 0 011.717-11.176 7.106 7.106 0 011.515-2.977c1.342-1.37 3.45-1.558 5.365-1.663a18.536 18.536 0 015.216.208 6.254 6.254 0 014.177 2.894 13.032 13.032 0 019.123-5.249 13.431 13.431 0 0110.174 3.289 9.948 9.948 0 01-8.532 10.28 6.835 6.835 0 01.056 4.368 50.226 50.226 0 01-28.811.026z" fill="#ab6a00"/><path fill="#cca572" d="M96.127 157.445l3.584-13.805-1.293-.335-3.654 14.078-7.222-.329 2.461-14.723-1.317-.22-2.488 14.882-7.206-.328 1.298-15.64-1.331-.11-1.301 15.689-7.184-.327.098-16.554-1.335-.008-.098 16.501-7.156-.326-1.132-17.466-1.332.087 1.122 17.318-7.125-.324-2.389-18.375-1.324.172 2.358 18.141-7.741-.352-.06 1.333 7.976.364 2.541 19.543 1.324-.172-2.511-19.31 7.038.321 1.221 18.839 1.332-.086-1.211-18.692 7.061.321-.107 18.131 1.335.007.107-18.077 7.081.323-1.445 17.416 1.331.11 1.449-17.465 7.095.323-2.792 16.698 1.317.22 2.818-16.857 7.101.323-4.147 15.977 1.292.336 4.218-16.251 5.402.246.061-1.333-5.12-.234z"/><path d="M107.045 143.643a1.67 1.67 0 00-1.173-.755l-64.916-9.156-1.803-7.931a1.669 1.669 0 00-1.258-1.258l-15.225-3.458a1.669 1.669 0 00-.74 3.255l14.2 3.226 1.826 8.028v.003l.001.003 8.975 38.835-8.894 21.772a1.669 1.669 0 001.545 2.3h6.305a1.761 1.761 0 11.476-3.337h-4.296l7.73-18.925h46.747a1.669 1.669 0 001.597-1.185l9.094-30.035a1.669 1.669 0 00-.191-1.382zm-11.739 29.264H50.004l-8.247-35.69 61.72 8.705z"/><circle cx="41.403" cy="195.019" r="6.183" fill="gray"/><circle cx="92.658" cy="195.019" r="6.183" fill="gray"/></svg>