<svg xmlns="http://www.w3.org/2000/svg" viewBox="0 0 950.4 504.9"><path d="M517.2 217.3L413.1 64.8S387.6 23.6 349 23.6L188.6 2.1S173.5 73 263 88l83.8 16.5 21.5 78.8h-328a38.1 38.1 0 100 76.2 38.2 38.2 0 000 76.3 38.1 38.1 0 100 76.2 38.1 38.1 0 000 76.2h242.2c30.3 3.2 172.3 14.1 246.2-51.5h53.7V217.3z" fill="#f5d8c9"/><path d="M336.8 493.2a501.7 501.7 0 01-54.6-2.8H40.3a40.3 40.3 0 01-13-78.4 40.2 40.2 0 010-76.2 40.3 40.3 0 010-76.3 40.2 40.2 0 0113-78.3h77.4l.7-.2h247.1l-20.4-74.6-82.5-16.2C232.2 85 210.2 73 197.5 54.3c-16.7-24.6-11.3-51.5-11-52.6a2 2 0 012.3-1.7l160.4 21.5h.1c39.1 0 64.5 40.4 65.6 42.1l103.5 151.6h64a2.1 2.1 0 012.2 2.1v219.5a2.1 2.1 0 01-2.2 2.1h-52.9c-51 44.8-132.9 54.3-192.7 54.3zM42.4 412.1a2.1 2.1 0 01-2.1 2.1 36 36 0 100 72h242.2a535.9 535.9 0 0054.3 2.7c59.3 0 140.5-9.4 190.5-53.7a2 2 0 011.4-.6h51.6V219.5h-63.1a2.1 2.1 0 01-1.7-1L411.3 66c-.3-.5-25.3-40.3-62.3-40.3L190.3 4.5c-.8 6.5-2.4 28 10.8 47.4 12 17.7 33 29.1 62.3 34l83.8 16.5a2.3 2.3 0 011.7 1.6l21.5 78.7a2.5 2.5 0 01-.4 1.9 2.1 2.1 0 01-1.7.8H119.1l-.7.2H40.3a36 36 0 100 71.9 2.1 2.1 0 012.1 2.1 2.1 2.1 0 01-2.1 2.2 36 36 0 100 71.9 2.1 2.1 0 012.1 2.2 2.1 2.1 0 01-2.1 2.1 36 36 0 100 71.9 2.1 2.1 0 012.1 2.2z"/><path fill="#00214d" d="M641 171h307.2v309.36H641z"/><path d="M948.3 482.5H641a2.2 2.2 0 01-2.1-2.2V170.9a2.2 2.2 0 012.1-2.1h307.3a2.2 2.2 0 012.1 2.1v309.4a2.2 2.2 0 01-2.1 2.2zm-305.1-4.3h302.9V173.1H643.2z"/><path d="M440 330.7a172 172 0 01-172 172c-95 0-172.1-77-172.1-172S173 158.6 268 158.6s172 77.1 172 172.1z" fill="#fde24f"/><path d="M268 504.9c-96.1 0-174.2-78.2-174.2-174.2S171.9 156.5 268 156.5s174.2 78.1 174.2 174.2S364 504.9 268 504.9zm0-344.1c-93.7 0-169.9 76.2-169.9 169.9S174.3 500.6 268 500.6s169.9-76.2 169.9-169.9S361.7 160.8 268 160.8z"/><path d="M411.4 330.7A143.4 143.4 0 11268 187.3a143.3 143.3 0 01143.4 143.4z" fill="#f1f2f2"/><path d="M268 476.2c-80.2 0-145.5-65.3-145.5-145.5S187.8 185.2 268 185.2s145.5 65.2 145.5 145.5S348.2 476.2 268 476.2zm0-286.7a141.3 141.3 0 00-141.2 141.2c0 77.8 63.3 141.2 141.2 141.2s141.2-63.4 141.2-141.2A141.3 141.3 0 00268 189.5z"/><path fill="#fff" d="M268 202.2V227"/><path d="M268 229.1a2.1 2.1 0 01-2.2-2.1v-24.9a2.1 2.1 0 012.2-2.1 2.1 2.1 0 012.1 2.1V227a2.1 2.1 0 01-2.1 2.1z"/><path fill="#fff" d="M268 434.4v24.9"/><path d="M268 461.4a2.2 2.2 0 01-2.2-2.2v-24.8a2.2 2.2 0 012.2-2.2 2.1 2.1 0 012.1 2.2v24.8a2.1 2.1 0 01-2.1 2.2z"/><path fill="#fff" d="M396.5 330.7h-24.8"/><path d="M396.5 332.8h-24.8a2.1 2.1 0 01-2.1-2.1 2.1 2.1 0 012.1-2.2h24.8a2.2 2.2 0 012.2 2.2 2.1 2.1 0 01-2.2 2.1z"/><path fill="#fff" d="M164.2 330.7h-24.8"/><path d="M164.3 332.8h-24.9a2.1 2.1 0 01-2.1-2.1 2.1 2.1 0 012.1-2.2h24.9a2.1 2.1 0 012.1 2.2 2.1 2.1 0 01-2.1 2.1z"/><path d="M296.2 108.9a7.7 7.7 0 01-7.7 7.7h-41.1a7.7 7.7 0 01-7.6-7.7 7.6 7.6 0 017.6-7.6h41.1a7.6 7.6 0 017.7 7.6z" fill="#00214d"/><path d="M288.5 118.7h-41.1a9.8 9.8 0 110-19.6h41.1a9.8 9.8 0 010 19.6zm-41.1-15.3a5.5 5.5 0 00-5.5 5.5 5.5 5.5 0 005.5 5.5h41.1a5.4 5.4 0 005.5-5.5 5.5 5.5 0 00-5.5-5.5z"/><path fill="#fff" d="M268 116.6v22"/><path d="M268 140.7a2.2 2.2 0 01-2.2-2.1v-22a2.2 2.2 0 012.2-2.2 2.1 2.1 0 012.1 2.2v22a2.1 2.1 0 01-2.1 2.1z"/><path d="M431.3 191.5a7.6 7.6 0 01-10.8 0l-29.1-29a7.6 7.6 0 010-10.8 7.6 7.6 0 0110.8 0l29.1 29a7.6 7.6 0 010 10.8z" fill="#00214d"/><path d="M425.9 195.9a9.8 9.8 0 01-6.9-2.8L389.9 164a10 10 0 01-2.9-6.9 10.3 10.3 0 012.9-7 10.1 10.1 0 0113.9 0l29 29.1a9.9 9.9 0 010 13.9 9.8 9.8 0 01-6.9 2.8zm-29.1-44.3a5.1 5.1 0 00-3.8 1.6 5.2 5.2 0 00-1.7 3.9 5.9 5.9 0 001.6 3.9l29.1 29a5.515 5.515 0 107.8-7.8l-29.1-29a5.1 5.1 0 00-3.9-1.6z"/><path fill="#fff" d="M405.9 177.1l-15.5 15.5"/><path d="M390.4 194.7a2.2 2.2 0 01-1.5-.6 2.1 2.1 0 010-3.1l15.5-15.5a2.3 2.3 0 013.1 0 2.2 2.2 0 010 3l-15.6 15.6a2 2 0 01-1.5.6z"/><path d="M137.4 450.2a38.1 38.1 0 01-38.1 38.1h-59a38.1 38.1 0 01-38.1-38.1 38.1 38.1 0 0138.1-38.1h59a38.1 38.1 0 0138.1 38.1z" fill="#ffe1d1"/><path d="M99.3 490.5h-59a40.3 40.3 0 110-80.6h59a40.3 40.3 0 110 80.6zm-59-76.3a36 36 0 100 72h59a36 36 0 000-72z"/><path d="M137.4 374a38.1 38.1 0 01-38.1 38.1h-59A38.1 38.1 0 012.2 374a38 38 0 0138.1-38.1h59a38 38 0 0138.1 38.1z" fill="#ffe1d1"/><path d="M99.3 414.2h-59a40.3 40.3 0 110-80.5h59a40.3 40.3 0 110 80.5zm-59-76.2a36 36 0 100 71.9h59a36 36 0 100-71.9z"/><path d="M137.4 297.7a38.1 38.1 0 01-38.1 38.2h-59a38.1 38.1 0 01-38.1-38.2 38.1 38.1 0 0138.1-38.1h59a38.1 38.1 0 0138.1 38.1z" fill="#ffe1d1"/><path d="M99.3 338h-59a40.3 40.3 0 110-80.5h59a40.3 40.3 0 110 80.5zm-59-76.2a36 36 0 100 71.9h59a36 36 0 100-71.9z"/><path d="M137.4 221.5a38 38 0 01-38.1 38.1h-59a38 38 0 01-38.1-38.1 38.1 38.1 0 0138.1-38.1h59a38.1 38.1 0 0138.1 38.1z" fill="#ffe1d1"/><path d="M99.3 261.8h-59a40.3 40.3 0 110-80.5h59a40.3 40.3 0 110 80.5zm-59-76.2a36 36 0 100 71.9h59a36 36 0 100-71.9z"/><path d="M96.2 193.6H73.5v55.8h22.7a22.1 22.1 0 0022.2-22.1v-11.5a22.1 22.1 0 00-22.2-22.2z" fill="#ffebe0"/><path d="M96.2 251.6H73.5a2.1 2.1 0 01-2.1-2.2v-55.8a2.1 2.1 0 012.1-2.1h22.7a24.3 24.3 0 0124.3 24.3v11.5a24.3 24.3 0 01-24.3 24.3zm-20.5-4.3h20.5a20 20 0 0020-20v-11.5a19.9 19.9 0 00-20-20H75.7z"/><path d="M96.2 269.9H73.5v55.7h22.7a22.1 22.1 0 0022.2-22.1V292a22.1 22.1 0 00-22.2-22.1z" fill="#ffebe0"/><path d="M96.2 327.8H73.5a2.1 2.1 0 01-2.1-2.2v-55.7a2.1 2.1 0 012.1-2.2h22.7a24.3 24.3 0 0124.3 24.3v11.5a24.3 24.3 0 01-24.3 24.3zm-20.5-4.3h20.5a20 20 0 0020-20V292a20 20 0 00-20-20H75.7z"/><path d="M96.2 346.1H73.5v55.8h22.7a22.2 22.2 0 0022.2-22.2v-11.5a22.1 22.1 0 00-22.2-22.1z" fill="#ffebe0"/><path d="M96.2 404H73.5a2.1 2.1 0 01-2.1-2.1v-55.8a2.1 2.1 0 012.1-2.2h22.7a24.3 24.3 0 0124.3 24.3v11.5A24.3 24.3 0 0196.2 404zm-20.5-4.3h20.5a20 20 0 0020-20v-11.5a20 20 0 00-20-20H75.7z"/><path d="M96.2 422.3H73.5v55.8h22.7a22.1 22.1 0 0022.2-22.1v-11.6a22.1 22.1 0 00-22.2-22.1z" fill="#ffebe0"/><path d="M96.2 480.2H73.5a2.1 2.1 0 01-2.1-2.1v-55.8a2.1 2.1 0 012.1-2.1h22.7a24.3 24.3 0 0124.3 24.2V456a24.3 24.3 0 01-24.3 24.2zm-20.5-4.3h20.5a19.9 19.9 0 0020-19.9v-11.6a19.9 19.9 0 00-20-19.9H75.7zM227 373.8a2 2 0 01-1.5-.6 2 2 0 010-3l125.6-125.7a2.2 2.2 0 113.1 3.1L228.5 373.2a2.2 2.2 0 01-1.5.6z"/><path d="M284.4 330.7a16.4 16.4 0 11-16.4-16.4 16.4 16.4 0 0116.4 16.4z" fill="#fff"/><path d="M268 349.2a18.6 18.6 0 1118.6-18.5 18.5 18.5 0 01-18.6 18.5zm0-32.8a14.3 14.3 0 1014.3 14.3 14.3 14.3 0 00-14.3-14.3zM235.7 382.6a2.2 2.2 0 01-1.5-.6l-17.5-17.6a2.121 2.121 0 013-3l17.6 17.5a2.3 2.3 0 010 3.1 2.5 2.5 0 01-1.6.6z"/><path d="M641 189.3h-45.4a36.9 36.9 0 00-36.9 36.9V425a36.9 36.9 0 0036.9 36.9H641z" fill="#00ebc7"/><path d="M641 464.1h-45.4a39.2 39.2 0 01-39.1-39.1V226.2a39.1 39.1 0 0139.1-39H641a2.2 2.2 0 012.2 2.1v272.6a2.2 2.2 0 01-2.2 2.2zm-45.4-272.6a34.8 34.8 0 00-34.8 34.7V425a34.8 34.8 0 0034.8 34.8h43.3V191.5z"/><path d="M749.9 401.9a34.4 34.4 0 11-34.4-34.4 34.4 34.4 0 0134.4 34.4z" fill="#fff"/><path d="M715.5 438.4a36.6 36.6 0 1136.5-36.5 36.6 36.6 0 01-36.5 36.5zm0-68.8a32.3 32.3 0 1032.2 32.3 32.3 32.3 0 00-32.2-32.3z"/></svg>