<svg version="1.1" id="prefix__Layer_1" xmlns="http://www.w3.org/2000/svg" x="0" y="0" viewBox="0 0 400 400" xml:space="preserve"><style>.prefix__st0{fill:#fde24f}.prefix__st2{fill:#263238}.prefix__st4,.prefix__st5{opacity:.3;fill:#fff;enable-background:new}.prefix__st5{opacity:.6}.prefix__st6{fill:#e4897b}.prefix__st7,.prefix__st8{opacity:.2;enable-background:new}.prefix__st8{opacity:.1}.prefix__st9{fill:#fff}.prefix__st10{fill:#de5753}.prefix__st11,.prefix__st14,.prefix__st15{opacity:.4;enable-background:new}.prefix__st14,.prefix__st15{fill:#fff}.prefix__st15{opacity:.5}</style><g id="prefix__freepik--background-simple--inject-53"><path class="prefix__st0" d="M274.8 39.6c7.9-2.8 16.3-4 24.7-3.5 41.6 2.6 67.7 39.1 75.4 77.1 11.1 55.2-17 111.8-56.5 149.1l-3.9 3.6c-41.1 36.5-96.1 55.3-150.6 56.8-34.3 1-75-10.6-97.6-37.8-23.7-28.5-18.4-92.7 26.7-95.7 18.4-1.2 35.5 5.4 53.2 9.1 24.5 5.1 51.2.2 71.3-15.1 40-30.3 4-85.7 28.5-122 6.5-10.2 17.1-17.6 28.8-21.6z"/><path d="M274.8 39.6c7.9-2.8 16.3-4 24.7-3.5 41.6 2.6 67.7 39.1 75.4 77.1 11.1 55.2-17 111.8-56.5 149.1l-3.9 3.6c-41.1 36.5-96.1 55.3-150.6 56.8-34.3 1-75-10.6-97.6-37.8-23.7-28.5-18.4-92.7 26.7-95.7 18.4-1.2 35.5 5.4 53.2 9.1 24.5 5.1 51.2.2 71.3-15.1 40-30.3 4-85.7 28.5-122 6.5-10.2 17.1-17.6 28.8-21.6z" opacity=".9" fill="#fff"/></g><g id="prefix__freepik--Chair--inject-53"><path class="prefix__st2" d="M329.2 341.3l-28.8-2.8V298H289v40.5l-28.9 2.8c-2.9.3-5.1 2.7-5.1 5.6v4.3h79.3v-4.3c0-2.9-2.2-5.3-5.1-5.6z"/><path d="M329.2 341.3l-28.8-2.8V298H289v40.5l-28.9 2.8c-2.9.3-5.1 2.7-5.1 5.6v4.3h79.3v-4.3c0-2.9-2.2-5.3-5.1-5.6z" opacity=".2" fill="#fff"/><circle class="prefix__st2" cx="258.1" cy="356.6" r="7.5"/><circle class="prefix__st2" cx="331.3" cy="356.6" r="7.5"/><path class="prefix__st2" d="M287 270.6h15.4v31.9c0 2.3-1.8 4.1-4.1 4.1h-7.1c-2.3 0-4.1-1.8-4.1-4.1v-31.9h-.1z"/><path class="prefix__st4" d="M287 270.6h15.4v31.9c0 2.3-1.8 4.1-4.1 4.1h-7.1c-2.3 0-4.1-1.8-4.1-4.1v-31.9h-.1z"/><path class="prefix__st2" d="M322 207.3s2.2 54-12.9 63.3h17.2s13.3-18.4 9.5-63.3H322z"/><path class="prefix__st4" d="M322 207.3s2.2 54-12.9 63.3h17.2s13.3-18.4 9.5-63.3H322z"/><path class="prefix__st2" d="M332.2 274.8h-76.9v-6.7c0-2.8 2.2-5 5-5h66.9c2.8 0 5 2.2 5 5v6.7z"/><path class="prefix__st2" d="M333.4 274.8H254c-1.1 0-2-.9-2-2V271c0-1.1.9-2 2-2h79.3c1.1 0 2 .9 2 2v1.8c.1 1.1-.8 2-1.9 2z"/><path class="prefix__st5" d="M333.4 274.8H254c-1.1 0-2-.9-2-2V271c0-1.1.9-2 2-2h79.3c1.1 0 2 .9 2 2v1.8c.1 1.1-.8 2-1.9 2z"/><path class="prefix__st2" d="M312.6 178.4h27.5c8.1 0 14.6 6.5 14.6 14.6v10.8c0 8.1-6.5 14.6-14.6 14.6h-27.5c-8.1 0-14.6-6.5-14.6-14.6V193c0-8.1 6.5-14.6 14.6-14.6z"/></g><g id="prefix__freepik--Character--inject-53"><path class="prefix__st6" d="M229.2 134.3l-5.5-14.5s2.4-2.2.7-4.4-11.7-8.4-13.6-7.3-5.9 5.2-3.7 7.5 12 6.1 12 6.1l4.9 19 5.2-6.4z"/><path class="prefix__st0" d="M267.5 161.8s-25-5.1-27.7-6.4-12.7-30.7-12.7-30.7l-7.7 3.6s6.2 29.5 12.5 36.6 33.4 13 33.4 13l2.2-16.1z"/><path class="prefix__st7" d="M265.3 177.9l-.5-.1c-1.4-.3-5.6-1.3-10.7-2.8-8.2-2.4-18.6-6-22.2-10.1-6.3-7-12.5-36.6-12.5-36.6l7.7-3.6s10 29.4 12.8 30.7 27.7 6.4 27.7 6.4l-2.3 16.1z"/><path class="prefix__st0" d="M227.2 124.2l1.6 3-9.9 3.5.4-3.8z"/><path class="prefix__st7" d="M265.5 177.5c-1.4-.2-5.7-.9-10.9-2 3-5.1 11.6-7.7 11.6-7.7l-.7 9.7z"/><path class="prefix__st2" d="M302.7 141.4s1.5 13.8-3.6 17.2-30.3-.6-33.2-6.1 7.9-20.7 7.9-20.7l28.9 9.6z"/><path class="prefix__st6" d="M200.7 323.4l6.6 1.6 3.3-9.1 3-8.3-7.5-3.2-2.8 10.1z"/><path class="prefix__st7" d="M203.3 314.5l7.3 1.4 3-8.3-7.5-3.2z"/><path class="prefix__st0" d="M203.9 309.7l9.1 3.4s24.3-60.8 29.3-61 55.9 23.2 68.7 10.2c12.8-13-5.7-44.3-5.7-44.3s-30.7-4.4-33 2.5c-.6 2-1 4.1-1.3 6.2-.4 2.1-.6 3.9-.6 3.9-1-.2-31.8-8.2-43.9 0-12.3 8.4-22.6 79.1-22.6 79.1z"/><path class="prefix__st5" d="M203.9 309.7l9.1 3.4s24.3-60.8 29.3-61 55.9 23.2 68.7 10.2c12.8-13-5.7-44.3-5.7-44.3s-30.7-4.4-33 2.5c-.6 2-1 4.1-1.3 6.2-.4 2.1-.6 3.9-.6 3.9-1-.2-31.8-8.2-43.9 0-12.3 8.4-22.6 79.1-22.6 79.1z"/><path class="prefix__st6" d="M256.4 349.3l6.5-1.6-1.2-9.5-1.2-8.6-8.1.8 2.1 10z"/><path class="prefix__st7" d="M254.6 340.6l7.1-2.2-1.2-8.7-8.1.7z"/><path class="prefix__st0" d="M216.8 309.7l-13.3-4.5-.5 5.4 10 3.6zM289 265.3s-2.1 0-34.3-1.5c0 0 4.8 40.2 7.4 70.4l-9.6 1.6s-23-64.5-22.8-74.8c.2-10.3 12-13.3 12-13.3s23 13.4 47.3 17.6z"/><path class="prefix__st5" d="M289 265.3s-2.1 0-34.3-1.5c0 0 4.8 40.2 7.4 70.4l-9.6 1.6s-23-64.5-22.8-74.8c.2-10.3 12-13.3 12-13.3s23 13.4 47.3 17.6z"/><path class="prefix__st8" d="M289 265.3s-2.1 0-34.3-1.5c0 0 4.8 40.2 7.4 70.4l-9.6 1.6s-23-64.5-22.8-74.8c.2-10.3 12-13.3 12-13.3s23 13.4 47.3 17.6z"/><path class="prefix__st0" d="M263.6 331.3l-13.3 1.6 2.6 5.1 10.7-1.3z"/><path class="prefix__st8" d="M270.5 230.7l18 3.7s-9.9-5.5-17.4-7.6c-.4 2.1-.6 3.9-.6 3.9z"/><path class="prefix__st2" d="M304.6 213.2l.8 4.8-33 2.5-.9-5.6z"/><path class="prefix__st7" d="M304.6 213.2l.8 4.8-33 2.5-.9-5.6z"/><path transform="rotate(-5.871 294.51 216.913)" class="prefix__st0" d="M293.8 212.8h1.6v8.4h-1.6z"/><path transform="rotate(-3.678 282.977 217.39) scale(.99996)" class="prefix__st9" d="M279.4 214.7h7.2v5.5h-7.2z"/><path transform="rotate(-5.871 274.268 217.786)" class="prefix__st0" d="M273.5 213.7h1.6v8.4h-1.6z"/><path transform="rotate(-5.871 294.51 216.913)" class="prefix__st5" d="M293.8 212.8h1.6v8.4h-1.6z"/><path transform="rotate(-5.871 274.268 217.786)" class="prefix__st5" d="M273.5 213.7h1.6v8.4h-1.6z"/><path class="prefix__st0" d="M266.9 161.3c6.2 1.7 12.6 2.4 19 2.1 10.6-.5 23.2 4.6 23.2 4.6l-4.5 45.2-33.1 1.7c-.1 0-11.2-37.8-4.6-53.6z"/><path class="prefix__st2" d="M272.2 135.8s1.9-21.9 20.2-14c23 10 4.7 36.7-6.5 31.3s-13.7-17.3-13.7-17.3z"/><path class="prefix__st7" d="M277.4 164.6l.5 12.4 4.1-5.8s-1.5 13.7-.6 21.2c0 0 .8-13.4 2.6-21.2l4.4 5.8 6.3-12.3s-10.2-3.6-17.3-.1z"/><path class="prefix__st6" d="M283 167l9.5-2.7c-5.9-4-2.9-13-2.9-13l-9.4 3.3c.4 1.3.8 2.6 1 4 1 5.9-1.7 6.3-1.7 6.3l3.5 2.1z"/><path class="prefix__st7" d="M280.2 154.6c.4 1.3.8 2.6 1 4 4.5-1.8 8.4-7.3 8.4-7.3l-9.4 3.3z"/><path class="prefix__st6" d="M286.4 126.4c-8.3-1.8-12 2-14.5 10.5-3.1 10.6-2.4 18.7 8.5 18.7 14.8 0 19.8-26.1 6-29.2z"/><path class="prefix__st10" d="M277.4 137.6c-.9 1.1-2 2.1-3.2 2.9.3.8 1.1 1.4 2 1.4l1.2-4.3z"/><path class="prefix__st2" d="M282.6 138.1c-.2.7.1 1.3.5 1.4s1-.4 1.1-1-.1-1.3-.5-1.4-.9.3-1.1 1z"/><path class="prefix__st2" d="M283.9 137.1l-1.3-.9s.4 1.4 1.3.9zM274.2 135.8c-.2.7.1 1.3.5 1.4s1-.4 1.1-1-.1-1.3-.5-1.4-.9.4-1.1 1z"/><path class="prefix__st2" d="M275.5 134.9l-1.4-.9s.5 1.4 1.4.9zM287.3 134.8c-.1 0-.3-.1-.3-.2-.7-1-1.8-1.7-3-1.9-.2 0-.3-.2-.3-.4s.2-.3.4-.3c1.5.1 2.8 1 3.6 2.3.1.2 0 .4-.2.5h-.2zM278 131c-.1 0-.1 0-.2-.1-1-.5-2.2-.5-3.1 0-.2.1-.4 0-.5-.2-.1-.2 0-.4.2-.5 1.2-.6 2.6-.5 3.8.1.2.1.2.3.1.5-.1.1-.2.2-.3.2z"/><path class="prefix__st2" d="M292.4 142.5s-2.4-7.7-.6-12.9c0 0-15-10.4-19.5 6.2 0 0 1.7-15.2 16.1-12.4s9.7 23.8.9 28.4c-.1 0 4.5-4.5 3.1-9.3z"/><path class="prefix__st6" d="M290.6 144c.6-2 2.7-3.1 4.7-2.5 2.5.9 2.6 6.4-4.1 6.3-1-.1-1.3-1.1-.6-3.8z"/><path class="prefix__st2" d="M274.7 145.1c.2 1 .4 2.1.4 3.1h.5c2.5.2 3.7-.5 4.3-1.4.3-.4.5-.9.5-1.4v-.9c-1.6.6-3.3.8-5 .6-.4.1-.7 0-.7 0z"/><path class="prefix__st9" d="M275.5 145.2l.1.9c2.3.2 4 0 4.8-.6v-.9c-1.5.5-3.2.7-4.9.6z"/><path class="prefix__st10" d="M275.6 148.3c2.5.2 3.7-.5 4.3-1.4-.9-.1-1.9 0-2.8.3-.5.2-1.1.6-1.5 1.1z"/><path class="prefix__st2" d="M286.4 127.1s.3 14.4 9 16.2-.8-18.6-.8-18.6-12.9-8.4-21.5-2.5-.9 13.6-.9 13.6 1.8-10.7 14.2-8.7z"/><path class="prefix__st2" d="M289.7 140.3c-.1 0-.1 0-.2-.1-6.2-4.8-3.1-14.1-3.1-14.2 0-.1.2-.2.3-.2.1 0 .2.2.1.3 0 .1-3 9 2.9 13.6.1.1.1.2 0 .3.1.3.1.3 0 .3z"/><path class="prefix__st0" d="M297.9 146.2c-1.1 2.9-3.9 4.6-6.3 3.7s-3.4-4-2.3-6.9 3.9-4.6 6.3-3.7 3.4 4 2.3 6.9z"/><path class="prefix__st11" d="M297.9 146.2c-1.1 2.9-3.9 4.6-6.3 3.7s-3.4-4-2.3-6.9 3.9-4.6 6.3-3.7 3.4 4 2.3 6.9z"/><path class="prefix__st0" d="M295.1 141.4s3.6-16.1-4.5-20.3c.9.1 1.8.3 2.7.5 1 .3 7.5 6.8 4.2 21.3l-2.4-1.5z"/><path class="prefix__st7" d="M295.1 141.4s3.6-16.1-4.5-20.3c.9.1 1.8.3 2.7.5 1 .3 7.5 6.8 4.2 21.3l-2.4-1.5z"/><path class="prefix__st0" d="M280.1 150.6l-.6-.1.2-1c4.4.7 8.9-.3 12.7-2.7l.6.8c-3.8 2.6-8.4 3.6-12.9 3z"/><path d="M280.1 150.6l-.6-.1.2-1c4.4.7 8.9-.3 12.7-2.7l.6.8c-3.8 2.6-8.4 3.6-12.9 3z" opacity=".2"/><path class="prefix__st0" d="M297.6 145.8c-.7 1.9-2.6 3-4.2 2.4s-2.3-2.6-1.5-4.6 2.6-3 4.2-2.4 2.2 2.7 1.5 4.6zM279.2 151l-.8-.1c-.6-.1-1-.6-.9-1.2.1-.6.6-1 1.2-.9l.8.1c.6.1 1 .6.9 1.2-.1.5-.6 1-1.2.9z"/><path class="prefix__st11" d="M279.2 151l-.8-.1c-.6-.1-1-.6-.9-1.2.1-.6.6-1 1.2-.9l.8.1c.6.1 1 .6.9 1.2-.1.5-.6 1-1.2.9z"/><path class="prefix__st0" d="M290 160.8l-6 5.9 2.4 7.1 8.3-9.1zM281.4 162.1l1 4.4-3.1 6.4-1.9-8.3z"/><path class="prefix__st6" d="M288.7 165.9l3.5-12.6s-1.7-3.1-1.3-3.8 2.2-9.1 3.4-10.1 6.5.6 7.1 1.5-5 12.4-5 12.4l-2 13.7-5.7-1.1z"/><path class="prefix__st0" d="M309.1 168c9.5 9.7-9.5 31.7-20.4 30.8s.3-40.9.3-40.9l7 1.1s-2.5 17.3-1.7 18.6 11.7-12.8 14.8-9.6z"/><path class="prefix__st7" d="M309.1 168c9.5 9.7-9.5 31.7-20.4 30.8s.3-40.9.3-40.9l7 1.1s-2.5 17.3-1.7 18.6 11.7-12.8 14.8-9.6z"/><path class="prefix__st0" d="M288.4 156.7l-1 3.3 9.7.8V158z"/><path class="prefix__st5" d="M269.7 182.8h3.9c.4 0 .8.4.8.8v7.4c0 .4-.4.8-.8.8h-3.9c-.4 0-.8-.4-.8-.8v-7.4c0-.5.4-.8.8-.8z"/><path class="prefix__st7" d="M269.3 183.4h4.5v6.1h-4.5z"/><path class="prefix__st2" d="M271.1 180.6h1v3.6h-1z"/><path class="prefix__st0" d="M189.8 336.2c1-.5 2.1-.7 3.2-.8 0 0 3.8-2.2 7.6-10.9h4.2c1.5 0 2.8.9 3.3 2.3.1.2.1.4.1.6l-.3 3c-.6 3.4-1.4 6.7-2.5 10l-.7-.2 1.3-6.3c.4-2.1-1.8-.1-2.9 2.1s-2.6 4.4-7.3 3.3c-5.5-1.4-7.7-2.2-6-3.1z"/><path class="prefix__st6" d="M201.3 322.2s-5.3 11.1-8.3 13.2c0 0 4.1 2.4 8.3-3 5.5-7 6.8-5 6.8-5-.1-1.2-.3-2.4-.7-3.6-.7-2.3-6.1-1.6-6.1-1.6z"/><path class="prefix__st0" d="M248 362.5c.9-.7 1.8-1.2 2.9-1.5 0 0 3.2-3.1 4.8-12.4l4.1-1c1.4-.3 2.9.3 3.7 1.5.1.2.2.3.3.5.2 1 .3 2 .4 3 .2 3.4.2 6.8 0 10.3h-.7l-.2-6.4c-.1-2.2-1.8.4-2.3 2.7s-1.5 4.8-6.3 4.9c-5.8 0-8.1-.2-6.7-1.6z"/><path class="prefix__st6" d="M255.9 346.2s-2.5 12-5 14.8c0 0 4.5 1.4 7.4-4.9 3.7-8.1 5.5-6.5 5.5-6.5-.4-1.1-.9-2.3-1.5-3.3-1.4-2-6.4-.1-6.4-.1z"/></g><g id="prefix__freepik--speech-bubble--inject-53"><path class="prefix__st0" d="M314 104.1h34.9c2.8 0 5.1 2.3 5.1 5.1v14.9c0 2.8-2.3 5.1-5.1 5.1H314c-2.8 0-5.1-2.3-5.1-5.1v-14.9c0-2.8 2.3-5.1 5.1-5.1z"/><path class="prefix__st0" d="M321 126.3l-10.6 14.3 17-13.3z"/><path class="prefix__st9" d="M321.4 116.7c0 .8-.7 1.5-1.5 1.5s-1.5-.7-1.5-1.5.7-1.5 1.5-1.5 1.5.7 1.5 1.5zM329 116.7c0 .8-.7 1.5-1.5 1.5s-1.5-.7-1.5-1.5.7-1.5 1.5-1.5c.9 0 1.5.7 1.5 1.5zM336.7 116.7c0 .8-.7 1.5-1.5 1.5s-1.5-.7-1.5-1.5.7-1.5 1.5-1.5c.9 0 1.5.7 1.5 1.5zM344.4 116.7c0 .8-.7 1.5-1.5 1.5s-1.5-.7-1.5-1.5.7-1.5 1.5-1.5c.9 0 1.5.7 1.5 1.5z"/></g><g id="prefix__freepik--Bird--inject-53"><path class="prefix__st0" d="M192.9 78.9l24.9 13.4c.7.4.9 1.2.6 1.9l-7.9 14.8c-.4.7-1.2.9-1.9.6l-24.9-13.4c-.7-.4-.9-1.2-.6-1.9l7.9-14.8c.4-.7 1.2-1 1.9-.6z"/><path d="M192.9 78.9l24.9 13.4c.7.4.9 1.2.6 1.9l-7.9 14.8c-.4.7-1.2.9-1.9.6l-24.9-13.4c-.7-.4-.9-1.2-.6-1.9l7.9-14.8c.4-.7 1.2-1 1.9-.6z" opacity=".7" fill="#fff"/><path class="prefix__st7" d="M190.4 80.7l7.8 14.6c.6 1.1 1.8 1.8 3.1 1.7l16.2-1.6-16.5 2.4c-1.5.2-2.9-.6-3.6-1.9l-7-15.2z"/><path class="prefix__st0" d="M171.5 78c.3-5.6 4.4-16.8 9.4-20.2s1.7 1.3 1.7 1.3 4.8-4.6 7.2-4.5 0 3 0 3 5.1-3.2 7.5-3 0 2.9 0 2.9 4.2-3 5.9-1.6-21.9 17-24.5 23.3-7.5 4.4-7.2-1.2z"/><path class="prefix__st14" d="M171.5 78c.3-5.6 4.4-16.8 9.4-20.2s1.7 1.3 1.7 1.3 4.8-4.6 7.2-4.5 0 3 0 3 5.1-3.2 7.5-3 0 2.9 0 2.9 4.2-3 5.9-1.6-21.9 17-24.5 23.3-7.5 4.4-7.2-1.2z"/><path class="prefix__st0" d="M191.7 77.1l3.1 2c.1.1.2.2.1.4-.1.1-.1.1-.2.1l-3.3-.3.3 2.5c0 .2-.1.3-.2.3s-.2 0-.3-.1l-1.9-2.1 2.4-2.8z"/><path class="prefix__st4" d="M191.7 77.1l3.1 2c.1.1.2.2.1.4-.1.1-.1.1-.2.1l-3.3-.3.3 2.5c0 .2-.1.3-.2.3s-.2 0-.3-.1l-1.9-2.1 2.4-2.8z"/><path class="prefix__st0" d="M147.5 64.6s4.4-3 10.9-1.1c0 0 1.9 8.7 7.1 11.6 2.9 1.6 9.8 1.4 15.3-.3 6.6-2.1 9.8-2.1 10.9.3 1.2 2.5-.1 5-5.1 6.2s-9 9.9-18.1 10-13.9-9-11.6-17c-2.1-4-5.4-7.4-9.4-9.7z"/><path class="prefix__st15" d="M147.5 64.6s4.4-3 10.9-1.1c0 0 1.9 8.7 7.1 11.6 2.9 1.6 9.8 1.4 15.3-.3 6.6-2.1 9.8-2.1 10.9.3 1.2 2.5-.1 5-5.1 6.2s-9 9.9-18.1 10-13.9-9-11.6-17c-2.1-4-5.4-7.4-9.4-9.7z"/><path class="prefix__st2" d="M189.3 76.8c0 .2-.2.4-.4.4s-.4-.2-.4-.4.2-.4.4-.4.4.2.4.4z"/><path class="prefix__st0" d="M166.5 84.1c-5.4 1.5-17.3 1-22.1-2.7s.7-2 .7-2-5.9-3.1-6.5-5.5 2.9-.9 2.9-.9-4.6-3.9-5.2-6.2 2.8-.9 2.8-.9-4.2-3.1-3.3-5.2 22.9 15.6 29.8 16.1 6.3 5.9.9 7.3z"/><path class="prefix__st14" d="M166.5 84.1c-5.4 1.5-17.3 1-22.1-2.7s.7-2 .7-2-5.9-3.1-6.5-5.5 2.9-.9 2.9-.9-4.6-3.9-5.2-6.2 2.8-.9 2.8-.9-4.2-3.1-3.3-5.2 22.9 15.6 29.8 16.1 6.3 5.9.9 7.3z"/><path class="prefix__st0" d="M131.3 59.8h-.1c-.9-.3-1.9-.6-2.8-.9-.2-.1-.3-.3-.2-.5.1-.2.3-.3.5-.2 1 .3 1.9.6 2.9 1 .2.1.3.3.2.5-.2.1-.4.2-.5.1zM70.8 141c-.2 0-.4-.2-.4-.4s.2-.4.4-.4c2 0 4-.2 5.9-.6.2 0 .4.1.4.3 0 .2-.1.4-.3.4-1.9.5-3.9.7-6 .7zm-6-.3c-2-.2-4-.5-6-1-.2 0-.3-.2-.3-.4s.2-.3.4-.3c1.9.4 3.9.8 5.9 1 .2 0 .3.2.3.4.1.1 0 .3-.3.3zm17.8-2c-.1 0-.3-.1-.3-.2-.1-.2 0-.4.2-.5 1.8-.8 3.5-1.8 5-3.1.2-.1.4-.1.5.1.1.2.1.4 0 .5-1.6 1.3-3.3 2.4-5.2 3.2h-.2zm-29.5-.7H53c-1.9-.6-3.8-1.4-5.7-2.2-.2-.1-.2-.3-.1-.5s.3-.2.5-.2c1.8.8 3.7 1.5 5.6 2.2.2.1.3.3.2.5-.1.1-.2.2-.4.2zm-11-4.9h-.2c-1.8-1-3.5-2.1-5.2-3.2-.2-.1-.2-.4-.1-.5.1-.2.4-.2.5-.1 1.6 1.1 3.3 2.2 5.1 3.2.2.1.2.3.1.5.1.1-.1.2-.2.1zm49.5-2.3h-.2c-.2-.1-.2-.3-.1-.5.3-.5.6-1.1.9-1.7.6-1.2 1-2.5 1.3-3.8.1-.2.3-.3.5-.3.2.1.3.3.3.5-.3 1.4-.8 2.7-1.3 3.9l-.9 1.8c-.3.1-.5.2-.5.1zm-59.3-4.6c-.1 0-.2 0-.2-.1-1.5-1.3-2.9-2.8-4.3-4.3-.1-.1-.1-.4 0-.5.1-.1.4-.1.5 0 1.3 1.5 2.7 2.9 4.2 4.2.1.1.1.4 0 .5l-.2.2zm62.1-6.9c-.2 0-.4-.2-.4-.4 0-2-.2-4-.6-5.9 0-.2.1-.4.3-.4.2 0 .4.1.4.3.4 2 .5 4 .6 6.1.1.1-.1.3-.3.3zm-2-11.9c-.2 0-.3-.1-.4-.3-.5-1.8-1.1-3.6-1.9-5.7-.1-.2 0-.4.2-.5.2-.1.4 0 .5.2.8 2.1 1.4 4 1.9 5.7.1.2-.1.4-.2.5l-.1.1zm-4.1-11.3c-.1 0-.3-.1-.3-.2-.6-1.6-1.5-3.4-2.4-5.4v-.1c-.1-.2.1-.4.3-.5.2 0 .3 0 .4.2v.1c.9 2 1.8 3.8 2.4 5.4.1.2 0 .4-.2.5h-.2zm-5-11c-.2 0-.3-.1-.3-.2-.9-2.1-1.6-3.9-2.2-5.6-.1-.2 0-.4.2-.5.2-.1.4 0 .5.2.6 1.7 1.3 3.5 2.2 5.6.1.2 0 .4-.2.5h-.2zm-3.7-11.5c-.2 0-.3-.1-.4-.3-.1-1.1-.2-2.2-.2-3.3 0-1 .1-1.9.3-2.9.1-.2.3-.3.5-.2.2.1.3.2.3.4-.2.9-.3 1.8-.2 2.7 0 1 .1 2.1.2 3.1-.1.3-.2.5-.5.5zm2.6-11.4c-.1 0-.2 0-.2-.1-.1-.1-.1-.4 0-.5 1.3-1.6 3-2.9 4.8-3.8.2-.1.4 0 .5.2.1.2 0 .4-.2.5-1.7.9-3.3 2.1-4.6 3.6 0 .1-.1.2-.3.1zm40.4-4.9c-2-.4-4-.7-6-1-.2 0-.3-.2-.3-.4s.2-.3.4-.3c2 .3 4 .6 6 1 .2 0 .3.3.3.5-.1.1-.2.2-.4.2zm-30-.8c-.2 0-.4-.1-.4-.3 0-.2.1-.4.3-.4 2-.4 4-.7 6-.9.2 0 .4.1.4.3 0 .2-.1.4-.3.4-2.1.2-4 .4-6 .9zm18-.7c-1.7-.1-3.8-.2-6-.3-.2 0-.4-.2-.4-.4s.2-.4.4-.4c2.2.1 4.3.2 6 .3.2 0 .4.2.4.4-.1.2-.2.4-.4.4zM24.5 117c-.1 0-.3-.1-.3-.2-.5-.9-1-1.8-1.3-2.7-.1-.2 0-.4.2-.5.2-.1.4 0 .5.2.4.9.8 1.8 1.3 2.6.1.2.1.4-.1.5-.2.1-.2.1-.3.1z"/></g><g id="prefix__freepik--Desk--inject-53"><path class="prefix__st9" d="M108 196h38v7.8h-38z"/><path class="prefix__st8" d="M108 196h38v7.8h-38z"/><path class="prefix__st8" d="M108 196h16v7.8h-16z"/><path class="prefix__st8" d="M108 197.1h33.8l-33.8 1zM145.9 198.5l-29.3.7h29.3zM109.5 200.7l14.5-.6 21.2.6-21.2.3zM108 202.3h25l-25 .6zM145.9 202.9l-16.7.3h16.7z"/><path class="prefix__st9" d="M102.7 188.2h38v7.8h-38z"/><path class="prefix__st8" d="M102.7 188.2h38v7.8h-38z"/><path class="prefix__st8" d="M102.7 188.2h16v7.8h-16z"/><path class="prefix__st8" d="M102.7 189.4h33.8l-33.8.9zM140.6 190.7l-29.2.7h29.2zM104.2 192.9l14.5-.6 21.2.6-21.2.3zM102.7 194.5h25l-25 .6zM140.6 195.1l-16.7.3h16.7z"/><path class="prefix__st9" d="M107 180.5h38v7.8h-38z"/><path class="prefix__st8" d="M107 180.5h38v7.8h-38z"/><path class="prefix__st8" d="M107 180.5h16v7.8h-16z"/><path class="prefix__st8" d="M107 181.6h33.8l-33.8.9zM145 182.9l-29.3.8H145zM108.6 185.1l14.4-.6 21.2.6-21.2.3zM107 186.8h25l-25 .5zM144.9 187.3l-16.7.4H145z"/><path class="prefix__st2" d="M170.3 203.6l.9-3.7h40.6l18.7 1.9.7 1.8z"/><path class="prefix__st11" d="M211.8 199.9v3.7h-41.5l.9-3.7z"/><path class="prefix__st2" d="M203.7 182.1c.2 1.7-1 3.3-2.8 3.5h-62.5c-2 0-3.7-1.6-3.9-3.6l-3.7-39.8c0-.4 0-.8.1-1.2.4-1.4 1.7-2.4 3.1-2.4h62.2c2 0 3.7 1.6 3.9 3.6l3.6 39.9z"/><path class="prefix__st11" d="M200.2 185.6h-61.9c-2 0-3.7-1.6-3.9-3.6l-3.7-39.8c0-.4 0-.8.1-1.2h61.9c2 0 3.7 1.6 3.9 3.6l3.7 39.8c0 .5 0 .9-.1 1.2z"/><path class="prefix__st2" d="M157.5 161.2h12.9L167 198l20.3 3.1v2.5h-42.8v-2.5l8.8-3.1z"/><path opacity=".1" fill="#fff" d="M170.4 161.2l-9.5 41.9-7.6-.3 4.2-41.6z"/><path class="prefix__st2" d="M170.3 364.1h-6.1l-11-153.3h8.1z"/><path class="prefix__st14" d="M170.3 364.1h-6.1l-10.5-145.7-.5-7.3h8.1l.5 7.3z"/><path class="prefix__st7" d="M161.8 218.1h-8.1l-.5-7h8.1z"/><path class="prefix__st2" d="M215.3 364.1h-6.1l-1-153.3h8.1z"/><path class="prefix__st15" d="M216.3 211.1l-.2 24.7-.8 128.3h-6.1l-.9-128.3-.1-24.7z"/><path class="prefix__st7" d="M216.3 211.1l-.2 25h-7.8l-.1-25z"/><path class="prefix__st2" d="M280.3 364.1h-6.1l-11-153.3h8.1z"/><path class="prefix__st15" d="M280.3 364.1h-6.1l-10.5-145.7-.5-7.3h8.1l.5 7.3z"/><path class="prefix__st7" d="M271.8 218.1h-8.1l-.5-7h8.1z"/><path class="prefix__st2" d="M100.2 364.1h-6.1l9-153.3h8.2z"/><path class="prefix__st15" d="M111.3 211.1l-.6 7.3-10.5 145.7h-6.1l8.6-145.7.4-7.3z"/><path class="prefix__st7" d="M103.1 211.1h8.2l-.6 7h-8z"/><path class="prefix__st0" d="M96.7 207h181.1v5.5c0 1.2-1 2.2-2.2 2.2H98.8c-1.2 0-2.2-1-2.2-2.2l.1-5.5z"/><path class="prefix__st5" d="M96.7 207h181.1v5.5c0 1.2-1 2.2-2.2 2.2H98.8c-1.2 0-2.2-1-2.2-2.2l.1-5.5z"/><path class="prefix__st7" d="M96.7 207h181.1v3.8H96.7z"/><path class="prefix__st0" d="M281.6 208H92.9c-1.2 0-2.2-1-2.2-2.2 0-1.2 1-2.2 2.2-2.2h188.7c1.2 0 2.2 1 2.2 2.2-.1 1.2-1 2.2-2.2 2.2z"/><path class="prefix__st5" d="M281.6 208H92.9c-1.2 0-2.2-1-2.2-2.2 0-1.2 1-2.2 2.2-2.2h188.7c1.2 0 2.2 1 2.2 2.2-.1 1.2-1 2.2-2.2 2.2z"/><path class="prefix__st0" d="M236.9 197l2.3-3.5c.5-.7 1.2-1.1 2.1-1.1h2.9c.2 0 .5 0 .7.1l10.5 3.2c.6.2 1.1.6 1.4 1.1l1.5 2.5-21.4-2.3z"/><path class="prefix__st7" d="M258.4 199.3l-15.3-1.7-6.2-.7 2.3-3.5c.5-.7 1.2-1.1 2.1-1.1h2.9c.2 0 .5 0 .7.1l.2.1 10.2 3.1c.6.2 1.1.6 1.4 1.1l1.7 2.6z"/><path class="prefix__st7" d="M258.4 199.3l-15.3-1.7 2.1-5.1 10.2 3.1c.6.2 1.1.6 1.4 1.1l1.6 2.6z"/><path class="prefix__st0" d="M265.7 203.3v.3h-32.4l1.2-4.7c.5-1.8 2.1-3 3.9-3h14.4c.5 0 1 .1 1.4.2l1.8.7 7.1 2.7c1.5.6 2.6 2.1 2.6 3.8z"/><path class="prefix__st7" d="M265.7 203.3v.3h-13.3l.7-5.1c.2-1.2 1.3-2 2.4-1.8.1 0 .3.1.4.1l7.1 2.7c1.6.6 2.7 2.1 2.7 3.8z"/><path class="prefix__st2" d="M254.4 200.2l4.2-12.7c.2-.5.7-.8 1.2-.6.1 0 .1 0 .2.1.4.2.6.7.5 1.1l-3.6 13.6c0-.1-2.4.9-2.5-1.5z"/><path class="prefix__st7" d="M236.9 202.6H235l.4-1.9h1.9zM239.7 202.5h-1.9l.4-1.8h1.9z"/></g></svg>