<svg version="1.1" id="prefix__Layer_1" xmlns="http://www.w3.org/2000/svg" x="0" y="0" viewBox="0 0 400 400" xml:space="preserve"><style>.prefix__st0{fill:#00ebc7}.prefix__st2{fill:#fff}.prefix__st3{opacity:.5;enable-background:new}.prefix__st4{fill:#263238}.prefix__st5,.prefix__st6{opacity:.4;fill:#fff;enable-background:new}.prefix__st6{opacity:.2}.prefix__st7{opacity:.3;fill:#fff}.prefix__st7,.prefix__st8,.prefix__st9{enable-background:new}.prefix__st8{opacity:.5;fill:#fff}.prefix__st9{opacity:.1}.prefix__st10{fill:#ff8b7b}.prefix__st11,.prefix__st12,.prefix__st14{opacity:.3;enable-background:new}.prefix__st12,.prefix__st14{opacity:.2}.prefix__st14{opacity:.4}.prefix__st15{fill:#ffb573}.prefix__st19{opacity:.5}</style><g id="prefix__freepik--background-simple--inject-1"><path class="prefix__st0" d="M323.7 108.1C315.2 46.8 252 8.5 194.1 30.4c-5.8 2.2-11.5 4.8-17 7.8-42.7 23.1-72.5 65.7-88.4 111.6-5.7 16.3-10.2 33.9-22.6 46-9.9 9.7-23.5 14.6-34.2 23.3-12.4 10.1-20 24.9-21.2 40.8-1 16 5 31.6 16.5 42.8 19.7 18.9 50.6 19.8 77.3 14s52.4-16.8 79.7-18c30.3-1.3 59.6 9.7 89.2 16.3s63.3 7.9 87.6-10.2c16.6-12.4 26.5-32.6 28.1-53.3s-4.7-41.5-15.7-59c-7.8-12.4-17.8-23.3-27.3-34.5-12.1-14.2-19.8-31.5-22.4-49.9z"/><path class="prefix__st2" d="M323.7 108.1C315.2 46.8 252 8.5 194.1 30.4c-5.8 2.2-11.5 4.8-17 7.8-42.7 23.1-72.5 65.7-88.4 111.6-5.7 16.3-10.2 33.9-22.6 46-9.9 9.7-23.5 14.6-34.2 23.3-12.4 10.1-20 24.9-21.2 40.8-1 16 5 31.6 16.5 42.8 19.7 18.9 50.6 19.8 77.3 14s52.4-16.8 79.7-18c30.3-1.3 59.6 9.7 89.2 16.3s63.3 7.9 87.6-10.2c16.6-12.4 26.5-32.6 28.1-53.3s-4.7-41.5-15.7-59c-7.8-12.4-17.8-23.3-27.3-34.5-12.1-14.2-19.8-31.5-22.4-49.9z" opacity=".9"/></g><g id="prefix__freepik--Star--inject-1"><path class="prefix__st0" d="M335.1 164.2l-48.3 43.4-15 13.4c-1.4 1.2-2.1 3-2 4.8l1.1 22.9 3 62.7c.4 4.4-4.6 7.8-8.3 5.7l-17.3-9.6-25.3-14-18.6-10.4 18.6 10.3 25.3 13.9 3.6 2c3.8 2.1 8.7-1.3 8.3-5.7l-1.9-22.5-4.8-57.8c-.1-1.8.6-3.6 2-4.8l41.2-37 22-19.8c3.5-3.1 2.2-8.6-2.2-9.2l-8.2-1.2-24.5-3.6L237 141c-1.7-.2-3.2-1.4-3.8-3l-9.6-23.8-4.4-10.8-6-14.8-2.4-5.9-3.9-9.7-3.3-8.1c-.5-1.3-1.6-2.4-3-2.8l14.4 2.1 2.1.3.5.4 2.3 2.2 7.1 17.5 1.3 3.3 2.7 6.7 18.5 45.5c.6 1.6 2.1 2.8 3.8 3l30.6 4.5 24.5 3.6 24.5 3.6c4.4.8 5.7 6.3 2.2 9.4z"/><path class="prefix__st3" d="M335.1 164.2l-48.3 43.4-15 13.4c-1.4 1.2-2.1 3-2 4.8l1.1 22.9 3 62.7c.4 4.4-4.6 7.8-8.3 5.7l-17.3-9.6-25.3-14-18.6-10.4 18.6 10.3 25.3 13.9 3.6 2c3.8 2.1 8.7-1.3 8.3-5.7l-1.9-22.5-4.8-57.8c-.1-1.8.6-3.6 2-4.8l41.2-37 22-19.8c3.5-3.1 2.2-8.6-2.2-9.2l-8.2-1.2-24.5-3.6L237 141c-1.7-.2-3.2-1.4-3.8-3l-9.6-23.8-4.4-10.8-6-14.8-2.4-5.9-3.9-9.7-3.3-8.1c-.5-1.3-1.6-2.4-3-2.8l14.4 2.1 2.1.3.5.4 2.3 2.2 7.1 17.5 1.3 3.3 2.7 6.7 18.5 45.5c.6 1.6 2.1 2.8 3.8 3l30.6 4.5 24.5 3.6 24.5 3.6c4.4.8 5.7 6.3 2.2 9.4z"/><path class="prefix__st4" d="M217.1 64.6zM219.9 67.3l-2.8-2.7c1.3.4 2.3 1.4 2.8 2.7zM215 64.3c.7 0 1.4.1 2.1.3l-2.1-.3z"/><path class="prefix__st0" d="M193 276.9l-39.8 20-18.9 9.5-11.8 5.9-.2.1c-1.7.6-3.6.6-5.4 0l-.3.2-16.3-2.5c.8 0 1.6-.2 2.4-.6l9.3-4.7 16.4-8.2 8.5-4.4 4.1-2.1 18.2-9.1 18.8-9.5c1.6-.8 3.4-.8 5 0l10 5.4z"/><path class="prefix__st3" d="M193 276.9l-39.8 20-18.9 9.5-11.8 5.9-.2.1c-1.7.6-3.6.6-5.4 0l-.3.2-16.3-2.5c.8 0 1.6-.2 2.4-.6l9.3-4.7 16.4-8.2 8.5-4.4 4.1-2.1 18.2-9.1 18.8-9.5c1.6-.8 3.4-.8 5 0l10 5.4z"/><path class="prefix__st4" d="M213.2 88.6l-7.3-13.8-6.9-12.9 1.5.2c1.4.4 2.5 1.4 3 2.8l3.3 8.1 6.4 15.6zM137 292.2l-24.9 12.6-9.3 4.7c-.7.4-1.5.6-2.4.6l16.6-30.7 1.4.9 18.6 11.9z"/><path class="prefix__st0" d="M318.8 161.8l-22 19.8-41.2 37c-1.4 1.2-2.1 3-2 4.8l4.8 57.8 1.9 22.5c.4 4.4-4.6 7.8-8.3 5.7l-3.6-2-25.4-14-18.6-10.3-.4-.2-11-6.1-9.8-5.4c-1.6-.8-3.4-.8-5 0l-18.8 9.5-18.2 9.2-4.2 2-8.5 4.3-16.4 8.2-9.3 4.7c-.7.4-1.5.6-2.4.6-2.7.2-5-1.9-5.2-4.6 0-.6 0-1.2.2-1.7l1.2-4.8 19.5-75.4c.5-1.7.1-3.5-1.1-4.8l-53.3-56.8c-2.9-3.1-.7-8.6 3.8-9.2l81.6-11.7c1.8-.3 3.4-1.4 4.3-3l42.4-73c.3-.5.7-1 1.2-1.4.8-.7 1.7-1.2 2.7-1.4.4-.1.8-.1 1.2-.1.3 0 .7 0 1 .1.2 0 .3.1.5.1 1.4.4 2.5 1.4 3 2.8l3.3 8.1 3.9 9.7 2.4 5.9 6 14.8 4.5 10.8 9.7 23.8c.6 1.6 2.1 2.8 3.8 3l46.8 6.9 24.5 3.6 8.2 1.2c4.5.5 5.8 5.9 2.3 9z"/><path class="prefix__st5" d="M210.8 82.7l-.3.8-79 205.1-3 7.9-16.4 8.2-9.3 4.7c-.7.4-1.5.6-2.4.6-2.7.2-5-1.9-5.2-4.6 0-.6 0-1.2.2-1.7l1.2-4.8L195 63.5c.8-.7 1.7-1.2 2.7-1.4h2.3c.2 0 .3.1.5.1 1.4.4 2.5 1.4 3 2.8l3.3 8.1 4 9.6z"/><path class="prefix__st6" d="M223.6 114.1L159.3 281l-18.1 9.1 78-186.7z"/><path class="prefix__st7" d="M308.4 151.4l-11.6 30.3-41.2 37c-1.4 1.2-2.1 3-2 4.8l4.8 57.8-10.1 26.2-.1.2-25.3-14v-.1L283.8 148l24.6 3.4z"/></g><g id="prefix__freepik--speech-bubble-2--inject-1"><path class="prefix__st2" d="M331.7 250.8c-.2-3.3-7.2-4.5-10.2-5.3-.6-.1-1.3-.3-1.9-.5-12.3-4-20.3-12-20.7-20.9-.7-14 16.7-26.3 38.8-27.3s40.6 9.5 41.2 23.5-16.7 26.3-38.8 27.3c-.7.1-1.2.7-1.2 1.3-.6 5-3.6 6.4-6 7.6l-.3.1c-1.5.6-3.1 1.2-4.6 1.6-.3.1-.7-.1-.8-.4-.1-.3 0-.5.2-.7 2.3-1.6 4.5-3.7 4.3-6.3z"/><path class="prefix__st0" d="M327.8 258.7c-.6 0-1.1-.6-1-1.2 0-.3.2-.6.4-.8 1.9-1.3 4.2-3.4 4-5.8-.2-2.5-5.4-3.8-8.5-4.5l-1.4-.3c-.9-.2-1.6-.4-1.9-.6-12.5-4-20.5-12.2-21-21.4-.7-14.3 16.9-26.8 39.3-27.9s41.1 9.7 41.8 24c.7 14.3-16.9 26.8-39.3 27.8-.5 0-.6.7-.7.9-.7 5.3-3.9 6.8-6.2 8l-.3.1c-1.5.7-3.1 1.2-4.8 1.6-.2.2-.3.1-.4.1zm12.9-61.5c-1 0-2 0-3 .1-21.8 1.1-39 13.1-38.3 26.8.4 8.7 8.2 16.6 20.3 20.5.4.1 1 .3 1.8.5l1.4.4c3.6.9 9 2.2 9.3 5.4.2 2.3-1.3 4.6-4.5 6.7v.1c0 .1.1.1.1.1 1.6-.4 3.1-.9 4.6-1.6l.3-.1c2.4-1.2 5.1-2.5 5.7-7.2 0-.9.7-1.7 1.6-1.8 21.8-1 39-13.1 38.3-26.8-.5-13.1-17.2-23.1-37.6-23.1z"/><path class="prefix__st0" d="M329 217.3h-2.9c-1.4 0-2.6 1.1-2.6 2.5l-.7 13.5c-.1 1.3.9 2.4 2.2 2.5h3.1c1.4 0 2.6-1.1 2.6-2.5l.7-13.5c.1-1.3-.9-2.4-2.2-2.5h-.2z"/><path class="prefix__st8" d="M329 217.3h-2.9c-1.4 0-2.6 1.1-2.6 2.5l-.7 13.5c-.1 1.3.9 2.4 2.2 2.5h3.1c1.4 0 2.6-1.1 2.6-2.5l.7-13.5c.1-1.3-.9-2.4-2.2-2.5h-.2z"/><path class="prefix__st0" d="M352.1 217.3h-8.6l.7-3.5c.4-1.8.7-3.7.7-5.6-.1-1-.6-1.9-1.5-2.4-1.2-.6-2.6-.9-3.9-.7l-.8.7c-.1 1.5-.6 5.5-1.5 6.6l-4.1 5.1c-.6.7-.9 1.5-.9 2.4l-.7 12.6c-.1 1.6 1.1 3 2.7 3.1h12.2c1.1 0 2.1-.5 2.8-1.3l1.1-1.3c.4-.5.7-1.1.9-1.7l2.6-11.7-1.7-2.3z"/></g><g id="prefix__freepik--speech-bubble-1--inject-1"><path class="prefix__st2" d="M144.4 51.8v39.1c0 2-1.7 3.7-3.7 3.7h-58l-11.5 11.2c-.3.3-.8.5-1.2.4-1.5 0-1.7-1.2-1.7-2.7l.4-8.9h-6.9c-2 0-3.7-1.7-3.7-3.7V51.8c0-2 1.7-3.7 3.7-3.7h78.9c2.1.1 3.7 1.7 3.7 3.7z"/><path class="prefix__st0" d="M70 106.7c-2.2 0-2.2-2.2-2.2-3.2l.4-8.4h-6.4c-2.3 0-4.2-1.9-4.2-4.2V51.8c0-1.1.4-2.2 1.2-3 .8-.8 1.9-1.2 3-1.2h78.9c2.3 0 4.2 1.9 4.2 4.2v39.1c0 2.3-1.9 4.2-4.2 4.2H83l-11.4 11c-.4.4-1 .6-1.6.6zm-8.2-58c-1.8 0-3.2 1.4-3.2 3.2V91c0 1.8 1.4 3.2 3.2 3.2h7.4l-.4 9.4c0 1.9.4 2.2 1.2 2.2.3 0 .7-.1.9-.3l11.6-11.3h58.2c1.8 0 3.2-1.4 3.2-3.2V51.8c0-1.8-1.4-3.2-3.2-3.2l-78.9.1z"/><path class="prefix__st0" d="M79.1 58L77 59.9l-.6.6c-.1.1-.1.1-.1.2l.1 1 .1 2.7c0 .1-.1.3-.2.3h-.1l-.7-.4-1.1-.6-.8-.4.8.4 1.1.6.2.1c.1.1.3 0 .3-.1v-.1l-.1-1-.2-2.5c0-.1 0-.2.1-.2l1.8-1.6 1-.8c.1-.1.1-.2 0-.3l-.1-.1H78l-1-.3-2-.3c-.1 0-.1-.1-.2-.1l-.4-1-.2-.5-.3-.7-.1-.2-.2-.4-.1-.3c0-.1-.1-.1-.1-.1l.6.1h.1l.1.1.3.8.1.1.1.3.8 2c0 .1.1.1.2.1l1.3.2 1.1.2 1.1.2c0-.2 0 0-.1.1.1 0 .1 0 0 0z"/><path class="prefix__st3" d="M79.1 58L77 59.9l-.6.6c-.1.1-.1.1-.1.2l.1 1 .1 2.7c0 .1-.1.3-.2.3h-.1l-.7-.4-1.1-.6-.8-.4.8.4 1.1.6.2.1c.1.1.3 0 .3-.1v-.1l-.1-1-.2-2.5c0-.1 0-.2.1-.2l1.8-1.6 1-.8c.1-.1.1-.2 0-.3l-.1-.1H78l-1-.3-2-.3c-.1 0-.1-.1-.2-.1l-.4-1-.2-.5-.3-.7-.1-.2-.2-.4-.1-.3c0-.1-.1-.1-.1-.1l.6.1h.1l.1.1.3.8.1.1.1.3.8 2c0 .1.1.1.2.1l1.3.2 1.1.2 1.1.2c0-.2 0 0-.1.1.1 0 .1 0 0 0z"/><path class="prefix__st4" d="M74.2 53.8l-.2-.1c.1 0 .1.1.2.1zM74 53.7z"/><path class="prefix__st0" d="M73 62.9l-1.7.9-.8.4-.5.2h-.2l-.8-.1h.1l.4-.2.7-.3.4-.2.2-.1.8-.4.8-.4h.2l.4.2z"/><path class="prefix__st3" d="M73 62.9l-1.7.9-.8.4-.5.2h-.2l-.8-.1h.1l.4-.2.7-.3.4-.2.2-.1.8-.4.8-.4h.2l.4.2z"/><path class="prefix__st4" d="M73.9 54.8l-.3-.6-.3-.6h.1c.1 0 .1.1.1.1l.1.3.3.8zM70.6 63.6l-1.1.5-.4.2H69l.7-1.3h.1l.8.6z"/><path class="prefix__st0" d="M78.4 57.9l-1 .8-1.8 1.6c-.1.1-.1.1-.1.2l.2 2.5.1 1c0 .1-.1.3-.2.3h-.1l-.2-.1-1.1-.6-.8-.4-.4-.2-.4-.2h-.2l-.8.4-.8.4-.2.1-.4.2-.7.3-.4.2H69c-.1 0-.2-.1-.2-.2V63.9l.8-3.3v-.2L67.3 58c-.1-.1-.1-.3 0-.4h.1L71 57c.1 0 .1-.1.2-.1l1.8-3.2v-.1s.1 0 .1-.1h.1c.1 0 .1.1.1.1l.1.3.2.4.1.2.3.7.2.5.4 1c0 .1.1.1.2.1l2 .3 1.1.2h.4c.1-.1.3 0 .3.1 0 .3 0 .5-.2.5z"/><path class="prefix__st5" d="M73.8 54.5l-3.4 8.9-.1.3-.7.3-.4.2H69c-.1 0-.2-.1-.2-.2V63.7L73 53.6s.1 0 .1-.1h.1c.1 0 .1.1.1.1l.1.3.4.6z"/><path class="prefix__st6" d="M74.3 55.9l-2.8 7.2-.8.4 3.4-8.1z"/><path class="prefix__st7" d="M78 57.5l-.5 1.3-1.8 1.6c-.1.1-.1.1-.1.2l.2 2.5-.4 1.1-1.1-.6 2.6-6.3 1.1.2z"/><path class="prefix__st0" d="M93.2 58l-2.1 1.9-.6.6c-.1.1-.1.1-.1.2l.1 1 .1 2.7c0 .1-.1.3-.2.3h-.1l-.8-.4-1.1-.6-.8-.4.8.4 1.1.6.1.1c.1.1.3 0 .3-.1v-.1l-.1-1-.2-2.5c0-.1 0-.2.1-.2l1.8-1.6 1-.8c.1-.1.1-.2 0-.3l-.1-.1H92l-1-.3-2-.3c-.1 0-.1-.1-.2-.1l-.4-1-.2-.5-.2-.7-.1-.2-.2-.4-.1-.3c0-.1-.1-.1-.1-.1l.6.1h.1l.1.1.3.8.1.1.1.3.8 2c0 .1.1.1.2.1l1.3.2 1.1.2 1.1.2c-.1-.2 0 0-.1.1z"/><path class="prefix__st3" d="M93.2 58l-2.1 1.9-.6.6c-.1.1-.1.1-.1.2l.1 1 .1 2.7c0 .1-.1.3-.2.3h-.1l-.8-.4-1.1-.6-.8-.4.8.4 1.1.6.1.1c.1.1.3 0 .3-.1v-.1l-.1-1-.2-2.5c0-.1 0-.2.1-.2l1.8-1.6 1-.8c.1-.1.1-.2 0-.3l-.1-.1H92l-1-.3-2-.3c-.1 0-.1-.1-.2-.1l-.4-1-.2-.5-.2-.7-.1-.2-.2-.4-.1-.3c0-.1-.1-.1-.1-.1l.6.1h.1l.1.1.3.8.1.1.1.3.8 2c0 .1.1.1.2.1l1.3.2 1.1.2 1.1.2c-.1-.2 0 0-.1.1z"/><path class="prefix__st4" d="M88.2 53.8l-.1-.1.1.1zM88 53.7h.1-.1z"/><path class="prefix__st0" d="M87 62.9l-1.7.9-.8.4-.5.2h-.2l-.8-.1h.1l.4-.2.7-.3.4-.2.2-.1.8-.4.8-.4h.2l.4.2z"/><path class="prefix__st3" d="M87 62.9l-1.7.9-.8.4-.5.2h-.2l-.8-.1h.1l.4-.2.7-.3.4-.2.2-.1.8-.4.8-.4h.2l.4.2z"/><path class="prefix__st4" d="M87.9 54.8l-.3-.6-.3-.6h.1c.1 0 .1.1.1.1l.1.3.3.8zM84.6 63.6l-1.1.5-.4.2H83l.7-1.3h.1l.8.6z"/><path class="prefix__st0" d="M92.5 57.9l-1 .8-1.8 1.6c-.1.1-.1.1-.1.2l.2 2.5.1 1c0 .1-.1.3-.2.3h-.1l-.1-.1-1.1-.6-.8-.4-.6-.2-.4-.2h-.2l-.8.4-.8.4-.2.1-.4.2-.7.3-.4.2H83c-.1 0-.2-.1-.2-.2V63.9l.9-3.3v-.2L81.3 58c-.1-.1-.1-.3 0-.4h.1L85 57c.1 0 .1-.1.2-.1l1.8-3.2.1-.1s.1 0 .1-.1h.1c.1 0 .1.1.1.1l.1.3.2.4.1.2.3.7.2.5.4 1c0 .1.1.1.2.1l2 .3 1.1.2h.4c.1 0 .3 0 .3.2 0 .3-.1.4-.2.4z"/><path class="prefix__st5" d="M87.8 54.5l-3.4 8.9-.1.3-.7.3-.4.2H83c-.1 0-.2-.1-.2-.2V63.7l4.3-10.2s.1 0 .1-.1h.1c.1 0 .1.1.1.1l.1.3.3.7z"/><path class="prefix__st6" d="M88.3 55.9l-2.7 7.2-.8.4 3.4-8.1z"/><path class="prefix__st7" d="M92 57.5l-.5 1.3-1.8 1.6c-.1.1-.1.1-.1.2l.2 2.5-.4 1.1-1.1-.6 2.6-6.3 1.1.2z"/><path class="prefix__st0" d="M107.2 58l-2.1 1.9-.6.6c-.1.1-.1.1-.1.2v1l.1 2.7c0 .1-.1.3-.2.3h-.1l-.8-.4-1.1-.6-.8-.4.8.4 1.1.6.1.1c.1.1.3 0 .3-.1v-.1l-.1-1-.2-2.5c0-.1 0-.2.1-.2l1.8-1.6 1-.8c.1-.1.1-.2 0-.3l-.1-.1h-.3l-1.1-.2-2-.3c-.1 0-.1-.1-.2-.1l-.4-1-.2-.5-.3-.7-.1-.2-.2-.4-.1-.3c0-.1-.1-.1-.1-.1l.6.1h.1l.1.1.3.8.1.1.1.3.8 2c0 .1.1.1.2.1l1.3.2 1.1.2 1.1.2c.1-.3.2-.2.1 0z"/><path class="prefix__st3" d="M107.2 58l-2.1 1.9-.6.6c-.1.1-.1.1-.1.2v1l.1 2.7c0 .1-.1.3-.2.3h-.1l-.8-.4-1.1-.6-.8-.4.8.4 1.1.6.1.1c.1.1.3 0 .3-.1v-.1l-.1-1-.2-2.5c0-.1 0-.2.1-.2l1.8-1.6 1-.8c.1-.1.1-.2 0-.3l-.1-.1h-.3l-1.1-.2-2-.3c-.1 0-.1-.1-.2-.1l-.4-1-.2-.5-.3-.7-.1-.2-.2-.4-.1-.3c0-.1-.1-.1-.1-.1l.6.1h.1l.1.1.3.8.1.1.1.3.8 2c0 .1.1.1.2.1l1.3.2 1.1.2 1.1.2c.1-.3.2-.2.1 0z"/><path class="prefix__st4" d="M102.2 53.8l-.1-.1.1.1zM102 53.7z"/><path class="prefix__st0" d="M101 62.9l-1.7.9-.8.4-.5.2h-.2l-.7-.1h.1l.4-.2.7-.3.4-.2.2-.1.8-.4.8-.4h.2l.3.2z"/><path class="prefix__st3" d="M101 62.9l-1.7.9-.8.4-.5.2h-.2l-.7-.1h.1l.4-.2.7-.3.4-.2.2-.1.8-.4.8-.4h.2l.3.2z"/><path class="prefix__st4" d="M101.9 54.8l-.3-.6-.3-.6h.1c.1 0 .1.1.1.1l.1.3.3.8zM98.6 63.6l-1.1.5-.4.2H97l.7-1.3h.1l.8.6z"/><path class="prefix__st0" d="M106.5 57.9l-1 .8-1.8 1.6c-.1.1-.1.1-.1.2l.2 2.5.1 1c0 .1-.1.3-.2.3h-.1l-.1-.1-1.1-.6-.8-.4-.6-.2-.4-.2h-.2l-.8.4-.8.4-.2.1-.4.2-.7.3-.4.2H97c-.1 0-.2-.1-.2-.2V63.9l.9-3.3v-.2L95.3 58c-.1-.1-.1-.3 0-.4h.1L99 57c.1 0 .1-.1.2-.1l1.8-3.2v-.1l.1-.1h.1c.1 0 .1.1.1.1l.1.3.2.4.1.2.3.7.2.5.4 1c0 .1.1.1.2.1l2 .3 1.1.2h.4c.1-.1.3 0 .3.1.1.3 0 .5-.1.5z"/><path class="prefix__st5" d="M101.8 54.5l-3.4 8.9-.1.3-.7.3-.4.2H97c-.1 0-.2-.1-.2-.2V63.7l4.3-10.2.1-.1h.1c.1 0 .1.1.1.1l.1.3.3.7z"/><path class="prefix__st6" d="M102.4 55.9l-2.8 7.2-.8.4 3.4-8.1z"/><path class="prefix__st7" d="M106 57.5l-.5 1.3-1.8 1.6c-.1.1-.1.1-.1.2l.2 2.5-.4 1.1-1.1-.6 2.6-6.3 1.1.2z"/><path class="prefix__st0" d="M121.2 58l-2.1 1.9-.6.6c-.1.1-.1.1-.1.2v1l.1 2.7c0 .1-.1.3-.2.3h-.1l-.8-.4-1.1-.6-.8-.4.8.4 1.1.6.1.1c.1.1.3 0 .3-.1v-.1l-.1-1-.2-2.5c0-.1 0-.2.1-.2l1.8-1.6 1-.8c.1-.1.1-.2 0-.3l-.1-.1h-.4l-1.1-.2-2-.3c-.1 0-.1-.1-.2-.1l-.4-1-.2-.5-.3-.7-.1-.2-.2-.4-.1-.3c0-.1-.1-.1-.1-.1l.6.1h.1l.1.1.3.8.1.1.1.3.8 2c0 .1.1.1.2.1l1.3.2 1.1.2 1.1.2c.3-.3.3-.2.2 0 .1 0 0 0 0 0z"/><path class="prefix__st3" d="M121.2 58l-2.1 1.9-.6.6c-.1.1-.1.1-.1.2v1l.1 2.7c0 .1-.1.3-.2.3h-.1l-.8-.4-1.1-.6-.8-.4.8.4 1.1.6.1.1c.1.1.3 0 .3-.1v-.1l-.1-1-.2-2.5c0-.1 0-.2.1-.2l1.8-1.6 1-.8c.1-.1.1-.2 0-.3l-.1-.1h-.4l-1.1-.2-2-.3c-.1 0-.1-.1-.2-.1l-.4-1-.2-.5-.3-.7-.1-.2-.2-.4-.1-.3c0-.1-.1-.1-.1-.1l.6.1h.1l.1.1.3.8.1.1.1.3.8 2c0 .1.1.1.2.1l1.3.2 1.1.2 1.1.2c.3-.3.3-.2.2 0 .1 0 0 0 0 0z"/><path class="prefix__st4" d="M116.2 53.8l-.1-.1c.1 0 .1.1.1.1zM116 53.7z"/><path class="prefix__st0" d="M115.1 62.9l-1.7.9-.8.4-.5.2h-.2l-.7-.1h.1l.4-.2.7-.3.4-.2.2-.1.8-.4.8-.4h.2l.3.2z"/><path class="prefix__st3" d="M115.1 62.9l-1.7.9-.8.4-.5.2h-.2l-.7-.1h.1l.4-.2.7-.3.4-.2.2-.1.8-.4.8-.4h.2l.3.2z"/><path class="prefix__st4" d="M116 54.8l-.3-.6-.3-.6h.1c.1 0 .1.1.1.1l.1.3.3.8zM112.7 63.6l-1.1.5-.4.2h-.1l.7-1.3h.1l.8.6z"/><path class="prefix__st0" d="M120.5 57.9l-1 .8-1.8 1.6c-.1.1-.1.1-.1.2l.2 2.5.1 1c0 .1-.1.3-.2.3h-.1l-.1-.1-1.1-.6-.8-.4-.6-.2-.4-.2h-.2l-.8.4-.8.4-.2.1-.4.2-.7.3-.4.2h-.1c-.1 0-.2-.1-.2-.2v-.1l.1-.2.9-3.3v-.2l-2.3-2.5c-.1-.1-.1-.3 0-.4h.1l3.5-.5c.1 0 .2-.1.2-.1l1.8-3.2v-.1l.1-.1h.1c.1 0 .1.1.1.1l.1.3.2.4.1.2.3.7.2.5.4 1c0 .1.1.1.2.1l2 .3 1.1.2h.4c.1 0 .3 0 .3.2 0 .3 0 .4-.2.4z"/><path class="prefix__st5" d="M115.8 54.5l-3.4 8.9-.1.3-.7.3-.4.2h-.1c-.1 0-.2-.1-.2-.2v-.1l.1-.2 4.3-10.2.1-.1h.1c.1 0 .1.1.1.1l.1.3.1.7z"/><path class="prefix__st6" d="M116.4 55.9l-2.8 7.2-.8.4 3.4-8.1z"/><path class="prefix__st7" d="M120.1 57.5l-.5 1.3-1.8 1.6c-.1.1-.1.1-.1.2l.2 2.5-.4 1.1-1.1-.6 2.6-6.3 1.1.2z"/><path class="prefix__st0" d="M135.3 58l-2.1 1.9-.6.6c-.1.1-.1.1-.1.2v1l.1 2.7c0 .1-.1.3-.2.3h-.1l-.8-.4-1.1-.6-.8-.4.8.4 1.1.6.2.1c.1.1.3 0 .3-.1v-.1l-.1-1-.2-2.5c0-.1 0-.2.1-.2l1.8-1.6 1-.8c.1-.1.1-.2 0-.3l-.1-.1h-.4l-1.1-.2-2-.3c-.1 0-.1-.1-.2-.1l-.4-1-.2-.5-.3-.7-.1-.2-.2-.4-.1-.3c0-.1-.1-.1-.1-.1l.6.1h.1l.1.1.3.8.1.1.1.3.8 2c0 .1.1.1.2.1l1.3.2 1.1.2 1.1.2c.1-.3.1-.2.1 0z"/><path class="prefix__st3" d="M135.3 58l-2.1 1.9-.6.6c-.1.1-.1.1-.1.2v1l.1 2.7c0 .1-.1.3-.2.3h-.1l-.8-.4-1.1-.6-.8-.4.8.4 1.1.6.2.1c.1.1.3 0 .3-.1v-.1l-.1-1-.2-2.5c0-.1 0-.2.1-.2l1.8-1.6 1-.8c.1-.1.1-.2 0-.3l-.1-.1h-.4l-1.1-.2-2-.3c-.1 0-.1-.1-.2-.1l-.4-1-.2-.5-.3-.7-.1-.2-.2-.4-.1-.3c0-.1-.1-.1-.1-.1l.6.1h.1l.1.1.3.8.1.1.1.3.8 2c0 .1.1.1.2.1l1.3.2 1.1.2 1.1.2c.1-.3.1-.2.1 0z"/><path class="prefix__st4" d="M130.3 53.8l-.1-.1s0 .1.1.1zM130.1 53.7z"/><path class="prefix__st0" d="M129.1 62.9l-1.7.9-.8.4-.5.2h-.2l-.7-.1h.1l.4-.2.7-.3.4-.2.2-.1.8-.4.8-.4h.2l.3.2z"/><path class="prefix__st3" d="M129.1 62.9l-1.7.9-.8.4-.5.2h-.2l-.7-.1h.1l.4-.2.7-.3.4-.2.2-.1.8-.4.8-.4h.2l.3.2z"/><path class="prefix__st4" d="M130 54.8l-.3-.6-.3-.6h.1c.1 0 .1.1.1.1l.1.3.3.8zM126.7 63.6l-1.1.5-.4.2h-.1l.7-1.3h.1l.8.6z"/><path class="prefix__st0" d="M134.6 57.9l-1 .8-1.8 1.6c-.1.1-.1.1-.1.2l.2 2.5.1 1c0 .1-.1.3-.2.3h-.1l-.2-.1-1.1-.6-.8-.4-.5-.3-.4-.2h-.2l-.8.4-.8.4-.2.1-.4.2-.7.3-.4.2h-.1c-.1 0-.2-.1-.2-.2V64l.1-.2.8-3.3v-.2l-2.3-2.5c-.1-.1-.1-.3 0-.4h.1l3.5-.5c.1 0 .2-.1.2-.1l1.8-3.2v-.1l.1-.1h.1c.1 0 .1.1.1.1l.1.3.2.4.1.2.3.7.2.5.4 1c0 .1.1.1.2.1l2 .3 1.1.2h.4c.1 0 .3 0 .3.2s0 .5-.1.5z"/><path class="prefix__st5" d="M129.9 54.5l-3.4 8.9-.1.3-.7.3-.4.2h-.1c-.1 0-.2-.1-.2-.2v-.1l.1-.2 4.3-10.2.1-.1h.1c.1 0 .1.1.1.1l.1.3.1.7z"/><path class="prefix__st6" d="M130.4 55.9l-2.8 7.2-.7.4 3.3-8.1z"/><path class="prefix__st7" d="M134.1 57.5l-.5 1.3-1.8 1.6c-.1.1-.1.1-.1.2l.2 2.5-.4 1.1-1.1-.6 2.6-6.3 1.1.2z"/><path class="prefix__st0" d="M77.7 73.5H138v1H77.7zM65.9 79.1H138v1H65.9zM65.9 84.8h49.4v1H65.9z"/></g><g id="prefix__freepik--character-2--inject-1"><path class="prefix__st0" d="M226.7 318.7l-1.5 5.9s-14.4-4.3-19.2 7.8 7.8 37.9 46.1 29c0 0 10.3 2.8 19.2.6 13.1-3.3 29.8-11 31.6-23.1 3-20.4-37.5-13.1-37.5-13.1l-1.5-3.8-37.2-3.3z"/><path class="prefix__st9" d="M231.8 327.3s9.1 4.6 12.4 12.3l3.9 1.4s-2.3-10.5-16.3-13.7z"/><path class="prefix__st0" d="M261.2 346.7s.3-13 13.2-23h10.1l-19.4 25.4-3.9-2.4zM205.7 333.4s-3.7 10.5 10.3 22.2 21.4-3.9 21.4-3.9l1.1-5.9-9.5-8.5-12.2-8.1-6.6.8-4.5 3.4z"/><path class="prefix__st10" d="M205.6 334.9c1.3 9.3 7.1 17.3 15.6 21.3 11.9 5.7 15-10.4 15-10.4l-22-14.4-8.2 1-.4 2.5z"/><path class="prefix__st9" d="M205.6 334.9c1.3 9.3 7.1 17.3 15.6 21.3 11.9 5.7 15-10.4 15-10.4l-22-14.4-8.2 1-.4 2.5z"/><path class="prefix__st4" d="M300.9 373.2c-2.5-4.5-6.5-8-11.3-9.8-.5-.3-.9-.6-1.2-1.1l-.3-.6-2.5-8c-.1-.1-.1-.3 0-.5 0-.2.1-.4.3-.5l6.9-4c.6-.4 1.4-.3 1.9.3 0 .1.1.2.1.2 1.4 3.4 2.5 6.4 4.3 10.5 2.1 4.9 2.2 3.4 4.8 9.1 1.5 3.4-2.1 5.7-3 4.4z"/><path class="prefix__st10" d="M276.4 325.1s34.6-7.5 40.2 3.5-14.1 18.4-21.1 20.8C283.3 353.7 241 367 241 367l2.8-8.6 20.2-11.5c-.1 0 .8-11.6 12.4-21.8z"/><path class="prefix__st4" d="M243.8 365.9l3-9.1c.1-.3 0-.7-.3-.9l-6.9-4.1c-.6-.4-1.4-.2-1.8.4 0 .1-.1.2-.1.2-1 3.3-1.8 6.3-3.2 10.4-1.6 4.8-1.8 3.4-3.7 9-1.2 3.4 2.5 5.3 3.2 3.9 3-6.4 5.2-6.4 8.5-8.1.6-.4 1.1-1 1.3-1.7z"/><path class="prefix__st9" d="M291.9 328.3c-.3-1.3-19.5 11-25.5 10.2-.8 1.8-1.4 3.6-1.9 5.5-.1.4-.2.7-.2 1v.1c0 .1 0 .2-.1.3V346.8L245 357.6l14.8 3.4c8.8-2.8 19.1-6.1 26.9-8.7l-19.6-7.4c7.3-4.5 25.1-15.5 24.8-16.6z"/><path class="prefix__st10" d="M288.4 362.2c-10.7-1.4-31.1-4-38.1-5.5-12.7-2.7-54.4-13.5-43.8-27.7 11.1-14.9 33.2 7.7 33.2 7.7l45.8 16.4v.5l2.5 8c.2.2.3.4.4.6z"/><path class="prefix__st9" d="M222.1 328.4c-3.3 1.4 17.7 8.3 17.7 8.3-2.7-2.7-5.7-5.1-8.9-7.3-3.3-1.2-6.6-1.9-8.8-1z"/><path class="prefix__st10" d="M312.3 275.9l8-3.8-3.1-8.7-3.3 4.5c-.8 1.1-1.7 2.1-2.7 3l1.1 5z"/><path class="prefix__st10" d="M315.4 264l3.5 8.9 5.1-2c.5-.3.8-.9.6-1.4l-1.6-6.9c-.1-.3-.4-.5-.8-.4l-6.8 1.8z"/><path class="prefix__st10" d="M318.5 267.5l-2.1 1.8-3.2-.4.5-1.1c.3-.8.4-1.6.2-2.4-.3-.8-.6-1.6-1-2.4l-.1-.3c-.2-.5-.1-1.1.4-1.4 0 0 1.2-.3 2.3 2.4l.8 1.2 1.2-.1 1 2.7zM266.6 267.3l18 12.9 27.7-10 2.4 4.2s-22.3 15.9-29.5 15.8-25.8-15.5-25.8-15.5l7.2-7.4z"/><g id="prefix__freepik--Character--inject-2--inject-1"><path class="prefix__st4" d="M262.1 266.3c2.9-1.9 6.6-5 19.3 9.6l-8.6 9.9c-8.4-3.1-16.3-13.6-10.7-19.5z"/><path class="prefix__st4" d="M257.5 261.2l-8.7-2.1-11.1-.1c-3.5 0-6.5 2.3-7.5 5.6-2 7.9-3.5 15.9-4.5 24-1.2 9.1.3 19.5.6 31.8l39.5 1.5c-2.1-18 1.5-33.7 3.8-43.2.5-5.8 0-12.7-3.1-14.1l-9-3.4z"/><path class="prefix__st11" d="M225.8 288.6c.9-6.4 2-13.6 3.4-19.5 7.3-1.5 11.5 14.5 9.7 22.6s-13.7 3.7-13.7 3.7c.1-2.5.3-4.8.6-6.8z"/><path class="prefix__st10" d="M251.6 244.9l3.5 5 4.8 6.8c-.6.6-1 1.3-1.3 2.1-.7 1.7-1.4 3 2.2 5.2.8.5 1.2 1.4 1.1 2.3-.2 1.1-1.2 2.2-5 1.7-3.7-.6-7.1-2.3-9.7-4.9-1.3-1.2-1.1-2.2.1-3.5 3.4-3.9 4.2-9.9 4.3-14.7z"/><path class="prefix__st12" d="M258.9 255l-3-4.8-.2.4c-.2.6-.4 1.3-.5 1.9-.4 2.2 1.4 5.3 3.3 6.7l.2-.4c.3-.7.7-1.4 1.2-2l.1-.1-1.1-1.7z"/><path class="prefix__st4" d="M265.1 245.2c4.1-6 3.9-9.7 7.5-12.7 1.8-.5 4.4 3 1.7 8s-9.2 4.7-9.2 4.7z"/><path class="prefix__st10" d="M252.8 236.5c-1.3 7.4-2.4 11.6.4 16.1 4.2 6.8 14 5.5 17.5-1.4 3.1-6.2 4.7-17.2-1.8-21.7-4.7-3.2-11.2-2-14.4 2.7-.9 1.3-1.4 2.8-1.7 4.3z"/><path class="prefix__st4" d="M251.1 242.9l3.7 2.9 1.3-6.4 3.5-1.5 4.8-5.5s-8.4-3.6-10.9-4.3c-.9-.2-4.4 1.8-5 2.8-1.6 2.8-1.5 6.3.3 9 .7 1.1 1.4 2.1 2.3 3z"/><path class="prefix__st10" d="M248.5 241.3c0 1.7.6 3.3 1.7 4.5 1.5 1.6 3.5.2 4-1.9.4-1.9-.3-4.7-2.2-5.5s-3.5.9-3.5 2.9z"/><path class="prefix__st4" d="M263.5 242c-.2.6 0 1.2.4 1.3s.8-.3 1-.9c.2-.5.1-1.1-.4-1.3-.4-.1-.8.3-1 .9zM270.2 244.2c-.2.6 0 1.2.4 1.3s.8-.3 1-.9 0-1.2-.4-1.3-.8.2-1 .9z"/><path d="M268 243.9c0 1.8.3 3.5.8 5.2-.9.2-1.8 0-2.5-.5l1.7-4.7z" fill="#ff5652"/><path class="prefix__st4" d="M264.7 251.9c-1.4-.4-2.6-1.4-3.3-2.6 0-.1 0-.2.1-.2s.2 0 .2.1c.8 1.4 2.1 2.4 3.7 2.6.1 0 .2.1.1.2 0 .1-.1.1-.1.1-.2 0-.4-.1-.7-.2zM262.8 239.4c-.1 0-.1-.1-.1-.1-.1-.2-.1-.4.1-.5.9-.7 2.2-.9 3.3-.5.2.1.3.3.2.4-.1.2-.3.3-.5.2-.9-.3-1.8-.1-2.6.4-.1.2-.3.2-.4.1zM271.4 240.2c-.1-.2.1-.4.2-.4h.2c1.1.4 2 1.3 2.2 2.4 0 .2-.1.4-.3.4-.2 0-.4-.1-.4-.3-.3-.9-.9-1.6-1.8-1.9 0 .1-.1 0-.1-.2z"/></g><path class="prefix__st0" d="M268.7 325.4l-24.2-2.4s-.1-.5 2-.6h.5c.4 0 2.1-.1 4.2-.2h.7c6.3-.3 16.3-.7 16.3-.7l.3 3.3.2.6z"/><path class="prefix__st6" d="M268.7 324.7l-18.2-1.8s-.7-.5.8-.7h.7c6.3-.3 16.3-.7 16.3-.7l.4 3.2z"/><path class="prefix__st10" d="M257.3 315.2l3.6.9-4.8 7.5s-7.7-2.4-6.3-5.8l1.9-1.2c1.6-.9 3.6-2 5.6-1.4z"/><path class="prefix__st10" d="M264.3 321l-3.5 3.7-4.7-1.1 4.8-7.5zM236.3 284.8c-2.3 6.9-4.7 7.8-1.9 11.4s18.5 15.9 21.4 19.5l-4.9 3.8c-5.8-3.2-11.6-6.4-17.5-9.4-4.3-2.2-8.8-4.7-11.1-9-3.2-6.1-1.4-12 2.2-20 3.4-.6 11.8 3.7 11.8 3.7z"/><path class="prefix__st4" d="M235.2 259.2c7.8-1.5 11.9 5 8.6 15.2-1.7 5.5-3.8 10.8-6.5 15.9l-17.1-6.7c2.7-10.1 7.1-22.9 15-24.4zM266.1 326.6l43.6-1.8c.5 0 .8-.4.8-.9s-.4-.8-.9-.8l-43.6 1.8c-.5 0-.8.4-.8.8 0 .5.4.9.9.9z"/><path class="prefix__st0" d="M244.8 324.4l20.9 2.1c.4.1.8-.3.9-.7.1-.4-.3-.8-.7-.9l-20.9-2.1c-.4 0-.8.3-.9.7 0 .5.3.9.7.9z"/><path class="prefix__st14" d="M244.8 324.4l20.9 2.1c.4.1.8-.3.9-.7.1-.4-.3-.8-.7-.9l-20.9-2.1c-.4 0-.8.3-.9.7 0 .5.3.9.7.9z"/><path class="prefix__st0" d="M267.2 324.9l40.7-1.6c1.5-.1 2.6-1.3 2.7-2.7l1-20.7c.1-1.3-.9-2.4-2.2-2.5h-.3l-40.7 1.6c-1.5.1-2.6 1.3-2.7 2.7l-1 20.7c-.1 1.3.9 2.4 2.2 2.5h.3z"/><path class="prefix__st14" d="M267.2 324.9l40.7-1.6c1.5-.1 2.6-1.3 2.7-2.7l1-20.7c.1-1.3-.9-2.4-2.2-2.5h-.3l-40.7 1.6c-1.5.1-2.6 1.3-2.7 2.7l-1 20.7c-.1 1.3.9 2.4 2.2 2.5h.3z"/><path class="prefix__st0" d="M268.4 324.7l40.7-1.6c1.5-.1 2.6-1.3 2.7-2.7l1-20.7c.1-1.3-.9-2.4-2.2-2.5h-.3l-40.7 1.6c-1.5.1-2.6 1.3-2.7 2.7l-1 20.7c-.1 1.3.9 2.4 2.2 2.5.1.1.2.1.3 0z"/><path class="prefix__st8" d="M268.4 324.7l40.7-1.6c1.5-.1 2.6-1.3 2.7-2.7l1-20.7c.1-1.3-.9-2.4-2.2-2.5h-.3l-40.7 1.6c-1.5.1-2.6 1.3-2.7 2.7l-1 20.7c-.1 1.3.9 2.4 2.2 2.5.1.1.2.1.3 0z"/><path class="prefix__st2" d="M294.9 311.7c-.1 2.3-1.9 4.2-4.2 4.4-2 .2-3.8-1.4-4-3.4v-.5c.1-2.3 1.9-4.2 4.2-4.4 2-.2 3.8 1.4 4 3.4v.5z"/><path class="prefix__st4" d="M252.2 222.9c1.6-1.5 3.8-2.2 5.9-1.9 2.1.4 4.2 1 6.1 2l11.6 5.1c1.1.3 2 1 2.6 2 .7 1.5-.5 3.3-2 3.9-1.5.5-3.2.6-4.8.2-5.4-.9-10.7-2.3-15.9-4.1-3.3-1-7.2-3.3-3.5-7.2z"/><path class="prefix__st4" d="M267.5 232.8c-1.1.6-1.6 1.9-1 3.1.1-.8.6-1.4 1.4-1.7.7-.4 1.4-1.3.9-1.9-.6.1-.9.3-1.3.5zM270.6 232.9c.6 1.4.3 3-.8 4.1 1.8-.2 3-1.8 2.8-3.6 0-.1 0-.2-.1-.3l-1.7-.4-.2.2z"/></g><g id="prefix__freepik--character-1--inject-1"><path class="prefix__st15" d="M88.5 357l6.5 1.4 4.6-11.6-7.7-3.4z"/><path class="prefix__st9" d="M90.1 350.6l1.7-6.7 3.5 1 4.3 1.9-2.2 5.5z"/><path class="prefix__st0" d="M86.3 356.3l-.6-.6c-.3-.3-.6-.5-.9-.7-.6-.5-1.4-.9-2.2-1-.3 0-.5.1-.7.3-.2.2-.3.5-.2.8.2.5 1.1.9 2.1 1.2l.6.1 1.8.3c.1 0 .1 0 .2-.1 0-.1 0-.3-.1-.3zm-1.4-.2c-1.3-.2-2.7-.7-2.9-1.2 0-.1-.1-.2.1-.4.1-.1.3-.2.4-.2h.4c.9.4 1.6.9 2.3 1.5.1.1.3.2.4.3-.2.1-.5.1-.7 0z"/><path class="prefix__st0" d="M86 353.2c-.2-.3-.6-.5-.9-.6-.5-.1-.7.1-.8.3-.2.4.1 1.3.6 2l.6.9c.2.3.4.5.7.8h.2c.1 0 .1-.1.1-.1 0-.3.1-.6.1-.9-.1-.9-.2-1.7-.6-2.4zm.1 2.8l-.3-.3c-.7-.9-1.4-2.2-1.2-2.6 0 0 .1-.2.4-.1h.1c.2.1.4.2.6.4.3.7.5 1.5.4 2.3v.3z"/><path class="prefix__st4" d="M87.2 355.7l8.4 2.2c.3.1.5.4.5.7l-.3 7.3c0 .6-.6 1.2-1.2 1.1h-.2c-3-.9-5.7-1.7-9.5-2.7-4.5-1.2-3.5-.4-8.8-1.7-3.2-.8-2.8-4.5-1.4-4.4 6.4.9 7.5-.8 10.4-2.4.8-.2 1.5-.3 2.1-.1z"/><path class="prefix__st15" d="M135.9 364.9h6.7l2-12.3-8.2-1.7z"/><path class="prefix__st9" d="M136.4 350.9l8.2 1.7-1 5.7-7.5-.3z"/><path class="prefix__st0" d="M133.7 364.3s-.3-.2-.8-.4-.6-.3-1-.5c-.8-.4-1.6-.5-2.5-.4-.2.1-.5.2-.6.4-.2.2-.2.6 0 .8.7.5 1.5.7 2.4.6h.7c.6 0 1.2-.1 1.8-.2.1 0 .1-.1.1-.2l-.1-.1zm-1.5.2c-1.3.1-2.8 0-3.1-.4-.1-.1-.1-.2 0-.4.1-.1.2-.2.4-.3h.4c.9.1 1.8.4 2.6.8.2.1.3.1.5.2l-.8.1z"/><path class="prefix__st0" d="M133.8 364.5c0-.3-.1-.6-.1-.9-.1-.8-.5-1.6-1.1-2.2-.3-.2-.6-.3-1-.3-.5 0-.7.3-.7.5-.1.5.4 1.2 1.1 1.9.2.2.5.4.8.6.3.2.6.4.9.5h.2c-.1 0-.1-.1-.1-.1zm-2.7-2.9s0-.2.4-.2h.1c.2 0 .5.1.7.2.5.6.9 1.3 1 2.1 0 .1 0 .2.1.4l-.4-.2c-.9-.7-1.9-1.7-1.9-2.3z"/><path class="prefix__st4" d="M134.4 363.5h8.7c.3 0 .6.2.7.5l1.6 7.1c.2.6-.2 1.3-.9 1.4h-.2c-3.1 0-5.9-.2-9.9-.2-4.6 0-3.4.6-8.9.7-3.3.1-3.9-3.6-2.5-3.8 6.4-.8 7-2.8 9.4-5 .7-.5 1.3-.7 2-.7z"/><path class="prefix__st15" d="M69.9 125.2l2.2 2.7 5.4-.4 1.8 1.9 25 6.9c6-4.9 18.7-10.7 18.7-10.7 6.7 2.8 6 7.9 6 7.9s-16.5 10-23.3 11.3c-5.8 1.1-28.8-11.9-28.8-11.9l-5.2-.2c-.7 0-1.4-.3-1.8-.8l-1.4-1.5c-.5-.6-.8-1.3-.8-2.1l.2-2.4c0-.6.5-1.1 1.1-1.1.3-.1.7.1.9.4z"/><path class="prefix__st4" d="M118.6 125.5l-10.2 6.6 7.1 10.4 15.1-10.1v-.4c-.3-4.4-4-7.7-8.4-7.4-1.3-.1-2.5.3-3.6.9zM176.5 133.3c2.5-1 4.2-3.4 4.4-6.1.1-2.6-2.1-5.3-4.7-5.4s-4.9 3.1-3.7 5.5c.5.9 1.4 1.4 2.4 1.5-2.6.3-3.4-1-4.1-3.1-.6-2.2-.4-4.5.6-6.5s2.1-3.9 3.3-5.8c3.6-6.5 4.8-14.6 1.5-21.3s-11.4-11-18.4-8.7c-1 .3-2 .8-2.9 1.3-1.7.9-3.3 2.2-3.5 3.6v.6c0 2.3 3.2 4.7 4.8 5.8 1.9 1.3 3.9 2.6 5.2 4.4.3.5.6 1 .8 1.5 1.2 3.2-.4 6.7-2.3 9.5s-4 5.8-4.1 9.1c-.1 4.5-.3 15.1 15.8 16 3.4.2 7.2-.8 8.4-3.9-.5 1.5-2 2.3-3.5 2zm-2.5-5.7c.3-.1.6.1.8.4-.3-.2-.5-.3-.8-.4z"/><path class="prefix__st4" d="M153.7 181.2l8.7-50c.3-1.8-.9-3.5-2.7-3.8h-.3s-14.1-2.3-18.9-2.6c-3.6-.3-12.2-.4-17.2-.4l-.4 3.6c-3.1 7.9-3.4 19.7-2.3 28.2l.2 1.4-1.8 25v6.8h33.8l.9-8.2z"/><path class="prefix__st15" d="M133.6 124.9c5.1-.9 6.1-5.1 5.7-9l10.8-6.8c-1.5 4.3-3.5 11.9-1.9 16.3 0 0 .1 4.2-9.3 4.2s-5.3-4.7-5.3-4.7z"/><path class="prefix__st12" d="M139.2 115.9l7.2-4.5c.4 1.1.3 2.3-.3 3.2-1.5 2.4-4.1 3.8-6.9 4 .1-.9.1-1.8 0-2.7z"/><path class="prefix__st15" d="M154.3 100.1c-2.1 7.4-2.9 11.9-7.6 14.9-7 4.6-15.5-.9-15.7-8.8-.2-7.1 3.3-18.1 11.3-19.4 5.7-1 11.2 2.8 12.2 8.5.4 1.6.3 3.2-.2 4.8z"/><path class="prefix__st4" d="M142.1 99.7c-.1.6-.6 1.1-1 1s-.6-.6-.5-1.3.6-1 1-.9.6.7.5 1.2zM135.2 98.2c-.1.6-.6 1-1 .9s-.6-.6-.5-1.3.6-1 1-1 .6.8.5 1.4z"/><path d="M137.7 99c-1.1 1.7-2.5 3.3-4.1 4.6.7.8 1.7 1.2 2.8 1.2l1.3-5.8z" fill="#ed893e"/><path class="prefix__st4" d="M145.1 97.4h.2c.2-.1.3-.3.2-.5-.5-1.1-1.4-1.9-2.6-2.1-.2 0-.4.1-.4.3 0 .2.1.4.3.4h.1c.9.2 1.6.9 2 1.7-.1.1 0 .2.2.2zM133.1 94.9c.1 0 .2 0 .3-.1.5-.7 1.4-1.2 2.4-1.2.2 0 .4-.1.4-.3 0-.2-.1-.4-.3-.4-1.2 0-2.3.5-3 1.5-.1.1-.1.4 0 .5 0-.1.1 0 .2 0zM134.8 97l-1.5-.8c0 .1.6 1.5 1.5.8zM141.8 98.6l-1.5-.8c.1.1.6 1.4 1.5.8z"/><path class="prefix__st4" d="M161.6 93.6c0 .7-.4.9-1 1-1.6.1-4.7-1.6-4.7-1.6 1.2 3.1 1.1 6.5-.3 9.4-.9 2-2 3.4-3 3.7-.2.1-.5.1-.7 0-1.1-.4-2.1.2-3 .6s-.1-3.3-.1-3.3c-2-2-3.5-4.4-4.5-7.1l-.3-1.2c-.4-2.2.3-3.2-1-3.7-2.4-.9-2.6 6.4-4.4 3.5s2.1-5.7 2.1-5.7c-2-.9-4.2 1.5-6.1 3.6l-.3.3c-.5.6-1 1.2-1.4 1.6-1.1 1.1-2.1 1.3-1.7-.8 3.4-18.5 23.7-7.3 23.7-7.3s4.7-5.7 6.4-2.4-5.2 5.9-5.2 5.9 5.5 1.1 5.5 3.5z"/><path class="prefix__st15" d="M156.5 107.9c-1.4 1.4-3.2 2.2-5.1 2.2-2.6 0-3.2-2.4-1.9-4.5 1.1-1.9 3.9-4.1 6.2-3.1s2.4 3.7.8 5.4z"/><path class="prefix__st4" d="M137.7 107.8c-.4 0-.8 0-1.1-.1-.1 0-.2-.1-.2-.2s.1-.2.2-.2c1.7.3 3.4-.1 4.6-1.3.1-.1.2-.1.3 0 .1.1.1.2 0 .3-1 .9-2.4 1.5-3.8 1.5z"/><path class="prefix__st12" d="M152.4 145.2c1 2.5 1.5 5.1 1.6 7.7l-2.5-3.5c-.1 0 .3-1.7.9-4.2z"/><path class="prefix__st4" d="M119 181.2L89.8 344.3l10.5 3.6c7.9-21.2 14.2-40.2 19.2-57.2 2.4-8 3.3-15.6 5.1-22.7 2.1-8.4 5-16.2 6.5-23.2 7.7-37 7.1-55.6 7.1-55.6v-8H119z"/><path class="prefix__st11" d="M135.1 208.7l.7 9.3c-1.1 7.5-2.6 16.4-4.7 26.8-.7 3.4-1.7 6.9-2.8 10.6-1.3-23.7 4.1-52.6 4.1-52.6l2.7 5.9z"/><path class="prefix__st4" d="M130.5 183.6l4.5 169.3 11 .8c3-19.4 5.3-36.9 6.9-52.7 1-10.3.7-19.9 1.3-28.8 1-16.4 2.5-30.2 2.4-41.7-.2-28.2-1.8-31.3-2.8-41.7-.2-1.9 0-7.7 0-7.7h-23.3v2.5z"/><path class="prefix__st6" d="M156.5 230.6c.1 11.5-1.4 25.3-2.4 41.7-.6 8.9-.2 18.4-1.3 28.8-1.6 15.8-3.9 33.4-6.9 52.7l-11-.9-3-112.4c-.3 1.4-.6 2.8-.9 4.3-1.5 7.1-4.4 14.8-6.5 23.2-1.8 7.1-2.8 14.6-5.1 22.7-5 16.9-11.3 36-19.2 57.2l-10.5-3.6L119 181.2h34.7s-.2 5.8 0 7.7c1 10.4 2.6 13.5 2.8 41.7z"/><path class="prefix__st4" d="M147.5 350.8l-13.6-.8v4.3l12.8.9zM145 182.9c3-.1 5.4-.3 7.1-.5l.2 3.8c-1.8.2-4.2.4-7.2.5l-.1-3.8zM127.4 186.8V183c1.6.1 3.2.1 4.7.1l.2 3.8c-1.5 0-3.2 0-4.9-.1zM134.2 183.2c3.1 0 6 0 8.5-.1l.3 3.8c-2.3.1-4.8.1-7.5.1h-1.3v-3.8zM120.1 182.5c1.9.2 3.8.3 5.6.4v3.8c-2.1-.1-4.2-.3-6.4-.5l.8-3.7zM102.4 346.1l-12.9-3.9-1 4.2 12.2 3.7z"/><path class="prefix__st0" d="M74.3 132.5l5.9-.7c1.2-.1 2-1.2 1.9-2.3v-.3l-3.4-16c-.1-.6-.7-.9-1.2-.9l-7.2.9c-1.2.1-2 1.2-1.9 2.4v.3l3.1 14.6c.3 1.2 1.5 2.1 2.8 2z"/><path class="prefix__st12" d="M74.3 132.5l5.9-.7c1.2-.1 2-1.2 1.9-2.3v-.3l-3.4-16c-.1-.6-.7-.9-1.2-.9l-7.2.9c-1.2.1-2 1.2-1.9 2.4v.3l3.1 14.6c.3 1.2 1.5 2.1 2.8 2z"/><path class="prefix__st0" d="M74.1 132.8l5.8-.7c1.2-.1 2-1.2 1.9-2.4v-.3l-3.4-15.9c-.1-.6-.6-.9-1.2-.9l-7.2.9c-1.2.1-2 1.2-1.9 2.4v.3l3.1 14.6c.3 1.3 1.5 2.2 2.9 2z"/><path class="prefix__st8" d="M74.1 132.8l5.7-.7c1.2-.1 2.1-1.2 2-2.4v-.3l-3.3-15.8c-.1-.6-.7-1-1.3-.9l-7.1.9c-1.2.1-2.1 1.2-2 2.4v.2l3.1 14.5c.3 1.4 1.6 2.3 2.9 2.1z"/><path class="prefix__st7" d="M75.5 117.7l2.6-.3c.6 0 1-.5.9-1.1v-.2l-.5-2.6c-.1-.6-.7-1-1.3-.9l-2.7.3c-.6 0-1 .5-.9 1.1v.2l.5 2.5c.2.7.8 1.1 1.4 1z"/><path class="prefix__st4" d="M75.7 117.5l2.3-.3c.6 0 1-.5.9-1.1v-.2l-.5-2.3c-.1-.6-.7-1.1-1.3-1l-2.3.3c-.6 0-1 .5-.9 1.1v.2l.5 2.3c.1.6.7 1.1 1.3 1z"/><path d="M75.7 117.5l2.3-.3c.6 0 1-.5.9-1.1v-.2l-.5-2.3c-.1-.6-.7-1.1-1.3-1l-2.3.3c-.6 0-1 .5-.9 1.1v.2l.5 2.3c.1.6.7 1.1 1.3 1z" opacity=".1" fill="#fff"/><path class="prefix__st2" d="M73.8 123.2c.2.6.8 1.1 1.4 1 .6-.1 1-.6 1-1.2v-.1c-.2-.6-.8-1.1-1.4-1-.6.1-1 .6-1 1.2v.1z"/><path class="prefix__st15" d="M119.3 159.7c-1.2 1.8-7.3.6-7.3.6l-1.3-7.5 7.5 3 1.1 3.9z"/><path class="prefix__st15" d="M112.2 152.4l1.2 7.8-4.5.7c-.5 0-1-.3-1.1-.8l-1.7-5.6c-.1-.3.1-.5.4-.6l5.7-1.5z"/><path class="prefix__st15" d="M110.2 155.9l2.6.4 2.4-1.8-.9-.7c-.6-.5-1.1-1.1-1.2-1.9-.2-.8-.3-1.6-.3-2.4v-.3c-.1-.5-.4-.9-.9-.9l-.6.5c-.2.8-.3 1.7-.2 2.6l-.1 1.3-1 .4.2 2.8zM159.6 129.9l-15 20.7L117 156v4.5s26 1.9 31.8-1.5 15.6-24 15.6-24l-4.8-5.1z"/><path class="prefix__st4" d="M162.5 129.4c3.5 4.2 2.5 14.5-2.6 21.1l-12.4-7.3s7.3-12.3 11.3-14.7c1.7-1.1 2.4-.6 3.7.9z"/><path class="prefix__st0" d="M148 84.1c.9-1.9 2.5-3.5 4.4-4.4.4 1 .5 2 .4 3.1 1.7.4 3.1.6 4.8 1s3.8.9 4.4 2.6c-1.6 2.6-3.7 4.7-6.3 6.3-1.8-2-3.7-4.4-4.2-7l-.2.5c-1.1-.2-2.4-1.5-3.3-2.1z"/></g><g id="prefix__freepik--Icons--inject-1"><path class="prefix__st0" d="M192.3 48l-2.9 1.2h-.1l-1.9-2.6c-5.9-8.4-12.6-17.7-4.5-21.9 5.7-2.9 10.1 2.2 12.2 5.4 3.5-1.6 11.1-6.5 14.3 2.6 2.7 7.6-7.6 11.3-17.1 15.3z"/><path class="prefix__st8" d="M182.7 27.3c.5 0 .8.4.8.9s-.4.8-.9.8-.8-.4-.8-.9c.1-.4.4-.8.9-.8zM183.5 36.9c-1.7-1.9 1.5-6.1-1-7.1-2.1.4-1.2 4.8 1 7.1z"/><path class="prefix__st0" d="M178.5 62.7l-1.6.7-1-1.4c-3.2-4.6-6.9-9.7-2.4-11.9 3.1-1.6 5.5 1.2 6.7 2.9 1.9-.8 6.1-3.6 7.8 1.4 1.3 4.1-4.3 6.1-9.5 8.3z"/><path class="prefix__st8" d="M173.3 51.4c.3 0 .5.2.5.5v.1c-.1.2-.4.3-.6.2-.2-.1-.3-.4-.2-.6 0 0 .1-.1.3-.2zM173.7 56.7c-.9-1 .8-3.3-.5-3.9-1.2.2-.7 2.6.5 3.9z"/><g opacity=".4"><path class="prefix__st2" d="M192.3 48l-2.9 1.2h-.1l-1.9-2.6c-5.9-8.4-12.6-17.7-4.5-21.9 5.7-2.9 10.1 2.2 12.2 5.4 3.5-1.6 11.1-6.5 14.3 2.6 2.7 7.6-7.6 11.3-17.1 15.3z"/><path class="prefix__st8" d="M182.7 27.3c.5 0 .8.4.8.9s-.4.8-.9.8-.8-.4-.8-.9c.1-.4.4-.8.9-.8zM183.5 36.9c-1.7-1.9 1.5-6.1-1-7.1-2.1.4-1.2 4.8 1 7.1z"/><path class="prefix__st2" d="M178.5 62.7l-1.6.7-1-1.4c-3.2-4.6-6.9-9.7-2.4-11.9 3.1-1.6 5.5 1.2 6.7 2.9 1.9-.8 6.1-3.6 7.8 1.4 1.3 4.1-4.3 6.1-9.5 8.3z"/><path class="prefix__st8" d="M173.3 51.4c.3 0 .5.2.5.5v.1c-.1.2-.4.3-.6.2-.2-.1-.3-.4-.2-.6 0 0 .1-.1.3-.2zM173.7 56.7c-.9-1 .8-3.3-.5-3.9-1.2.2-.7 2.6.5 3.9z"/></g><path class="prefix__st0" d="M86.4 229.4l5.4 16.1c.6 1.6 2.3 2.6 4 2.1l3.6-1c1.6-.5 2.5-2.1 2-3.7v-.1L96 226.7c-.6-1.6-2.3-2.6-4-2.1l-3.6 1c-1.6.5-2.5 2.1-2 3.7v.1z"/><path class="prefix__st8" d="M86.4 229.4l5.4 16.1c.6 1.6 2.3 2.6 4 2.1l3.6-1c1.6-.5 2.5-2.1 2-3.7v-.1L96 226.7c-.6-1.6-2.3-2.6-4-2.1l-3.6 1c-1.6.5-2.5 2.1-2 3.7v.1z"/><path class="prefix__st0" d="M59 237.1l7.1 13.3c.4.7 1 1.3 1.7 1.8l1.8 1.1c1.1.7 2.5.9 3.8.6l14.5-4c2-.5 3.1-2.5 2.6-4.5 0-.1-.1-.2-.1-.3l-5-15.1c-.4-1.1-1-2-1.9-2.6l-9-6.6-2.2-6.6-4.1 1.1c-1.8.5-2.9 2.2-2.6 4l.7 4.4c.1.7.4 1.3.8 1.8l3.8 4.8-10.4 2.9-1.5 3.9z"/><path class="prefix__st8" d="M59 237.1l7.1 13.3c.4.7 1 1.3 1.7 1.8l1.8 1.1c1.1.7 2.5.9 3.8.6l14.5-4c2-.5 3.1-2.5 2.6-4.5 0-.1-.1-.2-.1-.3l-5-15.1c-.4-1.1-1-2-1.9-2.6l-9-6.6-2.2-6.6-4.1 1.1c-1.8.5-2.9 2.2-2.6 4l.7 4.4c.1.7.4 1.3.8 1.8l3.8 4.8-10.4 2.9-1.5 3.9z"/><path class="prefix__st0" d="M41.2 262.2l-3.9-11.7c-.4-1.2-1.7-1.9-2.9-1.6l-2.6.7c-1.1.3-1.8 1.5-1.5 2.6v.2l3.9 11.7c.4 1.2 1.7 1.9 2.9 1.6l2.6-.7c1.1-.3 1.8-1.5 1.5-2.6.1-.1 0-.2 0-.2z"/><path class="prefix__st8" d="M41.2 262.2l-3.9-11.7c-.4-1.2-1.7-1.9-2.9-1.6l-2.6.7c-1.1.3-1.8 1.5-1.5 2.6v.2l3.9 11.7c.4 1.2 1.7 1.9 2.9 1.6l2.6-.7c1.1-.3 1.8-1.5 1.5-2.6.1-.1 0-.2 0-.2z"/><path class="prefix__st0" d="M61.1 256.5l-5.1-9.6c-.3-.5-.7-1-1.2-1.3l-1.3-.8c-.8-.5-1.8-.7-2.8-.4l-10.6 2.9c-1.4.4-2.3 1.8-1.9 3.2 0 .1 0 .1.1.2l3.6 10.9c.3.8.7 1.4 1.4 1.9l6.5 4.8 1.6 4.8 3-.8c1.3-.3 2.1-1.6 1.9-2.9l-.5-3.2c-.1-.5-.3-.9-.6-1.3l-2.8-3.5 7.5-2.1 1.2-2.8z"/><path class="prefix__st0" d="M61.1 256.5l-5.1-9.6c-.3-.5-.7-1-1.2-1.3l-1.3-.8c-.8-.5-1.8-.7-2.8-.4l-10.6 2.9c-1.4.4-2.3 1.8-1.9 3.2 0 .1 0 .1.1.2l3.6 10.9c.3.8.7 1.4 1.4 1.9l6.5 4.8 1.6 4.8 3-.8c1.3-.3 2.1-1.6 1.9-2.9l-.5-3.2c-.1-.5-.3-.9-.6-1.3l-2.8-3.5 7.5-2.1 1.2-2.8z"/><g class="prefix__st19"><path class="prefix__st2" d="M86.4 229.4l5.4 16.1c.6 1.6 2.3 2.6 4 2.1l3.6-1c1.6-.5 2.5-2.1 2-3.7v-.1L96 226.7c-.6-1.6-2.3-2.6-4-2.1l-3.6 1c-1.6.5-2.5 2.1-2 3.7v.1zM41.2 262.2l-3.9-11.7c-.4-1.2-1.7-1.9-2.9-1.6l-2.6.7c-1.1.3-1.8 1.5-1.5 2.6v.2l3.9 11.7c.4 1.2 1.7 1.9 2.9 1.6l2.6-.7c1.1-.3 1.8-1.5 1.5-2.6.1-.1 0-.2 0-.2zM61.1 256.5l-5.1-9.6c-.3-.5-.7-1-1.2-1.3l-1.3-.8c-.8-.5-1.8-.7-2.8-.4l-10.6 2.9c-1.4.4-2.3 1.8-1.9 3.2 0 .1 0 .1.1.2l3.6 10.9c.3.8.7 1.4 1.4 1.9l6.5 4.8 1.6 4.8 3-.8c1.3-.3 2.1-1.6 1.9-2.9l-.5-3.2c-.1-.5-.3-.9-.6-1.3l-2.8-3.5 7.5-2.1 1.2-2.8z"/><path class="prefix__st2" d="M61.1 256.5l-5.1-9.6c-.3-.5-.7-1-1.2-1.3l-1.3-.8c-.8-.5-1.8-.7-2.8-.4l-10.6 2.9c-1.4.4-2.3 1.8-1.9 3.2 0 .1 0 .1.1.2l3.6 10.9c.3.8.7 1.4 1.4 1.9l6.5 4.8 1.6 4.8 3-.8c1.3-.3 2.1-1.6 1.9-2.9l-.5-3.2c-.1-.5-.3-.9-.6-1.3l-2.8-3.5 7.5-2.1 1.2-2.8z"/></g><path class="prefix__st4" d="M266.7 78zM267.1 78.4l-.5-.4c.3 0 .4.2.5.4zM266.3 77.9h.3-.3zM266.4 81.6l-1.3-2.1-1.2-2h.2c.2.1.4.2.5.4l.6 1.2 1.2 2.5zM257.5 112.7l-3.6 1.9-1.4.7c-.1.1-.2.1-.4.1l2.1-4.7.2.1 3.1 1.9z"/><path class="prefix__st0" d="M283.5 92.8l-3.1 3-5.8 5.7c-.2.2-.3.5-.2.7l1.5 8.8.6 3.4c.1.4-.2.9-.7 1-.2 0-.4 0-.5-.1l-.6-.3-4-2.1-3-1.6h-.1l-1.8-.9-1.6-.8c-.2-.1-.5-.1-.8 0l-2.8 1.4-2.6 1.4-.6.3-1.2.6-2.4 1.3-1.4.7c-.1.1-.2.1-.4.1-.5 0-.8-.3-.9-.8v-.2l.1-.7 2-11.5c0-.3 0-.5-.2-.7l-8.9-8.7c-.3-.3-.3-.8 0-1.2.1-.1.3-.2.5-.2l12.3-1.8c.3 0 .5-.2.6-.4L263 78c0-.1.1-.2.2-.2.1-.1.2-.2.4-.2h.5c.2.1.4.2.5.4l.6 1.2.7 1.5.4.9 1.1 2.3.8 1.6 1.8 3.6c.1.2.4.4.6.4l7.2 1.1 3.8.6 1.3.2c.5.1.8.5.7.9.2.2.1.4-.1.5z"/><path class="prefix__st0" d="M286 93.2l-6.8 6.6-2.1 2.1c-.2.2-.3.5-.2.7l.5 3.5 1.3 9.6c.1.4-.2.9-.7 1-.2 0-.4 0-.5-.1l-2.8-1.5-4-2.1-3-1.6 3 1.6 4 2.1.6.3c.4.2.9.1 1.1-.3.1-.2.1-.3.1-.5l-.6-3.4-1.5-8.8c0-.3 0-.5.2-.7l5.8-5.7 3.1-3c.3-.3.3-.8 0-1.2-.1-.1-.3-.2-.5-.2l-1.3-.2-3.8-.6-7.2-1.1c-.3 0-.5-.2-.6-.4l-1.8-3.6-.8-1.6-1.1-2.3-.4-.9-.7-1.5-.6-1.2c-.1-.2-.3-.4-.5-.4l2.2.3h.3l.1.1.4.3 1.3 2.7.2.5.5 1 3.4 7c.1.2.4.4.6.4l4.7.7 3.8.6 3.8.6c.5.1.8.5.7.9 0-.1-.1.1-.2.3zM265.8 110.4l-5.8 3.1-2.8 1.4-1.7.9c-.3.1-.6.1-.8 0l-2.5-.4c.1 0 .2 0 .4-.1l1.4-.7 2.4-1.3 1.2-.6.6-.3 2.6-1.4 2.8-1.4c.2-.1.5-.1.8 0l1.4.8z"/><path class="prefix__st7" d="M286 93.2l-6.8 6.6-2.1 2.1c-.2.2-.3.5-.2.7l.5 3.5 1.3 9.6c.1.4-.2.9-.7 1-.2 0-.4 0-.5-.1l-2.8-1.5-4-2.1-3-1.6 3 1.6 4 2.1.6.3c.4.2.9.1 1.1-.3.1-.2.1-.3.1-.5l-.6-3.4-1.5-8.8c0-.3 0-.5.2-.7l5.8-5.7 3.1-3c.3-.3.3-.8 0-1.2-.1-.1-.3-.2-.5-.2l-1.3-.2-3.8-.6-7.2-1.1c-.3 0-.5-.2-.6-.4l-1.8-3.6-.8-1.6-1.1-2.3-.4-.9-.7-1.5-.6-1.2c-.1-.2-.3-.4-.5-.4l2.2.3h.3l.1.1.4.3 1.3 2.7.2.5.5 1 3.4 7c.1.2.4.4.6.4l4.7.7 3.8.6 3.8.6c.5.1.8.5.7.9 0-.1-.1.1-.2.3zM265.8 110.4l-5.8 3.1-2.8 1.4-1.7.9c-.3.1-.6.1-.8 0l-2.5-.4c.1 0 .2 0 .4-.1l1.4-.7 2.4-1.3 1.2-.6.6-.3 2.6-1.4 2.8-1.4c.2-.1.5-.1.8 0l1.4.8z"/><path class="prefix__st5" d="M266 80.7v.1l-9.4 31.3-.4 1.2-2.4 1.3-1.4.7c-.1.1-.2.1-.4.1-.5 0-.8-.3-.9-.8v-.2l.1-.7 11.9-36c.1-.1.2-.2.4-.2h.4c.2.1.4.2.5.4l.6 1.2 1 1.6z"/><path class="prefix__st6" d="M268.3 85.5l-7.6 25.5-2.6 1.4 9.4-28.5z"/><g class="prefix__st19"><path class="prefix__st2" d="M266.7 77.8zM267.1 78.2l-.5-.4c.3.1.4.2.5.4zM266.3 77.8h.3-.3zM266.4 81.5l-1.3-2.1-1.2-2h.2c.2.1.4.2.5.4l.6 1.2 1.2 2.5z"/></g><path class="prefix__st5" d="M283.6 92.6l-3.1 3-5.8 5.7c-.2.2-.3.5-.2.7l1.5 8.8.6 3.4c.1.4-.2.9-.7 1-.2 0-.4 0-.5-.1l-.6-.3-4-2.1-3-1.6h-.1l-1.8-.9-1.6-.8c-.2-.1-.5-.1-.8 0l-2.8 1.4-2.7 1.4-.6.3-1.2.7-2.4 1.3-1.4.7c-.1.1-.2.1-.4.1-.5 0-.8-.3-.9-.8v-.2l.1-.7 2-11.5c0-.3 0-.5-.2-.7l-8.9-8.7c-.3-.3-.3-.8 0-1.2.1-.1.3-.2.5-.2l12.3-1.8c.3 0 .5-.2.6-.5l5.5-11.2c0-.1.1-.2.2-.2.1-.1.2-.2.4-.2h.5c.2.1.4.2.5.4l.6 1.2.7 1.5.4.9 1.1 2.3.8 1.6 1.8 3.6c.1.2.4.4.6.5l7.2 1.1 3.8.6 1.3.2c.5 0 .8.5.7.9.2.1.1.3 0 .4z"/><path class="prefix__st4" d="M310.3 77.7zM310.5 78l-.3-.2c.2-.1.3 0 .3.2zM310.1 77.7h.2-.2zM310.1 79.9l-.8-1.2-.7-1.2h.1c.1 0 .2.1.3.2l.4.7.7 1.5zM304.8 98.4l-2.2 1.1-.8.4c-.1 0-.1 0-.2.1l1.3-2.8.1.1 1.8 1.1z"/><path class="prefix__st0" d="M320.3 86.5l-1.8 1.8-3.4 3.4c-.1.1-.2.3-.1.4l.9 5.2.4 2c0 .3-.1.5-.4.6h-.3l-.4-.2-2.4-1.3-1.8-.9-1-.6-.9-.5c-.1-.1-.3-.1-.5 0l-1.6.9-1.6.8-.4.2-.8.4-1.4.8-.8.4c-.1 0-.1 0-.2.1-.3 0-.5-.2-.5-.5v-.1l.1-.4 1.2-6.9c0-.2 0-.3-.1-.4l-5.3-5.2c-.2-.2-.2-.5 0-.7.1-.1.2-.1.3-.1l7.3-1.1c.2 0 .3-.1.4-.3l3.3-6.6.1-.1c.1-.1.1-.1.2-.1h.2c.1 0 .2.1.3.2l.4.7.4.9.3.5.7 1.3.5 1 1.1 2.2c.1.1.2.3.4.3l4.3.6 2.3.3.8.1c.3.1.4.3.4.6-.5.2-.6.3-.6.3z"/><path class="prefix__st0" d="M321.8 86.7l-4 3.9-1.2 1.2c-.1.1-.2.3-.1.4l.3 2.1.8 5.7c0 .3-.1.5-.4.6h-.3l-1.6-.9-2.4-1.3-1.8-.9 1.8.9 2.4 1.3.4.2c.2.1.5 0 .7-.2.1-.1.1-.2 0-.3l-.4-2-.9-5.2c0-.2 0-.3.1-.4l3.5-3.4 1.8-1.8c.2-.2.2-.5 0-.7-.1-.1-.2-.1-.3-.1l-.8-.1-2.3-.3-4.3-.6c-.2 0-.3-.1-.4-.3l-1.1-2.2-.5-1-.7-1.3-.3-.5-.4-.9-.4-.7c-.1-.1-.2-.2-.3-.2l1.3.2h.2l.2.2.8 1.6.1.3.3.6 2 4.1c.1.1.2.2.4.3l2.8.4 2.2.3 2.2.3c.3 0 .5.3.4.5.3 0 .3.2.2.2zM309.8 97l-3.5 1.8-1.6.9-1 .5c-.2.1-.3.1-.5 0l-1.5-.2c.1 0 .1 0 .2-.1l.8-.4 1.4-.8.8-.4.4-.2 1.6-.8 1.6-.9c.1-.1.3-.1.5 0l.8.6z"/><path class="prefix__st7" d="M321.8 86.7l-4 3.9-1.2 1.2c-.1.1-.2.3-.1.4l.3 2.1.8 5.7c0 .3-.1.5-.4.6h-.3l-1.6-.9-2.4-1.3-1.8-.9 1.8.9 2.4 1.3.4.2c.2.1.5 0 .7-.2.1-.1.1-.2 0-.3l-.4-2-.9-5.2c0-.2 0-.3.1-.4l3.5-3.4 1.8-1.8c.2-.2.2-.5 0-.7-.1-.1-.2-.1-.3-.1l-.8-.1-2.3-.3-4.3-.6c-.2 0-.3-.1-.4-.3l-1.1-2.2-.5-1-.7-1.3-.3-.5-.4-.9-.4-.7c-.1-.1-.2-.2-.3-.2l1.3.2h.2l.2.2.8 1.6.1.3.3.6 2 4.1c.1.1.2.2.4.3l2.8.4 2.2.3 2.2.3c.3 0 .5.3.4.5.3 0 .3.2.2.2zM309.8 97l-3.5 1.8-1.6.9-1 .5c-.2.1-.3.1-.5 0l-1.5-.2c.1 0 .1 0 .2-.1l.8-.4 1.4-.8.8-.4.4-.2 1.6-.8 1.6-.9c.1-.1.3-.1.5 0l.8.6z"/><path class="prefix__st5" d="M309.8 79.3L304.3 98l-.2.7-1.4.8-.8.4c-.1 0-.1 0-.2.1-.3 0-.5-.2-.5-.5v-.1l.1-.4 7.1-21.4c.1-.1.1-.1.2-.1h.2c.1 0 .2.1.3.2l.4.7.3.9z"/><path class="prefix__st6" d="M311.2 82.2l-4.5 15.2-1.6.8 5.7-17z"/><g class="prefix__st19"><path class="prefix__st2" d="M310.3 77.6zM310.5 77.9l-.3-.2c.2 0 .3 0 .3.2zM310.1 77.6h.2-.2zM310.1 79.8l-.8-1.2-.7-1.2h.1c.1 0 .2.1.3.2l.4.7.7 1.5z"/></g><path class="prefix__st5" d="M320.3 86.4l-1.9 1.8-3.4 3.4c-.1.1-.2.3-.1.4l.9 5.2.4 2c0 .3-.1.5-.4.6h-.3l-.3-.2-2.4-1.3-1.8-.9-1-.6-.9-.5c-.1-.1-.3-.1-.5 0l-1.6.9-1.6.8-.4.2-.7.4-1.4.8-.8.4c-.1 0-.1.1-.2.1-.3 0-.5-.2-.5-.5v-.1l.1-.4 1.2-6.9c0-.2 0-.3-.1-.4l-5.3-5.2c-.2-.2-.2-.5 0-.7.1-.1.2-.1.3-.1l7.3-1.1c.2 0 .3-.1.4-.3l3.3-6.6.1-.1c.1-.1.1-.1.2-.1h.2c.1 0 .2.1.3.2l.4.7.4.9.3.5.7 1.3.5 1 1.1 2.2c.1.1.2.2.4.3l4.2.7 2.2.3.8.1c.3 0 .4.3.4.6-.4.1-.5.1-.5.2z"/><path class="prefix__st4" d="M301.9 109.1zM302.1 109.3l-.3-.2c.2 0 .3.1.3.2zM301.7 109.1h.2-.2zM301.7 111.2l-.7-1.2-.7-1.1h.1c.1 0 .2.1.3.2l.4.7.6 1.4zM296.6 129.2l-2.1 1.1-.8.4c-.1 0-.1.1-.2.1l1.2-2.7.1.1 1.8 1z"/><path class="prefix__st0" d="M311.6 117.7l-1.8 1.8-3.4 3.3c-.1.1-.2.3-.1.4l.9 5.1.3 2c0 .3-.1.5-.4.6-.1 0-.2 0-.3-.1l-.3-.2-2.3-1.2-1.7-.9-1-.5-.9-.5c-.1-.1-.3-.1-.4 0l-1.6.8-1.5.8-.4.2-.7.4-1.4.7-.8.4c-.1 0-.1.1-.2.1-.3 0-.5-.2-.5-.5v-.1l.1-.4 1.1-6.7c0-.2 0-.3-.1-.4l-5.1-5c-.2-.2-.2-.5 0-.7.1-.1.2-.1.3-.1l7.1-1c.2 0 .3-.1.4-.3l3.2-6.4.1-.1c.1-.1.1-.1.2-.1h.2c.1 0 .2.1.3.2l.4.7.4.9.3.5.6 1.3.5 1 1 2.1c.1.1.2.2.4.3l4.2.6 2.2.3.7.1c.3.1.4.3.3.6-.3-.1-.3 0-.3 0z"/><path class="prefix__st0" d="M313.1 117.9l-3.9 3.8-1.2 1.2c-.1.1-.2.3-.1.4l.3 2 .8 5.5c0 .3-.1.5-.4.6-.1 0-.2 0-.3-.1l-1.6-.9-2.3-1.2-1.7-.9 1.7.9 2.3 1.2.3.2c.2.1.5 0 .6-.2.1-.1.1-.2.1-.3l-.3-2-.9-5.1c0-.2 0-.3.1-.4l3.4-3.3 1.8-1.8c.2-.2.2-.5 0-.7-.1-.1-.2-.1-.3-.1l-.7-.1-2.2-.3-4.2-.6c-.2 0-.3-.1-.4-.3l-1-2.1-.5-1-.6-1.3-.3-.5-.4-.9-.4-.7c-.1-.1-.2-.2-.3-.2l1.3.2h.2l.2.2.8 1.6.1.3.3.6 2 4c.1.1.2.2.4.3l2.7.4 2.2.3 2.2.3c.3-.1.6.1.6.4 0 .3-.2.5-.4.6zM301.4 127.9l-3.4 1.8-1.6.8-1 .5c-.2.1-.3.1-.5 0l-1.5-.2c.1 0 .1 0 .2-.1l.8-.4 1.4-.7.7-.4.4-.2 1.5-.8 1.6-.8c.1-.1.3-.1.4 0l1 .5z"/><path class="prefix__st7" d="M313.1 117.9l-3.9 3.8-1.2 1.2c-.1.1-.2.3-.1.4l.3 2 .8 5.5c0 .3-.1.5-.4.6-.1 0-.2 0-.3-.1l-1.6-.9-2.3-1.2-1.7-.9 1.7.9 2.3 1.2.3.2c.2.1.5 0 .6-.2.1-.1.1-.2.1-.3l-.3-2-.9-5.1c0-.2 0-.3.1-.4l3.4-3.3 1.8-1.8c.2-.2.2-.5 0-.7-.1-.1-.2-.1-.3-.1l-.7-.1-2.2-.3-4.2-.6c-.2 0-.3-.1-.4-.3l-1-2.1-.5-1-.6-1.3-.3-.5-.4-.9-.4-.7c-.1-.1-.2-.2-.3-.2l1.3.2h.2l.2.2.8 1.6.1.3.3.6 2 4c.1.1.2.2.4.3l2.7.4 2.2.3 2.2.3c.3-.1.6.1.6.4 0 .3-.2.5-.4.6zM301.4 127.9l-3.4 1.8-1.6.8-1 .5c-.2.1-.3.1-.5 0l-1.5-.2c.1 0 .1 0 .2-.1l.8-.4 1.4-.7.7-.4.4-.2 1.5-.8 1.6-.8c.1-.1.3-.1.4 0l1 .5z"/><path class="prefix__st5" d="M301.5 110.7l-5.4 18.2-.2.7-1.4.7-.8.4c-.1 0-.1.1-.2.1-.3 0-.5-.2-.5-.5v-.1l.1-.4L300 109c.1-.1.1-.1.2-.1h.2c.1 0 .2.1.3.2l.4.7.4.9z"/><path class="prefix__st6" d="M302.8 113.5l-4.4 14.7-1.5.8 5.5-16.5z"/><g class="prefix__st19"><path class="prefix__st2" d="M301.9 109zM302.1 109.3l-.3-.2c.2 0 .3.1.3.2zM301.7 109h.2-.2zM301.7 111.2l-.8-1.2-.7-1.1h.1c.1 0 .2.1.3.2l.4.7.7 1.4z"/></g><path class="prefix__st5" d="M311.6 117.6l-1.8 1.8-3.4 3.3c-.1.1-.2.3-.1.4l.9 5.1.3 2c0 .3-.1.5-.4.6-.1 0-.2 0-.3-.1l-.3-.2-2.3-1.3-1.7-.9-1-.5-.9-.5c-.1-.1-.3-.1-.4 0l-1.6.8-1.5.8-.3.2-.7.4-1.4.7-.8.4c-.1 0-.1.1-.2.1-.3 0-.5-.2-.5-.5v-.1l.1-.4 1.1-6.7c0-.2 0-.3-.1-.4l-5.1-5c-.2-.2-.2-.5 0-.7.1-.1.2-.1.3-.1l7.1-1c.2 0 .3-.1.4-.3l3.2-6.4.1-.1c.1-.1.1-.1.2-.1h.2c.1 0 .2.1.3.2l.4.7.4.9.3.5.6 1.3.5.9 1 2.1c.1.1.2.2.4.3l4.2.6 2.2.3.7.1c.3.1.4.3.4.6-.4 0-.4.1-.5.2z"/></g></svg>