<svg version="1.1" id="prefix__Layer_1" xmlns="http://www.w3.org/2000/svg" x="0" y="0" viewBox="0 0 400 400" xml:space="preserve"><style>.prefix__st0{fill:#fde24f}.prefix__st3{fill:#fff}.prefix__st4{opacity:.6;fill:#fde24f;enable-background:new}.prefix__st5{fill:#263238}.prefix__st6{fill:#ff8b7b}.prefix__st8,.prefix__st9{opacity:.2;enable-background:new}.prefix__st9{opacity:.4}</style><g id="prefix__freepik--background-simple--inject-1"><path class="prefix__st0" d="M364.1 134.5c-6.8 54.2-54.3 108.4-106.5 143.2C122.5 368.6-8 214.5 25 159.1c24.7-56.1 101.8-40.7 134.6-62.8 184.2-124.9 210.9-7.1 204.5 38.2z"/><path d="M364.1 134.5c-6.8 54.2-54.3 108.4-106.5 143.2C122.5 368.6-8 214.5 25 159.1c24.7-56.1 101.8-40.7 134.6-62.8 184.2-124.9 210.9-7.1 204.5 38.2z" opacity=".9" fill="#fff"/></g><g id="prefix__freepik--Login--inject-1"><path class="prefix__st0" d="M212.2 321.3h-142L62.4 92.9h142z"/><path class="prefix__st0" d="M219.3 314.2h-142L69.5 85.8h142z"/><path opacity=".3" fill="#fff" d="M219.3 314.2h-142L69.5 85.8h142z"/><ellipse transform="rotate(-45.49 142.738 151.302)" class="prefix__st0" cx="142.7" cy="151.3" rx="39.3" ry="40.6"/><path class="prefix__st3" d="M175.7 151.3c.2 5.4-1 10.8-3.4 15.7-5.4 10.7-16.4 17.4-28.4 17.3-12.2-.1-23.5-6.6-29.6-17.3-2.8-4.8-4.3-10.2-4.5-15.7-.8-17.5 12.8-32.2 30.2-33h1.6c18.4.1 33.4 14.7 34.1 33z"/><path class="prefix__st4" d="M172.2 167c-5.4 10.7-16.4 17.4-28.4 17.3-12.2-.1-23.5-6.6-29.6-17.3 8.5-5.8 18.5-8.8 28.7-8.8 10.5 0 20.6 3.1 29.3 8.8z"/><ellipse transform="rotate(-45.49 142.357 140.015)" class="prefix__st4" cx="142.4" cy="140" rx="14.4" ry="14.9"/><path class="prefix__st3" d="M190.8 231.5h-90.6l-.6-18h90.5zM191.9 263.6h-90.6l-.6-18h90.5z"/><path class="prefix__st0" d="M156.9 248.1l-21.8 3c-.8.1-1.4.8-1.3 1.7v.1l2.9 14.6c.2.9 1 1.5 1.9 1.4l21.8-3c.8-.1 1.4-.9 1.3-1.7v-.1l-2.9-14.6c-.2-.9-1-1.5-1.9-1.4zm-6.3 14.8l-4 .5-.4-4.7c-.8-.4-1.4-1.1-1.6-2-.3-1.3.6-2.7 1.9-3h.3c1.5-.2 2.8.8 3.2 2.2.2.9-.1 1.7-.8 2.3l1.4 4.7zM154.7 247.3c-.8.1-1.5-.4-1.7-1.2l-.3-1.4c-.8-4-4.5-6.8-8.6-6.6-3.9.2-6.8 3.5-6.6 7.4 0 .3.1.7.1 1l.3 1.6c.1.7-.3 1.4-1 1.6h-.1c-.8.1-1.6-.4-1.7-1.2l-.3-1.4c-1.1-5.3 2.3-10.5 7.6-11.7.1 0 .3-.1.4-.1 5.9-1 11.5 2.8 12.8 8.7l.3 1.6c.1.7-.3 1.4-1 1.6-.1.1-.1.1-.2.1zM176.9 288.9h-59l-.4-11.8h59z"/><path class="prefix__st5" d="M148.5 222.5c.1 1.7-1.3 3.2-3 3.3h-.2c-1.8 0-3.3-1.5-3.4-3.3-.1-1.7 1.3-3.2 3-3.3h.2c1.8 0 3.3 1.4 3.4 3.3zM134.2 222.5c.1 1.7-1.3 3.2-3 3.3h-.2c-1.8 0-3.3-1.5-3.4-3.3-.1-1.7 1.3-3.2 3-3.3h.2c1.9 0 3.4 1.4 3.4 3.3zM120.1 222.5c.1 1.7-1.3 3.2-3 3.3h-.2c-1.8 0-3.3-1.5-3.4-3.3-.1-1.7 1.3-3.2 3-3.3h.2c1.8 0 3.3 1.4 3.4 3.3zM162.6 222.5c.1 1.7-1.3 3.2-3 3.3h-.2c-1.8 0-3.3-1.5-3.4-3.3-.1-1.7 1.3-3.2 3-3.3h.2c1.9 0 3.3 1.5 3.4 3.3zM176.8 222.5c.1 1.7-1.3 3.2-3 3.3h-.2c-1.8 0-3.3-1.5-3.4-3.3-.1-1.7 1.3-3.2 3-3.3h.2c1.8 0 3.3 1.4 3.4 3.3z"/></g><g id="prefix__freepik--Character--inject-1"><path class="prefix__st6" d="M296.1 134.5c1.3 2.1 2.4 4.2 3.6 6.3s2.2 4.3 3.2 6.5c2.1 4.4 3.8 9 5.1 13.7.2.6.3 1.2.5 1.8l.2.9.1.5.1.8c.2 1.7.1 3.5-.3 5.2-.7 2.6-1.7 5.1-3.1 7.5-2.5 4.2-5.5 8.1-8.9 11.6l-4.2-3.2c2.1-3.9 4-7.9 5.6-12 .7-1.8 1.2-3.7 1.5-5.6.1-.6.1-1.2-.1-1.8l-.4-1.2c-.2-.5-.3-1-.5-1.5-1.5-4.1-3.3-8.2-5.3-12.1-2-4-4.1-8-6.3-11.8l9.2-5.6z"/><path class="prefix__st6" d="M293.5 184.6l-4.6 2.4 5.3 6.2s3.3-2.2 3.5-5.6l-4.2-3zM282.7 190.9l5.7 4.5 5.8-2.1-5.3-6.2z"/><path class="prefix__st5" d="M263.4 101.8c-.1.6-.5.9-.9.9s-.6-.6-.5-1.1.5-1 .9-.9.6.5.5 1.1z"/><path d="M262.9 102.7c-1 1.6-2.2 3-3.6 4.2.7.7 1.6 1.1 2.6 1l1-5.2z" fill="#ff5652"/><path class="prefix__st6" d="M261.1 122.4v-6.6l8.7 1s-.1 5.6-5 7.3l-3.7-1.7zM263.6 111.1l6.1 1.7.2 4-8.7-1z"/><path class="prefix__st8" d="M269.7 112.8l-6.1-1.8-1.2 2.3c.1 3.7 2.3 6.9 5.6 8.5 1-1.5 1.7-3.2 1.8-5l-.1-4z"/><path class="prefix__st5" d="M266 99.1c.2 0 .3-.2.3-.3 0-.1 0-.2-.1-.2-.7-.8-1.8-1.2-2.8-1.1-.2 0-.3.2-.3.4s.2.3.4.3c.8-.1 1.7.2 2.2.9h.3z"/><path class="prefix__st6" d="M278.8 111.9c-1 5.1-1.6 12.3 2 15.7 0 0-1.4 5.2-11 5.2-10.5 0-5-4.6-5-4.6 4.4-1.4 4.3-6.3 3.3-10.3l10.7-6z"/><path class="prefix__st0" d="M282.8 131c.9-1.3.9-5.5-.1-6.2-1.6-1.2-8.5-1.5-17.8.7 1 4.1-1.1 6.2-1.1 6.2l19-.7zM314 368.5c-.6.2-1.2.2-1.8-.1-.2-.2-.3-.5-.2-.8.1-.2.2-.4.4-.5 1-.5 3.1.4 3.2.5.1 0 .1.1.1.1 0 .1 0 .1-.1.2-.4.2-1 .4-1.6.6zm-1.1-1.2c-.1 0-.1 0-.2.1-.1 0-.2.2-.3.3-.1.3 0 .4.1.4.4.3 1.8 0 2.8-.4-.8-.3-1.6-.4-2.4-.4z"/><path class="prefix__st0" d="M315.7 367.9c-.9-.2-2.6-1.4-2.6-2.2 0-.3.2-.5.4-.5.2-.1.5-.1.7.1.9.5 1.5 2.4 1.6 2.5v.2c0-.1 0-.1-.1-.1zm-2-2.5c-.3.1-.3.2-.3.2 0 .5 1.1 1.4 2 1.8-.2-.6-.7-1.7-1.3-2-.1 0-.2-.1-.4 0zM262.1 369.6c-.9 0-1.8-.1-2.1-.5-.2-.2-.2-.5 0-.7.1-.2.3-.3.5-.4 1.2-.3 3.6 1.1 3.7 1.1.1 0 .1.1.1.2s-.1.1-.1.1c-.7.2-1.4.2-2.1.2zm-1.1-1.3h-.3c-.1 0-.3.1-.3.2-.1.2-.1.3 0 .4.3.5 2.1.5 3.4.3-.9-.5-1.8-.8-2.8-.9z"/><path class="prefix__st0" d="M264.2 369.4c-.9-.4-2.6-1.9-2.5-2.7 0-.2.2-.4.6-.5.3 0 .7.1.9.3.6.8 1 1.7 1.1 2.7 0 .1 0 .1-.1.1.1.1.1.1 0 .1zm-1.7-2.8h-.1c-.3 0-.3.1-.3.2-.1.5 1.1 1.7 1.9 2.2-.1-.8-.4-1.6-.9-2.2-.2-.1-.4-.2-.6-.2z"/><path class="prefix__st6" d="M272 369.3h-7.1l-.7-16.3h7.1zM323.6 366l-6.9 1.5-6.9-15.2 6.9-1.5z"/><path class="prefix__st5" d="M316 366.8l7.7-1.7c.3-.1.6.1.7.3l2.7 5.8c.2.5.1 1.1-.4 1.3-.1 0-.2.1-.3.1-2.7.5-4 .7-7.4 1.4-2.1.5-6.8 1.6-9.7 2.2s-3.9-2.1-2.8-2.7c5-2.3 7.1-4.3 8.5-6.2.3-.2.6-.4 1-.5zM265 368.5h7.7c.3 0 .5.2.6.5l1.4 6.2c.1.5-.2 1.1-.7 1.2h-.3c-2.8 0-6.8-.2-10.2-.2-4.1 0-7.6.2-12.4.2-2.9 0-3.7-2.9-2.5-3.2 5.5-1.2 10-1.3 14.8-4.3.4-.2 1-.4 1.6-.4z"/><path class="prefix__st0" d="M293.4 129.2c6.6 1.5 12 18.3 12 18.3l-13.2 10.1c-3.4-3.7-5.8-8.1-7-13-2.3-8.8 1.5-16.9 8.2-15.4z"/><path class="prefix__st9" d="M293.4 129.2c6.6 1.5 12 18.3 12 18.3l-13.2 10.1c-3.4-3.7-5.8-8.1-7-13-2.3-8.8 1.5-16.9 8.2-15.4z"/><path class="prefix__st6" d="M258.7 149.3c-1.6 1.8-3.3 3.4-5 5-.9.8-1.7 1.6-2.6 2.4l-1.3 1.2-.3.3-.6.5c-.6.5-1.2.9-1.9 1.1-.8.3-1.6.5-2.4.5-.7 0-1.4-.1-2.1-.4-.7-.3-1.4-.7-2-1.3-.7-.7-1.3-1.6-1.6-2.6-.2-.5-.2-1-.3-1.5-.1-.6-.1-1.2 0-1.8 0-.5.1-.9.2-1.3.3-1.4.7-2.7 1.2-4 .4-1.2 1-2.4 1.5-3.6.6-1.3 1.2-2.2 1.9-3.3 2.5-4.1 5.3-7.9 8.5-11.5 3.1-3.5 6.5-6.8 10.2-9.7l3.7 3.8c-2.6 3.5-5.1 7.2-7.5 10.8-2.3 3.6-4.5 7.4-6.4 11.2-.4.9-1 2-1.3 2.8-.4.9-.7 1.8-.9 2.7-.3.8-.4 1.7-.6 2.5V153.4c0-.2-.1-.4-.1-.7-.2-.7-.6-1.3-1.1-1.9-.5-.4-1-.8-1.6-1-.5-.2-1.1-.3-1.7-.3-.6 0-1.1.1-1.6.3-.2.1-.3.2-.5.2l.4-.4 1.2-1.1 2.4-2.2c1.6-1.5 3.2-3.1 4.7-4.6l7.5 7.6z"/><path class="prefix__st8" d="M287.8 141.6c3.6 3.5 4.8 10 5 15.6l-.6.5c-3.4-3.7-5.8-8.1-7-13-.1-.5-.2-1-.3-1.6l2.9-1.5z"/><path class="prefix__st0" d="M251.7 136.2c-1.4 7.6-2.3 23.2 1.8 54.1h37.7c.3-5.8-3.4-33.9 2.2-61.2-4.2-.8-8.4-1.3-12.6-1.6-5.3-.3-10.7-.3-16 0-1.8.2-3.5.4-5 .7-4 .8-7.3 3.9-8.1 8z"/><path class="prefix__st9" d="M251.7 136.2c-1.4 7.6-2.3 23.2 1.8 54.1h37.7c.3-5.8-3.4-33.9 2.2-61.2-4.2-.8-8.4-1.3-12.6-1.6-5.3-.3-10.7-.3-16 0-1.8.2-3.5.4-5 .7-4 .8-7.3 3.9-8.1 8z"/><path class="prefix__st8" d="M257.5 147.5l-6.8-1.6c-.2 4.1-.2 9.2.1 15.5 3.1-3.6 7.1-9.1 6.7-13.9zM264.2 353l.4 8.4h7l-.3-8.4zM316.7 350.8l-6.9 1.5 3.6 7.9 6.8-1.5z"/><path class="prefix__st6" d="M282.2 104.4c-1.8 6.7-2.5 10.8-6.7 13.6-6.2 4.3-14-.6-14.2-7.7-.2-6.4 2.8-16.4 10-17.7 5.2-1 10.1 2.4 11.1 7.6.2 1.3.2 2.8-.2 4.2z"/><path class="prefix__st5" d="M266.4 104.6c-.3-.9-1.9-7.9-.4-9.7s18.1-.5 20.6 1.9c4.1 4 1.2 7.6-3.2 12.2-3.4 3.5-3.5 7.4-5.2 8-3 1-7.6.1-8.5-3.1s-3.3-9.3-3.3-9.3z"/><path class="prefix__st5" d="M284.5 88.9c-5.9-2.5-16.9.3-22.9-1.2-.2 4.6 3.1 8.6 7.6 9.4 4.9.9 10 1.4 15 1.4 6.6-.3 5.3-7.4.3-9.6z"/><path class="prefix__st5" d="M285.4 97.1c2.1.2 4.3-.2 6.2-1.2 1.2 2.6-4.9 3.4-6.2 1.2z"/><path class="prefix__st6" d="M269.6 104.9c-.1 1.7-.8 3.4-2 4.7-1.5 1.7-3.1.6-3.4-1.4-.2-1.9.3-5 2.1-5.9s3.4.5 3.3 2.6z"/><path class="prefix__st0" d="M266.9 190.4s8 53.8 12.4 73.9c4.8 22 30.5 95 30.5 95l12.6-2.7s-18-59.5-22-90.3c-3.1-23.7-9.2-75.9-9.2-75.9h-24.3z"/><path class="prefix__st5" d="M306.8 355.1l2.4 4.6 14.2-3.1-1.2-4.3-15.4 2.8z"/><path d="M272 209.5c9.2 1.8 8.2 36.2 7.1 53.9-2.7-12.5-6.6-36.6-9.2-53.7.6-.3 1.4-.4 2.1-.2z" opacity=".3"/><path class="prefix__st0" d="M253.6 190.4s-1 52.6-.2 74c.8 22.3 8.6 95.4 8.6 95.4h11.9s.4-71.8 1-93.7c.6-23.9 3.5-75.7 3.5-75.7h-24.8z"/><path class="prefix__st5" d="M259.7 355c-.1 0 .7 4.9.7 4.9h14.5l.4-4.4-15.6-.5z"/><path class="prefix__st0" d="M266.5 138.6c3.4 9.1-16.4 19.8-16.4 19.8l-8.6-11s5.8-11.4 12.8-16.6c8.6-6.3 9.6.8 12.2 7.8z"/><path class="prefix__st9" d="M266.5 138.6c3.4 9.1-16.4 19.8-16.4 19.8l-8.6-11s5.8-11.4 12.8-16.6c8.6-6.3 9.6.8 12.2 7.8z"/></g><g id="prefix__freepik--Thinking--inject-1"><ellipse class="prefix__st0" cx="344.1" cy="46.5" rx="36.1" ry="23"/><path class="prefix__st3" d="M331.1 58.1c-4.9 0-9.1-3.6-9.9-8.4-.8-5.3 2.5-10.3 7.7-11.5 4.2-1 8.6.8 10.8 4.5l23.2-4.8c1.8-.4 3.7.7 4.2 2.5.5 1.9-.6 3.8-2.5 4.3h-.2l-.6.1c-.2 0-.3.1-.4.3-.1.2-.1.4 0 .5l.4 1.1c.3.7 0 1.5-.6 1.9-.5.3-.8.8-.9 1.4-.1.7-.5 1.2-1.2 1.4l-.5.1c-.7.1-1.3-.2-1.7-.8-.6-.9-1.7-1.2-2.7-.7-.5.3-.9.8-.9 1.4-.1.7-.5 1.2-1.2 1.4l-.5.1c-.7.1-1.3-.2-1.7-.8-.3-.5-.8-.8-1.4-.9-.8-.1-1.4-.8-1.4-1.6v-1.1c0-.3-.3-.6-.6-.6h-.1l-7.4 1.5c-.6 4.2-3.8 7.6-8 8.4-.5.3-1.2.3-1.9.3zm-2-19c-4.7 1.1-7.8 5.6-7 10.4.9 4.9 5.7 8.2 10.6 7.3 3.9-.7 6.9-3.9 7.4-7.8v-.4l8.1-1.7c.9-.2 1.7.3 2 1.2V49.5c0 .3.2.5.5.6.9.1 1.7.7 2.1 1.4.1.2.3.3.6.3l.5-.1c.2-.1.4-.3.4-.5.2-1.6 1.6-2.8 3.2-2.6 1 .1 1.8.6 2.3 1.5.1.2.3.3.6.3l.5-.1c.2-.1.4-.3.4-.5.1-.9.6-1.7 1.4-2.2.2-.2.3-.5.2-.7l-.4-1.1c-.3-.8.1-1.8.9-2.1.1 0 .2-.1.3-.1l.6-.1c1.4-.3 2.2-1.6 1.9-3v-.1c-.4-1.3-1.7-2.1-3.1-1.8l-23.8 4.9-.2-.3c-2-3.2-6.1-5-10-4.1zm2 15.3c-1.2 0-2.5-.3-3.5-1-3-1.9-3.8-5.9-1.8-8.9s5.9-3.8 8.9-1.8c3 1.9 3.8 5.9 1.8 8.9-.9 1.4-2.4 2.4-4.1 2.8h-1.3zm0-11.8c-.4 0-.7 0-1.1.1-2.9.6-4.8 3.5-4.2 6.4.6 2.9 3.5 4.8 6.4 4.2 2.9-.6 4.8-3.5 4.2-6.4-.3-1.4-1.1-2.6-2.3-3.4-.9-.6-1.9-.9-3-.9z"/><ellipse class="prefix__st4" cx="314.7" cy="75.5" rx="11.9" ry="7.6"/><ellipse cx="295.9" cy="83" rx="4.9" ry="3.1" opacity=".3" fill="#fde24f"/></g></svg>