<svg xmlns="http://www.w3.org/2000/svg" viewBox="0 0 40 40.8"><path d="M40 20.9a19.9 19.9 0 00-.4-4.2H20.4v7.9h11a9.4 9.4 0 01-4.1 6.2v5.1h6.6c3.9-3.6 6.1-8.8 6.1-15z" fill="#4285f4"/><path d="M20.4 40.8a19.6 19.6 0 0013.5-4.9l-6.5-5.1a12.8 12.8 0 01-7 1.9A12.2 12.2 0 019 24.3H2.2v5.3a20.4 20.4 0 0018.2 11.2z" fill="#34a853"/><path d="M8.9 24.3a13 13 0 010-7.8v-5.3H2.2a20.5 20.5 0 000 18.4z" fill="#fbbc04"/><path d="M20.4 8.1a10.8 10.8 0 017.8 3l5.9-5.8A19.3 19.3 0 0020.4 0 20.2 20.2 0 002.2 11.2l6.7 5.3a12.4 12.4 0 0111.5-8.4z" fill="#ea4335"/></svg>