<svg xmlns="http://www.w3.org/2000/svg" viewBox="0 0 2777.975 1878.156"><defs><clipPath id="prefix__a" transform="translate(-360.852 -312.827)"><path d="M2688.84 979.722v764.906a90.282 90.282 0 01-51.89 81.719 89.14 89.14 0 01-38.38 8.616H1196.17a90.449 90.449 0 01-90.337-90.335V979.722a90.449 90.449 0 0190.337-90.334H2598.57a90.393 90.393 0 0190.27 90.334z" fill="none"/></clipPath></defs><g style="isolation:isolate"><path d="M2486.454 1823.128s9.22-359.302-63.252-572.775c-72.472-213.472 154.523-439.449 31.435-749.337-90.78-228.551-610.16-642.064-1153.015-452.803-412.148 143.692-223.081 341.867-304.689 555.004-81.607 213.137-200.56 448.557-243.573 495.449-43.014 46.891 40.06-180.913 40.248-282.312.188-101.399-306.982-6.991-409.406 147.544-102.424 154.535 31.493 642.709 85.169 739.04 53.676 96.33 184.396 120.191 184.396 120.191z" fill="#c2d8f2"/><path d="M2278.53 872.562a49.492 49.492 0 1149.492-49.492 49.548 49.548 0 01-49.492 49.492zm0-86.984a37.492 37.492 0 1037.492 37.492 37.535 37.535 0 00-37.492-37.492zM745.801 285.737a49.492 49.492 0 1149.492-49.492 49.548 49.548 0 01-49.492 49.492zm0-86.984a37.492 37.492 0 1037.492 37.492 37.535 37.535 0 00-37.492-37.492zM290.822 1063.974a49.492 49.492 0 1149.492-49.492 49.548 49.548 0 01-49.492 49.492zm0-86.985a37.492 37.492 0 1037.492 37.493 37.535 37.535 0 00-37.492-37.493zM1482.235 285.737a49.492 49.492 0 1149.492-49.492 49.548 49.548 0 01-49.492 49.492zm0-86.984a37.492 37.492 0 1037.492 37.492 37.535 37.535 0 00-37.492-37.492zM345.146 924.527a14.387 14.387 0 01-2.692-.254l-48.655-9.265a14.508 14.508 0 01-11.356-10.792l-4.393-18.026 89.64 17.069-10.709 15.15a14.52 14.52 0 01-11.835 6.118zm-51.02-23.06a2.481 2.481 0 001.918 1.753l48.654 9.265a2.482 2.482 0 002.428-.926z" fill="#9bd"/><path d="M360.795 913.563a33.348 33.348 0 01-6.243-.59l-67.852-12.92a33.278 33.278 0 01-22.64-16.106l-15.863-27.563a33.325 33.325 0 01-3.852-22.847l14.131-74.216 174.044 33.141-14.131 74.216a33.325 33.325 0 01-11.98 19.831l-24.883 19.805a33.279 33.279 0 01-20.731 7.249zM268.02 773.355l-11.887 62.427a21.32 21.32 0 002.464 14.616l15.864 27.563a21.288 21.288 0 0014.483 10.303l67.853 12.92a21.291 21.291 0 0017.257-4.26l24.883-19.804a21.322 21.322 0 007.664-12.687l11.886-62.427z" fill="#9bd"/><path d="M424.749 802.824a20.777 20.777 0 01-3.453-.289 585.209 585.209 0 01-156.668-29.83 21.216 21.216 0 01-16.592-22.896c5.055-46.95-5-64.976-20.224-92.264-7.483-13.415-15.964-28.619-24.576-50.134l-.473-1.18q-.678-1.71-1.324-3.436l-.362-.988q-.582-1.574-1.139-3.16c-.157-.448-.314-.9-.47-1.353q-.582-1.698-1.134-3.406l-.248-.756q-.645-2.024-1.247-4.068l-.375-1.291q-.453-1.572-.88-3.144l-.329-1.213q-.548-2.068-1.053-4.151l-.228-.969q-.4-1.688-.772-3.386l-.287-1.33q-.401-1.894-.767-3.786l-.11-.558c-.27-1.427-.52-2.86-.76-4.296l-.206-1.271q-.27-1.686-.513-3.384l-.164-1.14q-.297-2.166-.55-4.351l-.1-.938q-.199-1.796-.364-3.589l-.117-1.294a200.345 200.345 0 01-.314-4.132l-.026-.347a204.058 204.058 0 01-.23-4.476l-.045-1.247q-.063-1.78-.093-3.573l-.02-1.072q-.027-2.249-.005-4.499l.016-.947q.027-1.85.089-3.7l.044-1.27c.058-1.476.128-2.953.218-4.433l.008-.144c.094-1.526.212-3.054.341-4.583l.112-1.248q.167-1.843.368-3.694l.11-1.02q.263-2.295.575-4.582l.141-.978q.267-1.874.566-3.74l.205-1.259c.258-1.546.527-3.087.821-4.63q.483-2.54 1.029-5.054c.071-.329.147-.656.223-.984l.19-.832c.239-1.06.477-2.122.732-3.175.103-.421.21-.836.317-1.251l.264-1.037c.223-.886.447-1.772.683-2.651.126-.466.257-.93.389-1.392l.325-1.155c.218-.78.436-1.56.665-2.333.152-.515.31-1.027.47-1.538l.276-.897c.245-.798.49-1.596.746-2.389.175-.541.355-1.078.537-1.614l.28-.836c.26-.774.518-1.547.787-2.314.198-.564.4-1.123.604-1.681l.238-.653c.287-.793.575-1.585.873-2.372.23-.61.47-1.22.71-1.832l.12-.31c.328-.835.655-1.671.993-2.5.267-.657.541-1.31.815-1.963l.07-.168c.344-.818.689-1.634 1.042-2.446.31-.71.625-1.414.94-2.117.363-.805.726-1.607 1.097-2.403.324-.698.655-1.394.988-2.089q.57-1.188 1.15-2.365.51-1.03 1.037-2.061.595-1.168 1.201-2.322.538-1.023 1.086-2.037.62-1.148 1.254-2.283.56-1.004 1.132-2.005.646-1.129 1.304-2.243.584-.99 1.18-1.979c.444-.734.898-1.468 1.354-2.201.404-.65.809-1.296 1.219-1.939.464-.728.936-1.45 1.409-2.17.42-.638.837-1.275 1.262-1.906.48-.714.97-1.423 1.46-2.132l.173-.25c.373-.54.747-1.08 1.126-1.615.473-.668.955-1.33 1.436-1.99l.308-.424c.366-.504.733-1.008 1.104-1.507.47-.63.945-1.25 1.419-1.87l.513-.672c.335-.438.67-.876 1.009-1.31.479-.611.967-1.219 1.456-1.825l.55-.686c.336-.42.673-.84 1.014-1.254.473-.576.953-1.144 1.433-1.712l.697-.827c.325-.387.65-.774.98-1.157.518-.6 1.044-1.192 1.57-1.785l.658-.744c.319-.362.638-.724.961-1.082.52-.574 1.047-1.14 1.575-1.707l.827-.891c.289-.314.578-.627.872-.937.679-.715 1.37-1.422 2.063-2.128l.583-.6c.232-.24.465-.48.7-.717q1.688-1.698 3.416-3.356c.17-.163.344-.326.52-.488l.318-.298c.884-.838 1.766-1.672 2.66-2.491.302-.276.606-.547.91-.816l.887-.794a96.036 96.036 0 012.848-2.5l.9-.77c.56-.478 1.118-.957 1.683-1.427.393-.327.79-.649 1.188-.971l.89-.725c.545-.443 1.09-.887 1.64-1.324.411-.327.828-.65 1.245-.972l.834-.646c.567-.441 1.135-.882 1.708-1.315.466-.352.938-.7 1.41-1.048l.613-.453c.607-.45 1.215-.898 1.828-1.34.49-.352.981-.697 1.473-1.043l.604-.425c.613-.43 1.226-.86 1.843-1.284.547-.375 1.097-.743 1.647-1.111l.246-.164c.733-.49 1.408-.94 2.088-1.384a208.92 208.92 0 011.8-1.153l.133-.085c.704-.446 1.404-.89 2.11-1.327.657-.406 1.313-.803 1.97-1.199q1.066-.643 2.136-1.273a219.713 219.713 0 014.16-2.374q1.013-.562 2.037-1.115 1.087-.588 2.184-1.164 1.023-.538 2.062-1.068 1.103-.563 2.212-1.112 1.037-.515 2.088-1.021 1.115-.537 2.235-1.058 1.055-.492 2.114-.974 1.132-.513 2.268-1.008c.71-.31 1.42-.62 2.135-.924.759-.323 1.522-.637 2.286-.95l.101-.042c.687-.282 1.375-.564 2.066-.838.766-.305 1.539-.6 2.31-.896l.175-.067c.669-.257 1.338-.513 2.01-.762.757-.28 1.52-.55 2.284-.822l.384-.137c.622-.222 1.244-.444 1.868-.659.677-.231 1.355-.455 2.033-.678l.797-.263c.584-.193 1.168-.386 1.754-.572.664-.21 1.333-.412 2.002-.615l.98-.297c.546-.167 1.092-.333 1.64-.493.661-.193 1.327-.376 1.993-.56l1.11-.308c.52-.146 1.041-.291 1.566-.43.627-.166 1.262-.326 1.897-.484l1.294-.327c.501-.127 1.003-.255 1.507-.376a145.91 145.91 0 011.99-.457l1.345-.304c.468-.108.935-.215 1.405-.316.781-.167 1.566-.323 2.35-.478l1.26-.254c.385-.078.77-.157 1.155-.23q2.373-.45 4.755-.842c.421-.07.845-.132 1.269-.195l1.255-.192c.769-.12 1.538-.24 2.31-.348.497-.07.997-.132 1.497-.194l1.32-.169c.681-.089 1.362-.178 2.045-.256.54-.062 1.08-.117 1.621-.171l1.315-.135c.65-.069 1.3-.137 1.952-.196.56-.051 1.12-.094 1.68-.137l1.244-.098c.663-.052 1.326-.105 1.991-.15.612-.04 1.225-.072 1.84-.105l.999-.053a149.08 149.08 0 012.097-.106c.63-.026 1.262-.045 1.895-.063l.804-.023c.753-.023 1.505-.046 2.26-.058.702-.012 1.402-.015 2.102-.018l.555-.003c.773-.005 1.545-.008 2.32-.002.756.006 1.508.02 2.262.035l.21.004c.843.017 1.685.035 2.528.061.826.027 1.652.064 2.48.1.848.038 1.69.077 2.536.125.828.047 1.66.103 2.492.16.848.06 1.69.12 2.534.19q1.254.102 2.504.222 1.269.12 2.54.254 1.253.134 2.51.285l.505.056c.265.03.53.059.795.092.234.029.463.062.693.096l.399.057q1.617.211 3.237.452c.757.112 1.517.224 2.273.344 1.04.166 2.082.344 3.125.526l.367.064c.648.113 1.296.225 1.941.346l.815.144c.557.107 1.106.22 1.655.335l1.39.283c.481.096.963.193 1.441.296 1.41.3 2.817.622 4.22.952l.94.217a203.272 203.272 0 01154.335 221.995l-.124.987q-.258 2.058-.555 4.11c-.09.611-.184 1.229-.28 1.847q-.258 1.666-.544 3.328c-.13.757-.265 1.52-.405 2.283l-.091.519c-.046.269-.093.538-.144.807-.068.357-.142.71-.215 1.065l-.132.638c-.157.79-.316 1.583-.483 2.375-.22 1.04-.453 2.079-.689 3.116l-.088.388c-.136.599-.272 1.197-.415 1.796-.276 1.158-.569 2.309-.864 3.458l-.137.549c-.072.294-.144.588-.222.882l-.45 1.65q-.536 1.952-1.1 3.87l-.168.576q-.629 2.108-1.302 4.181l-.362 1.118q-.674 2.051-1.381 4.07l-.316.878q-.636 1.78-1.305 3.548l-.347.921q-.759 1.98-1.564 3.945l-.448 1.087q-.814 1.961-1.665 3.909l-.233.522q-.797 1.798-1.638 3.595l-.486 1.039q-.898 1.896-1.826 3.756l-.49.967q-.834 1.651-1.695 3.279l-.392.745a206.894 206.894 0 01-2.007 3.655l-.6 1.063q-1.027 1.804-2.084 3.583l-.456.752q-.923 1.533-1.883 3.061l-.6.957q-1.092 1.72-2.212 3.407L561 644.94q-1.032 1.535-2.092 3.054l-.484.694q-1.132 1.603-2.29 3.175l-.757 1.023q-1.198 1.61-2.423 3.194l-.7.889q-1.044 1.331-2.114 2.649l-.693.855a204.103 204.103 0 01-2.55 3.04l-.864 1.004q-1.286 1.486-2.599 2.95l-.641.704c-.484.532-.972 1.07-1.466 1.603l-1.504 1.604c-15.99 17.008-29.674 28.106-41.747 37.897-24.366 19.762-40.463 32.816-52.939 78.064a21.241 21.241 0 01-20.388 15.484zm-32.255-462.876q-.7 0-1.401.005l-.559.002c-.652.003-1.303.006-1.954.017-.7.012-1.4.033-2.103.054l-.82.024c-.58.017-1.16.034-1.74.058-.648.027-1.294.062-1.94.098l-1.024.055c-.56.03-1.12.058-1.68.096-.61.04-1.22.089-1.828.137l-1.279.1c-.505.04-1.011.078-1.516.124-.594.054-1.189.117-1.783.179l-1.364.14c-.485.049-.969.098-1.452.154-.622.07-1.243.152-1.863.233l-1.39.178c-.44.055-.88.11-1.319.17-.71.1-1.416.21-2.122.32l-1.343.206c-.36.053-.72.106-1.079.165q-2.243.37-4.47.791c-.323.062-.649.128-.974.195l-1.347.271c-.723.143-1.446.286-2.166.44-.411.09-.82.183-1.23.278l-1.41.32c-.607.135-1.214.27-1.818.415-.447.108-.895.222-1.343.336l-1.344.34c-.578.144-1.157.288-1.733.441-.475.126-.942.257-1.41.388l-1.15.32c-.61.168-1.222.336-1.83.513-.5.145-.996.297-1.493.449l-1.008.306a142.1 142.1 0 00-1.85.568c-.54.17-1.076.348-1.612.525l-.812.269c-.63.207-1.262.415-1.89.63-.578.198-1.153.404-1.729.61l-.33.117c-.783.279-1.499.533-2.21.796-.63.233-1.253.472-1.877.71l-.176.068c-.727.279-1.454.557-2.177.844-.65.258-1.294.522-1.939.787l-.098.04c-.717.295-1.436.59-2.152.895-.673.286-1.343.578-2.012.871q-1.07.469-2.133.947-.996.452-1.99.917-1.053.492-2.103.996-.987.475-1.968.962-1.047.518-2.08 1.046-.974.498-1.94 1.006c-.692.362-1.374.726-2.054 1.094q-.964.521-1.92 1.05-1.022.568-2.032 1.147c-.626.358-1.256.72-1.882 1.088-.676.396-1.344.797-2.012 1.199-.619.373-1.239.748-1.856 1.129-.661.41-1.323.829-1.984 1.249l-.131.083c-.565.359-1.13.718-1.69 1.082-.64.418-1.276.843-1.912 1.267l-.3.2c-.512.343-1.025.686-1.534 1.035-.578.396-1.152.8-1.726 1.203l-.605.426c-.455.319-.91.638-1.36.963-.57.41-1.137.83-1.704 1.249l-.631.465c-.431.318-.863.636-1.29.96-.533.402-1.059.81-1.585 1.22l-.856.663c-.376.29-.752.58-1.124.876-.509.404-1.01.814-1.512 1.224l-.926.752c-.356.288-.711.576-1.063.869-.521.433-1.035.874-1.549 1.315l-.947.808c-.313.266-.626.532-.936.802-.556.485-1.103.978-1.65 1.47l-.943.843c-.26.231-.52.463-.777.697a201.36 201.36 0 00-2.504 2.345l-.788.739q-1.627 1.56-3.216 3.16c-.194.194-.385.392-.575.59l-.646.664c-.647.66-1.294 1.32-1.93 1.99-.255.269-.503.538-.751.807l-.873.941a139.31 139.31 0 00-1.455 1.577c-.286.316-.569.637-.85.958l-.696.786c-.488.55-.976 1.1-1.458 1.657-.295.343-.585.688-.875 1.033l-.722.857c-.444.525-.888 1.05-1.324 1.581-.31.377-.616.76-.922 1.142l-.567.705c-.454.565-.909 1.13-1.356 1.7-.31.397-.615.796-.92 1.195l-.52.68c-.444.58-.888 1.16-1.325 1.747-.343.46-.683.929-1.024 1.397l-.309.425c-.451.62-.902 1.24-1.346 1.867-.354.499-.702 1.003-1.05 1.506l-.173.25c-.459.663-.92 1.33-1.372 2.004-.401.595-.795 1.195-1.188 1.794-.444.675-.888 1.355-1.325 2.04q-.579.906-1.147 1.823-.641 1.031-1.274 2.073c-.376.621-.744 1.24-1.11 1.861q-.621 1.054-1.227 2.11-.536.936-1.064 1.884-.597 1.072-1.18 2.15-.515.952-1.02 1.914-.573 1.087-1.13 2.184a178.72 178.72 0 00-2.058 4.164c-.312.652-.624 1.306-.93 1.964-.35.752-.691 1.507-1.031 2.263-.296.66-.593 1.322-.884 1.988-.332.763-.656 1.533-.98 2.303l-.07.17c-.258.61-.514 1.22-.764 1.835-.318.78-.625 1.566-.933 2.352l-.123.314c-.221.565-.443 1.13-.658 1.7-.28.74-.548 1.48-.817 2.22l-.243.666c-.186.513-.373 1.026-.554 1.542-.25.714-.491 1.434-.732 2.155l-.29.86c-.164.489-.329.977-.488 1.468-.237.736-.464 1.479-.692 2.221l-.29.936c-.142.46-.285.92-.422 1.383-.212.717-.413 1.439-.616 2.16l-.338 1.203c-.116.41-.233.82-.344 1.231-.22.818-.427 1.641-.634 2.465l-.282 1.107c-.093.359-.186.718-.274 1.08-.238.984-.462 1.98-.685 2.975l-.212.925c-.062.265-.124.53-.182.798q-.512 2.37-.969 4.76c-.276 1.454-.53 2.907-.772 4.36l-.193 1.185q-.284 1.766-.534 3.526l-.132.92q-.296 2.16-.541 4.31l-.104.965q-.19 1.74-.347 3.476l-.106 1.177a195.576 195.576 0 00-.321 4.314l-.008.148c-.084 1.38-.15 2.769-.204 4.157l-.042 1.19a191.52 191.52 0 00-.083 3.484l-.016.89q-.021 2.124.005 4.233l.02 1.007q.028 1.69.087 3.364l.043 1.177c.058 1.405.126 2.807.215 4.206l.023.312c.086 1.317.186 2.611.297 3.903l.11 1.215q.156 1.697.341 3.376l.096.888c.157 1.362.33 2.729.518 4.092l.154 1.073q.227 1.59.482 3.183l.193 1.196c.225 1.344.46 2.693.715 4.036l.104.522q.343 1.788.72 3.562l.272 1.255q.348 1.593.725 3.183l.214.913q.475 1.959.992 3.906l.31 1.14q.401 1.482.827 2.955l.353 1.218q.568 1.916 1.172 3.826l.235.716q.518 1.604 1.066 3.2.219.636.442 1.27.526 1.5 1.073 2.98l.34.926q.609 1.625 1.245 3.233l.452 1.125c8.332 20.818 16.614 35.664 23.921 48.764 15.756 28.243 27.14 48.65 21.675 99.39a9.147 9.147 0 007.341 9.915l.404.076.388.132a573.213 573.213 0 00154.177 29.357l.414.021.408.078a9.146 9.146 0 0010.47-6.518c13.498-48.955 31.723-63.736 56.948-84.193 11.779-9.553 25.129-20.38 40.583-36.82l1.43-1.525c.467-.502.924-1.005 1.38-1.509l.6-.657c.83-.922 1.643-1.85 2.45-2.782l.814-.945q1.213-1.42 2.402-2.864l.649-.8q1.007-1.24 1.99-2.495l.658-.835q1.152-1.486 2.278-3.002l.713-.966q1.087-1.48 2.155-2.986l.455-.652q.996-1.426 1.968-2.874l.641-.956q1.055-1.59 2.082-3.204l.563-.898q.9-1.436 1.776-2.888l.43-.71c.66-1.104 1.311-2.23 1.955-3.36l.563-.996q.96-1.714 1.889-3.44l.37-.705q.81-1.53 1.593-3.081l.458-.904q.88-1.763 1.718-3.536l.458-.98q.79-1.691 1.548-3.395l.211-.473c.54-1.225 1.058-2.454 1.57-3.688l.419-1.013c.505-1.237.996-2.473 1.474-3.718l.326-.865q.628-1.66 1.227-3.34l.298-.826c.444-1.263.876-2.54 1.298-3.824l.34-1.05c.422-1.31.833-2.62 1.227-3.937l.157-.543q.535-1.812 1.034-3.64l.426-1.557c.06-.224.112-.443.166-.662l.172-.69c.277-1.078.553-2.163.815-3.256.132-.553.257-1.106.382-1.658l.09-.396c.222-.977.442-1.954.65-2.937.157-.748.306-1.492.454-2.236l.153-.745c.06-.285.12-.571.174-.859.038-.198.072-.399.107-.599l.115-.653c.13-.711.257-1.429.38-2.147q.271-1.572.513-3.133c.09-.578.179-1.159.263-1.739q.284-1.943.524-3.872l.115-.922a191.276 191.276 0 00-145.228-208.9l-.884-.204a191.55 191.55 0 00-3.975-.897 94.617 94.617 0 00-1.287-.264l-1.482-.302c-.482-.1-.964-.201-1.45-.294l-.769-.136c-.6-.112-1.201-.216-1.802-.32l-.375-.065c-.983-.172-1.965-.34-2.946-.496a182.81 182.81 0 00-2.139-.324q-1.529-.226-3.048-.426l-2.25-.284c-.787-.093-1.578-.184-2.368-.268q-1.194-.128-2.386-.238a203.59 203.59 0 00-2.36-.21c-.793-.065-1.589-.123-2.385-.178-.78-.054-1.563-.107-2.347-.152a188 188 0 00-2.377-.116c-.785-.035-1.563-.07-2.34-.094-.793-.026-1.585-.042-2.377-.058l-.211-.004c-.707-.014-1.412-.028-2.117-.033q-.384-.003-.769-.003z" fill="#9bd"/><path d="M376.344 793.273l-11.786-2.257c.09-.474 9.24-48.015 22.533-97.705 7.835-29.286 15.565-53.616 22.976-72.314q.56-1.41 1.116-2.778c-13.414-1.007-29.853-4.08-49.978-10.256q-7.834-2.405-14.575-4.937a186.546 186.546 0 01-1.155 27.066c-14.056 127.711-19.327 152.896-19.545 153.906l-11.73-2.527c.05-.24 5.43-26.239 19.347-152.691a161.631 161.631 0 00.72-30.856c-30.786-14.043-39.95-29.647-37.246-40.941 1.897-7.919 9.74-12.541 18.66-10.989 9.744 1.697 18.499 9.91 24.019 22.533a82.013 82.013 0 015.76 21.135c5.625 2.31 12.017 4.604 19.267 6.83 20.88 6.408 37.95 9.392 51.545 10 7.49-16.082 14.69-26.247 21.852-30.908 12.071-7.852 22.06-5.222 27.384-.142 6.36 6.067 7.281 15.865 2.294 24.38-3.15 5.378-13.75 17.974-43.78 18.746-7.089 16.662-15.573 41.34-25.339 77.844-13.182 49.276-22.249 96.391-22.339 96.861zm76.73-210.642a16.166 16.166 0 00-8.405 3.012c-3.329 2.165-8.362 7.569-14.968 20.624 15.215-1.334 24.167-6.4 27.746-12.51 2.445-4.175 1.65-7.847-.222-9.633a5.83 5.83 0 00-4.152-1.493zm-140.827-24.936c-1.61 0-3.185.533-3.556 2.083-.99 4.135 4.458 13.54 23.309 23.604-4.022-16.59-11.811-24.422-18.378-25.565a8.066 8.066 0 00-1.375-.122zM258.034 789.743l3.69-11.42 158.394 51.175-3.69 11.42zM254.852 806.452l3.689-11.42 158.394 51.175-3.689 11.419zM251.67 823.16l3.69-11.418 158.394 51.175-3.69 11.418zM248.49 839.87l3.689-11.42 150.942 48.768-3.69 11.418zM618.643 580.717l2.245-11.788 62.543 11.909-2.244 11.788zM608.963 449.486l60.119-20.958 3.95 11.331-60.119 20.959zM538.914 352.008l41.583-48.21 9.087 7.838L548 359.846zM429.508 302.613l11.912-62.543 11.788 2.245-11.912 62.543zM289.108 254.421l11.331-3.95 20.959 60.118-11.332 3.95zM164.378 343.004l7.838-9.086 48.209 41.585-7.838 9.086zM100.65 482.084l2.245-11.788 62.544 11.909-2.245 11.788zM1772.801 720.276l-201.672-39.797-97.17-338.794 286.682 36.153zm-192.158-50.151l179.629 35.447-11.262-317.106-258.5-32.599zM1797.319 719.305l-14.963-342.327 282.923-58.716-70.069 345.42zm-2.53-332.652l13.858 317.003 176.26-49.544 64.995-320.403z" fill="#9bd"/><path d="M1762.128 719.104l-13.535-341.71 45.737-1.811 13.535 341.709zm-1.07-330.194l12.586 317.728 21.756-.862-12.585-317.728z" fill="#9bd"/><path d="M1765.704 382.721l-.99-24.977 2.593-1.886c.862-.627 21.572-15.515 61.669-29.294 36.742-12.626 97.51-26.64 178.348-21.696l1.631.1 25.363 17.097-6.707 9.95-22.648-15.267c-77.758-4.524-136.137 8.879-171.514 20.968-30.74 10.505-49.87 21.85-56.485 26.108l.73 18.423z" fill="#9bd"/><path d="M1765.704 382.721l-.73-18.422c-6.925-3.717-26.893-13.517-58.373-21.559-36.222-9.253-95.482-17.993-172.635-7.336l-21.368 17.012-7.475-9.39 23.931-19.05 1.62-.228c80.197-11.322 141.878-2.159 179.504 7.521 41.062 10.565 62.884 23.768 63.793 24.325l2.733 1.675.99 24.978z" fill="#9bd"/><path d="M1776.608 362.35l-11.556-3.236c.649-2.346 17.122-57.603 126.9-69.942 103.256-11.605 132.834-30.674 133.12-30.865l17.409-11.613-8.574 19.049-21.48 47.582-10.938-4.937 14.8-32.785c-18.351 7.119-55.294 17.885-122.997 25.494-53.025 5.96-81.978 22.407-96.93 35.154-15.963 13.609-19.718 25.975-19.754 26.099zM1755.536 412.947l34.217-1.355.475 11.99-34.217 1.355zM1756.645 440.942l34.216-1.355.475 11.991-34.216 1.354zM1765.205 665.757l34.224-1.115.391 11.993-34.225 1.115zM1764.293 637.754l34.224-1.115.391 11.993-34.225 1.115z" fill="#9bd"/><path d="M1783.983 369.452a103.426 103.426 0 0111.122-7.133q5.759-3.248 11.755-6.041a238.768 238.768 0 0124.518-9.83l6.284-2.029c2.094-.68 4.22-1.252 6.336-1.854 4.237-1.19 8.495-2.298 12.79-3.255 4.27-1.045 8.617-1.772 12.928-2.605 4.344-.697 8.698-1.319 13.072-1.785-4.17 1.446-8.38 2.64-12.562 3.935l-6.267 1.935c-2.09.638-4.19 1.222-6.262 1.912-2.078.67-4.158 1.323-6.248 1.939-2.09.613-4.147 1.34-6.221 2.003-4.159 1.296-8.277 2.706-12.41 4.066-8.236 2.815-16.449 5.686-24.589 8.787-8.128 3.133-16.233 6.335-24.246 9.955zM1857.544 353.585a230.837 230.837 0 0133.552-12.796q17.197-5.24 34.853-8.786c2.939-.582 5.89-1.096 8.837-1.643l4.424-.785 4.444-.67 8.893-1.281c2.972-.367 5.95-.694 8.928-1.006 5.942-.734 11.933-1.03 17.897-1.464q2.239-.15 4.485-.203l4.488-.126c2.992-.068 5.982-.126 8.973-.125-5.909 1.024-11.83 1.726-17.723 2.652l-8.836 1.351c-1.47.24-2.947.412-4.415.66l-4.404.736c-2.934.498-5.87.98-8.809 1.424l-8.778 1.586-4.392.765-4.374.858c-2.917.565-5.842 1.091-8.754 1.681-11.648 2.357-23.254 4.913-34.805 7.748-11.544 2.868-23.052 5.901-34.484 9.424zM1767.246 367.274c-9.165-2.17-18.227-4.543-27.275-6.95l-27.113-7.223-27.115-7.135-27.264-6.883a223.602 223.602 0 0128.017 3.453c9.248 1.732 18.44 3.777 27.52 6.218q13.625 3.648 26.97 8.222c8.89 3.05 17.696 6.365 26.26 10.298zM1718.139 366.15c-13.015-2.048-25.962-4.29-38.9-6.56l-19.401-3.386-9.693-1.714-9.701-1.66c-6.465-1.112-12.926-2.255-19.403-3.28-3.235-.536-6.464-1.13-9.705-1.619-3.242-.49-6.479-1.02-9.715-1.566a2278.515 2278.515 0 00-38.996-5.712 361.274 361.274 0 0139.457 2.23c6.552.694 13.086 1.544 19.608 2.456 3.264.445 6.518.952 9.767 1.482l9.75 1.577c6.478 1.182 12.96 2.33 19.414 3.63 3.228.643 6.447 1.324 9.667 2.006q4.835.994 9.641 2.126c12.834 2.924 25.609 6.126 38.21 9.99zM2654.535 607.23a107.292 107.292 0 00-124.331-86.667l-2.11-11.814a119.3 119.3 0 01138.253 96.372z" fill="#9bd"/><path d="M2618.462 616.998a73.217 73.217 0 00-84.943-59.211l-2.11-11.814a85.216 85.216 0 0198.866 68.916zM2582.39 626.766a39.267 39.267 0 00-45.556-31.756l-2.109-11.813a51.266 51.266 0 0159.478 41.46z" fill="#9bd"/><circle cx="2909.115" cy="939.996" r="14.901" transform="rotate(-72.014 2513.46 1031.853)" fill="#9bd"/><path d="M445.977 1836.824l-7.995-8.948c.454-.405 45.784-41.337 83.594-108.73 34.083-60.75 68.755-155.926 42.707-266.83-16.833 5.809-66.98 25.805-114.433 71.397-53.266 51.18-114.022 146.186-100.967 308.154l-11.96.965c-5.933-73.601 2.415-140.11 24.814-197.682a332.211 332.211 0 0180.223-120.496c60.037-57.482 122.407-75.083 125.033-75.804l5.898-1.62 1.506 5.928a356.359 356.359 0 014.286 157.649c-8.265 42.068-24.025 83.98-46.842 124.567-38.803 69.025-83.96 109.751-85.864 111.45z" fill="#9bd"/><path d="M401.92 1833.85l-11.618-3c.133-.518 13.652-52.564 37.779-119.398 22.303-61.781 58.518-149.266 104.384-215.199l9.85 6.854c-86.429 124.24-139.865 328.692-140.394 330.743z" fill="#9bd"/><path fill="#9bd" d="M373.801 1727.34l10.942-4.928 29.131 64.681-10.941 4.928zM423.754 1728.787l68.448-34.056 5.346 10.745-68.448 34.056zM420.742 1608.438l11.37-3.837 22.504 66.683-11.37 3.837zM474.496 1601.317l59.906-34.406 5.976 10.406-59.905 34.406zM471.802 1521.744l11.364-3.854 17.392 51.287-11.365 3.854zM71.763 1722.1l6.725-9.94 170.294 115.22-6.725 9.939z"/><path d="M240.134 1835.189c-.327-.61-32.957-61.967-55.918-155.544a781.313 781.313 0 01-22.57-164.114c-1.871-67.504 5.853-133.209 22.957-195.29l2.014-7.31 6.65 3.64c1.57.859 38.958 21.553 82.491 66.198a461.58 461.58 0 0166.284 86.235 450.173 450.173 0 0150.76 125.107l-11.669 2.801c-23.349-97.268-74.69-165.406-113.647-205.438-31.814-32.69-60.785-52.497-73.366-60.404-35.32 135.067-18.748 262.008 1.662 345.352 22.578 92.203 54.604 152.492 54.924 153.09z" fill="#9bd"/><path d="M327.867 1832.7c-.033-.567-3.503-57.68-19.174-141.137-14.449-76.949-42.523-192.68-94.213-307.04l10.934-4.944c52.217 115.524 80.544 232.334 95.113 309.985 15.79 84.153 19.286 141.863 19.32 142.436z" fill="#9bd"/><path fill="#9bd" d="M206.094 1430.791l7.806-9.115 42.868 36.712-7.806 9.115zM259.746 1498.637l11.25-63.732 11.816 2.086-11.249 63.732zM217.022 1527.876l5.85-10.479 63.653 35.538-5.85 10.478zM288.1 1594.622l25.203-83.827 11.492 3.455-25.204 83.827zM228.718 1623.376l5.426-10.703 76.448 38.76-5.427 10.702zM309.422 1689.842l37.16-85.043 10.996 4.805-37.16 85.043zM249.004 1730.2l5.538-10.647 74.729 38.872-5.538 10.646zM324.324 1787.055l11.847-25.81 10.906 5.006-11.847 25.81zM151.218 1837.87c-74.778-31.878-111.786-76.55-129.664-108.412C1.996 1694.606.382 1667.465.323 1666.326L0 1660.125l6.208-.11c72.487-1.28 124.973 20.54 156.227 39.074 34.06 20.196 50.755 40.592 51.449 41.45l-9.331 7.545 4.665-3.772-4.66 3.778c-.16-.196-16.35-19.87-48.744-38.975-28.878-17.033-76.761-36.989-142.705-37.152 1.594 9.579 6.219 29.207 19.258 52.24 17.004 30.038 52.242 72.227 123.557 102.627z"/><path fill="#9bd" d="M91.814 1702.855l10.664-5.503 25.312 49.052-10.664 5.503zM96.791 1773.548l.709-11.978 57.546 3.405-.708 11.978zM162.998 1746.468l11.199-4.312 18.783 48.77-11.198 4.312zM167.116 1813.118l41.398-10.55 2.964 11.629-41.398 10.55zM2520.54 1741.171l52.458-55.889 8.75 8.214-52.458 55.888zM2463.167 1753.594l8.746-8.217 54.55 58.056-8.745 8.217zM2528.334 1834.695l36.835-31.702 7.828 9.096-36.835 31.702zM2312.748 1707.819l2.894-11.647 61.729 15.338-2.894 11.646zM2389.42 1755.46l8.948-66.865 11.895 1.592-8.948 66.864zM2358.043 1784.246l3.531-11.468 52.454 16.153-3.532 11.469zM2417.802 1821.642l10.54-34.586 11.48 3.498-10.54 34.586zM2644.286 1696.222l67.462-19.067 3.263 11.546-67.461 19.067z"/><path d="M2438.04 1840.899c-.753-2.624-18.42-65.328-15.09-157.32a603.559 603.559 0 0126.378-156.94 573.708 573.708 0 0189.127-174.363l4.802-6.412 4.802 6.411c1.267 1.692 31.255 42.338 51.903 123.212 12.075 47.295 18.395 98.613 18.786 152.526.486 67.274-8.311 138.816-26.148 212.638l-11.664-2.818c39.846-164.911 26.017-286.454 7.398-359.377-15.34-60.092-36.215-97.629-45.32-112.142-83.73 115.336-105.048 235.806-108.056 317.246-3.33 90.192 14.437 153.4 14.617 154.028z" fill="#9bd"/><path fill="#9bd" d="M2514.66 1838.971l16.388-361.23 11.989.544-16.39 361.23z"/><path fill="#9bd" d="M2491.715 1538.549l9.676-7.096 35.695 48.674-9.676 7.096zM2527.646 1625.437l45.128-53.878 9.199 7.706-45.127 53.877zM2472.514 1655.445l8.703-8.262 49.927 52.59-8.703 8.262zM2385.092 1843.966c-1.416-1.11-35.056-27.726-67.066-75.575a338.05 338.05 0 01-42.444-88.041 293.57 293.57 0 01-11.786-116.196l.643-6.462 6.393 1.15c1.05.19 26.092 4.825 58.854 21.377 30.198 15.256 72.856 43.98 104.59 94.183l-10.145 6.413c-30.168-47.731-70.742-75.119-99.467-89.689a248.414 248.414 0 00-49.519-18.99c-6.13 81.796 24.992 147.83 52.629 189.244 30.944 46.37 64.387 72.879 64.72 73.14z"/><path d="M2423.51 1841.133c-.473-1.425-48.119-143.275-120.879-219.332l8.672-8.295c39.088 40.86 70.62 99.579 90.187 141.644a865.165 865.165 0 0133.408 82.203z" fill="#9bd"/><path fill="#9bd" d="M2291.58 1643.276l3.773-11.39 41.458 13.732-3.773 11.39zM2342.788 1625.614l11.964-.921 4.04 52.461-11.965.922zM2658.052 1844.457l-5.948-10.422c.313-.18 31.586-18.575 60.985-69.834 26.765-46.665 57.298-130.666 52.347-267.183a211.485 211.485 0 00-53.98 24.266c-30.052 18.81-70.59 54.602-93.044 118.292l-11.317-3.99c23.69-67.197 66.616-104.936 98.455-124.76 34.564-21.524 63.276-27.063 64.48-27.288l6.787-1.268.31 6.896c2.86 63.642-1.522 121.837-13.027 172.968-9.243 41.08-23.083 77.742-41.134 108.963-31.023 53.657-63.545 72.58-64.914 73.36z"/><path d="M2618.713 1839.938l-11.92-1.39c.055-.469 5.668-47.555 23.447-107.416 16.45-55.393 47.006-133.491 99.148-190.985l8.889 8.06c-50.574 55.767-80.375 131.993-96.469 186.12-17.516 58.91-23.041 105.15-23.095 105.61z" fill="#9bd"/><path fill="#9bd" d="M2685.37 1602.226l1-47.642 11.998.253-1 47.641zM2674.712 1623.585l57.264-18.63 3.713 11.412-57.264 18.63zM2645.247 1611.296l11.931-1.272 6.42 60.233-11.931 1.271zM2611.35 1679.567l11.344-3.917 19.015 55.08-11.344 3.916zM2624.676 1763.476l73.64-23.904 3.705 11.414-73.64 23.904zM2594.883 1778.326l10.348-6.076 18.094 30.81-10.348 6.077z"/><path d="M2763.648 1878.156H7.306a56.126 56.126 0 0156.125-56.125h2644.091a56.126 56.126 0 0156.126 56.125z" fill="#576c89"/><path d="M2287.466 537.414h-49.736a129.46 129.46 0 01129.431 129.497v873.712a129.502 129.502 0 01-129.431 129.497h49.736a129.502 129.502 0 00129.432-129.497V666.91a129.46 129.46 0 00-129.432-129.497z" fill="#466eb6"/><path d="M1235.892 1767.177a31.722 31.722 0 000 63.443h616.611a31.722 31.722 0 000-63.443h-616.61z" fill="#86b1f2"/><path d="M1904.72 1767.177h-52.217a31.721 31.721 0 010 63.443h52.217a31.721 31.721 0 000-63.443z" fill="#466eb6"/><path fill="#355389" d="M1743.044 1670.12l50.716 97.057h42.23l-50.781-97.057h-42.165z"/><path fill="#466eb6" d="M1412.123 1670.12l50.715 97.057h330.922l-50.716-97.057h-330.921z"/><path d="M835.262 537.414H2237.73a129.46 129.46 0 01129.431 129.497v873.712a129.502 129.502 0 01-129.431 129.497H835.262a129.502 129.502 0 01-129.432-129.497V666.91a129.46 129.46 0 01129.432-129.497zm.065 984.737H2237.73a90.393 90.393 0 0090.27-90.334V666.91a90.393 90.393 0 00-90.27-90.334H835.327a90.448 90.448 0 00-90.335 90.334v764.906a90.448 90.448 0 0090.335 90.334z" fill="#86b1f2"/><path d="M2327.983 666.9v764.894a90.263 90.263 0 01-51.885 81.72 89.143 89.143 0 01-38.386 8.625H835.318a90.459 90.459 0 01-90.345-90.345V666.9a90.35 90.35 0 0190.345-90.345h1402.394a90.268 90.268 0 0190.27 90.345z" fill="#efefef"/><g clip-path="url(#prefix__a)"><path fill="#fec65e" d="M834.186 1607.754h445.797v34.234H834.186z"/><path fill="#fe875e" d="M1058.218 1561.238l-221.766 46.516h443.531l-221.765-46.516z"/><path fill="#fec65e" d="M1013.15 1529.298h90.135v38.983h-90.135zM1013.197 1451.274h90.135v38.983h-90.135z"/><path fill="#fe875e" d="M1031.731 1490.315h52.974v38.983h-52.974z"/><path d="M957.535 1374.749l22.244 9.789a3.697 3.697 0 011.894 4.873l-27.977 63.569a3.697 3.697 0 01-4.873 1.894l-22.243-9.79a3.697 3.697 0 01-1.895-4.872l27.978-63.569a3.697 3.697 0 014.872-1.894zM1213.548 793.04l22.243 9.79a3.697 3.697 0 011.895 4.872l-27.977 63.57a3.697 3.697 0 01-4.873 1.894l-22.243-9.79a3.697 3.697 0 01-1.895-4.873l27.977-63.569a3.697 3.697 0 014.873-1.894z" fill="#fae0b2"/><path d="M1051.161 1457.343a345.48 345.48 0 01-139.423-29.532 10.552 10.552 0 118.502-19.316 325.252 325.252 0 00428.731-166.682c72.251-164.158-2.524-356.485-166.682-428.737a10.552 10.552 0 118.502-19.315c174.808 76.936 254.432 281.747 177.496 456.555a347.208 347.208 0 01-317.126 207.027z" fill="#fec65e"/><path d="M825.208 1275.657c.891 17.412 0 48.19 0 48.19l-.068.068a304.03 304.03 0 01-93.5-219.695c0-8.363.343-16.657 1.029-24.814h.068c0 1.782.412 14.052 11.654 24.814 12.132 11.585 17.342 15.903 26.048 20.701 8.705 4.799 34.753 20.428 34.753 20.428s5.278 1.713 20.016 20.838 28.653 26.117 32.149 36.536c3.496 10.42 10.42 19.947 10.42 19.947s-26.049 35.645-31.259 39.14c-5.21 3.428-12.132-3.495-11.31 13.847zM1145.805 1367.785c3.359 18.028 11.242 16.109 12.27 15.766v.069a304.177 304.177 0 01-121.74 25.294 280.2 280.2 0 0018.85-32.423c8.363-17.411-1.44-12.202-4.935-46.955-3.496-34.754 0 0 2.193-5.21 2.262-5.21 4.73-20.838 0-34.753-4.318-12.75-.754-10.9-.068-10.488-1.988-1.782-33.726-30.024-43.87-46.612-3.84-6.375-5.827-9.529-6.718-10.831.41-3.359 1.508-13.71 1.508-20.701 0-6.924-19.057-3.428-24.266-3.428-5.278 0-26.117 5.21-40.17 6.924-14.12 1.713-22.414 36.467-22.414 26.048s-8.706-6.924-12.202-7.815c-3.427-.822-8.637-11.31-12.133-19.947-3.495-8.706-8.705-5.21-15.628-13.915-6.992-8.706-12.202-12.202-19.125-31.326-6.992-19.057-12.202-12.133-26.048-39.964-13.915-27.761 0 0 3.427-13.298 3.496-13.298 8.706-7.54 21.044-17.96 12.27-10.419 17.206-3.495 17.206-3.495s12.133 8.705 19.124 21.455c6.924 12.75 29.544 9.87 29.544 9.87l-5.21-15.628c-1.233-3.633-1.85-5.62-2.193-6.58l-.274-.892c-.206-.616-.548-1.508-1.028-3.016-3.496-10.419-24.334-36.467-6.923-55.592 17.342-19.124 17.342-12.133 29.544-31.257 12.133-19.125 24.334-13.915 38.18-12.202 13.916 1.782 10.488 1.782 33.04 0 22.621-1.713 26.049-1.713 33.04-26.048 6.924-24.334 0 0-3.496-22.62-3.495-22.553 0-19.057 0-38.387s-8.705-1.577-20.838 0c-12.201 1.508-15.629 1.92-22.62 7.129-6.924 5.21-17.343 19.125-31.258 22.62-13.915 3.428-8.706 0-27.83-7.06-19.125-7.06 0-17.274 3.495-32.903 3.496-15.697 16.863 0 16.863 0a79.921 79.921 0 0116.177-13.915c10.42-6.992 17.343-3.496 34.754-14.12 17.342-10.626 6.923 5.415 31.257 0 24.335-5.416 13.916-11.38 13.916-11.38v-11.31s-17.411 2.057-33.04.274c-15.63-1.713-43.46 3.496-67.725 14.875-24.335 11.379-15.698 7.746-22.62 2.742-6.924-5.004-46.956-1.92-71.085 0a304.641 304.641 0 01393.874 27.83c-3.975-3.359-41.265 10.282-44.761 20.633-3.428 10.42 1.782 13.915-10.42 26.048-12.132 12.202-12.132 12.202-39.963 22.62s-24.334-5.209-39.963 19.126c-15.629 24.265-19.125 29.475-15.629 41.676 3.496 12.133-1.782 33.04 22.552 26.049 24.335-6.924 15.698-29.544 41.746-20.839a228.27 228.27 0 0049.971 10.42s-9.048-26.049 0-31.258c9.117-5.21 25.705 3.427 36.536 12.133s10.83 6.991 17.754 17.41 13.915 14.944 19.124 13.504c5.21-1.37 24.335-29.132 24.335-29.132l11.242-16.589a304.138 304.138 0 0118.096 84.245h-.068c-18.85-12.064-22.347-10.35-51.89-10.35s-33.04 6.786-59.089-.07c-26.048-6.854-24.334-12.063-55.592-10.35-31.258 1.714-26.048-3.907-45.173 10.214-19.124 14.12-29.544-.343-34.753 32.08-5.21 32.423-13.915 27.213 0 55.044 13.915 27.762 13.915 22.552 27.761 50.382 13.916 27.83 24.335 5.21 19.125 45.173s-5.21 46.955-5.21 53.878c0 6.992-3.495 27.83-3.495 36.536 0 8.637 10.35 3.153 13.915 22.552zm-1.714-432.74v-27.762c-10.419 0 5.21-12.201-10.419 0-15.629 12.133-20.839 26.048-24.334 31.258s-11.654 8.705-11.654 8.705z" fill="#466eb6"/><path d="M1052.443 1324.326c-2.193 5.21-5.69-29.544-2.193 5.21 3.496 34.753 13.298 29.544 4.935 46.955a280.2 280.2 0 01-18.85 32.423 303.67 303.67 0 01-211.195-85l.068-.068s.891-30.777 0-48.189c-.822-17.342 6.1-10.419 11.31-13.846 5.21-3.496 31.258-39.14 31.258-39.14s-6.923-9.529-10.42-19.948c-3.495-10.42-17.41-17.411-32.148-36.536-14.738-19.125-20.016-20.838-20.016-20.838s-26.048-15.63-34.753-20.428c-8.706-4.798-13.916-9.116-26.048-20.7-11.242-10.763-11.654-23.033-11.654-24.815h-.068A303.996 303.996 0 01855.78 858.82c24.13-1.92 64.16-5.004 71.084 0 6.923 5.004-1.714 8.637 22.62-2.742 24.267-11.379 52.097-16.588 67.726-14.875 15.629 1.783 33.04-.274 33.04-.274v11.31s10.419 5.964-13.916 11.38c-24.334 5.415-13.915-10.626-31.257 0-17.411 10.624-24.335 7.128-34.754 14.12a79.921 79.921 0 00-16.177 13.915s-13.367-15.697-16.863 0c-3.496 15.63-22.62 25.843-3.496 32.903 19.125 7.06 13.916 10.488 27.83 7.06 13.916-3.495 24.335-17.41 31.258-22.62 6.992-5.21 10.42-5.621 22.621-7.13 12.133-1.576 20.838-19.33 20.838 0s-3.495 15.835 0 38.387c3.496 22.621 10.42-1.713 3.496 22.621-6.991 24.335-10.419 24.335-33.04 26.048-22.552 1.782-19.124 1.782-33.04 0-13.846-1.713-26.047-6.923-38.18 12.202-12.202 19.124-12.202 12.133-29.544 31.257-17.411 19.125 3.427 45.173 6.923 55.592.48 1.508.822 2.4 1.028 3.016l.274.892c.343.96.96 2.947 2.194 6.58l5.21 15.629s-22.621 2.879-29.545-9.87c-6.991-12.75-19.124-21.456-19.124-21.456s-4.936-6.924-17.206 3.496c-12.338 10.419-17.548 4.66-21.044 17.96-3.427 13.297-17.342-14.464-3.427 13.297 13.846 27.83 19.056 20.907 26.048 39.964 6.923 19.124 12.133 22.62 19.125 31.326 6.923 8.705 12.133 5.21 15.628 13.915 3.496 8.637 8.706 19.125 12.133 19.947 3.496.891 12.202-2.605 12.202 7.815s8.294-24.335 22.415-26.048c14.052-1.714 34.89-6.924 40.169-6.924 5.21 0 24.266-3.496 24.266 3.428 0 6.992-1.097 17.342-1.508 20.701-.48-.685-.686-.891-.755-.823 0 .275.549 1.508.549 1.851a3.477 3.477 0 00.206-1.028c.89 1.302 2.878 4.456 6.717 10.83 10.145 16.589 41.883 44.83 43.87 46.613-.685-.411-4.25-2.262.07 10.488 4.729 13.915 2.261 29.544 0 34.753zM1158.075 1383.551c-1.028.343-8.911 2.262-12.27-15.766-3.565-19.399-13.915-13.915-13.915-22.552 0-8.705 3.496-29.544 3.496-36.536 0-6.923 0-13.915 5.21-53.878s-5.21-17.343-19.126-45.173c-13.846-27.83-13.846-22.62-27.761-50.382-13.915-27.83-5.21-22.621 0-55.044s15.629-17.96 34.753-32.08c19.125-14.121 13.915-8.5 45.173-10.214 31.258-1.713 29.544 3.496 55.592 10.35 26.048 6.856 29.544.07 59.088.07s33.04-1.714 51.89 10.35h.07c.479 7.13.753 14.258.753 21.524 0 125.03-75.265 232.445-182.953 279.4zM1133.672 907.283c15.629-12.201 0 0 10.42 0v27.762l-46.408 12.201s8.158-3.496 11.654-8.705 8.705-19.125 24.334-31.258zM1322.178 998.383v.068l-11.242 16.589s-19.125 27.762-24.334 29.132c-5.21 1.44-12.202-3.084-19.125-13.503s-6.924-8.706-17.754-17.411-27.42-17.343-36.536-12.133c-9.048 5.21 0 31.257 0 31.257a228.27 228.27 0 01-49.971-10.419c-26.048-8.705-17.411 13.915-41.746 20.839-24.334 6.991-19.056-13.916-22.552-26.049-3.496-12.201 0-17.41 15.63-41.676 15.628-24.335 12.132-8.706 39.962-19.125s27.83-10.42 39.964-22.62c12.201-12.134 6.991-15.63 10.419-26.049 3.496-10.35 40.786-23.992 44.761-20.633a.067.067 0 00.069.069 305.694 305.694 0 0172.455 111.664z" fill="#50bfa5"/><path d="M1361.275 1233.478l-32.71-29.503a36.115 36.115 0 01-2.63-51.006l15.958-17.693a36.115 36.115 0 0151.006-2.63l32.71 29.503a36.115 36.115 0 012.63 51.007l-15.957 17.692a36.115 36.115 0 01-51.007 2.63z" fill="#fae0b2"/><path d="M1419.073 1174.905c9.01-1.497 17.016 15.782 15.519 6.772l-7.708-61.064a16.655 16.655 0 00-19.104-13.66 16.655 16.655 0 00-13.66 19.105l5.848 35.188a16.655 16.655 0 0019.105 13.66z" fill="#fae0b2"/><path d="M1397.263 1158.945a16.655 16.655 0 00-1.21-23.454l-26.488-23.89a16.655 16.655 0 00-23.454 1.209 16.655 16.655 0 001.21 23.454l26.488 23.89a16.655 16.655 0 0023.454-1.209z" fill="#fae0b2"/><path d="M1366.693 1159.204a16.655 16.655 0 00-1.21-23.454l-26.488-23.89a16.655 16.655 0 00-23.454 1.209 16.655 16.655 0 001.21 23.454l26.488 23.89a16.655 16.655 0 0023.454-1.21z" fill="#fae0b2"/><path d="M1359.126 1180.322a16.655 16.655 0 00-1.21-23.454l-26.488-23.891a16.655 16.655 0 00-23.454 1.21 16.655 16.655 0 001.21 23.453l26.488 23.89a16.655 16.655 0 0023.454-1.208z" fill="#fae0b2"/><path d="M1360.404 1209.326a16.655 16.655 0 00-1.209-23.454l-26.488-23.89a16.655 16.655 0 00-23.454 1.209 16.655 16.655 0 001.21 23.454l26.487 23.89a16.655 16.655 0 0023.454-1.21z" fill="#fae0b2"/><path d="M1657.674 1170.527c72.058-99.888 180.591-118.97 193.887-120.968-94.446 16.43-166.882 96.96-170.774 195.092-.138 2.79-.207 5.614-.207 8.439v123.517c-158.753 89.072-305.83-125.756-305.83-125.756l73.366-68.096c59.382 64.617 132.713 94.308 209.558-12.228z" fill="#3c8f7c"/><path d="M2258.927 1417.813c0 128.545-32.103 233.256-132.163 329.7-3.445-1-13.64-3.273-39.439-28.176-16.223-15.603-27.383-51.046-27.383-51.046s5.236-8.611 12.676-23.32l-36.27.035-224.749.207-127.994.138a18.538 18.538 0 01-18.566-19.737l15.535-248.997V1253.1c0-2.824.069-5.648.206-8.438 3.893-98.132 76.328-178.662 170.775-195.092l1.343-.207a207.488 207.488 0 0134.237-2.824h73.16a206.546 206.546 0 0134.134 2.824 203.285 203.285 0 0143.779 12.4c119.418 42.366 220.684 190.993 220.719 356.05z" fill="#50bfa5"/><path d="M2004.946 1645.385h-224.783v-.172l37.303-556.342s26.557-42.332 38.233-42.332h73.16a206.546 206.546 0 0134.134 2.824l2.858 40.644 39.06 555z" fill="#f7cc7f"/><path d="M1819.519 1056.478l-39.362 657.926-123.501-26.362 46.068-325.097s17.026-103.937 32.576-161.6 84.219-144.867 84.219-144.867zM1962.993 1049.363l41.953 664.705 147.549-16.614s21.902-107.476 42.411-208.376 1.827-277.076-49.376-326.377c-51.203-49.301-182.537-113.338-182.537-113.338z" fill="#50bfa5"/><path d="M2026.862 1249.659s23.357 51.74 40.822 132.077c17.464 80.337-7.742 286.555-7.742 286.555l12.682-24.633s57.407-117.839 48.937-190.317c-8.469-72.478-36.845-136.662-94.699-203.682z" fill="#3c8f7c"/><path fill="#fe875e" d="M1342.556 1117.387l2.435-2.435 38.215 38.215-2.435 2.435zM1311.378 1131.846l2.435-2.435 37.419 37.418-2.435 2.436zM1311.996 1162.493l2.436-2.435 32.154 32.154-2.435 2.436z"/><path d="M1966.073 1098.168c-17.91 8.647-44.944 12.87-74.014 12.87-30.311 0-57.42-5.924-75.33-15.224l2.445-36.27.207-3.03a.204.204 0 01.138-.036h-.138a20.788 20.788 0 003.996-2.135c3.616-2.48 8.3-7.268 7.887-15.258-.172-3.824-3.788-14.846-3.788-14.846l-4.03-15.43-.07-.173-14.535-56.041 145.802-12.779s-12.468 67.029-10.505 91.863c1.31 16.464 19.376 14.887 19.376 14.887z" fill="#fae0b2"/><path d="M1933.667 983.182s-11.022 58.83-92.586 73.263c-5.167.93-15.224 2.376-21.907 3.1l.207-3.031a.204.204 0 01.138-.036h-.138a20.788 20.788 0 003.996-2.135c3.616-2.48 8.3-7.268 7.887-15.258-.172-3.824-4.091-16.006-4.091-16.006s78.456 7.566 106.494-39.897z" fill="#fe875e"/><path d="M1982.631 894.191c-2.437 67.789-45.017 130.458-112.806 128.021s-127.461-.03-132.678-136.845c-3.62-94.957 59.366-120.767 127.154-118.33a122.821 122.821 0 01118.33 127.154z" fill="#fae0b2"/><path d="M1754.565 841.56c5.356 3.95 13.628 7.198 26.27 8.552 44.113 4.66 124.232-31.391 124.232-31.391s-7.859 23.857-5.203 66.981c0 0 14.2-27.358 34.433-1.158 18.104 23.524-7.685 51.36-23.165 45.29 0 0-7.165 53.328-33.808 58.143-26.677 4.82-31.794-20.116-71.686-30.184-39.858-10.074-53.35 10.572-53.35 10.572 34.506 81.395 149.997 51.601 149.997 51.601s14.352 14.425 45.138 11.268c30.786-3.157 36.91-69.544 36.91-69.544 20.827 7.425 44.413-33.491 48.009-95.883 3.63-62.4-54.188-64.28-54.188-64.28s6.913-43.705-60.788-68.131c-65.93-23.786-89.372 1.844-90.55 3.194.595-2.01 13.358-44.665-21.21-45.305-35.414-.652-30.986 35.642-30.986 35.642-39.511-35.783-95.963 12.97-85.8 53.912 10.136 40.982 57.116 36.672 57.116 36.672a22.089 22.089 0 008.629 24.05z" fill="#13375b"/><path d="M1900.345 846.479s-1.799 42.542.406 69.389c2.205 26.846 4.015 54.19-13.254 67.406 0 0 33.037-9.725 24.04-57.366s-6.34-50.914-.692-66.23c5.647-15.315-10.5-13.2-10.5-13.2z" fill="#13375b"/><path d="M1468.802 1201.698a1.73 1.73 0 00.062-.326 1.71 1.71 0 00-.047-.32 1.66 1.66 0 00-.065-.326 1.724 1.724 0 00-.177-.296 1.662 1.662 0 00-.15-.251c-.011-.012-.026-.016-.037-.028-.012-.012-.016-.028-.027-.04l-18.14-17.945a1.685 1.685 0 00-.239-.156 1.735 1.735 0 00-.299-.196 1.63 1.63 0 00-.303-.074 1.765 1.765 0 00-.335-.063 6.344 6.344 0 00-.643.112 1.702 1.702 0 00-.31.185 1.632 1.632 0 00-.24.142l-13.53 12.29-.005.004-.003.004-6.73 6.114h-.001l-.001.001-13.464 12.232-.004.001-.002.005-6.727 6.11h-.001l-.001.001-33.79 30.697a1.623 1.623 0 00-.16.215 1.73 1.73 0 00-.197.267 1.671 1.671 0 00-.112.322 1.7 1.7 0 00-.075.303 1.458 1.458 0 00.214.97 1.643 1.643 0 00.107.227l15.342 20.552c.015.02.04.027.055.046.021.025.027.057.05.082a1.596 1.596 0 00.35.252 1.653 1.653 0 00.202.145 1.593 1.593 0 001.66-.145c.028-.019.064-.01.091-.03.022-.016.031-.04.052-.057.024-.02.053-.027.076-.048l34.99-31.813 7.021-6.385.005-.003.003-.005 14.034-12.76.006-.004.004-.005 7.019-6.381v-.001l.001-.001 13.976-12.707c.012-.011.016-.026.028-.037.011-.012.027-.015.04-.027a1.615 1.615 0 00.162-.25 1.722 1.722 0 00.188-.284 1.69 1.69 0 00.077-.315zm-8.59 3.62l-15.47-15.726 4.217-3.83 15.69 15.522zm-6.988 6.353l-15.25-15.93 4.217-3.831 15.47 15.726zm-6.989 6.355l-15.03-16.136 4.218-3.832 15.251 15.931zm-6.989 6.355l-14.81-16.341 4.218-3.832 15.03 16.136zm-6.986 6.352l-14.59-16.546 4.217-3.832 14.811 16.341zm-6.99 6.355l-14.37-16.753 4.218-3.831 14.592 16.547zm-6.985 6.351l-14.153-16.954 4.218-3.833 14.37 16.754zm-6.987 6.353l-13.932-17.162 4.215-3.828 14.154 16.956zm-6.99 6.355l-13.71-17.368 4.212-3.826 13.933 17.163zm-6.984 6.35l-13.493-17.572 4.211-3.825 13.712 17.37zm-6.988 6.355l-13.273-17.779 4.21-3.824 13.494 17.574z" fill="#1d135b"/><path fill="#9bc1f9" d="M1183.144 770.145l35.251 152.505h428.323l79.996 65.018-90.213-217.523h-453.357z"/><path d="M1598.702 821.843H1298.32a7.718 7.718 0 110-15.436h300.382a7.718 7.718 0 010 15.436zM1589.675 850.737h-337.197a7.718 7.718 0 110-15.436h337.197a7.718 7.718 0 010 15.436zM1581.2 877.862h-337.198a7.718 7.718 0 110-15.436H1581.2a7.718 7.718 0 110 15.436z" fill="#466eb6"/></g><path d="M2327.983 666.9v18.104H744.973V666.9c0-46.36 36.668-90.345 87.541-90.345h1408.86c38.28 0 86.609 34.351 86.609 90.345z" fill="#466eb6"/><circle cx="836.918" cy="631.372" r="20.573" fill="#171c51"/><circle cx="943.198" cy="631.372" r="20.573" fill="#171c51"/><circle cx="1044.061" cy="631.372" r="20.573" fill="#171c51"/><g style="mix-blend-mode:soft-light" fill="#fff"><path d="M1414.656 1522.135h-270.021L840.081 576.561h270.025l304.55 945.574zM1568.304 1522.135h-80.61l-304.55-945.574h80.542l304.618 945.574zM2205.868 1522.135h-270.025l-304.554-945.574h270.025l304.554 945.574zM2327.988 1424.425v7.376a90.282 90.282 0 01-51.89 81.719L1974.35 576.56h80.546z"/></g><path d="M706.763 1760.275s-9.21 30.03.36 66.9l32.04-2.67 91.08-6.96v-.03a189.952 189.952 0 01-2.76-31.59 213.432 213.432 0 012.76-31.62l-89.76 4.26z" fill="#fae0b2"/><path d="M697.163 1746.205s-17.82 41.46 0 95.13l135.51-8.94c2.91-.21 5.19-3.66 5.1-7.77-.12-4.05-2.52-7.23-5.37-7.23h-.24l-1.92.15-91.08 6.96-32.04 2.67c-9.57-36.87-.36-66.9-.36-66.9l33.72-1.71 89.76-4.26 2.19-.12c2.88-.15 5.16-3.45 5.16-7.5 0-4.11-2.4-7.47-5.31-7.47h-.24z" fill="#f79c8d"/><path fill="#f47458" d="M293.033 1733.215h12.93l391.2 12.99 134.88-6.99-393.659-7.823-145.351 1.823z"/><path d="M293.033 1733.215s-18.84 55.62-2.1 96.9h15.03l391.2 11.22c-17.82-53.67 0-95.13 0-95.13l-391.2-12.99z" fill="#f47458"/><path d="M704.69 1779.321c14.111.658 28.16.209 42.195-.511 14.028-.83 28.041-1.939 41.992-4.162-14.111-.666-28.16-.216-42.195.511-14.028.838-28.04 1.948-41.992 4.162zM776.67 1801.85a132.381 132.381 0 0023.352-.378 130.845 130.845 0 0023.008-4.018 130.845 130.845 0 00-23.353.378 132.349 132.349 0 00-23.008 4.017z" fill="#e5bd83"/><path d="M766.296 1813.579c5.825-9.028 4.743-29.585-1.997-37.953l-35.551 1.87c6.742 8.368 7.823 28.924 1.997 37.954a131.455 131.455 0 0020.97-10.382 146.34 146.34 0 0014.581 8.51zM664.122 1840.27c-16.758-41.288 2.056-95.155 2.056-95.155h-36.574s-18.813 53.867-2.056 95.156zM356.855 1831.904c-16.758-41.288 2.055-95.155 2.055-95.155h-36.574s-18.813 53.867-2.055 95.155z" fill="#f8c558"/><path d="M452.651 1664.34s12.93 30.03-.48 66.9l-50.91-2.79-127.68-6.96v-.03a137.597 137.597 0 003.87-31.59c0-15.66-3.87-31.62-3.87-31.62v-.03l125.85 4.29z" fill="#fae0b2"/><path d="M270.911 1721.34l2.67.15 127.68 6.96 50.91 2.79c13.41-36.87.48-66.9.48-66.9l-53.22-1.83-125.85-4.29-3.03-.09a7.487 7.487 0 01.21-14.97h.33l189.03 6.99s24.96 41.46 0 95.13l-189.93-8.94a7.504 7.504 0 01.39-15z" fill="#50bfa5"/><path fill="#3c8f7c" d="M271.091 1643.161l518.01-6.54-2.85.12-326.13 13.41-189.03-6.99z"/><path d="M466.443 1649.89l319.808-13.15a28.219 28.219 0 0129.31 28.05l.21 39.84a28.18 28.18 0 01-27.12 28.35l-328.53 12.3c24.96-53.67 0-95.13 0-95.13z" fill="#3c8f7c"/><path d="M451.703 1690.067c-9.871.695-19.71.8-29.537.696-9.83-.066-19.64-.483-29.446-.967-9.8-.597-19.595-1.269-29.372-2.29-9.778-.982-19.545-2.178-29.278-3.97 9.872-.702 19.71-.81 29.538-.704 9.83.068 19.64.484 29.445.976 9.8.604 19.595 1.276 29.371 2.298 9.779.985 19.545 2.178 29.28 3.961zM347.384 1705.795a257.44 257.44 0 01-32.613-.373 254.458 254.458 0 01-32.365-4.021 254.492 254.492 0 0132.612.373 257.421 257.421 0 0132.366 4.021z" fill="#e5bd83"/><path d="M364.895 1748.831c-9.97-14.684-8.958-49.557 1.848-63.638 19.594.57 38.465 2.986 58.06 3.556-10.81 14.08-11.095 47.104-1.122 61.791a217.138 217.138 0 01-35.034-16.33c-8.578 5.77-16.353 10.834-23.752 14.621z" fill="#f47458"/><path d="M641.876 1553.346l-9.258.838a41.781 41.781 0 0138.727 44.658l-.907 12.766a41.78 41.78 0 01-33.628 38.011l148.808-11.943a44.921 44.921 0 0040.32-49.339l-.71-6.86a44.867 44.867 0 00-48.646-40.12l-.03.001z" fill="#355389"/><path fill="#355389" d="M283.578 1546.246l349.04 7.938 9.258-.838 134.676-11.988h.03l1.618-.146-494.622 5.034z"/><path d="M293.613 1560.307l338.254 8.86a26.707 26.707 0 0119.222 10.616 28.123 28.123 0 015.223 18.969l-.863 11.775a26.967 26.967 0 01-26.246 24.901c-.78.013-1.59-.034-2.372-.082l-.36-.024-333.313-7.559-8.284-.198a6.9 6.9 0 00-7.03 7.013l.02 1.23a6.875 6.875 0 006.709 6.764l341.176 7.733a41.175 41.175 0 0011.06-.686 41.78 41.78 0 0033.63-38.01l.906-12.767a41.781 41.781 0 00-38.727-44.658l-349.04-7.938a6.891 6.891 0 00-.35 13.777z" fill="#466eb6"/><path d="M293.158 1627.763l333.313 7.559.36.024c.781.048 1.592.095 2.372.082a26.967 26.967 0 0026.246-24.901l.863-11.775a28.123 28.123 0 00-5.223-18.97 26.707 26.707 0 00-19.222-10.614l-338.254-8.86c.13.597 4.41 20.722 4.617 33.65.205 12.868-5.072 33.805-5.072 33.805z" fill="#fae0b2"/><path d="M627.003 1588.712c-9.761-1.629-19.546-2.666-29.339-3.494-9.791-.867-19.596-1.382-29.404-1.83-9.812-.335-19.628-.596-29.457-.507-9.827.051-19.663.315-29.523 1.175 9.76 1.636 19.546 2.676 29.338 3.503 9.792.865 19.597 1.38 29.405 1.82 9.813.329 19.628.59 29.457.499 9.828-.053 19.664-.314 29.523-1.166zM546.315 1616.145c-9.76-1.629-19.545-2.666-29.338-3.494-9.791-.867-19.597-1.382-29.404-1.83-9.813-.335-19.628-.595-29.457-.507-9.828.051-19.664.316-29.523 1.176 9.76 1.635 19.545 2.675 29.338 3.503 9.791.864 19.597 1.38 29.405 1.82 9.812.328 19.628.589 29.457.498 9.827-.053 19.663-.314 29.522-1.166z" fill="#e5bd83"/><path d="M533.011 1667.066c-13.552-18.145-14.424-63.055-1.457-81.625 25.008-.399 47.235 2.243 72.244 1.844-12.97 18.569-9.31 60.436 4.246 78.585a277.06 277.06 0 01-45.596-18.806c-10.603 7.848-20.223 14.75-29.437 20.002z" fill="#50bfa5"/><path d="M459.88 1598.593c-13.435-1.628-26.887-2.664-40.346-3.491-13.457-.865-26.924-1.38-40.394-1.826-13.472-.335-26.947-.594-40.432-.504-13.483.053-26.973.319-40.48 1.18 13.435 1.635 26.888 2.674 40.346 3.5 13.457.864 26.925 1.378 40.394 1.818 13.473.327 26.948.585 40.433.494 13.483-.054 26.973-.317 40.48-1.17z" fill="#e5bd83"/><path d="M765.983 1259.797h-438.12s7.65 31.71 7.65 66.18c0 33.48-7.65 66.18-7.65 66.18h438.12a28.142 28.142 0 0028.14-28.14v-76.05a28.148 28.148 0 00-28.14-28.17z" fill="#fae0b2"/><path d="M321.953 1241.797a9.007 9.007 0 00-9 9 9.014 9.014 0 009 9h444.03a28.148 28.148 0 0128.14 28.17v76.05a28.142 28.142 0 01-28.14 28.14h-444.03a9 9 0 000 18h444.03a46.137 46.137 0 0046.14-46.14v-76.08a46.137 46.137 0 00-46.14-46.14z" fill="#184655"/><path d="M737.086 1285.416q-38.915-1.739-77.83-2.332c-25.944-.479-51.888-.607-77.832-.666-25.943.052-51.887.18-77.83.657q-38.916.588-77.832 2.34 38.916 1.75 77.831 2.342c25.944.477 51.888.605 77.831.657 25.944-.06 51.888-.188 77.831-.666q38.916-.592 77.831-2.332zM753.312 1325.98c-9.803-1.242-19.606-1.892-29.409-2.333-9.803-.478-19.606-.606-29.408-.666-9.803.052-19.606.18-29.409.657-9.803.44-19.605 1.092-29.408 2.341 9.803 1.249 19.605 1.902 29.408 2.341 9.803.477 19.606.605 29.409.657 9.802-.06 19.605-.187 29.408-.666 9.803-.441 19.606-1.09 29.409-2.332zM678.27 1367.557c-9.804-1.242-19.606-1.891-29.409-2.333-9.803-.478-19.606-.606-29.409-.666-9.802.053-19.605.18-29.408.658-9.803.44-19.606 1.092-29.408 2.34 9.802 1.25 19.605 1.902 29.408 2.342 9.803.477 19.606.605 29.408.657 9.803-.06 19.606-.187 29.409-.666 9.803-.441 19.605-1.091 29.408-2.332zM616.375 1343.219q-33.98-1.74-67.96-2.332c-22.652-.48-45.305-.607-67.959-.667-22.653.053-45.306.18-67.96.658q-33.98.587-67.959 2.34 33.98 1.75 67.96 2.342c22.653.477 45.306.604 67.96.657 22.653-.06 45.306-.188 67.959-.666q33.98-.593 67.96-2.332z" fill="#e5bd83"/><path d="M662.044 1406.091a85.603 85.603 0 000-80.112h75.042a85.6 85.6 0 010 80.112 620.34 620.34 0 00-29.637-21.356 636.052 636.052 0 01-45.405 21.356z" fill="#355389"/><path fill="#fe875e" d="M398.196 1410.235h27.889v132.39h-27.889z"/><path fill="#f7cc7f" d="M351.757 1410.235h46.439v132.39h-46.439zM426.084 1410.235h322.263v132.39H426.084z"/><path fill="#fe875e" d="M748.348 1410.235h27.889v132.39h-27.889z"/><path fill="#f7cc7f" d="M776.236 1410.235h46.439v132.39h-46.439z"/><path d="M822.965 1448.218s35.638 17.183 41.366 63.64l-15.274-12.728-5.409 12.728s-3.5-39.457-20.683-54.73z" fill="#355389"/><ellipse cx="586.367" cy="1476.432" rx="126.431" ry="29.911" fill="#fe875e"/><path d="M696.925 767.834c21.284 8.516 32.682 44.113 34.226 89.747 1.544 45.634 27.485 105.57-.982 121.027s-76.242-21.515-113.108 10.936c-36.866 32.45-90.571 35.434-90.571 35.434s-33.506-26.561-20.323-102.49 63.37-49.442 85.8-80.88c22.431-31.436 33.03-102.551 104.958-73.774z" fill="#13375b"/><path d="M684.785 914.105s-74.413-15.606-72.046 8.733c1.01 10.377 33.2 56.926 33.94 60.793.494 2.826 1.15 5.708 1.73 8.56.606 2.851 1.226 5.698 1.964 8.593.717 2.888 1.388 5.748 2.186 8.639l2.526 8.73c.395 1.441.882 2.919 1.398 4.402l1.51 4.43 1.518 4.417 1.78 4.539 1.831 4.508c.314.754.596 1.489.938 2.256l1.096 2.338 2.212 4.654 1.116 2.314.56 1.154.945 1.743c1.358 2.395 2.702 4.81 4.255 7.046 1.6 2.2 3.256 4.371 4.974 6.444q2.68 2.902 5.5 5.646c1.889 1.716 3.833 3.256 5.803 4.8a84.554 84.554 0 0023.423 12.1c1.863.583 3.795 1.285 5.597 1.714l5.458 1.36c3.535.714 7.091 1.352 10.481 1.735a140.606 140.606 0 0019.708 1.055c12.666-.144 14.256-59.216 5.823-61.359a95.99 95.99 0 01-11.694-3.695c-.85-.366-1.792-.662-2.555-1.062q-1.184-.58-2.366-1.095l-2.08-1.147a20.225 20.225 0 01-1.808-1.16c-2.216-1.547-3.38-6.812-3.38-6.812l-.755-2.717-.388-1.347c-.122-.472-.222-1.007-.334-1.507l-.665-3.034-.714-3.004-.596-3.242c-.383-2.191-.842-4.232-1.18-6.522-.777-4.474-2.322-19.993-4.256-40.546-2.068-21.983-18.068-38.925-43.455-44.454z" fill="#f47458"/><path d="M543.866 1090.977c-1.277-16.604-11.538-48.88-12.395-74.535-1.785-53.41-.452-104.92 85.26-105.384a2.56 2.56 0 01.33-.062c5.68-.964 9.862-1.38 11.84-1.557l1.275-.098c40.036-1.133 68.77 3.04 72.232 32.133 2.112 17.747 16.746 25.507 19.422 44.62 3.479 24.845-3.542 29.006-9.913 49.69-5.047 16.383 39.284 127.133 39.284 127.133l-212.937 4.097s8.645-36.504 5.602-76.037z" fill="#f8c558"/><path d="M628.902 909.439c-1.98.177-6.162.593-11.841 1.557a102.289 102.289 0 0111.84-1.557z" fill="#587cf8"/><path d="M618.908 862.872l55.245 9.499-7.328 20.927-.024.066-2.026 5.768-1.926 5.541-.405 1.146-6.649.759 4.39 4.268s-2.153 8.66-19.546 8.66-23.578-8.508-23.578-8.508z" fill="#fae0b2"/><path d="M617.133 845.968c-1.218 25.954 13.06 47.382 37.958 54.809 19.062 5.686 33.782-2.297 56.027-50.4 10.905-23.581-18.835-47.979-44.788-49.196a47.044 47.044 0 00-49.197 44.787z" fill="#fae0b2"/><path d="M658.292 913.917a6.973 6.973 0 001.894-3.07c.72-2.236 3.908-8.543 3.908-8.543s-29.833-3.507-36.776-23.442c0 0-5.305 24.546 30.974 35.055z" fill="#fe875e"/><path d="M576.43 920.261c-62.9-.754-43.19 149.341 3.126 169.292 57.063 24.58 91.484 16.225 91.484 16.225l.439-34.35c-.326-.149-67.633-10.777-69.258-32.073-3.56-46.638 31.027-115.098-25.791-119.094z" fill="#f47458"/><path d="M740.123 1119.838l-83.47-.055a7.016 7.016 0 014.509 1.579 4.895 4.895 0 011.87 3.78c-.001 2.954-2.876 5.37-6.386 5.367l171.65.114c3.51.003 6.384-2.413 6.386-5.366a4.952 4.952 0 00-1.87-3.781 6.979 6.979 0 00-4.51-1.58z" fill="#d1d1d1"/><path d="M563.08 1119.72a5.363 5.363 0 00-.008 10.727l94.656.063a5.388 5.388 0 005.375-5.367 5.268 5.268 0 00-1.574-3.781 5.357 5.357 0 00-3.794-1.579l-92.667-.061z" fill="#9e9e9e"/><path d="M652.072 1116.973a7.562 7.562 0 005.87 2.806l6.767.004a7.567 7.567 0 01-7.39-9.136l22.49-107.16a7.644 7.644 0 017.438-6.02l-6.767-.004a7.644 7.644 0 00-7.439 6.019l-22.49 107.16a7.51 7.51 0 001.521 6.33z" fill="#d1d1d1"/><path d="M658.84 1116.977a7.562 7.562 0 005.87 2.806l162.897.108a7.644 7.644 0 007.44-6.019l22.49-107.16a7.592 7.592 0 00-7.41-9.137l-162.88-.108a7.644 7.644 0 00-7.438 6.02l-22.49 107.16a7.51 7.51 0 001.52 6.33z" fill="#f4f4f4"/><path d="M748.588 1058.673a8.834 8.834 0 108.84-8.828 8.834 8.834 0 00-8.84 8.828z" fill="#fff"/><path d="M616.366 834.916s58.609 19.498 90.052-11.939c0 0-19.985 22.704-33.819 20.282 0 0 19.615 6.084 33.82-16.225 0 0 3.94 20.524 14.142 24.712 0 0 9.32-57.163-39.929-64.262-49.249-7.098-61.882 24.879-64.266 47.432z" fill="#13375b"/><path d="M958.55 1313.437s14.459 15.616 20.162 12.47l-59.173 38.93-12.613-17.436z" fill="#fae0b2"/><path d="M999.685 1318.62l-16.622 5.769a14.42 14.42 0 01-10.664-.482l-7.93-4.767-16.496 26.646-35.554 9.209 3.5 4.839 18.711-5.27-15.447 10.163a5.594 5.594 0 00-1.599 7.749l4.677 7.109a5.958 5.958 0 008.252 1.703l17.685-11.635.01-9.414 12.698 1.053 55.608-36.584a1.935 1.935 0 00.153-3.12 17.752 17.752 0 00-16.982-2.967z" fill="#13375b"/><path d="M840.345 1410.144s3.496 20.992 9.99 21.5h-70.831l-.955-21.5z" fill="#fae0b2"/><path d="M871.86 1437.083l-17.056-4.317a14.42 14.42 0 01-8.644-6.264l-4.005-8.341-28.426 13.195-34.764-11.848.265 5.966 18.527 5.882h-18.49a5.594 5.594 0 00-5.594 5.594v8.51a5.958 5.958 0 005.957 5.958h21.17l5.182-7.86 10.029 7.86h66.563a1.935 1.935 0 001.843-2.523 17.752 17.752 0 00-12.556-11.812z" fill="#13375b"/><path d="M810.757 1247.765l34.481 162.38h-69.984l-56.688-171.59s20.324-9.268 49.001-21.437c28.678-12.17 35.9 12.618 43.19 30.647z" fill="#355389"/><path d="M539.688 1204.244h.016c8.355 48.3 32.438 60.106 96.188 52.74 79.92-9.239 124.275-37.035 124.275-37.035L898.927 1348l59.34-42.039s-35.866-45.62-82.745-101.972c-49.602-59.623-60.206-92.894-153.75-70.48-57.728 13.83-102.133 14.621-143.938 24.16h-.015c-24.12 5.506-39.555 9.346-39.555 9.346a142.65 142.65 0 001.424 37.23z" fill="#466eb6"/><path d="M539.688 1204.244h.016c49.484 3.15 38.13-46.575 38.13-46.575h-.015c-24.12 5.505-39.555 9.345-39.555 9.345a142.65 142.65 0 001.424 37.23zM953.633 1299.465l-61.463 44.232a6.51 6.51 0 00-1.477 9.058 6.51 6.51 0 009.059 1.477L961.214 1310a6.51 6.51 0 001.477-9.059 6.51 6.51 0 00-9.058-1.476zM846.946 1397.164h-75.724a6.51 6.51 0 00-6.49 6.49 6.51 6.51 0 006.49 6.49h75.724a6.51 6.51 0 006.49-6.49 6.51 6.51 0 00-6.49-6.49z" fill="#11442f"/></g></svg>