<svg xmlns="http://www.w3.org/2000/svg" xmlns:xlink="http://www.w3.org/1999/xlink" viewBox="0 0 1428.958 1310.3"><defs><linearGradient id="prefix__a" x1="1485.766" y1="1314.638" x2="1404.856" y2="1249.674" gradientUnits="userSpaceOnUse"><stop offset="0" stop-color="#fff"/><stop offset="1"/></linearGradient><linearGradient id="prefix__o" x1="1484.756" y1="1315.895" x2="1403.846" y2="1250.931" xlink:href="#prefix__a"/><linearGradient id="prefix__p" x1="-373.384" y1="917.081" x2="-373.384" y2="820.289" gradientTransform="rotate(-17.946 2792.736 -3922.407)" xlink:href="#prefix__b"/><linearGradient id="prefix__q" x1="1434.415" y1="1737.67" x2="186.478" y2="1737.67" gradientUnits="userSpaceOnUse"><stop offset="0" stop-color="#fff"/><stop offset=".988" stop-color="#aeaeae"/></linearGradient><linearGradient id="prefix__c" x1="1079.157" y1="1457.792" x2="1079.157" y2="1322.644" gradientTransform="translate(-183.201)" gradientUnits="userSpaceOnUse"><stop offset="0" stop-color="#6c6c6b"/><stop offset=".151" stop-color="#7c7c7b"/><stop offset=".446" stop-color="#a4a4a4"/><stop offset=".85" stop-color="#e5e5e5"/><stop offset="1" stop-color="#fff"/></linearGradient><linearGradient id="prefix__r" x1="1079.157" y1="1550.015" x2="1079.157" y2="1414.868" xlink:href="#prefix__c"/><linearGradient id="prefix__d" x1="1485.766" y1="1314.638" x2="1404.856" y2="1249.674" gradientUnits="userSpaceOnUse"><stop offset="0" stop-color="#fff"/><stop offset="1" stop-color="#fff"/></linearGradient><linearGradient id="prefix__u" x1="1484.756" y1="1315.895" x2="1403.846" y2="1250.931" xlink:href="#prefix__d"/><linearGradient id="prefix__e" x1="5260.319" y1="1038.634" x2="5260.319" y2="967.807" gradientTransform="matrix(-1 0 0 1 6633.15 0)" gradientUnits="userSpaceOnUse"><stop offset="0" stop-color="#818282"/><stop offset=".102" stop-color="#8f9090"/><stop offset=".718" stop-color="#dfe0e0"/><stop offset="1" stop-color="#fff"/></linearGradient><linearGradient id="prefix__w" x1="1812.557" y1="949.591" x2="1370.135" y2="949.591" gradientTransform="matrix(-1 0 0 1 3143.507 0)" xlink:href="#prefix__e"/><linearGradient id="prefix__x" x1="1812.565" y1="975.712" x2="1370.135" y2="975.712" gradientTransform="matrix(-1 0 0 1 3143.507 0)" xlink:href="#prefix__e"/><linearGradient id="prefix__y" x1="1538.257" y1="942.206" x2="1538.257" y2="801.705" xlink:href="#prefix__e"/><linearGradient id="prefix__f" x1="-1926.606" y1="716.109" x2="-1896.159" y2="716.109" gradientTransform="matrix(-1 0 0 1 -1296.363 0)" gradientUnits="userSpaceOnUse"><stop offset="0" stop-color="#4cc4d8"/><stop offset="1" stop-color="#22abba"/></linearGradient><linearGradient id="prefix__z" x1="-4561.631" y1="784.638" x2="-4620.631" y2="843.138" gradientTransform="translate(5125.643)" xlink:href="#prefix__f"/><linearGradient id="prefix__g" x1="-1842.902" y1="931.039" x2="-1672.902" y2="1163.04" gradientTransform="matrix(-1 0 0 1 -1296.363 0)" gradientUnits="userSpaceOnUse"><stop offset="0" stop-color="#0f1e2d"/><stop offset="1" stop-color="#082947"/></linearGradient><linearGradient id="prefix__A" x1="-1301.499" y1="782.23" x2="-1131.5" y2="1014.229" gradientTransform="scale(-1 1) rotate(-11.396 -265.839 -3114.227)" xlink:href="#prefix__g"/><linearGradient id="prefix__j" x1="-1898.355" y1="781.092" x2="-1898.355" y2="1126.846" gradientTransform="matrix(-1 0 0 1 -1296.363 0)" gradientUnits="userSpaceOnUse"><stop offset="0" stop-color="#f16234"/><stop offset="1" stop-color="#be3727"/></linearGradient><linearGradient id="prefix__B" x1="-1741.455" y1="751.655" x2="-1849.45" y2="1165.637" gradientTransform="matrix(-1 0 0 1 -1296.363 0)" gradientUnits="userSpaceOnUse"><stop offset="0" stop-color="#4bc4d8"/><stop offset="1" stop-color="#0e9097"/></linearGradient><linearGradient id="prefix__h" x1="-3413.586" y1="744.164" x2="-3465.59" y2="670.908" gradientTransform="rotate(-.487 15275.616 -462587.437)" gradientUnits="userSpaceOnUse"><stop offset="0" stop-color="#a7a6a6"/><stop offset=".499" stop-color="#bebebe"/><stop offset=".988" stop-color="#d0d1d1"/></linearGradient><linearGradient id="prefix__C" x1="-523.368" y1="738.331" x2="-523.368" y2="762.533" gradientTransform="scale(-1 1) rotate(.487 -17302.404 -1697.623)" xlink:href="#prefix__h"/><linearGradient id="prefix__D" x1="-8540.151" y1="3869.27" x2="-8598.484" y2="3927.109" gradientTransform="rotate(-58.715 -6695.34 -5839.363)" xlink:href="#prefix__f"/><linearGradient id="prefix__i" x1="-20627.107" y1="-3153.077" x2="-20582.108" y2="-2924.081" gradientTransform="rotate(-36.469 -3832.752 -34415.413)" gradientUnits="userSpaceOnUse"><stop offset="0" stop-color="#101e2c"/><stop offset="1" stop-color="#082947"/></linearGradient><linearGradient id="prefix__E" x1="-18746.981" y1="1598.623" x2="-18701.98" y2="1827.626" gradientTransform="rotate(34.764 -7200.743 33272.898)" xlink:href="#prefix__i"/><linearGradient id="prefix__F" x1="6459.707" y1="570.91" x2="6470.703" y2="821.809" gradientTransform="matrix(-1 0 0 1 7677.656 0)" xlink:href="#prefix__j"/><linearGradient id="prefix__G" x1="6488.763" y1="765.671" x2="6437.263" y2="647.171" gradientTransform="matrix(-1 0 0 1 7677.656 0)" xlink:href="#prefix__h"/><linearGradient id="prefix__H" x1="8451.989" y1="2485.654" x2="8451.989" y2="2529.843" gradientTransform="matrix(1 .0046 .0046 -1 -7156.014 2957.996)" gradientUnits="userSpaceOnUse"><stop offset="0" stop-color="#aeaeae"/><stop offset=".391" stop-color="#cbcbcb"/><stop offset="1" stop-color="#fff"/></linearGradient><linearGradient id="prefix__k" x1="2631.006" y1="1612.217" x2="2631.006" y2="1783.22" gradientTransform="scale(-1 1) rotate(22.526 1006.924 -9242.723)" gradientUnits="userSpaceOnUse"><stop offset="0" stop-color="#fff"/><stop offset="1" stop-color="#aaa"/></linearGradient><linearGradient id="prefix__I" x1="2588.569" y1="1637.719" x2="2588.569" y2="1694.068" xlink:href="#prefix__k"/><linearGradient id="prefix__J" x1="624.876" y1="1833.329" x2="624.876" y2="1577.2" xlink:href="#prefix__c"/><linearGradient id="prefix__l" x1="975.098" y1="854.347" x2="981.046" y2="696.025" gradientUnits="userSpaceOnUse"><stop offset="0" stop-color="#818282"/><stop offset=".336" stop-color="#b7b7b7"/><stop offset=".627" stop-color="#dedede"/><stop offset=".858" stop-color="#f6f6f6"/><stop offset="1" stop-color="#fff"/></linearGradient><linearGradient id="prefix__N" x1="1005.981" y1="1110.819" x2="1005.981" y2="652.006" xlink:href="#prefix__l"/><radialGradient id="prefix__b" cx="-390.593" cy="852.659" r="48.966" gradientTransform="rotate(-17.946 2792.736 -3922.407)" gradientUnits="userSpaceOnUse"><stop offset="0" stop-color="#818282"/><stop offset=".153" stop-color="#868787"/><stop offset=".34" stop-color="#959696"/><stop offset=".545" stop-color="#aeafaf"/><stop offset=".763" stop-color="#d1d1d1"/><stop offset=".989" stop-color="#fdfdfd"/><stop offset="1" stop-color="#fff"/></radialGradient><radialGradient id="prefix__v" cx="5275.749" cy="989.921" r="48.129" gradientTransform="matrix(-1 0 0 1 6633.15 0)" gradientUnits="userSpaceOnUse"><stop offset="0" stop-color="#a5a4a4"/><stop offset=".228" stop-color="#a9a8a8"/><stop offset=".433" stop-color="#b3b2b2"/><stop offset=".628" stop-color="#c5c5c5"/><stop offset=".816" stop-color="#dfdede"/><stop offset="1" stop-color="#fff"/></radialGradient><radialGradient id="prefix__K" cx="953.755" cy="750.384" r="98.946" gradientUnits="userSpaceOnUse"><stop offset="0" stop-color="#818282"/><stop offset=".141" stop-color="#898a8a"/><stop offset=".36" stop-color="#9fa0a0"/><stop offset=".629" stop-color="#c2c3c3"/><stop offset=".935" stop-color="#f4f4f4"/><stop offset="1" stop-color="#fff"/></radialGradient><radialGradient id="prefix__L" cx="601.822" cy="311.491" r="95.496" gradientUnits="userSpaceOnUse"><stop offset="0" stop-color="#818282"/><stop offset=".148" stop-color="#878888"/><stop offset=".34" stop-color="#979898"/><stop offset=".555" stop-color="#b1b2b2"/><stop offset=".786" stop-color="#d6d6d6"/><stop offset="1" stop-color="#fff"/></radialGradient><radialGradient id="prefix__M" cx="953.755" cy="750.383" r="67.681" gradientUnits="userSpaceOnUse"><stop offset="0" stop-color="#818282"/><stop offset=".025" stop-color="#898a8a"/><stop offset=".157" stop-color="#adaeae"/><stop offset=".296" stop-color="#cbcbcb"/><stop offset=".442" stop-color="#e2e2e2"/><stop offset=".598" stop-color="#f2f2f2"/><stop offset=".773" stop-color="#fcfcfc"/><stop offset="1" stop-color="#fff"/></radialGradient><filter id="prefix__m" x="1403.182" y="1245.471" width="29.012" height="29.011" filterUnits="userSpaceOnUse" color-interpolation-filters="sRGB"><feFlood flood-color="#fff" result="bg"/><feBlend in="SourceGraphic" in2="bg"/></filter><filter id="prefix__n" x="1428.575" y="1269.498" width="13.065" height="13.066" filterUnits="userSpaceOnUse" color-interpolation-filters="sRGB"><feFlood flood-color="#fff" result="bg"/><feBlend in="SourceGraphic" in2="bg"/></filter><mask id="prefix__s" x="1051.248" y="806.579" width="29.012" height="29.011" maskUnits="userSpaceOnUse"><g filter="url(#prefix__m)"><g mask="url(#prefix__prefix__g)" transform="translate(-351.934 -438.892)"><path d="M1432.193 1259.977a14.506 14.506 0 11-14.505-14.506 14.505 14.505 0 0114.505 14.506z" style="mix-blend-mode:multiply" fill="url(#prefix__a)"/></g></g></mask><mask id="prefix__t" x="1076.641" y="830.606" width="13.065" height="13.066" maskUnits="userSpaceOnUse"><g filter="url(#prefix__n)"><g mask="url(#prefix__prefix__i)" transform="translate(-351.934 -438.892)"><path d="M1441.64 1276.031a6.533 6.533 0 11-6.535-6.533 6.533 6.533 0 016.536 6.533z" style="mix-blend-mode:multiply" fill="url(#prefix__o)"/></g></g></mask></defs><g style="isolation:isolate"><rect x="167.484" y="534.692" width="381.226" height="519.977" rx="25.248" fill="#16b4c6"/><path d="M523.463 1035.593h-330.73a25.323 25.323 0 01-25.249-25.249v19.077a25.322 25.322 0 0025.248 25.248h330.73a25.322 25.322 0 0025.249-25.248v-19.077a25.323 25.323 0 01-25.248 25.25z" style="mix-blend-mode:color-burn" fill="#d2d2d2"/><path d="M201.868 567.657h312.457a8.417 8.417 0 018.417 8.417v74.62a8.416 8.416 0 01-8.416 8.416H201.865a8.414 8.414 0 01-8.414-8.414v-74.622a8.417 8.417 0 018.417-8.417z" fill="#f3f4f4"/><path d="M514.328 649.57H201.867a8.44 8.44 0 01-8.416-8.415v9.538a8.44 8.44 0 008.416 8.417h312.46a8.44 8.44 0 008.415-8.417v-9.538a8.44 8.44 0 01-8.414 8.416z" fill="#c2e7f7"/><path d="M311.533 772.786h93.129a5.049 5.049 0 015.049 5.049v59.03a5.049 5.049 0 01-5.05 5.049h-93.126a5.05 5.05 0 01-5.05-5.051v-59.028a5.049 5.049 0 015.048-5.05zM424.57 929.995h93.123a5.049 5.049 0 015.049 5.048v59.032a5.049 5.049 0 01-5.049 5.049h-93.125a5.049 5.049 0 01-5.049-5.05v-59.029a5.05 5.05 0 015.051-5.05zm-.002-157.209h93.125a5.049 5.049 0 015.049 5.048v59.03a5.049 5.049 0 01-5.049 5.05h-93.125a5.049 5.049 0 01-5.049-5.05v-59.03a5.049 5.049 0 015.05-5.048zM311.533 851.39h93.127a5.05 5.05 0 015.05 5.05v59.027a5.05 5.05 0 01-5.05 5.051h-93.125a5.05 5.05 0 01-5.05-5.05v-59.03a5.049 5.049 0 015.048-5.049zm113.035-157.21h93.124a5.05 5.05 0 015.05 5.05v59.03a5.049 5.049 0 01-5.049 5.05H424.57a5.05 5.05 0 01-5.05-5.052V699.23a5.049 5.049 0 015.048-5.049zm0 157.21h93.125a5.049 5.049 0 015.049 5.048v59.031a5.049 5.049 0 01-5.049 5.05h-93.125a5.049 5.049 0 01-5.049-5.05v-59.03a5.049 5.049 0 015.05-5.05zm-226.068 0h93.127a5.049 5.049 0 015.048 5.048v59.031a5.049 5.049 0 01-5.048 5.05h-93.125a5.05 5.05 0 01-5.051-5.052v-59.029a5.049 5.049 0 015.049-5.049zm0-157.21h93.127a5.049 5.049 0 015.048 5.05v59.028a5.05 5.05 0 01-5.05 5.051h-93.123a5.05 5.05 0 01-5.051-5.05V699.23a5.05 5.05 0 015.05-5.05zm.002 235.815h93.125a5.049 5.049 0 015.048 5.049v59.03a5.049 5.049 0 01-5.048 5.05h-93.125a5.05 5.05 0 01-5.051-5.051v-59.028a5.05 5.05 0 015.05-5.05zm-.002-157.209h93.127a5.049 5.049 0 015.048 5.049v59.03a5.049 5.049 0 01-5.048 5.049h-93.125a5.05 5.05 0 01-5.051-5.051v-59.028a5.049 5.049 0 015.049-5.05zm113.034-78.606h93.126a5.05 5.05 0 015.05 5.051v59.027a5.05 5.05 0 01-5.05 5.051h-93.125a5.05 5.05 0 01-5.05-5.05V699.23a5.05 5.05 0 015.049-5.05zm.001 235.815h93.125a5.05 5.05 0 015.05 5.05v59.03a5.049 5.049 0 01-5.048 5.049h-93.127a5.05 5.05 0 01-5.05-5.051v-59.028a5.05 5.05 0 015.05-5.05z" style="mix-blend-mode:color-burn" fill="#9b9b9b"/><path d="M291.627 990.287h-93.125a5.065 5.065 0 01-5.051-5.05v8.836a5.066 5.066 0 005.05 5.05h93.126a5.064 5.064 0 005.048-5.05v-8.836a5.064 5.064 0 01-5.048 5.05zm0-235.816h-93.125a5.063 5.063 0 01-5.051-5.048v8.836a5.065 5.065 0 005.05 5.05h93.126a5.063 5.063 0 005.048-5.05v-8.836a5.062 5.062 0 01-5.048 5.048zM404.66 990.287h-93.125a5.065 5.065 0 01-5.05-5.05v8.836a5.066 5.066 0 005.05 5.05h93.125a5.066 5.066 0 005.05-5.05v-8.836a5.065 5.065 0 01-5.05 5.05zm-113.033-157.21h-93.125a5.065 5.065 0 01-5.051-5.05v8.838a5.064 5.064 0 005.05 5.049h93.126a5.062 5.062 0 005.048-5.05v-8.836a5.064 5.064 0 01-5.048 5.05zm0 78.606h-93.125a5.066 5.066 0 01-5.051-5.05v8.836a5.065 5.065 0 005.05 5.05h93.126a5.063 5.063 0 005.048-5.05v-8.837a5.065 5.065 0 01-5.048 5.051zm113.033 0h-93.125a5.066 5.066 0 01-5.05-5.05v8.836a5.065 5.065 0 005.05 5.05h93.125a5.065 5.065 0 005.05-5.05v-8.837a5.066 5.066 0 01-5.05 5.051zm113.033-78.605h-93.125a5.064 5.064 0 01-5.049-5.05v8.837a5.062 5.062 0 005.05 5.049h93.124a5.062 5.062 0 005.049-5.05v-8.836a5.064 5.064 0 01-5.049 5.05zm0-78.607h-93.125a5.062 5.062 0 01-5.049-5.048v8.836a5.063 5.063 0 005.05 5.05h93.124a5.063 5.063 0 005.049-5.05v-8.836a5.062 5.062 0 01-5.049 5.048zm0 157.212h-93.125a5.065 5.065 0 01-5.049-5.05v8.836a5.063 5.063 0 005.05 5.05h93.124a5.063 5.063 0 005.049-5.05v-8.837a5.065 5.065 0 01-5.049 5.051zM404.66 833.078h-93.125a5.065 5.065 0 01-5.05-5.05v8.837a5.064 5.064 0 005.05 5.049h93.125a5.064 5.064 0 005.05-5.05v-8.836a5.065 5.065 0 01-5.05 5.05zm113.033 157.209h-93.125a5.064 5.064 0 01-5.049-5.05v8.836a5.064 5.064 0 005.05 5.05h93.124a5.064 5.064 0 005.049-5.05v-8.836a5.064 5.064 0 01-5.049 5.05zM404.66 754.47h-93.125a5.063 5.063 0 01-5.05-5.048v8.836a5.065 5.065 0 005.05 5.05h93.125a5.065 5.065 0 005.05-5.05v-8.836a5.063 5.063 0 01-5.05 5.048z" style="mix-blend-mode:color-burn" fill="#cccbcb"/><path d="M240.71 741.59v-24.41h-6.855l3.756-7.248h11.047v31.658zm19.803-3.58a4.255 4.255 0 011.258-3.123 4.2 4.2 0 013.11-1.265 4.297 4.297 0 013.166 1.265 4.247 4.247 0 011.265 3.123 4.382 4.382 0 01-4.431 4.432 4.173 4.173 0 01-3.1-1.29 4.306 4.306 0 01-1.268-3.142zM362.41 741.59H338l14.343-16.986a14.459 14.459 0 001.932-2.807 5.3 5.3 0 00.623-2.346 3.716 3.716 0 00-1.059-2.741 3.77 3.77 0 00-2.785-1.057 3.889 3.889 0 00-3.152 1.308 5.747 5.747 0 00-1.104 3.8v.393h-7.685v-.22q0-5.434 3.176-8.557 3.175-3.125 8.68-3.123a12.585 12.585 0 018.558 2.773 9.296 9.296 0 013.187 7.38 10.178 10.178 0 01-1.003 4.378 19.599 19.599 0 01-3.319 4.662l-5.765 6.352h9.783zm5.283-3.58a4.26 4.26 0 011.256-3.123 4.203 4.203 0 013.11-1.265 4.302 4.302 0 013.167 1.265 4.247 4.247 0 011.266 3.123 4.382 4.382 0 01-4.434 4.432 4.18 4.18 0 01-3.1-1.29 4.312 4.312 0 01-1.265-3.142zM452.015 731.002h8.1v.524a4.567 4.567 0 00.984 3.176 3.724 3.724 0 002.905 1.082 4.249 4.249 0 003.078-1.038 3.996 3.996 0 001.068-3.003 4.167 4.167 0 00-1.144-3.242 5.253 5.253 0 00-3.594-1.038c-.262 0-.463.004-.6.012-.139.006-.265.012-.38.012v-5.132h.456a5.235 5.235 0 003.385-.962 3.396 3.396 0 001.18-2.794 3.098 3.098 0 00-.994-2.38 3.602 3.602 0 00-2.543-.918 3.211 3.211 0 00-3.537 3.43h-7.73a8.704 8.704 0 013.132-6.955q3.047-2.479 8.527-2.477 4.89 0 7.698 2.217a7.256 7.256 0 012.804 6.014 6.594 6.594 0 01-1.289 4.115 7.223 7.223 0 01-3.756 2.455 7.445 7.445 0 014.653 2.611 8.15 8.15 0 011.658 5.274 9.576 9.576 0 01-3.307 7.553 12.613 12.613 0 01-8.635 2.904q-5.59 0-8.855-3.002a10.508 10.508 0 01-3.264-8.133zm28.713 7.008a4.267 4.267 0 011.254-3.123 4.207 4.207 0 013.111-1.265 4.3 4.3 0 013.166 1.265 4.247 4.247 0 011.266 3.123 4.382 4.382 0 01-4.432 4.432 4.18 4.18 0 01-3.101-1.29 4.31 4.31 0 01-1.264-3.142zM245.71 820.325v-7.161h-14.54v-6.287l11.9-18.343h9.934v18.343h3.537v6.287h-3.537v7.16zm0-13.448v-9.304q0-1.286.055-2.15a12.634 12.634 0 01.166-1.473 26.583 26.583 0 01-.93 1.879q-.515.937-1.255 2.095l-5.873 8.953zm14.803 9.868a4.256 4.256 0 011.258-3.123 4.207 4.207 0 013.11-1.265 4.304 4.304 0 013.166 1.265 4.248 4.248 0 011.265 3.123 4.379 4.379 0 01-4.431 4.431 4.172 4.172 0 01-3.1-1.287 4.314 4.314 0 01-1.268-3.144zM361.033 788.667v6.527h-12.117l-.633 4.105a18.118 18.118 0 011.976-.328 17.732 17.732 0 011.954-.11 10.187 10.187 0 017.685 2.916 10.912 10.912 0 012.816 7.914 10.608 10.608 0 01-3.503 8.405q-3.504 3.082-9.596 3.08a21.45 21.45 0 01-5.416-.654 14.847 14.847 0 01-4.41-1.9l.568-7.73.676.13a8.254 8.254 0 003.144 2.785 9.087 9.087 0 004.237 1.016 6.91 6.91 0 004.695-1.452 5.154 5.154 0 001.658-4.094 5.337 5.337 0 00-1.79-4.148 6.67 6.67 0 00-4.65-1.616 8.967 8.967 0 00-3.472.644 8.158 8.158 0 00-2.795 1.955l-1.07-.633 2.642-16.812zm6.66 28.078a4.262 4.262 0 011.256-3.123 4.21 4.21 0 013.11-1.265 4.309 4.309 0 013.167 1.265 4.248 4.248 0 011.266 3.123 4.379 4.379 0 01-4.434 4.431 4.178 4.178 0 01-3.1-1.287 4.32 4.32 0 01-1.265-3.144zM463.783 799.932a10.1 10.1 0 011.596-.36 12.321 12.321 0 011.746-.12 8.812 8.812 0 016.724 2.85 10.17 10.17 0 012.662 7.237 11.147 11.147 0 01-3.328 8.46 12.38 12.38 0 01-8.918 3.177 12.237 12.237 0 01-8.843-3.144 11.16 11.16 0 01-3.276-8.448 15.628 15.628 0 011.104-5.613 52.257 52.257 0 014.617-8.385l4.474-6.92h8.909zm.394 5.11a4.72 4.72 0 00-3.527 1.32 4.904 4.904 0 00-1.299 3.592 4.838 4.838 0 001.3 3.56 5.403 5.403 0 007.052 0 4.838 4.838 0 001.299-3.56 4.904 4.904 0 00-1.3-3.592 4.716 4.716 0 00-3.525-1.32zm16.551 11.703a4.269 4.269 0 011.254-3.123 4.214 4.214 0 013.111-1.265 4.307 4.307 0 013.166 1.265 4.248 4.248 0 011.266 3.123 4.379 4.379 0 01-4.432 4.431 4.18 4.18 0 01-3.101-1.287 4.319 4.319 0 01-1.264-3.144zM234.226 899.06l12.008-24.497H232.74v-7.162h24.41v1.53l-13.906 30.13zm26.287-3.58a4.253 4.253 0 011.258-3.124 4.207 4.207 0 013.11-1.265 4.305 4.305 0 013.166 1.265 4.245 4.245 0 011.265 3.123 4.382 4.382 0 01-4.431 4.433 4.17 4.17 0 01-3.1-1.29 4.31 4.31 0 01-1.268-3.143zM356.732 881.985a7.681 7.681 0 014.848 2.74 8.636 8.636 0 011.724 5.535 8.548 8.548 0 01-3.22 7.095q-3.22 2.558-8.985 2.557-5.745 0-8.95-2.557a9.567 9.567 0 01-1.487-12.63 7.686 7.686 0 014.847-2.74 6.897 6.897 0 01-3.908-2.326 6.566 6.566 0 01-1.375-4.244 7.664 7.664 0 012.871-6.364q2.871-2.286 8.002-2.283 5.15 0 8.035 2.291a7.668 7.668 0 012.881 6.356 6.566 6.566 0 01-1.373 4.244 6.896 6.896 0 01-3.91 2.326zm-5.633 11.53a4.5 4.5 0 003.242-1.138 4.107 4.107 0 001.19-3.12 4.019 4.019 0 00-1.19-3.069 4.533 4.533 0 00-3.242-1.124 4.459 4.459 0 00-3.209 1.124 4.034 4.034 0 00-1.18 3.068 4.112 4.112 0 001.192 3.11 4.407 4.407 0 003.197 1.148zm0-14.128a3.841 3.841 0 002.774-.982 4.033 4.033 0 00.021-5.35 3.878 3.878 0 00-2.795-.959 3.798 3.798 0 00-2.752.971 3.516 3.516 0 00-1.004 2.652 3.576 3.576 0 001.016 2.676 3.75 3.75 0 002.74.992zm16.594 16.093a4.26 4.26 0 011.256-3.124 4.21 4.21 0 013.11-1.265 4.309 4.309 0 013.167 1.265 4.245 4.245 0 011.266 3.123 4.382 4.382 0 01-4.434 4.433 4.176 4.176 0 01-3.1-1.29 4.316 4.316 0 01-1.265-3.143zM464.789 887.992a12.874 12.874 0 01-1.584.348 11.697 11.697 0 01-1.758.13 8.808 8.808 0 01-6.725-2.85 10.144 10.144 0 01-2.662-7.215 11.227 11.227 0 013.319-8.494 13.99 13.99 0 0117.728-.042 11.152 11.152 0 013.275 8.448 16.077 16.077 0 01-1.267 5.994 48.21 48.21 0 01-4.453 8.002l-4.432 6.747h-8.887zm-.395-5.113a4.736 4.736 0 003.54-1.308 5.62 5.62 0 00-.012-7.172 5.366 5.366 0 00-7.053 0 5.6 5.6 0 000 7.172 4.74 4.74 0 003.525 1.308zm16.334 12.601a4.266 4.266 0 011.254-3.124 4.215 4.215 0 013.111-1.265 4.308 4.308 0 013.166 1.265 4.245 4.245 0 011.266 3.123 4.382 4.382 0 01-4.432 4.433 4.177 4.177 0 01-3.101-1.29 4.314 4.314 0 01-1.264-3.143z" opacity=".5" fill="#fff"/><path d="M211.548 630.95l7.07-44.424h12.198a52.034 52.034 0 017.617.41 14.713 14.713 0 014.43 1.381 11.734 11.734 0 015.084 4.733 14.485 14.485 0 011.684 7.192 16.764 16.764 0 01-1.805 7.708 13.376 13.376 0 01-4.9 5.462 12.59 12.59 0 01-4.311 1.592 46.19 46.19 0 01-7.799.471h-4.975l-2.488 15.476zm15.78-24.912h1.123q5.763 0 7.799-1.214a4.417 4.417 0 002.03-4.127 3.978 3.978 0 00-1.743-3.596 10.26 10.26 0 00-5.477-1.138h-2.125zm14.929 24.912l22.243-44.424h14.869l9.435 44.425H276.76l-1.79-8.375h-15.54l-4.248 8.375zm21.635-18.267h9.377l-2.033-10.378q-.305-1.547-.455-2.76-.152-1.215-.182-2.277-.638 1.82-1.17 3.201-.53 1.382-.834 2.05zm34.228 18.267l3.126-19.815-12.502-24.609h13.23l4.856 11.35q.395.88.804 1.987.41 1.107.805 2.351.818-1.911 1.318-2.959a13.3 13.3 0 01.805-1.502l7.89-11.227h13.684l-18.964 24.731-3.096 19.694zm26.735 0l13.594-44.424h13.2l2.974 17.206q.272 1.578.5 3.322.228 1.746.441 3.626a27.826 27.826 0 01.895-2.867q.56-1.532 1.593-3.839l7.95-17.448h13.109l1.062 44.425h-10.955l-.12-21.18q0-1.79.06-3.536.061-1.745.181-3.505a40.28 40.28 0 01-2.275 5.614l-.455 1.001-10.135 21.606h-7.191l-4.158-21.575q-.334-1.638-.592-3.292-.258-1.654-.47-3.324-.335 1.974-.714 3.733-.378 1.76-.773 3.277l-6.16 21.18zm73.889-9.892h13.746l-1.547 9.893h-25.611l7.01-44.425h25.61l-1.609 10.257h-13.746l-1.123 7.252h12.746l-1.488 9.65h-12.805zm20.451 9.892l7.01-44.424h13.564l9.377 21.94c.08.181.213.495.395.94a37.147 37.147 0 012.154 6.311v-1.122q0-1.214.137-2.685.135-1.472.41-3.566l3.428-21.818h11.865l-7.01 44.425h-13.049l-9.953-22.607q-1.093-2.458-1.652-4.066-.563-1.608-.957-3.217v1.244q0 1.215-.106 2.565-.108 1.35-.379 3.595l-3.369 22.486zm56.928 0l5.4-34.107h-9.953l1.7-10.317h31.376l-1.699 10.317h-9.498l-5.402 34.108z" fill="#082947"/><path d="M1089.261 1267.415V860.949a30.088 30.088 0 00-30-30H441.193a30.088 30.088 0 00-30 30v406.466z" fill="#16b4c6"/><path d="M431.193 1267.415V860.949a10.133 10.133 0 0110-10h618.068a10.133 10.133 0 0110 10v406.466z" fill="#f4f5f5" opacity=".25"/><path fill="#e65d2d" d="M860.21 1055.173l116.234-37.649 36.689 113.27-116.235 37.648z"/><path fill="#082947" d="M853.947 1054.048l126.914-41.106 8.196 25.305-126.915 41.106z"/><path style="mix-blend-mode:color-burn" fill="#d3d3d3" d="M913.146 1062.833l24.905-8.067 29.416 90.82-24.905 8.066z"/><path style="mix-blend-mode:color-burn" fill="#d3d3d3" d="M904.951 1037.528l24.907-8.066 8.195 25.305-24.906 8.066z"/><path d="M1023.216 1127.529l-135.585 43.915a10.4 10.4 0 01-13.086-6.684l-66.971-206.77a22.885 22.885 0 00-28.79-14.703l-36.37 11.781a6.234 6.234 0 103.842 11.861l36.37-11.78a10.402 10.402 0 0113.087 6.683l66.97 206.771a22.886 22.886 0 0028.79 14.703l135.584-43.914a6.234 6.234 0 10-3.84-11.862z" fill="#082947"/><path d="M1282.139 1586.046a48.962 48.962 0 10-31.492 61.669 48.963 48.963 0 0031.492-61.67z" transform="translate(-351.934 -438.892)" style="mix-blend-mode:color-burn" fill="url(#prefix__b)"/><path d="M916.367 1151.635a34.417 34.417 0 10-22.137 43.349 34.42 34.42 0 0022.137-43.349z" fill="#082947"/><path d="M898.97 1157.27a16.13 16.13 0 10-10.375 20.316 16.13 16.13 0 0010.375-20.316z" fill="#16b4c6"/><path d="M1224.953 1568.389c6.61-2.141 16.717 10.783 22.574 28.867 5.858 18.084 5.246 34.478-1.363 36.62a34.418 34.418 0 00-21.21-65.487z" transform="translate(-351.934 -438.892)" style="mix-blend-mode:color-burn" fill="url(#prefix__p)"/><path d="M767.681 943.924l-26.685 8.643-3.436 1.113a9.049 9.049 0 105.576 17.217l3.436-1.113 26.685-8.643a9.049 9.049 0 00-5.576-17.217z" fill="#e65d2d"/><path d="M1121.814 1260.2H378.64a20.604 20.604 0 00-20.543 20.543v9.013a20.604 20.604 0 0020.543 20.544h743.174a20.603 20.603 0 0020.543-20.544v-9.013a20.604 20.604 0 00-20.543-20.543z" fill="#082947"/><path d="M785.48 1290.25h-70.506a12.9 12.9 0 00-12.863 12.862v7.188h96.23v-7.188a12.9 12.9 0 00-12.86-12.861z" style="mix-blend-mode:color-burn" fill="#c4c3c3"/><path d="M1473.748 1735.297H730.574c-11.299 0-20.543-4.117-20.543-9.149v2.5a20.604 20.604 0 0020.543 20.544h743.174a20.603 20.603 0 0020.543-20.544v-2.5c0 5.032-9.244 9.149-20.543 9.149z" transform="translate(-351.934 -438.892)" style="mix-blend-mode:color-burn" fill="url(#prefix__q)"/><path d="M467.972 882.348h81.867a1.436 1.436 0 011.436 1.436v69.06a1.434 1.434 0 01-1.434 1.434h-81.867a1.435 1.435 0 01-1.435-1.436v-69.06a1.434 1.434 0 011.433-1.434z" fill="#e65d2d"/><path d="M901.775 1321.24h-13.072a1.453 1.453 0 011.434 1.436v69.058a1.455 1.455 0 01-1.434 1.436h13.072a1.456 1.456 0 001.434-1.436v-69.058a1.454 1.454 0 00-1.434-1.436z" transform="translate(-351.934 -438.892)" style="mix-blend-mode:multiply" opacity=".25" fill="url(#prefix__c)"/><g opacity=".25" fill="#f4f5f5"><path d="M527.884 926.293c1.147 0 1.422-.663.612-1.474l-8.04-8.04a2.093 2.093 0 00-2.95 0l-3.477 3.476a2.092 2.092 0 01-2.95 0l-7.122-7.123a2.091 2.091 0 00-2.951 0l-11.688 11.687c-.809.811-.535 1.474.611 1.474z"/><path d="M509.367 913.438a3.106 3.106 0 103.105-3.106 3.105 3.105 0 00-3.105 3.106z"/></g><g style="mix-blend-mode:color-burn" fill="#b2b2b2"><rect x="573.464" y="882.51" width="79.502" height="13.08" rx="5"/><rect x="573.464" y="902.018" width="116" height="13.08" rx="5"/><rect x="573.464" y="921.526" width="116" height="13.08" rx="5"/><rect x="573.464" y="941.034" width="116" height="13.08" rx="5"/></g><path d="M467.972 974.573h81.868a1.435 1.435 0 011.435 1.434v69.06a1.435 1.435 0 01-1.435 1.435h-81.867a1.435 1.435 0 01-1.434-1.435v-69.06a1.434 1.434 0 011.433-1.434z" fill="#e65d2d"/><path d="M901.775 1413.465h-13.072a1.452 1.452 0 011.434 1.434v69.06a1.455 1.455 0 01-1.434 1.435h13.072a1.456 1.456 0 001.434-1.435v-69.06a1.453 1.453 0 00-1.434-1.434z" transform="translate(-351.934 -438.892)" style="mix-blend-mode:multiply" opacity=".25" fill="url(#prefix__r)"/><g opacity=".25" fill="#f4f5f5"><path d="M527.884 1018.517c1.147 0 1.422-.663.612-1.474l-8.04-8.039a2.091 2.091 0 00-2.95 0l-3.477 3.475a2.092 2.092 0 01-2.95 0l-7.122-7.123a2.091 2.091 0 00-2.951 0l-11.688 11.687c-.809.811-.535 1.474.611 1.474z"/><path d="M509.367 1005.662a3.106 3.106 0 103.105-3.107 3.105 3.105 0 00-3.105 3.107z"/></g><g style="mix-blend-mode:color-burn" fill="#b2b2b2"><rect x="573.464" y="974.735" width="79.502" height="13.08" rx="5"/><rect x="573.464" y="994.243" width="116" height="13.08" rx="5"/><rect x="573.464" y="1013.751" width="116" height="13.08" rx="5"/><rect x="573.464" y="1033.258" width="116" height="13.08" rx="5"/></g><rect x="470.679" y="1074.421" width="20.588" height="20.589" rx="4.117" fill="#082947"/><path fill="#f4f5f5" d="M481.072 1092.815l-14.533-14.532 6.316-6.317 8.217 8.215 16.488-16.488 6.315 6.315-22.803 22.807z"/><path d="M518.414 1074.421H720.28a2.834 2.834 0 012.834 2.834v4.58a2.834 2.834 0 01-2.834 2.833H518.413a2.833 2.833 0 01-2.833-2.833v-4.58a2.834 2.834 0 012.834-2.834z" fill="#082947"/><rect x="515.58" y="1092.815" width="160.535" height="10.247" rx="2.834" style="mix-blend-mode:color-burn" fill="#a4a4a4"/><rect x="470.679" y="1118.185" width="20.588" height="20.589" rx="4.117" fill="#082947"/><path fill="#f4f5f5" d="M481.072 1136.579l-14.533-14.533 6.316-6.316 8.217 8.215 16.488-16.488 6.315 6.315-22.803 22.807z"/><path d="M518.414 1118.185H736.68a2.834 2.834 0 012.834 2.834v4.58a2.833 2.833 0 01-2.833 2.833H518.414a2.834 2.834 0 01-2.834-2.834v-4.579a2.834 2.834 0 012.834-2.834z" fill="#082947"/><path d="M518.414 1136.579H694.78a2.834 2.834 0 012.834 2.834v4.58a2.833 2.833 0 01-2.833 2.833H518.414a2.834 2.834 0 01-2.834-2.834v-4.58a2.834 2.834 0 012.834-2.833z" style="mix-blend-mode:color-burn" fill="#a4a4a4"/><rect x="470.679" y="1161.949" width="20.588" height="20.589" rx="4.117" fill="#082947"/><path fill="#f4f5f5" d="M481.072 1180.342l-14.533-14.532 6.316-6.316 8.217 8.215 16.488-16.489 6.315 6.316-22.803 22.806z"/><path d="M518.416 1161.949h183.697a2.834 2.834 0 012.834 2.834v4.58a2.833 2.833 0 01-2.833 2.833H518.416a2.836 2.836 0 01-2.836-2.836v-4.575a2.836 2.836 0 012.836-2.836z" fill="#082947"/><path d="M518.414 1180.342h148.535a2.834 2.834 0 012.834 2.834v4.58a2.833 2.833 0 01-2.833 2.833H518.416a2.836 2.836 0 01-2.836-2.836v-4.577a2.834 2.834 0 012.834-2.834z" style="mix-blend-mode:color-burn" fill="#a4a4a4"/><rect x="470.679" y="1205.712" width="20.588" height="20.589" rx="4.117" fill="#082947"/><path fill="#f4f5f5" d="M481.072 1224.106l-14.533-14.532 6.316-6.317 8.217 8.215 16.488-16.488 6.315 6.315-22.803 22.807z"/><path d="M518.414 1205.712H736.68a2.834 2.834 0 012.834 2.834v4.58a2.833 2.833 0 01-2.833 2.834H518.414a2.834 2.834 0 01-2.834-2.834v-4.58a2.834 2.834 0 012.834-2.834z" fill="#082947"/><path d="M518.414 1224.106H630.28a2.834 2.834 0 012.834 2.834v4.58a2.833 2.833 0 01-2.833 2.833H518.414a2.834 2.834 0 01-2.834-2.834v-4.579a2.834 2.834 0 012.834-2.834z" style="mix-blend-mode:color-burn" fill="#a4a4a4"/><path d="M1185.02 893.965a9.453 9.453 0 01-9.425 9.426h-172.662a9.455 9.455 0 01-9.431-9.426V773.121a9.458 9.458 0 019.431-9.431h172.662a9.456 9.456 0 019.425 9.43z" fill="#082947"/><path d="M1134.203 772.466c1.864 4.841-.858 8.802-6.041 8.802h-77.797c-5.188 0-7.904-3.96-6.041-8.802l10.79-28.003a14.837 14.837 0 0112.822-8.798h42.655a14.827 14.827 0 0112.819 8.798z" fill="#082947"/><path d="M1144.841 838.946a55.58 55.58 0 10-55.578 55.582 55.58 55.58 0 0055.578-55.582z" fill="#16b4c6"/><path d="M1133.529 838.946a44.265 44.265 0 10-44.266 44.267 44.266 44.266 0 0044.266-44.267z" fill="#7bceda"/><path d="M1116.688 752.152a5.678 5.678 0 01-5.66 5.66h-43.533a5.678 5.678 0 01-5.66-5.66 5.676 5.676 0 015.66-5.654h43.533a5.677 5.677 0 015.66 5.654z" fill="#fff"/><g opacity=".5" fill="#aeaeaf"><path d="M1089.262 870.036a31.09 31.09 0 1131.09-31.09 31.123 31.123 0 01-31.09 31.09zm0-55.762a24.673 24.673 0 1024.673 24.672 24.701 24.701 0 00-24.673-24.672z" opacity=".5"/><path d="M1098.814 838.946a9.552 9.552 0 11-9.552-9.55 9.55 9.55 0 019.552 9.55z" style="mix-blend-mode:color-burn" opacity=".5"/></g><g mask="url(#prefix__s)"><path d="M1432.193 1259.977a14.506 14.506 0 11-14.505-14.506 14.505 14.505 0 0114.505 14.506z" transform="translate(-351.934 -438.892)" fill="url(#prefix__d)"/></g><g mask="url(#prefix__t)"><path d="M1441.64 1276.031a6.533 6.533 0 11-6.535-6.533 6.533 6.533 0 016.536 6.533z" transform="translate(-351.934 -438.892)" fill="url(#prefix__u)"/></g><path d="M805.396 737.973v46.393c0 5.369 3.1 6.656 6.889 2.86l49.178-49.253z" fill="#e65d2d"/><path d="M990.197 548.761l-219.32-.02a15.323 15.323 0 00-15.272 15.3l-.008 163.407a15.323 15.323 0 0015.27 15.299l8.545.004h91.181v.001h99.495v.013h20.1a15.327 15.327 0 0015.273-15.296l.007-163.406a15.331 15.331 0 00-15.271-15.302z" fill="#e65d2d"/><path d="M930.492 681.266H839.62a3.12 3.12 0 01-3.022-2.342l-19.892-77.222a3.121 3.121 0 013.021-3.899h130.656a3.118 3.118 0 013.022 3.899l-19.89 77.222a3.122 3.122 0 01-3.024 2.342zm-88.455-6.241h86.039l18.283-70.982H823.754z" fill="#082947"/><path d="M824.888 623.641a3.12 3.12 0 01-3.017-2.342l-10.041-38.986a7.532 7.532 0 00-6.725-5.21h-13.494a3.12 3.12 0 110-6.241h13.494a13.71 13.71 0 0112.768 9.894l10.039 38.987a3.12 3.12 0 01-2.242 3.799 3.07 3.07 0 01-.782.1zm39.694 48.004a3.12 3.12 0 01-3.12-3.119v-57.983a3.12 3.12 0 116.239 0v57.983a3.118 3.118 0 01-3.12 3.12zm20.472 0a3.119 3.119 0 01-3.117-3.119v-57.983a3.12 3.12 0 116.238 0v57.983a3.12 3.12 0 01-3.12 3.12zm20.476 0a3.12 3.12 0 01-3.118-3.119v-57.983a3.12 3.12 0 116.24 0v57.983a3.12 3.12 0 01-3.121 3.12z" fill="#082947"/><path d="M926.779 625.348h-83.447a3.12 3.12 0 010-6.239h83.447a3.12 3.12 0 010 6.24zm-6.912 17.307h-69.623a3.12 3.12 0 110-6.24h69.623a3.12 3.12 0 110 6.24zm-4.143 17.307h-61.34a3.12 3.12 0 010-6.24h61.34a3.12 3.12 0 110 6.24zm8.336 52.142h-83.338a18.54 18.54 0 010-37.079 3.12 3.12 0 110 6.241 12.299 12.299 0 100 24.598h83.338a3.12 3.12 0 010 6.24z" fill="#082947"/><path d="M915.44 708.984a8.541 8.541 0 10-8.544 8.542 8.54 8.54 0 008.543-8.542z" fill="#fff"/><path d="M906.896 720.646a11.663 11.663 0 1111.664-11.662 11.674 11.674 0 01-11.664 11.662zm0-17.085a5.423 5.423 0 105.424 5.423 5.428 5.428 0 00-5.424-5.423z" fill="#082947"/><path d="M864.582 708.984a8.542 8.542 0 10-8.543 8.542 8.54 8.54 0 008.543-8.542z" fill="#fff"/><path d="M856.039 720.646a11.663 11.663 0 1111.662-11.662 11.674 11.674 0 01-11.662 11.662zm0-17.085a5.423 5.423 0 105.424 5.423 5.428 5.428 0 00-5.424-5.423z" fill="#082947"/><path d="M1405.53 989.92a48.128 48.128 0 10-48.126 48.13 48.127 48.127 0 0048.126-48.13z" transform="translate(-351.934 -438.892)" style="mix-blend-mode:color-burn" opacity=".5" fill="url(#prefix__v)"/><path d="M1036.325 551.028a30.856 30.856 0 10-30.855 30.858 30.855 30.855 0 0030.855-30.858z" fill="#082947"/><path d="M987.207 546.96a1.944 1.944 0 011.941-1.938h10.313v-10.316a1.945 1.945 0 011.94-1.939l8.139.001a1.943 1.943 0 011.937 1.94v10.312h10.315a1.946 1.946 0 011.94 1.94v8.14a1.944 1.944 0 01-1.938 1.939h-10.315v10.313a1.946 1.946 0 01-1.94 1.94h-8.139a1.946 1.946 0 01-1.941-1.939V557.04l-10.313-.001a1.945 1.945 0 01-1.94-1.94z" fill="#fff"/><path d="M1357.404 1020.778a30.857 30.857 0 000-61.714c7.306 0 13.228 13.817 13.228 30.856 0 17.04-5.922 30.858-13.228 30.858z" transform="translate(-351.934 -438.892)" style="mix-blend-mode:color-burn" fill="url(#prefix__e)"/><path d="M1227.796 523.88h12.3a4.856 4.856 0 014.856 4.856v12.3a4.856 4.856 0 01-4.856 4.855h-12.3a4.856 4.856 0 01-4.857-4.856v-12.299a4.856 4.856 0 014.857-4.857z" fill="#082947"/><path d="M1241.008 568.482a3.34 3.34 0 01-3.373 4.624h-14.967a8.439 8.439 0 01-6.953-4.38l-25.13-52.468c-1.153-2.408.09-4.379 2.76-4.379h24.635a7.108 7.108 0 016.339 4.623zm40.928-70.734a27.04 27.04 0 1127.04 27.04 27.04 27.04 0 01-27.04-27.04z" fill="#1eb2c3"/><path d="M1202.636 524.668c56.327 4.37 102.211 31.077 102.211 31.077V439.752s-45.884 26.706-102.21 31.077z" fill="#1eb2c3"/><path d="M1297.807 432.693h14.081a4.856 4.856 0 014.857 4.856v120.398a4.856 4.856 0 01-4.857 4.856h-14.082a4.854 4.854 0 01-4.854-4.854v-120.4a4.856 4.856 0 014.855-4.856z" fill="#082947"/><rect x="1162.011" y="470.708" width="33.099" height="54.08" rx="2.428" fill="#1eb2c3"/><path d="M1187.746 465.842h19.018a2.428 2.428 0 012.428 2.428v58.957a2.428 2.428 0 01-2.428 2.428h-19.018a2.428 2.428 0 01-2.428-2.428V468.27a2.428 2.428 0 012.428-2.428z" fill="#082947"/><g style="mix-blend-mode:color-burn"><path d="M1668.679 950.416c11.144-1.776 19.27-7.27 19.27-13.776a27.05 27.05 0 01-19.27 25.902z" transform="translate(-351.934 -438.892)" fill="url(#prefix__w)"/><path d="M1516.373 951.021h20.879v1.296c0 .71 1.093 1.292 2.428 1.292h19.018c1.334 0 2.428-.582 2.428-1.292v-1.032a462.375 462.375 0 0183.76 12.951v4.42c0 1.42 2.184 2.582 4.854 2.582h14.082c2.671 0 4.857-1.162 4.857-2.582v28.184a4.87 4.87 0 01-4.857 4.855h-14.082a4.87 4.87 0 01-4.854-4.855v-8.31c-16.222-7.697-47.455-20.4-83.76-24.354v1.943a2.436 2.436 0 01-2.428 2.428h-19.018a2.435 2.435 0 01-2.428-2.428v-2.44h-20.879a2.434 2.434 0 01-2.428-2.427V949.73c0 .71 1.092 1.291 2.428 1.291z" transform="translate(-351.934 -438.892)" fill="url(#prefix__x)"/></g><path d="M1273.403 638.1l-1.764-9.844a126.217 126.217 0 0011.906-2.735l2.71 9.625a136.304 136.304 0 01-12.852 2.954zm-48.772 0a137.453 137.453 0 01-111.788-117.108l9.914-1.305a126.717 126.717 0 00103.637 108.57zm91.318-15.228l-4.879-8.73a127.555 127.555 0 0031.887-25.249l7.375 6.754a137.578 137.578 0 01-34.383 27.225zm53.956-54.714l-8.795-4.758a125.862 125.862 0 0015.177-55.898l9.994.355a135.777 135.777 0 01-16.376 60.3zm-248.237-66.204l-10-.073a135.924 135.924 0 0114.896-61.265l8.91 4.54a125.99 125.99 0 00-13.806 56.798zm254.03-12.211a127.732 127.732 0 00-104.059-112.201l1.764-9.843a137.776 137.776 0 01112.242 121.024zm-224.45-68.46l-7.674-6.412a137.503 137.503 0 0137.031-31.102l4.988 8.667a127.523 127.523 0 00-34.345 28.848zm61.654-40.549l-2.832-9.59a136.851 136.851 0 0114.56-3.445l1.764 9.843a126.668 126.668 0 00-13.492 3.192z" fill="#082947"/><path fill="#082947" d="M1261.516 370.565l10.854 15.85 4.995-26.702-15.849 10.852zm-25.081 264.668l-10.853-15.849-4.995 26.702 15.848-10.853z"/><circle cx="1167.533" cy="399.391" r="37.58" fill="#e65d2d"/><path d="M1168.096 425.002a25.611 25.611 0 1113.404-47.435l-2.494 4.053a20.854 20.854 0 100 35.543l2.494 4.052a25.558 25.558 0 01-13.404 3.787z" fill="#fff"/><path fill="#fff" d="M1136.211 391.153h27.934v4.759h-27.934zm0 11.719h27.934v4.758h-27.934z"/><path d="M1519.467 800.703c9.822 0 17.785 16.826 17.785 37.58 0 20.756-7.963 37.58-17.785 37.58a37.58 37.58 0 100-75.16z" transform="translate(-351.934 -438.892)" style="mix-blend-mode:color-burn" fill="url(#prefix__y)"/><path d="M268.646 279.652c3.877-8.6 3.996-12.166 9.662-14.832 5.666-2.668 44.52-13.451 50.166 32.035 3.887 31.295 12.168 53.797 30.668 53.443 14.996-.289 42.5 5.909 42.5 46.704 0 40.796-49.5 61.296-86 42.296s-52.928-47.242-52.556-77.091c.388-31.389.195-70.653 5.56-82.555z" fill="#082947"/><path d="M618.408 698.712l11.834 5s.168 11.332-4.5 20.5c-4.666 9.166-8.127 9.332-8.127 9.332l-17.373-9.166s-2.334-10.195 3.666-18.432a16.623 16.623 0 0114.5-7.234z" transform="translate(-351.934 -438.892)" fill="url(#prefix__f)"/><path d="M203.654 291.505c-7.315-3.752-12.719-18.88-12.35-27.812.485-11.799-.318-29.586 32.223-35.621 22.281-4.133 57.031 19.123 41.053 52.328-10.686 22.209-47.752 17.863-60.926 11.105z" fill="#082947"/><path d="M60.529 397.855c-6.96-1.867-15.05-.186-15.262 2.008-.396 4.178 6.98 2.178 8.408 5.447 1.348 3.086 14.432-1.039 14.432-1.039s-3.969-5.447-7.578-6.416z" fill="#f3a974"/><path d="M143.619 419.232c-12.77.555-61.994-4.734-74.041-3.06-7.795 14.142-18.63 10.484-26.172 8.837-7.19-1.572-5.602-20.205-2.451-20.732 4.154-.692 3.82-.701 11.781-.486 6.047.16 5.521-12.479 16.05 1.318 11.442.332 39.452-2.457 39.452-2.457l51.273-4.28s13.084-.05 12.836 9.096c-.199 7.48-19.148 11.352-28.728 11.764z" fill="#f3a974"/><path d="M188.076 398.093s-14.945 12.334-21.9 15.828c-4.983 2.51-13.614-1.437-15.46-5.818-1.853-4.38 7.172-19.7 18.524-29.523 8.697-7.526 19.607 17.404 18.836 19.513z" fill="#f3a974"/><path d="M582.297 790.169c-15.887 38.506-46.783 62.6-46.783 62.6s-10.592-1.415-19.574-12.073c-8.186-9.732-8.616-16.54-8.616-16.54s22.787-30.095 34.324-55.526c3.25-7.195 18.834-24.045 29.495-17.861 18.73 10.863 19.82 18.406 11.154 39.4z" transform="translate(-351.934 -438.892)" fill="url(#prefix__z)"/><path d="M604.281 892.292s-106.136.87-127.373 1.922c-21.232 1.045-26.027 41.836 1.34 53.338 27.363 11.496 65.443 26.752 93.393 27.113 27.945.365 49.326-6.164 66.023-26.185 16.705-20.018-4.791-56.46-33.383-56.188z" transform="translate(-351.934 -438.892)" fill="url(#prefix__g)"/><path d="M6.214 613.455S35.58 629.06 37.81 630.096c2.469 1.15 6.488 2.826 1.11 9.452-5.385 6.616-6.952 8.796-6.952 8.796s-27.6-25.092-30.257-28.135c-2.653-3.042-2.957-7.409 4.503-6.754z" fill="#101c29"/><path d="M462.69 902.832c-12.38 23.545-10.811 24.509-24.934 53.42-14.117 28.916-55.27 111.944-55.27 111.944s.71 3.18 3.176 4.297c3.7 1.682 5.313.005 5.313.005s11.955-19.549 23.314-30.33c11.37-10.769 75.266-82.826 87.547-97.493 12.28-14.653 16.217-29.727-1.56-42.281-17.782-12.55-32.159-9.878-37.587.438z" transform="translate(-351.934 -438.892)" fill="url(#prefix__A)"/><path d="M275.164 452.369s-105.358 12.848-126.34 16.293c-20.98 3.438-21.133 44.51 7.353 52.846 28.49 8.333 68.05 19.192 95.86 16.392 27.808-2.791 64.187-12.92 69.521-62.556 2.787-25.92-18.013-26.473-46.394-22.975z" fill="#082947"/><path d="M98.01 665.758s33.255-.49 35.706-.658c2.715-.183 7.045-.653 5.53 7.743-1.526 8.394-1.848 11.064-1.848 11.064s-36.28-8.677-40.074-10.062c-3.79-1.385-6.162-5.061.685-8.087z" fill="#101c29"/><path d="M134.422 484.372c-1.75 26.542.074 26.793-1.088 58.95-1.162 32.15-5.053 124.738-5.053 124.738s1.937 2.615 4.646 2.634c4.067.036 4.858-2.154 4.858-2.154s2.988-22.715 8.992-37.181c6.014-14.462 35.145-106.257 40.412-124.647 5.272-18.373 2.748-33.749-18.598-38.004-21.345-4.248-33.398 4.032-34.17 15.664z" fill="#082947"/><path d="M551.283 771.938c-1.379-19.123 3.104-22.306 30.805-24.992 8.209-.799 14.375-.43 22.176-.74 40.69-1.627 41.416 9.607 49.9 37.873 15.637 52.088 20.713 120.604 20.713 120.604s-1.68 19.947-69.965 19.853c-52.978-.072-69.518-34.176-69.518-34.176s13.758-3.511 12.766-35.23c-12.215-3.055-17.306-7.352-18.892-16.834-2.489-14.865 24.79-27.865 22.015-66.358z" transform="translate(-351.934 -438.892)" fill="url(#prefix__j)"/><path d="M555.848 885.634l-4.914.04-5.141.044-42.816.361-30.995-54.139a4.275 4.275 0 00-3.751-2.134l-.014-.033-.277.001c-.012.002-.026 0-.036.002l-76.642.647.011.031a3.61 3.61 0 00-1.79.455 4.128 4.128 0 00-1.26 5.672l31.836 55.596a.209.209 0 00.03.04c.058.122.153.208.216.321a4.176 4.176 0 00.515.697 3.026 3.026 0 00.455.426 5.973 5.973 0 00.627.399 4.43 4.43 0 002.147.59l76.937-.651 44.873-.379 10.055-.086a3.962 3.962 0 10-.066-7.9z" transform="translate(-351.934 -438.892)" fill="url(#prefix__B)"/><path d="M466.418 830.259a4.126 4.126 0 015.564 1.681l30.995 54.14 47.957-.405 4.914-.041a3.962 3.962 0 11.066 7.9l-54.928.465a4.443 4.443 0 01-2.146-.588 5.824 5.824 0 01-.631-.398 3.326 3.326 0 01-.453-.426 4.462 4.462 0 01-.516-.697c-.06-.114-.158-.2-.21-.32a.132.132 0 01-.036-.042l-31.836-55.597a4.132 4.132 0 011.26-5.672z" transform="translate(-351.934 -438.892)" style="mix-blend-mode:color-burn" fill="url(#prefix__h)"/><path d="M155.312 453.554a.398.398 0 00.406.393l4.612-.04a.4.4 0 00.4-.4l-.039-4.61a.403.403 0 00-.406-.401l-4.613.039a.4.4 0 00-.397.406zm16.028-3.26a.404.404 0 00.406.395l6.172-.053a.401.401 0 00.394-.4l-.012-1.488a.405.405 0 00-.402-.4l-6.17.052a.406.406 0 00-.402.406zm.023 3.126a.4.4 0 00.41.39l6.172-.05a.396.396 0 00.393-.401l-.012-1.49a.4.4 0 00-.4-.399l-6.172.053a.405.405 0 00-.403.406zm-8.828-3.051a.4.4 0 00.398.392l6.174-.05a.401.401 0 00.4-.403l-.011-1.488a.404.404 0 00-.407-.399l-6.175.055a.399.399 0 00-.39.404zm.025 3.123a.396.396 0 00.4.392l6.174-.05a.4.4 0 00.4-.4l-.01-1.491a.406.406 0 00-.41-.399l-6.173.053a.406.406 0 00-.394.406z" fill="#fff"/><path d="M538.543 888.108l-2.727.024.03 3.525 2.728-.023zm7.457-.064l-2.719.023.03 3.528 2.718-.022zm-3.728.031l-2.725.026.03 3.525 2.726-.021zm11.326-.094l-2.725.024.027 3.527 2.729-.023zm-3.86.034l-2.728.021.03 3.527 2.726-.023zm-17.15 1.908a1.853 1.853 0 001.92 1.748l.336-.004-.028-3.527-.336.002a1.847 1.847 0 00-1.892 1.78zm22.357-1.953l-.343.002.029 3.527.344-.002a1.768 1.768 0 10-.03-3.527z" transform="translate(-351.934 -438.892)" style="mix-blend-mode:multiply" fill="url(#prefix__C)"/><path d="M238.955 305.164c11.86-.27 24.8-6.965 26.47 1.193 1.676 8.162-4.738 39.469-22.777 49.523-18.039 10.05-33.26 3.332-32.828-6.765.432-10.094 3.74-20.975 5.201-28.918 1.465-7.94-2.226-15.522 6.117-15.899 8.348-.379 11.221 1.02 17.817.866z" fill="#082947"/><path d="M230.154 308.054c8.209-.799 14.377-.408 22.176-.74a192.29 192.29 0 016.53-.176c-1.22 11.822-6.31 49.059-32.88 47.17-20.17-1.431-6.861-8.771-5.12-45.197 2.755-.379 5.84-.723 9.294-1.057z" fill="#f3a974"/><path d="M253.31 310.636c-4.137-16.217-16.176-28.826-25.158-41.732-.137-.53-23 6.265-31.209-3.346 0 0 1.893 14.608 6.711 25.947 4.543 10.7 9.299 15.952 18.947 8.018 1.416 4.709 2.572 6.664 4.108 13.963 2.037 9.69 5.814 14.014 10.482 14.531 4.67.516 20.66.422 16.12-17.38z" fill="#f3a974"/><path d="M238.63 268.32c2.258 2.281 1.362 6.836-2.007 10.182-3.373 3.341-7.944 4.212-10.201 1.939-2.262-2.28-1.368-6.838 2.01-10.182 3.365-3.345 7.935-4.207 10.199-1.94zm81.247 119.521s2.779 19.178 2.154 26.936c-.443 5.562-8.299 10.887-13.002 10.19-4.705-.692-13.11-16.36-15.61-31.163-1.913-11.34 25.055-7.717 26.458-5.963z" fill="#f3a974"/><path d="M653.764 766.282c24.656 33.576 29.2 72.49 29.2 72.49s-6.708 8.317-20.482 10.46c-12.568 1.94-18.609-1.23-18.609-1.23s-3.375-12.91-17.46-37.667c-9.71-17.065-1.71-67.506 10.46-60.022 4.979 3.061 10.463 7.213 16.89 15.97z" transform="translate(-351.934 -438.892)" fill="url(#prefix__D)"/><path d="M210.775 432.578c-6.787 2.425-14.988 1.408-15.375-.762-.736-4.13 6.78-2.736 7.938-6.111 1.091-3.186 14.468-.137 14.468-.137s-3.513 5.75-7.03 7.01z" fill="#f3a974"/><path d="M290.722 405.937c-12.773.484-61.404 9.756-73.547 9.068-8.92-13.462-29.505-4.722-34.046 1.522-5.526 7.6 2.628 8.014 5.416 6.457 12.355-6.902 19.367 17.717 28.74 3.111 11.377-1.261 39.521-.758 39.521-.758l51.451.098s13.045-1.012 12.053-10.107c-.804-7.44-20.006-9.758-29.588-9.39z" fill="#f3a974"/><path d="M954.97 158.996s24.727 9.285 32.545 10.692c5.602 1.02 6.385-6.87 6.934-11.7.549-4.824-12.723-17.205-26.678-23.549-10.685-4.861-14.17 22.711-12.8 24.557z" fill="#ee9155"/><path d="M873.45 136.343c18.18 12.296 86.227 42.174 86.227 42.174s6.485-3.278 13.414-15.724c10.397-18.689 8.62-27.778 8.62-27.778s-40.196-29.257-69.06-46.275c-22.837-13.467-47.98-7.796-55.94 11.303-6.52 15.646 6.578 29.437 16.74 36.3z" fill="#16b4c6"/><path d="M917.994 521.442s-21.74-25.168-23.242-27.113c-1.668-2.154-4.198-5.699-9.461 1.017-5.256 6.718-7.034 8.734-7.034 8.734s30.596 21.334 34.15 23.252c3.557 1.909 7.884 1.237 5.587-5.89z" fill="#101b29"/><path d="M1264.887 668.932s72.638 80.418 86.521 97.113c13.881 16.697-13.496 48.473-41.039 35.828-27.545-12.629-65.32-30.741-84.896-51.502-19.567-20.77-29.428-41.353-25.908-67.74 3.52-26.385 45.773-35.385 65.322-13.7z" transform="translate(-351.934 -438.892)" fill="url(#prefix__i)"/><path d="M1353.467 787.663c-14.385 22.37-16 21.487-34.194 48.02-18.2 26.534-70.17 103.258-70.17 103.258s-3.115.95-5.302-.646c-3.287-2.39-2.623-4.623-2.623-4.623s11.119-20.031 14.898-35.233c3.772-15.197 34.979-106.306 41.69-124.222 6.7-17.905 17.877-28.754 37.562-19.479 19.682 9.291 24.445 23.12 18.139 32.925z" transform="translate(-351.934 -438.892)" fill="url(#prefix__E)"/><path d="M858.414 540.351s-32.211-8.283-34.553-9.025c-2.6-.818-6.697-2.287-7.193 6.23-.489 8.516-.8 11.186-.8 11.186s37.3.084 41.313-.367c4.01-.46 7.182-3.478 1.233-8.024z" fill="#101b29"/><path d="M879.845 233.746s-23.937 117.5-28.625 138.242c-4.687 20.734-45.691 18.431-52.318-10.5-6.617-28.936-21.389-87.41-3.557-148.242 9.645-32.899 89.682-7.621 84.5 20.5z" fill="#082947"/><path d="M854.832 354.394c-2.37 32.578-23.483 181.91-23.483 181.91s-.652 1.36-4.572.765c-3.822-.582-4.428-2.935-4.428-2.935s.21-20.882-3.63-35.728c-3.846-14.854-14.587-83.686-17.18-102.237-2.586-18.545-2.969-57.285 18.312-58.484 21.28-1.201 35.256 12.93 34.98 16.71z" fill="#082947"/><path d="M1241.883 517.759c33.746 5.082 32.447 35.564 34.848 60.912 5.55 58.56 11.324 115.282 11.324 115.282s-21.196 30.19-75.166 26.495c-70.086-4.808-75.887-25.191-75.887-25.191s16.639-96.06 31.305-142.859c5.113-16.312 23.084-36.381 51.01-36.596a133.713 133.713 0 0122.566 1.957z" transform="translate(-351.934 -438.892)" fill="url(#prefix__F)"/><path d="M911.976 48.87c11.942-7.59 20.334-37.477 6.19-45.838-17.477-10.334-22.067 9.183-33.088 7.728-23.983-3.156-32.498 11.45-31.965 30.692.33 11.919 8.178 24.283 17.754 30.695 4.162 2.783 6.97-17.553 19.92-22.039 12.951-4.492 21.19-1.238 21.19-1.238z" fill="#082947"/><path d="M902.699 83.503c1.064 10.172 6.277 32.86-17.486 29.706-27.918-3.698-31.57-33.178-29.739-36.329 4.162-7.173 14.98-2.19 22.018-1.162 7.033 1.035 24.305-.838 25.207 7.785z" fill="#082947"/><path d="M862.88 76.906c1.366 0 2.747.027 4.182.096a133.582 133.582 0 0122.404 3.273 47.297 47.297 0 017.143 2.066c.34 6.58 5.318 25.13-12.615 23.26-18.416-1.924-22.03-22.486-21.113-28.695z" fill="#f3a974"/><path d="M865.81 78c5.988-16.624 11.057-26.802 18.613-40.966.07-.553 22.131 5.93 29.301-4.797 0 0-.164 15.035-3.685 27.112-3.32 11.395-7.512 17.294-18.25 10.405-.653 5.685-2.04 11.638-1.319 16.603 1.442 10.01-5.24 13.129-10.037 13.125-4.8-.012-20.982-3.824-14.623-21.481z" fill="#f3a974"/><path d="M871.787 40.044c-2.02 2.58-.565 7.09 3.252 10.076 3.814 2.978 8.547 3.31 10.562.733 2.018-2.583.565-7.089-3.26-10.076-3.81-2.99-8.54-3.309-10.554-.733z" fill="#f3a974"/><path d="M894.564 112.17l-3.555 10.051-7.949.265-6.287-13.216s12.674-4.446 17.791 2.9z" fill="#082947"/><path d="M891.01 122.221l12.48 106.625-17.574 43.378-17.407-42.21 14.551-107.528s2.781-5.095 7.95-.265z" fill="#082947"/><path d="M768.595 160.902s-15.316 21.516-18.683 28.709c-2.42 5.153 5.004 7.93 9.533 9.703 4.525 1.769 19.893-7.882 29.607-19.746 7.436-9.084-18.324-19.516-20.457-18.666z" fill="#f3a974"/><path d="M835.42 87.543c-20.747 15.083-78.993 82.087-78.993 82.087s1.51 7.11 11.762 16.997c15.397 14.843 24.639 15.458 24.639 15.458s22.808-17.906 42.082-35.464c9.424-8.584 12.232-13.437 12.006-39.745-.147-16.953-1.575-46.548-11.496-39.333zm21.603 196.473a3.758 3.758 0 003.822 4.86h98.79a6.694 6.694 0 006.177-4.86l17.06-70.448a3.76 3.76 0 00-3.824-4.86H880.26a6.692 6.692 0 00-6.175 4.86z" fill="#16b4c6"/><path d="M1208.957 722.908l17.06-70.448a6.692 6.692 0 016.176-4.86h4.75a6.692 6.692 0 00-6.175 4.86l-17.061 70.448a3.758 3.758 0 003.822 4.86h-4.75a3.758 3.758 0 01-3.822-4.86z" transform="translate(-351.934 -438.892)" style="mix-blend-mode:color-burn" fill="url(#prefix__G)"/><path d="M857.164 233.018c3.043-1.365 12.804-4.825 13.883-2.4 2.556 5.739-4.069 4.806-8.416 11.446-2.809 4.287-15.979-.299-15.979-.299a29.053 29.053 0 0110.512-8.747z" fill="#f3a974"/><path d="M764.035 185.523c25.105 8.076 73.672 50.415 85.894 52.606 7.94 1.425 11.559-5.937 24.91 1.663 6.471 3.682 4.114 24.105-3.222 25.413-16.787 2.99-23.723-4.551-26.518-16.182-4.875-5.164-64.765-29.403-80.994-37.495-7.328-3.65-17.906-9.879-16.646-15.633 2.004-9.165 7.257-13.368 16.576-10.372z" fill="#f3a974"/><path d="M943.482 64.569c-2.73-.3-10.996-.41-11.02 1.469-.068 5.356 14.604 9.301 20.325 9.705 4.217.297.312-4.407.312-4.407s-3.916-6.158-9.617-6.767z" fill="#ee9155"/><path d="M998.61 155.215c-2.55-26.25-30.556-72.95-36.458-86.575.451-7.702 1.59-12.412-2.867-21.395-7.319-14.75-21.68.957-22.514 5.16-.685 3.457-.531 18.723 14.793 21.7 5.44 4.56 17.201 57.923 21.654 75.504 2.004 7.938 3.817 17.35 11.723 19.593 9.033 2.56 14.613-4.25 13.668-13.987z" fill="#ee9155"/><path d="M920.529 60.106c-2.404-.02-2.695-4.695-2.678-7.492.067-2.813.39-7.354 2.744-7.438l19.014.084-.066 14.93z" fill="#082947"/><path d="M950.795 63.477c-1.29 0-2.424-4.947-2.39-11.15.017-6.168 1.255-11.184 2.524-11.184l37.79.238-.17 22.4z" fill="#16b4c6"/><path d="M950.795 63.477c-1.29 0-2.424-4.947-2.39-11.15.017-6.168 1.255-11.184 2.524-11.184l37.79.238-.17 22.4z" fill="#16b4c6"/><path d="M988.548 63.782c-1.337 0-2.421-5.051-2.388-11.217.015-6.15 1.203-11.184 2.558-11.184 1.371.084 2.409 5.067 2.39 11.268-.032 6.1-1.151 11.148-2.56 11.133m-.048 2.17c4.1.015 4.76-8.303 4.777-13.287.068-5.016-.457-13.317-4.559-13.354-4.048-.014-4.726 8.287-4.744 13.236-.033 5.051.492 13.387 4.526 13.405z" fill="#082947"/><path d="M988.548 63.782c-1.337 0-2.421-5.051-2.388-11.217.015-6.15 1.203-11.184 2.558-11.184 1.371.084 2.409 5.067 2.39 11.268-.032 6.1-1.151 11.148-2.56 11.133z" fill="#b4e1eb"/><path d="M980.84 50.971a3.226 3.226 0 00-3.254-3.271l-13.288-.051a3.254 3.254 0 00-3.267 3.238v3.051a3.247 3.247 0 003.236 3.236l13.283.051a3.195 3.195 0 003.272-3.203z" fill="#082947"/><path d="M932.474 63.393c-1.338 0-2.422-4.95-2.338-11.133.016-6.187 1.155-11.203 2.49-11.203l37.672.24-.101 22.4z" fill="#16b4c6"/><path d="M932.474 63.393c-1.338 0-2.422-4.95-2.338-11.133.016-6.187 1.155-11.203 2.49-11.203l37.672.24-.101 22.4z" fill="#16b4c6"/><path d="M970.197 63.698c-1.305 0-2.404-5.05-2.371-11.217.015-6.152 1.185-11.184 2.472-11.184 1.407.084 2.458 5.065 2.442 11.268-.035 6.1-1.17 11.148-2.543 11.133m-.018 2.168c4 .017 4.678-8.301 4.711-13.285.086-5.016-.49-13.319-4.523-13.354-4.05-.016-4.694 8.287-4.78 13.234-.015 5.053.594 13.39 4.592 13.405z" fill="#082947"/><path d="M970.197 63.698c-1.305 0-2.404-5.05-2.371-11.217.015-6.152 1.185-11.184 2.472-11.184 1.407.084 2.458 5.065 2.442 11.268-.035 6.1-1.17 11.148-2.543 11.133z" fill="#b4e1eb"/><path d="M1272.53 484.068l10.134.051c.508-2.508 1.188-4.17 1.896-4.17l18.27.12.033-.034 16.575.12a3.34 3.34 0 012.863-2.036c.22.018.355.018.51.018l-.036.035a3.42 3.42 0 012.356 1.998l12.658.103a3.347 3.347 0 012.863-2.07 5.045 5.045 0 01.543.02l-.035.033c3.594.66 4.12 8.49 4.05 13.3a2.192 2.192 0 00-.065.31l-75.36-.36c.067-2.813.39-7.354 2.744-7.438z" transform="translate(-351.934 -438.892)" style="mix-blend-mode:color-burn" fill="url(#prefix__H)"/><path d="M1357.8 1016.268c-.577 4.49-.631 9.18 1.84 10.148 3.894 1.515 3.657-5.288 8.511-11.39 3.18-4-2.742-11.696-2.742-11.696s-6.729 6.054-7.61 12.938z" fill="#f3a974"/><path d="M1333.268 917.296c.979 28.817 27.031 67.366 30.719 87.13 1.613 8.657-2.111 26.163 6.965 27.858 5.683 1.47 19.56-2.188 19.344-8.54-.17-4.996-8.604-21.261-15.659-21.668-4.013-5.842-15.707-62.44-20.191-79.956-2.02-7.913-5.672-18.447-11.563-18.45-9.384.005-10.58 3.918-9.615 13.626z" fill="#f3a974"/><path d="M1322.659 1042.293a5.017 5.017 0 006.535 2.704l96.682-40.095a5.017 5.017 0 002.703-6.534l-27.948-67.389a5.013 5.013 0 00-6.533-2.703l-96.681 40.094a5.013 5.013 0 00-2.703 6.534z" fill="#e95c33"/><path d="M1649.35 1407.262l8.928-3.702a5.015 5.015 0 00-2.703 6.534l27.947 67.388a5.013 5.013 0 006.534 2.704l-8.928 3.703a5.017 5.017 0 01-6.535-2.703l-27.945-67.39a5.013 5.013 0 012.703-6.534z" transform="translate(-351.934 -438.892)" style="mix-blend-mode:color-burn" fill="url(#prefix__k)"/><path d="M1347.672 992.43a15.127 15.127 0 1119.768 8.178 15.128 15.128 0 01-19.768-8.178z" fill="#082947"/><path d="M1699.606 1431.322a15.127 15.127 0 0019.768 8.178c-4.889 2.028-11.447-2.584-14.648-10.3-3.2-7.718-1.83-15.617 3.058-17.645a15.128 15.128 0 00-8.178 19.767z" transform="translate(-351.934 -438.892)" style="mix-blend-mode:color-burn" fill="url(#prefix__I)"/><path d="M1044.86 870.293c-3.645-2.686-7.72-5.012-9.766-3.32-3.214 2.666 2.844 5.766 5.82 12.969 1.952 4.724 11.56 3.286 11.56 3.286s-2.025-8.821-7.615-12.935z" fill="#f3a974"/><path d="M1143.287 896.923c-25.665-13.14-72.015-9.094-91.08-15.471-8.353-2.792-21.846-14.554-27.736-7.443-4.045 4.255-1.014 17.623 4.643 20.519 4.451 2.278 16.19 3.345 19.973-2.624 7.054-.671 62.207 16.598 79.697 21.19 7.897 2.076 18.88 4 21.743-1.15 4.554-8.204 1.714-11.148-7.24-15.02z" fill="#f3a974"/><path d="M1300.97 1299.304a18.23 18.23 0 01.263-2.185c1.043-5.85 4.512-4.621 6.8-3.889.42.137 1.827.523 3.837 1.06 2.01-.537 3.416-.923 3.836-1.06 2.285-.732 5.76-1.96 6.802 3.889a18.679 18.679 0 01.262 2.185c.508 8.342.826 10.951.826 10.951s-5.117.032-11.726.045c-6.61-.013-11.73-.045-11.73-.045s.322-2.609.83-10.95z" fill="#101b29"/><path d="M1264.426 1008.228s19.123 104.404 23.809 125.147c4.687 20.736 45.693 18.433 52.318-10.498 6.62-28.936 15.795-72.428 6.162-115.846-6.052-27.28-10.085-28.356-32.675-41.36-22.598-13.011-54.795 14.436-49.614 42.557z" fill="#f3a974"/><path d="M1284.626 1115.78c2.369 32.579 23.482 181.914 23.482 181.914s.652 1.36 4.572.763c3.823-.58 4.428-2.934 4.428-2.934s-.209-20.885 3.631-35.73c3.844-14.854 14.586-83.684 17.18-102.235 2.586-18.549 2.968-57.287-18.313-58.486-21.28-1.201-35.258 12.931-34.98 16.709z" fill="#f3a974"/><path d="M1210.362 1302.101s31.533-8.137 33.83-8.86c2.54-.802 6.555-2.251 7.047 6.094.484 8.342.797 10.95.797 10.95s-36.531.119-40.463-.32c-3.934-.444-7.035-3.4-1.211-7.864z" fill="#101b29"/><path d="M1209.188 1011.699s8.252 92.498 11.22 113.55c2.968 21.051 38.641 36.126 47.618 7.835 8.967-28.297 26.1-81.598 23.928-109.465-2.166-27.862-10.608-48.569-32.057-63.383-21.453-14.822-52.709 31.963-50.709 51.463z" fill="#f3a974"/><path d="M1219.75 1122.941c2.975 32.527 2.647 34.154 4.893 54.201 3.512 31.315 14.051 118.834 14.051 118.834s.541 2.084 4.984 3.076a5.017 5.017 0 004.407-1.447s-.577-22.436 3.023-37.342c3.604-14.912 16.242-89.38 18.531-107.97 2.287-18.586-.988-51.856-22.285-52.708-21.299-.855-28.775 10.555-27.603 23.356z" fill="#f3a974"/><path d="M1349.499 1007.687c2.295 21.957 2.832 71.402 1.388 95.402-1.445 24-1.388 29.334-1.388 29.334s-8.055 9.666-59.389 10.334c-51.334.666-73-14.334-73-14.334s-7.375-93.214-8.014-112c-.638-18.785 25.514-58.084 80.014-59.04 54.5-.96 58.477 31.997 60.389 50.304z" fill="#082947"/><path d="M1259.503 833.46c-2.444-8.35-2.985-12.86-5.663-20.345-25.873-.268-32.652-17.596-34.937-28.096a125.7 125.7 0 00-.147 26.8c1.659 11.507 2.631 15.616 14.502 13.337 1.094 8.185.768 9.431 1.657 15.355 1.468 9.795 6.496 12.58 11.195 12.657 4.695.076 18.56-2.07 13.393-19.708z" fill="#f3a974"/><path d="M1207.64 868.046c1.396-16.97 3.33-28.396 30.628-33.824 8.088-1.61 14.266-1.838 21.99-2.94 26.696-3.816 39.063 9.423 50.36 36.684 28.482 68.74 40.27 138.823 40.27 138.823s-11.739 11.968-76.778 17.318c-52.8 4.342-66.47-6.219-66.47-6.219s-2.864-115.08 0-149.842z" fill="#16b4c6"/><path d="M1170.749 911.39s-18.883 4.337-26.668 4.35c-5.581.01-11.529-7.382-11.218-12.127.304-4.746 15.232-14.403 29.781-18.106 11.145-2.837 9.742 24.344 8.105 25.882z" fill="#f3a974"/><path d="M1229.522 888.457c-31.398 27.372-69.857 35.035-69.857 35.035s-8.838-6.006-12.1-19.563c-2.963-12.366-.299-18.646-.299-18.646s33.848-16.706 55.546-34.284c6.132-4.976 25.99-19.162 34.01-9.809 9.65 11.245 13.466 29.167-7.3 47.267z" fill="#e95c33"/><path d="M1335.297 884.987s10.7 16.151 13.45 23.436c1.97 5.221-2.86 13.387-7.41 14.765-4.551 1.384-18.838-9.197-27.42-21.517-6.573-9.435 19.365-17.677 21.38-16.684z" fill="#f3a974"/><path d="M1293.169 838.026c36.662 19.771 57.355 53.082 57.355 53.082s-2.516 10.385-14.06 18.204c-10.536 7.121-17.35 6.835-17.35 6.835s-27.54-25.813-51.623-39.948c-6.815-3.991-27.074-17.596-21.139-28.39 7.135-12.99 22.572-22.862 46.817-9.783z" fill="#e95c33"/><path d="M1236.506 835.224c3.045-25.705-10.16-30.715-12-32.75-3.45-3.81-9.828-8.572-8.167-17.357 2.193-11.606 5.417-26.143 29.992-29.297 20.474-2.629 38.675 17.654 53.675 56.031 6.745 17.254 38.415 7.592 62.834 42.217 15 21.273 14.29 62.137-24.908 86.344-21.855 13.5-98.99 25.238-110.433-43.297-2.873-17.211 8.072-54 9.007-61.89z" fill="#082947"/><path d="M1233.366 796.484c2.506 2.002 2.148 6.627-.805 10.334-2.96 3.713-7.392 5.101-9.896 3.101-2.514-2-2.155-6.626.806-10.337 2.951-3.707 7.389-5.092 9.895-3.098z" fill="#f3a974"/><path d="M128.814 1271.967a2.756 2.756 0 01-2.717-2.715v-130.885a2.757 2.757 0 012.717-2.719h155.154a2.761 2.761 0 012.721 2.719v130.885a2.76 2.76 0 01-2.72 2.715z" fill="#16b4c6"/><path d="M635.902 1574.54H611.13a2.76 2.76 0 012.72 2.719v130.885a2.758 2.758 0 01-2.72 2.715h24.773a2.76 2.76 0 002.721-2.715v-130.885a2.761 2.761 0 00-2.72-2.719z" transform="translate(-351.934 -438.892)" style="mix-blend-mode:multiply" opacity=".25" fill="url(#prefix__J)"/><path d="M170.425 1218.932c-2.171 0-2.693-1.257-1.158-2.794l15.235-15.236a3.972 3.972 0 015.591 0l6.588 6.586a3.957 3.957 0 005.59 0l13.504-13.497a3.965 3.965 0 015.592 0l22.148 22.147c1.537 1.537 1.016 2.794-1.16 2.794z" fill="#fff"/><path d="M205.52 1194.57a5.889 5.889 0 11-5.888-5.885 5.888 5.888 0 015.887 5.885z" fill="#fff"/><path d="M157.28 1083.418l-119.116-.005a9.172 9.172 0 00-9.143 9.155l-.004 75.021a9.174 9.174 0 009.143 9.163l119.113.011a9.18 9.18 0 009.15-9.158v-75.02a9.189 9.189 0 00-9.142-9.167z" fill="#f1663a"/><path d="M87.308 1111.68c-1.775-1.264-3.234-.512-3.234 1.677v33.461c0 2.186 1.459 2.941 3.234 1.675l22.723-16.11a2.64 2.64 0 000-4.596z" fill="#fff"/><path d="M156.644 1187.02l-117.842-.006a11.07 11.07 0 00-11.035 11.056l-.006 9.33a11.07 11.07 0 0011.034 11.055h118.347a11.076 11.076 0 0010.53-11.04l.005-9.341a11.076 11.076 0 00-11.033-11.055z" fill="#082947"/><path d="M92.865 1192.115c-1.027-.729-1.867-.295-1.867.965v19.306c0 1.262.84 1.696 1.867.97l13.105-9.296a1.523 1.523 0 000-2.651z" fill="#fff"/><path d="M65.092 1195.143h1.61a.99.99 0 01.991.99v13.202a.991.991 0 01-.991.99h-1.61a.991.991 0 01-.99-.99v-13.202a.99.99 0 01.99-.99zm8.749 0h1.612a.992.992 0 01.992.992v13.199a.992.992 0 01-.992.992H73.84a.988.988 0 01-.988-.989v-13.206a.988.988 0 01.988-.988zM119.517 1196.625h10.92a.898.898 0 01.899.898v10.422a.898.898 0 01-.899.898h-10.916a.9.9 0 01-.9-.9v-10.422a.896.896 0 01.896-.896z" opacity=".5" fill="#fff"/><path d="M158.328 1202.173l-5.563-3.945c-.435-.309-.79-.125-.79.408v1.965l-5.22-3.703c-.562-.4-1.025-.162-1.025.534v10.608c0 .693.463.931 1.026.532l5.218-3.7v1.96c0 .534.356.718.791.41l5.563-3.944a.646.646 0 000-1.125zm-121.217 0l5.56-3.945c.436-.309.793-.125.793.408v1.965l5.217-3.703c.567-.4 1.028-.162 1.028.534v10.608c0 .693-.461.931-1.028.532l-5.217-3.7v1.96c0 .534-.357.718-.792.41l-5.561-3.944a.648.648 0 010-1.125z" style="mix-blend-mode:color-burn" fill="#cdcdcd"/><path fill="#fff" d="M56.177 1191.301h.658v1.643h-.658zm.659 19.046h-.659v-3.625h.659zm0-5.8h-.659v-3.627h.659zm0-5.8h-.659v-3.626h.659zm-.659 13.777h.658v1.644h-.658zm82.428-21.223h.656v1.643h-.656zm.656 19.046h-.656v-3.625h.656zm0-5.8h-.656v-3.627h.656zm0-5.8h-.656v-3.626h.656zm-.656 13.777h.656v1.644h-.656z"/><path d="M698.85 375.24a5 5 0 01-4.27-7.594 108.46 108.46 0 00-16.916-133.624 5 5 0 016.996-7.145 118.46 118.46 0 0118.469 145.957 5 5 0 01-4.28 2.407zM519.24 238.752a5 5 0 01-3.639-8.427 118.513 118.513 0 01136.766-25.947 5 5 0 11-4.274 9.041 108.514 108.514 0 00-125.212 23.761 4.983 4.983 0 01-3.641 1.572zm-29.592 94.615a5.002 5.002 0 01-4.94-4.264 119.837 119.837 0 01-1.3-17.613 117.334 117.334 0 0111.724-51.435 5 5 0 119.006 4.35 107.379 107.379 0 00-10.73 47.085 109.787 109.787 0 001.191 16.138 5 5 0 01-4.207 5.683 5.064 5.064 0 01-.744.056zm15.41 42.303a4.994 4.994 0 01-4.267-2.39 118.194 118.194 0 01-8.332-16.31 5 5 0 119.232-3.843 108.29 108.29 0 007.625 14.93 5.002 5.002 0 01-4.258 7.612z" fill="#1eb2c3"/><path d="M578.457 338.955c2.662.881 7.015 2.326 9.675 3.208l19.487 6.459a5.115 5.115 0 013.236 6.443l-38.26 112.916c-.882 2.66-2.707 2.826-4.056.368l-15.276-27.825a5.59 5.59 0 00-7.09-2.35l-28.87 13.19c-2.551 1.166-3.917-.059-3.034-2.719l38.258-112.915a5.113 5.113 0 016.443-3.235z" fill="#e65d2d"/><path d="M625.187 338.955c-2.662.881-7.017 2.326-9.678 3.208l-19.486 6.459a5.114 5.114 0 00-3.234 6.443l38.26 112.916c.88 2.66 2.705 2.826 4.056.368l15.274-27.825a5.59 5.59 0 017.09-2.35l28.872 13.19c2.55 1.166 3.915-.059 3.034-2.719l-38.26-112.915a5.112 5.112 0 00-6.442-3.235z" fill="#e65d2d"/><path d="M1052.701 750.383a98.946 98.946 0 11-98.945-98.946 98.944 98.944 0 0198.945 98.946z" transform="translate(-351.934 -438.892)" style="mix-blend-mode:color-burn" fill="url(#prefix__K)"/><circle cx="601.822" cy="311.491" r="95.496" style="mix-blend-mode:color-burn" fill="url(#prefix__L)"/><path d="M685.8 311.49c0 7.085-10.502 12.691-12.248 19.225-1.806 6.76 4.432 16.856 1.008 22.776-3.472 6.002-15.369 5.626-20.24 10.499-4.873 4.872-4.496 16.766-10.498 20.24-5.918 3.424-16.016-2.814-22.775-1.007-6.534 1.746-12.141 12.246-19.225 12.246-7.082 0-12.691-10.5-19.225-12.246-6.76-1.807-16.855 4.43-22.775 1.006-6.002-3.475-5.627-15.368-10.498-20.24-4.873-4.872-16.766-4.496-20.24-10.5-3.424-5.916 2.812-16.014 1.005-22.774-1.744-6.533-12.246-12.14-12.246-19.224 0-7.083 10.502-12.694 12.246-19.225 1.807-6.759-4.43-16.855-1.005-22.773 3.474-6.004 15.369-5.627 20.24-10.498 4.871-4.873 4.496-16.768 10.5-20.243 5.918-3.423 16.015 2.815 22.773 1.008 6.534-1.746 12.143-12.248 19.225-12.248 7.084 0 12.691 10.502 19.225 12.248 6.757 1.807 16.857-4.431 22.775-1.007 6.002 3.474 5.625 15.369 10.498 20.242 4.871 4.87 16.768 4.495 20.24 10.498 3.424 5.918-2.814 16.015-1.008 22.773 1.746 6.533 12.248 12.143 12.248 19.225z" fill="#082947"/><path d="M1021.436 750.383a67.68 67.68 0 11-67.68-67.68 67.678 67.678 0 0167.68 67.68z" transform="translate(-351.934 -438.892)" style="mix-blend-mode:color-burn" fill="url(#prefix__M)"/><path d="M654.25 311.49a52.428 52.428 0 11-52.428-52.426 52.428 52.428 0 0152.428 52.427z" fill="#1eb2c3"/><path d="M953.756 697.956c14.377 0 26.031 23.472 26.031 52.427s-11.654 52.427-26.031 52.427a52.427 52.427 0 100-104.854z" transform="translate(-351.934 -438.892)" style="mix-blend-mode:color-burn" fill="url(#prefix__l)"/><path d="M1025.486 769.607c1.746-6.534 12.248-12.14 12.248-19.224 0-7.082-10.502-12.692-12.248-19.225-1.806-6.758 4.432-16.855 1.008-22.773-3.472-6.003-15.369-5.627-20.24-10.498-4.873-4.873-4.496-16.768-10.498-20.242-5.565-3.218-14.82 2.098-21.527 1.248 2.066 4.484 2.125 14.596 4.189 18.994 2.289 4.87 7.877 4.495 9.508 10.498 1.61 5.918-1.32 16.015-.473 22.773.82 6.533 5.754 12.143 5.754 19.225 0 7.084-4.934 12.69-5.754 19.224-.847 6.76 2.082 16.856.473 22.776-1.631 6.002-7.219 5.626-9.508 10.499-2.064 4.395-2.123 14.507-4.187 18.993 6.705-.854 15.96 4.465 21.525 1.246 6.002-3.473 5.625-15.367 10.498-20.24 4.871-4.872 16.768-4.496 20.24-10.498 3.424-5.92-2.814-16.016-1.008-22.776z" transform="translate(-351.934 -438.892)" style="mix-blend-mode:color-burn" fill="url(#prefix__N)"/><path fill="#082947" d="M601.822 274.077l11.385 23.068 25.459 3.7-18.424 17.956 4.349 25.356-22.769-11.971-22.77 11.971 4.348-25.356-18.422-17.956 25.459-3.7 11.385-23.068z"/><path fill="#18b2c4" d="M709.757 375.03l-16.23 3.899-3.9-16.228 20.13 12.329z"/></g></svg>