<svg version="1.1" id="prefix__Layer_1" xmlns="http://www.w3.org/2000/svg" x="0" y="0" viewBox="0 0 400 400" xml:space="preserve"><style>.prefix__st0{fill:#00ebc7}.prefix__st3{fill:#fff}.prefix__st5{opacity:.3;enable-background:new}.prefix__st6{fill:#263238}.prefix__st7{fill:#803e3c}.prefix__st8{fill:#7f3e3b}.prefix__st10,.prefix__st11{opacity:.2;enable-background:new}.prefix__st11{opacity:.4}</style><g id="prefix__freepik--background-simple--inject-31"><path class="prefix__st0" d="M387.6 205c10.4 47.2-18.6 77.7-58.6 76.3-19.2-.7-42.1-21.8-61-26.5-24.6-6.2-45.9 1.8-69.5 3-58.6 2.9-57.8-21-97.2-51.8-27.7-21.7-72.4-19.3-87.2-57.2-18.2-46.4 33.8-68.8 73.3-62 45.4 7.9 58-48.7 127.3-42.4C282.9 50.6 373 133.8 387.6 205z"/><path d="M387.6 205c10.4 47.2-18.6 77.7-58.6 76.3-19.2-.7-42.1-21.8-61-26.5-24.6-6.2-45.9 1.8-69.5 3-58.6 2.9-57.8-21-97.2-51.8-27.7-21.7-72.4-19.3-87.2-57.2-18.2-46.4 33.8-68.8 73.3-62 45.4 7.9 58-48.7 127.3-42.4C282.9 50.6 373 133.8 387.6 205z" opacity=".9" fill="#fff"/></g><g id="prefix__freepik--Login--inject-31"><path class="prefix__st0" d="M219.7 307.8h-131c-4.4-.1-7.9-3.5-8.2-7.8L68.8 72.6c-.3-4.1 2.8-7.6 6.9-7.8h131.5c4.4.1 7.9 3.5 8.2 7.8L227.1 300c.3 4.1-2.8 7.6-6.9 7.8h-.5z"/><path d="M219.7 307.8h-131c-4.4-.1-7.9-3.5-8.2-7.8L68.8 72.6c-.3-4.1 2.8-7.6 6.9-7.8h131.5c4.4.1 7.9 3.5 8.2 7.8L227.1 300c.3 4.1-2.8 7.6-6.9 7.8h-.5z" opacity=".8" fill="#fff"/><path class="prefix__st0" d="M179.8 57.3h14.5v1h-14.5zM169.4 57.3h5.3v1h-5.3zM225.3 293.4H100.1c-4.2 0-7.6-3.3-7.9-7.5L81 68.4c-.2-3.9 2.7-7.2 6.6-7.5h125.7c4.2 0 7.6 3.3 7.9 7.5l11.2 217.5c.2 3.9-2.7 7.2-6.6 7.5h-.5z"/><path class="prefix__st3" d="M225.3 288.4H100.1c-1.5-.1-2.8-1.2-2.9-2.8L86 68.1c-.1-.6.2-1.2.6-1.6.4-.4 1-.7 1.6-.6h125.2c1.5.1 2.8 1.2 2.9 2.8l11.3 217.5c.1 1.1-.7 2.1-1.9 2.2h-.4zM88.1 66.2c-.5 0-1 .2-1.4.6-.3.4-.5.9-.5 1.4l11.2 217.5c.1 1.4 1.2 2.5 2.6 2.5h125.2c.5 0 1-.2 1.4-.6.4-.4.5-.9.5-1.4L216 68.7c-.1-1.4-1.2-2.5-2.6-2.5H88.1z"/><ellipse transform="rotate(-45.741 153.649 118.012)" cx="153.7" cy="118" rx="36.9" ry="38.9" opacity=".3" fill="#fff"/><path class="prefix__st3" d="M184.4 118c.3 5-.7 10.1-2.9 14.6-4.9 9.9-15.1 16.2-26.1 16.1-11.4-.1-22-6.2-27.8-16.1-2.7-4.4-4.2-9.5-4.5-14.6-1-15.9 11-29.6 26.9-30.6.7 0 1.4-.1 2.2-.1 17 .2 31.1 13.6 32.2 30.7z"/><path class="prefix__st0" d="M181.4 132.6c-4.9 9.9-15.1 16.2-26.1 16.1-11.4-.1-22-6.2-27.8-16.1 7.8-5.4 17.1-8.3 26.5-8.2 9.7.1 19.2 2.9 27.4 8.2z"/><ellipse transform="rotate(-45.741 153.116 107.52)" class="prefix__st0" cx="153.1" cy="107.5" rx="13.3" ry="14"/><path class="prefix__st3" d="M207.4 208.7h-98c-1.8 0-3.2-1.4-3.3-3.2l-.7-14.4c-.1-1.6 1.1-3.1 2.8-3.2h98.2c1.8 0 3.2 1.4 3.3 3.2l.7 14.4c.1 1.6-1.1 3.1-2.8 3.2h-.2z"/><path class="prefix__st5" d="M177.3 180.1h-41c-1.8 0-3.2-1.4-3.3-3.2l-.2-3.1c-.1-1.6 1.1-3.1 2.8-3.2h41.1c1.8 0 3.2 1.4 3.3 3.2l.2 3.1c.1 1.7-1.2 3.1-2.8 3.2h-.1zM192.6 277.8h-61.3c-3 0-5.5-2.4-5.7-5.4l-.4-7.1c-.1-2.8 2-5.2 4.9-5.4H191.7c3 0 5.5 2.4 5.7 5.4l.4 7.1c.1 2.8-2 5.2-4.9 5.4h-.3z"/><path class="prefix__st3" d="M209.2 243.5h-98.1c-1.8 0-3.2-1.4-3.3-3.2L107 226c-.1-1.6 1.1-3.1 2.8-3.2H208c1.8 0 3.2 1.4 3.3 3.2l.7 14.4c.1 1.7-1.2 3.1-2.8 3.2.1-.1 0-.1 0-.1z"/><path class="prefix__st6" d="M121.8 198.4c.1 1.8-1.3 3.4-3.1 3.5h-.2c-2 0-3.6-1.6-3.7-3.5-.1-1.8 1.3-3.4 3.1-3.5h.3c1.8 0 3.4 1.5 3.6 3.5zM132.6 198.4c.1 1.8-1.3 3.4-3.1 3.5h-.3c-2 0-3.6-1.6-3.7-3.5-.1-1.8 1.3-3.4 3.1-3.5h.3c1.9 0 3.5 1.5 3.7 3.5zM143.3 198.4c.1 1.8-1.3 3.4-3.1 3.5h-.3c-2 0-3.6-1.6-3.7-3.5-.1-1.8 1.3-3.4 3.1-3.5h.2c2.1 0 3.7 1.5 3.8 3.5zM154.1 198.4c.1 1.8-1.3 3.4-3.1 3.5h-.2c-2 0-3.6-1.6-3.7-3.5-.1-1.8 1.3-3.4 3.1-3.5h.2c2 0 3.6 1.5 3.7 3.5zM123.6 233.1c.1 1.8-1.3 3.4-3.1 3.5h-.3c-2 0-3.6-1.6-3.7-3.5-.1-1.8 1.3-3.4 3.1-3.5h.2c2 0 3.7 1.6 3.8 3.5zM134.4 233.1c.1 1.8-1.3 3.4-3.1 3.5h-.2c-2 0-3.6-1.6-3.7-3.5-.1-1.8 1.3-3.4 3.1-3.5h.3c1.8 0 3.4 1.6 3.6 3.5zM145.1 233.1c.1 1.8-1.3 3.4-3.1 3.5h-.2c-2 0-3.6-1.6-3.7-3.5-.1-1.8 1.3-3.4 3.1-3.5h.3c1.9 0 3.5 1.6 3.6 3.5zM155.9 233.1c.1 1.8-1.3 3.4-3.1 3.5h-.3c-2 0-3.6-1.6-3.7-3.5-.1-1.8 1.3-3.4 3.1-3.5h.2c2.1 0 3.7 1.6 3.8 3.5zM166.7 233.1c.1 1.8-1.3 3.4-3.1 3.5h-.3c-2 0-3.6-1.6-3.7-3.5-.1-1.8 1.3-3.4 3.1-3.5h.2c2.1 0 3.7 1.6 3.8 3.5zM177.5 233.1c.1 1.8-1.3 3.4-3.1 3.5h-.2c-2 0-3.6-1.6-3.7-3.5-.1-1.8 1.3-3.4 3.1-3.5h.3c1.9 0 3.5 1.6 3.6 3.5z"/></g><g id="prefix__freepik--Character--inject-31"><path class="prefix__st7" d="M294.2 113.9c.3.4.4.6.6.9l.5.8c.3.5.6 1 .8 1.5.5 1 1 2.1 1.4 3.1.9 2 1.6 4.1 2.2 6.3 1.2 4.2 2.1 8.5 2.4 12.9l.1.8v1c0 .7 0 1.4-.1 2.1-.2 1.3-.5 2.6-1 3.8-.9 2.2-2.1 4.3-3.6 6.2a41.1 41.1 0 01-9.6 9l-2.8-3.3c2.6-2.9 4.9-6.1 6.8-9.4.9-1.5 1.6-3.2 2.1-4.8.2-.7.3-1.5.3-2.2v-1.2-.3l-.1-.7c-.7-3.8-1.6-7.6-2.8-11.3-.6-1.8-1.3-3.6-2.1-5.3-.4-.9-.8-1.7-1.2-2.5l-.6-1.2-.3-.6-.3-.5 7.3-5.1z"/><path class="prefix__st8" d="M284.6 162.3l3.7 7.9 2.9-6.6s-2.6-5.7-6.2-5.2l-.4 3.9zM291 170.6l3-4.9-2.7-2.2-2.9 6.7z"/><path class="prefix__st0" d="M274.3 351.6c.8 0 1.5-.1 2.3-.3.1 0 .1-.1.2-.2 0-.1 0-.2-.1-.2-.3-.2-2.9-1.9-3.9-1.4-.2.1-.4.3-.4.6-.1.4.1.8.3 1 .4.4 1 .6 1.6.5zm1.7-.6c-1.5.3-2.6.3-3.1-.1-.2-.2-.3-.5-.2-.7 0-.2.1-.2.2-.3.5-.2 2 .5 3.1 1.1z"/><path class="prefix__st0" d="M276.5 351.3h.1c.1 0 .1-.1.1-.2s0-2.6-.9-3.4c-.2-.2-.5-.3-.9-.3-.3 0-.6.2-.7.6-.2 1 1.4 2.8 2.2 3.3h.1zm-1.4-3.5c.2 0 .3.1.5.2.5.8.8 1.7.8 2.7-.8-.7-1.8-2.1-1.7-2.6-.1-.1 0-.2.4-.3zM264.6 347.4c.1-.1.1-.2 0-.3h-.1c-.4 0-4.1-.2-4.9.7v.1c-.1.2-.2.4-.1.6.1.4.4.6.7.7 1.2.4 3.3-.9 4.4-1.8zm-4.8.7c.5-.5 2.5-.6 4-.6-1.6 1.1-2.9 1.6-3.6 1.4-.2-.1-.4-.3-.5-.5 0-.1 0-.2.1-.3z"/><path class="prefix__st0" d="M264.6 347.4v-.2c-.1-.1-1.2-2.1-2.6-2.5-.4-.1-.8-.1-1.2.1-.5.3-.5.6-.5.8.3 1 2.9 1.8 4 1.8.2.1.3.1.3 0zm-3.7-2c.1-.1.1-.1.2-.1.3-.2.6-.2.9-.1.9.2 1.7 1.4 2.1 2-1.2-.1-3.1-.9-3.2-1.5-.1-.2 0-.3 0-.3z"/><path class="prefix__st8" d="M275.9 83.9c-1 5.1-3.2 16.2.3 19.6 0 0-1.4 5.1-10.9 5.1-10.4 0-5-5.1-5-5.1 5.7-1.4 5.5-5.6 4.5-9.5l11.1-10.1z"/><path class="prefix__st6" d="M258.5 71.8h.2c.2-.1.3-.3.2-.5-.6-1.2-1.7-2-3-2.3-.2 0-.4.1-.5.4 0 .2.1.4.4.5 1 .2 1.9.9 2.3 1.8.2.1.3.1.4.1z"/><path d="M255.4 76.3c-.8 1.5-1.8 2.9-3 4.1.6.6 1.5.9 2.4.8l.6-4.9z" fill="#630f0f"/><path class="prefix__st6" d="M256.2 75.2c-.1.7-.5 1.2-1 1.1-.4-.1-.7-.7-.7-1.3.1-.7.5-1.2 1-1.1s.8.6.7 1.3z"/><path class="prefix__st6" d="M255.7 73.9l-1.6-.6c.1 0 .7 1.3 1.6.6z"/><path class="prefix__st8" d="M273.7 345.5l-8.4 1.9-5.1-19.2 8.4-2zM286.5 351.1h-8.6l.7-19.9h8.6z"/><path class="prefix__st6" d="M277.2 350.1h9.7c.3 0 .6.3.7.6l1.1 7.6c.1.8-.5 1.4-1.2 1.5h-.2c-3.4-.1-5-.3-9.2-.3-2.6 0-6.4.3-10 .3s-3.8-3.6-2.3-3.9c6.7-1.5 7.8-3.4 10.1-5.4.3-.2.8-.4 1.3-.4z"/><path class="prefix__st6" d="M264.6 346.2l8.8-4c.3-.1.7 0 .9.2l4.2 6.5c.4.7.2 1.5-.5 1.9 0 0-.1 0-.1.1-3.1 1.4-4.6 1.9-8.5 3.6-2.4 1.1-7.2 3.6-10.4 5.1-3.3 1.5-4.9-1.7-3.7-2.6 5.5-4.1 7.1-7.1 8.4-9.7 0-.5.4-.9.9-1.1z"/><path class="prefix__st10" d="M260.2 328.2l2.7 10.3 8.3-2.3-2.6-10zM287.2 331.2h-8.6l-.3 10.3h8.6z"/><path class="prefix__st6" d="M291.1 105.4c3.6.8 7.4 13.6 7.4 13.6l-10.1 10.7s-8.4-12.1-6.7-16.5c1.8-4.5 5.1-8.7 9.4-7.8z"/><path class="prefix__st11" d="M285.4 113.6c-1.8-1.7-3-1.2-3.9.2-.8 3.8 4 11.8 6 14.8.9-3.6 2-11.2-2.1-15z"/><path class="prefix__st6" d="M245.9 105.7s-4.1 1.4 4.1 51.9h34.9c-.6-14.2-.6-23 6.2-52.1-4.9-1-9.8-1.7-14.8-2-5.3-.4-10.6-.4-15.8 0-6.9.6-14.6 2.2-14.6 2.2z"/><path class="prefix__st11" d="M245.5 125.1c.2 2.5.5 5.2.9 8.3 2.9-2.6 5.2-9.9 4.3-14.2-2 1.7-3.7 3.7-5.2 5.9z"/><path class="prefix__st7" d="M249.3 117.4c-1.9 4.7-4 9.4-6.4 13.9a81.9 81.9 0 01-8.2 13.3l-.7.8-.3.4c-.1.1-.2.3-.4.4-.6.7-1.3 1.3-2.1 1.8-1.3.9-2.8 1.6-4.3 2.1-2.7.8-5.4 1.3-8.2 1.5-5.2.2-10.5-.3-15.6-1.4l.6-4.3c2.4 0 4.8 0 7.2-.2 2.4-.1 4.7-.4 7-.8 2.2-.3 4.3-.9 6.3-1.8.8-.3 1.6-.8 2.3-1.4.3-.2.5-.5.7-.7 0 0 .1-.2.2-.3l.2-.3.5-.7c2.6-4 4.9-8.1 6.9-12.4 2.1-4.4 4.1-8.9 6-13.3l8.3 3.4z"/><path class="prefix__st6" d="M245.9 105.7c-4.3 1-9.5 12.8-9.5 12.8l8.9 13s11.8-14.9 10.4-19.4c-1.5-4.7-4.6-7.7-9.8-6.4z"/><path class="prefix__st8" d="M206.3 146.7l-7.4-3.4-.7 7.4s6.2 1.8 9.2 0l-1.1-4zM194.4 142.5l-.7 5.6 4.4 2.5.8-7.4zM279.6 75.7c-1.6 8.4-2.1 12-6.9 15.8-7.2 5.7-17.2 2-18.2-6.7-.9-7.8 1.8-20.2 10.5-22.6 6.2-1.7 12.6 1.9 14.3 8.1.6 1.7.7 3.6.3 5.4z"/><path class="prefix__st6" d="M261.2 77.4c-.5 4.3-.7 15.4 8.7 15.7 11.5.4 15-9.4 13.9-13.3 6-4.9 6.9-13.3.1-19.7s-21.6-2.8-25.7 3.4c-5.1 7.8 3 13.9 3 13.9z"/><path class="prefix__st0" d="M272.7 62.7c-.6-4.5-.1-7.6 4.1-7.6 4.2 0 10 1.5 12.1 5.9 2.1 4.3 2.3 11.1-3.6 10.4s-11.9-3.3-12.6-8.7z"/><path class="prefix__st6" d="M279.3 61.6c-1-5.4 3.8-20.5 15.5-21.6 5.4-.5 7.9 5.4 5.1 6.3 5.1-.1 8.4 6.7 3.6 7.7 3.8 2.4 2.8 7.4-2.5 9.8-4 2-20.3 5.2-21.7-2.2z"/><path class="prefix__st6" d="M291.8 67.4c-3.8 0-7.7-.6-10.1-2.2-1.4-.8-2.3-2.3-2.4-3.9 0-.1.1-.3.2-.3s.3.1.3.2c.1 1.5.9 2.8 2.2 3.5 4.6 3.1 15.4 2.1 18.7 1 2.9-.9 4.9-2.8 5.2-4.9.2-1.6-.4-3.2-1.7-4.1-.1-.1-.1-.2 0-.3.1-.1.3-.1.4 0 1.5 1.1 2.2 2.9 1.9 4.6-.4 2.3-2.5 4.3-5.6 5.3-3 .8-6.1 1.1-9.1 1.1z"/><path class="prefix__st8" d="M258.6 76.3c-1 1.3-1.3 3-1.1 4.6.3 2.2 2.4 2.3 4 .9 1.5-1.4 2.8-3.9 1.7-5.6-.8-1.2-2.5-1.6-3.7-.8-.4.3-.7.6-.9.9z"/><path class="prefix__st0" d="M259.2 157.6s5 59 10.2 92.3c4.2 26.9 7.5 89.6 7.5 89.6h11.7s4.2-60.9 2.1-87.5c-5.4-67.2 6.6-72.7-5.7-94.4h-25.8z"/><path class="prefix__st11" d="M273.9 179.9c-4.6 4.9-8.4 10.5-11.1 16.7 1.4 13.3 3 28 4.7 40.9 7.1-18.3 9.3-38.2 6.4-57.6z"/><path class="prefix__st0" d="M251 157.2s-10.8 64.4-12.5 93.5c4.2 26.9 21.6 83.6 21.6 83.6l10.7-3.9s-5.9-61.9-12.3-78.9c14.4-48.6 25.1-60.9 22-94-7.5.1-29.5-.3-29.5-.3z"/><path class="prefix__st6" d="M258.6 337.2l14.5-3.9-.9-5.8-15.4 4.2zM275.2 339.7h14.9l.8-5.2-15.8-.5z"/><path class="prefix__st0" d="M285.4 155.5l1.6 3.1c.1.2-.2.5-.6.5h-36.6c-.3 0-.6-.2-.6-.4l-.3-3.1c0-.2.3-.4.6-.4h35.4c.1.1.4.2.5.3z"/><path d="M285.4 155.5l1.6 3.1c.1.2-.2.5-.6.5h-36.6c-.3 0-.6-.2-.6-.4l-.3-3.1c0-.2.3-.4.6-.4h35.4c.1.1.4.2.5.3z" opacity=".5"/><path class="prefix__st0" d="M280.6 159.5h.9c.2 0 .3-.1.3-.2l-.5-4.1c0-.1-.2-.2-.4-.2h-1c-.2 0-.3.1-.3.2l.4 4.1c.3.1.5.2.6.2zM267.9 129.6c-.2 0-.4-.2-.5-.4-3.3-12.4-10.3-22.6-13.6-24.1-.3-.2-.6-.2-.9-.1-.3.1-.6 0-.7-.2-.1-.3 0-.6.2-.7h.1c.6-.2 1.2-.2 1.7.1 3.6 1.7 10.6 11.7 14.1 24.4 2.5 0 6.4-.3 7.3-.4 1.2-1.4 9.8-12.2 6.6-23.9-.1-.3.1-.5.3-.6.3-.1.6.1.6.4 3.6 13.1-6.8 24.9-6.9 25-.1.1-.2.2-.3.2 0-.2-5.1.3-8 .3z"/><path class="prefix__st0" d="M284.9 136.8c-5.6-10.5-7.9-11.2-8.9-14.6.8-1.9 1.8-3.6 3.2-5.1-.7-.2-2.1-.5-3.1-.7.1-.5.2-.9.3-1.4-1-.1-2.1-.1-3.1.1v-1c-1.3-.3-2.6-.4-4-.3l.3 1.5c-1 .2-2.6.5-3.3.7 1.5 1.6 2.5 3.6 3.1 5.7-3 5.2-14.7 38.5 4.3 41.1 19.3 2.7 16.8-15.5 11.2-26z"/><path d="M284.9 136.8c-5.6-10.5-7.9-11.2-8.9-14.6.8-1.9 1.8-3.6 3.2-5.1-.7-.2-2.1-.5-3.1-.7.1-.5.2-.9.3-1.4-1-.1-2.1-.1-3.1.1v-1c-1.3-.3-2.6-.4-4-.3l.3 1.5c-1 .2-2.6.5-3.3.7 1.5 1.6 2.5 3.6 3.1 5.7-3 5.2-14.7 38.5 4.3 41.1 19.3 2.7 16.8-15.5 11.2-26z" opacity=".4" fill="#fff"/><path class="prefix__st0" d="M268.8 120.9c-.1.5-.2 1.1-.2 1.6 0 .4 1 .6 2.2.7 1.1.1 5.9.3 5.8-.2-.2-.5.2-1.3.3-1.7s-1.9-.5-3.5-.4c-1.7.1-4.3-.6-4.6 0zM257.7 159.5h.9c.2 0 .3-.1.3-.2l-.4-4.1c0-.1-.2-.2-.4-.2h-.9c-.2 0-.3.1-.3.2l.4 4.1c0 .1.2.2.4.2z"/></g></svg>