<svg xmlns="http://www.w3.org/2000/svg" viewBox="0 0 390 359.206"><path d="M336.698 44.204l-1.875-3.051c-15.794-25.7-44.35-41.193-74.452-39.327a80.475 80.475 0 00-11.497 1.565c-27.37 5.784-51.186 26.23-61.02 52.406-5.8 15.397-7.428 33.119-18.447 45.34-14.335 15.918-38.68 16.405-60.082 15.75s-45.764-.097-60.038 15.866c-8.94 10.001-11.78 24.222-11.054 37.61 1.91 35.454 26.928 67.157 58.747 82.916s69.279 17.174 104.104 10.24c48.78-9.727 95.173-36.38 123.056-77.565s34.905-97.295 12.558-141.75z" fill="#ebebeb"/><path d="M101.004 27.781a28.299 28.299 0 016.385 18.094c-.045 3.732-.734 7.844 1.441 10.877 1.645 2.3 4.652 3.458 5.987 5.952 1.61 2.998.239 6.792 1.23 10.046 1.396 4.616 6.809 6.553 10.019 10.152a12.84 12.84 0 012.653 11.744 13.194 13.194 0 01-8.295 8.773 8.596 8.596 0 01-6.562-.106c-2.167-1.08-3.537-3.299-4.599-5.465-2.131-4.263-20.852-27.3-21.914-31.952M87.385 22.352c-7.659-1.239-15.034 3.846-18.244 10.903s-3.316 15.034-3.538 22.816-.787 15.848-4.74 22.516c-2.511 4.236-6.402 7.959-7.012 12.831-.549 4.37 1.715 8.773.963 13.115-.654 3.785-3.537 7.075-3.422 10.904.142 4.616 4.89 8.092 9.498 8.216s8.923-2.29 12.54-5.156a48.196 48.196 0 0013.769-17.501" fill="#263238"/><path d="M74.783 40.604a14.494 14.494 0 0112.586-16.178q.224-.028.45-.05c7.72-.742 14.59 5.015 15.75 12.69 1.016 6.73 1.883 13.522 1.856 15.99-.097 7.437-4.421 10.329-6.19 11.204a9.959 9.959 0 01-1.963.487m0 .053l1.645 8.543c.751 5.597-2.37 10.612-7.96 11.399s-9.984-3.485-10.842-9.082z" fill="#ffbe9d"/><path d="M102.047 40.321c-.124.177-1.105-.345-2.361-.159s-2.096.946-2.255.814 0-.354.389-.708a3.254 3.254 0 011.769-.884 3.095 3.095 0 011.91.318c.442.283.61.549.548.62zM90.851 43.045c-.123.177-1.105-.354-2.37-.168s-2.087.955-2.246.823 0-.363.39-.708a3.254 3.254 0 011.768-.884 3.166 3.166 0 011.91.327c.433.274.61.53.548.61zM95.441 49.793a8.304 8.304 0 011.99-.664c.318-.08.61-.185.637-.415a1.654 1.654 0 00-.354-.885l-1.318-2.352a41.691 41.691 0 01-3.069-6.093 37.3 37.3 0 013.538 5.837c.45.813.884 1.591 1.273 2.325a1.919 1.919 0 01.354 1.238.805.805 0 01-.46.549 2.246 2.246 0 01-.54.159 7.959 7.959 0 01-2.05.3z" fill="#263238"/><path d="M97.2 64.756S92.4 65.86 85.785 63.093c0 0 2.856 6.146 11.868 3.962z" fill="#eb996e"/><path d="M90.206 39.746c-.071.363-1.353.38-2.804.779s-2.59.964-2.83.69c-.106-.133.054-.487.487-.885a5.058 5.058 0 014.289-1.114c.584.133.858.362.858.53zM101.012 37.536c-.176.318-1.087.15-2.13.283s-1.902.477-2.15.203c-.106-.133 0-.433.336-.76a2.936 2.936 0 011.663-.726 3.016 3.016 0 011.769.328c.424.238.592.512.512.672zM88.119 44.672a1.044 1.044 0 001.18.887l.014-.002a1.008 1.008 0 00.886-1.117l-.002-.015a1.052 1.052 0 00-1.194-.885 1 1 0 00-.888 1.1zM99.27 42.258a1.052 1.052 0 001.194.884 1.008 1.008 0 00.886-1.116l-.002-.016a1.052 1.052 0 00-1.193-.884 1 1 0 00-.889 1.1z" fill="#263238"/><path d="M97.422 52.233a1.556 1.556 0 00-1.84.76 1.618 1.618 0 00.222 1.867 1.424 1.424 0 001.84.133 1.769 1.769 0 00.574-1.203 1.698 1.698 0 00-.283-1.203.964.964 0 00-1.123-.336" fill="#eb996e"/><path d="M102.587 31.01a11.39 11.39 0 00-4.847-6.81 12.646 12.646 0 00-6.774-2.38 9.294 9.294 0 00-6.668 2.424 6.933 6.933 0 00-2.051 4.82l.141-1.238a4.51 4.51 0 000 3.121c.204.54.451 1.088.663 1.628a6.986 6.986 0 003.308 3.599 4.545 4.545 0 002.21.54 2.653 2.653 0 002.008-.982 4.422 4.422 0 00.478-3.166 7.561 7.561 0 002.414 2.653 2.653 2.653 0 003.325-.38c.725-.885.442-2.282 0-3.379a6.686 6.686 0 002.768 2.38 2.467 2.467 0 001.972.211 1.919 1.919 0 001.026-1.326 4.05 4.05 0 00.027-1.716z" fill="#263238"/><path d="M96.193 33.362c-.08 0-.062-1.053-.407-2.653a10.117 10.117 0 00-3.051-5.545 7.243 7.243 0 00-3.06-1.654 6.65 6.65 0 00-2.847-.07 8.215 8.215 0 00-2.459 1.016 2.377 2.377 0 01.54-.504 5.43 5.43 0 011.848-.831 6.615 6.615 0 013.015 0 7.49 7.49 0 013.272 1.769 9.896 9.896 0 013.07 5.827 12.794 12.794 0 01.158 1.999 1.892 1.892 0 01-.08.646z" fill="#455a64"/><path d="M177.64 136.467l-34.002-13.486s-17.413-22.843-17.05-23.285l-12.23 13.389 17.774 24.045 41.202 9.657 7.074-1.963c-1.556-7.508-2.768-8.357-2.768-8.357z" fill="#ffbe9d"/><path d="M103.533 71.3l-4.634-1.769-20.004 2.538v3.537l-.575.071a40.98 40.98 0 00-12.248 4.758 20.906 20.906 0 00-9.728 21.286c.814 5.058 2.388 11.205 5.43 14.76 5.81 6.8 11.116-1.601 11.116-1.601s3.644 8.313 3.432 12.248a107.248 107.248 0 01-2.096 12.301.646.646 0 00.488.772l.033.007 42.201 7.808.204-10.32-1.345-42.448-1.9-16.484s.061-7.871-10.374-7.464z" fill="#fde24f"/><path fill="#fde24f" d="M113.261 76.022l16.095 23.249-12.956 15.777-3.139-39.026z"/><path d="M116.736 124.944a10.15 10.15 0 01-.062-1.504c0-1.043 0-2.414-.053-4.085a123.958 123.958 0 00-.964-13.416c-.663-5.217-1.68-9.878-2.45-13.265l-.937-3.98a10.25 10.25 0 01-.3-1.467 8.446 8.446 0 01.477 1.424c.274.884.646 2.272 1.07 3.953a108.376 108.376 0 012.6 13.265 104.089 104.089 0 01.831 13.477c0 1.769-.044 3.13-.097 4.094a8.844 8.844 0 01-.115 1.504z" fill="#263238"/><path d="M77.118 89.597c0 .07-1.22.062-3.175.159a51.417 51.417 0 00-7.588.982 52.574 52.574 0 00-7.358 2.113c-1.839.681-2.944 1.185-2.98 1.114a3.157 3.157 0 01.743-.433c.486-.265 1.212-.601 2.122-.982a41.192 41.192 0 0115.034-3.112c.99 0 1.769 0 2.344.053a2.794 2.794 0 01.858.106zM114.392 100.235a7.826 7.826 0 01-2.007.443 44.632 44.632 0 01-9.878.336 7.96 7.96 0 01-2.034-.301 11.594 11.594 0 012.052 0h4.917c1.919 0 3.652-.195 4.908-.31a11.294 11.294 0 012.042-.168zM121.777 89.72a12.522 12.522 0 01-3.45 2.786 12.133 12.133 0 01-4.058 1.769c-.053-.124 1.768-.884 3.82-2.193a39.87 39.87 0 013.688-2.361zM115.277 78.94a16.679 16.679 0 01-10.09 4.245c0-.141 2.431-.513 5.226-1.706s4.775-2.654 4.864-2.539zM116.152 118.24a4.218 4.218 0 01-.831.434c-.557.265-1.362.592-2.388.973a44.12 44.12 0 01-8.215 2.087 43.386 43.386 0 01-8.463.468A29.352 29.352 0 0193.69 122a4.192 4.192 0 01-.928-.168 32.801 32.801 0 013.537.053 51.981 51.981 0 0016.564-2.547c2.016-.663 3.263-1.167 3.29-1.096zM116.48 130.223a3.44 3.44 0 01-.38.221l-1.133.496c-.973.46-2.414 1.06-4.218 1.768a65.294 65.294 0 01-6.447 2.06 76 76 0 01-16.36 2.539c-2.547.097-4.838.088-6.765 0s-3.476-.23-4.546-.38l-1.23-.168a1.635 1.635 0 01-.424-.089 1.38 1.38 0 01.434 0l1.238.08c1.07.088 2.653.177 4.536.23s4.21 0 6.74-.089a65.106 65.106 0 008.197-.884c2.892-.478 5.616-1.052 8.074-1.671s4.634-1.318 6.438-1.964 3.272-1.185 4.262-1.592l1.15-.45a2.13 2.13 0 01.434-.107z" fill="#fafafa"/><path d="M38.914 318.225L34.13 339.83 25.4 355.827a2.273 2.273 0 00.912 3.082q.065.036.132.067a2.255 2.255 0 002.07-.098c4.05-2.334 18.915-11.027 19.172-12.628.31-1.848 6.561-22.453 6.561-22.453z" fill="#fde24f"/><path d="M26.445 358.976l21.604-14.15-.23.885a3.414 3.414 0 01-1.308 1.963c-1.77 1.264-6.695 4.66-17.926 11.222a2.264 2.264 0 01-2.14.08zM45.334 336.788a1.37 1.37 0 00-.787 1.653 1.318 1.318 0 001.627.796 1.45 1.45 0 00.832-1.769 1.37 1.37 0 00-1.769-.645" fill="#fff" opacity=".6"/><path d="M33.661 350.787a7.075 7.075 0 00-1.477-2.132 6.871 6.871 0 00-2.361-1.052c0-.062.31-.16.831-.106a3.537 3.537 0 011.84.814 3.431 3.431 0 011.114 1.644c.15.504.106.832.053.832zM31.424 353.29c-.124.07-.646-.797-1.68-1.39a16.616 16.616 0 00-2.035-.786 2.53 2.53 0 012.282.362c1.176.681 1.556 1.787 1.433 1.813zM37.41 347.798a21.578 21.578 0 00-2.44-2.317 21.932 21.932 0 00-3.007-1.53 5.05 5.05 0 013.29 1.132 4.952 4.952 0 012.158 2.715zM39.418 341.35c-.088.116-1.158-.671-2.653-1.105s-2.847-.362-2.856-.513a5.642 5.642 0 015.545 1.619zM40.983 335.045a11.186 11.186 0 00-2.768-1.229 11.213 11.213 0 00-3.024 0c0-.053.274-.265.84-.433a4.944 4.944 0 014.351.884c.451.425.637.743.601.778zM38.543 332.622a1.98 1.98 0 01.176-.813 5.66 5.66 0 011.168-1.972 2.6 2.6 0 011.362-.938.937.937 0 01.955.442 1.486 1.486 0 01.097 1.062 3.21 3.21 0 01-3.431 2.21 3.732 3.732 0 01-3.087-2.759 1.327 1.327 0 01.204-1.06.884.884 0 011.017-.24 3.228 3.228 0 011.238 1.088 6.535 6.535 0 011.052 2.043 2.034 2.034 0 01.15.831 10.152 10.152 0 00-1.476-2.653 2.989 2.989 0 00-1.097-.884.478.478 0 00-.557.132.884.884 0 00-.088.7 3.334 3.334 0 002.688 2.316 2.786 2.786 0 002.945-1.83 1.106 1.106 0 000-.743.495.495 0 00-.522-.248 2.326 2.326 0 00-1.176.76 9.091 9.091 0 00-1.618 2.556z" fill="#263238"/><path d="M38.33 320.569l-1.034 4.952 15.644 2.6 1.308-4.324-15.36-5.572-.558 2.344z" opacity=".3"/><path d="M108.777 326.22l-1.291 17.262s17.12 7.075 17.191 10.33l-33.605-1.3.885-26.99z" fill="#fde24f"/><path d="M97.183 341.625a1.38 1.38 0 00-1.008 1.53 1.327 1.327 0 001.503 1.017 1.45 1.45 0 001.062-1.627 1.37 1.37 0 00-1.68-.885M91.09 352.511l.195-2.724 32.145 2.238s1.477.707 1.265 1.768z" fill="#fff" opacity=".6"/><path d="M108.052 343.332c0 .168-.832.212-1.654.707s-1.282 1.167-1.433 1.097.133-1.008 1.141-1.592 1.99-.363 1.946-.212zM111.518 344.95c0 .168-.69.416-1.273 1.088s-.77 1.397-.937 1.388-.23-.946.512-1.769 1.698-.884 1.698-.707zM113.358 349.221c-.15 0-.345-.804.106-1.68s1.238-1.211 1.3-1.07-.425.601-.787 1.327-.46 1.415-.62 1.423zM107.893 339.37c-.071.141-.814-.115-1.77-.089s-1.662.292-1.768.15.637-.698 1.769-.716 1.875.531 1.769.655z" fill="#263238"/><path d="M108.538 329.642l-.23 3.078-16.493-.796.115-3.555 16.608 1.273z" opacity=".3"/><path d="M108.114 335.877a3.051 3.051 0 01-1.68-.071 7.367 7.367 0 01-1.77-.61 8.12 8.12 0 01-.946-.549 2.202 2.202 0 01-.495-.415.725.725 0 010-.885.884.884 0 01.734-.344 2.512 2.512 0 01.628.106 5.907 5.907 0 011.026.406 5.765 5.765 0 011.512 1.07c.752.752.99 1.38.938 1.407s-.434-.478-1.203-1.106a7.074 7.074 0 00-1.468-.884 9.293 9.293 0 00-.955-.336c-.354-.106-.655-.115-.752 0s0 .088 0 .194a1.672 1.672 0 00.363.301 8.607 8.607 0 00.884.54 8.993 8.993 0 001.6.69 11.631 11.631 0 011.584.486z" fill="#263238"/><path d="M107.893 336.107a2.786 2.786 0 01-.38-1.645 5.925 5.925 0 01.3-1.83 6.35 6.35 0 01.469-1 1.406 1.406 0 011.105-.814.796.796 0 01.69.504 2.201 2.201 0 01.141.62 3.696 3.696 0 010 1.131 3.873 3.873 0 01-.787 1.707c-.69.884-1.38 1.017-1.397.964a7.343 7.343 0 001.07-1.203 3.82 3.82 0 00.593-1.556 3.537 3.537 0 000-.973c-.045-.354-.168-.654-.301-.619a1.245 1.245 0 00-.61.53 6.508 6.508 0 00-.451.885 6.288 6.288 0 00-.39 1.663c-.114.99.036 1.636-.052 1.636zM74.04 140.048s-5.306.24-8.843 18.386S34.696 323.62 34.696 323.62l19.552.177L91.09 184l-2.45 144.148 19.863 1.52s14.9-159.437 15.034-168.714c.176-11.567-6.465-23.267-6.465-23.267z" fill="#263238"/><path d="M100.915 138.5c.124 0-1.91 10.392-4.537 23.153s-4.855 23.09-4.978 23.063 1.9-10.39 4.527-23.152 4.89-23.09 4.988-23.063zM103.957 141.092c0-.053.53-.212 1.141.327a1.618 1.618 0 01.53 1.247 1.565 1.565 0 01-.999 1.344 1.583 1.583 0 01-1.662-.22 1.654 1.654 0 01-.522-1.257c0-.813.548-1.096.557-1.043a2.52 2.52 0 00-.23 1.035 1.353 1.353 0 00.469.937 1.265 1.265 0 001.963-.823 1.344 1.344 0 00-.336-.99c-.433-.504-.92-.486-.91-.557zM103.117 148.273c0-.053.548 0 .884.734a1.504 1.504 0 01-2.803 1.087 1.539 1.539 0 01.15-1.29c.416-.664.982-.646.964-.593a1.709 1.709 0 00-.68.743 1.309 1.309 0 000 .99 1.176 1.176 0 001.98.16 1.318 1.318 0 00.115-.991c-.256-.602-.654-.778-.61-.84zM84.378 141.269a3.387 3.387 0 01-.23.884 14.741 14.741 0 01-1.035 2.344 17.183 17.183 0 01-13.6 8.958 14.715 14.715 0 01-2.557 0 3.538 3.538 0 01-.884-.142c0-.088 1.336.062 3.45-.203a17.943 17.943 0 0013.353-8.8c1.034-1.785 1.423-3.068 1.503-3.041zM122.422 154.171a4.595 4.595 0 01-.592-.353 10.611 10.611 0 01-1.415-1.22 15.034 15.034 0 01-4.325-11.223 9.728 9.728 0 01.24-1.848c.096-.434.158-.664.194-.655s-.106.964-.106 2.512a16.396 16.396 0 004.236 10.992c1.034 1.14 1.813 1.725 1.768 1.795z" fill="#455a64"/><path d="M191.02 154.684c.292-.707.213-.424-4.474-3.537 0 0 6.72 4.422 6.022 2.317a8.578 8.578 0 00-2.184-2.025c1.769 1.043 2.794 1.158 3.104.734.53-.734-3.316-3.538-5.147-4.802a44.067 44.067 0 005.253 3.228c1.088.336.566-.938-.168-1.866s-6.43-6.412-7.96-8.048a1.327 1.327 0 010-2.016c2.742-1.769 3.945-4.59 3.91-5.519a1 1 0 00-1.875-.318 12.133 12.133 0 01-2.397 2.264 7.835 7.835 0 01-2.317 1.247 18.62 18.62 0 01-6.783-.469l-3.263 11.063s11.842 5.536 14.088 6.615c2.759 1.31 3.988 1.672 4.192 1.132z" fill="#ffbe9d"/><path d="M184.415 149.51a15.569 15.569 0 003.43 2.521 16.245 16.245 0 003.742 2.043 16.272 16.272 0 00-3.44-2.52c-1.981-1.256-3.644-2.211-3.732-2.043zM185.529 147.344a18.123 18.123 0 003.537 2.892 19.48 19.48 0 003.838 2.432 18.158 18.158 0 00-3.537-2.892 19.478 19.478 0 00-3.838-2.432zM186.705 145.151a16.853 16.853 0 003.28 2.795 17.228 17.228 0 003.609 2.334 17.296 17.296 0 00-3.272-2.794 16.434 16.434 0 00-3.617-2.335z" fill="#eb996e"/><path d="M66.267 105.082l8.684.477a43.616 43.616 0 002.458 7.075C84.404 100.5 89.79 84.238 91.17 77.702q-.291-.964-.716-2.175a9.232 9.232 0 01.106-3.679c.24-1.45.646-3.414.761-4.316.38-2.759.822-3.2 1.769-2.883 1.309.425-.54 7.756.53 7.915.584.08 1.283-2.432 1.495-4.492s1.132-8.393 1.813-8.844c1-.619 1.866.363 1.618 2.415s-.575 8.268.513 8.348 1.972-10.426 1.972-10.426-.168-2.282 1.088-2.229c2.273.097.504 11.178.31 12.23-.142.726 1.043.885 1.149.071s.654-10.515 2.963-10.435c1.768.062-1.371 9.126-.372 11.231s1.69-7.137 3.387-7.013c.628.053 1.097.177-.062 5.404a119.21 119.21 0 01-4.059 12.257c-2.653 14.503-14.494 60.895-32.995 52.406-10.346-4.75-15.184-28.3-15.184-28.3z" fill="#ffbe9d"/><path d="M105.452 81.16a1.246 1.246 0 01.088-.318c.08-.23.177-.53.31-.885.292-.84.69-2.007 1.211-3.537s1.15-3.387 1.769-5.58a37.37 37.37 0 00.822-3.537c.124-.637.24-1.292.319-1.964a7.563 7.563 0 000-.999c0-.345-.08-.628-.354-.637s-.469.16-.663.451a5.492 5.492 0 00-.434.982c-.247.699-.442 1.441-.636 2.193s-.372 1.539-.602 2.335a3.635 3.635 0 01-.53 1.22.486.486 0 01-.239.15.398.398 0 01-.336-.08 1.14 1.14 0 01-.248-.326 2.529 2.529 0 01-.185-.681 21.86 21.86 0 01.53-5.306c.15-.885.31-1.769.425-2.653a13.462 13.462 0 00.115-1.362c.009-.478-.062-.982-.248-1.061s-.637.168-.884.54a5.413 5.413 0 00-.575 1.255 18.352 18.352 0 00-.681 2.83c-.168.972-.3 1.963-.416 2.971-.044.504-.097 1.008-.141 1.521l-.07.77a1.123 1.123 0 01-.355.884.884.884 0 01-1.043 0 .725.725 0 01-.319-.504 1 1 0 010-.283v-.186l.24-1.548c.15-1.043.273-2.087.37-3.148s.178-2.131.195-3.201a10.612 10.612 0 00-.318-3.148 1.052 1.052 0 00-.442-.637.53.53 0 00-.593.194 2.892 2.892 0 00-.336 1.716c-.194 2.078-.415 4.121-.716 6.129-.15.999-.319 1.998-.566 2.98-.07.239-.142.486-.23.734a1.486 1.486 0 01-.504.76.53.53 0 01-.646-.141 1.061 1.061 0 01-.238-.398 3.599 3.599 0 01-.204-.76 29.563 29.563 0 01-.053-5.793 15.281 15.281 0 00.15-2.715 1.503 1.503 0 00-.495-1.008.593.593 0 00-.46-.07 1.405 1.405 0 00-.238.105c-.08.07-.071 0-.124.15a12.071 12.071 0 00-.699 2.468c-.177.884-.327 1.689-.46 2.52s-.256 1.645-.362 2.459-.16 1.61-.319 2.405a13.15 13.15 0 01-.619 2.282 4.42 4.42 0 01-.256.548c-.124.168-.195.38-.53.486a.442.442 0 01-.452-.194 1.31 1.31 0 01-.141-.327 3.537 3.537 0 01-.071-.584c0-1.512.203-2.892.283-4.227a10.666 10.666 0 000-1.92c0-.282-.133-.618-.292-.68a.813.813 0 00-.716 0 2.485 2.485 0 00-.655 1.45c-.132.54-.185 1.088-.283 1.61-.371 2.087-.76 3.89-.946 5.359a7.27 7.27 0 000 1.945c.124.53.31 1.008.407 1.38s.195.637.256.884a1.557 1.557 0 01.071.292 1.158 1.158 0 01-.124-.274l-.3-.884c-.124-.38-.31-.805-.46-1.389a7.074 7.074 0 010-1.998c.168-1.495.522-3.281.884-5.377.097-.522.15-1.07.266-1.636a8.338 8.338 0 01.238-.885 1.503 1.503 0 01.549-.804 1.114 1.114 0 011.043 0 1.194 1.194 0 01.557 1.026 10.771 10.771 0 010 1.998c-.062 1.344-.274 2.75-.239 4.183a3.025 3.025 0 00.062.504c0 .168.124.239.106.204s.168-.142.24-.283a4.104 4.104 0 00.23-.487 11.921 11.921 0 00.574-2.21c.15-.77.203-1.566.31-2.388s.212-1.636.344-2.477.283-1.68.451-2.538a11.497 11.497 0 01.743-2.608.884.884 0 01.31-.345 1.715 1.715 0 01.371-.15 1.079 1.079 0 01.885.132 1.91 1.91 0 01.716 1.344 5.306 5.306 0 010 1.45c-.044.451-.089.885-.115 1.38a28.175 28.175 0 00.053 5.66 3.538 3.538 0 00.177.654.601.601 0 00.132.23h.045v.009a1.769 1.769 0 00.256-.486 5.896 5.896 0 00.212-.69c.24-.938.398-1.928.549-2.918.3-1.99.521-4.033.707-6.102v.044a3.414 3.414 0 01.451-2.096 1.105 1.105 0 011.23-.363 1.583 1.583 0 01.76.973 11.09 11.09 0 01.345 3.334c0 1.097-.098 2.176-.195 3.246s-.23 2.122-.38 3.166l-.239 1.565c-.07.327-.053.336 0 .433a.371.371 0 00.416 0c.106-.08.124-.23.15-.522l.062-.769.16-1.53c.105-1.008.247-2.016.415-2.998a20.225 20.225 0 01.707-2.91 6.447 6.447 0 01.646-1.37 1.972 1.972 0 01.566-.584.973.973 0 01.884-.132 1.035 1.035 0 01.487.778 4.342 4.342 0 01.044.752 12.532 12.532 0 01-.115 1.423c-.124.885-.292 1.822-.451 2.715a22.303 22.303 0 00-.548 5.12 2.282 2.282 0 00.141.54 1.017 1.017 0 00.115.177v-.062a3.537 3.537 0 00.433-1.035c.23-.769.416-1.547.62-2.308a22.598 22.598 0 01.663-2.237 5.519 5.519 0 01.477-1.044 1.689 1.689 0 01.407-.468.734.734 0 01.31-.16 1.114 1.114 0 01.344 0 .68.68 0 01.558.407 1.627 1.627 0 01.115.584 6.968 6.968 0 01-.062 1.07c-.08.69-.213 1.344-.336 1.99a33.308 33.308 0 01-.885 3.537c-.663 2.193-1.326 4.05-1.866 5.563s-1 2.653-1.309 3.466c-.15.372-.274.664-.362.885a1.92 1.92 0 01-.168.415z" fill="#eb996e"/><path d="M57.176 106.08c1.68 5.935 4.97 15.088 8.498 24.762a1.671 1.671 0 003.087.15l8.648-18.296S75.322 97.662 75.5 98.2s-17.846 1.946-17.846 1.946z" fill="#fde24f"/><path d="M76.667 103.136c0 .07-1.08.39-2.786 1.044a39.345 39.345 0 00-6.42 3.13 40.272 40.272 0 00-5.749 4.245c-1.37 1.211-2.157 2.043-2.21 1.99s.15-.248.486-.646a21.29 21.29 0 011.503-1.583 33.17 33.17 0 015.73-4.422 33.746 33.746 0 016.545-3.042 20.485 20.485 0 012.105-.601 2.53 2.53 0 01.796-.115z" fill="#fafafa"/><path d="M80.098 107.7a9.383 9.383 0 01-1.45-1.893 32.331 32.331 0 01-2.654-5.076 31.836 31.836 0 01-1.706-5.483 9.038 9.038 0 01-.31-2.353 16.342 16.342 0 01.628 2.273 44.216 44.216 0 001.769 5.386 45.206 45.206 0 002.529 5.085 18.572 18.572 0 011.194 2.06zM85.864 26.676a19.456 19.456 0 00-1.69 16.634c.885 2.432 2.3 4.829 2.043 7.411s-2.272 5.138-1.565 7.685c.425 1.512 1.716 2.653 2.22 4.121.575 1.769 0 3.635-.31 5.448-.707 4.634.778 9.294 1.141 13.963s-.884 10.144-5.058 12.178a3.64 3.64 0 01-3.971-.15c-1.344-1.194-.973-3.352-.601-5.121 3.66-17.687-7.65-34.95-5.068-52.848.416-2.865 2.017-7.73 4.077-9.728s7.782-1.769 9.728.354" fill="#263238"/><path d="M68.442 77.985a18.683 18.683 0 001.336-1.892 17.148 17.148 0 002.308-5.793 17.616 17.616 0 00.274-4.297 45.525 45.525 0 01-.186-5.032 10.877 10.877 0 01.504-2.706 15.087 15.087 0 011.22-2.6c.991-1.672 2.238-3.228 3.388-4.89a13.424 13.424 0 002.405-5.307 16.546 16.546 0 00-.31-5.42 20.614 20.614 0 01-.389-5.024 16.9 16.9 0 01.885-4.315 16.405 16.405 0 013.13-5.51 11.497 11.497 0 011.203-1.23 2.37 2.37 0 01.46-.38 19.337 19.337 0 00-1.53 1.77 16.98 16.98 0 00-3.732 9.727 20.136 20.136 0 00.433 4.935 16.802 16.802 0 01.336 5.571 13.91 13.91 0 01-2.476 5.456c-1.158 1.69-2.405 3.237-3.378 4.864a13.796 13.796 0 00-1.185 2.512 10.25 10.25 0 00-.504 2.6 47.947 47.947 0 00.141 4.979 17.687 17.687 0 01-.336 4.377 16.572 16.572 0 01-2.476 5.828 12.85 12.85 0 01-1.061 1.362 2.83 2.83 0 01-.46.415z" fill="#455a64"/><path d="M60.059 79.303a3.246 3.246 0 01.274-.592c.22-.416.504-.964.884-1.654.743-1.442 1.848-3.538 2.936-6.19a26.981 26.981 0 002.176-9.79 19.013 19.013 0 00-.222-2.9c-.15-.991-.38-1.99-.53-3.034a8.596 8.596 0 01.07-3.255 5.819 5.819 0 011.77-2.838c1.662-1.512 3.67-2.503 4.713-4.28a14.477 14.477 0 001.565-5.67 22.162 22.162 0 011.22-5.305 19.181 19.181 0 017.155-9.038 14.804 14.804 0 011.618-.946 2.653 2.653 0 01.602-.266 21.807 21.807 0 00-2.114 1.362 19.323 19.323 0 00-4.749 4.855 18.792 18.792 0 00-2.158 4.165 22.506 22.506 0 00-1.15 5.306 14.77 14.77 0 01-1.609 5.855c-1.132 1.866-3.201 2.927-4.784 4.422a5.412 5.412 0 00-1.672 2.653 8.189 8.189 0 00-.061 3.077c.141 1.017.362 2.025.512 3.024a17.943 17.943 0 01.213 2.972 26.849 26.849 0 01-2.29 9.949 59.321 59.321 0 01-3.078 6.19l-.938 1.388a3.05 3.05 0 01-.353.54z" fill="#455a64"/><path d="M352.651 329.191a2.08 2.08 0 01.16-.371c.123-.266.291-.62.495-1.07a26.122 26.122 0 001.477-4.28 37.713 37.713 0 00-.124-16.511 89.241 89.241 0 00-3.069-11.099c-1.29-3.935-2.803-8.11-4.032-12.628a48.974 48.974 0 01-1.99-14.521c.186-5.138 1.707-10.258 3.378-15.37s3.396-10.09 3.909-15.13a23.09 23.09 0 00-2.777-13.973c-2.21-4.077-4.997-7.57-7.075-11.179a38.911 38.911 0 01-4.253-10.753 40.087 40.087 0 01-.275-16.643 30.668 30.668 0 011.77-5.881 2.275 2.275 0 01-.107.389l-.354 1.123a45.22 45.22 0 00-1.079 4.422 40.68 40.68 0 00.434 16.528 38.478 38.478 0 004.271 10.612c2.078 3.537 4.873 7.075 7.137 11.17a23.559 23.559 0 012.856 14.264c-.522 5.111-2.255 10.143-3.926 15.246s-3.175 10.17-3.36 15.22a48.31 48.31 0 001.945 14.379c1.211 4.492 2.697 8.666 3.98 12.62a86.883 86.883 0 013.006 11.16 37.91 37.91 0 010 16.634 24.619 24.619 0 01-1.583 4.271l-.548 1.053a1.822 1.822 0 01-.266.318z" fill="#263238"/><path d="M345.833 216.623s-4.227-13.539 3.36-21.463a.469.469 0 01.805.23c.407 2.238.911 9.047-4.165 21.233z" fill="#fde24f"/><path d="M348.371 199.67a12.954 12.954 0 01-.283 2.494c-.283 1.725-.61 3.741-.964 5.97s-.68 4.253-.955 5.969a14.893 14.893 0 01-.442 2.476 10.489 10.489 0 01.053-2.511c.142-1.548.416-3.67.796-6.005s.796-4.422 1.123-5.952a10.965 10.965 0 01.672-2.44z" fill="#263238"/><path d="M350.803 248.557s2.591-13.946 13.009-17.395a.469.469 0 01.601.584c-.69 2.149-3.422 8.4-13.61 16.81z" fill="#fde24f"/><path d="M360.973 234.744a13.1 13.1 0 01-1.415 2.078l-3.652 4.82-3.626 4.837a14.15 14.15 0 01-1.548 1.972 10.47 10.47 0 011.238-2.193c.885-1.3 2.087-3.051 3.538-4.935s2.768-3.537 3.767-4.74a11.391 11.391 0 011.698-1.84z" fill="#263238"/><path d="M347.991 283.515s-1.574-14.097 7.393-20.42a.46.46 0 01.743.38c-.027 2.273-.831 9.048-8.136 20.04z" fill="#fde24f"/><path d="M353.74 267.358a11.779 11.779 0 01-.753 2.397l-2.087 5.677c-.778 2.122-1.476 4.041-2.069 5.678a14.539 14.539 0 01-.884 2.343 10.328 10.328 0 01.548-2.458c.433-1.486 1.105-3.538 1.928-5.749s1.627-4.2 2.237-5.624a12.319 12.319 0 011.08-2.264z" fill="#263238"/><path d="M355.835 318.694s-1.061-14.15 8.118-20.145a.469.469 0 01.734.406c-.106 2.273-1.15 9.02-8.852 19.739z" fill="#fde24f"/><path d="M362.132 302.758a12.247 12.247 0 01-.84 2.37c-.655 1.61-1.433 3.537-2.291 5.598s-1.61 3.98-2.264 5.598a13.76 13.76 0 01-1 2.308 10.611 10.611 0 01.646-2.44c.487-1.469 1.23-3.485 2.132-5.67s1.768-4.147 2.432-5.544a11.815 11.815 0 011.185-2.22z" fill="#263238"/><path d="M339.749 204.729s-12.54-6.58-12.814-17.536a.478.478 0 01.734-.407c1.866 1.29 7.048 5.748 12.08 17.943z" fill="#fde24f"/><path d="M329.544 190.96a12.16 12.16 0 011.565 1.972c1.026 1.406 2.22 3.069 3.537 4.9l3.538 4.88a13.859 13.859 0 011.432 2.061 10.4 10.4 0 01-1.724-1.83c-1-1.185-2.308-2.883-3.688-4.802s-2.591-3.697-3.422-4.997a12.08 12.08 0 01-1.238-2.184z" fill="#263238"/><path d="M353.253 233.797s-12.947-5.792-13.858-16.732a.469.469 0 01.708-.442c1.936 1.177 7.375 5.298 13.15 17.174z" fill="#fde24f"/><path d="M342.243 220.674a12 12 0 011.68 1.866l3.838 4.678 3.847 4.66a14.147 14.147 0 011.556 1.972 10.772 10.772 0 01-1.84-1.724c-1.06-1.132-2.475-2.742-3.97-4.572s-2.803-3.538-3.723-4.784a11.365 11.365 0 01-1.388-2.096z" fill="#263238"/><path d="M345.78 266.244s-8.843-11.055-4.713-21.224a.469.469 0 01.83-.071c1.23 1.919 4.175 8.074 3.883 21.295z" fill="#fde24f"/><path d="M341.96 249.512a12.054 12.054 0 01.654 2.432c.372 1.698.805 3.696 1.282 5.907s.929 4.2 1.3 5.899a13.856 13.856 0 01.487 2.467 10.612 10.612 0 01-.885-2.37c-.433-1.494-.963-3.537-1.459-5.89s-.884-4.421-1.132-5.942a11.497 11.497 0 01-.247-2.503z" fill="#263238"/><path d="M354.624 304.368s-12.85-6.005-13.575-16.953a.469.469 0 01.716-.442c1.902 1.211 7.27 5.43 12.859 17.395z" fill="#fde24f"/><path d="M343.808 291.058a13.17 13.17 0 011.645 1.902l3.758 4.73 3.768 4.732a13.867 13.867 0 011.52 1.999 10.417 10.417 0 01-1.768-1.769c-1.052-1.15-2.432-2.786-3.9-4.643s-2.741-3.581-3.643-4.846a10.816 10.816 0 01-1.38-2.105zM380.19 248.619v1.194c0 .884-.089 2.007-.15 3.44-.16 3.024-.399 7.243-.673 12.283-.884 5.13-3.537 10.816-7.074 16.343-2.574 4.068-5.306 7.764-7.606 11.205a79.023 79.023 0 00-5.642 9.462 39.705 39.705 0 00-2.653 6.915c-.22.84-.398 1.504-.495 1.955a4.112 4.112 0 01-.186.69 3.211 3.211 0 01.089-.708c.062-.46.194-1.132.398-1.99a36.142 36.142 0 012.52-7.03 75.944 75.944 0 015.633-9.524c2.317-3.467 4.997-7.172 7.561-11.214 3.494-5.5 6.094-11.098 7.075-16.148.354-5.032.646-9.241.884-12.266.115-1.432.213-2.573.283-3.431a6.737 6.737 0 01.089-.884 1.168 1.168 0 01-.053-.292z" fill="#263238"/><path d="M372.54 280.862s5.439-13.088-1.397-21.675a.469.469 0 00-.822.159c-.61 2.193-1.734 8.923 2.22 21.516z" fill="#fde24f"/><path d="M371.55 263.759a11.495 11.495 0 01.433 2.476c.195 1.539.407 3.67.575 6.031s.248 4.501.248 6.058a10.258 10.258 0 01-.15 2.511 13.267 13.267 0 01-.222-2.502c-.115-1.769-.256-3.776-.407-6.032s-.292-4.297-.415-6.03a12.788 12.788 0 01-.062-2.512z" fill="#263238"/><path d="M372.54 280.862s5.439-13.088-1.397-21.675a.469.469 0 00-.822.159c-.61 2.193-1.734 8.923 2.22 21.516z" opacity=".3"/><path d="M355.694 312.424s4.36-13.495-3.158-21.49a.469.469 0 00-.804.222c-.425 2.228-1 9.038 3.962 21.268z" fill="#fde24f"/><path d="M353.315 295.427a10.85 10.85 0 01.636 2.44c.319 1.513.699 3.627 1.062 5.961s.61 4.466.742 6.014a10.613 10.613 0 01.045 2.52 15.103 15.103 0 01-.425-2.476c-.256-1.725-.557-3.74-.884-5.978s-.646-4.254-.884-5.978a12.805 12.805 0 01-.292-2.503z" fill="#263238"/><path d="M355.694 312.424s4.36-13.495-3.158-21.49a.469.469 0 00-.804.222c-.425 2.228-1 9.038 3.962 21.268z" opacity=".3"/><path d="M379.473 264.864s11.612-8.136 10.445-19.049a.469.469 0 00-.779-.3c-1.689 1.52-6.217 6.58-9.666 19.35z" fill="#fde24f"/><path d="M379.473 264.864s11.612-8.136 10.445-19.049a.469.469 0 00-.779-.3c-1.689 1.52-6.217 6.58-9.666 19.35z" opacity=".3"/><path d="M387.813 249.892a10.904 10.904 0 01-.964 2.326c-.663 1.397-1.627 3.307-2.75 5.395s-2.202 3.935-3.034 5.244a10.488 10.488 0 01-1.477 2.034 13.026 13.026 0 011.15-2.229c.831-1.53 1.813-3.316 2.892-5.306l2.883-5.306a12.921 12.921 0 011.3-2.158z" fill="#263238"/><path d="M360.38 299.044s14.009-2.184 17.758-12.496a.469.469 0 00-.557-.619c-2.184.655-8.516 3.175-17.2 13.115z" fill="#fde24f"/><path d="M360.38 299.044s14.009-2.184 17.758-12.496a.469.469 0 00-.557-.619c-2.184.655-8.516 3.175-17.2 13.115z" opacity=".3"/><path d="M374.46 289.28a11.355 11.355 0 01-1.893 1.654c-1.212.973-2.919 2.264-4.838 3.644s-3.714 2.556-5.04 3.37a10.231 10.231 0 01-2.229 1.175 13.656 13.656 0 012.025-1.494l4.935-3.484 4.926-3.538a11.753 11.753 0 012.113-1.326z" fill="#263238"/><path fill="#455a64" d="M347.009 324.831l-4.085 27.503h25.469l-3.299-27.503h-18.085z"/><path d="M366.12 333.347a98.32 98.32 0 01-10.267.266 98.572 98.572 0 01-10.276-.266 101.446 101.446 0 0110.276-.265 101.336 101.336 0 0110.267.265zM366.615 335.54a104.95 104.95 0 01-10.612.266 104.96 104.96 0 01-10.612-.265 104.96 104.96 0 0110.612-.266 104.96 104.96 0 0110.612.266zM267.578 58.017h-.699a17.005 17.005 0 00-2.016 0 22.657 22.657 0 00-7.543 1.769 23.16 23.16 0 00-9.569 7.455 20.897 20.897 0 00-3.343 6.836 22.993 22.993 0 002.326 17.368 19.649 19.649 0 003.007 3.997 16.343 16.343 0 004.068 3.184 9.993 9.993 0 005.102 1.282 7.331 7.331 0 004.944-1.998 7.137 7.137 0 001.972-5.094 9.392 9.392 0 00-1.769-5.421 18.478 18.478 0 00-9.957-6.562 24.452 24.452 0 00-12.558-.177 26.318 26.318 0 00-6.049 2.406 21.799 21.799 0 00-5.191 4.076c-.363.416-.778.796-1.105 1.256l-1 1.344a25.25 25.25 0 00-1.627 2.954 23.965 23.965 0 00-1.919 6.518 24.709 24.709 0 001.769 13.265 20.49 20.49 0 008.534 9.727 14.15 14.15 0 006.048 1.831 10.683 10.683 0 005.97-1.433 9.33 9.33 0 004.032-4.421 8.012 8.012 0 00.15-5.81 11.7 11.7 0 00-3.324-4.705 15.228 15.228 0 00-4.89-2.839 18.951 18.951 0 00-10.772-.186 20.985 20.985 0 00-8.843 4.926 20.198 20.198 0 00-5.068 7.844 22.728 22.728 0 00.239 15.918 24.134 24.134 0 007.278 9.728 26.185 26.185 0 006.695 3.9c.83.31 1.476.54 1.919.663l.654.213s-.23-.045-.672-.168a19.027 19.027 0 01-1.928-.628 25.054 25.054 0 01-6.774-3.838 24.24 24.24 0 01-7.42-9.772 22.993 22.993 0 01-.291-16.086 20.278 20.278 0 015.12-7.96 21.392 21.392 0 018.976-5.04 19.358 19.358 0 0111.001.177 15.494 15.494 0 015.032 2.91 12.01 12.01 0 013.449 4.872 8.472 8.472 0 01-.088 6.093 9.905 9.905 0 01-4.219 4.607 11.16 11.16 0 01-6.19 1.504 14.38 14.38 0 01-6.19-1.893 20.906 20.906 0 01-8.747-9.896 25.204 25.204 0 01-1.821-13.512 24.638 24.638 0 011.963-6.65 25.594 25.594 0 011.662-3.016l1.026-1.37a13.21 13.21 0 011.123-1.292 22.4 22.4 0 015.306-4.156 26.645 26.645 0 016.19-2.441 24.885 24.885 0 0112.797.186 18.955 18.955 0 0110.188 6.747 9.728 9.728 0 011.857 5.66 7.552 7.552 0 01-2.096 5.385 7.738 7.738 0 01-5.218 2.096 10.285 10.285 0 01-5.306-1.335 16.44 16.44 0 01-4.156-3.263 20.34 20.34 0 01-3.051-4.077 23.32 23.32 0 01-2.335-17.687 21.136 21.136 0 013.423-6.907 23.276 23.276 0 019.727-7.472 22.108 22.108 0 017.597-1.663 15.449 15.449 0 012.034 0z" fill="#263238"/><path fill="#fde24f" d="M173.113 146.504h123.993v95.633H173.113z"/><path fill="#fde24f" d="M173.113 146.504l22.904 21.366h121.889l-20.8-21.366H173.113z"/><path d="M173.113 146.504l124.028-.221h.098l.07.062 20.588 21.144.212.222.38.389h-.548l-121.889-.098H196l-22.886-21.498 22.993 21.224h-.098l121.889-.088-.16.389-.22-.221-20.579-21.145.16.071zM210.361 190.606a2.565 2.565 0 10.186 0M239.66 190.606a2.556 2.556 0 10.194 0M239.827 213.493A18.324 18.324 0 00237.37 208a16.14 16.14 0 00-4.687-4.492 14.3 14.3 0 00-15.149-.416 16.334 16.334 0 00-4.926 4.227 18.129 18.129 0 00-2.75 5.36 1.83 1.83 0 01.07-.425 9.878 9.878 0 01.328-1.176 14.15 14.15 0 012.096-3.953 16.086 16.086 0 014.979-4.422 14.547 14.547 0 0115.582.424 16.042 16.042 0 014.722 4.67 14.15 14.15 0 011.884 4.068 10.382 10.382 0 01.256 1.194 2.458 2.458 0 01.053.433z" fill="#263238"/><path style="isolation:isolate" opacity=".5" d="M173.396 147.556l21.931 27.804h101.779v-7.49H196.017l-22.621-20.314z"/><path d="M272.654 241.924c-.124 0-.23-16.634-.23-37.142s.106-37.142.23-37.142.239 16.625.239 37.142-.106 37.142-.239 37.142z" fill="#263238"/><path fill="#f5f5f5" d="M281.197 220.24h10.93v12.354h-10.93z"/><path fill="#fde24f" d="M173.113 146.504l-25.452 21.366h25.452v-21.366z"/><path d="M173.113 146.504l-25.452 21.366h25.452v-21.366z" opacity=".4"/><path fill="#fde24f" d="M158.203 242.137h142.565v109.959H158.203z"/><path style="isolation:isolate" opacity=".3" d="M158.203 242.137h142.565v109.959H158.203z"/><path d="M265.049 351.317c-.124 0-.23-24.505-.23-54.732s.106-54.74.23-54.74.23 24.505.23 54.74-.106 54.732-.23 54.732z" fill="#263238"/><path fill="#f5f5f5" d="M277.748 327.069h10.93v12.354h-10.93z"/><path fill="#263238" d="M201.695 242.428h16.192v23.462h-16.192zM201.695 328.307h16.192v23.462h-16.192zM299.53 242.137h-1.442l-4.113.044-15.148.07-49.957.116-49.974-.062-15.14-.071-4.112-.044 4.112-.045 15.14-.07 49.974-.071 49.957.07 15.148.071 4.113.045h1.07zM55.204 51.765l-15.53-3.82h.116a25.779 25.779 0 01-13.398 4.023 28.184 28.184 0 01-8.304-1.211A26.035 26.035 0 01.206 29.143a25.646 25.646 0 016.668-20.72 26.601 26.601 0 014.502-3.944c.83-.522 1.662-1.061 2.529-1.512l1.318-.637.654-.318.69-.248a25.953 25.953 0 0133.94 15.715 26.937 26.937 0 011.433 8.383 25.726 25.726 0 01-3.723 13.451v-.141c4.316 7.79 6.491 11.726 6.978 12.593-.504-.885-2.76-4.75-7.225-12.46v-.142a25.522 25.522 0 003.537-13.265 26.336 26.336 0 00-1.45-8.242A25.466 25.466 0 0016.752 2.268l-.672.239-.645.318-1.291.62c-.885.45-1.663.972-2.485 1.485a26.274 26.274 0 00-4.422 3.838 25.195 25.195 0 00-6.553 20.34 25.584 25.584 0 009.577 17.006 25.177 25.177 0 007.96 4.245 27.556 27.556 0 008.162 1.229 25.54 25.54 0 0013.265-3.882h.15z"/><path d="M23.88 14.472l.787 13a2.105 2.105 0 001.972 1.972 2.114 2.114 0 002.22-1.875l1.442-13.026a1.654 1.654 0 00-1.672-1.83h-3.157a1.645 1.645 0 00-1.595 1.692q0 .034.003.067zM30.07 36.704a3.163 3.163 0 11.002-.004z" fill="#fde24f"/></svg>