<svg xmlns="http://www.w3.org/2000/svg" viewBox="0 0 359.465 390"><path d="M348.444 90.957c-5.985-17.056-17.012-31.48-28.946-45.078S287.9 23.575 270.07 20.419c-33.366-5.906-69.205 18.07-76.479 51.152-3.308 15.046-1.316 30.663-1.218 46.065s-2.17 31.855-12.273 43.487c-14.228 16.372-38.969 17.955-60.472 15.278s-43.709-8.297-64.438-1.948c-31.33 9.587-49.347 46.342-43.62 78.605s30.992 58.694 60.703 72.496 63.398 16.576 96.933 16.967l37.573.72c57.733-7.425 103.781-35.456 129.89-82.1s29.445-119.734 11.775-170.184z" fill="#ebebeb"/><path fill="#f5f5f5" d="M.196 180.883h189.011v74.514H.196z"/><path d="M189.207 255.397v-19.974c0-12.841-.054-31.454-.09-54.54l.16.16-189.001.071.23-.231v74.514l-.221-.222 135.413.142 39.324.062h.134l-39.28.062-135.654.107H0v-74.932h.24l189.002.071h.16v.16c0 23.122-.062 41.797-.08 54.639 0 6.412 0 11.383-.044 14.762v3.824a9.54 9.54 0 01-.071 1.325z" fill="#263238"/><path d="M107.49 220.634c0 .125-20.241.232-45.204.232s-45.203-.107-45.203-.232 20.232-.24 45.203-.24 45.203.143 45.203.24zM107.747 229.687c0 .134-20.356.232-45.46.232s-45.47-.098-45.47-.232 20.356-.23 45.47-.23 45.46.07 45.46.23z" fill="#263238"/><path fill="#fde24f" d="M22.793 194.462l2.018 4.1 4.527.658-3.273 3.184.774 4.5-4.046-2.126-4.038 2.126.765-4.5-3.264-3.184 4.518-.658 2.019-4.1z"/><path fill="#e0e0e0" d="M37.751 194.462l2.018 4.1 4.518.658-3.273 3.184.774 4.5-4.037-2.126-4.047 2.126.774-4.5-3.273-3.184 4.518-.658 2.028-4.1zM52.7 194.462l2.018 4.1 4.527.658-3.273 3.184.774 4.5-4.046-2.126-4.038 2.126.765-4.5-3.264-3.184 4.518-.658 2.019-4.1zM67.649 194.462l2.027 4.1 4.518.658-3.273 3.184.774 4.5-4.046-2.126-4.038 2.126.774-4.5-3.273-3.184 4.518-.658 2.019-4.1zM82.607 194.462l2.018 4.1 4.527.658-3.273 3.184.774 4.5-4.046-2.126-4.038 2.126.765-4.5-3.264-3.184 4.518-.658 2.019-4.1zM49.17 241.63c0 .134-6.982.232-15.599.232s-15.598-.098-15.598-.231 6.99-.232 15.598-.232 15.598.107 15.598.232z"/><circle cx="172.853" cy="226.097" r="25.541" transform="rotate(-80.783 159.781 235.508)" fill="#fde24f"/><path d="M146.574 192.533c.542-2.606 2.4-3.984 4.864-4.99a8.288 8.288 0 017.622.783c1.485.996 2.667 2.5 4.393 2.98 2.819.8 5.94-1.459 8.661-.374a3.78 3.78 0 01-1.37 7.292c1.842.552 2.553 3.095 1.593 4.758a5.016 5.016 0 01-4.99 2.16 10.592 10.592 0 01-5.13-2.49c-1.503-1.2-2.864-2.578-4.447-3.654a8.306 8.306 0 00-5.416-1.636c-2.588.293-4.695 2.383-5.718 4.775a19.289 19.289 0 00-1.12 7.675 31.952 31.952 0 01-.516 7.772c-.071.303-.187.632-.472.738-.418.16-.8-.266-1.031-.64a38.24 38.24 0 01-5.203-13.944c-.462-2.855-.542-5.585.89-8.102s5.336-4.526 7.38-3.112" fill="#263238"/><path d="M142.26 204.867l.374 29.205c.063 4.962 1.174 12.245 9.018 11.783 6.776-.89 8.421-7.39 8.35-12.023v-4.26s7.426-.792 7.862-8.155c.213-3.557.062-10.93-.16-17.59a13.73 13.73 0 00-13.082-13.26h-.711c-7.72.045-11.9 6.626-11.65 14.3z" fill="#ffbe9d"/><path d="M159.984 229.465a17.146 17.146 0 01-9.48-3.184s2.02 5.407 9.41 5.096z" fill="#eb996e"/><path d="M164.707 208.273a1.058 1.058 0 01-1.068 1.014 1.014 1.014 0 01-1.04-.987v-.018a1.067 1.067 0 011.067-1.014 1.014 1.014 0 011.04.987z" fill="#263238"/><path d="M165.916 207.375c-.142.125-.89-.498-2.036-.551s-1.992.471-2.108.329.089-.303.462-.552a2.917 2.917 0 011.69-.435 2.766 2.766 0 011.619.613c.329.276.48.516.373.596zM153.813 207.9a1.04 1.04 0 01-1.059 1.014.996.996 0 01-1.039-.951l-.001-.045a1.05 1.05 0 011.058-1.014.996.996 0 011.04.95v.046z" fill="#263238"/><path d="M154.773 207.055c-.133.124-.89-.498-2.036-.551s-1.992.48-2.108.329.089-.303.462-.552a2.917 2.917 0 011.69-.436 2.801 2.801 0 011.619.614c.338.285.444.534.373.596zM158.482 215.646a8.003 8.003 0 011.858-.25c.285 0 .57-.053.623-.248a1.476 1.476 0 00-.152-.89l-.747-2.24a38.703 38.703 0 01-1.654-5.852 37.865 37.865 0 012.117 5.709l.711 2.25a1.663 1.663 0 01.098 1.147.747.747 0 01-.498.4 2.552 2.552 0 01-.489.045 7.852 7.852 0 01-1.867-.071zM159.015 219.585c-.16.098-.738-.996-2.08-1.272s-2.429.454-2.518.303.143-.347.623-.614a3.041 3.041 0 012.072-.32 2.668 2.668 0 011.672 1.103c.284.435.302.765.231.8zM155.209 205.24c-.133.303-1.254.099-2.588.196s-2.428.41-2.588.125c-.08-.134.125-.418.57-.694a4.393 4.393 0 011.947-.578 4.447 4.447 0 012 .33c.481.222.712.48.659.622zM165.65 204.076c-.205.249-.979-.062-1.913-.116s-1.778.09-1.912-.187c-.07-.133.063-.382.427-.613a2.775 2.775 0 013.077.24c.32.284.418.551.32.676z" fill="#263238"/><path d="M142.599 210.354c-.125-.062-4.99-1.734-5.07 3.308s5.007 4.082 5.016 3.94.054-7.248.054-7.248z" fill="#ffbe9d"/><path d="M141.034 215.663a1.359 1.359 0 01-.24.125.89.89 0 01-.659 0 2.205 2.205 0 01-.978-1.966 3.024 3.024 0 01.267-1.262 1.023 1.023 0 01.676-.658.445.445 0 01.516.249c.062.142 0 .24.053.249s.116-.08.071-.294a.551.551 0 00-.187-.32.694.694 0 00-.489-.133 1.21 1.21 0 00-.89.764 2.9 2.9 0 00-.328 1.405 2.294 2.294 0 001.245 2.197.96.96 0 00.81-.116c.124-.115.15-.23.133-.24z" fill="#eb996e"/><path d="M169.304 202.377a10.672 10.672 0 01-9.355-2.579c-1.716-1.61-2.997-3.86-5.211-4.66a6.03 6.03 0 00-4.607.41 11.605 11.605 0 00-3.62 3.023c1.246 3.815.09 7.95-1.067 11.792a1.974 1.974 0 01-.64 1.13 1.592 1.592 0 01-1.983-.534 6.225 6.225 0 01-1.21-3.353 20.738 20.738 0 01.436-8.172 14.229 14.229 0 014.216-6.937 13.428 13.428 0 019.542-3.095 16.452 16.452 0 019.328 3.86 9.64 9.64 0 012.926 3.708" fill="#263238"/><path fill="#f5f5f5" d="M.311.231h189.011v74.514H.311z"/><path d="M189.322 74.79V54.816c0-12.841-.053-31.454-.089-54.54l.16.16L.391.506l.231-.23V74.79L.4 74.568l135.493.097 39.334.063h.142l-39.28.062-135.644.107H.222V0h.24l188.86.089h.16v.16c0 23.122-.062 41.797-.089 54.638v18.587a9.309 9.309 0 01-.07 1.316z" fill="#263238"/><path d="M107.49 38.489c0 .133-20.241.231-45.204.231s-45.203-.098-45.203-.231 20.232-.231 45.203-.231 45.203.07 45.203.23zM107.747 47.515c0 .134-20.356.231-45.46.231s-45.47-.097-45.47-.23 20.356-.232 45.47-.232 45.46.107 45.46.231z" fill="#263238"/><path fill="#fde24f" d="M22.793 12.29l2.018 4.1 4.527.658-3.273 3.183.774 4.5-4.046-2.125-4.038 2.125.765-4.5-3.264-3.183 4.518-.658 2.019-4.1zM37.751 12.29l2.018 4.1 4.518.658-3.273 3.183.774 4.5-4.037-2.125-4.047 2.125.774-4.5-3.273-3.183 4.518-.658 2.028-4.1zM52.7 12.29l2.018 4.1 4.527.658-3.273 3.183.774 4.5-4.046-2.125-4.038 2.125.765-4.5-3.264-3.183 4.518-.658 2.019-4.1zM67.649 12.29l2.027 4.1 4.518.658-3.273 3.183.774 4.5-4.046-2.125-4.038 2.125.774-4.5-3.273-3.183 4.518-.658 2.019-4.1zM82.607 12.29l2.018 4.1 4.527.658-3.273 3.183.774 4.5-4.046-2.125-4.038 2.125.765-4.5-3.264-3.183 4.518-.658 2.019-4.1z"/><path d="M49.17 59.458c0 .125-6.982.232-15.599.232s-15.598-.107-15.598-.232 6.99-.23 15.598-.23 15.598.106 15.598.23z" fill="#e0e0e0"/><circle cx="172.853" cy="43.925" r="25.541" transform="rotate(-80.783 159.781 53.335)" fill="#fde24f"/><path d="M139.806 21.352l2.001 32.015a9.4 9.4 0 009.382 8.813 9.4 9.4 0 009.392-9.409v-.062c0-3.913-.072-7.524-.072-7.524s7.364-1.147 7.452-8.51c.045-3.486-.444-10.61-.96-17.137a14.13 14.13 0 00-14.078-12.984h-.337a13.633 13.633 0 00-12.808 14.411q.011.194.028.387z" fill="#eb996e"/><path d="M160.527 45.105a17.172 17.172 0 01-9.622-2.73s2.276 5.336 9.613 4.633z" fill="#d1734a"/><path d="M165.276 24.278c-.134.142-.89-.454-2.063-.445s-1.957.57-2.081.427.07-.311.435-.57a2.864 2.864 0 011.663-.515 2.792 2.792 0 011.637.534c.355.266.471.507.409.569zM154.266 24.278c-.133.142-.889-.445-2.054-.445s-1.965.57-2.09.427.071-.302.436-.57a2.872 2.872 0 011.672-.515 2.792 2.792 0 011.636.534c.347.266.463.507.4.569zM158.375 31.392a7.915 7.915 0 011.832-.329c.293 0 .56-.089.613-.284a1.44 1.44 0 00-.195-.89 43.938 43.938 0 00-.89-2.196 38.773 38.773 0 01-1.92-5.754 37.483 37.483 0 012.383 5.585c.284.773.56 1.503.818 2.214a1.699 1.699 0 01.151 1.13.756.756 0 01-.48.426 2.099 2.099 0 01-.49.063 6.82 6.82 0 01-1.822.035zM154.56 18.577c-.116.303-1.245.16-2.57.32s-2.401.525-2.58.25c-.07-.134.116-.427.543-.72a4.224 4.224 0 011.912-.668 4.287 4.287 0 012.01.231c.49.196.73.436.685.587zM164.964 19.52c-.195.258-.969 0-1.912 0s-1.725.17-1.912-.098.045-.391.392-.631a2.668 2.668 0 011.556-.418 2.606 2.606 0 011.53.516c.329.249.435.507.346.631zM147.801 13.286a5.825 5.825 0 00-2.232 3.77v.152c-.285 2.099-.24 4.233-.543 6.332a9.56 9.56 0 01-2.587 5.673c-.64.596-1.779 1.005-2.286.303a1.779 1.779 0 01-.267-.96c-.391-5.07-1.778-9.57-1.778-14.87a4.5 4.5 0 011.858-3.637c1.112-.791 2.464-1.619 3.7-1.032s2.828 2.89 3.788 3.869" fill="#263238"/><path d="M142.287 24.687c-.124-.053-5.05-1.503-4.89 3.557s5.175 3.833 5.184 3.69-.294-7.247-.294-7.247z" fill="#eb996e"/><path d="M140.98 30.05s-.089.062-.231.142a.89.89 0 01-.658 0 2.17 2.17 0 01-1.067-1.912 2.908 2.908 0 01.204-1.263 1.005 1.005 0 01.64-.694.445.445 0 01.525.222c.071.143 0 .24.071.25s.107-.09.063-.294a.596.596 0 00-.214-.311.685.685 0 00-.489-.107 1.227 1.227 0 00-.89.81 2.9 2.9 0 00-.257 1.404 2.268 2.268 0 001.352 2.135.89.89 0 00.791-.16c.151-.098.178-.214.16-.223z" fill="#d1734a"/><path d="M143.524 9.791c-1.245-2.01 2.152-4.9 4.633-5.682s5.762.426 8.226 1.245c1.565.515 3.121 1.245 4.758 1.173a11.161 11.161 0 003.192-.809 8.093 8.093 0 013.22-.64 3.033 3.033 0 012.667 1.68 1.903 1.903 0 01-1.271 2.57 2.472 2.472 0 11.658 4.58c.711-.542 1.778.347 1.725 1.246a2.597 2.597 0 01-1.752 1.903 9.355 9.355 0 01-6.714-.107c-2.17-.73-4.189-1.868-6.34-2.668s-5.764-2.196-7.925-1.432c-1.591.56-2.667 2.481-3.557 2.055a3.05 3.05 0 01-1.592-2.26 8.662 8.662 0 01.098-2.872" fill="#263238"/><path d="M169.58 9.186c-.045 0-.258.374-.8.96a6.9 6.9 0 01-2.793 1.78 6.376 6.376 0 01-4.802-.187c-1.707-.774-3.175-2.304-4.864-3.753a10.405 10.405 0 00-5.656-2.668 5.816 5.816 0 00-4.811 1.663 4.393 4.393 0 00-1.174 3.228 3.557 3.557 0 00.213.89c.089.195.151.293.17.284a6.883 6.883 0 01-.188-1.218 4.313 4.313 0 011.192-2.962 5.531 5.531 0 014.509-1.45 10.191 10.191 0 015.38 2.669c1.654 1.414 3.166 2.988 4.998 3.788a6.82 6.82 0 007.923-1.903 4.081 4.081 0 00.525-.783c.107-.222.178-.329.178-.338zM141.007 24.465a1.322 1.322 0 00.409-.543 3.37 3.37 0 00.249-1.779c-.107-1.618-1.547-3.361-1.725-5.593a4.98 4.98 0 01.56-3.006 3.788 3.788 0 011.867-1.619 3.406 3.406 0 011.681-.23 3.557 3.557 0 00.64.124 1.558 1.558 0 00-.604-.312 3.175 3.175 0 00-1.841.09 4.046 4.046 0 00-2.143 1.716 5.336 5.336 0 00-.658 3.281 9.382 9.382 0 00.969 3.166 9.57 9.57 0 01.89 2.437 3.833 3.833 0 01-.294 2.268z" fill="#455a64"/><path d="M154.56 32.78a4.936 4.936 0 001.556 2.88 3.095 3.095 0 003.148.561 5.096 5.096 0 002.019-2.072z" fill="#fff"/><path fill="#f5f5f5" d="M.311 90.477h189.011v74.514H.311z"/><path d="M189.322 164.982v-19.964c0-12.85-.053-31.455-.089-54.541l.16.16-189.002.071.231-.231v74.505L.4 164.76l135.493.107 39.334.062h.142l-39.28.062-135.644.107H.222V90.139h.24l189.003.062h.16v.17c0 23.121-.063 41.796-.09 54.638v18.577a4.093 4.093 0 01-.213 1.396z" fill="#263238"/><path d="M107.49 130.193c0 .124-20.241.231-45.204.231s-45.203-.106-45.203-.231 20.232-.231 45.203-.231 45.203.098 45.203.231zM107.747 139.21c0 .134-20.356.232-45.46.232s-45.47-.098-45.47-.232 20.356-.23 45.47-.23 45.46.106 45.46.23z" fill="#263238"/><path fill="#fde24f" d="M22.793 103.994l2.018 4.091 4.527.658-3.273 3.184.774 4.5-4.046-2.117-4.038 2.117.765-4.5-3.264-3.184 4.518-.658 2.019-4.091zM37.751 103.994l2.018 4.091 4.518.658-3.273 3.184.774 4.5-4.037-2.117-4.047 2.117.774-4.5-3.273-3.184 4.518-.658 2.028-4.091zM52.7 103.994l2.018 4.091 4.527.658-3.273 3.184.774 4.5-4.046-2.117-4.038 2.117.765-4.5-3.264-3.184 4.518-.658 2.019-4.091z"/><path fill="#e0e0e0" d="M67.649 103.994l2.027 4.091 4.518.658-3.273 3.184.774 4.5-4.046-2.117-4.038 2.117.774-4.5-3.273-3.184 4.518-.658 2.019-4.091zM82.607 103.994l2.018 4.091 4.527.658-3.273 3.184.774 4.5-4.046-2.117-4.038 2.117.765-4.5-3.264-3.184 4.518-.658 2.019-4.091zM49.17 151.154c0 .133-6.982.23-15.599.23s-15.598-.097-15.598-.23 6.99-.232 15.598-.232 15.598.107 15.598.232z"/><circle cx="172.861" cy="135.626" r="25.541" transform="rotate(-67.663 158.997 148.246)" fill="#fde24f"/><path d="M178.882 127.472c-.694-.56-1.68-.632-2.392-1.174-1.476-1.103-1.05-3.362-1.37-5.167-.338-1.974-1.68-3.602-2.748-5.336s-2.303-4.153-1.511-5.994l-14.371 26.35h22.543s.685-4.144.8-5.335a3.729 3.729 0 00-.951-3.344z" fill="#263238"/><path d="M149.02 101.3c.693-2.117 3.005-3.317 5.22-3.557s3.299.64 5.478.15c2.997-.675 4.73-1.689 6.714-1.369a9.053 9.053 0 015.665 2.721c1.182 1.361 1.227 4.571.729 6.314-.445 1.583-1.68 2.89-2.01 4.51s.205 3.023.534 4.517c.996 4.49.222 9.515-2.748 13.02s-8.333 5.05-12.45 2.987" fill="#263238"/><path d="M161.22 144.893l-.124-6.554s6.519-.96 8.004-9.418c.747-4.197.658-11.116.4-16.772-.231-5.087-5.62-10.262-10.672-9.782l-16.487 2.837v2.73l.453 37.28a9.213 9.213 0 009.213 9.106 9.23 9.23 0 009.216-9.247l-.002-.18z" fill="#a36957"/><path d="M166.69 117.307a1.085 1.085 0 01-1.076 1.076 1.04 1.04 0 01-1.102-.975l-.001-.02a1.094 1.094 0 011.067-1.086 1.05 1.05 0 011.11.985zM167.944 115.697c-.134.143-.952-.48-2.117-.498s-2.036.552-2.16.41.08-.32.453-.587a2.952 2.952 0 011.734-.498 2.881 2.881 0 011.69.578c.346.293.47.595.4.595zM155.351 117.111a1.085 1.085 0 01-1.067 1.076 1.04 1.04 0 01-1.102-.975v-.02a1.094 1.094 0 011.067-1.086 1.04 1.04 0 011.1.976zM156.445 115.697c-.142.143-.952-.48-2.125-.498s-2.037.552-2.161.4.08-.31.462-.577a3.024 3.024 0 011.734-.507 2.89 2.89 0 011.681.578c.356.32.471.604.409.604zM160.536 124.484a7.488 7.488 0 011.903-.312c.302 0 .587-.08.64-.284a1.53 1.53 0 00-.187-.89l-.844-2.285a39.475 39.475 0 01-1.877-5.985 39.742 39.742 0 012.357 5.816c.275.81.551 1.574.8 2.303a1.779 1.779 0 01.142 1.174.792.792 0 01-.506.436 1.779 1.779 0 01-.507.053 7.905 7.905 0 01-1.921-.026z" fill="#263238"/><path d="M161.096 138.339a21.548 21.548 0 01-11.294-3.228s2.668 5.87 11.143 5.229zM159.984 127.258a2.116 2.116 0 00-1.867-.818 1.903 1.903 0 00-1.343.694 1.2 1.2 0 00-.116 1.387 1.396 1.396 0 001.521.418 4.509 4.509 0 001.512-.89 1.387 1.387 0 00.338-.346.391.391 0 000-.436" fill="#7c3b29"/><path d="M157.076 125.23c.187 0 .17 1.264 1.245 2.18s2.42.809 2.428.987-.302.24-.89.249a3.175 3.175 0 01-2.027-.747 2.792 2.792 0 01-.96-1.832c-.027-.534.116-.845.204-.836zM156.827 111.153c-.124.32-1.289.142-2.667.285s-2.5.498-2.668.213c-.071-.142.124-.436.578-.738a4.615 4.615 0 014.055-.373c.507.213.756.462.702.613zM167.57 112.327c-.204.258-1.005 0-1.974-.062s-1.779.15-1.974-.134c-.09-.133.053-.4.409-.64a2.668 2.668 0 011.618-.409 2.801 2.801 0 011.574.56c.338.285.445.56.347.685z" fill="#263238"/><path d="M152.114 98.258a11.801 11.801 0 01-3.785 16.254q-.186.116-.377.225a6.634 6.634 0 00-2.588 1.92c-.729 1.166-.418 2.669-.284 4.047a14.122 14.122 0 01-3.246 10.387 39.21 39.21 0 01-3.957-9.782 33.455 33.455 0 00-1.121-5.238c-.373-.996-.934-1.92-1.263-2.935a9.32 9.32 0 01.25-5.736 13.544 13.544 0 0117.074-8.493" fill="#263238"/><path d="M137.379 104.137c-3.816 5.584-1.957 9.222-3.442 12.085-1.067 2.072-3.557 2.9-5.336 4.447-2.4 2.072-3.38 5.433-3.29 8.608a32.272 32.272 0 002.125 9.249l20.516.098c1.583-4.998-2.383-10.414-1.111-15.5.435-1.78 1.467-3.345 1.53-5.132a13.695 13.695 0 00-.623-3.513 15.794 15.794 0 01.951-9.844" fill="#263238"/><path d="M172.844 101.673a4.807 4.807 0 00-.463-.693 4.873 4.873 0 00-1.778-1.352 7.114 7.114 0 00-3.264-.596 14.291 14.291 0 00-4.01.89c-1.388.48-2.669 1.004-3.958 1.307a10.165 10.165 0 01-3.397.302 6.038 6.038 0 01-2.215-.623 4.447 4.447 0 01-.533-.337 1.334 1.334 0 01-.17-.134s.259.16.739.391a6.287 6.287 0 002.188.543 10.138 10.138 0 003.334-.347c1.237-.311 2.544-.836 3.94-1.325a14.38 14.38 0 014.073-.89 7.194 7.194 0 013.344.659 4.73 4.73 0 011.778 1.45 3.558 3.558 0 01.312.542.676.676 0 01.08.213zM169.882 116.026l.187.134a1.3 1.3 0 01.222.187 3.025 3.025 0 01.258.293 4.784 4.784 0 01.89 2.295 11.233 11.233 0 01.124 1.707v1.948a8.733 8.733 0 00.24 2.116 3.984 3.984 0 001.094 1.93 11.268 11.268 0 001.939 1.218 3.984 3.984 0 011.565 1.53 5.23 5.23 0 01.373 3.62 12.155 12.155 0 01-.836 2.33c-.124.266-.222.462-.293.604a.764.764 0 01-.116.204.516.516 0 01.08-.222 6.39 6.39 0 00.25-.622 13.518 13.518 0 00.755-2.33 5.584 5.584 0 00.116-1.663 4.25 4.25 0 00-.516-1.823 3.744 3.744 0 00-1.494-1.432 11.115 11.115 0 01-1.974-1.254 4.029 4.029 0 01-1.156-2.037 9.266 9.266 0 01-.24-2.17c0-.684 0-1.342.044-1.947a11.162 11.162 0 00-.098-1.69 4.793 4.793 0 00-.818-2.258c-.347-.463-.613-.64-.596-.668zM134.969 137.725l-.063-.106a2.74 2.74 0 01-.15-.32 14.093 14.093 0 01-.49-1.281 12.45 12.45 0 01-.49-2.108 9.463 9.463 0 010-2.872 7.72 7.72 0 011.3-3.22 13.837 13.837 0 012.943-2.667 8.831 8.831 0 001.538-1.459 4.918 4.918 0 00.943-1.965 11.063 11.063 0 00-.213-4.624 18.675 18.675 0 01-.659-4.696 6.225 6.225 0 01.498-2.214 5.834 5.834 0 011.281-1.779 10.725 10.725 0 013.406-2.072c1.147-.48 2.25-.89 3.21-1.298a10.432 10.432 0 002.428-1.45 6.554 6.554 0 001.405-1.6 4.598 4.598 0 00.543-1.237c.08-.302.098-.462.106-.462a2.605 2.605 0 01-.062.471 4.518 4.518 0 01-.507 1.272 6.5 6.5 0 01-1.405 1.654 10.45 10.45 0 01-2.445 1.503c-.96.445-2.064.836-3.202 1.316a10.832 10.832 0 00-3.335 2.054 5.336 5.336 0 00-1.218 1.708 5.754 5.754 0 00-.471 2.143 18.461 18.461 0 00.649 4.624 11.09 11.09 0 01.204 4.731 5.033 5.033 0 01-.987 2.046 9.578 9.578 0 01-1.574 1.494 13.828 13.828 0 00-2.926 2.668 7.675 7.675 0 00-1.298 3.139 10.743 10.743 0 00.4 4.918c.17.569.33.996.445 1.29l.133.328a.826.826 0 01.063.071z" fill="#455a64"/><path d="M152.31 100.286h-.543c-.355 0-.889-.089-1.565-.116a17.377 17.377 0 00-5.674.623 11.427 11.427 0 00-3.557 1.778 9.187 9.187 0 00-2.828 3.46 11.347 11.347 0 00-.773 4.9 26.564 26.564 0 01-.187 5.416 7.595 7.595 0 01-.96 2.605 6.225 6.225 0 01-1.904 1.912 47.074 47.074 0 00-4.304 2.597 6.563 6.563 0 00-2.188 3.824 9.266 9.266 0 00.09 3.913 12.993 12.993 0 001.164 3.041 21.671 21.671 0 001.272 2.117c.382.56.694.987.89 1.272l.24.329c.044.08.07.115.07.124l-.097-.107-.258-.31c-.214-.286-.543-.703-.89-1.264a20.24 20.24 0 01-1.316-2.098 13.065 13.065 0 01-1.2-3.069 9.285 9.285 0 01-.116-3.984 6.768 6.768 0 012.232-3.957 47.007 47.007 0 014.314-2.614 6.03 6.03 0 001.832-1.841 7.505 7.505 0 00.933-2.526 27.408 27.408 0 00.187-5.336 11.605 11.605 0 01.81-4.989 9.204 9.204 0 012.907-3.557 11.32 11.32 0 013.557-1.778 16.896 16.896 0 015.728-.56 10.603 10.603 0 011.556.15l.409.063z" fill="#455a64"/><path d="M141.496 138.615a5.336 5.336 0 001.343-.97 5.754 5.754 0 001.085-1.61 7.47 7.47 0 00.604-2.49 9.853 9.853 0 00-.302-3.103 33.926 33.926 0 00-1.112-3.433 27.256 27.256 0 01-1.191-3.833 9.542 9.542 0 010-4.313 6.545 6.545 0 01.89-2.01 10.19 10.19 0 011.404-1.609c1.032-.952 2.143-1.707 3.157-2.481a14.477 14.477 0 002.668-2.428 10.502 10.502 0 001.592-2.668 11.17 11.17 0 00.827-4.446 3.505 3.505 0 00-.045-.712 3.84 3.84 0 00-.053-.524l-.044-.32v-.107a8.226 8.226 0 01.23 1.663 11.036 11.036 0 01-.764 4.446 10.805 10.805 0 01-1.592 2.748 14.576 14.576 0 01-2.668 2.481c-1.013.783-2.125 1.539-3.13 2.481a9.72 9.72 0 00-1.37 1.574 6.287 6.287 0 00-.889 1.94 9.204 9.204 0 000 4.205 27.995 27.995 0 001.165 3.807 30.735 30.735 0 011.094 3.459 9.853 9.853 0 01.285 3.157 7.612 7.612 0 01-.65 2.535 5.727 5.727 0 01-1.138 1.618 4.18 4.18 0 01-1.005.738l-.293.134z" fill="#455a64"/><path d="M153.19 103.941c2.17 1.52 4.571 3.104 7.212 2.917a19.351 19.351 0 004.5-1.334 5.473 5.473 0 014.562.098c.89-.071 1.272-1.245.89-2.028a3.362 3.362 0 00-2.055-1.476c-4.748-1.619-9.488.213-14.824.56" fill="#263238"/><path d="M172.648 105.328a2.757 2.757 0 00.178-.889 2.285 2.285 0 00-1.12-1.93 3.193 3.193 0 00-1.53-.453 4.651 4.651 0 00-1.823.302c-1.254.418-2.446 1.325-3.895 1.93a8.955 8.955 0 01-2.18.64 9.675 9.675 0 01-2.116.16 10.2 10.2 0 01-3.504-.702 8.893 8.893 0 01-2.116-1.148 5.726 5.726 0 01-.507-.409.952.952 0 01-.169-.16 11.908 11.908 0 002.855 1.565 10.725 10.725 0 005.513.48 10.067 10.067 0 002.135-.63c1.414-.597 2.614-1.504 3.913-1.93a5.042 5.042 0 011.912-.294 3.406 3.406 0 011.6.507 2.419 2.419 0 01.89 1.05 2.339 2.339 0 01.204 1.03 1.779 1.779 0 01-.151.641.685.685 0 01-.089.24z" fill="#455a64"/><path d="M274.33 146.13a9.622 9.622 0 0012.192-9.507c-.062-2.793-1.325-5.639-.453-8.289.596-1.823 2.125-3.246 2.668-5.095.765-2.757-.89-5.55-2.5-7.924a18.453 18.453 0 00-3.485-4.242 6.323 6.323 0 00-5.114-1.512M248.567 109.81c.16 2.108-1.236 3.993-2.668 5.576s-2.97 3.228-3.272 5.336c-.534 3.708 3.095 7.114 2.348 10.823-.4 1.965-2.01 3.557-2.304 5.531s.756 3.806 2.037 5.274a57.682 57.682 0 013.957 4.26s2.348 3.859 9.596 1.387" fill="#263238"/><path d="M280.973 113.03c.054-1.912-1.707-3.389-3.495-4.082s-3.753-.97-5.335-2.037c-1.406-.942-2.348-2.419-3.558-3.628a11.774 11.774 0 00-19.795 5.407c-.685 2.721-.223 5.94 1.93 7.746 2.49 2.107 6.18 1.636 9.373.987s6.803-1.299 9.47.569c1.61 1.138 2.526 2.97 3.513 4.678s2.215 3.432 4.073 4.073 4.376-.463 4.447-2.428" fill="#263238"/><path d="M273.432 113.43a3.184 3.184 0 012.864 3.246l-1.904 43.21c-.08 5.105-7.54 8.004-13.001 7.844-5.523-.124-5.7-2.837-5.772-7.692-.115-8.11-.097-11.152-.106-11.108s-6.972-1.173-8.395-10.27c-.703-4.527-.463-11.944-.063-18.01.356-5.45 3.984-12.138 9.418-11.56z" fill="#ffbe9d"/><path d="M248.727 126.173a1.174 1.174 0 001.13 1.183 1.12 1.12 0 001.2-1.035v-.014a1.165 1.165 0 00-1.12-1.183 1.12 1.12 0 00-1.208 1.026zM248.647 123.923c.143.152 1.023-.498 2.277-.489s2.179.632 2.312.48-.08-.337-.48-.63a3.193 3.193 0 00-1.85-.579 2.97 2.97 0 00-1.779.587c-.4.294-.55.57-.48.631zM261.266 126.547a1.165 1.165 0 001.12 1.183 1.12 1.12 0 001.209-1.026l.001-.024a1.174 1.174 0 00-1.129-1.182 1.112 1.112 0 00-1.198 1.017zM260.982 124.777c.142.151 1.031-.498 2.285-.489s2.18.631 2.313.48-.08-.347-.48-.64a3.22 3.22 0 00-1.85-.57 3.077 3.077 0 00-1.823.579c-.383.293-.516.569-.445.64zM256.402 134.08a8.004 8.004 0 00-2.037-.374c-.32 0-.622-.098-.675-.32a1.708 1.708 0 01.213-.952l.96-2.437a43.842 43.842 0 002.144-6.376 41.49 41.49 0 00-2.668 6.225c-.312.89-.623 1.672-.89 2.455a1.779 1.779 0 00-.169 1.254.791.791 0 00.525.47 2.161 2.161 0 00.543.08 8.19 8.19 0 002.054-.026z" fill="#263238"/><path d="M255.504 148.93a23.122 23.122 0 0012.192-3.219s-3.086 6.225-12.192 5.336zM256.927 137.103a2.259 2.259 0 012.036-.836 2.081 2.081 0 011.423.774 1.307 1.307 0 01.098 1.494 1.53 1.53 0 01-1.654.409 4.776 4.776 0 01-1.601-.96 1.423 1.423 0 01-.356-.374.436.436 0 010-.463" fill="#eb996e"/><path d="M260.422 122.58c.124.339 1.378.178 2.845.365s2.668.578 2.864.276c.089-.142-.116-.471-.596-.8a4.989 4.989 0 00-4.358-.498c-.533.222-.809.489-.755.658zM249.11 120.882c.222.285 1.085 0 2.125 0s1.921.196 2.126-.107c.089-.142 0-.427-.436-.693a2.828 2.828 0 00-1.725-.472 2.917 2.917 0 00-1.699.57c-.365.275-.49.56-.391.702z" fill="#263238"/><path d="M279.79 143.355a8.084 8.084 0 01-9.613-8.893c.285-2.233 1.485-4.5.712-6.617-1.023-2.801-4.945-3.655-5.985-6.447-.605-1.619-.063-3.557-.747-5.105a5.985 5.985 0 00-3.744-2.908c-1.53-.551-3.166-.89-4.447-1.938s-2.08-2.882-1.254-4.278a85.941 85.941 0 0119.876 4.829 7.669 7.669 0 013.922 2.534c.88 1.317.89 3.202.81 4.883l-1.148 24.5" fill="#263238"/><path d="M284.593 113.794a.712.712 0 01.15.374 1.387 1.387 0 01-.346 1.094 2.286 2.286 0 01-1.627.827 5.23 5.23 0 01-2.304-.694 6.545 6.545 0 00-2.668-.783 13.695 13.695 0 00-3.21.294 21.717 21.717 0 01-3.637.462 5.23 5.23 0 01-3.717-1.351 10.867 10.867 0 01-2.152-3.326 16.061 16.061 0 00-1.735-3.122 5.078 5.078 0 00-5.246-1.92 5.336 5.336 0 00-3.166 2.347 11.498 11.498 0 00-.667 1.343 1.005 1.005 0 01.062-.391 5.122 5.122 0 01.445-1.05 5.234 5.234 0 016.162-2.516 5.522 5.522 0 012.757 1.912 16.897 16.897 0 011.779 3.192 10.671 10.671 0 002.054 3.184 4.758 4.758 0 003.406 1.236 22.101 22.101 0 003.557-.427 13.704 13.704 0 013.308-.258 6.625 6.625 0 012.775.89 5.194 5.194 0 002.152.729 2.152 2.152 0 001.494-.676 1.352 1.352 0 00.4-.97c.018-.275-.053-.39-.026-.4z" fill="#455a64"/><path d="M279.497 111.18a6.679 6.679 0 01.329-13.082 4.046 4.046 0 013.993 1.254c.836 1.13.783 2.828 1.84 3.753s2.882.56 4.358.89a4.944 4.944 0 013.557 5.335 6.705 6.705 0 01-4.206 5.185 10.556 10.556 0 01-6.865.133 25.79 25.79 0 01-6.279-3.05" fill="#263238"/><path d="M290.435 104.608a4.162 4.162 0 01-.667 1.663 9.329 9.329 0 01-7.176 4.446 4.082 4.082 0 01-1.779-.133c0-.08.685 0 1.779-.196a10.672 10.672 0 003.913-1.45 10.458 10.458 0 003.014-2.872 16.596 16.596 0 01.916-1.458z" fill="#455a64"/><path d="M285.615 114.666a14.335 14.335 0 00-9.782-5.603 4.322 4.322 0 011.734 0 11.303 11.303 0 013.949 1.379 11.027 11.027 0 013.183 2.721 4.189 4.189 0 01.916 1.503z" fill="#fde24f"/><path d="M261.258 135.991a5.7 5.7 0 01-2.277 1.841 6.225 6.225 0 01-2.766.97 18.39 18.39 0 012.544-1.379 25.444 25.444 0 012.499-1.432z" fill="#263238"/><path d="M284.762 113.617a.97.97 0 01.338-.125 7.175 7.175 0 011.004-.222 10.512 10.512 0 013.78.124 8.315 8.315 0 012.481.934 1.53 1.53 0 01.712 1.414 1.2 1.2 0 01-.463.765 2.072 2.072 0 01-.791.338 5.496 5.496 0 01-1.663 0 12.61 12.61 0 01-1.69-.276 11.978 11.978 0 01-1.69-.534 3.557 3.557 0 01-1.538-1.12 2.419 2.419 0 01-.365-1.876c.107-.614.267-1.157.4-1.717a11.117 11.117 0 011.21-3.121 2.099 2.099 0 011.325-.996 1.298 1.298 0 011.44.658 1.992 1.992 0 01-.07 1.458 9.02 9.02 0 01-.552 1.139 8.893 8.893 0 01-2.552 2.836 9.475 9.475 0 01-.89.543c-.213.098-.329.151-.338.133s.418-.267 1.103-.818a9.4 9.4 0 002.348-2.828 8.43 8.43 0 00.498-1.112 1.636 1.636 0 00.062-1.173.89.89 0 00-1.022-.41 1.663 1.663 0 00-1.041.819 11.56 11.56 0 00-1.13 2.997c-.222 1.085-.764 2.32-.088 3.219a5.265 5.265 0 002.952 1.476 12.99 12.99 0 001.628.285 5.504 5.504 0 001.53 0c.48-.09.889-.347.942-.747a1.174 1.174 0 00-.534-1.04 8.003 8.003 0 00-2.33-.89 11.374 11.374 0 00-3.69-.267c-.827.053-1.307.178-1.316.134z" fill="#fde24f"/><path d="M275.406 108.583a.52.52 0 01-.124.267 2.748 2.748 0 01-.587.622 3.993 3.993 0 01-3.006.667 7.577 7.577 0 01-3.94-2.347c-1.236-1.2-2.374-2.748-4.046-3.7a7.177 7.177 0 00-5.22-.658 6.839 6.839 0 00-3.646 2.357 7.48 7.48 0 00-1.387 2.668c-.196.684-.24 1.085-.276 1.085s0-.107 0-.294a4.794 4.794 0 01.115-.836 7.248 7.248 0 015.096-5.38 7.488 7.488 0 015.558.676 20.404 20.404 0 014.127 3.797 7.372 7.372 0 003.69 2.321 3.842 3.842 0 002.846-.489 5.335 5.335 0 00.8-.756z" fill="#455a64"/><path d="M240.67 166.138s-6.403 4.02-7.159 14.033-2.952 30.912-2.952 30.912l-24.429 5.994 2.721 14.656 40.303-11.24z" fill="#fde24f"/><path d="M275.264 154.506l3.993 4.545s10.396 2.463 12.655 3.432-3.558 22.233-3.558 22.233l.89 43.709a5.505 5.505 0 01-6.003 5.593l-39.494-3.512-3.397-49.312.338-15.065 9.418-3.254 5.442-5.39 4.313 9.667z" fill="#fde24f"/><path d="M291.912 162.483s8.048 3.086 8.732 15.225c.454 8.004 3.255 21.637 5.123 30.023a18.08 18.08 0 01-2.446 13.713 18.115 18.115 0 01-14.45 8.315l-17.11.756-7.222-11.499 19.182-5.585 4.553-27.666z" fill="#fde24f"/><path d="M295.37 220.056a12.11 12.11 0 01-.24-1.325 16.088 16.088 0 00-1.013-3.503 9.515 9.515 0 00-3.273-4.145 6.901 6.901 0 00-2.863-1.173 9.55 9.55 0 00-3.353.16 101.943 101.943 0 00-11.676 3.201l-3.486 1.183a8.001 8.001 0 01-1.307.373 7.221 7.221 0 011.245-.542l3.432-1.325a86.948 86.948 0 0111.703-3.353 10.022 10.022 0 013.557-.151 7.372 7.372 0 013.033 1.28 9.613 9.613 0 013.326 4.367 14.443 14.443 0 01.89 3.602 5.043 5.043 0 01.026 1.351zM284.557 185.81a3.13 3.13 0 01.142.889c.063.578.116 1.423.17 2.463.097 2.188.23 4.998.364 8.102a62.252 62.252 0 00.89 8.003c.39 2.028.809 3.246.729 3.273a3.334 3.334 0 01-.356-.836 7.577 7.577 0 01-.33-1.014c-.124-.391-.248-.889-.364-1.36a48.13 48.13 0 01-1.04-8.066c-.17-3.175-.196-6.047-.223-8.12v-2.463a3.557 3.557 0 01.018-.871zM301.623 224.307a6.566 6.566 0 01-.89.89 21.769 21.769 0 01-2.828 2.072 24.18 24.18 0 01-10.982 3.45 23.015 23.015 0 01-6.377-.48c-1.93-.41-3.557-1.103-4.98-1.432a22.711 22.711 0 00-3.441-.48 4.59 4.59 0 01-1.263-.258s.462 0 1.28.08a19.03 19.03 0 013.495.338c1.468.302 3.104.96 4.998 1.334a23.655 23.655 0 006.225.436 25.167 25.167 0 0010.85-3.273 46.479 46.479 0 003.913-2.677zM279.035 200.794a6.224 6.224 0 01-.756.987 32.014 32.014 0 01-2.304 2.473 42.867 42.867 0 01-3.788 3.299 48.612 48.612 0 01-5.14 3.397 47.05 47.05 0 01-5.558 2.668 42.752 42.752 0 01-4.785 1.538 30.77 30.77 0 01-3.308.694 6.572 6.572 0 01-1.236.142 6.226 6.226 0 011.2-.32c.774-.16 1.895-.436 3.255-.827a47.903 47.903 0 004.714-1.627 52.652 52.652 0 005.495-2.668 54.046 54.046 0 005.105-3.335c1.485-1.138 2.784-2.223 3.824-3.193s1.85-1.778 2.392-2.365a6.34 6.34 0 01.89-.863z" fill="#263238"/><path d="M254.623 215.139c-1.102-.89-.426-2.846.827-3.558s2.766-.533 4.189-.569a16.007 16.007 0 009.729-3.646c2.019-1.672 3.833-3.948 6.43-4.295-.596 2.125-3.158 4.197-4.963 5.469-5.238 3.7-11.01 5.087-17.092 7.194" opacity=".2"/><path d="M278.376 159.549a3.672 3.672 0 01-.613.658c-.418.4-1.023.96-1.779 1.654a462.253 462.253 0 01-5.985 5.336 17.786 17.786 0 01-3.557 2.668 5.736 5.736 0 01-1.903.586 4.162 4.162 0 01-1.725-.204 3.228 3.228 0 01-1.921-1.539 1.779 1.779 0 01-.214-.64.73.73 0 010-.24c.045 0 .09.32.374.792a3.175 3.175 0 001.867 1.316 4.046 4.046 0 001.592.133 5.46 5.46 0 001.779-.587 18.311 18.311 0 003.45-2.668 437.299 437.299 0 016.083-5.238 76.419 76.419 0 011.877-1.538 3.557 3.557 0 01.675-.49zM258.67 167.597a4.607 4.607 0 01-1.299 1.538 8.688 8.688 0 01-1.778 1.228 1.778 1.778 0 01-1.388.257 2.037 2.037 0 01-.969-1.156 145.398 145.398 0 01-1.956-4.384 7.87 7.87 0 01-.694-1.867 8.511 8.511 0 01.987 1.734c.551 1.094 1.298 2.668 2.09 4.322.187.418.4.818.702.889a1.378 1.378 0 001.041-.222 10.29 10.29 0 001.779-1.103c.942-.667 1.422-1.29 1.485-1.236zM258.732 187.348c-.125 0 0-4.509.276-10.058s.613-10.049.738-10.04 0 4.509-.276 10.058-.614 10.049-.738 10.04zM241.71 185.303a16.897 16.897 0 010-5.576 16.897 16.897 0 010 5.576z" fill="#263238"/><path d="M276.349 167.872a.169.169 0 00.08.045.098.098 0 00-.08-.045zM276.429 167.917z" fill="#fbfbfb"/><path d="M277.905 168.3c.08 0 0 0 .09.053s.115 0 .141 0h.107a6.847 6.847 0 00.89.133.091.091 0 01.097.071h.738a.516.516 0 00.17 0 4.963 4.963 0 00.524-.089h.062v.071h.89c.044 0 0 .045 0 .045h.07v-.062h-.053s0-.054.09-.045h.31a.476.476 0 00.232-.053 3.549 3.549 0 00.062-.81h-.089a.142.142 0 01-.089 0c-.071 0-.107.045-.178 0h-.24l-1.023.054h-1.085a.373.373 0 00-.142 0h-.151a5.638 5.638 0 01-.89-.125 2.09 2.09 0 01-.24 0c-.08 0-.515-.106-.604-.115-.08 0-.062 0-.125-.054s-.07.045-.097 0a.711.711 0 01-.196 0 .614.614 0 01-.196 0 1.192 1.192 0 00-.329-.097l-.062-.08s-.302.622-.178.8h.071c.018 0 0 0 .045.044a5.336 5.336 0 00.711.205h.214a3.032 3.032 0 01.453.053zM276.856 171.634h.053a.053.053 0 00-.053 0zM276.909 171.679v-.009.009zM277.994 171.928c.053 0 0 .044.062 0s.08 0 .098 0a3.734 3.734 0 00.64.053h-.008a.08.08 0 01.08.062h.524a.196.196 0 00.125 0 1.109 1.109 0 00.364-.124h.045v.07l.622-.088v.044h.054v-.053h.142a.055.055 0 01.062-.053 1.93 1.93 0 00.223 0 .209.209 0 00.16-.071 3.941 3.941 0 00-.09-.8h-.062c-.053 0-.07.053-.124 0h-.16c-.125 0-.578.124-.703.133a5.383 5.383 0 00-.738.089h-.204a2.365 2.365 0 01-.623-.045h-.169c-.053 0-.356-.053-.418-.053h-.089c-.035 0-.053.044-.07.044a.543.543 0 01-.134 0h-.134c-.026 0-.15-.08-.23-.07l-.045-.063s-.25.64-.17.81h.063a2.518 2.518 0 00.525.132h.15a1.539 1.539 0 01.232-.017zM275.477 177.664a.062.062 0 00.063 0 .08.08 0 00-.063 0zM275.54 177.69h.009-.009z" fill="#fbfbfb"/><path d="M276.713 177.69h.845c.054 0 .063 0 .08.063h.134c.133 0 .089-.054.124 0h.276a.311.311 0 00.124 0 1.308 1.308 0 00.392-.116v.08a6.406 6.406 0 01.667-.045m0 .045h.053v-.062h.044s0-.054.072 0a2.009 2.009 0 00.23 0 .353.353 0 00.179-.045 3.996 3.996 0 00.062-.8h-.107a.098.098 0 01-.07 0h-.33c-.142 0-.694.062-.836.071a6.274 6.274 0 00-.89.089.196.196 0 00-.124 0h-.115a4.9 4.9 0 01-.72 0h-.8c-.054 0-.045.053-.072.062a.516.516 0 01-.151.045h-.151a.614.614 0 00-.285 0l-.062-.054s-.063.685.07.827h.632a1.004 1.004 0 01.16 0 1.032 1.032 0 01.57-.16zM276.296 183.177a.062.062 0 00.053 0s-.053-.009-.053 0zM276.349 183.195h-.009.009z" fill="#fbfbfb"/><path d="M277.336 183.07h.151s.48-.062.57-.088 0 0-.054 0a.105.105 0 01.089.053c.098-.044 0 0 .116 0s.07-.053.106-.044h.045c.044 0 .053 0 0-.045s.053 0 0 0h.16a.231.231 0 00.106-.044.801.801 0 00.312-.16v.07a4.715 4.715 0 01.569-.106h.044v-.062h.045a.052.052 0 01.053-.054h.196s.107 0 .142-.062a3.994 3.994 0 00-.062-.8h-.071c-.054 0-.071.053-.125 0h-.169a6.503 6.503 0 00-.693.16 7.117 7.117 0 00-.72.178.231.231 0 00-.107 0l-.09.044a3.782 3.782 0 01-.613.089c-.044.045-.116 0-.16.062a2.42 2.42 0 00-.418.071h-.089c-.045 0 0 .063-.053.072l-.125.07a.47.47 0 01-.133.045.427.427 0 00-.232 0l-.062-.044s0 .676.178.8a.08.08 0 01.045 0 4.323 4.323 0 00.489-.062h.133a1.138 1.138 0 01.427-.142zM275.762 188.753h.053a.08.08 0 00-.053 0zM275.815 188.78z" fill="#fbfbfb"/><path d="M276.802 188.726h.152a3.984 3.984 0 00.569 0h-.054a.1.1 0 01.08.045h.116c.116 0 .071-.053.098-.045h.204a.214.214 0 00.107 0c.045-.044.285-.097.32-.142v.071c0-.009.49-.07.56-.07m0 .044H279v-.063a.052.052 0 01.053-.053 1.438 1.438 0 00.196 0s.116 0 .151-.053a6.008 6.008 0 000-.8h-.391c-.125 0-.578.088-.703.106a3.66 3.66 0 00-.738.125h-.195a2.863 2.863 0 01-.614.053.233.233 0 00-.16.044 1.34 1.34 0 00-.418.045h-.098c-.044 0 0 .062-.053.071a.889.889 0 01-.125.053.427.427 0 01-.133 0 .418.418 0 00-.231 0l-.063-.053s0 .685.125.818h.044a4.327 4.327 0 00.48 0h.134a.774.774 0 01.542-.196zM275.878 193.475h.053a.062.062 0 00-.053 0zM275.931 193.511z" fill="#fbfbfb"/><path d="M276.962 193.76c.045 0 0 .044.054.044h.098a4.153 4.153 0 00.596.125v-.045s.053 0 .062.072h.578a2.664 2.664 0 00.373 0v.062a4.167 4.167 0 01.605.107c.08.035 0 0 0 .044s0 0 .053 0v-.062s0-.045.071 0h.383a4.292 4.292 0 00.24-.765h-.044c-.063 0 0 0 0-.045s-.045 0-.063 0h-.302l-.747-.097a7.52 7.52 0 00-.783-.098.231.231 0 00-.106-.045h-.116a3.718 3.718 0 01-.64-.133h-.178c-.062 0-.383-.08-.445-.08s-.053 0-.098-.044-.053.053-.07.053h-.143a.418.418 0 01-.151 0 .64.64 0 00-.24-.053v-.072s-.214.65-.125.81h.053a4.688 4.688 0 00.507.124h.143a.89.89 0 01.435.098zM276.553 198.482a.09.09 0 00.063 0 .071.071 0 00-.063 0zM276.616 198.5z" fill="#fbfbfb"/><path d="M277.674 198.402h.81c.053 0 .053 0 .07.053h.125c.124 0 .089-.044.115 0h.258a.24.24 0 00.116 0c.053 0 .32 0 .373-.07v.07a3.502 3.502 0 01.614.071v.045h.053v-.062s0-.045.071 0l.214.044h.169l.276-.756h-.045c-.018 0 0 0 0-.044s-.053 0-.08 0h-.329c-.142 0-.693-.071-.827-.08a7.116 7.116 0 00-.89 0 .267.267 0 00-.115 0h-.115a6.561 6.561 0 01-.72 0 .275.275 0 00-.196.053 4.832 4.832 0 00-.49.053h-.106c-.045 0 0 .063-.062.072a.795.795 0 01-.143.062.488.488 0 01-.15.044.587.587 0 00-.268 0h-.07s.053.685.204.8a.08.08 0 01.044 0h.045a1.893 1.893 0 00.515-.062h.143a.836.836 0 01.39-.293zM277.425 206.219a.062.062 0 00.053 0zM277.478 206.21zM278.368 205.774h.062c.062 0 .071 0 .071-.062s.427-.213.498-.267 0 0-.062 0h.089c.08-.07 0 0 .097-.062s.054-.08.08-.08.054 0 0-.044.054 0 0 0 .072 0 .08-.054h.063a.222.222 0 00.089-.07c0-.054.222-.197.24-.259v.071a5.19 5.19 0 01.489-.284v-.045l-.054-.044v-.071l.178-.09s.098-.062.116-.115a4.782 4.782 0 00-.32-.73h-.045v-.044h-.044c-.053 0-.045.072-.098.072h-.151c-.107.053-.498.31-.596.373-.151.107-.48.285-.622.41s-.072 0-.098 0l-.08.07a3.202 3.202 0 01-.543.294c0 .053-.097.062-.124.098-.045.044-.32.169-.374.204 0 .045-.044 0-.089 0s0 .071 0 .08a.8.8 0 01-.089.107.312.312 0 01-.106.071.533.533 0 00-.214.107h-.08s.258.631.427.711h.045a3.3 3.3 0 00.435-.213l.116-.08zM277.532 209.563zM278.154 209.563c0-.045.054 0 .054 0a2.389 2.389 0 00.355 0l.054.053h.07c.072 0 0-.044.063 0h.16s.178-.071.196-.116v.072a1.611 1.611 0 01.355 0V209.456h.392a.116.116 0 00.098-.053 7.834 7.834 0 000-.792h-.178c-.08 0-.365.062-.436.071a2.863 2.863 0 00-.454.08h-.124a1.112 1.112 0 01-.383 0h-.097a2.521 2.521 0 00-.258 0h-.054a.071.071 0 010 .063.622.622 0 01-.08.053.133.133 0 01-.08 0h-.142l-.044-.053a3.122 3.122 0 00.097.818 1.689 1.689 0 00.303 0 .257.257 0 00.089 0 .768.768 0 01.044-.08z" fill="#fbfbfb"/><g opacity=".6" fill="#fff"><path d="M265.18 174.089h.044c.044 0-.027-.01-.045 0zM265.224 174.115z"/><path d="M266.006 174.133s0 .045.054 0 .053 0 .062 0a2.516 2.516 0 00.445 0h-.045a.07.07 0 01.062.053h.09c.088 0 .053-.053.08 0s.044 0 0-.044h.124a.142.142 0 00.08-.044c0-.045.204-.116.222-.17V174c.062 0 .365-.134.418-.143V173.742l.151-.045a.102.102 0 00.098-.08 4.708 4.708 0 00-.249-.756m0-.044s0 .053-.071 0h-.107l-.453.187c-.116.053-.374.115-.498.169s0 0-.071 0h-.072a1.37 1.37 0 01-.426 0s-.08 0-.107.044h-.356c-.062 0 0 .054 0 .062a.25.25 0 01-.098.045.205.205 0 01-.097 0c-.045 0-.107-.045-.17 0v-.053a2.864 2.864 0 000 .818 1.779 1.779 0 00.383 0h.107l.444.044z"/></g><g opacity=".6" fill="#fff"><path d="M264.877 177.833h-.009.009zM265.535 177.948c0-.044.044 0 .062 0a1.78 1.78 0 00.383.062v-.044l.044.071h.214a.116.116 0 00.08 0s.204 0 .23-.071v.071a1.858 1.858 0 01.383 0v.045-.063s0-.053.045 0h.24a5.887 5.887 0 00.142-.782h-.72a3.218 3.218 0 00-.507 0h-.142a1.272 1.272 0 01-.41-.062h-.115s-.24-.045-.285 0h-.062a.053.053 0 01-.044.053h-.09a.16.16 0 01-.088 0c-.045 0-.107-.053-.16 0v-.062a2.952 2.952 0 00-.072.818 1.966 1.966 0 00.33.07h.088z"/></g><g opacity=".6" fill="#fff"><path d="M265.864 181.808h.045a.044.044 0 00-.045 0zM265.909 181.834zM266.7 181.861h.124a1.913 1.913 0 00.454 0h-.044a.07.07 0 01.062.053c.08-.044 0 0 .089 0s.053-.044.08 0h.204a1.133 1.133 0 00.24-.15v-.259a3.94 3.94 0 01.436-.115v.044V181.32l.16-.045a.102.102 0 00.098-.071 5.565 5.565 0 00-.178-.783v-.044c0-.044-.044 0 0 0-.044 0-.044.053-.08.044h-.115l-.49.152c-.124.044-.39.089-.515.142s-.054 0-.08 0h-.071a1.877 1.877 0 01-.445 0h-.498a.053.053 0 010 .062.48.48 0 01-.098.054h-.267l-.044-.054a2.668 2.668 0 000 .827h.044a2.667 2.667 0 00.383 0h.106z"/></g><g opacity=".6" fill="#fff"><path d="M265.677 188.424a.062.062 0 00-.053 0zM265.677 188.433zM266.513 188.184h.125a2.864 2.864 0 00.489-.16h.027c.08-.062 0 0 .097 0s.054-.062.08-.062.054 0 0-.045.054 0 0 0 .071 0 .08-.044h.063a.16.16 0 00.08-.054c0-.044.222-.15.249-.204v.071a3.507 3.507 0 01.48-.178v-.107l.169-.062a.118.118 0 00.115-.089 4.917 4.917 0 00-.195-.773v-.045c0-.044-.045 0-.045 0s0 .045-.044 0c-.053 0-.053.053-.107.045h-.142a3.748 3.748 0 00-.587.249 6.098 6.098 0 00-.614.266h-.089l-.07.054a2.56 2.56 0 01-.525.169c0 .044-.098.044-.134.08s-.311.098-.356.124h-.088c-.045 0 0 .062 0 .071a.944.944 0 01-.098.08s-.08.045-.107.063a.374.374 0 00-.205.053h-.062a2.454 2.454 0 00.311.765h.045a3.661 3.661 0 00.418-.116l.107-.053a1.183 1.183 0 01.533-.098z"/></g><g opacity=".6" fill="#fff"><path d="M264.868 194.72a.062.062 0 00.053 0 .062.062 0 00-.053 0zM264.921 194.747z"/><path d="M266.078 194.845c.053 0 0 .044.07 0s.09 0 .098 0a4.306 4.306 0 00.667-.053h-.017c.044 0 .062 0 .089.044.115-.053 0 0 .133 0s.089-.053.124-.044h.356c.045-.045.311-.134.356-.187v.07l.622-.177v.044l.045-.044v-.053h.044a.064.064 0 01.054-.063l.213-.07a.574.574 0 00.151-.099 3.733 3.733 0 00-.195-.782h-.045c-.044 0 0 0 0-.045s-.044 0-.044 0 0 .045-.063 0c-.053 0-.062.063-.115.054h-.16c-.125.044-.587.213-.712.24l-.764.204a.223.223 0 00-.107 0h-.098a2.383 2.383 0 01-.658.054.256.256 0 00-.169.044h-.542c-.045 0 0 .054-.063.054a.445.445 0 01-.142.044.445.445 0 01-.151 0 .712.712 0 00-.25 0l-.053-.062s-.133.676 0 .827h.063c.186 0 .364.044.56.044h.16a1.565 1.565 0 01.543-.044z"/></g><g opacity=".6" fill="#fff"><path d="M264.78 200.874h.052a.044.044 0 00-.053 0zM264.832 200.91z"/><path d="M265.793 201.07h.196l.55.098-.044-.054c-.044-.053 0 0 .045 0s.053 0 .062.072h.276c-.009 0 0 0 0 .044h.089a.055.055 0 01.053.044h.4v.072a3.451 3.451 0 01.543.124v.045h.053v-.072h.045s0-.044.07 0a1.15 1.15 0 00.188.063h.16l.329-.73c-.054 0 0 0 0-.044s-.054 0-.072 0h-.275c-.116 0-.596-.133-.72-.151a7.196 7.196 0 00-.765-.116h-.205a4.787 4.787 0 01-.622-.107h-.178c-.054 0-.374-.053-.436-.044h-.089c-.036 0-.053.053-.071.053h-.276a.657.657 0 00-.24 0l-.053-.053a2.259 2.259 0 000 .818h.044a3.87 3.87 0 00.463.054h.133a.791.791 0 01.347-.116z"/></g><g opacity=".6" fill="#fff"><path d="M266.7 204.992h.044a.044.044 0 00-.044 0zM266.744 205.018z"/><path d="M267.616 204.983h.124a4.855 4.855 0 00.498 0h-.053a.07.07 0 01.062.053c.09-.044 0 0 .098 0s.062-.053.09-.044h.088m.053 0a.187.187 0 00.098 0 .734.734 0 00.285-.125v.08a4.907 4.907 0 01.489-.062v.044-.053a.052.052 0 01.053-.053 1.078 1.078 0 00.17 0s.097 0 .133-.054a6.008 6.008 0 000-.8m-.045 0h-.338c-.106 0-.507.08-.613.098a5.717 5.717 0 00-.64.115h-.17a2.738 2.738 0 01-.533 0 .182.182 0 00-.143.045h-.444c-.036 0 0 .053-.045.062a.719.719 0 01-.115.053.187.187 0 01-.116 0 .41.41 0 00-.204 0l-.054-.053a2.588 2.588 0 00.116.818 3.282 3.282 0 00.418 0 .446.446 0 00.115 0 .614.614 0 01.623-.124z"/></g><g opacity=".6" fill="#fff"><path d="M264.272 214.818a.098.098 0 00.09 0 .142.142 0 00-.09 0zM264.361 214.827zM265.82 214.605h.089c.088 0 .106 0 .124-.053h.045a4.433 4.433 0 00.818-.214c.115-.053-.054 0-.08 0h.178c.142-.08 0 0 .16-.062s.097-.08.142-.08h.062c.018 0 .08 0 .054-.044s.07 0 .044 0h.044c.063 0 .107 0 .143-.054h.098l.142-.071c.053-.053.382-.205.427-.267h.044v.08c0-.009.667-.293.774-.329v-.044l-.045-.045h.054a.086.086 0 01.062-.08l.276-.115h.044a.673.673 0 00.187-.134 2.94 2.94 0 00-.24-.764h-.071c-.054 0 0 0 .053-.054s-.062 0-.071 0 0 .054-.071.054-.08.08-.151.088h-.214c-.151.063-.747.356-.89.418l-.977.392a.4.4 0 00-.143 0l-.133.062a4.056 4.056 0 01-.845.213c-.062.054-.151.054-.222.09a5.35 5.35 0 00-.587.124h-.134c-.062 0-.044.062-.07.071a1.148 1.148 0 01-.179.08.81.81 0 01-.186.044 1.121 1.121 0 00-.33.045l-.088-.045s0 .685.16.81h.044a.107.107 0 01.071 0h.054a4.882 4.882 0 00.711-.098l.196-.062a2.445 2.445 0 01.427.044z"/></g><path d="M252.044 212.142l.072.044a.08.08 0 00-.072-.044zM252.116 212.186z" fill="#fbfbfb"/><path d="M253.458 212.63c.063 0 0 .045.072.054a.641.641 0 00.133 0h.098a7.955 7.955 0 00.782.24.064.064 0 01-.062-.053c-.009-.053.053 0 .071 0s.062 0 .08.089h.445c-.009 0 .062 0 0 .044.062 0 .089.054.133 0s.071 0 .071.045a.488.488 0 00.152 0c.07 0 .418.053.489 0h.053s-.044.07-.053.062.693.169.782.213 0 .045 0 .045h.071v-.062h.152a1.208 1.208 0 01.275.089h-.009a.325.325 0 00.223 0 3.821 3.821 0 00.338-.73h.044a.053.053 0 00-.062 0h-.045c-.017 0 0 0 0-.044s-.062 0-.089 0h-.426l-.979-.24c-.258-.063-.764-.205-1.031-.25a.454.454 0 00-.134-.062h-.142a7.248 7.248 0 01-.845-.257 1.777 1.777 0 01-.231 0c-.08 0-.49-.152-.578-.17-.08 0-.062 0-.116-.062s-.07.045-.097 0a.764.764 0 01-.196 0 .578.578 0 01-.187 0 1.04 1.04 0 00-.32-.106l-.062-.072s-.303.623-.187.8h.08c.027 0 0 0 0 .045.213.08.427.16.65.223h.195a1.779 1.779 0 01.462.16zM252.8 209.216a.062.062 0 00.054 0zM252.854 209.243z" fill="#fbfbfb"/><path d="M253.77 209.367h.142s.453.062.534.053 0 0 0-.044.044 0 .062.062h.409a.178.178 0 00.098 0 1.058 1.058 0 00.32-.08v.08a3.461 3.461 0 01.533 0v.045c0 .044 0 0 .045 0v-.063s0-.053.062 0h.33a4.075 4.075 0 00.132-.791c-.008 0 0 0 0-.045s0 0-.062 0h-1.805a2.427 2.427 0 01-.57-.053h-.64c-.08 0-.044.053-.062.053a.418.418 0 01-.124 0 .302.302 0 01-.125 0 .436.436 0 00-.222 0v-.053a2.41 2.41 0 000 .827 3.559 3.559 0 00.445.062h.124a.676.676 0 01.374-.053zM252.56 204.316a.062.062 0 00-.053 0zM252.56 204.325z" fill="#fbfbfb"/><path d="M253.458 204.111h.134a3.665 3.665 0 00.516-.133h.017c.08-.053 0 0 .098 0s.053-.062.09-.053h.088m.062 0a.142.142 0 00.09 0c0-.045.24-.134.266-.187v.071a3.557 3.557 0 01.498-.16v.044-.053s0-.053.044-.062l.178-.045s.098 0 .125-.07a4.62 4.62 0 00-.16-.792h-.098c-.053 0-.062.053-.107.044h-.15a4.25 4.25 0 00-.615.222c-.16.063-.489.16-.649.24a.151.151 0 00-.089 0l-.08.054a2.473 2.473 0 01-.542.151c0 .045-.098 0-.142.071a1.966 1.966 0 00-.374.107h-.089c-.035 0 0 .062 0 .071a.428.428 0 01-.107.071s-.089 0-.106.054a.383.383 0 00-.214.053h-.062a2.312 2.312 0 00.267.783h.044a3.459 3.459 0 00.436-.107l.116-.054s.507-.32.515-.32zM253.067 199.336h.062a.053.053 0 00-.062 0zM253.129 199.327h-.009.009zM254.063 198.856h.071c.071 0 .071 0 .071-.063s.454-.169.534-.213 0 0-.062 0h.089c.089-.071 0 0 .106-.053s.063-.063.09-.063h.044c.044 0 .053 0 0-.044s.053 0 0 0h.15l.099-.054c0-.044.267-.142.302-.186v.08a3.042 3.042 0 01.56-.143v-.062a.052.052 0 01.054-.053h.204s.116 0 .151-.054v-.8h-.177c-.063 0-.08.045-.134 0h-.187a7.619 7.619 0 00-.773.205 5.17 5.17 0 00-.783.284h-.115l-.098.063a4.822 4.822 0 01-.64.257c-.045.054-.116.072-.16.116-.054.044-.365.178-.427.222-.045.054-.054 0-.107 0s0 .071 0 .08l-.107.116a.338.338 0 01-.115.089.774.774 0 00-.232.133h-.089s.32.605.498.658h.045a4.085 4.085 0 00.436-.23l.115-.09a1.334 1.334 0 01.587-.195zM250.32 192.942h.07a.08.08 0 00-.07 0zM250.39 192.977z" fill="#fbfbfb"/><path d="M251.644 193.137h.276a4.991 4.991 0 00.73 0h-.01a.09.09 0 01.09.054h.15c.152 0 .09-.054.134 0h.444a1.56 1.56 0 00.41-.16h.044v.08l.702-.152v.045h.054v-.053h.044a.055.055 0 01.063-.054l.249-.062s.133 0 .177-.08a3.342 3.342 0 00-.115-.8h-.062s0 .044-.063 0c-.07 0-.08.053-.142.044h-.196c-.133 0-.667.178-.8.196l-.89.16a.525.525 0 00-.115 0h-.116a3.336 3.336 0 01-.729 0h-.8c-.045 0-.053.053-.071.053h-.16a.48.48 0 01-.16 0 .89.89 0 00-.276-.231l-.053-.062s-.196.658-.08.818h.062c.018 0 0 0 0 .044a4.632 4.632 0 00.613.09h.17a1.92 1.92 0 01.426.07zM253.12 187.633a.089.089 0 00.063 0 .053.053 0 00-.063 0zM253.183 187.65z" fill="#fbfbfb"/><path d="M254.232 187.544h.151a4.856 4.856 0 00.605-.071h-.018c.045 0 .054 0 .08.053h.125c.124 0 .07-.053.106 0h.223a.231.231 0 00.106-.045c.045-.044.294-.106.338-.16v.072a5.542 5.542 0 01.596-.098c.08 0 0 .044 0 .044h.045v-.062a.052.052 0 01.053-.053h.213s.116 0 .16-.063a4.81 4.81 0 000-.8h-.044c-.044 0 0 0 .053-.045s-.053 0-.053 0h-.356l-.729.152c-.187.044-.578.106-.765.16h-.213a4.062 4.062 0 01-.64.08c-.054.044-.125 0-.17.053-.053 0-.373 0-.435.071h-.098c-.044 0 0 .062-.053.071l-.134.063h-.142a.614.614 0 00-.249 0l-.062-.045s0 .685.15.81h.045a4.902 4.902 0 00.507-.054h.143a2.018 2.018 0 01.462-.133zM252.382 183.07a.071.071 0 00.063 0 .053.053 0 00-.063 0zM252.445 183.062z" fill="#fbfbfb"/><path d="M253.236 182.626h.062c.063 0 .054 0 .054-.062a4.659 4.659 0 00.453-.267h.027c.062-.071 0 0 .08-.062s.044-.072.071-.08h.089s.062 0 .062-.054h.062a.142.142 0 00.072-.07c0-.054.195-.197.204-.25v.036a4.045 4.045 0 01.436-.285h-.045v-.062l.16-.098a.394.394 0 00.098-.107 4.893 4.893 0 00-.364-.711h-.045c-.044 0 0 .044 0 .044-.053 0-.044.063-.098.071h-.133c-.089.054-.436.312-.525.374-.133.107-.418.285-.551.41h-.089l-.062.07a2.437 2.437 0 01-.48.285c0 .053-.09.07-.116.106s-.285.17-.329.205c0 .044-.044 0-.08 0a.071.071 0 010 .08l-.08.098s-.08.062-.098.08-.142.044-.187.107h-.07s.302.613.462.684a2.402 2.402 0 00.391-.213l.098-.08a1.414 1.414 0 01.471-.25zM252.391 177.717a.071.071 0 00.063 0 .053.053 0 00-.063 0zM252.453 177.708zM253.414 177.157h.071c.071 0 .071 0 .071-.071s.472-.267.552-.33-.045 0-.072 0h.098c.08-.088 0 0 .107-.08s.053-.08.089-.088.053 0 0-.054.062 0 0 0 .08 0 .089-.07h.07a.196.196 0 00.09-.08c0-.054.24-.232.258-.285v.026a6.3 6.3 0 01.533-.347l-.053-.044v-.071l.196-.116s.106-.07.124-.124a4.854 4.854 0 00-.347-.72h-.053v-.054c0-.053-.053 0-.053 0s0 .053-.045.053c-.062 0-.062.072-.115.08a.111.111 0 00-.08.045h-.09a10.64 10.64 0 00-.649.453c-.16.116-.506.347-.667.48s-.08 0-.106.045l-.08.08a3.13 3.13 0 01-.587.356c0 .062-.107.08-.143.124 0 .045-.337.205-.39.25-.045.053-.054 0-.099 0s0 .07 0 .08a.899.899 0 01-.106.115s-.09.071-.116.089a.774.774 0 00-.231.133h-.08s.284.623.471.676v-.044h.045a4.923 4.923 0 00.47-.267l.125-.098zM254.25 173.004zM254.677 172.72v-.054a1.397 1.397 0 00.231-.17h.018c0-.061 0 0 .044-.044s0-.062 0-.062.045 0 0-.044h.045a.116.116 0 000-.054.566.566 0 00.062-.187s.044.063 0 .063a2.224 2.224 0 01.213-.196h-.044v-.053l.08-.063s.044 0 0-.08-.445-.595-.48-.63v.044h-.045s-.204.213-.249.257a2.59 2.59 0 00-.267.276h-.053v.053a.738.738 0 01-.249.187.089.089 0 01-.044.071.903.903 0 00-.17.134h-.053a.062.062 0 010 .062v.133c0 .054-.08 0-.097.072h-.054a4.172 4.172 0 00.543.613 1.013 1.013 0 00.204-.133l.045-.054s.31-.142.32-.142zM268.238 165.436a.071.071 0 00.063 0 .053.053 0 00-.063 0zM268.301 165.427zM269.181 164.876h.071c.071 0 .071 0 .071-.08s.436-.267.507-.33 0 0-.062 0h.089c.071-.088 0 0 .098-.08s.044-.08.08-.088.044 0 0-.054.053 0 0 0a.08.08 0 00.08-.07h.07a.365.365 0 00.08-.09c0-.053.223-.222.241-.284v.07a4.554 4.554 0 01.498-.346v-.053h-.044v-.072a2.129 2.129 0 00.186-.115s.098-.071.116-.125a4.953 4.953 0 00-.374-.711h-.089c-.044 0 0 0 0-.053s-.044 0-.044 0a.052.052 0 01-.053.053c-.054 0-.045.071-.098.08a.111.111 0 00-.08.044h-.09c-.106.063-.497.374-.604.454-.16.115-.489.347-.64.48a.137.137 0 00-.098.045l-.071.08a3.637 3.637 0 01-.551.355c0 .063-.098.08-.134.125 0 .044-.32.204-.373.249 0 .053-.045 0-.09 0s0 .07 0 .08a.507.507 0 01-.088.115.374.374 0 01-.116.098.534.534 0 00-.213.125h-.08s.302.613.48.667v-.045c0-.044 0 0 .053 0a2.723 2.723 0 00.436-.267l.107-.097zM267.625 162.75zM267.998 162.519h.045a.836.836 0 00.204-.142h.018v-.054s.062-.124 0-.169.045.063 0 .063a1.05 1.05 0 01.187-.16h-.045v-.054a.213.213 0 00.072-.053v-.071a5.725 5.725 0 00-.48-.64m0-.045v.044c-.045 0-.178.187-.214.223a1.921 1.921 0 00-.222.24h-.045v.044a.64.64 0 01-.213.16v.063a1.164 1.164 0 00-.143.115h-.044a.125.125 0 010 .062v.063s-.08 0-.089.053h-.053a5.166 5.166 0 00.533.631 1.272 1.272 0 00.187-.106v-.054s.293-.213.302-.213z" fill="#fbfbfb"/><g opacity=".6" fill="#fff"><path d="M253.174 165.009a.044.044 0 000 .044zM253.138 165.053z"/><path d="M253.503 165.676v.053c0 .054 0 .045.062 0a1.459 1.459 0 00.258.32v-.053.08c.071 0 0 0 .062.053s.063 0 .071 0h.045a.043.043 0 00.053.045v.053h.071c.054 0 .196.098.25.09l-.054.044s.276.204.311.249h.045v-.054h.062c.018 0 .071.054.107.09s.062.044.106 0l.49-.632h-.045c0-.045-.062 0-.071 0v-.045l-.356-.249c-.089-.062-.258-.222-.356-.284s0 0 0-.054h-.062a1.085 1.085 0 01-.24-.293c-.044 0-.044-.053-.08-.062a1.654 1.654 0 00-.151-.214v-.062c0-.062-.062 0-.071 0a.276.276 0 01-.09-.044.452.452 0 01-.052-.063c-.01-.018 0-.098-.072-.133v-.053a3.237 3.237 0 00-.693.444v.045a2.577 2.577 0 00.169.302l.07.071z"/></g><g opacity=".6" fill="#fff"><path d="M255.273 163.088a.044.044 0 000 .045s.008-.036 0-.045zM255.264 163.133v.008-.008zM255.61 163.87v.054c0 .053 0 .053.063 0a2.322 2.322 0 00.275.382v-.062.09c.072.044 0 0 .063.061s.08 0 .089.045h.044c.045 0 0 .044 0 0s0 .053.071.044v.054h.071c.054 0 .223.106.276.097s-.062.054-.062 0 .32.232.364.276h.045v-.053h.062c.062 0 .089.053.133.089h.116a4.77 4.77 0 00.462-.658h.045v-.045h-.08v-.044c-.062-.045-.33-.205-.391-.258l-.392-.311v-.063c0-.053 0 0-.062 0a1.236 1.236 0 01-.24-.338c-.053 0-.053-.062-.089-.07a2.694 2.694 0 00-.16-.25v-.062a.062.062 0 01-.071 0 .086.086 0 01-.08-.062.722.722 0 01-.053-.071c-.01-.018 0-.116-.063-.152v-.053a2.721 2.721 0 00-.738.374 1.28 1.28 0 00.16.355l.071.09z"/></g><g opacity=".6" fill="#fff"><path d="M241.31 174.178a.044.044 0 000 .044s.018-.044 0-.044zM241.337 174.222zM242.03 174.702v.054c0 .053.054 0 .08 0a3.131 3.131 0 00.401.266v-.053.089h.231c.01 0 0 .044 0 .044h.071v.045a.169.169 0 00.09 0c.053 0 .24.08.293.062l-.054.054a3.234 3.234 0 01.418.249h.045v-.063h.062a.78.78 0 01.151.09s.09.044.134 0l.471-.65h.009c-.044 0 0 0 0-.044s-.044 0-.053 0c0-.045-.071 0-.098-.045h-.054l-.044-.053c-.08-.054-.436-.231-.525-.276a5.507 5.507 0 00-.56-.284s-.044 0-.062-.063h-.09a2.045 2.045 0 01-.435-.284.155.155 0 01-.133-.045c-.045 0-.25-.169-.303-.187-.053 0 0 0-.053-.053a.071.071 0 01-.08 0 .702.702 0 01-.116 0 .204.204 0 01-.106-.053.451.451 0 00-.16-.116v-.071a2.668 2.668 0 00-.41.711h.045a2.073 2.073 0 00.33.24h.106s.4.427.4.436z"/></g><g opacity=".6" fill="#fff"><path d="M243.347 171.874v-.009.009zM243.96 172.061h.063a1.6 1.6 0 00.356.089v-.044.062h.258s.195 0 .23-.054v.063a2.098 2.098 0 01.357.07v.045-.062s0-.044.044 0h.231a5.352 5.352 0 00.222-.774v-.044h-.168a3.817 3.817 0 00-.445-.062 4.173 4.173 0 00-.48-.054h-.116a1.414 1.414 0 01-.391-.106h-.107a2.346 2.346 0 01-.267-.063h-.053a.044.044 0 01-.045 0h-.169c-.008 0-.088-.062-.15-.053v-.062a3.05 3.05 0 00-.152.809 1.716 1.716 0 00.302.098.293.293 0 00.09 0s.39.133.39.142z"/></g><g opacity=".6" fill="#fff"><path d="M243.8 168.264a.062.062 0 00.054 0 .102.102 0 00-.053 0zM243.854 168.282z"/><path d="M244.628 168.113h.115a2.667 2.667 0 00.436-.116h.027c.07-.053 0 0 .08 0s.053-.053.08-.053h.124a.142.142 0 00.08 0c0-.045.214-.125.231-.178v.07a4.075 4.075 0 01.436-.132v-.107l.151-.045a.118.118 0 00.107-.07 4.522 4.522 0 00-.16-.783c-.044 0-.044.053-.089 0h-.133a3.794 3.794 0 00-.534.186c-.133.054-.418.134-.551.205a.116.116 0 00-.08 0l-.071.044a1.778 1.778 0 01-.472.125c0 .044-.089 0-.115.062a3.01 3.01 0 00-.33.098h-.07a.053.053 0 010 .062 1.024 1.024 0 01-.09.071.133.133 0 01-.097.045.292.292 0 00-.187.044l-.053-.044a2.722 2.722 0 00.258.782s.258-.044.382-.08h.098s.427-.195.427-.186z"/></g><g opacity=".6" fill="#fff"><path d="M242.822 182.59a.053.053 0 00.045 0zM242.867 182.608z"/><path d="M243.64 182.528h.116a2.526 2.526 0 00.445-.053h-.045a.086.086 0 01.071.053c.072-.044 0 0 .09 0s.053-.053.08-.044.044 0 0-.045h.204a1.016 1.016 0 00.231-.142v.08a2.259 2.259 0 01.427-.08V182.18h.16a.122.122 0 00.107-.062 5.82 5.82 0 00-.071-.791v-.045c0-.044-.045 0-.045 0h-.044c-.045 0-.054.045-.09 0h-.124a3.858 3.858 0 00-.533.125 5.74 5.74 0 00-.56.142.133.133 0 00-.08 0h-.072a2.214 2.214 0 01-.471.062.187.187 0 00-.124.045s-.276 0-.32.053h-.072a.053.053 0 010 .062.425.425 0 01-.098.054h-.337a2.838 2.838 0 00.16.809 2.667 2.667 0 00.373 0h.107s.507-.107.516-.107z"/></g><g opacity=".6" fill="#fff"><path d="M244.557 185.632zM244.948 185.525a.889.889 0 00.213-.08l.045.044v-.044a.459.459 0 00.08-.151v.071a.889.889 0 01.204-.098v-.044h.08v-.063c0-.062-.275-.693-.293-.738a1.778 1.778 0 00-.25.143 2.384 2.384 0 00-.248.16h-.054a.516.516 0 01-.23.08l-.045.053s-.143 0-.16.062h-.045a.053.053 0 010 .063v.062h-.142a5.557 5.557 0 00.347.747 1.252 1.252 0 00.195-.054h.045s.258-.222.258-.213z"/></g><g opacity=".6" fill="#fff"><path d="M244.236 191.768zM244.743 191.99c0-.044 0 0 .054 0a1.067 1.067 0 00.293.116v-.045.063h.133v.044h.32v.062a2.996 2.996 0 01.303.09v.044-.063s0-.053.053 0l.098.045h.098a4.863 4.863 0 00.276-.747h-.116a2.966 2.966 0 01-.382-.089 2.01 2.01 0 00-.4-.089h-.116a1.245 1.245 0 01-.32-.116h-.098a1.217 1.217 0 00-.222-.08h-.045a.053.053 0 010 .045h-.151c-.018 0-.071-.062-.125-.053v-.063a3.833 3.833 0 00-.222.792 1.476 1.476 0 00.24.115h.071s.258-.08.258-.07z"/></g><g opacity=".6" fill="#fff"><path d="M244.69 198.678zM245.277 198.509h.044c.045 0 0 0 0-.045a2.035 2.035 0 00.33-.106l.062.044c.044-.053 0 0 .062 0s0-.053.044-.044h.098l.053-.045c0-.044.143-.124.152-.169v.08a2.063 2.063 0 01.32-.142v.044-.106h.115a.074.074 0 00.072-.071 6.28 6.28 0 00-.25-.756v-.045s0 .054-.062 0h-.106l-.392.196a4.375 4.375 0 00-.4.213h-.062c-.054 0 0 0-.054.045a1.307 1.307 0 01-.355.124.086.086 0 00-.08.062 1.907 1.907 0 01-.24.09h-.063a.062.062 0 010 .07l-.053.072a.08.08 0 00-.071.044c-.018.045-.098 0-.133 0h-.054a3.602 3.602 0 00.32.756 1.495 1.495 0 00.285-.08l.071-.044s.338-.196.347-.187z"/></g><g opacity=".6" fill="#fff"><path d="M245.499 202.511zM246.122 202.466h.089a1.546 1.546 0 00.346-.098h.018c.054-.053 0 0 .071 0s0-.062.045-.053h.098a.089.089 0 00.053 0c0-.044.133-.133.133-.187v.071a2.445 2.445 0 01.294-.186h-.045v-.063l.098-.07a.055.055 0 000-.09c-.053-.044-.436-.604-.471-.64h-.045c-.044 0-.204.178-.257.205-.072.053-.232.133-.303.195s0 0-.044 0v.045a.623.623 0 01-.285.08.08.08 0 00-.071.044s-.169 0-.196.045h-.053c-.053 0 0 .062 0 .062l-.053.053h-.178v-.053a3.46 3.46 0 00.089.818.89.89 0 00.302 0h.08z"/></g><g opacity=".6" fill="#fff"><path d="M244.592 208.833zM245.099 209.074v.044c0 .044.044 0 .062 0a1.831 1.831 0 00.294.151v-.044.07h.133v.045h.053a.053.053 0 00.063 0h.213v.063a1.78 1.78 0 01.303.124v.045-.063h.044l.107.054h.089a5.899 5.899 0 00.364-.712v-.044c0-.045 0 0-.044 0h-.071l-.383-.134a3.14 3.14 0 00-.409-.133h-.107a.836.836 0 01-.32-.16h-.097a1.085 1.085 0 00-.223-.098l-.044-.044a.062.062 0 01-.054.044h-.089a.116.116 0 01-.08 0s-.062-.071-.115-.071v-.062a3.708 3.708 0 00-.311.765 1.317 1.317 0 00.24.142h.08l.302.018z"/></g><g opacity=".6" fill="#fff"><path d="M246.077 214.187zM246.682 214.151h.089a1.528 1.528 0 00.347 0v.054h.249s.16-.09.178-.134v.072a2.062 2.062 0 01.338-.063v-.062h.124a.105.105 0 00.089-.053 5.82 5.82 0 00-.08-.792h-.178a3.555 3.555 0 00-.418.098 1.583 1.583 0 00-.436.116.08.08 0 00-.062 0h-.053a1.076 1.076 0 01-.374.044.112.112 0 00-.089.045h-.32a.062.062 0 010 .07.25.25 0 01-.071.054h-.222v-.053a3.558 3.558 0 00.15.809 1.621 1.621 0 00.294 0h.08s.356-.213.365-.205z"/></g><g opacity=".6" fill="#fff"><path d="M246.77 220.332a.053.053 0 00.045 0 .053.053 0 00-.044 0zM246.815 220.35z"/><path d="M247.358 220.27c0-.045.044 0 .044 0a2.027 2.027 0 00.32 0l.045.053h.062c.062 0 0-.044.053 0h.054a.071.071 0 00.062 0 .664.664 0 00.187-.115v.07a2.035 2.035 0 01.329 0v.045-.107h.204l.125-.782h-.187a3.92 3.92 0 00-.462 0 2.24 2.24 0 00-.48.071h-.125a1.52 1.52 0 01-.4 0c0 .044-.071 0-.098.053s-.231 0-.267.054h-.062a.08.08 0 010 .07l-.071.063h-.231l-.054-.044a3.486 3.486 0 00.267.773 1.212 1.212 0 00.267 0h.07z"/></g><g opacity=".6" fill="#fff"><path d="M286.47 164.902a.053.053 0 00.061 0 .14.14 0 00-.062 0zM286.531 164.911zM287.5 164.609h.072c.07 0 .07 0 .08-.045a4.351 4.351 0 00.551-.169h.071c.09-.062 0 0 .116-.053s.053-.062.089-.062h.044s.071 0 .09-.045h.061a.187.187 0 00.09-.053 1.462 1.462 0 00.284-.205v.08a4.047 4.047 0 01.542-.195v-.054s0-.053.045-.062a1.66 1.66 0 00.196-.062.142.142 0 00.133-.09 4.04 4.04 0 00-.178-.782v-.044c0-.045-.044 0-.044 0s0 .044-.054 0c-.053 0-.062.062-.115.053h-.16a4.173 4.173 0 00-.667.267c-.17.071-.525.196-.694.285a.223.223 0 00-.107 0l-.089.062a3.835 3.835 0 01-.596.187.185.185 0 00-.15.08 1.972 1.972 0 00-.4.142h-.099c-.044 0 0 .071 0 .08l-.115.089a.374.374 0 01-.125.053.818.818 0 00-.231.062h-.071s.142.676.293.774h.09a4.1 4.1 0 00.47-.133l.125-.063a1.94 1.94 0 01.454-.097z"/></g><g opacity=".6" fill="#fff"><path d="M288.96 166.814a.062.062 0 00.052 0 .102.102 0 00-.053 0zM289.012 166.832zM289.946 166.734h.134a3.654 3.654 0 00.533-.071h-.009c.045 0 .045 0 .071.045.09-.045 0 0 .107 0s.062-.054.098-.045h.044c.045 0 .054 0 0-.044s.054 0 0 0h.25a1.545 1.545 0 00.293-.152v.08a3.627 3.627 0 01.525-.097v-.054h.044s0-.062.044-.053h.196s.098 0 .134-.062a4.61 4.61 0 00-.054-.792h-.044c-.045 0 0 0 .044-.044s-.044 0-.044 0h-.32l-.578.053c-.17.045-.516.098-.685.16h-.187a3.248 3.248 0 01-.57.08.179.179 0 00-.15.053c-.045 0-.338 0-.392.063h-.089a.062.062 0 01-.044.07.612.612 0 01-.116.063.24.24 0 01-.124 0h-.222l-.063-.044a2.294 2.294 0 00.16.809h.045a3.734 3.734 0 00.453-.045h.125a.631.631 0 01.391.027z"/></g><g opacity=".6" fill="#fff"><path d="M291.752 171.616zM291.796 171.634v-.009.009zM292.454 171.42h.107a2.668 2.668 0 00.382-.097h-.044l.062.044h.071c.071 0 .045-.053.062-.053v-.044h.178c0-.045.178-.107.205-.152v.072a2.926 2.926 0 01.382-.08m0 .044V171.038a.676.676 0 00.134 0s.08 0 .097-.053 0-.747 0-.8h-.089c-.044 0-.062.044-.097 0h.106a5.193 5.193 0 00-.533.133 3.068 3.068 0 00-.552.178.107.107 0 00-.07 0h-.063a2.312 2.312 0 01-.454.124.136.136 0 00-.115.072 2.55 2.55 0 00-.303.106h-.07a.071.071 0 010 .08l-.08.08s-.063.045-.08.063a.311.311 0 00-.17.053h-.062a3.006 3.006 0 00.374.738 2.668 2.668 0 00.32-.107l.08-.053s.213-.231.222-.231z"/></g><g opacity=".6" fill="#fff"><path d="M292.223 175.725a.053.053 0 00.062 0 .071.071 0 00-.062 0zM292.285 175.734z"/><path d="M293.254 175.556h.143a4.058 4.058 0 00.551-.116h.062c.09-.053 0 0 .107 0s.062-.062.098-.053h.195l.098-.053c0-.045.267-.134.303-.178v.08a4.448 4.448 0 01.542-.142v.044-.053h.045v-.054l.204-.044a.153.153 0 00.133-.08 3.776 3.776 0 00-.106-.792h-.045s0 .045-.053 0c-.053 0-.071.054-.116.045h-.169l-.667.204a7.112 7.112 0 00-.702.223h-.098l-.089.053a2.847 2.847 0 01-.596.125.154.154 0 00-.151.07l-.41.09h-.097c-.044 0 0 .07-.044.07a.703.703 0 01-.116.072.535.535 0 01-.124 0 .436.436 0 00-.232 0h-.07s.08.685.222.8h.088a2.898 2.898 0 00.472-.08h.133s.48-.231.49-.231z"/></g><g opacity=".6" fill="#fff"><path d="M293.139 179.202h.062c.062 0-.009-.009-.062 0zM293.201 179.22v-.009.009z"/><path d="M294.26 179.078h.16s.515-.063.613-.09-.044 0-.062 0a.123.123 0 01.089.045c.097-.053 0 0 .115 0s.08-.053.116 0h.044c.045 0 .063 0 .045-.044s.053 0 0 0h.178a.222.222 0 00.106 0 .93.93 0 00.338-.17v.08a4.73 4.73 0 01.596-.124h.045v-.062a.052.052 0 01.053-.053h.213s.125 0 .16-.072a2.402 2.402 0 00-.053-.8h-.373a7.352 7.352 0 00-.739.17 3.225 3.225 0 00-.782.186h-.107l-.098.044a4.446 4.446 0 01-.658.107.205.205 0 00-.169.053 4.277 4.277 0 00-.444.08h-.107c-.053 0 0 .063-.053.072a.632.632 0 01-.134.062.472.472 0 01-.133 0 .658.658 0 00-.258 0h-.062s0 .685.178.8h.213a1.492 1.492 0 00.516-.062l.15-.045a1.833 1.833 0 01.303-.177z"/></g><g opacity=".6" fill="#fff"><path d="M294.081 183.889h.054a.053.053 0 00-.054 0zM294.09 183.915z"/><path d="M295.015 183.87h.667c.045 0 .045 0 .071.054h.107c.107 0 .071-.053.098-.044h.133m.054 0h.097a1.37 1.37 0 00.303-.134v.072a5.274 5.274 0 01.524-.063v-.062s0-.053.045 0h.196s.106 0 .142-.053a6.008 6.008 0 000-.8h-.32l-.658.097a6.12 6.12 0 00-.685.116h-.187a3.155 3.155 0 01-.578 0c-.044.044-.098 0-.151.044h-.48c-.045 0 0 .063-.054.063a.472.472 0 01-.115.053.791.791 0 01-.125 0 .382.382 0 00-.222 0l-.053-.053a2.303 2.303 0 00.115.809 2.577 2.577 0 00.454 0h.124l.498-.098z"/></g><g opacity=".6" fill="#fff"><path d="M294.766 187.295zM295.718 187.615h.142s.436.204.525.231 0 0 0-.062 0 0 .053 0 .045 0 0 .089c.107 0 0 0 .107.044s.089 0 .107 0h.053v.045a.065.065 0 00.098 0s.044 0 0 .053a.17.17 0 00.106 0c.054 0 .285.089.347.08h.045l-.054.053a3.558 3.558 0 01.498.303h.054v-.062h.07l.17.124a.355.355 0 00.151.062l.551-.578h.071c.072 0 0-.044-.053 0s0 0 0-.044a.071.071 0 01-.071 0c0-.054-.089 0-.125-.08a.07.07 0 01-.062-.054.265.265 0 01-.062-.07 8.758 8.758 0 00-.694-.392 7.114 7.114 0 00-.747-.347l-.097-.062h-.116a5.46 5.46 0 01-.623-.267h-.177c-.054 0-.374-.133-.445-.142-.062 0 0 0-.09-.054s-.052 0-.08 0h-.141a.338.338 0 01-.143 0 .543.543 0 00-.249-.07l-.053-.072s-.222.64-.142.81h.053c.053 0 0 0 0 .044l.471.151h.134a.89.89 0 01.418.267z"/></g><g opacity=".6" fill="#fff"><path d="M295.13 191.056a.044.044 0 00.045 0zM295.175 191.092z"/><path d="M296.02 191.288c.045 0 0 .044.053 0s.063 0 .08 0a2.17 2.17 0 00.49.097l-.045-.044c-.044-.044 0 0 .045 0s0 0 .053.071h.24c-.009 0 0 0 0 .045h.08a.178.178 0 00.098 0s.258 0 .302-.054v.071a4.039 4.039 0 01.49.072v.044-.062s0-.045.062 0h.32a4.465 4.465 0 00.195-.774h.01c-.045 0 0 0 0-.044s-.045 0-.054 0h-.25l-.622-.063c-.16 0-.48-.062-.649-.053h-.169a2.027 2.027 0 01-.525-.098h-.15c-.045 0-.312-.062-.365-.062h-.071c-.072 0-.045.053-.063.053a.435.435 0 01-.124 0h-.116a.498.498 0 00-.204-.053v-.062a2.455 2.455 0 00-.107.818h.044c.045 0 0 0 0 .044a3.769 3.769 0 00.41.09h.115z"/></g><g opacity=".6" fill="#fff"><path d="M297.15 198.5h.053c.053 0-.036-.009-.053 0zM297.203 198.509zM297.888 198.197h.062c.062 0 .044 0 .044-.053a2.25 2.25 0 00.392-.187h.026c.054-.062 0 0 .071-.044s0-.071.063-.071v-.045c0-.044.044 0 0 0h.053a.142.142 0 00.062-.062c0-.044.16-.16.17-.213v.07a3.724 3.724 0 01.373-.213v-.097l.133-.072s.071-.044.08-.089a6.495 6.495 0 00-.32-.729v-.044c0-.045-.044 0 0 0-.044 0 0 .053-.08.053h-.116l-.453.294c-.116.08-.365.213-.48.302h-.071l-.054.053a1.654 1.654 0 01-.418.205c0 .053-.08.053-.098.089a2.324 2.324 0 00-.284.151h-.071a.053.053 0 010 .071.43.43 0 01-.071.09s-.072.052-.09.061-.124 0-.16.071h-.062a2.801 2.801 0 00.41.712 1.636 1.636 0 00.337-.151l.09-.063a1.005 1.005 0 01.462-.089z"/></g><g opacity=".6" fill="#fff"><path d="M298.172 203.24a.08.08 0 00.063 0 .053.053 0 00-.063 0zM298.234 203.249zM299.142 202.982h.062c.062 0 .07 0 .08-.053a3.995 3.995 0 00.524-.17h.027c.08-.062 0 0 .098-.044s.062-.071.089-.062.053 0 0-.054.044 0 0 0 .071 0 .089-.044h.062a.213.213 0 00.089-.053c0-.045.24-.152.267-.205v.071a3.921 3.921 0 01.507-.186V202.066a1.525 1.525 0 00.186-.062.133.133 0 00.125-.09 3.936 3.936 0 00-.196-.773m-.044 0s0 .044-.053 0c-.054 0-.063.053-.107.044h-.151a3.75 3.75 0 00-.623.267c-.16.071-.489.196-.65.285a.178.178 0 00-.097 0l-.08.062a2.72 2.72 0 01-.56.178c0 .053-.107.044-.142.08a2.372 2.372 0 00-.374.133h-.089c-.035 0 0 .071 0 .08a.794.794 0 01-.107.08s-.089.045-.115.063a.418.418 0 00-.214.062h-.07a2.392 2.392 0 00.302.765h.044a3.67 3.67 0 00.445-.134l.115-.062a.97.97 0 01.56-.062z"/></g><g opacity=".6" fill="#fff"><path d="M298.795 206.913v-.009.009zM299.355 207.295v.044c0 .045 0 0 .062 0a2.012 2.012 0 00.33.196v-.053.08h.15v.044s0 .045.063 0v.045a.098.098 0 00.07 0h.24l-.052.053a3.148 3.148 0 01.346.169v.044-.062s0-.044.054 0l.124.062h.107l.418-.684h.044v-.045h-.08l-.435-.186a4.19 4.19 0 00-.463-.187l-.044-.045h-.071a1.778 1.778 0 01-.356-.204h-.107a1.996 1.996 0 00-.249-.134c-.044 0 0 0-.044-.053a.062.062 0 01-.062 0h-.063c-.018 0-.08-.08-.133-.08v-.071a3.272 3.272 0 00-.356.747v.044a1.78 1.78 0 00.276.17h.089z"/></g><g opacity=".6" fill="#fff"><path d="M299.809 212.542zM300.049 213.04v.044a1.662 1.662 0 00.15.276v-.044.062c.063 0 0 0 .045.053s.063 0 .054 0h.044v.045a.089.089 0 00.045 0c.044 0 .142.097.186.097h-.07a1.78 1.78 0 01.177.267l.044-.044h.054a.534.534 0 00.053.098s0 .053.08.053l.694-.383m.044 0a.043.043 0 01-.044-.053v-.089l-.24-.311c-.071-.08-.178-.249-.258-.32s0-.045 0-.062h-.045a1.138 1.138 0 01-.169-.303c-.044 0-.044-.044-.07-.062a1.37 1.37 0 00-.125-.196v-.053a.09.09 0 01-.063 0 .32.32 0 01-.08 0 .057.057 0 00-.053-.053c-.053-.01 0-.098-.053-.125v-.053a4.054 4.054 0 00-.685.453 1.273 1.273 0 00.116.25.057.057 0 00.053.053s.116.391.116.4z"/></g><g opacity=".6" fill="#fff"><path d="M298.6 216.846v.062a.053.053 0 000-.062zM298.59 216.908z"/><path d="M298.768 217.806v.134a3.334 3.334 0 00.116.516v-.054.08c.053.09 0 0 0 .107s.062.062.053.089v.044c0 .045 0 0 .044 0s0 .045 0 0V218.865a.169.169 0 00.045.089 1.414 1.414 0 00.169.266h-.08a3.555 3.555 0 01.142.507h.107a.353.353 0 00.044.178.159.159 0 00.071.134l.792-.134m0-.044v-.045c0-.044 0 0 .044.045s0-.054 0-.054v-.053c0-.053-.044-.062 0-.107V219.505a4.241 4.241 0 00-.204-.622 6.362 6.362 0 00-.222-.659v-.089l-.045-.08a2.463 2.463 0 01-.124-.55c-.045-.045 0-.108-.072-.143a2.2 2.2 0 00-.097-.383v-.08c0-.035-.063 0-.071-.044a.72.72 0 01-.063.222s0-.098-.044-.115a.462.462 0 00-.045-.214l.045-.062s-.676.098-.783.231v.045a3.744 3.744 0 00.08.435v.116a1.307 1.307 0 01.098.293z"/></g><g opacity=".6" fill="#fff"><path d="M298.039 221.15zM297.763 221.408v.045a.649.649 0 00-.151.16h-.018v.213l-.053-.053a.836.836 0 01-.125.169h.054v.044a.07.07 0 01-.054.062v.063l.605.515v-.044s.116-.196.133-.231c0-.062.116-.17.143-.24v-.045a.418.418 0 01.16-.169v-.07s.098-.099.098-.125h.044a.053.053 0 010-.054v-.124c0-.054.071 0 .071-.063h.053a5.16 5.16 0 00-.658-.498c-.044 0-.097.08-.133.125v.053z"/></g><g opacity=".6" fill="#fff"><path d="M294.41 222.751h-.044a.062.062 0 00.044 0zM294.366 222.787z"/><path d="M294.01 223.516h-.053c-.053 0 0 .053 0 .07a3.695 3.695 0 00-.196.428h.054c.053 0 0 0 0 .044s0 0-.08 0V224.29h-.045s-.044.045 0 .072h-.044a.151.151 0 000 .088v.294l-.063-.045a2.007 2.007 0 01-.169.436v.045h.063s.044 0 0 .062a1.154 1.154 0 00-.071.151v.134l.711.355v.01c0-.045 0 0 .045 0s0 0 0-.054v-.214a4.411 4.411 0 01.177-.551 5.329 5.329 0 01.178-.578.107.107 0 00.054-.071v-.08a1.663 1.663 0 01.204-.463v-.133c0-.044.125-.267.134-.32 0-.053 0 0 .053-.062s-.045-.054 0-.063v-.222c0-.018.089-.107.089-.178h.071a2.713 2.713 0 00-.765-.284v.044a2.67 2.67 0 00-.178.356.542.542 0 000 .115s-.16.383-.169.383z"/></g><g opacity=".6" fill="#fff"><path d="M290.524 223.836a.062.062 0 00-.053 0 .044.044 0 00.053 0zM290.471 223.872zM289.733 224.76h-.071c-.027 0-.054.063 0 .099v.089a4.921 4.921 0 00-.383.542h.071c.072 0 0 0 0 .053s-.044 0-.097 0c0 .116 0 0-.072.116s0 .107 0 .124v.098h-.044s-.062.054-.053.098a.043.043 0 01-.054.045.213.213 0 00-.044.115c0 .062-.116.32-.107.383v.053s-.062-.062-.053-.062a6.32 6.32 0 01-.303.587c-.053.07-.044 0-.044 0v.053h.062v.134a2.248 2.248 0 00-.107.204s-.044.115 0 .178l.685.418v-.045.01c0-.054 0 0 .045 0s0-.054 0-.072c.044 0 0-.098.044-.133a.08.08 0 01.045-.071.078.078 0 01.053-.072l.329-.711c.08-.178.285-.542.373-.73 0 0 .054-.062.072-.088v-.107a2.864 2.864 0 01.39-.56c0-.071.063-.116.08-.17 0-.053.25-.31.277-.373 0-.062.044 0 .089-.062s0-.071 0-.089a1.567 1.567 0 01.053-.151.427.427 0 01.08-.125c.044-.053.142-.106.178-.195h.08s-.463-.498-.658-.498v.062a4.133 4.133 0 00-.374.427 1.146 1.146 0 00-.08.142 1.957 1.957 0 01-.462.285z"/></g><g opacity=".6" fill="#fff"><path d="M286.256 223.72a.107.107 0 00-.071 0 .089.089 0 00.07 0zM286.184 223.756zM285.322 224.707c-.045.045-.045 0-.08 0s-.062.072-.053.107v.045s-.427.462-.49.56.045 0 .072 0 0 0 0 .053-.054.045-.098 0c-.063.125 0 0-.09.125s0 .106-.07.124v.045c0-.01-.054.053 0 .062s-.063 0-.054 0c0 .044-.07.053-.07.098s0 .053-.072.044a.347.347 0 00-.071.125c0 .07-.196.329-.196.4v-.018s-.391.507-.462.57v.062h.062v.088l-.169.205v-.053c0-.045-.089.115-.098.178l.534.595v.072c0 .026.053 0 .044-.054s0 0 .045 0 0-.062.044-.071c.062 0 0-.098.098-.133s0-.045.071-.072 0-.053.08-.07c.107-.116.471-.605.56-.73.143-.187.454-.56.587-.765 0 0 .072-.062.098-.089l.062-.106a5.956 5.956 0 01.525-.605c0-.071.09-.116.116-.187 0-.062.302-.355.347-.418 0-.062.053 0 .097-.07s0-.08 0-.099a1.538 1.538 0 01.072-.16s.08-.106.097-.142a1.03 1.03 0 00.214-.222h.08s-.454-.516-.658-.507a.062.062 0 010 .053h-.054c-.053 0-.293.294-.427.454l-.106.142a1.37 1.37 0 01-.587.364z"/></g><g opacity=".6" fill="#fff"><path d="M281.258 224.112zM280.742 224.592h-.053c-.054 0 0 0 0 .062a2.943 2.943 0 00-.294.285h-.026c0 .08 0 0-.054.07s0 .072 0 .072v.044c0 .045-.044 0 0 0s-.044 0 0 .054h-.053a.16.16 0 00-.045.07c0 .054-.097.197-.089.25s-.044-.071 0-.062a3.086 3.086 0 01-.284.302v.044h.053v.063l-.098.097a.186.186 0 00-.053.107 4.77 4.77 0 00.542.587v.054c0 .053.045 0 0 0v-.045c.045 0 0-.062.054-.071h.107c.062-.062.275-.33.329-.4a4.038 4.038 0 00.346-.427.09.09 0 00.063 0v-.071a1.779 1.779 0 01.32-.312c0-.044.053-.062.062-.106a2.395 2.395 0 00.213-.214c0-.044 0 0 .063 0a.053.053 0 010-.07.677.677 0 010-.099.195.195 0 01.062-.08s.107-.053.124-.115h.072s-.454-.516-.614-.552a2.267 2.267 0 00-.267.232.624.624 0 01-.053.08s-.427.16-.427.15z"/></g><g opacity=".6" fill="#fff"><path d="M278.26 223.836s.036.018.045 0zM278.261 223.854z"/><path d="M277.79 224.334h-.054c-.053 0 0 0 0 .062a2.737 2.737 0 00-.267.294h-.026c0 .07 0 0-.045.062s0 .071 0 .08h-.044s-.045 0 0 .062h-.045a.089.089 0 000 .071c0 .045-.08.187-.07.24l-.045-.053a2.754 2.754 0 01-.24.302v.045h.053v.053l-.089.107s-.044.062 0 .107l.578.551h.045c.044 0 0-.044 0-.044v-.072h.088c.054-.062.232-.329.276-.4.071-.107.231-.302.294-.418a.16.16 0 00.062-.044v-.063a1.6 1.6 0 01.284-.31c0-.054.045-.072.054-.107 0-.045.169-.187.187-.223 0-.044 0 0 .062 0m0-.062v-.098s0-.062.044-.08a.186.186 0 00.116-.115h-.045a3.166 3.166 0 00-.649-.507 1.477 1.477 0 00-.24.23l-.053.08-.232.25z"/></g><g opacity=".6" fill="#fff"><path d="M274.828 223.658v-.009.009zM274.517 224.458h-.045c-.044 0 0 .063 0 .08 0 .063-.169.383-.186.454s0 0 .053 0 0 0 0 .044 0 0-.08 0V225.268c0 .044-.044.053 0 .08h-.044a.107.107 0 000 .089v.302l-.063-.045a3.3 3.3 0 01-.213.436h-.045v.054h.063v.07a.469.469 0 01-.09.152s-.044.089 0 .133l.65.472v.008c0-.053 0 0 .044 0s0-.044 0-.053 0-.08.045-.107a.07.07 0 01.044-.062.064.064 0 01.054-.062c.062-.098.23-.507.275-.605a4.678 4.678 0 00.25-.649.078.078 0 01.053-.071v-.098a3.558 3.558 0 01.213-.534v-.15c0-.054.116-.32.125-.374 0-.054 0 0 .044-.071a.053.053 0 010-.072v-.257a.41.41 0 00.071-.214h.063a2.356 2.356 0 00-.81-.169m0 .045a3.459 3.459 0 00-.142.39v.125l-.329.427z"/></g><path d="M273.13 217.967a.053.053 0 000 .044.053.053 0 000-.044zM273.147 218.002z" fill="#fbfbfb"/><path d="M273.628 218.367v.044c0 .045 0 0 .053 0s.169.223.205.258 0 0 0-.044v.07c.062 0 0 0 .044.054s.062 0 .062 0v.098a1.217 1.217 0 00.178.142h-.071a1.45 1.45 0 01.116.33h.07a.508.508 0 000 .115v.08h.801V219.23a2.866 2.866 0 00-.213-.543 2.42 2.42 0 00-.33-.516v-.08l-.062-.044a3.339 3.339 0 01-.31-.392.14.14 0 00-.116-.07 3.208 3.208 0 00-.267-.223c-.054 0 0 0-.045-.071a.062.062 0 01-.08 0h-.115a.249.249 0 01-.098-.045c-.045 0-.098-.098-.16-.106v-.063a3.353 3.353 0 00-.338.747s.142.125.222.178h.071s.383.356.383.365zM276.376 215.948a.071.071 0 000 .062.071.071 0 000-.062zM276.376 216.01zM276.678 216.82v.062c0 .062 0 .053.053.062s.143.391.187.462 0 0 0-.062v.08c.062.071 0 0 .053.089s.063.044.063.071h.044c.045 0 0 .045 0 0s0 .062.045.071a.053.053 0 010 .063.24.24 0 00.062.07c.044 0 .16.205.204.223h-.07a4.152 4.152 0 01.204.454h.115s.054.115.072.169a.11.11 0 00.088.106l.756-.258v-.044h.045c.044 0 0-.045 0-.045s-.045 0 0-.044c0-.053-.054-.044-.054-.098v-.133a2.951 2.951 0 00-.284-.552c-.08-.142-.214-.435-.311-.578s0-.062 0-.089l-.063-.07a2.446 2.446 0 01-.204-.499c-.045 0-.045-.089-.08-.115a3.155 3.155 0 00-.151-.338v-.08a.062.062 0 01-.08 0 .83.83 0 01-.09-.09l-.053-.097a.453.453 0 00-.08-.196v-.07s-.649.213-.738.364a4.175 4.175 0 00.151.391 1.108 1.108 0 00.072.107zM278.963 215.299zM278.963 215.352zM279.337 216.188v.062c0 .063 0 .063.053.063a3.2 3.2 0 00.232.462v-.053.089c.07.07 0 0 .053.088s.071.045.071.072v.044c0 .044 0 .044.044 0s0 .044 0 0 0 .062.045.071v.062a.17.17 0 00.062.072c.054 0 .187.204.24.222h-.07c0 .062.23.382.248.445h.116a1.344 1.344 0 00.08.16s.053.089.098.106l.738-.31h.044c.045 0 0-.045 0 0v-.045c0-.045-.062-.045-.062-.09V217.559a2.678 2.678 0 00-.33-.543c-.088-.142-.248-.436-.355-.57a.178.178 0 000-.097l-.062-.062a3.256 3.256 0 01-.25-.498c-.044 0-.052-.09-.097-.125a2.575 2.575 0 00-.178-.338v-.08a.071.071 0 01-.08 0l-.124.054s-.054-.08-.071-.098a.382.382 0 00-.09-.196v-.07s-.63.257-.71.417v.045a2.286 2.286 0 00.177.4.837.837 0 01.08.107.712.712 0 01.098.284zM282.52 213.894v.062a.071.071 0 000-.062zM282.512 213.956z" fill="#fbfbfb"/><path d="M282.992 214.73v.062c0 .062 0 .062.062.053l.223.48v-.062.089c.07.071 0 0 .053.089s.062.053.062.08v.044c0 .045 0 0 .045 0s0 .054 0 0v.08m0 .063a.213.213 0 00.053.089c.044 0 .142.23.196.258h-.072a2.614 2.614 0 01.143.515h.062a1.354 1.354 0 000 .196s0 .098.062.133h.8v-.151c0-.053-.044-.08 0-.124V216.454a7.365 7.365 0 00-.213-.72 4.347 4.347 0 00-.302-.729.312.312 0 000-.098l-.071-.08a3.534 3.534 0 01-.276-.587.214.214 0 00-.107-.133c-.044-.044-.186-.329-.24-.382v-.098c0-.045-.07 0-.089 0l-.115-.09c-.045 0-.08-.08-.098-.106a.57.57 0 00-.142-.204v-.071s-.57.382-.614.55h.044v.045a2.006 2.006 0 00.24.383l.08.098a.89.89 0 01.214.498zM286.63 213.716v.053c0 .053.008-.036 0-.053zM286.629 213.769z" fill="#fbfbfb"/><path d="M287.02 214.578v.063c0 .062 0 .062.063.062a2.726 2.726 0 00.195.48c.036.071 0 0 0-.062v.08c.063.08 0 0 .045.098s.07.044.062.08V215.52a.178.178 0 00.053.08s.143.231.196.249h-.08a3.487 3.487 0 01.16.489h.053s.063 0 .063.044a1.297 1.297 0 00.044.178s0 .098.071.125l.792-.107m0-.044v-.054c0-.053-.054-.07 0-.115v-.16a3.924 3.924 0 00-.24-.658 4.96 4.96 0 00-.303-.667v-.098l-.062-.08a4.847 4.847 0 01-.231-.552c-.045 0-.054-.097-.098-.133a3.555 3.555 0 00-.187-.365c-.044 0 0 0 0-.088s-.07 0-.08 0a.799.799 0 01-.106-.09.178.178 0 01-.08-.106.57.57 0 00-.107-.205v-.07s-.614.293-.685.453v.044a1.73 1.73 0 00.196.392l.07.106a1.031 1.031 0 01.197.49zM290.133 213.324zM290.133 213.369zM290.524 214.054v.053c0 .053 0 .053.054.053a3.219 3.219 0 00.177.4v.08c.063.054 0 0 0 .072s.063.044.063.07 0 .045.044 0v.125a.151.151 0 00.054.071c.044 0 .133.187.186.205h-.07a3.858 3.858 0 01.141.418h.107v.151a.122.122 0 00.062.107l.792-.133m0-.045v-.044c0-.045-.045-.054 0-.098v-.142a3.668 3.668 0 00-.222-.56 4.72 4.72 0 00-.267-.57.142.142 0 000-.089l-.062-.062a3.674 3.674 0 01-.214-.471c-.044 0-.053-.09-.089-.116s-.133-.267-.169-.311v-.08c0-.08-.062 0-.07 0a.43.43 0 01-.09-.071.214.214 0 01-.071-.09.207.207 0 00-.098-.177v-.062s-.596.329-.667.48v.044a2.881 2.881 0 00.17.33l.07.08s.17.373.17.382zM291.707 209.074v.053c0 .053.018-.009 0-.053zM291.725 209.163zM292.303 209.67v.053c0 .053 0 0 .062 0a3.44 3.44 0 00.33.284v-.062.08c.07 0 0 0 .07.045s.071 0 .08 0h.045s0 .044.062 0v.053h.071c.053 0 .214.089.267.08l-.053.044a1.484 1.484 0 01.337.258h.045v-.053h.071a.614.614 0 00.116.098.303.303 0 00.115.044l.543-.587h.044v-.044c0-.045 0 0-.044 0 0-.045-.063 0-.08-.053v-.045l-.045-.053a4.765 4.765 0 00-.435-.303c-.116-.07-.338-.249-.463-.31s0-.045-.044-.063h-.08a1.884 1.884 0 01-.347-.303c-.054 0-.08 0-.116-.053a2.453 2.453 0 00-.249-.196v-.062c0-.062-.053 0-.071 0h-.107s-.07 0-.089-.044a.231.231 0 00-.133-.125v-.07a2.988 2.988 0 00-.49.657 3.656 3.656 0 00.268.258.317.317 0 00.089.053s.23.41.23.418zM291.067 206.397zM291.76 206.46s0 .044.045 0 .053 0 .062 0a3.02 3.02 0 00.4 0v-.045l.045.062h.08c.08 0 .053-.045.07 0h.188a.796.796 0 00.24-.098v.071a3 3 0 01.4 0v-.062s0-.062.044-.045h.25a6.978 6.978 0 00.062-.791h-.694a5.03 5.03 0 00-.516 0h-.142a1.37 1.37 0 01-.427 0h-.471a.053.053 0 01-.045.053h-.347v-.062a2.926 2.926 0 000 .827 2.184 2.184 0 00.338 0h.098zM288.577 203.444h.053a.062.062 0 00-.053 0zM288.63 203.462z" fill="#fbfbfb"/><path d="M289.377 203.32h.107a1.778 1.778 0 00.418-.134h.026c.063-.053 0 0 .08 0s0-.062.063-.053.044 0 0-.044.044 0 0 0h.115a.089.089 0 00.071-.054c0-.044.17-.15.178-.204v.07a3.264 3.264 0 01.374-.213v-.106l.133-.071s.071-.054.08-.098-.364-.65-.382-.703c-.045 0 0 .063-.062.063h-.107l-.4.257c-.107.063-.33.178-.436.25s-.053 0-.071 0l-.054.044a1.182 1.182 0 01-.4.133c0 .045-.07 0-.098.063s-.24.062-.275.08h-.071a.062.062 0 010 .07.524.524 0 01-.072.072h-.24l-.053-.045a2.667 2.667 0 00.196.8 1.779 1.779 0 00.364-.062.48.48 0 01.098-.044 1.165 1.165 0 01.418-.071zM287.954 200.554h.062a.053.053 0 00-.062 0zM288.016 200.563zM288.941 200.225h.063c.062 0 .07 0 .07-.062a3.08 3.08 0 00.508-.267h.026c.071-.071 0 0 .098-.062s.045-.08.071-.08h.045c.044 0 .044 0 0-.045s.053 0 0 0a.072.072 0 00.07-.062h.063a.338.338 0 00.08-.08c0-.053.205-.213.213-.276v.072l.436-.356v-.054h-.053v-.07l.151-.134a.37.37 0 00.089-.133 4.626 4.626 0 00-.49-.632v-.053c0-.054-.044 0 0 0h-.044a.08.08 0 01-.07.08h-.134c-.08.062-.382.356-.471.418-.125.115-.392.302-.525.418a.258.258 0 00-.089 0l-.071.062a1.992 1.992 0 01-.49.258c0 .053-.088.053-.124.098s-.293.124-.338.151h-.089c-.035 0 0 .062 0 .071a.49.49 0 01-.097.089.777.777 0 00-.107.062.391.391 0 00-.214.063h-.062s.151.667.303.764h.044a2.812 2.812 0 00.462-.15.81.81 0 01.116-.072zM287.287 196.374a.062.062 0 00.054 0s-.045-.017-.054 0zM287.341 196.366zM288.034 195.93h.063c.062 0 .053 0 .044-.062a3.799 3.799 0 00.391-.267h.036c.053-.071 0 0 .071-.063s0-.07.062-.08v-.053c0-.053.045 0 0 0a.052.052 0 00.054-.053m.062 0l.062-.071c0-.045.16-.187.16-.24v.07a2.765 2.765 0 01.374-.284l-.045-.044v-.063l.134-.097s.07-.054.08-.098a7.058 7.058 0 00-.41-.694v.045c-.044 0 0 .062-.07.062h-.134c-.08.053-.373.311-.454.364a4.89 4.89 0 00-.47.4h-.08l-.054.072a1.832 1.832 0 01-.418.284c0 .054-.071.063-.098.107a2.633 2.633 0 00-.285.205c0 .044 0 0-.07 0a.08.08 0 010 .08.425.425 0 01-.072.097.726.726 0 01-.08.072.421.421 0 00-.169.106h-.062s.347.587.507.65h.044a2.668 2.668 0 00.338-.214l.09-.08a1.156 1.156 0 01.4-.151zM286.834 192.061h.053c.053 0-.036-.009-.053 0zM286.887 192.07zM287.545 191.723h.053c.054 0 .054 0 .045-.053a2.934 2.934 0 00.365-.204h.017c.054-.072 0 0 .071-.054s0-.071.054-.071v-.044c0-.045.044 0 0 0s.062 0 .062-.054h.053a.142.142 0 00.063-.062c0-.045.15-.17.16-.222v.07a3.038 3.038 0 01.355-.23l-.044-.054v-.062l.133-.071a.244.244 0 00.072-.098 5.867 5.867 0 00-.365-.703v-.044c0-.044-.045 0 0 0a.064.064 0 01-.071.062h-.116c-.08 0-.356.258-.427.303a3.813 3.813 0 00-.444.329h-.08l-.045.062a2.028 2.028 0 01-.4.231.4.4 0 00-.089.089 2.599 2.599 0 00-.276.16c0 .045 0 0-.07 0a.053.053 0 010 .071.267.267 0 01-.063.09.527.527 0 00-.071.07c-.009.018-.125 0-.16.08h-.062a2.73 2.73 0 00.453.694 1.351 1.351 0 00.32-.16l.08-.062s.418-.063.427-.063zM286.389 188.833h.053s-.044-.009-.053 0zM286.442 188.833h-.009.009zM287.18 188.477h.054c.053 0 .062 0 .053-.062a1.877 1.877 0 00.4-.249h.027c.045-.07 0 0 .071-.062s0-.071.054-.071v-.045a.055.055 0 00.053-.062h.053a.187.187 0 00.054-.071 1.013 1.013 0 00.15-.249s.045.071 0 .071a3.682 3.682 0 01.339-.311h-.054v-.062l.125-.107a.216.216 0 00.062-.116l-.516-.604v-.045c0-.044-.044 0 0 0h-.044c-.044 0 0 .062-.062.071h-.107l-.374.383c-.097.097-.32.266-.418.382s-.044 0-.07 0l-.054.062a1.779 1.779 0 01-.391.25.4.4 0 00-.09.088 2.596 2.596 0 00-.275.16h-.071a.08.08 0 010 .08.41.41 0 01-.062.09.086.086 0 00-.08.061.33.33 0 00-.17.063h-.062s.25.631.4.72a1.895 1.895 0 00.365-.16l.09-.071s.542-.134.55-.134zM286.629 185.916zM287.012 185.845a.89.89 0 00.213-.062h.044s.09-.098.09-.142v.07a1.396 1.396 0 01.204-.08v.045a.292.292 0 010-.053v-.053h.071v-.063c0-.062-.222-.711-.24-.756h-.045l-.249.125a1.78 1.78 0 00-.257.133h-.045a.525.525 0 01-.231.063h-.053s-.134 0-.152.053h-.044c-.045 0 0 .053 0 .062v.062h-.142v-.044a5.503 5.503 0 00.284.774.693.693 0 00.187 0h.044s.32-.143.32-.134zM278.02 164.609zM278.065 164.653zM278.723 164.484s.054 0 .054-.044a2 2 0 00.373-.116h.027c.053-.053 0 0 .07 0s0-.053.054-.053h.116a.107.107 0 00.062-.045s.17-.115.178-.169v.072a3.016 3.016 0 01.365-.134v-.107h.133a.094.094 0 00.089-.07 5.53 5.53 0 00-.222-.774v-.045h-.196l-.436.196c-.106.053-.347.142-.462.213h.035l-.053.045a1.307 1.307 0 01-.4.124c0 .045-.071 0-.098.062a1.853 1.853 0 00-.267.09h-.07a.062.062 0 010 .07.508.508 0 01-.072.072h-.089a.205.205 0 00-.151 0h-.054a3.351 3.351 0 00.294.773 1.209 1.209 0 00.32-.08l.089-.044s.302-.045.311-.036zM276.749 162.786zM277.185 162.457h.053c.054 0 0 0 0-.054a1.78 1.78 0 00.25-.204h.07c0-.054 0 0 .045-.045s0-.062 0-.062h.044v-.053c0-.045.08-.151.071-.205s.045.062 0 .062a2.667 2.667 0 01.232-.222h-.054v-.062a.347.347 0 00.09-.071s.044 0 0-.08-.463-.587-.499-.623m0-.044s0 .062-.044.062h-.045c-.053 0-.222.24-.275.293a3.244 3.244 0 00-.276.32h-.062v.054a.89.89 0 01-.267.222.317.317 0 00-.053.09 1.294 1.294 0 00-.187.16h-.054a.08.08 0 010 .07v.08l-.053.063c-.053.062-.089 0-.107.08h-.062a3.727 3.727 0 00.57.596 1.423 1.423 0 00.222-.16l.044-.063s.347-.213.347-.204zM233.841 184.28zM234.499 184.369h.062a1.832 1.832 0 00.382 0l.054.053c.062-.044 0 0 .07 0s.045-.053.072 0h.133s.178-.106.196-.15v.07a2.15 2.15 0 01.356-.106c.044 0 0 .044 0 .044v-.107h.133a.087.087 0 00.08-.07 5.02 5.02 0 00-.249-.757v-.044s0 .053-.062 0h-.045l-.355.142a1.309 1.309 0 00-.392.116.08.08 0 00-.062 0h-.053a.89.89 0 01-.338 0h-.32a.053.053 0 010 .053l-.08.045h-.072c-.008 0-.088-.054-.133 0v-.054a3.326 3.326 0 00-.08.818 1.85 1.85 0 00.32.054h.09zM233.707 180.652zM234.214 180.714a1.059 1.059 0 00.293 0v.062h.063c.062 0 .044-.044.053 0h.107s.151-.062.178-.107v.072a1.618 1.618 0 01.293 0v-.107h.178c.018 0 .053-.738.053-.792h-.471a2.67 2.67 0 00-.374 0 .062.062 0 00-.053 0h-.053a.89.89 0 01-.311 0h-.356a.053.053 0 010 .054h-.258v-.054a4.331 4.331 0 000 .827 1.288 1.288 0 00.249 0h.071zM234.392 176.81zM234.756 176.961h.045a.667.667 0 00.213.071v-.044.07h.134s.124 0 .142-.07v.07c0-.008.187 0 .213.045v-.062h.134c.018 0 .195-.72.213-.774h-.667a.507.507 0 01-.23-.07h-.072s-.133-.054-.16 0a.053.053 0 010 .053h-.107c-.009 0-.053-.054-.089 0v-.054a5.655 5.655 0 00-.169.81.534.534 0 00.178.07h.053a1.905 1.905 0 01.17-.115zM235.468 173.911zM235.744 174.053s.133.071.16.062v.063h.044s.098 0 .125-.063v.071h.169a.187.187 0 010-.053h.106a4.286 4.286 0 00.25-.765 1.663 1.663 0 00-.223 0 2.045 2.045 0 00-.231 0 .347.347 0 01-.178-.07h-.053s-.098-.054-.125 0a.089.089 0 010 .053h-.053s0-.054-.071 0v-.054a7.414 7.414 0 00-.223.792.356.356 0 00.134.08h.044a1.478 1.478 0 01.125-.116z" fill="#fbfbfb"/><path d="M250.426 163.07a28.075 28.075 0 002.855 7.515 3.637 3.637 0 001.636 1.778c1.37.56 2.81-.55 3.877-1.574a2.57 2.57 0 002.232 2.508 5.496 5.496 0 003.557-.89 22.233 22.233 0 006.795-6.598 46.591 46.591 0 01-4.971 3.558c-1.21.755-2.74 1.476-4.02.835s-1.84-2.33-3.21-2.427c-1.779-.125-2.802 2.668-4.554 2.383-1.005-.142-1.565-1.21-1.956-2.143l-2.125-5.07M269.91 231.528a3.246 3.246 0 01.338-2.525 2.668 2.668 0 012.019-.792 16.008 16.008 0 014.918 1.04 34.922 34.922 0 0011.303 1.397 10.165 10.165 0 01-5.905 2.205 30.182 30.182 0 01-6.385-.444l-6.608-.89" opacity=".2"/><path fill="#ffbe9d" d="M223.569 327.172l.258 37.368 16.781-1.2 3.753-36.399-20.792.231z"/><path d="M241.195 356.003s-11.81 8.386-17.528 1.13l-1.494 3.512-6.723 25.06a3.362 3.362 0 001.894 4.02 3.237 3.237 0 003.433-.658c4.864-4.624 22.65-21.716 22.481-24.01l-.07-6.155a3.13 3.13 0 00-1.993-2.881z" fill="#fde24f"/><path d="M217.922 389.894l25.345-26.972v1.343c.125 1.458-.507 2.027-1.2 2.961-2.055 2.766-7.728 8.955-21.184 21.868a3.228 3.228 0 01-2.952.827z" style="isolation:isolate" fill="#fff" opacity=".6"/><path d="M239.55 358.893a1.974 1.974 0 00-.552 2.562 1.894 1.894 0 002.544.569 2.081 2.081 0 00.569-2.722 1.965 1.965 0 00-2.712-.293" fill="#fff" opacity=".6"/><path d="M225.223 376.066c-.178.089-.889-1.574-2.765-2.481s-3.611-.516-3.647-.712.374-.32 1.112-.427a5.185 5.185 0 014.971 2.472c.365.65.41 1.121.33 1.148zM222.938 380.299c-.151.142-1.165-.89-2.802-1.37s-3.04-.213-3.094-.418 1.44-.827 3.299-.249 2.775 1.957 2.597 2.037zM229.456 370.641c-.15.151-1.698-1.45-4.188-2.419s-4.696-.89-4.696-1.112 2.303-.604 4.954.463 4.081 2.979 3.93 3.068zM230.052 363.01c-.089.188-1.832-.55-4.117-.64s-4.082.445-4.153.25 1.778-1.068 4.188-.943a6.724 6.724 0 014.082 1.334z" fill="#263238"/><path d="M224.6 362.3a2.908 2.908 0 01.179-1.183 8.36 8.36 0 011.52-2.917 3.69 3.69 0 011.886-1.44 1.29 1.29 0 011.387.56 2.108 2.108 0 01.231 1.493 4.598 4.598 0 01-4.74 3.442 5.336 5.336 0 01-4.633-3.708 1.832 1.832 0 01.204-1.521 1.28 1.28 0 011.441-.427 4.553 4.553 0 011.85 1.458 9.062 9.062 0 011.68 2.82 2.837 2.837 0 01.285 1.164 14.905 14.905 0 00-2.32-3.655 4.135 4.135 0 00-1.646-1.227.685.685 0 00-.791.223 1.325 1.325 0 00-.072 1.013 4.758 4.758 0 004.056 3.157 3.984 3.984 0 004.064-2.854 1.547 1.547 0 00-.116-1.059.711.711 0 00-.765-.31 3.281 3.281 0 00-1.618 1.19 12.317 12.317 0 00-2.081 3.78z" fill="#263238"/><path fill="#ffbe9d" d="M184.049 295.015l-20.534 38.978 16.39 9.818 26.51-37.342-22.366-11.454z"/><path d="M166.076 328.782l-.667 1.076s-22.89-3.895-25.23-.534l36.578 22.233 6.892-12.45a24.764 24.764 0 01-17.573-10.325z" fill="#fde24f"/><path d="M177.584 340.69a1.779 1.779 0 010 2.33 1.68 1.68 0 01-2.313 0 1.84 1.84 0 010-2.473 1.779 1.779 0 012.402.25M176.757 351.53l1.663-3.006-35.67-20.178s-2.054-.285-2.57.978z" fill="#fff" opacity=".6"/><path d="M165.214 329.885c-.098.186.747.809 1.271 1.912s.543 2.143.756 2.17.57-1.166-.098-2.49-1.867-1.78-1.93-1.592zM160.42 329.129c-.151.142.445.889.587 2.045s-.16 2.028 0 2.125.89-.844.694-2.232-1.174-2.09-1.28-1.938zM155.449 332.41c.142.142.89-.605 1.067-1.859s-.462-2.152-.631-2.054 0 .943-.09 1.974-.506 1.815-.346 1.94z" fill="#263238"/><path fill="#e0e0e0" d="M203.409 302.343v79.93h5.442v-86.288l-5.442 6.358zM282.432 289.831h5.291v92.451h-5.291zM208.851 302.343h73.58v5.905h-73.58z"/><rect x="208.851" y="273.094" width="81.424" height="16.728" rx="3.335" fill="#fde24f"/><path d="M284.192 233.431s11.063 19.636 9.427 33.358-4.66 13.722-4.66 13.722l-35.865-1.974-5.15-43.122 8.743-4.9z" fill="#263238"/><path fill="#455a64" d="M190.727 188.744l8.965 42.713 42.33 3.922 27.293-1.876-9.889-9.463-11.481 2.455-4.082-41.335-53.136 3.584z"/><path d="M249.732 223.916c1.236 3.415 7.061.205 7.061.205l-.4 6.082-3.628 2.588s0 1.636 2.392 1.779a8.19 8.19 0 003.361-.25l.134.81a1.903 1.903 0 001.832 1.61 2.374 2.374 0 001.13-.187s2.543 1.84 4.944.507a6.688 6.688 0 003.032-3.93l.392-5.025 3.077-2.135s2.534-4.686-.64-7.914a6.323 6.323 0 00-6.493-1.423L261 218.269a5.034 5.034 0 00-3.504.934c-.818.596-1.841 1.307-2.74 1.84 0 .027-5.282 2.162-5.024 2.873z" fill="#ffbe9d"/><path d="M261.177 228.94c.063 0 .152.392.232 1.023a7.622 7.622 0 010 2.552 2.74 2.74 0 01-.667 1.308 2.303 2.303 0 01-1.032.631c-.702.178-1.103-.116-1.067-.151a2.636 2.636 0 00.96-.16 2.374 2.374 0 001.361-1.734 11.934 11.934 0 00.125-2.428c-.045-.64-.01-1.032.088-1.04zM256.793 224.12a10.032 10.032 0 010 3.05 10.245 10.245 0 01-.435 3.033 20.533 20.533 0 01.4-6.083zM265.268 230.417a3.015 3.015 0 01.231 1.182 5.007 5.007 0 01-.533 2.908 4.571 4.571 0 01-2.303 1.86c-.712.275-1.174.32-1.192.257a5.665 5.665 0 011.058-.551 5.051 5.051 0 002.037-1.779 5.683 5.683 0 00.604-2.668c.018-.765.027-1.21.098-1.21z" fill="#eb996e"/><path d="M271.965 227.749a15.909 15.909 0 011.147-2.223 7.114 7.114 0 00.72-2.535 6.296 6.296 0 00-2.4-5.665 7.195 7.195 0 00-2.349-1.182 17.456 17.456 0 00-2.445-.392 1.778 1.778 0 01.676-.106 6.973 6.973 0 011.85.177 7.115 7.115 0 012.525 1.165 6.483 6.483 0 012.108 2.668 6.58 6.58 0 01.462 3.37 7.052 7.052 0 01-.89 2.669 18.244 18.244 0 01-1.013 1.547c-.222.356-.365.551-.391.507z" fill="#263238"/><path d="M221.31 208.789a2.668 2.668 0 11-2.668-2.668 2.668 2.668 0 012.668 2.668z" fill="#fafafa"/><path d="M226.495 255.637l-.24.142a16.897 16.897 0 00-8.173 15.279l2.668 57.804 25.959 2.614.836-52.29 10.787-1.308-17.973-20.16a10.983 10.983 0 00-13.864-2.08z" fill="#263238"/><path d="M177.317 305.5l34.602-69.427s4.9-7.195 11.766-6.866 49.667 14.051 49.667 14.051v34.967l-15.03-.329-33.988-3.264-22.935 44.323z" fill="#263238"/><path d="M259.932 277.932a1.682 1.682 0 01-.275-.303l-.774-.889-2.926-3.557-10.52-13.037c-2.543-4.09-8.368-6.519-14.229-5.523a15.572 15.572 0 00-8.11 3.949 12.059 12.059 0 00-2.766 3.842 15.118 15.118 0 00-1.156 4.74 57.806 57.806 0 00-.133 5.94c0 1.965 0 3.904.053 5.798.071 3.806.133 7.47.196 10.965.15 6.981.355 13.277.551 18.55s.4 9.525.525 12.513c.062 1.45.106 2.588.142 3.397v.89a1.529 1.529 0 010 .302 1.494 1.494 0 010-.293 4.442 4.442 0 00-.071-.89c-.062-.8-.134-1.938-.231-3.388-.187-2.952-.436-7.22-.667-12.503s-.48-11.561-.658-18.56c-.072-3.495-.143-7.159-.223-10.965q0-2.855-.062-5.798a59.022 59.022 0 01.133-5.994 15.536 15.536 0 011.192-4.882 12.548 12.548 0 012.881-3.984 16.007 16.007 0 018.35-4.055c5.977-1.005 11.97 1.502 14.576 5.762l10.405 13.1c1.21 1.556 2.17 2.774 2.837 3.628l.73.951a2.606 2.606 0 01.23.294z" fill="#455a64"/><path d="M247.118 302.45c-.134 0-.232-7.275-.232-16.248s.098-16.238.232-16.238.23 7.274.23 16.238-.106 16.248-.23 16.248zM281.551 247.971a1.655 1.655 0 01-.489-.16l-1.36-.542-4.998-2.045c-4.224-1.708-10.094-3.985-16.657-6.226s-12.575-4.144-16.95-5.433l-5.184-1.503-1.405-.418a1.699 1.699 0 01-.48-.178 3.05 3.05 0 01.506.089l1.432.338c1.236.293 3.024.756 5.22 1.36 4.447 1.201 10.44 3.024 17.012 5.336s12.45 4.616 16.63 6.403a174.72 174.72 0 014.945 2.18l1.325.63a2.403 2.403 0 01.453.17z" fill="#455a64"/><path d="M282.592 240.475a24.321 24.321 0 01-3.193-.125 217.658 217.658 0 00-7.674-.329l-7.684-.151a21.905 21.905 0 01-3.184-.17 2.89 2.89 0 01.89-.088c.551 0 1.351-.053 2.33-.071 1.974 0 4.695-.062 7.7 0s5.728.258 7.684.462c.979.098 1.779.196 2.321.285a3.558 3.558 0 01.81.187zM205.623 310.151c-.071 0-.987-1.254-2.73-3.121a36.343 36.343 0 00-3.255-3.069 40.017 40.017 0 00-4.446-3.165 39.27 39.27 0 00-4.891-2.455 37.13 37.13 0 00-4.242-1.45c-2.464-.666-4.038-.889-4.029-.942a4.358 4.358 0 011.112.08 11.316 11.316 0 011.298.196c.507.097 1.085.186 1.699.355a31.714 31.714 0 014.322 1.36 37.697 37.697 0 014.97 2.455 36.215 36.215 0 014.5 3.246 33.177 33.177 0 013.22 3.166c.445.472.791.943 1.112 1.343a10.557 10.557 0 01.782 1.05 4.847 4.847 0 01.578.951zM247.9 323.268c0 .08-1.44-.693-3.824-1.68a44.011 44.011 0 00-19.68-3.202c-2.57.178-4.153.471-4.162.382a5.56 5.56 0 011.094-.266 28.456 28.456 0 013.041-.436 39.494 39.494 0 0110.13.338 39.894 39.894 0 019.71 2.881 27.947 27.947 0 012.74 1.387 4.918 4.918 0 01.951.596z" fill="#455a64"/></svg>