<svg version="1.1" id="prefix__Layer_1" xmlns="http://www.w3.org/2000/svg" x="0" y="0" viewBox="0 0 400 400" xml:space="preserve"><style>.prefix__st0{fill:#fde24f}.prefix__st2{fill:#e58a7b}.prefix__st3{opacity:.2;enable-background:new}.prefix__st5{fill:#263238}.prefix__st6{fill:#cf6f64}.prefix__st7{fill:#fff}.prefix__st8{fill:#df5753}.prefix__st12,.prefix__st13{enable-background:new}.prefix__st12{opacity:.1;fill:#fff}.prefix__st13{opacity:.6}</style><g id="prefix__freepik--background-simple--inject-22"><path class="prefix__st0" d="M80.2 192.9c58.5 60.4 135.5 102.3 206.8 34.6 36.8-34.8 85.3-128.9 37.4-172-66.1-59.3-104 37.7-153.4 50.9-33.9 9-62.3-43-102.9-8.3-32 27.5-12.2 69.7 12.1 94.8z"/><path d="M80.2 192.9c58.5 60.4 135.5 102.3 206.8 34.6 36.8-34.8 85.3-128.9 37.4-172-66.1-59.3-104 37.7-153.4 50.9-33.9 9-62.3-43-102.9-8.3-32 27.5-12.2 69.7 12.1 94.8z" opacity=".9" fill="#fff"/></g><g id="prefix__freepik--character-2--inject-22"><path class="prefix__st2" d="M295 118.6l-9.9-4s-13.1 23.9-16.8 25.1c-5.1 1.6-15.7 6.2-21.9 7-.9 1-2.2 4.1-2.1 5.2 8.4 2.8 26.9-.9 30.9-3.9 8.9-6.6 19.8-29.4 19.8-29.4z"/><path class="prefix__st0" d="M298.1 113.2c1.9 6.8-8.2 20.6-8.2 20.6l-13.1-7.4s2.5-5.6 5.5-11.4c4.7-9.3 13.7-9.6 15.8-1.8z"/><path class="prefix__st3" d="M298.1 113.2c1.9 6.8-8.2 20.6-8.2 20.6l-13.1-7.4s2.5-5.6 5.5-11.4c4.7-9.3 13.7-9.6 15.8-1.8z"/><path class="prefix__st3" d="M282 129.3l5.2 2.9.9-15.9c-3.1 2.4-5.2 9.3-6.1 13z"/><path class="prefix__st0" d="M289.4 108s-10.2 22.7-4.3 65.1h40.3c.6-6.2-1.5-36.3 6.2-65.5-4.4-.9-8.9-1.4-13.4-1.7-5.7-.3-11.4-.3-17.1 0-3.9.4-7.8 1.1-11.7 2.1z"/><path class="prefix__st3" d="M289.4 108s-10.2 22.7-4.3 65.1h40.3c.6-6.2-1.5-36.3 6.2-65.5-4.4-.9-8.9-1.4-13.4-1.7-5.7-.3-11.4-.3-17.1 0-3.9.4-7.8 1.1-11.7 2.1z"/><path d="M280.1 372.3c-.1 1.1 15.2 2 34.1 2s34.3-.9 34.3-2-15.2-1.9-34.1-1.9-34.2.8-34.3 1.9z" fill="#e8ecf1"/><path transform="rotate(-21.161 306.465 353.256)" class="prefix__st2" d="M302.6 344.7h7.7v17h-7.7z"/><path class="prefix__st2" d="M338.8 364.6h-7.5l-2.8-17.4h7.6z"/><path class="prefix__st5" d="M330.8 363.7h8.5c.3 0 .6.2.6.5l1.1 6.7c.1.6-.4 1.2-1 1.3h-.2c-3 0-4.4-.2-8.1-.2-2.3 0-7 .2-10.2.2s-3.4-3.1-2.1-3.4c5.9-1.3 8.2-3 10.1-4.7.4-.2.8-.4 1.3-.4zM305.8 361.2l8-2.3c.3-.1.6.1.8.3l3 6c.3.6 0 1.3-.6 1.5-.1 0-.1 0-.2.1-2.9.8-4.9 1.3-8.5 2.4-2.5.7-5.1 1.9-7.5 2.7-1.7.5-5.8.6-7.9.6-3.1 0-3.8-3.3-2.5-3.4 3.4-.4 3.8-.2 5.6-1.1 3-1.3 5.8-3.2 8.1-5.6.5-.6 1-1 1.7-1.2z"/><path class="prefix__st2" d="M247.6 146.6l-8.3-3.5-3.4 9.2c3.4.5 6.8.5 10.2 0l1.5-5.7z"/><path class="prefix__st2" d="M233.2 142.9l-.3 6.1 3 3.3 3.4-9.2z"/><path transform="rotate(-21.109 305.931 350.725)" class="prefix__st6" d="M302.1 346.4h7.7v8.8h-7.7z"/><path class="prefix__st6" d="M336.1 347.2h-7.6l1.5 9h7.5z"/><path class="prefix__st3" d="M283.9 161.7c.1 1.8.3 3.7.5 5.6l29.9-9.7c4.7-1.4 8.7-4.3 11.5-8.3.1-2.7.3-5.5.5-8.4.1-1.4.2-2.9.4-4.4s.3-3.1.5-4.7l-43.3 29.9z"/><path class="prefix__st7" d="M293.7 128.9l-1-.1c.6-5 4.3-8.9 8.2-8.8v1c-3.4-.2-6.7 3.4-7.2 7.9zM299 138.1h-.2v-1c3.4.1 6.7-3.5 7.2-7.9l1 .1c-.5 4.9-4.1 8.8-8 8.8z"/><path class="prefix__st2" d="M317.7 86.7c-1.4 5.5-3.1 15.6.6 19.3 0 0-2.5 5.6-12.8 5.6-9.4 0-4.3-5.6-4.3-5.6 6.2-1.5 6.3-6 5.5-10.3l11-9z"/><path class="prefix__st6" d="M313.2 90.3l-6.5 5.3c.2 1 .3 2 .4 3 1.9 1.9 5.7-2.9 6.1-5.4.1-.9.1-1.9 0-2.9zM295.4 86.6c.9 1.6 2.5 2.7 4.2 3.1 2.4.5 3.6-1.7 2.9-3.9-.6-2-2.6-4.7-5-4.2-1.8.4-3 2.1-2.6 3.9.2.4.3.8.5 1.1z"/><path class="prefix__st5" d="M299.4 69c-3.7 1.7-5.1 16.6-.4 18.8s7.5-22.1.4-18.8z"/><path class="prefix__st2" d="M318.8 78.4c-.9 7.5-1 11.8-5 15.7-3.7 3.8-9.8 3.9-13.6.2-1.4-1.4-2.4-3.3-2.8-5.3-1.2-6.7.5-17.8 7.9-20.7 4.9-2.1 10.6.1 12.7 4.9.8 1.6 1.1 3.4.8 5.2z"/><path class="prefix__st5" d="M306.5 72.8c5.5-1.4 9.6-2.4 8.1 2.2-1.9 6.2-4.2 12.1-1.1 12.4 1.9.2 10.3-3.4 9.2-7-.9-3.1 3-4 3.7-5.6 2.6-5.8-4.8-5-3.5-8.5 1.3-3.5-6-9.1-10-6.3-6.5 4.5-17.7 4.5-11.8-3 4.2-5.3-3.3-4.2-3.3-4.2s4.5 2.7-3.1 6.8c-8 4.5-.6 16.4 11.8 13.2z"/><path class="prefix__st2" d="M321.8 86.6c-1.1 1.6-2.7 2.7-4.6 3.1-2.5.5-3.4-1.7-2.5-3.9.8-2 3.1-4.7 5.5-4.2 2.3.5 2.8 3 1.6 5z"/><path class="prefix__st0" d="M285.2 173.1s-6.8 60.5-7.3 83.5c-.5 23.9 22.9 98.4 22.9 98.4l12-5s-14-68.1-12-91.5c2.1-25.6 10.9-85.3 10.9-85.3l-26.5-.1z"/><path class="prefix__st3" d="M302 189.7c-5.4 11.2-1.8 33.3 1.2 46.4 1.1-9.2 2.4-19.3 3.7-28.6-.2-14.3-1.3-25.3-4.9-17.8z"/><path class="prefix__st0" d="M312.3 346c.1 0 1.4 3.8 1.4 3.8l-13.8 5.8-2.2-4.1 14.6-5.5zM299.5 173.1s5.2 57.5 8.6 79.1c3.8 23.6 18.5 102.2 18.5 102.2h13.8s-8.3-76.7-9.8-100.1c-1.7-25.4-5.1-81.2-5.1-81.2h-26z"/><path class="prefix__st0" d="M340.5 350.8c.1 0 .5 3.9.5 3.9h-15.2l-1.1-4.4 15.8.5z"/><path class="prefix__st3" d="M335.3 346.3c-.1 0-.1 0-.1-.1-.1-.7-7.5-70-8.9-91-1.5-22.8-4.6-73.3-4.6-73.8 0-.1 0-.1.1-.1s.1.1.1.1c0 .5 3.1 51 4.6 73.8 1.4 21 8.9 90.2 8.9 91l-.1.1z"/><path class="prefix__st5" d="M307.4 80.5c0 .6-.4 1.1-.8 1.1s-.7-.5-.6-1.1.4-1.1.8-1.1.6.5.6 1.1zM300.5 80.5c0 .6-.4 1.1-.8 1.1s-.7-.5-.7-1.1.4-1.1.8-1.1.8.5.7 1.1z"/><path class="prefix__st8" d="M302.7 80.8c-.8 1.9-1.9 3.6-3.2 5.2 1 1 2.9.5 2.9.5l.3-5.7z"/><path class="prefix__st5" d="M302.9 89c-.1 0-.2-.1-.2-.2s.1-.2.2-.2c1.5 0 3-.7 4-1.9.1-.1.2-.1.2 0 .1.1.1.2 0 .2-1 1.4-2.6 2.2-4.2 2.1zM308.6 78.6h-.3c-.8-.5-1.7-.6-2.5-.3-.2.1-.4 0-.5-.2-.1-.2 0-.4.2-.5 1.1-.4 2.3-.3 3.2.3.2.1.2.3.1.5s-.1.2-.2.2zM297.9 76.6c-.1 0-.1 0-.1-.1-.1-.1-.1-.4 0-.5.8-.9 1.9-1.3 3.1-1.2.2 0 .3.2.3.4s-.2.3-.4.3c-.9-.1-1.8.3-2.4 1-.3.1-.4.2-.5.1z"/><path class="prefix__st2" d="M335.5 117.5l-10.4-2.8s-10.2 25.1-13.8 26.7c-4.9 2.2-17.3 10-22.6 13.7-.3 1.2-.1 4.6.6 5.5 9-1.6 26.2-8.3 29.8-11.6 8.2-7.7 16.4-31.5 16.4-31.5z"/><path class="prefix__st0" d="M328.2 365.1c-.5 0-1-.1-1.4-.4-.3-.2-.4-.6-.3-.9 0-.2.1-.4.3-.5.8-.4 3.2 1.1 3.5 1.2.1 0 .1.1.1.2s-.1.1-.1.1c-.7.2-1.4.3-2.1.3zm-1-1.6h-.2c-.1 0-.1.1-.1.2-.1.2 0 .5.2.6.4.4 1.4.4 2.7.1-.8-.4-1.7-.7-2.6-.9z"/><path class="prefix__st0" d="M330.2 364.8c-.1 0-.1 0 0 0-.8-.4-2.2-2.1-2-2.9.1-.3.3-.5.6-.5s.5 0 .8.2c.8.7.9 2.9.9 3 0 .1 0 .1-.1.2h-.2zm-1.4-3c-.3 0-.3.1-.3.2-.1.5.8 1.7 1.5 2.3 0-.8-.3-1.7-.8-2.4-.1-.1-.2-.2-.4-.1zM301.7 363.8c-.6.2-1.3.2-1.9 0-.3-.2-.5-.4-.5-.8 0-.2.1-.4.2-.5.8-.7 4.1 0 4.4.1.1 0 .1.1.1.2s0 .1-.1.2c-.7.3-1.4.6-2.2.8zm-1.6-1.2c-.1 0-.2.1-.3.1-.1 0-.1.1-.1.2 0 .2.1.4.3.5.5.3 1.8.1 3.4-.6-1.1-.2-2.2-.3-3.3-.2z"/><path class="prefix__st0" d="M303.9 363c-1.1-.2-3.1-1.3-3.1-2.2 0-.2.1-.5.6-.6.3-.1.7-.1 1 .1 1.1.5 1.6 2.5 1.7 2.5l-.2.2c.1 0 .1 0 0 0zm-2.3-2.5h-.1c-.3.1-.3.2-.3.3 0 .5 1.5 1.5 2.5 1.8-.2-.8-.7-1.5-1.4-2-.3-.2-.5-.2-.7-.1z"/><path class="prefix__st2" d="M289.5 154.5l-10.4 4.8-1.2 3 3.9 2.6s7.2-.8 9.2-5.4l-1.5-5z"/><path class="prefix__st5" d="M290 160.8c-.2-2-.9-3.9-1.9-5.7l1.6-1.2c1.2 2 2 4.2 2.3 6.6l-2 .3z"/><path class="prefix__st5" d="M291.8 156c.6.9.3 2.2-.6 2.8s-2.2.3-2.8-.6c-.6-.9-.3-2.2.6-2.8.1-.1.2-.1.3-.2.9-.5 2-.1 2.5.8z"/><path class="prefix__st2" d="M272.1 163.2l1.4 1.4 9.3-4-3.7-1.3z"/><path class="prefix__st3" d="M312.3 346c.1 0 1.4 3.8 1.4 3.8l-13.8 5.8-2.2-4.1 14.6-5.5zM340.5 350.8c.1 0 .5 3.9.5 3.9h-15.2l-1.1-4.4 15.8.5z"/><path class="prefix__st0" d="M338.2 114.6c2.8 8.9-8 21-8 21l-14.9-6.1c1.8-5.1 3.8-10.2 6.1-15.1 4.6-9.8 14-8.7 16.8.2z"/><path class="prefix__st3" d="M338.2 114.6c2.8 8.9-8 21-8 21l-14.9-6.1c1.8-5.1 3.8-10.2 6.1-15.1 4.6-9.8 14-8.7 16.8.2z"/></g><g id="prefix__freepik--Screen--inject-22"><path class="prefix__st0" d="M184.3 25.7h6.4v1h-6.4z"/><path transform="matrix(.04501 -.999 .999 .04501 186.143 344.941)" class="prefix__st0" d="M264.9 74.6h17.2v1h-17.2z"/><path class="prefix__st0" d="M271.4 30.4h-118l-11 245.7h118z"/><path opacity=".56" fill="#fafafa" d="M267.9 33.7h-118l-11 245.8h118z"/><path opacity=".07" fill="#fde24f" d="M264.3 37.1h-118l-11 245.7h118z"/><path class="prefix__st7" d="M250.9 144.3H150.2l-.9 18.8h100.8z"/><path class="prefix__st0" d="M205.6 130.6h-54.8l-.4 8.4h54.8z"/><path class="prefix__st7" d="M248.6 195H147.9l-.8 18.8h100.7z"/><path opacity=".47" fill="#fde24f" d="M230.2 239.2h-67.8l-1 22.5h67.8z"/><path class="prefix__st7" d="M225.6 265.2h-67.7-.1v-.1l1-22.5c0-.1 0-.1.1-.1h67.8v.1l-1 22.6h-.1zM158 265h67.5l1-22.3H159l-1 22.3z"/><path class="prefix__st0" d="M193.7 181.3h-45.2l-.3 8.4h45.2z"/><path class="prefix__st7" d="M228.9 83.5c-.3 5.5-2.2 10.7-5.6 15.1-5 6.6-12.9 10.5-21.2 10.6-13.4.1-24.4-10.7-24.5-24.1v-1.5c.7-14.3 12.5-25.5 26.8-25.6 13.4-.1 24.4 10.6 24.5 24.1v1.4z"/><path class="prefix__st0" d="M231.3 63.3c-.1 1.5-.6 2.9-1.5 4-1.3 1.8-3.4 2.8-5.6 2.8-2.1 0-4.2-1-5.4-2.8-.8-1.2-1.2-2.6-1.1-4 .2-3.8 3.3-6.8 7.1-6.8 3.6 0 6.5 2.8 6.5 6.4v.4z"/><path class="prefix__st5" d="M161 153.7c-.1 1.7-1.5 3-3.1 3s-2.9-1.2-2.9-2.8v-.2c.1-1.7 1.5-3 3.1-3s2.9 1.3 2.9 2.8v.2zM174.5 153.7c-.1 1.7-1.5 3-3.1 3s-2.9-1.3-2.9-2.8v-.2c.1-1.7 1.5-3 3.1-3s2.9 1.2 2.9 2.8v.2zM188 153.7c-.1 1.7-1.5 3-3.1 3s-2.9-1.3-2.9-2.8v-.2c.1-1.7 1.5-3 3.1-3s2.9 1.2 2.9 2.8v.2zM158.8 204.4c-.1 1.7-1.5 3-3.1 3s-2.9-1.3-2.9-2.8v-.2c.1-1.7 1.5-3 3.1-3s2.9 1.3 2.9 2.8v.2zM172.2 204.4c-.1 1.7-1.5 3-3.1 3s-2.9-1.2-2.9-2.8v-.2c.1-1.7 1.5-3 3.1-3s2.9 1.3 2.9 2.8v.2zM185.8 204.4c-.1 1.7-1.5 3-3.1 3s-2.9-1.3-2.9-2.9v-.1c.1-1.7 1.5-3 3.1-3s2.9 1.2 2.9 2.8v.2zM199.2 204.4c-.1 1.7-1.5 3-3.1 3s-2.9-1.3-2.9-2.9v-.1c.1-1.7 1.5-3 3.1-3s2.9 1.3 2.9 2.8v.2zM212.8 204.4c-.1 1.7-1.5 3-3.1 3s-2.9-1.2-2.9-2.8v-.2c.1-1.7 1.5-3 3.1-3s2.9 1.3 2.9 2.8v.2z"/><ellipse transform="rotate(-44.36 203.623 74.97)" class="prefix__st0" cx="203.6" cy="75" rx="10.6" ry="10.1"/><path class="prefix__st0" d="M223.3 98.6c-5 6.6-12.9 10.5-21.2 10.6-8.1.1-15.7-3.9-20.2-10.6 4.9-4.8 12.6-8 21.1-8s15.9 3.2 20.3 8z"/><ellipse transform="rotate(-44.36 203.623 74.97)" class="prefix__st12" cx="203.6" cy="75" rx="10.6" ry="10.1"/><path class="prefix__st12" d="M223.3 98.6c-5 6.6-12.9 10.5-21.2 10.6-8.1.1-15.7-3.9-20.2-10.6 4.9-4.8 12.6-8 21.1-8s15.9 3.2 20.3 8z"/></g><g id="prefix__freepik--character-1--inject-22"><path class="prefix__st2" d="M76.2 167.6c-.9 2.1-1.9 4.4-2.8 6.6s-1.8 4.5-2.5 6.8c-1.6 4.5-2.8 9.1-3.6 13.8l-.2 1.5c0 .3 0 .5.1.8.2.8.6 1.6 1.1 2.3 1.3 1.8 2.8 3.5 4.4 5 1.8 1.6 3.6 3.2 5.5 4.6 1.9 1.5 3.9 2.9 5.9 4.3l-1.9 3.5c-4.8-2.1-9.3-4.7-13.4-7.7-2.2-1.6-4.3-3.5-6-5.7-1-1.3-1.8-2.7-2.4-4.3-.3-1-.5-2-.5-3v-1.3l.1-1c.6-5.2 1.7-10.3 3.3-15.3.8-2.5 1.6-4.9 2.6-7.3s1.9-4.7 3.1-7.2l7.2 3.6z"/><path class="prefix__st2" d="M82.7 212.6l7.1-3.6-1.8 7.8s-4.9 1.4-7.1-1l1.8-3.2z"/><path class="prefix__st2" d="M96.2 210.3l-1.9 6.4-6.4.1 1.8-7.8z"/><path class="prefix__st8" d="M106.2 130.2c.4 1.4.9 2.7 1.6 4-.4.4-1 .6-1.6.5v-4.5z"/><ellipse class="prefix__st5" cx="106" cy="129.1" rx=".8" ry="1.1"/><path class="prefix__st5" d="M105.8 128l1.5-.4c0-.1-.8 1.1-1.5.4z"/><path class="prefix__st2" d="M86.7 137.5c.9 4.6 1.8 13.2-1.4 16.3 0 0 1.3 4.7 9.9 4.7 9.5 0 4.5-4.7 4.5-4.7-5.2-1.2-5.1-5.1-4.1-8.7l-8.9-7.6z"/><path class="prefix__st2" d="M84.1 126.9c.5 7.8.5 11.1 4.4 15.1 5.9 6 15.4 3.7 17.2-4 1.7-7 .6-18.5-7-21.6-5.4-2.2-11.6.4-13.9 5.8-.5 1.4-.8 3.1-.7 4.7z"/><path class="prefix__st5" d="M84.9 118.2c-3.9 1.4-9.1.4-7.1 12.4 2.2 12.7-1.2 16.9-1.2 16.9s14.8 3.1 29.9-.2c0 0-4.6-8.1-3.3-14 1.6-7.5.4-10.3.4-10.3s-13.2-6.8-18.7-4.8z"/><path class="prefix__st2" d="M101.4 131c0 1.5.4 2.9 1.2 4.2 1.1 1.6 2.3 1 2.6-.7.3-1.5.1-4.2-1.3-5.2s-2.5-.1-2.5 1.7z"/><path class="prefix__st5" d="M81.5 119.5c-1.1-3.1 4.2-8 15.5-6s11.8 11.4 11.8 11.4l-2.3-2.7.1 2.9-11.6 2.2-13.5-7.8z"/><path class="prefix__st0" d="M82.5 154.3c-.1-.9.5-1.8 1.4-2 3.5-.6 11.5-1.8 15.5-1.2 3 .4 3.8 2.2 3.9 3.6.1 1-.6 1.8-1.6 1.9h-.2l-17.4-.8c-.8 0-1.5-.6-1.6-1.5z"/><path class="prefix__st13" d="M82.5 154.3c-.1-.9.5-1.8 1.4-2 3.5-.6 11.5-1.8 15.5-1.2 3 .4 3.8 2.2 3.9 3.6.1 1-.6 1.8-1.6 1.9h-.2l-17.4-.8c-.8 0-1.5-.6-1.6-1.5z"/><path class="prefix__st2" d="M92.5 329l6.5 4.5 10.8-14.6-6.5-4.5zM77.5 328.7l6.8 3.9 9.5-15.5-6.8-3.8z"/><path class="prefix__st6" d="M109.8 318.9l-5.6 7.5-6.5-4.5 5.6-7.5zM87 313.3l6.8 3.9-4.9 7.9-6.8-3.9z"/><path class="prefix__st0" d="M98 203.2s25.2 31.7 20.4 62.1c-3.8 24.5-25.9 57.7-25.9 57.7l-10.4-5.2c7.3-14.7 13.6-29.9 18.7-45.4 3.2-9.8 1.7-20.5-4-29.1-12.8-18.6-33.2-7.5-19.4-40.1H98z"/><path class="prefix__st13" d="M98 203.2s25.2 31.7 20.4 62.1c-3.8 24.5-25.9 57.7-25.9 57.7l-10.4-5.2c7.3-14.7 13.6-29.9 18.7-45.4 3.2-9.8 1.7-20.5-4-29.1-12.8-18.6-33.2-7.5-19.4-40.1H98z"/><path d="M110.3 223.5l-3.7-3.6c0 .3 7.1 44.1 9.1 56.4 1.2-3.6 2.1-7.3 2.7-11 2.4-14.9-2.5-30.1-8.1-41.8z" opacity=".4"/><path class="prefix__st0" d="M109.2 203.2s30.3 39.9 31.2 63.8c.7 20-33 58.8-33 58.8l-9.8-6.3s19.7-27.5 24.7-50c-1.9-22.3-42.5-66.2-42.5-66.2h29.4z"/><path class="prefix__st13" d="M109.2 203.2s30.3 39.9 31.2 63.8c.7 20-33 58.8-33 58.8l-9.8-6.3s19.7-27.5 24.7-50c-1.9-22.3-42.5-66.2-42.5-66.2h29.4z"/><path class="prefix__st0" d="M71.7 155.6c-3.2.8-6.3 12.6-6.3 12.6l12.7 8.5s4.2-9.3 2.7-13.4c-1.6-4.4-5-8.7-9.1-7.7z"/><path class="prefix__st3" d="M74.2 163.2l-.9 10.3 4.7 3.2c1.3-2.9 2.3-6 2.9-9.1l-6.7-4.4z"/><path class="prefix__st0" d="M113 155.8s3.7 1.3-3.8 47.3H77.3c.5-13 .6-21-5.7-47.6 4.5-.9 9-1.5 13.5-1.8 4.8-.3 9.7-.3 14.5 0 6.3.7 13.4 2.1 13.4 2.1z"/><path class="prefix__st2" d="M116.2 163.2c.7 2 1.5 4.1 2.3 6.2l2.4 6.3 2.4 6.3.6 1.6.3.8.1.4v.1c-.2-.3-.4-.5-.7-.6-.4-.2-.8-.4-1.3-.4-.4 0-.8.1-1.1.2-.5.2-.5.3-.4.3.1-.1.2-.1.2-.2.6-.7 1-1.5 1.4-2.3.5-.9.9-1.9 1.4-2.9.9-2 1.7-4.1 2.5-6.2s1.6-4.2 2.3-6.3l2.3-6.4 3.9 1c-.8 4.6-1.7 9-2.9 13.5-.6 2.2-1.2 4.5-2 6.7-.4 1.1-.8 2.2-1.3 3.4-.5 1.2-1.1 2.4-1.8 3.6-.3.4-.6.7-.9 1.1-.5.6-1.1 1-1.8 1.3-.6.3-1.3.4-1.9.4-.7 0-1.5-.2-2.1-.6-.8-.5-1.4-1.1-1.8-1.9-.1-.3-.3-.5-.4-.7l-.2-.4-.4-.8-.8-1.6c-1-2.1-2-4.2-2.9-6.3s-1.8-4.2-2.6-6.4-1.6-4.3-2.4-6.6l7.6-2.6z"/><path class="prefix__st0" d="M113 155.8c3.8.9 8.1 12.2 8.1 12.2l-11.4 9.7s-7.4-12.3-5.9-16.4c1.6-4.2 4.2-6.7 9.2-5.5z"/><path class="prefix__st2" d="M132.8 156.4l4-3.3 2.8 4.3-2.1 3.6s-3.3 3-6.1 1.5c-1-2.2-.4-4.7 1.4-6.1z"/><path class="prefix__st2" d="M144 153l-.3 1.1-6.3 1.1-.7-2.2z"/><path class="prefix__st0" d="M108.2 326.2l-11.5-7.4 2.1-3.5 12.8 7.9z"/><path class="prefix__st5" d="M88.8 332.1c-1-.1-2-.5-2.8-1-.1 0-.1-.1-.1-.2s.1-.1.1-.1c.3-.1 3-.9 3.8-.3.2.1.3.4.2.6 0 .4-.2.7-.6.9-.2 0-.4.1-.6.1zm-2.3-1.1c1.2.6 2.2.9 2.7.6.2-.1.3-.3.4-.6 0-.2 0-.2-.1-.3-.4-.3-1.9 0-3 .3z"/><path class="prefix__st5" d="M86 331.2c-.1 0-.1 0-.1-.1v-.2c0-.1.6-2.3 1.7-2.8.3-.1.6-.1.8 0 .3.1.5.4.5.7-.1 1-2 2.2-2.9 2.4zm2-2.8c-.1 0-.2 0-.3.1-.6.3-1.1 1.5-1.4 2.2.9-.4 2.1-1.4 2.1-1.9 0-.1 0-.2-.2-.3-.1-.1-.2-.1-.2-.1zM103 336.4c-1.1 0-2.7-1.5-3.6-2.3v-.2c0-.1.1-.1.2-.1.4 0 3.9.5 4.4 1.5.1.2.1.4 0 .6-.1.3-.4.5-.8.6l-.2-.1zm-2.9-2.2c1.3 1.2 2.4 1.9 3 1.8.2 0 .4-.2.5-.4v-.2c-.2-.5-2.1-1-3.5-1.2z"/><path class="prefix__st5" d="M100.2 334.2h-.7c-.1 0-.1-.1-.1-.1v-.2c.1-.1 1.4-1.7 2.7-1.8.4 0 .7.1 1 .3.4.3.4.6.3.8-.3.6-2 1-3.2 1zm-.2-.4c1.1.1 2.9-.3 3.1-.8 0 0 .1-.2-.2-.4-.2-.2-.5-.3-.8-.2-.8.2-1.5.7-2.1 1.4z"/><path class="prefix__st0" d="M86.3 330.1l-8.5-2.4c-.3-.1-.6.1-.8.4l-2.9 6.4c-.3.6 0 1.4.7 1.6h.1c3 .8 4.4 1 8.2 2.1 2.3.6 5.6 1.8 8.8 2.7s4.2-2.2 3-2.9c-5.6-2.9-6-5-7.5-7.2-.2-.3-.7-.6-1.1-.7z"/><path class="prefix__st0" d="M99.7 332.9l-7.2-5c-.3-.2-.6-.2-.8.1l-4.8 5.2c-.5.5-.4 1.3.1 1.8l.1.1c2.6 1.7 3.9 2.4 7.1 4.6 2 1.4 5.9 4.4 8.6 6.3s4.7-.7 3.8-1.7c-4.3-4.6-5.2-7.5-5.9-10.1-.3-.6-.6-1-1-1.3zM93.8 323.6l-13-6.5 1.3-3.5 14 6.8zM76.9 201.3l-1.1 2.9c-.1.2.1.4.5.4h33.1c.3 0 .5-.1.6-.3l.3-2.9c0-.2-.2-.4-.5-.4H77.4c-.2.1-.4.1-.5.3z"/><path d="M76.9 201.3l-1.1 2.9c-.1.2.1.4.5.4h33.1c.3 0 .5-.1.6-.3l.3-2.9c0-.2-.2-.4-.5-.4H77.4c-.2.1-.4.1-.5.3z" opacity=".4" fill="#fff"/><path class="prefix__st0" d="M82.1 204.9h-.9c-.2 0-.3-.1-.3-.2l.4-3.7c0-.1.2-.2.3-.2h.9c.2 0 .3.1.3.2l-.4 3.7c0 .1-.2.2-.3.2zM102.5 204.9h-.9c-.2 0-.3-.1-.3-.2l.4-3.7c0-.1.2-.2.3-.2h.9c.2 0 .3.1.3.2l-.4 3.7c0 .1-.1.2-.3.2z"/><ellipse cx="81.3" cy="372.3" rx="26.8" ry="1.9" fill="#f5f5f5"/><path d="M97.6 369.6c-4.7-1.4-10-3.1-13.2-5-.1-.1-.2-.1-.3-.1V343h9.6c1.6-.1 2.8-1.4 2.7-3-.1-1.4-1.2-2.6-2.7-2.7h-9.5v-97.8h-5.8v97.8h-9.5c-1.6-.1-2.9 1.1-3 2.7s1.1 2.9 2.7 3h9.8v21.4c-.1 0-.2.1-.3.1-3.2 1.9-8.4 3.6-13.2 5-.7.2-1.2 1-.9 1.7.2.6.7 1 1.3 1h31.9c.8-.1 1.4-.7 1.3-1.5 0-.5-.4-.9-.9-1.1z" fill="#e0e0e0"/><path class="prefix__st0" d="M63.5 229.5h35.6c2.9 0 5.2 2.3 5.2 5.2v10.6c0 2.9-2.3 5.2-5.2 5.2H63.5c-2.9 0-5.2-2.3-5.2-5.2v-10.6c.1-2.9 2.4-5.2 5.2-5.2z"/><path class="prefix__st0" d="M63.2 250.4v1.8c0 1.5 1.6 2.7 3.6 2.7h29c2 0 3.6-1.2 3.6-2.7v-1.8H63.2z"/><path d="M63.2 250.4v1.8c0 1.5 1.6 2.7 3.6 2.7h29c2 0 3.6-1.2 3.6-2.7v-1.8H63.2z" opacity=".3" fill="#fff"/></g></svg>