<svg version="1.1" id="prefix__Layer_1" xmlns="http://www.w3.org/2000/svg" x="0" y="0" viewBox="0 0 500 500" xml:space="preserve"><style>.prefix__st0{fill:#fde24f}.prefix__st2{fill:#fff}.prefix__st2,.prefix__st4,.prefix__st5{opacity:.2;enable-background:new}.prefix__st5{opacity:.5;fill:#fff}.prefix__st6{opacity:.7;fill:#fff}.prefix__st10,.prefix__st6,.prefix__st8{enable-background:new}.prefix__st8{opacity:.4;fill:#fff}.prefix__st10{opacity:.6}.prefix__st10,.prefix__st12{fill:#fff}.prefix__st13{opacity:.6}.prefix__st14,.prefix__st15{opacity:.3;enable-background:new}.prefix__st15{opacity:.5}.prefix__st16{fill:#263238}.prefix__st17{fill:#ffc3bd}.prefix__st18{opacity:.1;enable-background:new}.prefix__st19{fill:#ed893e}.prefix__st20{fill:#ffb573}</style><g id="prefix__freepik--background-simple--inject-21"><path class="prefix__st0" d="M62.8 234L270.3 59.2c30.1-25.4 75-21.5 100.4 8.6 1 1.2 2 2.4 2.9 3.7l73.6 99.8c23.3 31.7 16.6 76.3-15.1 99.7-4 2.9-8.3 5.5-12.8 7.5L163.9 394.2c-48.1 21.8-104.8.5-126.6-47.6-1.5-3.4-2.9-6.9-4-10.4-11.8-36.9-.1-77.2 29.5-102.2z"/><path d="M62.8 234L270.3 59.2c30.1-25.4 75-21.5 100.4 8.6 1 1.2 2 2.4 2.9 3.7l73.6 99.8c23.3 31.7 16.6 76.3-15.1 99.7-4 2.9-8.3 5.5-12.8 7.5L163.9 394.2c-48.1 21.8-104.8.5-126.6-47.6-1.5-3.4-2.9-6.9-4-10.4-11.8-36.9-.1-77.2 29.5-102.2z" opacity=".9" fill="#fff"/></g><g id="prefix__freepik--Device--inject-21"><path class="prefix__st0" d="M299.2 408.5l-26.3-58.3h-61.5l9.4 54.5c.5 2.7-1.3 5.2-4 5.7-.3 0-.5.1-.8.1h-27c-1.4 0-2.6 1.2-2.6 2.6v2.9c0 1.4 1.2 2.6 2.6 2.6h108.2c1.6 0 2.8-1.3 2.8-2.8v-3c.2-1.5-.2-2.9-.8-4.3zm-28.4-7.2h-29.5c-1.9 0-3.6-1.4-3.9-3.3l-4.5-25.7c-.4-2.1 1.1-4.2 3.2-4.6.2 0 .5-.1.7-.1h22.3c1.6 0 3 .9 3.6 2.3l11.6 25.7c.9 2 0 4.3-2 5.2-.4.4-1 .5-1.5.5z"/><path class="prefix__st2" d="M299.2 408.5l-26.3-58.3h-61.5l9.4 54.5c.5 2.7-1.3 5.2-4 5.7-.3 0-.5.1-.8.1h-27c-1.4 0-2.6 1.2-2.6 2.6v2.9c0 1.4 1.2 2.6 2.6 2.6h108.2c1.6 0 2.8-1.3 2.8-2.8v-3c.2-1.5-.2-2.9-.8-4.3zm-28.4-7.2h-29.5c-1.9 0-3.6-1.4-3.9-3.3l-4.5-25.7c-.4-2.1 1.1-4.2 3.2-4.6.2 0 .5-.1.7-.1h22.3c1.6 0 3 .9 3.6 2.3l11.6 25.7c.9 2 0 4.3-2 5.2-.4.4-1 .5-1.5.5z"/><path class="prefix__st0" d="M240.3 367.6h-3.5c-2.2 0-4 1.8-4 3.9 0 .2 0 .5.1.7l4.5 25.7c.3 1.9 2 3.3 3.9 3.3h3.5c-1.9 0-3.6-1.4-3.9-3.3l-4.5-25.7c-.4-2.1 1.1-4.2 3.2-4.6.2.1.5 0 .7 0zM302.7 408.5l-26.3-58.2h-3.5l26.3 58.2c.6 1.4.9 2.8.9 4.3v3c0 1.6-1.3 2.8-2.8 2.8h3.5c1.6 0 2.8-1.3 2.8-2.8v-3c.1-1.4-.3-2.9-.9-4.3z"/><g opacity=".2"><path d="M240.3 367.6h-3.5c-2.2 0-4 1.8-4 3.9 0 .2 0 .5.1.7l4.5 25.7c.3 1.9 2 3.3 3.9 3.3h3.5c-1.9 0-3.6-1.4-3.9-3.3l-4.5-25.7c-.4-2.1 1.1-4.2 3.2-4.6.2.1.5 0 .7 0zM302.7 408.5l-26.3-58.2h-3.5l26.3 58.2c.6 1.4.9 2.8.9 4.3v3c0 1.6-1.3 2.8-2.8 2.8h3.5c1.6 0 2.8-1.3 2.8-2.8v-3c.1-1.4-.3-2.9-.9-4.3z"/></g><path class="prefix__st4" d="M272.9 350.2h-61.4l2.4 14h65.3z"/><path class="prefix__st0" d="M361.1 356.4H98.9c-4.8.1-8.7-3.7-8.8-8.5 0-.4 0-.8.1-1.1l16.6-189.5c.5-5.4 5-9.5 10.4-9.6h262.2c4.8-.1 8.7 3.7 8.8 8.5 0 .4 0 .8-.1 1.1l-16.6 189.5c-.5 5.3-5 9.5-10.4 9.6z"/><path class="prefix__st5" d="M361.1 356.4H98.9c-4.8.1-8.7-3.7-8.8-8.5 0-.4 0-.8.1-1.1l16.6-189.5c.5-5.4 5-9.5 10.4-9.6h262.2c4.8-.1 8.7 3.7 8.8 8.5 0 .4 0 .8-.1 1.1l-16.6 189.5c-.5 5.3-5 9.5-10.4 9.6z"/><path class="prefix__st0" d="M91.9 326.3l-1.8 20.5c-.5 4.7 2.9 9 7.6 9.5.4 0 .8.1 1.1.1H361c5.4-.1 9.9-4.2 10.4-9.6l1.8-20.5H91.9z"/><path class="prefix__st6" d="M91.9 326.3l-1.8 20.5c-.5 4.7 2.9 9 7.6 9.5.4 0 .8.1 1.1.1H361c5.4-.1 9.9-4.2 10.4-9.6l1.8-20.5H91.9z"/><path class="prefix__st0" d="M364.1 320.5H102.2c-2.6 0-4.7-2-4.8-4.6v-.6l13.7-156.6c.3-2.9 2.7-5.1 5.7-5.2h261.9c2.6 0 4.7 2 4.8 4.6v.6l-13.7 156.6c-.4 2.9-2.8 5.1-5.7 5.2z"/><path d="M364.1 320.5H102.2c-2.6 0-4.7-2-4.8-4.6v-.6l13.7-156.6c.3-2.9 2.7-5.1 5.7-5.2h261.9c2.6 0 4.7 2 4.8 4.6v.6l-13.7 156.6c-.4 2.9-2.8 5.1-5.7 5.2z" opacity=".8" fill="#fff"/><path class="prefix__st0" d="M385.1 147.7h-5.8c4.8-.1 8.7 3.7 8.8 8.5 0 .4 0 .8-.1 1.1l-16.6 189.4c-.5 5.4-5 9.5-10.4 9.6h5.8c5.4-.1 9.9-4.2 10.4-9.6l16.6-189.5c.5-4.7-2.9-9-7.6-9.5h-1.1z"/><path class="prefix__st2" d="M385.1 147.7h-5.8c4.8-.1 8.7 3.7 8.8 8.5 0 .4 0 .8-.1 1.1l-16.6 189.4c-.5 5.4-5 9.5-10.4 9.6h5.8c5.4-.1 9.9-4.2 10.4-9.6l16.6-189.5c.5-4.7-2.9-9-7.6-9.5h-1.1z"/><path class="prefix__st0" d="M227.1 248.7c.1-1.6.2-3.2.1-4.8l6.3-3.3c-.2-1.9-.5-3.8-1-5.6l-6.9.1c-1-3-2.3-5.8-4.1-8.3l4-5.9c-1.1-1.5-2.4-2.8-3.8-4.1l-6.2 3.5c-2.4-2-5.1-3.6-7.9-4.8l.7-6.9c-1.8-.6-3.6-1.1-5.5-1.5l-3.9 6a38.663 38.663 0 00-9.6 0l-2.8-6c-1.9.4-3.9.9-5.7 1.5l-.5 6.9c-3.1 1.2-6.1 2.8-8.8 4.8l-5.6-3.5c-1.6 1.3-3.1 2.7-4.5 4.1l3 5.9c-2.2 2.5-4.1 5.3-5.6 8.3l-6.9-.1c-.8 1.8-1.5 3.7-2 5.6l5.7 3.3c-.4 1.6-.6 3.2-.8 4.8-.1 1.6-.2 3.2-.1 4.8l-6.3 3.3c.2 1.9.5 3.8 1 5.6l6.9-.1c.9 3 2.3 5.8 4.1 8.4l-4.1 5.9c1.2 1.5 2.4 2.8 3.8 4.1l6.2-3.5c2.4 2 5.1 3.6 7.9 4.8l-.7 6.9c1.8.6 3.6 1.1 5.5 1.5l3.9-6a38.663 38.663 0 009.6 0l2.8 6c1.9-.4 3.9-.9 5.7-1.5l.5-6.9c3.1-1.2 6-2.8 8.8-4.8l5.6 3.5c1.6-1.3 3.1-2.6 4.5-4.1l-3-5.9c2.2-2.6 4.1-5.4 5.6-8.4l6.9.1c.8-1.8 1.5-3.7 2-5.6l-5.7-3.3c.5-1.5.7-3.1.9-4.8zM190 261c-6.1.1-11.1-4.7-11.2-10.8 0-.5 0-1 .1-1.4.7-6.9 6.4-12.1 13.3-12.2 6.1-.1 11.1 4.7 11.2 10.8 0 .5 0 .9-.1 1.4-.7 6.8-6.4 12.1-13.3 12.2z"/><path class="prefix__st8" d="M227.1 248.7c.1-1.6.2-3.2.1-4.8l6.3-3.3c-.2-1.9-.5-3.8-1-5.6l-6.9.1c-1-3-2.3-5.8-4.1-8.3l4-5.9c-1.1-1.5-2.4-2.8-3.8-4.1l-6.2 3.5c-2.4-2-5.1-3.6-7.9-4.8l.7-6.9c-1.8-.6-3.6-1.1-5.5-1.5l-3.9 6a38.663 38.663 0 00-9.6 0l-2.8-6c-1.9.4-3.9.9-5.7 1.5l-.5 6.9c-3.1 1.2-6.1 2.8-8.8 4.8l-5.6-3.5c-1.6 1.3-3.1 2.7-4.5 4.1l3 5.9c-2.2 2.5-4.1 5.3-5.6 8.3l-6.9-.1c-.8 1.8-1.5 3.7-2 5.6l5.7 3.3c-.4 1.6-.6 3.2-.8 4.8-.1 1.6-.2 3.2-.1 4.8l-6.3 3.3c.2 1.9.5 3.8 1 5.6l6.9-.1c.9 3 2.3 5.8 4.1 8.4l-4.1 5.9c1.2 1.5 2.4 2.8 3.8 4.1l6.2-3.5c2.4 2 5.1 3.6 7.9 4.8l-.7 6.9c1.8.6 3.6 1.1 5.5 1.5l3.9-6a38.663 38.663 0 009.6 0l2.8 6c1.9-.4 3.9-.9 5.7-1.5l.5-6.9c3.1-1.2 6-2.8 8.8-4.8l5.6 3.5c1.6-1.3 3.1-2.6 4.5-4.1l-3-5.9c2.2-2.6 4.1-5.4 5.6-8.4l6.9.1c.8-1.8 1.5-3.7 2-5.6l-5.7-3.3c.5-1.5.7-3.1.9-4.8zM190 261c-6.1.1-11.1-4.7-11.2-10.8 0-.5 0-1 .1-1.4.7-6.9 6.4-12.1 13.3-12.2 6.1-.1 11.1 4.7 11.2 10.8 0 .5 0 .9-.1 1.4-.7 6.8-6.4 12.1-13.3 12.2z"/><path class="prefix__st0" d="M325.3 210.5c.1-1.2.1-2.4.1-3.6l10.5-5.6c-.2-1.5-.5-3.1-.8-4.6l-11.5.2c-.8-2.2-1.8-4.4-3.1-6.4l6.7-9.8c-1-1.2-2-2.3-3.1-3.4l-10.3 5.9c-1.9-1.5-3.9-2.7-6-3.7l1.2-11.4c-1.5-.5-3-.9-4.5-1.2l-6.4 9.9c-1.2-.1-2.4-.2-3.6-.2-1.2 0-2.5.1-3.7.2l-4.7-10c-1.6.3-3.2.7-4.7 1.2l-.8 11.4c-2.3 1-4.6 2.2-6.7 3.7l-9.3-5.9c-1.3 1.1-2.5 2.2-3.6 3.4l5 9.8c-1.6 2-3 4.1-4.2 6.4l-11.4-.2c-.6 1.5-1.2 3-1.6 4.6l9.5 5.6c-.2 1.2-.4 2.4-.5 3.6-.1 1.2-.1 2.4-.1 3.7l-10.5 5.6c.2 1.5.5 3.1.8 4.6l11.5-.2c.8 2.2 1.8 4.4 3.1 6.4l-6.7 9.8c1 1.2 2 2.3 3.1 3.4l10.3-5.9c1.8 1.5 3.9 2.7 6 3.7l-1.2 11.4c1.5.5 3 .9 4.5 1.2l6.4-9.9c1.2.1 2.4.2 3.6.2 1.2 0 2.5-.1 3.7-.2l4.7 10c1.6-.3 3.2-.7 4.7-1.2l.8-11.4c2.3-1 4.6-2.2 6.7-3.7l9.3 5.9c1.3-1.1 2.5-2.2 3.7-3.4l-5-9.8c1.6-2 3-4.1 4.2-6.4l11.4.2c.6-1.5 1.2-3 1.6-4.6l-9.5-5.6c.1-1.3.3-2.5.4-3.7zm-35.1 14.4c-7.1.1-13-5.5-13.2-12.7 0-.6 0-1.2.1-1.7.8-8 7.5-14.2 15.6-14.3 7.1-.1 13 5.6 13.1 12.7 0 .5 0 1.1-.1 1.6-.6 8-7.4 14.2-15.5 14.4z"/><path d="M325.3 210.5c.1-1.2.1-2.4.1-3.6l10.5-5.6c-.2-1.5-.5-3.1-.8-4.6l-11.5.2c-.8-2.2-1.8-4.4-3.1-6.4l6.7-9.8c-1-1.2-2-2.3-3.1-3.4l-10.3 5.9c-1.9-1.5-3.9-2.7-6-3.7l1.2-11.4c-1.5-.5-3-.9-4.5-1.2l-6.4 9.9c-1.2-.1-2.4-.2-3.6-.2-1.2 0-2.5.1-3.7.2l-4.7-10c-1.6.3-3.2.7-4.7 1.2l-.8 11.4c-2.3 1-4.6 2.2-6.7 3.7l-9.3-5.9c-1.3 1.1-2.5 2.2-3.6 3.4l5 9.8c-1.6 2-3 4.1-4.2 6.4l-11.4-.2c-.6 1.5-1.2 3-1.6 4.6l9.5 5.6c-.2 1.2-.4 2.4-.5 3.6-.1 1.2-.1 2.4-.1 3.7l-10.5 5.6c.2 1.5.5 3.1.8 4.6l11.5-.2c.8 2.2 1.8 4.4 3.1 6.4l-6.7 9.8c1 1.2 2 2.3 3.1 3.4l10.3-5.9c1.8 1.5 3.9 2.7 6 3.7l-1.2 11.4c1.5.5 3 .9 4.5 1.2l6.4-9.9c1.2.1 2.4.2 3.6.2 1.2 0 2.5-.1 3.7-.2l4.7 10c1.6-.3 3.2-.7 4.7-1.2l.8-11.4c2.3-1 4.6-2.2 6.7-3.7l9.3 5.9c1.3-1.1 2.5-2.2 3.7-3.4l-5-9.8c1.6-2 3-4.1 4.2-6.4l11.4.2c.6-1.5 1.2-3 1.6-4.6l-9.5-5.6c.1-1.3.3-2.5.4-3.7zm-35.1 14.4c-7.1.1-13-5.5-13.2-12.7 0-.6 0-1.2.1-1.7.8-8 7.5-14.2 15.6-14.3 7.1-.1 13 5.6 13.1 12.7 0 .5 0 1.1-.1 1.6-.6 8-7.4 14.2-15.5 14.4z" opacity=".3" fill="#fff"/><path class="prefix__st0" d="M278 278.1c.1-.8.1-1.6.1-2.4l7-3.7c-.1-1-.3-2.1-.6-3l-7.6.1c-.5-1.5-1.2-2.9-2.1-4.2l4.5-6.5c-.6-.8-1.3-1.5-2-2.2l-6.9 3.9c-1.2-1-2.6-1.8-4-2.4l.8-7.6c-1-.3-2-.6-3-.8l-4.3 6.7c-.8-.1-1.6-.1-2.4-.1-.8 0-1.6 0-2.4.1l-3.1-6.7c-1.1.2-2.1.5-3.1.8l-.5 7.6c-1.6.7-3 1.5-4.4 2.4l-6.2-4c-.9.7-1.7 1.5-2.4 2.2l3.3 6.5c-1.1 1.3-2 2.7-2.8 4.2l-7.6-.1c-.4 1-.8 2-1.1 3l6.3 3.7c-.2.8-.3 1.6-.3 2.4-.1.8-.1 1.6-.1 2.4l-7 3.7c.1 1 .3 2 .6 3l7.6-.1c.5 1.5 1.2 2.9 2.1 4.2l-4.5 6.5c.6.8 1.3 1.5 2 2.2l6.9-3.9c1.2 1 2.6 1.8 4 2.4l-.8 7.6c1 .3 2 .6 3 .8l4.3-6.7c.8.1 1.6.1 2.4.1.8 0 1.6 0 2.4-.1l3.1 6.7c1.1-.2 2.1-.5 3.1-.8l.5-7.6c1.6-.6 3-1.5 4.4-2.4l6.2 3.9c.9-.7 1.7-1.5 2.4-2.2l-3.3-6.5c1.1-1.3 2-2.7 2.8-4.2l7.6.1c.4-1 .8-2 1.1-3l-6.3-3.7c0-.7.2-1.5.3-2.3zm-23.6 13.3c-6.6.1-12.1-5.2-12.2-11.8 0-.5 0-1 .1-1.4.8-7.4 6.9-13.1 14.4-13.3 6.6-.1 12.1 5.2 12.2 11.8 0 .5 0 1-.1 1.4-.8 7.5-7 13.1-14.4 13.3z"/><path class="prefix__st5" d="M278 278.1c.1-.8.1-1.6.1-2.4l7-3.7c-.1-1-.3-2.1-.6-3l-7.6.1c-.5-1.5-1.2-2.9-2.1-4.2l4.5-6.5c-.6-.8-1.3-1.5-2-2.2l-6.9 3.9c-1.2-1-2.6-1.8-4-2.4l.8-7.6c-1-.3-2-.6-3-.8l-4.3 6.7c-.8-.1-1.6-.1-2.4-.1-.8 0-1.6 0-2.4.1l-3.1-6.7c-1.1.2-2.1.5-3.1.8l-.5 7.6c-1.6.7-3 1.5-4.4 2.4l-6.2-4c-.9.7-1.7 1.5-2.4 2.2l3.3 6.5c-1.1 1.3-2 2.7-2.8 4.2l-7.6-.1c-.4 1-.8 2-1.1 3l6.3 3.7c-.2.8-.3 1.6-.3 2.4-.1.8-.1 1.6-.1 2.4l-7 3.7c.1 1 .3 2 .6 3l7.6-.1c.5 1.5 1.2 2.9 2.1 4.2l-4.5 6.5c.6.8 1.3 1.5 2 2.2l6.9-3.9c1.2 1 2.6 1.8 4 2.4l-.8 7.6c1 .3 2 .6 3 .8l4.3-6.7c.8.1 1.6.1 2.4.1.8 0 1.6 0 2.4-.1l3.1 6.7c1.1-.2 2.1-.5 3.1-.8l.5-7.6c1.6-.6 3-1.5 4.4-2.4l6.2 3.9c.9-.7 1.7-1.5 2.4-2.2l-3.3-6.5c1.1-1.3 2-2.7 2.8-4.2l7.6.1c.4-1 .8-2 1.1-3l-6.3-3.7c0-.7.2-1.5.3-2.3zm-23.6 13.3c-6.6.1-12.1-5.2-12.2-11.8 0-.5 0-1 .1-1.4.8-7.4 6.9-13.1 14.4-13.3 6.6-.1 12.1 5.2 12.2 11.8 0 .5 0 1-.1 1.4-.8 7.5-7 13.1-14.4 13.3z"/><path class="prefix__st0" d="M228.1 183c-.5 5.4-5 9.5-10.4 9.6-4.8.1-8.7-3.7-8.8-8.4 0-.4 0-.8.1-1.2.5-5.4 5-9.5 10.4-9.6 4.8-.1 8.7 3.7 8.8 8.4 0 .5 0 .9-.1 1.2z"/><path class="prefix__st8" d="M228.1 183c-.5 5.4-5 9.5-10.4 9.6-4.8.1-8.7-3.7-8.8-8.4 0-.4 0-.8.1-1.2.5-5.4 5-9.5 10.4-9.6 4.8-.1 8.7 3.7 8.8 8.4 0 .5 0 .9-.1 1.2z"/><path class="prefix__st0" d="M319.6 297.6c-.5 5.4-5 9.5-10.4 9.6-4.8.1-8.7-3.7-8.8-8.5 0-.4 0-.8.1-1.1.5-5.4 5-9.5 10.4-9.6 4.8-.1 8.7 3.7 8.8 8.5-.1.3-.1.7-.1 1.1z"/><path class="prefix__st6" d="M319.6 297.6c-.5 5.4-5 9.5-10.4 9.6-4.8.1-8.7-3.7-8.8-8.5 0-.4 0-.8.1-1.1.5-5.4 5-9.5 10.4-9.6 4.8-.1 8.7 3.7 8.8 8.5-.1.3-.1.7-.1 1.1z"/><ellipse transform="rotate(-43.747 327.3 266.037)" class="prefix__st0" cx="327.3" cy="266" rx="15.1" ry="13.9"/><ellipse transform="rotate(-43.747 327.3 266.037)" class="prefix__st10" cx="327.3" cy="266" rx="15.1" ry="13.9"/><ellipse transform="rotate(-43.747 149.627 188.013)" class="prefix__st0" cx="149.6" cy="188" rx="22.1" ry="20.2"/><ellipse transform="rotate(-43.747 149.627 188.013)" class="prefix__st10" cx="149.6" cy="188" rx="22.1" ry="20.2"/><g opacity=".3"><path class="prefix__st12" d="M275.5 153.5h-10.1l-35.5 167H240zM219.7 320.5l35.5-167h-37.8l-35.5 167z"/></g><path class="prefix__st0" d="M145.9 144.2h61c.2 0 .4-.3.4-.5s-.2-.3-.4-.4h-61c-.2 0-.4.3-.4.5.1.2.2.3.4.4zM215.7 144.2h11c.2 0 .4-.3.4-.5s-.2-.3-.4-.4h-11c-.2 0-.4.3-.4.5.1.2.2.3.4.4zM198.3 327h61.1c.2 0 .4-.3.4-.5s-.2-.3-.4-.4h-61.1c-.2 0-.4.3-.4.5.1.2.2.4.4.4zM268.1 327h11c.2 0 .4-.3.4-.5s-.2-.3-.4-.4h-11c-.2 0-.4.3-.4.5.1.2.3.4.4.4z"/></g><g id="prefix__freepik--Bugs--inject-21"><path class="prefix__st0" d="M287.5 257.5c0 1.9 1.6 3.5 3.5 3.5s3.5-1.6 3.5-3.5-1.6-3.5-3.5-3.5v3.5h-3.5z"/><path class="prefix__st4" d="M287.5 257.5c0 1.9 1.6 3.5 3.5 3.5s3.5-1.6 3.5-3.5-1.6-3.5-3.5-3.5v3.5h-3.5z"/><path class="prefix__st0" d="M288.5 269.4c-4.9 5.2-14.2 11.7-20.6 5.6-1.1-1.1-2.9.7-1.7 1.7 7.6 7.1 18.2.6 24.1-5.6 1-1.1-.7-2.9-1.8-1.7z"/><path d="M288.5 269.4c-4.9 5.2-14.2 11.7-20.6 5.6-1.1-1.1-2.9.7-1.7 1.7 7.6 7.1 18.2.6 24.1-5.6 1-1.1-.7-2.9-1.8-1.7z"/><path class="prefix__st0" d="M304.6 256.7c6.2-5.9 12.7-16.5 5.6-24.1-1.1-1.2-2.8.6-1.7 1.7 6 6.5-.5 15.7-5.6 20.6-1.2 1.2.5 2.9 1.7 1.8z"/><path d="M304.6 256.7c6.2-5.9 12.7-16.5 5.6-24.1-1.1-1.2-2.8.6-1.7 1.7 6 6.5-.5 15.7-5.6 20.6-1.2 1.2.5 2.9 1.7 1.8z"/><path class="prefix__st0" d="M289.5 277.9c-2.1 8.3-2.1 20.6 8 23.4.7.2 1.3-.2 1.5-.9.2-.7-.2-1.3-.9-1.5-8.6-2.4-8-13.5-6.3-20.4.2-.7-.2-1.3-.9-1.5s-1.2.2-1.4.9z"/><path d="M289.5 277.9c-2.1 8.3-2.1 20.6 8 23.4.7.2 1.3-.2 1.5-.9.2-.7-.2-1.3-.9-1.5-8.6-2.4-8-13.5-6.3-20.4.2-.7-.2-1.3-.9-1.5s-1.2.2-1.4.9z"/><path class="prefix__st0" d="M312.3 258.1c7-1.8 18.1-2.3 20.4 6.3.2.7.8 1.1 1.5.9.7-.2 1.1-.8.9-1.5-2.8-10-15.1-10.1-23.4-8-.7.2-1.1.8-.9 1.5s.9 1 1.5.8z"/><path d="M312.3 258.1c7-1.8 18.1-2.3 20.4 6.3.2.7.8 1.1 1.5.9.7-.2 1.1-.8.9-1.5-2.8-10-15.1-10.1-23.4-8-.7.2-1.1.8-.9 1.5s.9 1 1.5.8z"/><path class="prefix__st0" d="M286.9 278.4c1.3 2.6 3 5 5 7 8.9 8.9 22.1 10 29.5 2.6s6.3-20.6-2.6-29.5c-2-2-4.4-3.7-7-5l-24.9 24.9z"/><path class="prefix__st14" d="M286.9 278.4c1.3 2.6 3 5 5 7 8.9 8.9 22.1 10 29.5 2.6s6.3-20.6-2.6-29.5c-2-2-4.4-3.7-7-5l-24.9 24.9z"/><path class="prefix__st0" d="M289.4 275.9l20-20c-6.3-3.1-13.5-2.6-18 2-4.6 4.5-5.2 11.7-2 18z"/><path class="prefix__st15" d="M289.4 275.9l20-20c-6.3-3.1-13.5-2.6-18 2-4.6 4.5-5.2 11.7-2 18z"/><path class="prefix__st4" d="M286.9 278.4c1.3 2.6 3 5 5 7 8.9 8.9 22.1 10 29.5 2.6l-22-22.1-12.5 12.5z"/><path class="prefix__st16" d="M270.7 267.2c.9-2.2 2.2-4.1 3.8-5.8 4.3-4.3 9.6-3.4 14.1.1.3.2.7-.2.4-.4-4.2-3.2-9.1-4.7-13.6-1.3-2.4 1.9-4.2 4.4-5.3 7.2-.1.3.5.5.6.2zM300.5 236.7c-2.8 1.1-5.3 3-7.2 5.4-3.4 4.5-1.9 9.5 1.3 13.6.2.3.7-.1.4-.4-3.5-4.5-4.4-9.8-.1-14.1 1.7-1.7 3.6-3 5.8-3.9.3-.2.2-.8-.2-.6z"/><path class="prefix__st12" d="M299.6 275.4c1.4 1.4 1.4 3.7 0 5.1-1.4 1.4-3.7 1.4-5.1 0-1.4-1.4-1.4-3.7 0-5.1 1.4-1.4 3.7-1.4 5.1 0zM314 261.1c1.4 1.4 1.4 3.7 0 5.1s-3.7 1.4-5.1 0c-1.4-1.4-1.4-3.7 0-5.1 1.4-1.4 3.7-1.4 5.1 0zM310.8 283.2c1.4 1.4 1.4 3.7 0 5.1-1.4 1.4-3.7 1.4-5.1 0-1.4-1.4-1.4-3.7 0-5.1 1.5-1.4 3.7-1.4 5.1 0zM321.7 272.3c1.4 1.4 1.4 3.7 0 5.1-1.4 1.4-3.7 1.4-5.1 0-1.4-1.4-1.4-3.7 0-5.1 1.5-1.4 3.7-1.4 5.1 0z"/><path class="prefix__st0" d="M141.9 303.9c-1.7 0-3 1.3-3 3s1.3 3 3 3 3-1.3 3-3h-3v-3z"/><path class="prefix__st4" d="M141.9 303.9c-1.7 0-3 1.3-3 3s1.3 3 3 3 3-1.3 3-3h-3v-3z"/><path class="prefix__st0" d="M131.7 304.8c-4.4-4.2-10-12.1-4.8-17.6.9-1-.6-2.4-1.5-1.5-6.1 6.5-.5 15.5 4.8 20.6 1 .9 2.4-.6 1.5-1.5z"/><path d="M131.7 304.8c-4.4-4.2-10-12.1-4.8-17.6.9-1-.6-2.4-1.5-1.5-6.1 6.5-.5 15.5 4.8 20.6 1 .9 2.4-.6 1.5-1.5z"/><path class="prefix__st0" d="M142.5 318.5c5 5.3 14.1 10.8 20.6 4.8 1-.9-.5-2.4-1.5-1.5-5.5 5.2-13.5-.4-17.6-4.8-1-.9-2.4.5-1.5 1.5z"/><path d="M142.5 318.5c5 5.3 14.1 10.8 20.6 4.8 1-.9-.5-2.4-1.5-1.5-5.5 5.2-13.5-.4-17.6-4.8-1-.9-2.4.5-1.5 1.5z"/><path class="prefix__st0" d="M124.4 305.7c-7.1-1.8-17.7-1.8-20 6.8-.1.6.2 1.1.7 1.3.6.1 1.1-.2 1.3-.7 2-7.3 11.5-6.9 17.5-5.4.6.1 1.1-.2 1.3-.7.1-.6-.2-1.2-.8-1.3z"/><path d="M124.4 305.7c-7.1-1.8-17.7-1.8-20 6.8-.1.6.2 1.1.7 1.3.6.1 1.1-.2 1.3-.7 2-7.3 11.5-6.9 17.5-5.4.6.1 1.1-.2 1.3-.7.1-.6-.2-1.2-.8-1.3z"/><path class="prefix__st0" d="M141.4 325.1c1.5 5.9 2 15.4-5.3 17.5-.6.1-.9.7-.7 1.3.1.6.7.9 1.3.7 8.6-2.4 8.7-12.9 6.8-20-.2-.5-.8-.8-1.3-.7-.6.2-.9.7-.8 1.2z"/><path d="M141.4 325.1c1.5 5.9 2 15.4-5.3 17.5-.6.1-.9.7-.7 1.3.1.6.7.9 1.3.7 8.6-2.4 8.7-12.9 6.8-20-.2-.5-.8-.8-1.3-.7-.6.2-.9.7-.8 1.2z"/><path class="prefix__st0" d="M124 303.4c-2.2 1.1-4.2 2.6-6 4.3-7.6 7.6-8.6 18.9-2.2 25.2 6.4 6.4 17.6 5.4 25.2-2.2 1.8-1.7 3.2-3.8 4.3-6L124 303.4z"/><path class="prefix__st14" d="M124 303.4c-2.2 1.1-4.2 2.6-6 4.3-7.6 7.6-8.6 18.9-2.2 25.2 6.4 6.4 17.6 5.4 25.2-2.2 1.8-1.7 3.2-3.8 4.3-6L124 303.4z"/><path class="prefix__st0" d="M126.2 305.5l17.1 17.1c2.7-5.4 2.2-11.5-1.7-15.4s-10.1-4.3-15.4-1.7z"/><path class="prefix__st15" d="M126.2 305.5l17.1 17.1c2.7-5.4 2.2-11.5-1.7-15.4s-10.1-4.3-15.4-1.7z"/><path class="prefix__st4" d="M124 303.4c-2.2 1.1-4.2 2.6-6 4.3-7.6 7.6-8.6 18.9-2.2 25.2l18.8-18.8-10.6-10.7z"/><path class="prefix__st16" d="M133.6 289.6c1.8.8 3.5 1.9 4.9 3.3 3.6 3.7 2.9 8.2-.1 12-.2.3.2.6.4.4 2.7-3.5 4-7.8 1.1-11.6-1.6-2-3.8-3.6-6.2-4.6-.3-.2-.4.3-.1.5zM159.7 315c-1-2.4-2.5-4.6-4.6-6.2-3.8-2.9-8.1-1.6-11.6 1.1-.3.2.1.6.4.4 3.9-3 8.4-3.7 12-.1 1.4 1.4 2.5 3.1 3.3 4.9 0 .4.5.2.5-.1z"/><path class="prefix__st12" d="M126.5 314.3c-1.2 1.2-3.1 1.2-4.3 0-1.2-1.2-1.2-3.1 0-4.3 1.2-1.2 3.1-1.2 4.3 0 1.2 1.1 1.2 3.1 0 4.3zM138.8 326.5c-1.2 1.2-3.1 1.2-4.3 0-1.2-1.2-1.2-3.1 0-4.3 1.2-1.2 3.1-1.2 4.3 0 1.2 1.2 1.2 3.1 0 4.3zM119.9 323.8c-1.2 1.2-3.1 1.2-4.3 0-1.2-1.2-1.2-3.1 0-4.3s3.1-1.2 4.3 0c1.2 1.2 1.2 3.2 0 4.3zM129.2 333.2c-1.2 1.2-3.1 1.2-4.3 0-1.2-1.2-1.2-3.1 0-4.3 1.2-1.2 3.1-1.2 4.3 0 1.2 1.2 1.2 3.1 0 4.3z"/><path class="prefix__st0" d="M181.2 179.5c-1.1-.7-2.5-.3-3.2.8-.7 1.1-.3 2.5.8 3.2 1.1.7 2.5.3 3.1-.7l-1.9-1.2 1.2-2.1z"/><path class="prefix__st4" d="M181.2 179.5c-1.1-.7-2.5-.3-3.2.8-.7 1.1-.3 2.5.8 3.2 1.1.7 2.5.3 3.1-.7l-1.9-1.2 1.2-2.1z"/><path class="prefix__st0" d="M174.2 175.9c-1.2-4.5-1.6-11.9 4-13.5 1-.3.6-1.8-.4-1.6-6.6 1.8-6.6 9.9-5.2 15.4.3 1.1 1.9.7 1.6-.3z"/><path d="M174.2 175.9c-1.2-4.5-1.6-11.9 4-13.5 1-.3.6-1.8-.4-1.6-6.6 1.8-6.6 9.9-5.2 15.4.3 1.1 1.9.7 1.6-.3z"/><path class="prefix__st0" d="M175.7 189.3c1.2 5.5 4.8 12.8 11.5 11.5 1-.2.6-1.8-.4-1.6-5.7 1.2-8.7-5.7-9.6-10.3-.1-1-1.7-.6-1.5.4z"/><path d="M175.7 189.3c1.2 5.5 4.8 12.8 11.5 11.5 1-.2.6-1.8-.4-1.6-5.7 1.2-8.7-5.7-9.6-10.3-.1-1-1.7-.6-1.5.4z"/><path class="prefix__st0" d="M169.1 173.6c-3.9-4.1-10.8-8.3-15.8-3.6-.7.7.3 1.9 1.1 1.2 4.3-4 10.3.2 13.6 3.6.6.7 1.8-.4 1.1-1.2z"/><path d="M169.1 173.6c-3.9-4.1-10.8-8.3-15.8-3.6-.7.7.3 1.9 1.1 1.2 4.3-4 10.3.2 13.6 3.6.6.7 1.8-.4 1.1-1.2z"/><path class="prefix__st0" d="M172.3 193.2c-1.4 4.5-5 10.9-10.6 9.3-.4-.1-.9.1-1 .5-.1.4.1.9.5 1 6.6 1.9 10.9-4.9 12.6-10.3.1-.4-.1-.9-.5-1-.4-.2-.9 0-1 .5z"/><path d="M172.3 193.2c-1.4 4.5-5 10.9-10.6 9.3-.4-.1-.9.1-1 .5-.1.4.1.9.5 1 6.6 1.9 10.9-4.9 12.6-10.3.1-.4-.1-.9-.5-1-.4-.2-.9 0-1 .5z"/><path class="prefix__st0" d="M169.7 171.9c-1.9-.2-3.8 0-5.7.4-8 1.9-13.2 8.9-11.6 15.6 1.6 6.7 9.4 10.6 17.4 8.8 1.8-.4 3.6-1.2 5.2-2.2l-5.3-22.6z"/><path class="prefix__st14" d="M169.7 171.9c-1.9-.2-3.8 0-5.7.4-8 1.9-13.2 8.9-11.6 15.6 1.6 6.7 9.4 10.6 17.4 8.8 1.8-.4 3.6-1.2 5.2-2.2l-5.3-22.6z"/><path class="prefix__st0" d="M170.3 174.2l4.2 18.1c3.9-2.4 6.1-6.7 5.1-10.8-.9-4.2-4.7-6.9-9.3-7.3z"/><path class="prefix__st15" d="M170.3 174.2l4.2 18.1c3.9-2.4 6.1-6.7 5.1-10.8-.9-4.2-4.7-6.9-9.3-7.3z"/><path class="prefix__st4" d="M169.7 171.9c-1.9-.2-3.8 0-5.7.4-8 1.9-13.2 8.9-11.6 15.6l20-4.7-2.7-11.3z"/><path class="prefix__st16" d="M181.6 166.7c.9 1.2 1.6 2.7 1.9 4.2.9 3.9-1.4 6.5-4.9 7.9-.2.1-.1.5.1.4 3.2-1.2 5.8-3.5 5.4-7.2-.2-2-1-3.9-2.2-5.5-.2-.3-.5 0-.3.2zM188.4 193.9c.3-2 .2-4-.5-5.9-1.3-3.5-4.6-4.3-8.1-4-.3 0-.2.4.1.4 3.8-.4 7 .9 7.9 4.8.4 1.5.4 3.1.2 4.6 0 .3.3.4.4.1z"/><path class="prefix__st12" d="M167 180c-1.3.3-2.6-.4-2.9-1.7-.3-1.3.4-2.6 1.7-2.9 1.3-.3 2.6.4 2.9 1.7v.1c.3 1.3-.5 2.5-1.7 2.8zM170 193c-1.3.3-2.6-.4-2.9-1.7-.3-1.3.4-2.6 1.7-2.9 1.3-.3 2.6.4 2.9 1.7v.1c.4 1.3-.4 2.5-1.7 2.8zM158.8 183.6c-1.3.3-2.6-.4-2.9-1.7s.4-2.6 1.7-2.9c1.3-.3 2.6.4 2.9 1.7v.1c.3 1.3-.5 2.5-1.7 2.8zM161.1 193.5c-1.3.3-2.6-.4-2.9-1.7-.3-1.3.4-2.6 1.7-2.9 1.3-.3 2.6.4 2.9 1.7v.1c.3 1.2-.5 2.5-1.7 2.8z"/></g><g id="prefix__freepik--character-2--inject-21"><path class="prefix__st16" d="M400.5 270.6s-3.9 77.3 12.3 106c14.2 25.4 34.6 56.1 34.6 56.1l13-8.1s-18.5-43.3-26.5-54.8c-4.7-6.7-6.5-16.7-4.3-33.7 2.9-22.8 6-48.6-5.4-71.8l-23.7 6.3z"/><path class="prefix__st15" d="M409.4 284.6s1.8 15.1-7.9 39.3c-.8-11.5-.9-22.5-.9-31l.1-.3 8.7-8z"/><path class="prefix__st17" d="M458.3 426.1l7.9 12.9-7.1 3.6-7.8-11.3z"/><path class="prefix__st0" d="M453.5 441.7c-.7.6-1.7.9-2.7.9-.3-.1-.5-.5-.5-.8 0-.3.1-.6.3-.8 1.1-1.2 4.8-1.4 4.9-1.4.1 0 .2 0 .2.1v.3c-.7.6-1.4 1.1-2.2 1.7zm-2.2-.7l-.3.3c-.1.1-.2.3-.2.5 0 .3.1.4.2.4.7.3 2.6-1 3.9-2.1-1.2 0-2.4.3-3.6.9z"/><path class="prefix__st0" d="M455.7 439.9c-1.3.2-4.2-.3-4.6-1.2-.1-.2-.1-.6.3-1 .3-.3.8-.4 1.2-.3 1.5.2 3.1 2.1 3.1 2.2.1.1.1.2 0 .3zm-3.9-1.9l-.1.1c-.3.2-.3.4-.2.4.3.6 2.4 1.1 3.7 1-.7-.8-1.5-1.4-2.6-1.7-.3 0-.6.1-.8.2z"/><path class="prefix__st16" d="M455.8 438.3l8.4-5.5c.3-.2.7-.2 1 .1l6 5.9c.5.5.5 1.4 0 1.9l-.2.2c-3.1 1.9-5.9 3.5-9.6 6-4.5 2.9-3 2.7-8.2 6.2-3.1 2.1-6-1.1-4.8-2.2 5.6-4.8 5.1-7 6-10.8.3-.7.7-1.4 1.4-1.8z"/><path class="prefix__st18" d="M456.6 423.5l2.9 4.8-7 4.4-2.6-3.7z"/><path class="prefix__st0" d="M459.2 418.5l2.9 5.9L447 434l-4.5-5.2z"/><path class="prefix__st16" d="M385.5 268.1s-36.6 71.7-34.3 101.3 13.5 68.4 13.5 68.4l14.6-2.2s-1.5-41-6.3-63.9c-1.7-8.1 5.9-23.4 14.9-37.5 12.1-18.9 29.4-40.6 23.8-66.1h-26.2z"/><path class="prefix__st17" d="M375.9 432.2l1.9 15-7.9.3-2.5-13.4z"/><path class="prefix__st0" d="M365.4 448.3c-1 .1-1.9-.2-2.7-.7-.2-.3-.2-.7 0-.9.2-.2.4-.4.7-.5 1.5-.4 4.7 1.5 4.9 1.5.1 0 .1.1.1.2s-.1.2-.2.2c-1 .1-1.9.2-2.8.2zm-1.5-1.8h-.4c-.2 0-.3.1-.4.3-.2.3-.1.4 0 .5.4.6 2.7.6 4.5.4-1.2-.7-2.4-1.1-3.7-1.2z"/><path class="prefix__st0" d="M368.1 448c-1.2-.5-3.4-2.5-3.2-3.6 0-.2.2-.5.8-.6.4 0 .9.1 1.2.4 1.2 1 1.4 3.5 1.4 3.6 0 .1 0 .2-.1.2h-.1zm-2.2-3.7h-.1c-.4 0-.4.2-.4.2 0 .6 1.4 2.2 2.5 2.9-.1-1-.5-2-1.2-2.8-.3-.2-.5-.3-.8-.3z"/><path class="prefix__st16" d="M369.1 446.8l10 .1c.4 0 .7.3.8.6l1.7 8.2c.2.7-.3 1.4-1 1.6h-.3c-3.6-.1-6.8-.3-11.3-.3-5.3 0-4 .6-10.2.6-3.8 0-4.4-4.3-2.8-4.5 7.3-.9 8.1-3.1 10.9-5.7.6-.4 1.4-.7 2.2-.6z"/><path class="prefix__st18" d="M376.2 434.5l.7 5.7-8.1 1.1-.9-4.5z"/><path class="prefix__st0" d="M380.5 430.9l.2 6.5-17.7 2.7-1.9-6.6z"/><path class="prefix__st17" d="M382 204.7l-9-13.2s-.1-6.8-1.7-8.9c-1.7-2.1-3.2-.3-4.2-.4-1.3-.2-2.5-4.2-4.6-1.4-2.1 2.9-2.2 5.7.3 8.1l5 4.8c3.1 6.6 6.5 13 10.3 19.2l3.9-8.2z"/><path class="prefix__st0" d="M420.5 157.1c7.2 8.6 13.9 17.6 19.9 27.1 10.3 16.4 19.8 34.8 36.4 28.6 31.5-11.8.4-84.9.4-84.9l-5.4-1.3-11.2 4-20.6 10.6-12.9 7.8-5.5 4-1.1 4.1z"/><path class="prefix__st6" d="M420.5 157.1c7.2 8.6 13.9 17.6 19.9 27.1 10.3 16.4 19.8 34.8 36.4 28.6 31.5-11.8.4-84.9.4-84.9l-5.4-1.3-11.2 4-20.6 10.6-12.9 7.8-5.5 4-1.1 4.1z"/><path class="prefix__st18" d="M486 205.7c-20.1 13.2-29.8-13.2-33.8-21.9-4.8-10.4-14.4-28.2-19.8-38l-5.2 3.2-5.5 4-1.2 4.2c7.2 8.6 13.9 17.6 19.9 27.1 10.3 16.4 19.8 34.8 36.4 28.6 3.8-1.4 7-3.9 9.2-7.2z"/><path class="prefix__st0" d="M446.5 137.9c-15.7 8.1-27.3 16.7-26 19.3s15.2-1.8 30.8-9.8 27.3-16.7 26-19.4c-1.3-2.6-15.1 1.8-30.8 9.9z"/><path class="prefix__st8" d="M446.5 137.9c-15.7 8.1-27.3 16.7-26 19.3s15.2-1.8 30.8-9.8 27.3-16.7 26-19.4c-1.3-2.6-15.1 1.8-30.8 9.9z"/><path class="prefix__st0" d="M445.6 136.6c-7.6 3.9-15.4 7.8-22.2 13-1.8 1.4-4.9 3.9-5 6.6l-10.5 5.4-79.6 40.9c-1 .5.6 3.6 1.6 3.1l11.6-6 78.4-40.3c2.2 1.5 6.1.4 8.3-.2 8.2-2.4 16-6.5 23.5-10.4 7.5-3.9 15.4-7.8 22.2-13.1 2.2-1.7 6.3-5 4.6-8.4-1.7-3.4-6.8-1.9-9.5-1.1-8.1 2.5-15.9 6.6-23.4 10.5zm1.6 3.1c2.6-1.3 26.2-14.4 28.2-10.6 1.7 3.1-23 15.4-25.2 16.5-2.4 1.3-26.4 14.3-28.2 10.8-1.7-3.5 22.7-15.4 25.2-16.7z"/><path class="prefix__st2" d="M447.2 139.7c2.6-1.3 26.2-14.4 28.2-10.6 1.7 3.1-23 15.4-25.2 16.5-2.4 1.3-26.4 14.3-28.2 10.8-1.7-3.5 22.7-15.4 25.2-16.7z"/><path class="prefix__st16" d="M373.6 160.8s-7.8 7.4.5 10.1l2.3-7.3-2.8-2.8zM372.7 175c.1.8.5 1.4 1 1.3.5 0 .9-.7.8-1.5-.1-.8-.5-1.4-1-1.3-.5.1-.9.7-.8 1.5z"/><path class="prefix__st19" d="M375.7 175.8l-3.9 6c1.4.9 3.2 1.2 4.8.6l-.9-6.6z"/><path class="prefix__st17" d="M407.8 196.7s-6.6.5-8.6-11.6c0 0-6.5-1.7-9.8 2.5-3.3 4.2 5.6 11.2 1.3 15.5-4.2 4.4 17.1-6.4 17.1-6.4z"/><path class="prefix__st18" d="M393.9 191.9c-.7 1.7-1.7 3.4-2.8 4.9-.6-1.5-1.4-3-1.9-4.5l4.7-.4z"/><path class="prefix__st17" d="M402.1 167.5c1.3 10.2 2 14.6-2.1 20.7-6.8 6.7-19.1 8.6-23.4-1.1-3.9-8.7-5.3-24 3.9-29.9 6.5-4.2 15.2-2.4 19.5 4.1 1.1 1.9 1.8 4 2.1 6.2z"/><path class="prefix__st16" d="M372.1 169c.1 0 .3.1.3.2.5.9 1.4 1.5 2.4 1.6.2 0 .4.2.4.4s-.2.4-.4.4c-1.3-.1-2.4-.9-3.1-2-.1-.2-.1-.4.1-.5.2-.1.3-.1.3-.1zM385.9 175.6s-1.1-7.3-4.6-9.1c0 0 1.5 3.6-2.4 2.8-3.9-.8-8.8-5.4-4.4-11.3s15.5-9.7 22.5-2.9c0 0 12.1 2.3 11.5 20.9-.1 3.2-3.3 4.4-4.3 6.4-3.9 8.1-12.7 9.1-14.4.3-.5-2.6-1.8-5.2-3.9-7.1z"/><path class="prefix__st16" d="M387.1 174.9s-3.8-1.1-4.8 2.4c.1 0-.6-6.5 4.8-2.4zM406.5 156.3s-2.8-2.8-5.4-.2c0 0 2.6-6 5.4.2z"/><path class="prefix__st17" d="M386.1 174.4c-1.3 1.7-1.9 3.8-1.6 5.9.4 2.8 3.1 3.1 5.2 1.4 1.9-1.5 3.9-4.8 2.5-7.1-1-1.7-3.3-2.2-5-1.2-.4.3-.8.6-1.1 1z"/><path class="prefix__st0" d="M425.5 263c-1.5-15.5 5.9-46.6-5.7-61.4-7.8-9.8-40-4.7-43.9 4.7-2.1 5 4.2 29 6.4 38.6 1.2 5.1 2.7 24.2 2.7 24.2s9.8 2 24.6.4c5.3-.6 10.6-.4 16.7-2.5-.1 0-.7-3-.8-4z"/><path class="prefix__st18" d="M375.5 222.1l6.6-7.7 3-2.1s-2.6 12.5-6.5 20.5c-1.2-3.4-2.3-7.1-3.1-10.7z"/><path class="prefix__st17" d="M377 209.7L360.2 225l-10-21.3-2.3-7.3s-3.4-3.4-3.9-5.7-5.6 2.1-6.1 4.1c-.5 1.9-3 5.8.7 7.9 2 1.1 3.8 2.5 5.3 4.3 0 0 6.9 30 13.9 31.2 7 1.2 23.8-18 23.8-18l-4.6-10.5z"/><path class="prefix__st0" d="M380.3 201.7s-7.5 2-11.3 12.1c0 0-2.4-.3-3.3 3 3.8 3.6 6.9 8 9.1 12.7 1.7-.4 2.9-1.9 3-3.6 0 0 14.8-15 2.5-24.2z"/></g><g id="prefix__freepik--character-1--inject-21"><path class="prefix__st20" d="M118.6 190.4l3.6-6.7s-1.9-4.1-1-7 2.7-2.7 3.3-4.7 3.3-2.3 3.3-2.3 6.4 7 5.1 10c-1.3 3-5.4 6.7-5.4 6.7l-3.7 8.6-5.2-4.6z"/><path class="prefix__st16" d="M80.6 156.2s6.4-.6 10.6 7.8c4.2 8.4 15.2 32.6 18.6 32.3s9.3-8.9 9.3-8.9 2.5-.2 6.7 5.8c0 0-7.2 15.8-18.4 15.8-9.7 0-20.6-19-20.6-19s-9.6-24.8-6.2-33.8z"/><path class="prefix__st4" d="M85.4 186.2c.8 2.3 1.4 3.8 1.4 3.8 2.1 3.6 4.5 7 7.2 10.1-2.5-11.1-8-28.4-8-28.4l-.6 14.5z"/><path class="prefix__st20" d="M49.6 154c3.6-4.1 2.4-12.3 1.4-18l11.3 9.6c-1.1 4.6-1.3 7.3 5.3 8.9l7.8 1.7 2 8.1s-3.7 4.3-5.2 4.8-11.2.6-11.2.6l-6.3-1s-8.1-5.4-8.3-5.9c-1.1-1.4-2.3-2.7-3.6-3.9l-.5-3.2 6.3-1c.3-.1.7-.3 1-.7z"/><path class="prefix__st4" d="M55.6 139.9l6.6 5.8c-.3 1.1-.5 2.2-.6 3.3-2.5-.4-6.5-2.5-7-5.3 0-1.3.3-2.6 1-3.8z"/><path class="prefix__st20" d="M43.7 126.9c2.5 9.3 3.4 13.3 9.2 17.1 8.7 5.8 19.5.6 19.8-9.2.3-8.9-3.9-22.7-13.9-24.4-7.2-1.3-14 3.5-15.3 10.6-.5 2-.4 4 .2 5.9z"/><path class="prefix__st16" d="M59.2 126.3c.2.8.7 1.3 1.2 1.2.5-.1.8-.8.6-1.6-.2-.8-.7-1.3-1.2-1.2-.5.1-.7.8-.6 1.6zM67.9 124.5c.2.8.7 1.3 1.2 1.2.5-.1.8-.8.6-1.6-.2-.8-.7-1.3-1.2-1.2-.5.1-.8.8-.6 1.6z"/><path class="prefix__st19" d="M65.5 126.4c1.1 1.6 2.3 3.1 3.8 4.3-.7.7-1.6 1.1-2.6 1.1l-1.2-5.4z"/><path class="prefix__st16" d="M66.5 136.9c.4 0 .8-.1 1.1-.2.1 0 .2-.1.2-.3 0-.1-.1-.2-.3-.2-1.9.4-3.9-.1-5.4-1.3-.1-.1-.2-.1-.3 0-.1.1-.1.2 0 .3 1.3 1.2 3 1.8 4.7 1.7zM55.4 125.2c.2 0 .4-.2.4-.3.6-1.4 1.7-2.5 3.1-3 .2-.1.4-.4.3-.6-.1-.2-.3-.4-.6-.3-1.7.6-3.1 1.9-3.7 3.6-.1.2.1.5.3.6h.2zM69.6 120c.2 0 .3-.1.4-.3.1-.2 0-.5-.2-.6-1.3-.7-2.9-.8-4.2-.1-.2.1-.3.4-.2.6.1.2.4.3.6.2 1.1-.5 2.3-.4 3.3.1.1 0 .2.1.3.1z"/><path class="prefix__st0" d="M56.3 245.8c4.2 36.9 15.9 68.4 19.2 91.6 3.2 22.9.3 26.1 17.9 96.7l15.1-3.8-11.2-98s-4.8-44-9.3-98.1c.1 0-32.6 2.9-31.7 11.6z"/><path class="prefix__st18" d="M63.5 285.6c2.6 10.9 5.3 21 7.5 30.3 4.7-25 1.6-63.8 1.6-63.8l-9.1 33.5z"/><path class="prefix__st0" d="M42.3 239.7c-4.9 36.8-1.9 70.2-3.6 93.5-1.8 24-4 29.2-4 102h15.6l10.8-101.6s8-44 16.8-97.6c0 0-34.4-4.9-35.6 3.7z"/><path class="prefix__st16" d="M44.8 155.2s5.6 11.6 18.8 10.4 8-10.4 8-10.4 9.6-.8 14.4 2.8 2.4 78.8 2.4 78.8-22.8 4.8-46.4 2c0 0-12.4-80.4-4.8-82l7.6-1.6z"/><path d="M38 210l1.2-38.3-4.3 6.6c.7 9.7 1.9 21.3 3.1 31.7z" opacity=".4"/><path class="prefix__st20" d="M37.7 430l-.5 15.6 8.2-.4 1.2-14z"/><path class="prefix__st0" d="M47.2 445.6c-.1 0-.2-.1-.2-.2s0-.2.1-.3c.1-.1 3.2-2.3 4.8-2 .3.1.6.2.8.5.2.3.3.7.1 1-.7.7-1.7 1-2.7 1h-2.9zm.7-.4c1.8 0 4.2-.2 4.5-.9 0-.1.1-.2-.1-.5-.1-.2-.3-.3-.5-.3h-.4c-1.2.4-2.4.9-3.5 1.7z"/><path class="prefix__st0" d="M47.1 445.6c-.1 0-.1-.1-.1-.2s0-2.7 1.1-3.8c.3-.3.7-.5 1.2-.5.6 0 .8.3.9.5.3 1-1.7 3.3-2.8 3.9h-.1c-.1.1-.2.1-.2.1zm2-4.1c-.3 0-.5.2-.7.4-.6.9-.9 1.9-.9 3 1.1-.8 2.4-2.6 2.3-3.2 0-.1-.1-.2-.5-.2h-.2z"/><path class="prefix__st16" d="M46.1 444.3l-10.3 1.1c-.4 0-.7.3-.7.7l-1 8.6c-.1.8.4 1.4 1.2 1.5h.3c3.7-.4 7-1 11.6-1.5 5.4-.6 4.1.2 10.5-.3 3.9-.3 4.1-4.8 2.5-4.8-7.6-.2-8.6-2.4-11.8-4.8-.7-.4-1.5-.6-2.3-.5z"/><path class="prefix__st18" d="M37.6 432.5l-.2 5.8 8.5.4.4-4.7z"/><path class="prefix__st16" d="M32.9 429.1l.4 6.8 18.4 1 1.3-7z"/><path class="prefix__st20" d="M95.7 428l2.9 15.3 7.9-2.2-1.9-14z"/><path class="prefix__st0" d="M108.9 440.9c-.1 0-.2-.1-.2-.1 0-.1 0-.2.1-.3.1-.1 3-2.6 4.6-2.5.3 0 .6.2.8.4.3.2.3.6.2 1-.3.6-1.4 1-2.6 1.2-1 .1-2 .2-2.9.3zm.6-.5c1.8-.1 4.1-.6 4.4-1.3 0-.1.1-.2-.1-.5-.1-.1-.3-.2-.5-.2h-.4c-1.3.5-2.4 1.2-3.4 2z"/><path class="prefix__st0" d="M108.7 440.9c-.1 0-.1-.1-.1-.2s-.3-2.7.7-3.9c.3-.4.7-.6 1.2-.6.6-.1.9.2.9.5.4 1-1.4 3.5-2.4 4.2-.1.1-.2.1-.3 0zm1.7-4.2c-.3.1-.5.2-.7.4-.5.9-.8 2-.7 3.1 1-.9 2.2-2.8 2-3.4 0 0-.1-.2-.5-.2l-.1.1z"/><path class="prefix__st16" d="M107.7 439.7l-10.1 2c-.4.1-.7.4-.7.8l-.2 8.6c0 .8.6 1.4 1.3 1.4h.3c3.6-.8 6.9-1.6 11.4-2.5 5.4-1.1 4.1-.1 10.5-1.3 3.8-.7 3.6-5.2 2-5.1-7.6.5-8.8-1.6-12.1-3.6-.8-.3-1.6-.4-2.4-.3z"/><path class="prefix__st18" d="M96.1 430.4l1.1 5.7 8.4-1.5-.6-4.6z"/><path class="prefix__st16" d="M90.8 428.1l1.9 6.5 18.1-3-.2-7.1zM45.5 131.8s3.6-4 3.3-7.6c0 0 2.9-1.6 4.2-6.5 0 0 16.3-.9 17.1-4.6s-4.1-3-4.1-3 5.3-2 1.9-5.1c-3.3-3-7.3.9-7.3.9s3.5-6-1.3-6.2c-4.6-.2-4.8 7.6-7.3 7.4-1.6-.2-.8-7.1-6.4.7s-4.3 10.7-4.3 10.7-6.8.6-6.6 4.6c.1 4 2.4 3 3 4.1.6 1.1-1.8 2.4.2 4.6 2 2.3 7.6 0 7.6 0z"/><path class="prefix__st20" d="M42.6 134.7c.9 1.6 2.5 2.7 4.2 3.1 2.4.6 3.5-1.6 2.7-3.8-.7-2-2.7-4.6-5-4.3-1.7.3-2.8 2-2.5 3.6.2.6.3 1 .6 1.4z"/><path class="prefix__st16" d="M41.7 119.2c-.8-1.1-1.2-2.4-1.1-3.7.1-2.4-2.4-1.7-2.1.3.2 1.8 1.5 3.1 3.2 3.4zM135.7 187.7l3.1-.8 3 3c.7-2.8-1.1-5.6-3.9-6.3-.8-.2-1.6-.2-2.4 0l-5.7-5.7-4.6-4.6-5.7-5.7c.7-2.8-1.1-5.6-3.9-6.3-.8-.2-1.6-.2-2.4 0l3 3-.8 3.1-3.1.8-3-3c-.7 2.8 1.1 5.6 3.9 6.3.8.2 1.6.2 2.4 0l5.7 5.7 4.6 4.6 5.7 5.7c-.7 2.8 1.1 5.6 3.9 6.3.8.2 1.6.2 2.4 0l-3-3 .8-3.1z"/><path class="prefix__st8" d="M135.7 187.7l3.1-.8 3 3c.7-2.8-1.1-5.6-3.9-6.3-.8-.2-1.6-.2-2.4 0l-5.7-5.7-4.6-4.6-5.7-5.7c.7-2.8-1.1-5.6-3.9-6.3-.8-.2-1.6-.2-2.4 0l3 3-.8 3.1-3.1.8-3-3c-.7 2.8 1.1 5.6 3.9 6.3.8.2 1.6.2 2.4 0l5.7 5.7 4.6 4.6 5.7 5.7c-.7 2.8 1.1 5.6 3.9 6.3.8.2 1.6.2 2.4 0l-3-3 .8-3.1z"/><path class="prefix__st16" d="M62.3 225.7l4.5-5.1-2.7-2.8-5.1 4.5-.6 1.3c-.2.4-.5.7-.8 1l-6.2 6.2 2.5 2.5L60 227c.3-.3.7-.6 1-.8l1.3-.5z"/><path class="prefix__st6" d="M62.3 225.7l4.5-5.1-2.7-2.8-5.1 4.5-.6 1.3c-.2.4-.5.7-.8 1l-6.2 6.2 2.5 2.5L60 227c.3-.3.7-.6 1-.8l1.3-.5z"/><path class="prefix__st16" d="M66.8 220.6l-2.7-2.9H64c-.2.4.1 1.2.9 2 .7.8 1.5 1.1 1.9.9z"/><path class="prefix__st8" d="M66.8 220.6l-2.7-2.9H64c-.2.4.1 1.2.9 2 .7.8 1.5 1.1 1.9.9z"/><path class="prefix__st0" d="M51.4 236.6l1.8-1.9.1.1c.3.3.7.3 1 0 .3-.3.3-.7 0-1l-3.7-3.7c-.3-.3-.7-.3-1 0-.3.3-.3.7 0 1l.1.1-1.9 1.9c-.7-.1-1.4.1-1.9.7l-10.8 10.8c-1.3 1.3-.6 2.7.6 4 1.3 1.3 2.7 1.9 4 .6l10.8-10.8c.8-.4 1-1.1.9-1.8z"/><path class="prefix__st8" d="M51.4 236.6l1.8-1.9.1.1c.3.3.7.3 1 0 .3-.3.3-.7 0-1l-3.7-3.7c-.3-.3-.7-.3-1 0-.3.3-.3.7 0 1l.1.1-1.9 1.9c-.7-.1-1.4.1-1.9.7l-10.8 10.8c-1.3 1.3-.6 2.7.6 4 1.3 1.3 2.7 1.9 4 .6l10.8-10.8c.8-.4 1-1.1.9-1.8z"/><path class="prefix__st20" d="M31.5 229.3l5.8 4.9s4.5-1 7 .4c2.6 1.5 2.1 3.2 3.9 4.2 1.9.9 1.6 3.7 1.6 3.7s-8.2 4.8-10.9 2.9c-2.7-1.9-5.4-6.7-5.4-6.7l-7.7-5.4 5.7-4z"/><path class="prefix__st16" d="M39.9 156.2s-13.8.8-20 16.8-14.2 30.6-9.6 43.2c4.6 12.6 16 20.2 16 20.2s6.3-3 8.4-8.4c0 0-12-10-10.2-18.6 1.8-8.6 13.4-29 13.4-29s14.8-18.8 2-24.2z"/></g></svg>