<svg xmlns="http://www.w3.org/2000/svg" viewBox="0 0 352.078 375"><path d="M1.183 98.758c-16.564 139.003 144.275 273.853 268.72 174.006 56.185-45.074 96.49-189.209 1.422-210.32-54.52-12.097-113.124 36.294-165.094 17.25C81.25 70.55 68.456 34.569 39.421 38.36 12.162 41.98 3.946 75.59 1.184 98.758z" fill="#00ebc7"/><path d="M1.183 98.758c-16.564 139.003 144.275 273.853 268.72 174.006 56.185-45.074 96.49-189.209 1.422-210.32-54.52-12.097-113.124 36.294-165.094 17.25C81.25 70.55 68.456 34.569 39.421 38.36 12.162 41.98 3.946 75.59 1.184 98.758z" style="isolation:isolate" fill="#fff" opacity=".9"/><rect x="231.695" y="100.079" width="117.792" height="45.79" rx="9.446" fill="#00ebc7"/><path d="M243.168 107.801h77.254a1.653 1.653 0 011.653 1.653v1.815a1.653 1.653 0 01-1.653 1.653h-77.254a1.653 1.653 0 01-1.654-1.653v-1.815a1.653 1.653 0 011.654-1.653zM243.168 120.14h52.786a1.653 1.653 0 011.654 1.654v1.815a1.653 1.653 0 01-1.654 1.653h-52.786a1.653 1.653 0 01-1.654-1.653v-1.815a1.653 1.653 0 011.654-1.653zM243.168 132.48H281.8a1.653 1.653 0 011.653 1.654v1.814a1.653 1.653 0 01-1.653 1.654h-38.632a1.653 1.653 0 01-1.654-1.654v-1.814a1.653 1.653 0 011.654-1.654zM291.045 132.48h38.632a1.653 1.653 0 011.653 1.654v1.814a1.653 1.653 0 01-1.653 1.654h-38.632a1.653 1.653 0 01-1.654-1.654v-1.814a1.653 1.653 0 011.654-1.654z" fill="#00ebc7"/><g opacity=".5" fill="#fff"><path d="M243.168 107.801h77.254a1.653 1.653 0 011.653 1.653v1.815a1.653 1.653 0 01-1.653 1.653h-77.254a1.653 1.653 0 01-1.654-1.653v-1.815a1.653 1.653 0 011.654-1.653zM243.168 120.14h52.786a1.653 1.653 0 011.654 1.654v1.815a1.653 1.653 0 01-1.654 1.653h-52.786a1.653 1.653 0 01-1.654-1.653v-1.815a1.653 1.653 0 011.654-1.653zM243.168 132.48H281.8a1.653 1.653 0 011.653 1.654v1.814a1.653 1.653 0 01-1.653 1.654h-38.632a1.653 1.653 0 01-1.654-1.654v-1.814a1.653 1.653 0 011.654-1.654zM291.045 132.48h38.632a1.653 1.653 0 011.653 1.654v1.814a1.653 1.653 0 01-1.653 1.654h-38.632a1.653 1.653 0 01-1.654-1.654v-1.814a1.653 1.653 0 011.654-1.654z"/></g><path d="M148.563 89.402H260.82a13.852 13.852 0 0113.852 13.852v39.439a13.852 13.852 0 01-13.852 13.852H148.563a13.852 13.852 0 01-13.851-13.852v-39.439a13.852 13.852 0 0113.851-13.852z" fill="#00ebc7"/><rect x="149.108" y="100.724" width="118.114" height="7.511" rx="2.43" fill="#00ebc7"/><rect x="149.108" y="118.82" width="82.234" height="7.511" rx="2.43" fill="#00ebc7"/><rect x="149.108" y="136.916" width="61.487" height="7.511" rx="2.43" fill="#00ebc7"/><rect x="219.305" y="136.916" width="52.04" height="7.511" rx="2.43" fill="#00ebc7"/><g opacity=".5" fill="#fff"><rect x="149.108" y="100.724" width="118.114" height="7.511" rx="2.43"/><rect x="149.108" y="118.82" width="82.234" height="7.511" rx="2.43"/><rect x="149.108" y="136.916" width="61.487" height="7.511" rx="2.43"/><rect x="219.305" y="136.916" width="52.04" height="7.511" rx="2.43"/></g><path d="M136.96 168.713h54.067a6.472 6.472 0 016.472 6.472v80.995a6.472 6.472 0 01-6.472 6.472H136.96a6.472 6.472 0 01-6.473-6.472v-80.995a6.472 6.472 0 016.473-6.472z" fill="#00ebc7"/><path d="M136.96 168.713h54.067a6.472 6.472 0 016.472 6.472v80.995a6.472 6.472 0 01-6.472 6.472H136.96a6.472 6.472 0 01-6.473-6.472v-80.995a6.472 6.472 0 016.473-6.472z" style="isolation:isolate" opacity=".4"/><rect x="138.24" y="178.512" width="51.496" height="4.164" rx="1.19" fill="#fafafa"/><rect x="138.24" y="188.533" width="35.86" height="4.164" rx="1.19" fill="#fafafa"/><rect x="138.24" y="198.564" width="51.496" height="4.164" rx="1.19" fill="#fafafa"/><rect x="138.24" y="208.585" width="20.637" height="4.164" rx="1.19" fill="#fafafa"/><rect x="163.786" y="208.585" width="20.637" height="4.164" rx="1.19" fill="#fafafa"/><rect x="138.24" y="218.616" width="51.496" height="4.164" rx="1.19" fill="#fafafa"/><rect x="138.24" y="228.637" width="51.496" height="4.164" rx="1.19" fill="#fafafa"/><rect x="138.24" y="238.668" width="42.786" height="4.164" rx="1.19" fill="#fafafa"/><rect x="138.24" y="248.689" width="21.232" height="4.164" rx="1.19" fill="#fafafa"/><path d="M205.655 168.139h-74.996l33.158 26.383 50.84 19.155V177.12a9.003 9.003 0 00-9.002-8.982z" fill="#00ebc7"/><path d="M205.655 168.139h-74.996l33.158 26.383 50.84 19.155V177.12a9.003 9.003 0 00-9.002-8.982z" style="isolation:isolate" opacity=".4"/><path d="M147.505 181.728h54.873a1.492 1.492 0 011.492 1.492v2.783a1.492 1.492 0 01-1.492 1.492h-54.873a1.492 1.492 0 01-1.492-1.492v-2.783a1.492 1.492 0 011.492-1.492z" fill="#fafafa"/><path d="M236.443 179.49h91.59a7.32 7.32 0 017.32 7.32v52.746a7.32 7.32 0 01-7.32 7.319h-91.59a7.32 7.32 0 01-7.319-7.32V186.81a7.32 7.32 0 017.32-7.319z" fill="#00ebc7"/><path d="M253.169 162.775h91.59a7.32 7.32 0 017.319 7.32v52.746a7.32 7.32 0 01-7.32 7.319h-91.59a7.32 7.32 0 01-7.319-7.32v-52.746a7.32 7.32 0 017.32-7.319z" fill="#00ebc7"/><path d="M253.169 162.775h91.59a7.32 7.32 0 017.319 7.32v52.746a7.32 7.32 0 01-7.32 7.319h-91.59a7.32 7.32 0 01-7.319-7.32v-52.746a7.32 7.32 0 017.32-7.319z" style="isolation:isolate" fill="#fff" opacity=".5"/><path d="M309.595 169.036h29.931a3.256 3.256 0 013.257 3.256v32.473a3.256 3.256 0 01-3.257 3.256h-29.931a3.256 3.256 0 01-3.257-3.257v-32.472a3.256 3.256 0 013.257-3.256z" fill="#00ebc7"/><path d="M309.595 169.036h29.931a3.256 3.256 0 013.257 3.256v32.473a3.256 3.256 0 01-3.257 3.256h-29.931a3.256 3.256 0 01-3.257-3.257v-32.472a3.256 3.256 0 013.257-3.256z" style="isolation:isolate" fill="#fff" opacity=".7"/><path d="M275.197 193.09h22.935a2.5 2.5 0 012.5 2.5v24.881a2.5 2.5 0 01-2.5 2.5h-22.935a2.5 2.5 0 01-2.5-2.5v-24.88a2.5 2.5 0 012.5-2.5z" fill="#00ebc7"/><path d="M275.197 193.09h22.935a2.5 2.5 0 012.5 2.5v24.881a2.5 2.5 0 01-2.5 2.5h-22.935a2.5 2.5 0 01-2.5-2.5v-24.88a2.5 2.5 0 012.5-2.5z" style="isolation:isolate" fill="#fff" opacity=".3"/><rect x="25.66" y="41.838" width="260.999" height="28.319" rx="7.44" fill="#00ebc7"/><rect x="25.66" y="41.838" width="260.999" height="28.319" rx="7.44" style="isolation:isolate" fill="#fff" opacity=".5"/><path fill="#00ebc7" d="M169.271 65.146h70.822v9.749h-70.822z"/><path style="isolation:isolate" fill="#fff" opacity=".5" d="M169.271 65.146h70.822v9.749h-70.822z"/><rect x="51.056" width="260.999" height="28.319" rx="7.44" fill="#00ebc7"/><path d="M48.243 148.913c-.887 2.016-1.865 4.194-2.722 6.321s-1.744 4.315-2.52 6.493a92.094 92.094 0 00-3.821 13.035l-.293 1.613-.1.605a2.093 2.093 0 01-.061.595 24.729 24.729 0 00.06 2.944 59.385 59.385 0 001.009 6.684c.846 4.566 1.925 9.274 3.024 13.912l-5.172 2.016a93.405 93.405 0 01-6.14-13.7 57.463 57.463 0 01-2.137-7.531 27.028 27.028 0 01-.564-4.295v-1.22a6.033 6.033 0 01.07-1.2l.202-2.016a63.512 63.512 0 011.381-7.712c.565-2.52 1.29-4.97 2.016-7.39s1.634-4.799 2.591-7.137c.474-1.17 1.009-2.33 1.472-3.489a38.629 38.629 0 011.654-3.508z" fill="#e4897b"/><path d="M42.547 199.754l3.932 3.841-8.58 4.033s-2.076-3.64-.635-6.926z" fill="#e4897b"/><path fill="#e4897b" d="M49.654 209.311l-7.248 2.964-4.497-4.688 8.57-3.992 3.175 5.716z"/><path d="M196.49 205.178a72.593 72.593 0 11.054.006z" style="isolation:isolate" fill="#fafafa" opacity=".4"/><path d="M249.297 75.853l-110.392 88.203a98.97 98.97 0 01-1.34-3.025 71.82 71.82 0 01-5.253-20.647l95.35-76.185a71.73 71.73 0 0121.635 11.654zM274.773 114.495l-103.788 82.92a72.445 72.445 0 01-24.972-21.453L259.339 85.41a72.586 72.586 0 0115.434 29.085z" style="isolation:isolate" fill="#fafafa" opacity=".4"/><path d="M122.876 105.3l-.958-.322a88.395 88.395 0 016.23-14.164l.878.484a87.639 87.639 0 00-6.15 14.003zm12.239-23.53l-.817-.594a87.406 87.406 0 0131.626-26.424l.453.908A86.438 86.438 0 00135.115 81.8zm110.482-24.73a84.279 84.279 0 00-10.202-4.626l.363-.948a86.317 86.317 0 0110.303 4.718z" fill="#00ebc7"/><path d="M122.876 105.3l-.958-.322a88.395 88.395 0 016.23-14.164l.878.484a87.639 87.639 0 00-6.15 14.003zm12.239-23.53l-.817-.594a87.406 87.406 0 0131.626-26.424l.453.908A86.438 86.438 0 00135.115 81.8zm110.482-24.73a84.279 84.279 0 00-10.202-4.626l.363-.948a86.317 86.317 0 0110.303 4.718z" style="isolation:isolate" opacity=".3"/><path d="M279.622 95.965a83.676 83.676 0 00-153.893 65.258c-6.734 2.359-13.388 4.89-20.002 7.5Q91.422 174.4 77.378 180.58c-9.355 4.144-18.67 8.368-27.895 12.783-4.627 2.168-9.194 4.456-13.802 6.674a19.951 19.951 0 00-6.391 4.386 19.305 19.305 0 00-2.591 3.397 17.39 17.39 0 00-2.016 4.668 12.824 12.824 0 007.39 14.97 17.703 17.703 0 004.899 1.271 19.032 19.032 0 004.284 0 19.921 19.921 0 007.36-2.41c4.567-2.308 9.164-4.536 13.7-6.905 9.074-4.627 18.147-9.457 27.11-14.356s17.934-10.031 26.685-15.294c6.05-3.66 12.158-7.4 18.147-11.311a83.676 83.676 0 00145.385-82.487zm-45.83 96.309a66.055 66.055 0 11.014-.007z" fill="#00ebc7"/><path d="M279.622 95.965a83.676 83.676 0 00-153.893 65.258c-6.734 2.359-13.388 4.89-20.002 7.5Q91.422 174.4 77.378 180.58c-9.355 4.144-18.67 8.368-27.895 12.783-4.627 2.168-9.194 4.456-13.802 6.674a19.951 19.951 0 00-6.391 4.386 19.305 19.305 0 00-2.591 3.397 17.39 17.39 0 00-2.016 4.668 12.824 12.824 0 007.39 14.97 17.703 17.703 0 004.899 1.271 19.032 19.032 0 004.284 0 19.921 19.921 0 007.36-2.41c4.567-2.308 9.164-4.536 13.7-6.905 9.074-4.627 18.147-9.457 27.11-14.356s17.934-10.031 26.685-15.294c6.05-3.66 12.158-7.4 18.147-11.311a83.676 83.676 0 00145.385-82.487zm-45.83 96.309a66.055 66.055 0 11.014-.007z" style="isolation:isolate" opacity=".3"/><path d="M76.108 112.912c0 .595.313 1.08.706 1.08s.705-.485.705-1.08-.312-1.078-.705-1.078-.706.524-.706 1.078z" fill="#263238"/><path d="M76.39 113.991a21.504 21.504 0 002.853 5.111 3.438 3.438 0 01-2.853.535z" fill="#de5753"/><path d="M74.021 109.596a.373.373 0 01-.292-.142.363.363 0 01.08-.494 3.458 3.458 0 013.156-.534.353.353 0 11-.252.655 2.752 2.752 0 00-2.49.454.363.363 0 01-.202.06z" fill="#263238"/><path d="M55.743 117.399c1.009 5.413 2.118 15.344-1.673 18.963 0 0 1.482 5.494 11.553 5.494 11.09 0 5.283-5.494 5.283-5.494-6.049-1.452-5.878-5.928-4.829-10.142z" fill="#e4897b"/><path d="M49.543 139.215c1.2-1.865-.816-6.392-.816-6.392s17.824-4.486 25.113 2.4c1.512 1.421-.162 3.518-.162 3.518z" fill="#00ebc7"/><path d="M49.543 139.215c1.2-1.865-.816-6.392-.816-6.392s17.824-4.486 25.113 2.4c1.512 1.421-.162 3.518-.162 3.518z" style="isolation:isolate" opacity=".1"/><path d="M20.055 344.907c-.937 0-2.44-1.563-2.883-2.148a.171.171 0 010-.191.181.181 0 01.161-.09c.111 0 2.581.221 3.256 1.098a.817.817 0 01.162.665.726.726 0 01-.524.656zm-2.339-2.016c.736.846 1.916 1.804 2.42 1.683 0 0 .201-.05.262-.373a.454.454 0 00-.1-.383 4.708 4.708 0 00-2.582-.948z" fill="#00ebc7"/><path d="M17.827 342.87a2.7 2.7 0 01-.544 0 .161.161 0 01-.141-.11.202.202 0 010-.182c.07-.06 1.552-1.603 2.671-1.603a.948.948 0 01.716.302.575.575 0 01.141.706c-.292.565-1.835.887-2.843.887zm-.13-.352c1.007 0 2.47-.313 2.711-.757 0 0 .07-.13-.09-.292a.595.595 0 00-.464-.192 4.264 4.264 0 00-2.158 1.24zM86.583 367.792a13.356 13.356 0 01-2.279-.212.161.161 0 01-.13-.161.181.181 0 01.08-.182c.11-.06 2.692-1.542 3.932-1.2a.867.867 0 01.554.404.665.665 0 010 .766c-.292.454-1.21.585-2.157.585zm-1.704-.474c1.371.202 3.246.191 3.589-.292.05-.061.09-.172 0-.384a.565.565 0 00-.343-.252c-.786-.201-2.349.464-3.246.928z" fill="#00ebc7"/><path d="M84.345 367.59a.181.181 0 01-.101 0 .161.161 0 01-.07-.171 4.92 4.92 0 011.148-2.853 1.26 1.26 0 011.009-.293.581.581 0 01.655.484c.131.837-1.633 2.44-2.53 2.843zm1.804-3.024a.917.917 0 00-.605.221 4.033 4.033 0 00-1.008 2.289c.907-.555 2.117-1.805 2.016-2.309 0 0 0-.171-.342-.201z" fill="#00ebc7"/><path fill="#e4897b" d="M76.199 367.409h7.41l.736-17.149h-7.41l-.736 17.149zM10.216 337.971l6.19 4.053 13.67-11.544-6.2-4.063-13.66 11.554z"/><path d="M17.424 341.64l-6.432-5.272a.635.635 0 00-.807 0l-5.302 4.163a1.089 1.089 0 000 1.704c2.278 1.805 3.478 2.571 6.31 4.89 1.745 1.421 6.05 5.776 8.479 7.742s4.658-.15 3.851-1.17c-3.62-4.586-5.04-8.508-5.454-10.938a1.825 1.825 0 00-.645-1.119zM83.558 366.552h-8.065a.655.655 0 00-.635.504l-1.462 6.583a1.079 1.079 0 001.069 1.32c2.913-.05 7.127-.221 10.797-.221 4.285 0 7.995.232 13.015.232 3.025 0 3.892-3.075 2.611-3.347-5.787-1.27-10.525-1.402-15.525-4.497a3.468 3.468 0 00-1.805-.574zM39.472 138.57c-6.422 3.024-10.081 23.288-10.081 23.288l15.696 6.26a116.773 116.773 0 005.555-17.29c2.158-9.335-4.597-15.384-11.17-12.258z" fill="#263238"/><path d="M47.8 149.992c-3.882 3.932-5.656 11.634-6.433 16.644l3.76 1.503a117.653 117.653 0 005.445-16.786c-.333-2.137-1.16-2.994-2.773-1.361z" fill="#203048"/><path d="M82.298 138.429s7.884 8.912.444 64.017h-39.61c-.273-6.05 3.548-35.739-2.32-64.39a101.382 101.382 0 0113.258-1.674 142.018 142.018 0 0116.836 0 74.796 74.796 0 0111.392 2.047z" fill="#263238"/><path d="M85.917 159.821l-6.674-11.503a58.786 58.786 0 00-1.562 16.403c.181 3.952 3.8 18.59 7.057 20.727a232.723 232.723 0 001.18-25.627z" fill="#203048"/><path d="M86.845 146.302c1.008 4.9 2.016 9.92 3.095 14.84s2.198 9.86 3.498 14.628c.333 1.18.645 2.39 1.008 3.519l.272.867.131.433v-.05c-.07-.091-.15-.101-.09 0a3.377 3.377 0 001.532.957 17.985 17.985 0 002.934.817 78.424 78.424 0 0014.416.938l.958 5.484c-1.35.433-2.611.746-3.942 1.059s-2.641.574-3.982.776a43.078 43.078 0 01-8.398.564 22.795 22.795 0 01-4.637-.605 13.499 13.499 0 01-5.323-2.47 9.728 9.728 0 01-2.49-3.024c-.162-.302-.303-.645-.434-.938l-.181-.473-.373-1.008c-.515-1.28-.938-2.541-1.402-3.801-1.704-5.04-3.125-10.132-4.375-15.213s-2.329-10.152-3.226-15.364z" fill="#e4897b"/><path d="M72.408 143.832c-2.087 6.765 6.372 26.938 6.372 26.938l16.846-4.234s-.645-10.485-4.487-18.802c-5.786-12.542-16.23-12.017-18.73-3.902z" fill="#263238"/><path d="M113.5 183.25l8.388-.211-4.033 8.73s-3.417.454-6.22-4.153l-2.954-3.529 3.398-.675a7.58 7.58 0 011.421-.161z" fill="#e4897b"/><path fill="#e4897b" d="M127.181 184.662l-4.799 7.239-4.527-.132 4.033-8.73 5.293 1.623z"/><path fill="#ce6f64" d="M84.345 350.26l-.384 8.842h-7.409l.383-8.842h7.41zM23.876 326.417l6.2 4.063-7.057 5.948-6.19-4.052 7.047-5.959z"/><path d="M56.207 111.632c.444 7.33.333 11.654 4.033 15.415 5.565 5.675 14.628 2.318 16.382-5.041 1.583-6.593.595-17.481-6.583-20.405a10.081 10.081 0 00-13.832 10.031z" fill="#e4897b"/><path d="M47.577 110.342c1.825 6.684 6.12 14.386 11.675 14.88 6.896.605 10.01-6.523 10.918-13.882 4.133-2.833 1.966-5.948 6.11-6.342 5.322-.504 3.619-10.242-3.388-11.805 0 0 2.349 4.385-2.58 2.167a28.45 28.45 0 00-15.063-2.61s6.291 3.145.142 4.546-7.985 5.192-5.152 7.48a4.276 4.276 0 00-2.662 5.566z" fill="#263238"/><path d="M65.966 112.852a8.287 8.287 0 002.087 4.91c1.613 1.784 3.297.675 3.579-1.493.262-1.945-.272-5.222-2.248-6.21s-3.549.595-3.418 2.793z" fill="#e4897b"/><path d="M68.688 202.446s7.218 52.272 1.532 73.221c-9.012 33.168-43.47 61.165-43.47 61.165l-11.685-7.662S44.412 305.529 48 277.754c3.226-24.931-4.87-55.085-4.87-75.318z" fill="#00ebc7"/><path d="M68.688 202.446s7.218 52.272 1.532 73.221c-9.012 33.168-43.47 61.165-43.47 61.165l-11.685-7.662S44.412 305.529 48 277.754c3.226-24.931-4.87-55.085-4.87-75.318z" style="isolation:isolate" opacity=".1"/><path d="M71.672 232.327a48.794 48.794 0 00-6.32-6.049c1.229 16.967 2.237 42.1 1.118 59.955a77.032 77.032 0 003.75-10.556c2.773-10.232 2.48-27.905 1.452-43.35z" fill="#00ebc7"/><path d="M71.672 232.327a48.794 48.794 0 00-6.32-6.049c1.229 16.967 2.237 42.1 1.118 59.955a77.032 77.032 0 003.75-10.556c2.773-10.232 2.48-27.905 1.452-43.35z" style="isolation:isolate" opacity=".3"/><path d="M31.457 334.22c.05 0-4.526 3.025-4.526 3.025l-12.763-8.368 4.032-3.337z" fill="#00ebc7"/><path d="M31.457 334.22c.05 0-4.526 3.025-4.526 3.025l-12.763-8.368 4.032-3.337z" style="isolation:isolate" opacity=".3"/><path d="M82.742 202.446s11.15 47.282 11.936 69.874c.887 25.325-7.954 85.068-7.954 85.068H74.172s-1.542-60.207-2.097-83.273c-.615-25.153-15.374-71.67-15.374-71.67z" fill="#00ebc7"/><path d="M82.742 202.446s11.15 47.282 11.936 69.874c.887 25.325-7.954 85.068-7.954 85.068H74.172s-1.542-60.207-2.097-83.273c-.615-25.153-15.374-71.67-15.374-71.67z" style="isolation:isolate" opacity=".1"/><path d="M89.133 352.397c.06 0-.705 5.202-.705 5.202H73.164l-.413-4.647z" fill="#00ebc7"/><path d="M89.133 352.397c.06 0-.705 5.202-.705 5.202H73.164l-.413-4.647z" style="isolation:isolate" opacity=".3"/><path d="M275.72 157.009c.858.806 1.533 1.492 2.239 2.258s1.371 1.512 2.016 2.288c1.31 1.543 2.54 3.166 3.73 4.8a76.89 76.89 0 016.321 10.343l.373.736a7.107 7.107 0 01.454 1.109 9.195 9.195 0 01.444 2.278 11.09 11.09 0 01-.555 4.033 20.324 20.324 0 01-3.236 5.968 43.028 43.028 0 01-8.872 8.529l-2.51-2.884c1.18-1.38 2.41-2.863 3.509-4.345a37.06 37.06 0 003.024-4.536 15.757 15.757 0 001.835-4.456 4.618 4.618 0 00.07-1.714 2.238 2.238 0 00-.181-.555 1.603 1.603 0 00-.131-.221l-.323-.545a105.92 105.92 0 00-6.32-9.184c-1.12-1.482-2.32-2.903-3.53-4.305-.594-.705-1.21-1.391-1.824-2.077s-1.28-1.37-1.815-1.905z" fill="#e4897b"/><path d="M277.092 195.62l-7.53-1.23 3.94 6.594s4.85-.171 6.231-3.025z" fill="#e4897b"/><path fill="#e4897b" d="M263.996 197.435l3.589 5.354 5.918-1.805-3.942-6.593-5.565 3.044z"/><path d="M276.729 367.701a2.167 2.167 0 01-1.442-.393 1.008 1.008 0 01-.292-.948.595.595 0 01.353-.504c.877-.393 3.176 1.079 3.438 1.25a.182.182 0 01-.06.323 8.922 8.922 0 01-1.997.272zm-1.008-1.563a.727.727 0 00-.222 0 .262.262 0 00-.151.232.675.675 0 00.181.635c.383.343 1.371.394 2.692.131a6.644 6.644 0 00-2.5-.998z" fill="#00ebc7"/><path d="M278.745 367.419h-.09c-.716-.414-2.097-2.017-1.926-2.894a.655.655 0 01.605-.504.907.907 0 01.756.242c.827.726.837 2.904.837 3.025a.192.192 0 01-.091.15zm-1.29-3.025h-.08c-.223 0-.273.121-.293.212-.101.514.756 1.744 1.472 2.319a4.123 4.123 0 00-.696-2.38.575.575 0 00-.454-.15zM242.371 367.701a2.792 2.792 0 01-1.824-.464 1.008 1.008 0 01-.333-.867.585.585 0 01.302-.474c.938-.524 3.942 1.009 4.285 1.2a.202.202 0 01.09.192.171.171 0 01-.14.14 12.57 12.57 0 01-2.38.273zm-1.34-1.563a.625.625 0 00-.333.071.212.212 0 00-.121.192.655.655 0 00.202.574c.463.414 1.703.484 3.377.202a9.809 9.809 0 00-3.125-1.039z" fill="#00ebc7"/><path d="M244.72 367.419h-.08c-.898-.404-2.682-2.017-2.54-2.894 0-.201.18-.453.675-.504a1.33 1.33 0 011.008.313c.948.786 1.129 2.823 1.129 2.913a.171.171 0 01-.07.162.192.192 0 01-.122.01zm-1.804-3.025h-.111c-.323 0-.343.162-.353.202-.08.514 1.13 1.794 2.016 2.349a4.194 4.194 0 00-1.008-2.329.938.938 0 00-.544-.222z" fill="#00ebc7"/><path d="M256.637 133.831c-.293 4.557-1.079 13.812 2.42 16.373 0 0-.636 4.667-8.893 5.756-9.073 1.18-4.93-3.942-4.93-3.942 4.81-1.835 4.194-5.494 2.884-8.841z" fill="#e4897b"/><path d="M237.855 125.776a.343.343 0 01-.262-.12 2.853 2.853 0 00-2.37-1.009.353.353 0 01-.41-.284l-.003-.018a.363.363 0 01.313-.404 3.539 3.539 0 013.024 1.27.363.363 0 01-.272.595z" fill="#263238"/><path d="M236.282 130.242a16.412 16.412 0 01-1.643 4.134 2.601 2.601 0 002.208.12z" fill="#de5753"/><path d="M236.685 129.133c.081.605-.17 1.13-.564 1.19s-.786-.403-.857-1.008.171-1.13.565-1.18.786.353.856.998z" fill="#263238"/><path d="M236.01 128.145l-1.502-.231s.887 1.038 1.502.231z" fill="#263238"/><path fill="#e4897b" d="M253.028 367.257h-7.562l-.504-17.491h7.561l.505 17.491zM287.355 367.257h-7.561l-2.43-17.491h7.561l2.43 17.491z"/><path d="M279.33 366.41h8.489a.595.595 0 01.594.515l1.009 6.724a1.21 1.21 0 01-1.21 1.34c-2.954-.05-4.386-.22-8.116-.22-2.298 0-5.655.231-8.821.231s-3.337-3.135-2.016-3.418c5.917-1.27 6.855-3.024 8.841-4.708a2.016 2.016 0 011.23-.463zM245.214 366.41h8.479a.605.605 0 01.605.515l1.008 6.724a1.21 1.21 0 01-1.21 1.34c-2.954-.05-4.385-.22-8.115-.22-2.299 0-7.057.231-10.223.231s-3.337-3.135-2.016-3.418c5.918-1.27 8.246-3.024 10.242-4.708a2.016 2.016 0 011.23-.463z" fill="#263238"/><path fill="#ce6f64" d="M244.962 349.766l.262 9.023h7.562l-.263-9.023h-7.561zM284.925 349.766h-7.561l1.26 9.023h7.551l-1.25-9.023z"/><path d="M256.738 124.395c.514 7.48.887 10.636-2.36 14.94-4.89 6.463-14.184 5.465-16.926-1.713-2.47-6.462-2.894-17.602 3.982-21.514a10.233 10.233 0 0115.304 8.287z" fill="#e4897b"/><path d="M261.093 131.341c4.194 2.34 7.309-3.427 7.309-3.427s-7.521.816-6.846-3.66c.888-5.938-3.367-13.156-14.033-12.229-.595.05-1.16.121-1.714.212a5.484 5.484 0 00-6.633 1.532c-3.025.252-7.108 3.861-4.335 8.63a4.386 4.386 0 01.887-1.482c.232 2.793 2.671 7.228 5.716 7.52.655 3.822-1.885 8.247-1.008 12.24 1.3 5.756 11.009 7.057 11.009 7.057a4.204 4.204 0 01.564-4.446c6.594 3.024 10.939.07 10.939.07-4.497-1.673-3.136-4.657-3.136-4.657a6.563 6.563 0 008.56-3.115 7.743 7.743 0 01-7.28-4.245z" fill="#263238"/><path d="M244.075 129.587a5.444 5.444 0 01-1.512 3.902c-1.33 1.38-2.964.413-3.408-1.351-.393-1.593-.171-4.224 1.563-4.95a2.46 2.46 0 013.357 2.4z" fill="#e4897b"/><path d="M250.356 199.28s1.915 49.762 6.472 78.978c3.67 23.611 19.972 78.777 19.972 78.777h10.303s-8.499-53.28-10.364-76.62c-4.718-59.066 7.53-71.749-4.032-84.048z" fill="#263238"/><path d="M258.965 215.017s-4.657-.806-7.38 8.065c1.009 16.806 2.733 39.106 5.243 55.176.555 3.58 1.402 7.894 2.44 12.622-1.966-28.39-.303-75.863-.303-75.863z" fill="#161f33"/><path d="M242.321 200.329s-8.489 55.054-7.995 78.09c.515 23.964 9.296 78.636 9.296 78.636h10.212s-1.613-53.25-.716-76.78c1.008-25.658 11.483-82.84 11.483-82.84z" fill="#263238"/><path fill="#00ebc7" d="M288.595 357.519h-13.701l-1.068-4.597 14.668.1.101 4.497z"/><path style="isolation:isolate" opacity=".2" d="M288.595 357.519h-13.701l-1.068-4.597 14.668.1.101 4.497z"/><path d="M272.192 150.214c3.942.383 9.93 11.583 9.93 11.583l-9.95 7.632s-8.236-7.228-7.258-11.291c1.018-4.224 3.498-8.277 7.278-7.924z" fill="#00ebc7"/><path d="M272.192 150.214c3.942.383 9.93 11.583 9.93 11.583l-9.95 7.632s-8.236-7.228-7.258-11.291c1.018-4.224 3.498-8.277 7.278-7.924z" style="isolation:isolate" opacity=".1"/><path d="M269.218 155.033a10.212 10.212 0 00-3.085-.343 17.048 17.048 0 00-1.22 3.448c-1.008 4.032 7.26 11.291 7.26 11.291l.735-.565z" fill="#00ebc7"/><path d="M269.218 155.033a10.212 10.212 0 00-3.085-.343 17.048 17.048 0 00-1.22 3.448c-1.008 4.032 7.26 11.291 7.26 11.291l.735-.565z" style="isolation:isolate" opacity=".3"/><path d="M238.944 165.79c-2.874 7.268-5.898 14.658-8.307 21.947-.162.464-.293.907-.434 1.36l-.343 1.12a1.845 1.845 0 000 1.008 7.581 7.581 0 002.611 3.125 42.534 42.534 0 009.77 5.233l-.908 3.71a34.972 34.972 0 01-12.178-3.973 13.035 13.035 0 01-5.434-5.504 8.438 8.438 0 01-.696-4.799 5.632 5.632 0 01.1-.595l.102-.423.171-.766c.121-.514.242-1.008.373-1.512 1.008-4.033 2.299-7.864 3.66-11.665s2.782-7.55 4.385-11.29z" fill="#e4897b"/><path d="M232.824 155.587s-3.407 1.724 9.497 44.742l30.426-3.972c-2.137-12.32-3.146-19.952-.555-46.143a91.74 91.74 0 00-13.106 0 96.279 96.279 0 00-13.821 1.814c-5.837 1.3-12.44 3.56-12.44 3.56z" fill="#00ebc7"/><path d="M232.824 155.587s-3.407 1.724 9.497 44.742l30.426-3.972c-2.137-12.32-3.146-19.952-.555-46.143a91.74 91.74 0 00-13.106 0 96.279 96.279 0 00-13.821 1.814c-5.837 1.3-12.44 3.56-12.44 3.56z" style="isolation:isolate" opacity=".1"/><path d="M272.969 194.512l1.744 2.53c.13.202-.091.444-.434.494l-31.908 4.174c-.272 0-.524-.07-.564-.242l-.625-2.692c-.05-.181.171-.373.474-.413l30.809-4.033a.554.554 0 01.504.182z" fill="#00ebc7"/><path d="M272.969 194.512l1.744 2.53c.13.202-.091.444-.434.494l-31.908 4.174c-.272 0-.524-.07-.564-.242l-.625-2.692c-.05-.181.171-.373.474-.413l30.809-4.033a.554.554 0 01.504.182z" style="isolation:isolate" opacity=".2"/><path d="M269.279 198.494l.826-.111c.162 0 .273-.121.252-.222l-.846-3.488a.292.292 0 00-.343-.141l-.827.1c-.171 0-.282.122-.252.233l.847 3.478c.02.11.182.171.343.15zM249.277 201.075l.827-.111c.161 0 .282-.121.252-.222l-.847-3.488a.312.312 0 00-.343-.151l-.826.11c-.162 0-.283.121-.252.222l.846 3.488c.02.152.182.212.343.152z" fill="#263238"/><path d="M234.246 170.185c.836 3.892 2.016 8.821 3.74 15.062l.373-15.818z" fill="#00ebc7"/><path d="M234.246 170.185c.836 3.892 2.016 8.821 3.74 15.062l.373-15.818z" style="isolation:isolate" opacity=".3"/><path d="M232.824 155.587c-3.78 1.522-7.057 14.457-7.057 14.457l13.005 6.331s6.281-15.818 3.468-18.903-5.06-3.629-9.416-1.885z" fill="#00ebc7"/><path d="M232.824 155.587c-3.78 1.522-7.057 14.457-7.057 14.457l13.005 6.331s6.281-15.818 3.468-18.903-5.06-3.629-9.416-1.885z" style="isolation:isolate" opacity=".1"/><path fill="#00ebc7" d="M255.578 357.519h-13.701l-1.068-4.597 15.253.1-.484 4.497z"/><path style="isolation:isolate" opacity=".2" d="M255.578 357.519h-13.701l-1.068-4.597 15.253.1-.484 4.497z"/><path d="M242.452 198.333l-1.099-.454a1.653 1.653 0 00-2.258 1.774l.796 5.253a1.794 1.794 0 002.38 1.431 4.033 4.033 0 001.109-.615 3.024 3.024 0 001.088-2.5l-.11-2.178a3.024 3.024 0 00-1.906-2.711z" fill="#e4897b"/></svg>