<svg xmlns="http://www.w3.org/2000/svg" viewBox="0 0 145.513 150"><path fill="#e0e0e0" d="M17.943 17.037l2.911-.016.7 129.336-2.911.016zM24.913 16.999l2.911-.016.7 129.336-2.911.016z"/><path d="M5.846 0h83.287a5.846 5.846 0 015.846 5.846v134.907a5.846 5.846 0 01-5.846 5.846H5.846A5.846 5.846 0 010 140.753V5.846A5.846 5.846 0 015.846 0z" fill="#455a64"/><path d="M50.4 139.78a3.655 3.655 0 11-3.644-3.917 3.791 3.791 0 013.644 3.918z" fill="#263238"/><rect x="33.185" y="4.222" width="28.604" height="1.62" rx=".618" fill="#263238"/><path fill="#263238" d="M3.24 8.413h88.986v123.684H3.24z"/><path d="M39.861 111.946l-.313.395a1.228 1.228 0 00-.886-.405 1.124 1.124 0 10-.152 2.242 1.075 1.075 0 00.152 0 1.301 1.301 0 00.886-.374l.319.354a1.812 1.812 0 01-1.236.506 1.615 1.615 0 01-.186-3.224h.006a1.543 1.543 0 01.18 0 1.761 1.761 0 011.23.506z" fill="#fff"/><path d="M43.44 113.065a1.69 1.69 0 11-1.772-1.608h.08a1.63 1.63 0 011.69 1.568v.001a.152.152 0 01.002.039zm-2.834 0a1.134 1.134 0 101.133-1.134h-.015a1.144 1.144 0 00-1.118 1.134zM46.275 114.66l-1.701-2.289v2.288h-.537v-3.189h.507l1.71 2.293v-2.293h.507v3.19zM48.183 111.951v.921h1.448v.481h-1.448v1.306h-.542v-3.189h2.147v.481zM50.263 114.66v-3.19h.537v3.19zM53.057 113.677h-.9v.962h-.517v-3.189h1.29c.816 0 1.287.395 1.287 1.088a1.012 1.012 0 01-.658 1.013l.713 1.068h-.612zm-.146-.476c.506 0 .774-.212.774-.642s-.278-.623-.774-.623h-.755v1.265zM57.805 114.66v-2.385l-1.012 2.025h-.354l-1.013-2.025v2.384h-.506v-3.189h.668l1.053 2.116 1.048-2.116h.638v3.19z" fill="#fff"/><path d="M28.51 106.429h37.964a6.327 6.327 0 016.327 6.327h0a6.327 6.327 0 01-6.327 6.327H28.51a6.327 6.327 0 01-6.327-6.327h0a6.327 6.327 0 016.327-6.327z" fill="none" stroke="#fff" stroke-miterlimit="5.062" stroke-width=".506"/><path fill="#fde24f" d="M13.348 51.529l67.402-.486 1.878 45.824-69.791-.648.511-44.69zM13.348 51.529l34.217-27.688L80.75 51.043"/><path d="M13.348 51.529l34.217-27.688L80.75 51.043" opacity=".3"/><path d="M12.837 96.22c-.086-.077 5.31-5.969 12.052-13.161s12.27-12.953 12.356-12.872-5.31 5.967-12.053 13.16S12.922 96.3 12.837 96.22zM82.628 96.867c-.086.076-5.34-5.694-11.733-12.892s-11.51-13.095-11.424-13.16 5.34 5.694 11.733 12.892 11.51 13.084 11.424 13.16z" fill="#263238"/><path d="M80.75 51.043l-33.848 27.04-33.554-26.554" opacity=".5"/><path fill="#ebebeb" d="M16.744 54.034l-.101-19.604 59.036-1.448.642 21.452-29.419 23.295-30.158-23.695z"/><path d="M47.727 70.683A14.687 14.687 0 1162.29 57.649a14.68 14.68 0 01-14.563 13.034zm-.04-28.853a14.173 14.173 0 1014.097 15.778 14.173 14.173 0 00-12.471-15.691h-.022a14.302 14.302 0 00-1.604-.117z" fill="#fde24f"/><path fill="#fde24f" d="M37.715 58.033l2.455-3.006 5.74 4.145 9.329-10.994 2.814 2.475-12.001 13.829-8.337-6.449z"/><path d="M111.232 77.91a.607.607 0 00.896.36 1.012 1.012 0 00.395-1.012 2.936 2.936 0 00-.45-1.043 1.114 1.114 0 10.561-2.085 2.91 2.91 0 001.327-.552 1.18 1.18 0 00.374-1.306.75.75 0 00-.995-.363.74.74 0 00-.194.13 2.193 2.193 0 00.673-.582.75.75 0 00.035-.84.815.815 0 00-.946-.172 7.994 7.994 0 00-.896.506 2.349 2.349 0 01-2.349-.086l-1.888 1.559zM101.144 69.341a2.89 2.89 0 00-1.964 2.415 1.518 1.518 0 00.279 1.139 1.362 1.362 0 001.33.364 3.435 3.435 0 001.271-.663 2.53 2.53 0 001.195-1.584 1.62 1.62 0 00-1.012-1.585 2.384 2.384 0 00-1.939.112" fill="#263238"/><path d="M102.78 78.69a5.89 5.89 0 01-.836 1.883 2.47 2.47 0 01-1.706 1.058 1.58 1.58 0 01-1.64-.982 1.17 1.17 0 01-.84.81.967.967 0 01-1.043-.466.83.83 0 01.294-1.068c-.405.228-.911.461-1.311.223a.831.831 0 01-.354-.47 1.992 1.992 0 01.627-1.813 3.686 3.686 0 001.063-1.66 3.886 3.886 0 00-.238-1.58 3.746 3.746 0 01-.07-1.77 2.177 2.177 0 011.012-1.428 1.519 1.519 0 011.68.096l.086.86 3.29 6.307" fill="#263238"/><path d="M110.65 88.723s1.18 12.477.188 14.102-13.161 18.607-13.161 18.607h.03c-.238.101-.506.197-.769.304a4.05 4.05 0 01-1.321.232 5.95 5.95 0 01-1.66-.156c-.507-.173-.927.339-.663.723a4.271 4.271 0 003.244.724c1.65-.157-.207 1.67-.87 2.349s-2.617 2.88-2.567 3.25c.071.541.663.566 1.311-.127s2.729-2.642 3.073-2.273-3.088 3.776-3.088 3.776-.85.613-.466 1.053c.684.79 4.05-3.108 4.369-3.487.217-.264.602.121.354.39s-3.493 3.33-2.8 4.14c.532.622 2.805-3.184 3.828-3.442s-2.025 2.708-1.484 3.285c.198.213.375.344 1.873-1.615a56.11 56.11 0 003.265-5.304c1.595-1.727 17.311-18.79 17.433-21.979.126-3.356.729-14.714.729-14.714z" fill="#eb996e"/><path d="M91.907 144.26l-.147-4.631 8.676-.324.283 6.773-.536.055c-2.39.223-12.149.962-13.784.537-1.802-.476 5.508-2.41 5.508-2.41z" fill="#fde24f"/><path d="M88.338 145.334s-2.556.84-2.217 1.255 10.24.035 14.598-.506l-.025-.193-11.546.537s-.304-1.093-.81-1.093z" fill="#fff" opacity=".4"/><path d="M100.83 145.875h-.146l-.426.04-1.574.132c-1.331.096-3.168.208-5.203.289s-3.878.106-5.209.111h-2.01a.51.51 0 01-.151 0h.582l1.574-.025a247.976 247.976 0 0010.412-.405l1.574-.096h.43z" fill="#263238"/><path d="M89.153 146.579a3.515 3.515 0 00-.319-.744 3.705 3.705 0 00-.562-.582 1.158 1.158 0 01.648.506 1.135 1.135 0 01.233.82zM91.664 145.161a1.67 1.67 0 01-.284-.324.949.949 0 01-.202-.38 1.148 1.148 0 01.288.32c.137.192.223.37.198.384zM92.352 144.762a1.248 1.248 0 01-.314-.193c-.157-.131-.263-.248-.243-.273s.157.066.314.192.263.253.243.274zM92.767 143.926a1.063 1.063 0 01-.45.076.228.228 0 110-.106 1.036 1.036 0 01.45.03zM92.899 143.344a.911.911 0 01-.507.167.944.944 0 01-.506-.05 3.149 3.149 0 01.506-.056 2.585 2.585 0 01.507-.06z" fill="#263238"/><path d="M91.34 144.417a1.607 1.607 0 01-.557 0 3.411 3.411 0 01-.597-.106 1.812 1.812 0 01-.345-.126.313.313 0 01-.146-.173.218.218 0 01.076-.222 1.012 1.012 0 011.275.248.976.976 0 01.197.364.35.35 0 010 .152 1.604 1.604 0 00-.273-.466 1.012 1.012 0 00-.506-.293.865.865 0 00-.663.07c-.086.072-.046.173.056.228a1.664 1.664 0 00.313.122 3.459 3.459 0 00.582.126c.375.066.588.056.588.076z" fill="#263238"/><path d="M91.198 144.448a.552.552 0 01-.076-.385.832.832 0 01.137-.41.546.546 0 01.45-.304.223.223 0 01.182.248.54.54 0 01-.086.253 1.676 1.676 0 01-.248.35c-.172.177-.303.248-.313.238s.106-.107.258-.289a1.877 1.877 0 00.217-.34c.071-.12.117-.338-.025-.353s-.273.131-.354.248a.95.95 0 00-.147.37 2.059 2.059 0 00.005.374zM100.562 143.506a6.086 6.086 0 00-.638.046 2.821 2.821 0 00-1.376.633 2.784 2.784 0 00-.825 1.265c-.122.38-.122.628-.142.628a.61.61 0 010-.178 2.39 2.39 0 01.076-.47 2.637 2.637 0 012.262-1.95 2.136 2.136 0 01.476 0 .455.455 0 01.167.026zM99.53 139.933a15.24 15.24 0 01.141 1.776 14.417 14.417 0 01.036 1.787 16.648 16.648 0 01-.142-1.782 14.238 14.238 0 01-.035-1.781zM96.447 145.323a4.955 4.955 0 01-1.26.173 5.102 5.102 0 01-1.276-.051c0-.03.572 0 1.27-.056a8.91 8.91 0 011.266-.066z" fill="#263238"/><path d="M98.148 145.258l-.096.253c-.05.132-.081.248-.112.248s-.05-.137 0-.289.167-.233.208-.212zM98.755 144.433a.575.575 0 01-.116.207c-.086.096-.172.157-.198.137s.036-.112.122-.208.172-.157.192-.136zM99.661 144.048c0 .03-.121.035-.248.086s-.217.121-.238.101.046-.142.203-.202.288-.026.283.015zM100.304 143.84c0 .026-.035.071-.106.102s-.137.035-.152 0 .04-.076.111-.107.137-.025.147.005z" fill="#263238"/><path d="M100.542 143.273l-8.671.188-.025-1.048 8.747.309-.051.551z" opacity=".3"/><path d="M124.565 112.837l-27.425-.375s-7.638.71-7.638 10.65l.967 19.574h11.688l-.795-18.759c.653 0 9.5.294 9.5.294z" fill="#263238"/><path d="M90.474 142.686a1.623 1.623 0 01-.035-.339c0-.248-.036-.572-.056-.972l-.208-3.573c-.177-3.037-.506-7.183-.749-11.8a41.793 41.793 0 010-6.519 9.543 9.543 0 01.299-1.448 6.8 6.8 0 01.562-1.28 7.322 7.322 0 011.59-1.924 8.27 8.27 0 011.72-1.128 8.67 8.67 0 011.458-.507l.547-.131.41-.066a1.695 1.695 0 01.339-.035 1.445 1.445 0 01-.33.086l-.4.09-.54.153a10.705 10.705 0 00-1.418.561 8.338 8.338 0 00-1.665 1.134 7.408 7.408 0 00-1.519 1.893 6.854 6.854 0 00-.506 1.245 9.938 9.938 0 00-.283 1.413 41.817 41.817 0 000 6.474c.227 4.606.541 8.772.673 11.799.07 1.518.106 2.733.121 3.578v.977a1.461 1.461 0 01-.01.32z" fill="#455a64"/><path d="M142.818 144.266l-4.627.308-.602-8.655 6.758-.507.075.507c.304 2.379 1.387 12.148 1.013 13.753-.425 1.832-2.617-5.406-2.617-5.406z" fill="#fde24f"/><path d="M144.017 147.794s.927 2.53 1.332 2.171-.324-10.235-1.013-14.568h-.192l.947 11.526s-1.094.364-1.073.87z" fill="#fff" opacity=".4"/><path d="M144.114 135.291a.608.608 0 01.03.147 3.79 3.79 0 00.056.425l.182 1.57c.147 1.325.324 3.158.47 5.187s.249 3.868.3 5.204c0 .617.035 1.149.05 1.574v.43a.693.693 0 010 .152 1.087 1.087 0 010-.152 2.576 2.576 0 00-.025-.425c0-.43-.051-.956-.086-1.579-.071-1.331-.178-3.169-.324-5.198s-.32-3.863-.446-5.189c-.056-.617-.106-1.144-.147-1.569a3.46 3.46 0 00-.04-.43 1.375 1.375 0 00-.02-.147z" fill="#263238"/><path d="M145.207 146.933a4.016 4.016 0 00-.729.35 3.398 3.398 0 00-.562.581 1.153 1.153 0 01.506-.668 1.171 1.171 0 01.785-.263zM143.724 144.473a1.146 1.146 0 01-.309.299c-.187.141-.36.238-.38.212s.127-.157.314-.298a1.063 1.063 0 01.375-.213zM143.304 143.8a1.461 1.461 0 01-.182.324c-.122.162-.243.273-.264.253s.056-.162.183-.319.237-.273.263-.258zM142.453 143.42a.988.988 0 01.092.446 1.018 1.018 0 010 .455.988.988 0 01-.092-.445 1.152 1.152 0 010-.456zM141.866 143.309a.868.868 0 01.182.506.894.894 0 01-.03.506 2.628 2.628 0 01-.07-.506 2.592 2.592 0 01-.082-.506z" fill="#263238"/><path d="M142.99 144.822a1.518 1.518 0 01.04.557 3.231 3.231 0 01-.09.602 1.764 1.764 0 01-.112.35.318.318 0 01-.162.152.228.228 0 01-.233-.066 1.012 1.012 0 01.208-1.286.974.974 0 01.36-.207.3.3 0 01.146-.026 1.457 1.457 0 00-.456.289.98.98 0 00-.273.506.835.835 0 00.096.658c.071.086.172.046.223-.06a1.832 1.832 0 00.111-.32 3.72 3.72 0 00.107-.587c.035-.324.02-.557.035-.562z" fill="#263238"/><path d="M143.03 144.964a.553.553 0 01-.384.096.95.95 0 01-.415-.121.567.567 0 01-.32-.446.223.223 0 01.244-.187.575.575 0 01.258.076 1.519 1.519 0 01.354.238.839.839 0 01.248.298 3.729 3.729 0 00-.293-.243 2.19 2.19 0 00-.35-.207c-.126-.066-.339-.106-.354.035s.147.274.263.35a.9.9 0 00.375.131 1.72 1.72 0 00.374-.02zM141.76 135.64a3.948 3.948 0 00.07.638 2.795 2.795 0 00.674 1.352 2.837 2.837 0 001.296.784c.385.101.633.096.633.117a.548.548 0 01-.178 0 2.173 2.173 0 01-.47-.061 2.642 2.642 0 01-2.025-2.197 2.023 2.023 0 010-.476.51.51 0 010-.157zM138.222 136.8a15.66 15.66 0 011.771-.203 14.458 14.458 0 011.782-.101 14.26 14.26 0 01-1.771.202 14.456 14.456 0 01-1.782.101zM143.719 139.69a4.943 4.943 0 01.218 1.255 4.681 4.681 0 010 1.276c-.03 0-.036-.567-.097-1.266s-.152-1.255-.121-1.265z" fill="#263238"/><path d="M143.592 137.974l.258.086c.137.045.248.07.248.101s-.131.056-.283 0-.243-.147-.223-.187zM142.747 137.412a.61.61 0 01.213.111c.096.081.162.167.141.193s-.111-.03-.212-.112-.157-.167-.142-.192zM142.317 136.526c.03 0 .04.117.09.243s.132.213.112.233-.142-.036-.207-.192-.02-.289.005-.284zM142.1 135.888a.213.213 0 01.105.102c.03.07.04.136 0 .151s-.076-.035-.111-.106-.02-.137.005-.147z" fill="#263238"/><path d="M141.527 135.666l.491 8.66-1.043.066v-8.752l.552.026z" opacity=".3"/><path d="M114.457 135.706s23.37-12.76 26.017-16.916a8.95 8.95 0 00.78-8.302l-19.665 2.627-13.986 14.006c-3.037 2.415-8.54 7.461-8.54 12.437 0 8.514 11.01 7.122 18.912 7.142 10.801.026 22.924.071 22.924.071l.03-11.607z" fill="#263238"/><path d="M108.904 138.136a21.754 21.754 0 002.88-1.13 20.769 20.769 0 002.79-1.34 21.38 21.38 0 00-2.881 1.133 20.766 20.766 0 00-2.789 1.337zM110.762 135.291a9.438 9.438 0 002.024.177 9.685 9.685 0 002.055-.045 9.743 9.743 0 00-2.024-.183 9.033 9.033 0 00-2.055.051zM120.05 115.084a1.772 1.772 0 01-.218.243l-.668.658-2.485 2.395-8.266 7.825c-1.615 1.519-3.184 2.951-4.556 4.303a21.734 21.734 0 00-3.219 3.923 10.58 10.58 0 00-1.326 3.138l-.116.506a2.116 2.116 0 01-.056.395 1.268 1.268 0 01-.06.319 1.444 1.444 0 010-.324 1.939 1.939 0 01.03-.4c.03-.152.055-.334.09-.537a10.054 10.054 0 011.271-3.214 21.28 21.28 0 013.204-4.004c1.362-1.372 2.926-2.794 4.556-4.323l8.321-7.754 2.531-2.329.704-.627a2.084 2.084 0 01.263-.193z" fill="#455a64"/><path d="M113.034 89.73a4.005 4.005 0 01-5.603-2l-.89-2.17a3.79 3.79 0 01-4.556-1.697c-.861-1.554-2.08-4.206-2.982-6.236a5.38 5.38 0 01.506-5.244c2.476-3.123 4.44-2.601 8.373-1.964l.587.096 6.332 14.047a4.004 4.004 0 01-1.767 5.168z" fill="#ffbe9d"/><path d="M100.932 78.999a.46.46 0 10-.59.275l.008.003a.456.456 0 00.581-.276zM99.687 78.533c.07.026.227-.334.612-.541s.77-.162.785-.233-.081-.096-.254-.122a1.012 1.012 0 00-.658.127 1.06 1.06 0 00-.455.506c-.091.147-.06.253-.03.263zM104.262 76.726a.46.46 0 10.63-.165.456.456 0 00-.623.16zM103.878 76.635c.07.026.227-.334.612-.541s.77-.162.785-.233-.081-.096-.253-.122a1.012 1.012 0 00-.658.127 1.06 1.06 0 00-.456.506c-.07.147-.06.253-.03.263zM104.181 80.7a1.944 1.944 0 00-.688.202c-.106.04-.197.061-.233 0a.623.623 0 01-.086-.324c-.035-.308-.076-.617-.116-.941a11.56 11.56 0 00-.45-2.405 12.313 12.313 0 00.207 2.435c.045.324.09.633.136.942a.709.709 0 00.167.445.289.289 0 00.258.066.67.67 0 00.188-.071c.415-.182.653-.319.617-.35z" fill="#263238"/><path d="M106.515 85.524a7.331 7.331 0 003.072-2.992 3.9 3.9 0 01-2.687 3.716z" fill="#eb996e"/><path d="M109.714 73.634c.045-.051 2.227-1.342 2.875 1.037.562 2.06-1.767 2.415-1.797 2.349s-1.078-3.386-1.078-3.386z" fill="#ffbe9d"/><path d="M111.212 75.81h.112a.373.373 0 00.258-.091.911.911 0 00.111-.906 1.177 1.177 0 00-.278-.456.42.42 0 00-.355-.167.192.192 0 00-.167.167v.107c0 .005-.055 0-.065-.102a.22.22 0 01.03-.151.28.28 0 01.172-.122.506.506 0 01.47.172 1.253 1.253 0 01.32.506.942.942 0 01-.188 1.013.385.385 0 01-.329.066c-.07.015-.096-.026-.09-.036z" fill="#eb996e"/><path d="M108.702 89.38s5.44-9.11 13.854-1.442c5.492 5.011 14.45 15.347 17.65 19.397.719.906 1.837 2.288 1.053 3.138-2.4 2.592-8.94 8.403-21.042 4.05l-11.48-15.965a7.917 7.917 0 01-.046-9.172z" fill="#fde24f"/><path fill="#fde24f" d="M115.677 85.043l-1.534-2.511-7.836 6.236 1.463 2.354 7.907-6.079z"/><path d="M115.343 85.367s-6.17 5.335-6.257 5.244-2.465-1.802-2.465-1.802l2.172 1.22z" opacity=".3"/><path d="M115.742 85.012a1.748 1.748 0 00-.394.213c-.243.152-.593.38-1.013.673-.85.582-1.989 1.428-3.244 2.359a93.405 93.405 0 01-2.349 1.69h.101a92.499 92.499 0 00-1.776-.94 4.059 4.059 0 00-.694-.325 3.492 3.492 0 00.638.42c.415.253 1.012.603 1.736 1.013l.05.025.051-.03a56.905 56.905 0 002.374-1.67l3.204-2.41.972-.73a1.822 1.822 0 00.344-.288z" fill="#263238"/><path d="M82.29 108.965l-1.489-.603a13.722 13.722 0 01-2.53-.971 3.84 3.84 0 01-1.09-.775 6.007 6.007 0 01-1.052-1.296.506.506 0 00-.982.036 4.345 4.345 0 001.756 2.82c1.25 1.062-1.336 1.011-2.282 1.011s-3.888.152-4.12.446c-.34.425.06.865 1.012.84s3.801.101 3.776.603-4.854.445-4.854.445-1.013-.177-1.079.4c-.08 1.048 5.062.719 5.568.673.34-.03.334.506-.035.532s-4.819-.162-4.915.9c-.071.815 4.237-.227 5.138.32s-3.346.46-3.382 1.24c0 .293 0 .506 2.465.207s9.157-2.247 9.157-2.247l-1.124-4.662" fill="#ffbe9d"/><path d="M111.364 92.56s-8.003 11.034-9.855 11.464-22.485 3.675-22.485 3.675l1.013 6.732s25.607-.718 28.087-2.98 9.972-13.769 9.972-13.769z" fill="#ffbe9d"/><path d="M105.73 111.258a.662.662 0 00.213.187 1.33 1.33 0 00.76.157 1.306 1.306 0 00.986-.592 1.336 1.336 0 00.066-1.402 1.068 1.068 0 00-.587-.507.962.962 0 00-.724.056.774.774 0 00-.322 1.047l.023.041a.643.643 0 00.744.223c.178-.076.223-.187.213-.192a.988.988 0 01-.243.106.541.541 0 01-.577-.223.602.602 0 01.253-.812h.004a.754.754 0 01.556-.031.85.85 0 01.461.395 1.19 1.19 0 01-.876 1.726 1.734 1.734 0 01-.95-.18z" fill="#eb996e"/><path d="M120.5 95.92l-7.592 13.035-8.757-7.249s6.074-9.931 8.934-13.009z" fill="#fde24f"/><path d="M98.725 120.804a3.893 3.893 0 012.561 3.346 6.487 6.487 0 00-2.561-3.346z" fill="#455a64"/><path d="M107.79 74.818a.749.749 0 00.547.39c.228.045.46.04.694.086a1.598 1.598 0 01.926.541 2.38 2.38 0 00.319.355.395.395 0 00.445.045c.203-.152.112-.465 0-.693q-.714-1.412-1.417-2.825l-2.683.582 1.154 1.342" fill="#263238"/><path d="M99.028 71.614c.31-.37.77-.673 1.134-.354a2.358 2.358 0 01.628 1.285 4.05 4.05 0 00.476 1.367 1.696 1.696 0 002.971-.324 5.877 5.877 0 001.265 1.519 1.98 1.98 0 001.858.359 1.215 1.215 0 00.704-1.567v-.002l-.015-.037a2.025 2.025 0 001.22.465 1.139 1.139 0 001.062-.653.81.81 0 00-.462-1.047.63.63 0 00-.044-.016 1.458 1.458 0 001.655-.035 1.25 1.25 0 00.32-1.584 1.098 1.098 0 00-1.52-.314 2.163 2.163 0 00.856-.764.75.75 0 00-.238-1.013c-.42-.192-.87.198-1.33.284-.75.136-1.362-.537-1.965-1.013a4.915 4.915 0 00-3.918-.784 7.98 7.98 0 00-3.599 1.913c-.678.592-1.33 1.453-1.057 2.308M100.638 77.07c0 .218-.207.405-.46.507a.637.637 0 01-.684-.05c-.147-.158 0-.507.395-.684s.75.01.75.228z" fill="#263238"/><path d="M104.627 75.147c-.046.218-.314.354-.582.48s-.557.229-.75.112a.299.299 0 01-.05-.364.965.965 0 011.144-.511c.167.065.248.177.238.283zM105.786 79.814c.066-.025.238.506 0 1.063s-.744.8-.77.734a7.808 7.808 0 00.507-.84c.192-.496.177-.947.263-.957z" fill="#263238"/><path d="M111.627 71.725a.622.622 0 01-.116.071 1.047 1.047 0 01-.385.081 1.332 1.332 0 01-1.225-.719l.137.03a2.53 2.53 0 01-1.67.664 2.613 2.613 0 01-2.025-.845l.222-.092a1.012 1.012 0 01-.475.86 1.451 1.451 0 01-.982.239 2.43 2.43 0 01-1.377-.84c-.35-.38-.628-.775-.952-1.084a2.09 2.09 0 00-1.063-.612 1.895 1.895 0 00-1.058.131 3.882 3.882 0 00-1.3.947 3.715 3.715 0 01-.436.425 2.632 2.632 0 01.36-.506 3.701 3.701 0 011.3-1.048 2.116 2.116 0 011.175-.177 2.266 2.266 0 011.19.653c.349.33.637.724.971 1.083a2.21 2.21 0 001.22.755c.557.08 1.2-.314 1.174-.826v-.37l.243.284a2.45 2.45 0 001.848.79 2.408 2.408 0 001.554-.567l.091-.08.046.105a1.24 1.24 0 001.068.704 2.72 2.72 0 00.465-.056z" fill="#455a64"/><path d="M121.771 93.906c-.025 0 0-.304-.116-.83a5.83 5.83 0 00-.825-2.106 5.51 5.51 0 00-2.506-2.141 5.734 5.734 0 00-3.999-.142 6.295 6.295 0 00-1.837 1.013 9.474 9.474 0 00-1.418 1.392 23.4 23.4 0 00-1.923 2.799c-.506.825-.921 1.518-1.23 1.949-.147.227-.273.394-.36.506s-.131.172-.141.167a5.814 5.814 0 01.415-.734c.294-.506.683-1.18 1.154-1.99a21.855 21.855 0 011.898-2.86 7.749 7.749 0 013.361-2.53 5.887 5.887 0 014.176.167 5.716 5.716 0 013.336 4.449 3.949 3.949 0 01.035.633.673.673 0 01-.02.258z" fill="#263238"/><path d="M119.539 98.674a.571.571 0 00-.203-.415.927.927 0 00-.506-.192 2.607 2.607 0 01-.79-.142 2.41 2.41 0 01-1.189-1.686c-.106-.374-.187-.764-.329-1.144a1.981 1.981 0 00-.683-.982 2.44 2.44 0 00-1.144-.4 8.41 8.41 0 00-1.185 0 3.995 3.995 0 01-2.025-.303 1.721 1.721 0 01-.89-1.068.957.957 0 01-.026-.385.327.327 0 01.036-.126 3.644 3.644 0 00.086.506 1.725 1.725 0 00.88.931 4.045 4.045 0 001.954.223 3.896 3.896 0 012.49.45 2.196 2.196 0 01.77 1.104c.147.405.223.805.319 1.174a2.273 2.273 0 001.012 1.574 2.689 2.689 0 00.74.172.947.947 0 01.556.264.506.506 0 01.172.354.224.224 0 01-.045.091zM116.517 103.002a3.357 3.357 0 00-.218-.405 1.959 1.959 0 00-1.012-.638c-.506-.167-1.154-.147-1.868-.38a1.892 1.892 0 01-.962-.683c-.238-.339-.37-.734-.587-1.053a2.957 2.957 0 00-1.923-1.012 4.843 4.843 0 01-1.802-.683 1.828 1.828 0 01-.72-1.089.734.734 0 01.041-.48c.026 0 0 .172.061.455a1.772 1.772 0 00.704.952 4.995 4.995 0 001.746.602 5.66 5.66 0 011.098.334 2.26 2.26 0 01.988.785c.243.364.37.754.582 1.048a1.643 1.643 0 00.83.607c.653.228 1.316.233 1.847.43a1.945 1.945 0 011.058.76.918.918 0 01.127.339c.015.07.02.111.01.111zM130.503 96.143a.577.577 0 010 .213 2.058 2.058 0 01-.223.567 3.718 3.718 0 01-1.7 1.412c-.426.197-.907.375-1.403.592a4.511 4.511 0 00-1.422.921 11.99 11.99 0 00-1.888 3.458 5.61 5.61 0 01-1.175 1.746 2.434 2.434 0 01-.4.324 2.538 2.538 0 01-.43.268 4.228 4.228 0 01-.921.314c-1.23.263-2.349.198-3.224.476a2.749 2.749 0 00-1.696 1.225 2.569 2.569 0 00-.258.75v-.214a1.642 1.642 0 01.172-.582 2.808 2.808 0 011.73-1.361c.912-.309 2.05-.263 3.225-.532a3.916 3.916 0 00.866-.303 2.328 2.328 0 00.395-.248 2.126 2.126 0 00.37-.304 5.44 5.44 0 001.113-1.676 11.408 11.408 0 011.954-3.512 4.562 4.562 0 011.518-.947c.506-.218.987-.38 1.407-.567a3.796 3.796 0 001.696-1.296 3.088 3.088 0 00.294-.724zM135.59 102.405a1.67 1.67 0 01-.324.79 4.154 4.154 0 01-1.848 1.401c-.9.415-2.075.603-3.189 1.205a3.396 3.396 0 00-1.382 1.347 19.306 19.306 0 00-.85 1.974 6.65 6.65 0 01-2.789 3.148 6.385 6.385 0 01-3.336.856 6.32 6.32 0 01-2.272-.466 5.292 5.292 0 01-.572-.274c-.127-.075-.188-.116-.183-.126s.279.121.79.304a6.79 6.79 0 002.242.374 6.343 6.343 0 003.21-.875 6.506 6.506 0 002.667-3.038 18.143 18.143 0 01.87-2.024 3.66 3.66 0 011.489-1.428 32.285 32.285 0 013.234-1.164 4.328 4.328 0 001.838-1.286 4.079 4.079 0 00.405-.718zM140.18 107.355a9.396 9.396 0 00-2.024 1.235 6.692 6.692 0 00-1.605 1.995c-.232.42-.394.906-.607 1.407a3 3 0 01-1.012 1.371 3.574 3.574 0 01-1.625.507c-.542.06-1.053.076-1.519.157a8.666 8.666 0 00-2.45.774 13.098 13.098 0 00-2.024 1.29 2.48 2.48 0 01.455-.465 8.086 8.086 0 011.473-1.012 8.415 8.415 0 012.5-.846c.507-.09 1.013-.111 1.52-.177a3.38 3.38 0 001.518-.47 2.793 2.793 0 00.926-1.256 13.668 13.668 0 01.628-1.422 6.631 6.631 0 011.7-2.025 6.321 6.321 0 011.519-.906c.197-.076.35-.127.456-.157s.167-.01.172 0zM119.873 97.986a3.243 3.243 0 001.154-.73 4.01 4.01 0 00.81-1.24 11.21 11.21 0 00.541-1.766 9.492 9.492 0 01.603-1.797 3.74 3.74 0 01.951-1.24 2.343 2.343 0 01.932-.506.833.833 0 01.384-.03 3.26 3.26 0 00-1.194.658 3.949 3.949 0 00-.856 1.21 9.94 9.94 0 00-.561 1.756 10.92 10.92 0 01-.577 1.802 3.999 3.999 0 01-.901 1.275 2.442 2.442 0 01-.906.542.716.716 0 01-.38.066zM118.41 88.875a2.966 2.966 0 012.096-2.293c.03.07-.608.39-1.18 1.012s-.845 1.326-.916 1.28zM114.857 83.691a7.74 7.74 0 01-.795 1.19 15.083 15.083 0 01-.952 1.235 2.409 2.409 0 01-.77.572 2.48 2.48 0 01-1.011.167 6.7 6.7 0 00-.967 0 2.409 2.409 0 00-.815.273 2.252 2.252 0 00-.972 1.078 3.203 3.203 0 00-.208 1.367.804.804 0 01-.1-.38 2.25 2.25 0 01.136-1.057 2.34 2.34 0 011.012-1.215 2.425 2.425 0 01.901-.32 6.627 6.627 0 011.013-.024 1.903 1.903 0 001.604-.643c.39-.41.699-.846.982-1.185a7.445 7.445 0 01.942-1.058z" fill="#fafafa"/><path d="M121.579 95.541l-3.842 15.565-3.361-4.682 7.203-10.883z" opacity=".2"/><path d="M138.242 146.781c-.07 0-.132-2.586-.132-5.775s.061-5.78.132-5.78.132 2.586.132 5.78-.056 5.775-.132 5.775z" fill="#455a64"/></svg>