<svg xmlns="http://www.w3.org/2000/svg" viewBox="0 0 375 353.906"><path d="M1.379 112.11c11.026 86.86 54.437 148.722 181.772 172.518 70.817 13.22 199.962-29 191.448-106.08-9.46-85.583-98.626-49.692-172.19-77.323C158.417 84.723 134.95-5.09 63.58.227 7.164 4.39-4.528 65.605 1.379 112.11z" style="isolation:isolate" fill="#e0e0e0" opacity=".32"/><path fill="#fde24f" d="M175.575 9.884l-9.273 7.06.45 13.483-8.485-6.742-4.688 4.013-17.814-21.996 39.81 4.182z"/><path d="M162.814 19.813c0 .413 3.938 10.614 3.938 10.614l-8.485-6.742z" fill="#fde24f"/><path d="M162.814 19.813c0 .413 3.938 10.614 3.938 10.614l-8.485-6.742z" opacity=".3"/><path fill="#fde24f" d="M135.765 5.702l27.049 14.111 3.938 10.614-.45-13.483-30.537-11.242z"/><path style="isolation:isolate" opacity=".1" d="M135.765 5.702l27.049 14.111 3.938 10.614-.45-13.483-30.537-11.242z"/><path d="M210.773 187.615a12.104 12.104 0 01-4.81-1.172 12.104 12.104 0 014.81 1.172zM218.442 189.49c0 .14-.703.094-1.49-.093s-1.407-.47-1.379-.61.703-.094 1.5.103 1.407.46 1.37.6zM186.789 28.664a7.304 7.304 0 01-2.447-.384 6.854 6.854 0 01-2.363-.741 5.513 5.513 0 012.485.244 5.222 5.222 0 012.325.881zM195.865 32.555a16.81 16.81 0 01-4.416-2.213 5.335 5.335 0 012.353.807c1.228.618 2.138 1.284 2.063 1.406zM203.731 38.518c-.103.103-.937-.6-1.988-1.481s-1.875-1.632-1.753-1.754a5.438 5.438 0 012.11 1.36c1.022.9 1.734 1.781 1.631 1.875zM209.732 46.347c-.131.066-.75-.844-1.5-1.969a7.36 7.36 0 01-1.22-2.156c.104-.085.892.722 1.651 1.875a5.326 5.326 0 011.069 2.25zM213.135 55.601a7.5 7.5 0 01-.825-2.334 7.088 7.088 0 01-.515-2.429 5.466 5.466 0 011.003 2.288 5.12 5.12 0 01.337 2.475zM213.642 65.446a7.726 7.726 0 01-.104-2.475 7.07 7.07 0 01.225-2.466 5.466 5.466 0 01.291 2.475 5.354 5.354 0 01-.412 2.466zM211.082 74.953a7.633 7.633 0 01.694-2.372 7.876 7.876 0 01.937-2.278 4.96 4.96 0 01-.497 2.447 5.091 5.091 0 01-1.134 2.203zM205.353 82.96c-.094-.112.638-.937 1.529-1.95s1.603-1.875 1.725-1.772a5.129 5.129 0 01-1.341 2.11c-.91 1.05-1.819 1.716-1.913 1.612zM197.084 88.286a7.744 7.744 0 012.119-1.275 7.576 7.576 0 012.26-1.013 5.185 5.185 0 01-2.026 1.472 5.11 5.11 0 01-2.353.816zM187.464 90.358a7.5 7.5 0 012.447-.46 7.717 7.717 0 012.475-.159 5.129 5.129 0 01-2.41.666 5.007 5.007 0 01-2.512-.047zM177.807 88.53a26.778 26.778 0 014.688 1.434 4.866 4.866 0 01-2.476-.337 4.772 4.772 0 01-2.212-1.097zM170.962 81.741c.14-.046.572.938 1.34 2.044s1.51 1.876 1.407 2.016-1.022-.562-1.828-1.716a3.75 3.75 0 01-.919-2.344zM175.125 74.063c0 .15-1.022.478-2.09 1.237s-1.642 1.707-1.773 1.632.281-1.2 1.472-2.044a3.432 3.432 0 012.391-.825zM183.6 77.579c-.13.075-.73-.844-1.705-1.744s-1.97-1.35-1.876-1.491a3.422 3.422 0 012.27 1.116 3.638 3.638 0 011.312 2.119zM183.92 87.151a11.88 11.88 0 01.46-2.41 12.048 12.048 0 01.459-2.418 4.276 4.276 0 010 2.513 4.191 4.191 0 01-.92 2.315zM177.497 94.512c-.084-.122.769-.826 1.791-1.697a10.177 10.177 0 011.94-1.529 4.886 4.886 0 01-1.602 1.875 5.907 5.907 0 01-2.129 1.35zM168.73 99.068a6.225 6.225 0 012.138-1.265 6.066 6.066 0 012.354-.797 11.964 11.964 0 01-4.491 2.062zM159.908 103.55c-.075-.122.816-.788 1.997-1.5a5.626 5.626 0 012.306-.938c.075.14-.88.713-2.053 1.388a6.057 6.057 0 01-2.25 1.05zM152.407 110c-.103-.093.544-1.012 1.528-1.978a5.504 5.504 0 011.997-1.49c.094.112-.665.937-1.631 1.875s-1.744 1.687-1.894 1.594zM146.781 118.083a5.457 5.457 0 011.013-2.279c.722-1.172 1.463-2.015 1.575-1.931a6.957 6.957 0 01-1.134 2.203c-.713 1.154-1.322 2.072-1.454 2.007zM143.181 127.271a5.26 5.26 0 01.45-2.447 5.335 5.335 0 011.078-2.25 16.69 16.69 0 01-1.528 4.688zM141.887 137.06a9.189 9.189 0 01.338-4.932 7.21 7.21 0 010 2.475 7.098 7.098 0 01-.338 2.457zM143.181 146.839a6.029 6.029 0 01-.778-2.363 5.044 5.044 0 01-.206-2.484 7.81 7.81 0 01.712 2.381 6.057 6.057 0 01.272 2.466zM146.997 155.934c-.122.075-.788-.825-1.397-2.063a5.232 5.232 0 01-.797-2.363 7.145 7.145 0 011.256 2.138 7.07 7.07 0 01.938 2.288zM152.923 163.838c-.094.093-.938-.62-1.875-1.67a5.55 5.55 0 01-1.35-2.1c.121-.093.862.732 1.743 1.763s1.585 1.903 1.482 2.007zM160.536 170.12a5.363 5.363 0 01-2.194-1.191c-1.106-.807-1.875-1.613-1.8-1.725a7.182 7.182 0 012.11 1.312c1.087.797 1.959 1.482 1.884 1.604zM169.443 174.376a5.241 5.241 0 01-2.419-.61 5.11 5.11 0 01-2.166-1.237 7.5 7.5 0 012.354.76 7.838 7.838 0 012.231 1.087zM174.403 175.642c0 .131-.084.244-.131.234s-.066-.13 0-.272.084-.243.131-.234.028.131 0 .272z" fill="#263238"/><path fill="#fde24f" d="M154.887 154.1l2.094-6.379 10.254 3.367-2.095 6.378z"/><path d="M154.887 154.1l2.094-6.379 10.254 3.367-2.095 6.378z" opacity=".3"/><path d="M167.212 151.105a42.538 42.538 0 01-5.945 2.438l-.178.065-.112-.15-.178-.225a42.107 42.107 0 01-3.835-5.503 44.134 44.134 0 014.247 5.194l.169.225-.29-.084a39.913 39.913 0 016.122-1.96z" fill="#fde24f"/><path d="M167.212 151.105a42.538 42.538 0 01-5.945 2.438l-.178.065-.112-.15-.178-.225a42.107 42.107 0 01-3.835-5.503 44.134 44.134 0 014.247 5.194l.169.225-.29-.084a39.913 39.913 0 016.122-1.96z" opacity=".1"/><path d="M159.908 151.64a7.707 7.707 0 01-2.41 1.471 8.242 8.242 0 01-2.644 1.004 7.97 7.97 0 012.42-1.472 8.316 8.316 0 012.634-1.004z" fill="#fde24f"/><path d="M159.908 151.64a7.707 7.707 0 01-2.41 1.471 8.242 8.242 0 01-2.644 1.004 7.97 7.97 0 012.42-1.472 8.316 8.316 0 012.634-1.004z" opacity=".1"/><path d="M165.299 157.537a7.726 7.726 0 01-1.313-2.372c-.618-1.397-1.031-2.597-.843-2.579a7.838 7.838 0 011.322 2.373 7.295 7.295 0 01.834 2.578z" fill="#fde24f"/><path d="M165.299 157.537a7.726 7.726 0 01-1.313-2.372c-.618-1.397-1.031-2.597-.843-2.579a7.838 7.838 0 011.322 2.373 7.295 7.295 0 01.834 2.578z" opacity=".1"/><path fill="#fde24f" d="M177.288 183.823l5.389-16.409 26.367 8.66-5.388 16.408z"/><path d="M209.02 176.092a6.731 6.731 0 01-1.182.534l-3.282 1.285a1286.54 1286.54 0 01-10.97 4.088l-.178.066-.112-.15-.441-.582a591.46 591.46 0 01-7.304-9.77l-2.203-2.99a7.5 7.5 0 01-.74-1.144 7.407 7.407 0 01.937 1.022l2.297 2.897a852.129 852.129 0 017.426 9.676l.44.572-.29-.085a751.336 751.336 0 0111.016-3.938l3.338-1.134a6.92 6.92 0 011.247-.347z" fill="#fde24f"/><path d="M209.02 176.092a6.731 6.731 0 01-1.182.534l-3.282 1.285a1286.54 1286.54 0 01-10.97 4.088l-.178.066-.112-.15-.441-.582a591.46 591.46 0 01-7.304-9.77l-2.203-2.99a7.5 7.5 0 01-.74-1.144 7.407 7.407 0 01.937 1.022l2.297 2.897a852.129 852.129 0 017.426 9.676l.44.572-.29-.085a751.336 751.336 0 0111.016-3.938l3.338-1.134a6.92 6.92 0 011.247-.347z" opacity=".2"/><path d="M190.267 177.49a52.246 52.246 0 01-6.394 3.403 52.709 52.709 0 01-6.61 2.944 49.487 49.487 0 016.385-3.413 49.383 49.383 0 016.62-2.935z" fill="#fde24f"/><path d="M190.267 177.49a52.246 52.246 0 01-6.394 3.403 52.709 52.709 0 01-6.61 2.944 49.487 49.487 0 016.385-3.413 49.383 49.383 0 016.62-2.935z" opacity=".2"/><path d="M204.106 192.65a47.818 47.818 0 01-3.01-6.263 47.293 47.293 0 01-2.531-6.479 47.595 47.595 0 013.01 6.273 46.939 46.939 0 012.531 6.469z" fill="#fde24f"/><path d="M204.106 192.65a47.818 47.818 0 01-3.01-6.263 47.293 47.293 0 01-2.531-6.479 47.595 47.595 0 013.01 6.273 46.939 46.939 0 012.531 6.469z" opacity=".2"/><path d="M184.098 171.47a4.11 4.11 0 11.003-.003z" fill="#263238"/><path d="M184.285 167.391a18.818 18.818 0 01-2.766 1.707l-.656.365-.122.066-.065-.113a13.303 13.303 0 01-1.125-2.222 12.367 12.367 0 011.359 2.091l-.178-.056.656-.375a18.622 18.622 0 012.897-1.463z" fill="#fff"/><path fill="#fde24f" d="M175.467 158.024l2.823-8.597 13.816 4.538-2.823 8.596z"/><path d="M175.467 158.024l2.823-8.597 13.816 4.538-2.823 8.596z" opacity=".2"/><path d="M192.077 153.974a3.132 3.132 0 01-.61.281l-1.725.675a420.093 420.093 0 01-5.747 2.138h-.094l-.056-.084-.225-.3c-1.51-1.988-2.813-3.798-3.835-5.12l-1.125-1.528a4.125 4.125 0 01-.385-.6 3.544 3.544 0 01.47.535l1.209 1.518a401.08 401.08 0 013.881 5.063l.235.31h-.15c2.26-.825 4.294-1.557 5.775-2.063l1.744-.59a3.018 3.018 0 01.638-.235z" fill="#fde24f"/><path d="M192.077 153.974a3.132 3.132 0 01-.61.281l-1.725.675a420.093 420.093 0 01-5.747 2.138h-.094l-.056-.084-.225-.3c-1.51-1.988-2.813-3.798-3.835-5.12l-1.125-1.528a4.125 4.125 0 01-.385-.6 3.544 3.544 0 01.47.535l1.209 1.518a401.08 401.08 0 013.881 5.063l.235.31h-.15c2.26-.825 4.294-1.557 5.775-2.063l1.744-.59a3.018 3.018 0 01.638-.235z" fill="#fde24f" opacity=".2"/><path d="M182.26 154.705a28.259 28.259 0 01-3.347 1.782 27.904 27.904 0 01-3.47 1.547 25.81 25.81 0 013.348-1.791 26.32 26.32 0 013.47-1.538z" fill="#fde24f"/><path d="M182.26 154.705a28.259 28.259 0 01-3.347 1.782 27.904 27.904 0 01-3.47 1.547 25.81 25.81 0 013.348-1.791 26.32 26.32 0 013.47-1.538z" fill="#fde24f" opacity=".2"/><path d="M189.508 162.647a24.754 24.754 0 01-1.575-3.282 26.513 26.513 0 01-1.332-3.394 47.724 47.724 0 012.907 6.676z" fill="#fde24f"/><path d="M189.508 162.647a24.754 24.754 0 01-1.575-3.282 26.513 26.513 0 01-1.332-3.394 47.724 47.724 0 012.907 6.676z" fill="#fde24f" opacity=".2"/><path d="M81.15 46.366A19.577 19.577 0 1166.992 22.57 19.577 19.577 0 0181.15 46.366z" fill="#263238"/><path d="M69.401 30.933c.347.14-1.875 6.694-4.969 14.645-.46 1.154-.937 2.26-1.322 3.348l-.234.59-.59-.225c-6.348-2.447-10.99-4.463-10.877-4.753s4.932 1.228 11.326 3.544l-.825.375c.413-1.088.844-2.204 1.285-3.357 3.084-7.96 5.869-14.27 6.206-14.167z" fill="#fff"/><path d="M321.784 323.445a18.124 18.124 0 0111.251-1.369c2.044.338 4.173.938 5.57 2.475s1.65 4.238.056 5.56a5.41 5.41 0 01-3.507.891c-2.981 0-6.282-.562-8.663 1.228-1.36 1.022-2.26 2.72-3.882 3.226a3.853 3.853 0 01-4.219-1.875 6.563 6.563 0 01-.478-4.838 7.37 7.37 0 013.872-5.298z" fill="#fde24f"/><path d="M321.784 323.445a18.124 18.124 0 0111.251-1.369c2.044.338 4.173.938 5.57 2.475s1.65 4.238.056 5.56a5.41 5.41 0 01-3.507.891c-2.981 0-6.282-.562-8.663 1.228-1.36 1.022-2.26 2.72-3.882 3.226a3.853 3.853 0 01-4.219-1.875 6.563 6.563 0 01-.478-4.838 7.37 7.37 0 013.872-5.298z" fill="#fff" opacity=".2"/><path d="M313.937 308.293c2.1 2.991 6.169 1.998 8.054.17s2.69-4.473 3.412-6.995c1.66-5.767 3.329-11.814 2.1-17.683a9.948 9.948 0 00-2.259-4.81 5.138 5.138 0 00-4.866-1.622c-2.053.543-3.329 2.56-4.247 4.472a42.248 42.248 0 00-4.173 18.096c0 2.916.338 5.972 1.979 8.382M308.189 312.588a10.907 10.907 0 001.688-10.023 19.361 19.361 0 00-5.926-8.607 32.047 32.047 0 00-10.623-6.226 11.364 11.364 0 00-4.782-.816 5.035 5.035 0 00-4.013 2.429c-1.115 2.128-.047 4.688 1.116 6.825a81.41 81.41 0 006.976 10.633c2.09 2.69 4.49 5.353 7.679 6.563s6.497 1.078 8.185-1.135" fill="#fde24f"/><path d="M308.189 312.588a10.907 10.907 0 001.688-10.023 19.361 19.361 0 00-5.926-8.607 32.047 32.047 0 00-10.623-6.226 11.364 11.364 0 00-4.782-.816 5.035 5.035 0 00-4.013 2.429c-1.115 2.128-.047 4.688 1.116 6.825a81.41 81.41 0 006.976 10.633c2.09 2.69 4.49 5.353 7.679 6.563s6.497 1.078 8.185-1.135" opacity=".1"/><path d="M313.796 353.42a6.703 6.703 0 00.187-1.36c.104-.993.216-2.231.366-3.75a52.956 52.956 0 01.835-5.438 41.47 41.47 0 011.978-6.423 23.674 23.674 0 013.281-5.813 12.189 12.189 0 014.145-3.45 11.813 11.813 0 013.488-1.088 6.563 6.563 0 001.35-.187 5.627 5.627 0 00-1.37 0 10.698 10.698 0 00-3.646.937 12.31 12.31 0 00-4.37 3.479 23.233 23.233 0 00-3.403 5.926 39.557 39.557 0 00-1.96 6.563 45.27 45.27 0 00-.722 5.503 64.987 64.987 0 00-.187 3.75 6.657 6.657 0 00.028 1.351z" fill="#263238"/><path d="M314.049 350.551a2.335 2.335 0 000-.628v-1.8c0-1.566 0-3.835.075-6.63.14-5.625.619-13.323 1.556-21.808s2.176-16.127 3.31-21.565c.263-1.368.535-2.606.788-3.684s.45-2.026.647-2.813.31-1.294.422-1.753a2.541 2.541 0 00.112-.629 2.652 2.652 0 00-.216.591l-.525 1.735c-.234.75-.468 1.678-.74 2.756s-.582 2.307-.882 3.685a205.576 205.576 0 00-3.44 21.602c-.938 8.504-1.35 16.249-1.388 21.856 0 2.812 0 5.072.093 6.638q.066 1.097.113 1.8a3.365 3.365 0 00.075.647z" fill="#263238"/><path d="M314.087 335.624a11.578 11.578 0 000-1.875 49.438 49.438 0 00-.582-5.1 70.742 70.742 0 00-4.763-16.24 46.805 46.805 0 00-9.132-14.232 22.446 22.446 0 00-2.147-1.997c-.328-.282-.619-.554-.938-.779l-.825-.571a12.564 12.564 0 00-1.594-1.022 57.118 57.118 0 015.204 4.64 49.44 49.44 0 018.907 14.177 70.456 70.456 0 013.122 8.72c.816 2.728 1.36 5.241 1.772 7.36s.61 3.853.75 5.054a13.125 13.125 0 00.226 1.865z" fill="#263238"/><path fill="#455a64" d="M171.487 212.021h39.257l15.546-43.43h-2.175L208.7 209.902l-37.213.215v1.904z"/><path fill="#263238" d="M154.142 217.506l1.453 136.036h3.994l-1.622-137.039-3.825 1.003zM238.17 216.184c-.535 2.597 3.6 137.667 3.6 137.667h3.75l-3.047-137.667z"/><path fill="#263238" d="M284.065 212.021H117.144v6.882h13.773l-8.963 134.198 3.919.216 8.973-134.414h135.173l6.554 134.47h3.929l-6.554-134.47h10.117v-6.882z"/><path d="M189.911 348.423v-10.314l-19.324-.197-.216 15.096 1.2.084c5.326.356 27.116 1.406 30.688.366 3.976-1.163-12.348-5.035-12.348-5.035z" fill="#fde24f"/><path d="M177.366 352.923a6.685 6.685 0 00-2.42-4.144 6.563 6.563 0 00-4.5-1.453l-.056 5.4z" fill="#f5f5f5"/><path d="M197.862 350.598s5.738 1.725 5.007 2.663-22.784.703-32.507-.254v-.43l25.728.496s.647-2.438 1.772-2.475z" fill="#f5f5f5"/><path d="M170.1 352.557h.328l.937.075 3.507.188a340.1 340.1 0 0023.187.263l3.516-.104.937-.046h.328a1.265 1.265 0 00-.328 0H186.47c-4.52 0-8.626-.17-11.589-.263l-3.516-.112h-.937z" fill="#263238"/><path d="M196.118 353.364a7.717 7.717 0 01.675-1.67 7.586 7.586 0 011.21-1.33 3.113 3.113 0 00-1.876 3zM190.445 350.42a2.457 2.457 0 00.62-.741c.28-.44.477-.825.421-.863s-.328.3-.619.741a2.232 2.232 0 00-.422.863zM188.889 349.613c.047.047.356-.15.694-.45s.572-.572.525-.618-.347.15-.685.44-.572.544-.534.628zM187.923 347.738a2.203 2.203 0 001.004.14 2.306 2.306 0 001.012-.093 2.204 2.204 0 00-1.003-.14 2.334 2.334 0 00-1.013.093zM187.595 346.454a2.869 2.869 0 002.288.197q-1.145-.09-2.288-.197z" fill="#263238"/><path d="M191.12 348.741a3.657 3.657 0 001.247 0 6.918 6.918 0 001.322-.271 3.601 3.601 0 00.76-.31.628.628 0 00.31-.375.506.506 0 00-.179-.506 2.288 2.288 0 00-2.813.637 2.203 2.203 0 00-.422.825v.338a3.253 3.253 0 01.572-1.05 2.203 2.203 0 011.07-.685 1.94 1.94 0 011.48.122c.198.15.113.375-.102.507a3.835 3.835 0 01-.704.29 8.513 8.513 0 01-1.284.32 6.042 6.042 0 00-1.257.158z" fill="#263238"/><path d="M191.44 348.807a1.238 1.238 0 00.159-.863 2.147 2.147 0 00-.328-.937 1.256 1.256 0 00-1.032-.647.488.488 0 00-.384.572 1.388 1.388 0 00.197.553 4.453 4.453 0 00.58.76 1.716 1.716 0 00.704.506 8.046 8.046 0 01-.581-.619 4.164 4.164 0 01-.506-.75c-.17-.263-.282-.74 0-.788s.628.282.815.535a2.157 2.157 0 01.338.806 3.75 3.75 0 01.037.872zM170.55 347.279a7.418 7.418 0 011.425.065 5.875 5.875 0 014.978 4.126c.282.825.31 1.388.347 1.378s0-.14 0-.384a5.625 5.625 0 00-.197-1.05 5.897 5.897 0 00-5.156-4.2 4.781 4.781 0 00-1.07 0 .881.881 0 00-.327.065zM172.64 339.3a64.638 64.638 0 00-.187 7.932 32.881 32.881 0 00.206-3.966 35.36 35.36 0 00-.019-3.966zM179.822 351.067a10.613 10.613 0 002.813.31 10.491 10.491 0 002.813-.198c0-.065-1.266 0-2.813 0s-2.803-.178-2.813-.112z" fill="#263238"/><path d="M176.035 351.02a4.799 4.799 0 00.225.562c.121.291.196.544.262.544s.103-.31-.047-.637-.394-.516-.44-.47zM174.628 349.229a.967.967 0 00.272.45c.197.206.394.338.44.29s-.074-.243-.271-.45-.394-.337-.44-.29zM172.594 348.395c0 .065.271.065.553.168s.487.263.534.216-.103-.31-.46-.431-.646-.01-.627.047zM171.159 348c0 .057.084.16.244.226s.31.065.328 0-.084-.16-.244-.225-.328-.066-.328 0z" fill="#263238"/><path d="M227.902 338.015l-4.237-9.423-17.693 7.773 6.01 13.84 1.125-.413c5.007-1.876 25.315-9.873 28.128-12.292 3.179-2.7-13.333.515-13.333.515z" fill="#fde24f"/><path d="M218.367 347.25a6.704 6.704 0 00-3.92-2.812 6.563 6.563 0 00-4.687.534l2.166 4.941z" fill="#f5f5f5"/><path d="M236.088 336.703s5.935-.797 5.625.365-20.477 10.014-29.73 13.127l-.142-.403 23.647-10.136s-.413-2.456.6-2.953z" fill="#f5f5f5"/><path d="M211.579 349.913l.319-.103.937-.328 3.282-1.275c2.756-1.097 6.563-2.653 10.698-4.472s7.866-3.535 10.538-4.829l3.16-1.538.853-.44a1.369 1.369 0 00.291-.16l-.31.122-.871.394-3.188 1.481c-2.691 1.238-6.423 2.944-10.567 4.754s-7.932 3.404-10.67 4.538l-3.244 1.34-.881.366z" fill="#263238"/><path d="M235.638 339.947a7.38 7.38 0 01-.075-1.8 8.579 8.579 0 01.553-1.716 2.597 2.597 0 00-.788 1.678 2.625 2.625 0 00.31 1.838zM229.29 339.581a2.138 2.138 0 00.263-.938c.084-.534.093-.937 0-.937s-.179.403-.263.937a1.932 1.932 0 000 .938zM227.49 339.46a1.864 1.864 0 00.44-.695c.188-.403.282-.76.226-.787s-.254.281-.441.694-.3.76-.225.787zM225.85 338.184a2.419 2.419 0 00.937-.29c.515-.216.937-.441.881-.498a2.016 2.016 0 00-.938.282c-.478.215-.909.44-.88.506zM225.024 337.143a1.997 1.997 0 001.163-.16 1.95 1.95 0 00.994-.6 6.27 6.27 0 00-1.079.385 5.99 5.99 0 00-1.078.375z" fill="#263238"/><path d="M229.178 337.78a3.75 3.75 0 001.134-.505 7.499 7.499 0 001.088-.797 3.826 3.826 0 00.572-.591.684.684 0 00.122-.478.469.469 0 00-.366-.375 2.288 2.288 0 00-2.354 2.653.825.825 0 00.104.328 3.75 3.75 0 01.093-1.2 2.213 2.213 0 01.694-1.06 1.96 1.96 0 011.397-.496c.244.047.263.29.113.506a4.061 4.061 0 01-.516.553 9.752 9.752 0 01-1.04.816c-.629.422-1.06.61-1.041.647z" fill="#263238"/><path d="M229.496 337.706a1.275 1.275 0 00-.215-.844 2.166 2.166 0 00-.675-.703 1.256 1.256 0 00-1.2-.16.488.488 0 00-.122.675 1.266 1.266 0 00.412.422 4.022 4.022 0 00.844.46 1.762 1.762 0 00.853.169 7.013 7.013 0 01-.787-.329 3.985 3.985 0 01-.779-.468c-.262-.17-.553-.554-.29-.732a1.106 1.106 0 01.937.15 2.016 2.016 0 01.647.6 5.044 5.044 0 01.375.76zM209.826 344.925a6.977 6.977 0 011.322-.525 6.057 6.057 0 016.253 1.66c.6.647.854 1.144.891 1.116a1.379 1.379 0 00-.16-.357 4.859 4.859 0 00-.609-.862 5.944 5.944 0 00-2.944-1.875 6.038 6.038 0 00-3.478.14 4.95 4.95 0 00-.938.46 1.04 1.04 0 00-.337.243zM208.429 336.74a31.443 31.443 0 001.434 3.75 36.003 36.003 0 001.66 3.61 33.438 33.438 0 00-1.444-3.703 36.036 36.036 0 00-1.65-3.657zM219.83 344.55a11.25 11.25 0 002.7-.881 10.389 10.389 0 002.494-1.34c0-.057-1.153.515-2.588 1.124s-2.625 1.032-2.606 1.097z" fill="#263238"/><path d="M216.36 346.06c0 .066.207.206.441.422s.403.422.46.384 0-.319-.3-.562-.582-.3-.6-.244zM214.345 345.01c0 .065.169.197.431.3s.497.14.525.084-.169-.197-.431-.3-.506-.169-.525-.084zM212.15 345.085c0 .056.273-.047.573-.066a5.075 5.075 0 01.572 0 .687.687 0 00-.591-.206c-.366.037-.6.225-.553.272zM210.66 345.32c0 .065.15.112.319.102s.31-.065.31-.131-.15-.112-.32-.103-.309.066-.309.131z" fill="#263238"/><path d="M52.562 269.092L38.611 164.841a4.397 4.397 0 014.688-4.97l33.631 2.813a6.357 6.357 0 015.804 5.823l8.195 98.7z" fill="#fde24f"/><path d="M52.562 269.092L38.611 164.841a4.397 4.397 0 014.688-4.97l33.631 2.813a6.357 6.357 0 015.804 5.823l8.195 98.7z" opacity=".2"/><path d="M85.003 115.88c-.281-3.976-1.322-7.848-1.875-11.786s-.666-8.082.89-11.748a17.13 17.13 0 019.695-8.87 29.703 29.703 0 0113.295-1.519 6.291 6.291 0 012.354.535 2.335 2.335 0 011.34 1.875 1.453 1.453 0 01-1.385 1.518q-.053.002-.105 0a23.627 23.627 0 015.035 1.079 2.953 2.953 0 011.631 1.172 2.24 2.24 0 01-.225 2.213 6.563 6.563 0 01-1.697 1.594 1.556 1.556 0 011.828 1.226v.002a2.963 2.963 0 01-.647 2.316c-.478.675-1.097 1.228-1.593 1.875-2.026 2.69-1.632 6.432-1.144 9.77" fill="#263238"/><path d="M85.369 139.17l18.949-.338c.253-2.194.618-10.726.618-10.726s7.923-.732 8.504-8.57.338-25.934.338-25.934a27.312 27.312 0 00-27.603 1.753l-1.219.825z" fill="#b78876"/><path d="M111.153 107.197a1.134 1.134 0 11.017.018z" fill="#263238"/><path d="M113.15 105.294c-.131.131-.863-.506-1.941-.581s-1.875.44-2.016.29.084-.3.44-.544a2.7 2.7 0 013.16.235c.32.29.422.544.357.6zM100.642 105.472a1.144 1.144 0 11-1.592.283l.008-.011a1.135 1.135 0 011.58-.275z" fill="#263238"/><path d="M101.355 105.528c-.131.122-.863-.515-1.941-.59s-1.875.44-2.007.3.075-.31.441-.544a2.653 2.653 0 013.15.234c.32.282.422.544.357.6zM105.143 114.707a5.232 5.232 0 011.762-.262c.291 0 .516-.066.544-.216a1.603 1.603 0 00-.15-.825c-.234-.731-.478-1.472-.722-2.25-.984-3.197-1.66-5.832-1.49-5.879s1.087 2.504 2.08 5.7c.235.779.45 1.53.676 2.26a1.875 1.875 0 01.075 1.191.74.74 0 01-.516.422 2.232 2.232 0 01-.478 0 5.297 5.297 0 01-1.781-.14z" fill="#263238"/><path d="M101.552 115.683c-1.079-.741 3 1.875 5.203 1.875a2.972 2.972 0 01-3.59.937c-2.326-.984-1.613-2.812-1.613-2.812z" fill="#fff"/><path d="M104.965 127.993a18.236 18.236 0 01-10.052-3.535s2.073 5.795 9.939 5.57z" fill="#a36957"/><path d="M84.703 102.087l.403 10.173s3.572-1.087 3.807-1.19-.066-12.461-.066-12.461-.497-4.688 2.541-5.766c3.197-1.154 4.585 1.162 9.114 1.875 14.935 2.522 13.914-2.063 13.914-2.063s1.875-2.016-1.96-4.228-13.426-2.963-18.677-1.154c-10.314 3.554-10.932 7.089-10.932 10.21 0 4.454 1.856 4.604 1.856 4.604z" fill="#263238"/><path d="M86.456 103.137c-.168-.065-5.813-.797-5.278 5.87s7.088 3.928 7.088 3.75-1.81-9.62-1.81-9.62z" fill="#b78876"/><path d="M86.034 110.526a2.069 2.069 0 01-.3.197 1.172 1.172 0 01-.872.084 2.813 2.813 0 01-1.528-2.466 3.863 3.863 0 01.188-1.697 1.35 1.35 0 01.806-.938.6.6 0 01.713.263c.103.178.065.319.103.328s.131-.131.056-.394a.722.722 0 00-.29-.403.938.938 0 00-.657-.112 1.631 1.631 0 00-1.135 1.125 3.92 3.92 0 00-.253 1.875 3.07 3.07 0 001.876 2.747 1.256 1.256 0 001.05-.262c.243-.141.262-.3.243-.347z" fill="#a36957"/><path d="M160.92 193.034s9.376-.45 11.252.404c3.244 1.415 12.901 16.558 12.413 16.558h-4.472l-15.002-5.692-3.534.891z" fill="#b78876"/><path d="M201.237 236.51s28.053 97.164 28.119 96.686-25.147 12.123-25.147 12.123l-17.008-70.263z" fill="#263238"/><path fill="#455a64" d="M203.656 345.91l26.572-12.967-1.154-3.554-26.777 12.986 1.359 3.535zM200.168 310.169c-.14 0-.431-.572-.665-1.35s-.31-1.463-.17-1.5.432.562.667 1.35.3 1.453.168 1.5zM201.903 315.86c-.14 0-.45-.563-.685-1.34s-.328-1.454-.196-1.501.44.562.684 1.34.328 1.435.197 1.5zM203.712 321.485c-.14.047-.45-.553-.703-1.331s-.347-1.444-.215-1.49.45.552.703 1.33.347 1.491.215 1.491zM205.606 327.111c-.14.047-.459-.544-.722-1.322s-.375-1.444-.234-1.49.46.543.722 1.321.366 1.491.234 1.491zM207.575 332.737c-.13 0-.468-.544-.74-1.313s-.394-1.435-.254-1.481.46.534.741 1.312.403 1.407.253 1.482zM209.6 338.278c-.14 0-.478-.535-.759-1.303s-.412-1.435-.281-1.482.478.535.76 1.303.44 1.435.28 1.482z"/><path d="M208.129 340.612a4.425 4.425 0 01-.563-1.012 59.48 59.48 0 01-1.294-2.888c-1.04-2.456-2.325-5.916-3.62-9.77s-2.38-7.379-3.15-9.929c-.356-1.2-.656-2.213-.937-3.028a4.538 4.538 0 01-.263-1.135 6.103 6.103 0 01.45 1.069c.263.703.62 1.716 1.05 2.982l3.292 9.873c1.284 3.853 2.512 7.322 3.469 9.807l1.144 2.934a5.523 5.523 0 01.422 1.097z" fill="#455a64"/><path d="M70.358 229.76c.234-5.147-2.691 28.25 22.98 29.131s78.121.497 78.121.497l-6.141 84.694h30.8l6.432-90.104s3.281-26.102-14.58-29.43c-11.176-2.092-80.68-2.757-80.68-2.757z" fill="#263238"/><path fill="#455a64" d="M164.615 344.26h32.431v-5.045l-32.431.047v4.998z"/><path d="M113.881 254.916a1.304 1.304 0 01.328 0l.938-.056 3.75-.17 13.924-.534 46.964-1.612h.3v.3a268.19 268.19 0 00-1.078 10.8c-.413 5.298-.807 10.465-1.191 15.453s-.938 9.788-1.416 14.364c-.937 9.132-1.819 17.364-2.55 24.293s-1.34 12.48-1.763 16.37c-.215 1.875-.384 3.413-.506 4.454q-.084.731-.14 1.153a2.606 2.606 0 01-.066.394 1.782 1.782 0 010-.394c0-.29.056-.675.093-1.163.094-1.05.235-2.55.413-4.463.375-3.89.938-9.488 1.603-16.389s1.52-15.16 2.438-24.312c.45-4.575.938-9.376 1.378-14.354s.778-10.155 1.182-15.443q.45-5.625 1.087-10.829l.263.29-46.974 1.435-13.923.385-3.75.075h-.938a1.21 1.21 0 01-.366-.047zM116.844 251.25c0 .14-.656.272-1.481.29s-1.482-.074-1.482-.215.656-.281 1.472-.3 1.49.084 1.49.225zM122.779 251.11c0 .14-.656.271-1.482.29s-1.48-.075-1.49-.216.665-.272 1.481-.3 1.49.085 1.49.225zM128.714 250.969c0 .15-.656.272-1.482.3s-1.48-.085-1.49-.225.665-.272 1.481-.291 1.49.075 1.49.216zM134.649 250.828c0 .15-.656.281-1.482.3s-1.48-.084-1.49-.225.665-.272 1.481-.29 1.49.074 1.49.215zM140.584 250.697c0 .14-.656.272-1.482.29s-1.48-.084-1.49-.225.665-.272 1.481-.29 1.49.075 1.49.225zM146.519 250.556c0 .14-.656.272-1.482.29s-1.48-.084-1.49-.224.665-.272 1.481-.29 1.482.083 1.49.224zM152.454 250.415c0 .141-.656.272-1.482.291s-1.48-.084-1.49-.225.656-.272 1.481-.29 1.444.084 1.49.224zM158.389 250.275c0 .14-.656.272-1.482.29s-1.48-.074-1.49-.224.656-.272 1.481-.291 1.482.084 1.49.225zM164.324 250.134c0 .14-.656.272-1.482.29s-1.48-.074-1.49-.215.656-.281 1.481-.3 1.482.085 1.49.225zM170.221 249.994c0 .14-.665.271-1.481.29s-1.481-.075-1.49-.215.656-.282 1.48-.3 1.491.084 1.491.225zM176.194 249.853c0 .14-.666.272-1.482.29s-1.48-.074-1.49-.215.656-.272 1.481-.29 1.482.074 1.49.215zM182.129 249.712c0 .15-.666.282-1.482.3s-1.49-.084-1.49-.225.656-.272 1.481-.29 1.482.075 1.49.215zM182.12 255.094c-.15 0-.197-.684-.113-1.5s.253-1.463.394-1.453.197.684.112 1.5-.253 1.472-.393 1.453zM181.538 261c-.14 0-.197-.684-.112-1.5s.262-1.462.403-1.452.187.684.112 1.5-.262 1.472-.403 1.453zM180.957 266.908c-.14 0-.197-.685-.113-1.5s.263-1.463.404-1.454.187.694.112 1.51-.262 1.463-.403 1.444zM180.376 272.815c-.141 0-.188-.685-.113-1.5s.263-1.463.403-1.454.188.694.113 1.51-.244 1.462-.403 1.444zM179.794 278.73c-.14 0-.187-.693-.112-1.509s.262-1.462.403-1.443.197.684.112 1.5-.262 1.462-.403 1.453zM179.213 284.638c-.14 0-.188-.694-.103-1.51s.253-1.462.394-1.444.197.685.112 1.5-.253 1.463-.403 1.454zM178.66 290.545c-.15 0-.197-.685-.113-1.5s.253-1.472.403-1.454.188.685.104 1.5-.272 1.454-.394 1.454zM178.06 296.452c-.14 0-.197-.685-.113-1.5s.263-1.473.403-1.454.188.685.113 1.5-.263 1.463-.403 1.454zM177.478 302.358c-.14 0-.187-.684-.112-1.5s.262-1.462.403-1.453.188.684.113 1.5-.263 1.472-.404 1.453zM176.897 308.265c-.14 0-.187-.684-.112-1.5s.262-1.463.403-1.453.187.684.112 1.5-.262 1.472-.403 1.453zM176.316 314.172c-.14 0-.188-.684-.113-1.5s.263-1.463.403-1.453.197.684.113 1.5-.263 1.472-.403 1.453zM175.744 320.079c-.15 0-.197-.684-.113-1.5s.253-1.463.394-1.453.197.693.113 1.51-.291 1.462-.394 1.443zM175.163 325.986c-.141 0-.197-.685-.113-1.5s.253-1.463.403-1.454.188.694.103 1.51-.253 1.463-.393 1.444zM174.581 331.902c-.14 0-.197-.694-.112-1.51s.262-1.462.403-1.443.187.684.112 1.5-.262 1.463-.403 1.453zM173.972 337.809c-.14 0-.188-.684-.113-1.5s.263-1.472.403-1.453.188.684.113 1.5-.234 1.462-.403 1.453zM173.69 340.94c-.14 0-.253-.065-.243-.112s.122-.084.262-.066.253.066.253.113-.13.075-.271.066z" fill="#455a64"/><path d="M175.66 255.441a8.626 8.626 0 01-2.016 2.203 9 9 0 01-2.372 1.82 17.449 17.449 0 014.387-4.023z" fill="#263238"/><path d="M177.788 256.585a14.064 14.064 0 01-3.31 1.772 13.774 13.774 0 01-3.525 1.294 14.064 14.064 0 013.31-1.772 13.906 13.906 0 013.525-1.294z" fill="#263238"/><path d="M115.156 189.378s-3.14-33.65-8.72-48.38l1.107-.835-1.66-5.803-20.87-2.532.318 4.529a14.88 14.88 0 00-7.135 6.788c-7.5 15.883-3.75 34.428-7.773 68.791 0 0-4.688 16.118.15 21.162l45.54-10.614-2.148-10.388c19.878-.375 52.562-4.032 52.562-4.032l-.937-18.808s-48.84.29-50.434.122" fill="#455a64"/><path d="M105.846 134.331a15.761 15.761 0 011.51 3.75 6.563 6.563 0 01.412 1.595 1.125 1.125 0 01-.263.778 1.35 1.35 0 01-.562.394c-.788.243-1.238.075-1.238 0s.488-.085 1.078-.366a.872.872 0 00.516-.825 9.91 9.91 0 00-.431-1.453 16.07 16.07 0 01-1.022-3.873z" fill="#e0e0e0"/><path d="M110.825 159.384c0 .15-8.439.263-18.752.263s-18.752-.113-18.752-.263 8.438-.253 18.752-.253 18.752.15 18.752.253zM108.865 149.905c0 .14-7.445.262-16.614.262s-16.615-.122-16.615-.262 7.436-.253 16.615-.253 16.614.112 16.614.253zM106.127 141.57c0 .14-6.15.253-13.745.253s-13.736-.113-13.736-.253 6.15-.263 13.736-.263 13.745.16 13.745.263zM105.855 135.682a104.077 104.077 0 01-10.529.262 104.077 104.077 0 01-10.53-.262c0-.141 4.689-.254 10.53-.254s10.53.113 10.53.254zM112.147 168.507c0 .14-8.88.253-19.83.253s-19.83-.112-19.83-.253 8.878-.263 19.83-.263 19.83.113 19.83.263zM113.76 177.667c0 .14-9.236.253-20.628.253s-20.627-.112-20.627-.253 9.235-.262 20.627-.262 20.627.122 20.627.262zM114.772 186.106c0 .15-9.47.262-21.143.262s-21.143-.112-21.143-.262 9.47-.254 21.143-.254 21.143.113 21.143.254zM160.92 195.34c0 .142-19.97.254-44.601.254s-44.611-.112-44.611-.253 19.97-.263 44.61-.263 44.602.122 44.602.263zM161.267 202.73c0 .15-20.12.262-44.939.262s-44.948-.113-44.948-.263 20.12-.253 44.948-.253 44.94.113 44.94.253zM113.253 211.843c0 .15-9.61.262-21.471.262s-21.48-.112-21.48-.262 9.61-.253 21.48-.253 21.47.112 21.47.253zM115.438 220.3c0 .14-10.455.262-23.347.262s-23.346-.122-23.346-.262 10.454-.253 23.346-.253 23.347.112 23.347.253z" fill="#263238"/><path d="M75.683 222.54c-.15 0-.262-16.398-.262-36.622s.112-36.623.262-36.623.253 16.4.253 36.623-.112 36.623-.253 36.623zM86.944 221.64c-.14 0-.253-20.045-.253-44.77s.084-44.78.253-44.78.262 20.037.262 44.77-.112 44.78-.262 44.78zM99.386 220.3c-.14 0-.253-19.324-.253-43.13s.112-43.13.253-43.13.262 19.325.262 43.13-.112 43.13-.262 43.13zM109.84 222.513c-.14 0-.253-15.17-.253-33.876s.112-33.885.253-33.885.263 15.17.263 33.885-.122 33.876-.263 33.876zM120.913 189.33a20.787 20.787 0 01.103 3.301c0 2.035 0 4.838-.112 7.932s-.169 5.907-.263 7.932a23.018 23.018 0 01-.262 3.291 20.516 20.516 0 01-.103-3.29c0-2.035 0-4.839.112-7.942s.169-5.907.263-7.942a19.98 19.98 0 01.262-3.281zM132.717 189.725a19.558 19.558 0 01.104 3.094c0 1.875 0 4.528-.094 7.426s-.169 5.531-.253 7.435a17.495 17.495 0 01-.263 3.075 19.204 19.204 0 01-.103-3.075c0-1.875 0-4.538.103-7.445s.16-5.532.253-7.435a17.063 17.063 0 01.253-3.075zM144.456 189.518a16.483 16.483 0 01.113 2.991c0 1.876 0 4.398-.094 7.21s-.16 5.364-.253 7.201a16.032 16.032 0 01-.253 2.991 18.546 18.546 0 01-.113-2.981c0-1.876 0-4.398.103-7.21s.16-5.373.244-7.21a18.35 18.35 0 01.253-2.992zM156.242 189.19a15.302 15.302 0 01.112 2.897c0 1.791 0 4.267-.093 6.995s-.15 5.204-.244 6.985a16.878 16.878 0 01-.244 2.897 15.695 15.695 0 01-.122-2.897c0-1.79 0-4.266.094-6.994s.16-5.213.244-6.995a15.94 15.94 0 01.253-2.888zM111.068 193.569a9.742 9.742 0 014.37-4.885 25.431 25.431 0 01-2.223 2.41 26.253 26.253 0 01-2.147 2.475z" fill="#263238"/><path d="M113.76 193.794a5.147 5.147 0 011.874-5.11c.113.103-.675 1.06-1.181 2.466s-.488 2.644-.694 2.644zM161.783 207.961a80.182 80.182 0 01-1.069-8.992 80.948 80.948 0 01-.562-9.047 76.331 76.331 0 011.078 9 79.274 79.274 0 01.553 9.039zM162.374 193.466a1.493 1.493 0 00-.3.722.938.938 0 00.234.684.703.703 0 00.788.103.731.731 0 00.468-.647.938.938 0 00-.346-.637c-.366-.291-.713-.197-.732-.272s.347-.338.938 0a1.181 1.181 0 01.619.937 1.163 1.163 0 01-.732 1.144 1.181 1.181 0 01-1.35-.244 1.2 1.2 0 01-.234-1.078c.169-.684.656-.778.647-.712z" fill="#263238"/><path d="M115.1 189.284h.234l.685.056c.61.066 1.51.122 2.69.16 2.363.093 5.833.14 10.249.103 8.823-.056 21.433-.385 36.566-.938h.216v.216c.3 5.841.619 12.189.937 18.92v.216h-.197c-2.4.45-4.828.638-7.313.891l-7.576.656c-5.147.422-10.444.816-15.836 1.2l-19.82 1.332c-5.748-.366-11.327-2.429-15.227-6.216a18.62 18.62 0 01-4.416-6.498 46.316 46.316 0 01-2.222-7.144c-2.316-9.376-3.75-17.918-4.923-25.006a681.788 681.788 0 01-1.444-9.536 58.189 58.189 0 01-.834-7.191 8.842 8.842 0 01.938-4.425 4.463 4.463 0 01.937-1.247 8.775 8.775 0 00-.872 1.293 8.954 8.954 0 00-.825 4.379 60.286 60.286 0 00.938 7.154c.44 2.813.937 5.982 1.519 9.526 1.181 7.07 2.681 15.555 5.016 24.94a47.086 47.086 0 002.222 7.079 18.133 18.133 0 004.332 6.329c3.75 3.684 9.272 5.7 14.917 6.066l19.811-1.35 15.827-1.191 7.576-.647c2.466-.253 4.94-.44 7.238-.872l-.188.253c-.318-6.704-.618-13.08-.937-18.93l.234.216c-15.123.553-27.734.815-36.566.797-4.416 0-7.885-.085-10.248-.225-1.181-.066-2.09-.14-2.7-.235l-.685-.084a.938.938 0 01-.253-.047z" fill="#263238"/><path d="M115.1 189.284a8.56 8.56 0 01-.488-1.472c-.271-.938-.647-2.344-1.097-4.07-.937-3.44-2.015-8.231-3.216-13.52s-2.297-10.078-3.122-13.538l-.937-4.098a7.886 7.886 0 01-.291-1.518 9.742 9.742 0 01.488 1.472c.29.937.665 2.334 1.125 4.06.937 3.431 2.081 8.213 3.281 13.51s2.185 9.995 3.029 13.548c.375 1.67.694 3.048.937 4.107a10.314 10.314 0 01.291 1.519zM105.912 134.725a4.2 4.2 0 01-.104 1.032 99.498 99.498 0 01-.45 2.812 15.5 15.5 0 01-.393 1.941 1.397 1.397 0 01-.844.938 2.466 2.466 0 01-1.257 0 84.497 84.497 0 01-4.997-1.21c-3.516-.937-6.648-1.978-8.926-2.681l-2.69-.844a4.05 4.05 0 01-.938-.366 3.863 3.863 0 011.022.169c.656.15 1.593.375 2.747.694 2.306.61 5.457 1.566 8.963 2.531 1.753.479 3.422.938 4.96 1.247a2.063 2.063 0 001.022.066.938.938 0 00.581-.628c.207-.6.291-1.294.432-1.875.243-1.163.46-2.1.61-2.757a3.816 3.816 0 01.262-1.069zM89.504 264.526l6.553 88.95 2.738-.637-1.022-86.437-8.269-1.876zM61.732 267.62l-19.905 85.753h3.6l28.494-85.753H61.732zM114.378 267.62l27.153 85.753h2.906l-21.574-85.753h-8.485z" fill="#263238"/><path fill="#263238" d="M118.016 273.377l-60.85 39.764v2.175l62.547-41.939h-1.697z"/><path fill="#263238" d="M66.382 273.377l65.932 44.367v-3.394l-64-42.914-1.932 1.941z"/><path d="M52.637 269.092l78.402-1.415a5.016 5.016 0 004.885-5.626 4.997 4.997 0 00-5.054-4.425L51.353 258.9z" fill="#fde24f"/><path d="M52.637 269.092l78.402-1.415a5.016 5.016 0 004.885-5.626 4.997 4.997 0 00-5.054-4.425L51.353 258.9z" opacity=".2"/><path d="M44.649 208.486l7.913 60.606 61.816-1.472-.16-36.81a10.314 10.314 0 00-11.25-10.426l-47.134 4.257-6.207-64.235-6.263-.534a4.407 4.407 0 00-4.688 4.988z" fill="#fde24f"/></svg>