<svg xmlns="http://www.w3.org/2000/svg" viewBox="0 0 364.928 360"><path d="M47.795 126.665a41.852 41.852 0 00-18.978.483c-32.584 8.755-32.882 50-23.47 75.895 15.208 41.965 50.617 75.514 92.48 90.937s89.478 13.184 130.816-3.647 76.377-47.699 100.648-85.163C356.346 163.41 380.987 102.816 351.67 56 329.99 21.373 284.336 3.463 245 14.9a83.447 83.447 0 00-22.79 10.594c-27.364 18.209-38.77 49.641-55.899 76.244-11.693 18.157-28.894 36.437-50.832 41.02-24.096 5.055-44.935-11.786-67.685-16.092z" fill="#00ebc7"/><path d="M47.795 126.665a41.852 41.852 0 00-18.978.483c-32.584 8.755-32.882 50-23.47 75.895 15.208 41.965 50.617 75.514 92.48 90.937s89.478 13.184 130.816-3.647 76.377-47.699 100.648-85.163C356.346 163.41 380.987 102.816 351.67 56 329.99 21.373 284.336 3.463 245 14.9a83.447 83.447 0 00-22.79 10.594c-27.364 18.209-38.77 49.641-55.899 76.244-11.693 18.157-28.894 36.437-50.832 41.02-24.096 5.055-44.935-11.786-67.685-16.092z" style="isolation:isolate" fill="#fff" opacity=".9"/><path d="M183.02 3.987V299.92a4.316 4.316 0 01-4.305 4.326H40.942a3.884 3.884 0 01-2.754-1.1 3.987 3.987 0 01-1.172-2.867V3.627A3.494 3.494 0 0140.371 0H79.485a2.744 2.744 0 012.517 1.757l1.624 3.987a2.754 2.754 0 002.517 1.747h47.853a2.723 2.723 0 002.517-1.716l1.624-4.008A2.754 2.754 0 01140.654 0h38.544a3.936 3.936 0 013.822 3.987z" fill="#00ebc7"/><path style="isolation:isolate" fill="#fff" opacity=".6" d="M37.006 23.634H183.02v248.46H37.006zM55.163 9.207h2.035v2.713h-2.035zM51.854 8.303h2.035v3.617h-2.035zM48.525 7.398h2.035v4.521h-2.035zM45.216 6.494h2.035v5.425h-2.035zM163.178 8.22h1.202v2.713h-1.202zM165.202 7.224h9.608v4.696h-9.608z"/><g opacity=".1" fill="#fff"><path d="M102.697 7.49L60.66 164.942l-.462 1.768-.76 2.836-.484 1.767-21.948 82.204v-99.467L78.108 0h1.336a2.744 2.744 0 012.517 1.757l1.624 3.987a2.754 2.754 0 002.517 1.747zM183.02 87.896v99.507l-26.213 98.203-.637 2.384-4.326 16.204h-26.562L129.608 288l.689-2.6 3.473-13.008.699-2.6 1.387-5.21.699-2.599 1.387-5.21.688-2.6 21.856-81.854v-.01l1.007-3.771v-.011l21.527-80.631zM117.093 7.49l-41.77 156.465-.257.935-2.28 8.58-.258.935-34.35 128.69a3.987 3.987 0 01-1.172-2.867v-15.136l29.552-110.687.257-.935 2.281-8.58.257-.935L111.123 7.49z"/></g><path d="M173.803 44.74v-1.552l-.802-.072a4.213 4.213 0 00-.596-1.429l.514-.616-1.1-1.1-.616.514a3.833 3.833 0 00-1.428-.596l-.072-.801h-1.541l-.072.801a3.833 3.833 0 00-1.428.596l-.627-.514-1.09 1.1.514.616a3.833 3.833 0 00-.596 1.429l-.801.072v1.551l.801.072a3.833 3.833 0 00.596 1.428l-.513.617 1.089 1.1.627-.514a3.833 3.833 0 001.428.596l.072.801h1.551l.072-.801a3.833 3.833 0 001.429-.596l.616.513 1.1-1.099-.514-.617a4.213 4.213 0 00.596-1.428zm-4.88 1.315a2.055 2.055 0 112.054-2.056 2.055 2.055 0 01-2.055 2.056z" style="isolation:isolate" fill="#fff" opacity=".9"/><path d="M59.715 43.763l-5.24-4.326a.216.216 0 00-.268 0l-5.24 4.326a.206.206 0 00.133.37h1.172a.216.216 0 01.215.206v3.986a.216.216 0 00.206.216h7.285a.216.216 0 00.206-.216V44.34a.206.206 0 01.205-.206h1.182a.206.206 0 00.144-.37z" fill="#fff"/><g opacity=".6" fill="#fff"><path d="M166.2 282.266h8.004a.586.586 0 00.575-.585.575.575 0 00-.575-.576h-8.005a.575.575 0 00-.575.576.586.586 0 00.575.585zM174.204 284.013h-8.005a.575.575 0 00-.575.576.586.586 0 00.575.585h8.005a.586.586 0 00.575-.585.575.575 0 00-.575-.576zM174.204 286.962h-8.005a.575.575 0 000 1.151h8.005a.575.575 0 000-1.15zM113.62 284.013h-3.422v-3.422a.586.586 0 00-1.161 0v3.422h-3.422a.575.575 0 00-.575.576.586.586 0 00.575.585h3.422v3.422a.586.586 0 001.161 0v-3.422h3.422a.586.586 0 00.575-.585.575.575 0 00-.575-.576zM52.234 280.828h-6.35a.596.596 0 00-.586.585v6.402a.586.586 0 00.586.575h6.402a.575.575 0 00.575-.575v-6.402a.586.586 0 00-.584-.587c-.014 0-.029 0-.043.002zm-.585 6.401h-5.24v-5.271h5.24z"/></g><g opacity=".6" fill="#00ebc7"><path d="M105.297 265.189a.473.473 0 01-.278-.093l-4.11-2.682a.514.514 0 11.555-.853l3.843 2.497 3.843-2.497a.524.524 0 01.72.144.514.514 0 01-.155.71l-4.11 2.681a.503.503 0 01-.308.093z"/><path d="M105.297 263.092a.544.544 0 01-.278-.082l-4.11-2.682a.524.524 0 01-.154-.719.514.514 0 01.709-.144l3.843 2.497 3.843-2.497a.516.516 0 11.565.863l-4.11 2.682a.586.586 0 01-.308.082z"/></g><path d="M174.163 87.896a3.833 3.833 0 00-3.823 3.823v158.58a3.822 3.822 0 107.645 0V91.72a3.822 3.822 0 00-3.822-3.823z" style="isolation:isolate" opacity=".1"/><path d="M174.163 88.965a3.083 3.083 0 00-3.083 3.082v21.394a3.083 3.083 0 006.104 0V92.017a3.083 3.083 0 00-3.021-3.052z" style="isolation:isolate" fill="#fff" opacity=".6"/><path d="M98.648 40.28l-2.64 8.086h-2.055l-1.778-5.476-1.84 5.477h-2.054l-2.652-8.087h1.942l1.82 5.682 1.91-5.682h1.85l1.85 5.723 1.88-5.723zM99.46 40.28a1.028 1.028 0 011.024-1.032q.048 0 .096.004a1.028 1.028 0 011.118.93l.002.036a1.13 1.13 0 01-2.24 0zm.216 1.87h1.808v6.165h-1.808zM102.553 47.791l.606-1.295a4.234 4.234 0 002.158.596c.832 0 1.151-.215 1.151-.565 0-1.027-3.76 0-3.76-2.466 0-1.171 1.027-2.055 2.876-2.055a5.138 5.138 0 012.395.545l-.607 1.284a3.514 3.514 0 00-1.788-.462c-.811 0-1.15.246-1.15.575 0 1.028 3.75 0 3.75 2.487 0 1.15-1.028 1.973-2.939 1.973a5.384 5.384 0 01-2.692-.617zM115.654 44.8v3.567h-1.808v-3.289c0-1.027-.463-1.459-1.254-1.459a1.486 1.486 0 00-1.5 1.675v3.083h-1.798v-8.58h1.798v3.01a2.764 2.764 0 011.983-.74 2.435 2.435 0 012.58 2.734zM117.278 39.787h1.808v8.58h-1.808zM120.535 40.28a1.028 1.028 0 011.023-1.032q.049 0 .097.004a1.028 1.028 0 011.127.918l.003.048a1.136 1.136 0 01-2.247.099zm.226 1.87h1.798v6.165h-1.798zM123.638 47.791l.596-1.295a4.234 4.234 0 002.158.596c.832 0 1.151-.215 1.151-.565 0-1.027-3.76 0-3.76-2.466 0-1.171 1.027-2.055 2.876-2.055a5.056 5.056 0 012.394.545l-.596 1.284a3.576 3.576 0 00-1.798-.462c-.801 0-1.15.246-1.15.575 0 1.028 3.75 0 3.75 2.487 0 1.15-1.028 1.973-2.929 1.973a5.323 5.323 0 01-2.692-.617zM134.386 48.069a2.651 2.651 0 01-1.469.39 2.055 2.055 0 01-2.322-2.23v-2.558h-.966v-1.388h.966v-1.51h1.798v1.51h1.552v1.388h-1.552v2.538a.72.72 0 00.77.811 1.182 1.182 0 00.73-.226z" fill="#fff"/><path d="M47.271 58.118h125.494a5.21 5.21 0 015.22 5.2v.02a5.22 5.22 0 01-5.21 5.23H47.271a5.23 5.23 0 01-5.23-5.23 5.22 5.22 0 015.22-5.22z" style="isolation:isolate" opacity=".3"/><path d="M170.782 64.684a2.127 2.127 0 01-1.49-.617 2.109 2.109 0 010-2.98 2.106 2.106 0 012.98 0 2.17 2.17 0 010 3.032 2.127 2.127 0 01-1.49.565zm0-3.185a1.028 1.028 0 00-.76.308 1.09 1.09 0 00-.319.77 1.028 1.028 0 00.319.76 1.11 1.11 0 001.52 0 1.028 1.028 0 00.319-.76 1.09 1.09 0 00-.319-.77 1.028 1.028 0 00-.76-.308z" fill="#fff"/><path d="M173.906 66.174a.514.514 0 01-.36-.154l-2.055-1.994a.524.524 0 010-.73.514.514 0 01.727-.002l.003.003 2.003 2.003a.514.514 0 010 .72.524.524 0 01-.318.154z" fill="#fff"/><rect x="42.041" y="144.411" width="124.456" height="53.062" rx="2.24" style="isolation:isolate" fill="#00ebc7" opacity=".6"/><path fill="#00ebc7" d="M47.508 149.58h43.496v39.971H47.508z"/><path style="isolation:isolate" fill="#fff" opacity=".6" d="M47.508 149.58h43.496v39.971H47.508z"/><path style="isolation:isolate" fill="#fff" opacity=".3" d="M49.727 151.686h39.17v35.645h-39.17z"/><path style="isolation:isolate" fill="#fff" opacity=".3" d="M88.897 179.789v7.543h-39.16l-.01-17.428 8.087-7.069 11.991 11.693 6.35-4.624 12.742 9.885z"/><g opacity=".6" fill="#fff"><path d="M82.372 162.825a3.144 3.144 0 110-.021v.02z"/><path d="M82.372 162.825a3.144 3.144 0 110-.021v.02z" style="isolation:isolate" opacity=".3"/></g><g opacity=".3" fill="#fff"><path d="M141.507 153.001H98.864a1.305 1.305 0 01-1.305-1.305 1.295 1.295 0 011.295-1.294h42.653a1.284 1.284 0 011.295 1.274v.02a1.295 1.295 0 01-1.284 1.305zM158.164 160.8h-59.3a1.295 1.295 0 01-1.305-1.284v-.01a1.305 1.305 0 011.305-1.305h59.3a1.305 1.305 0 011.305 1.305 1.295 1.295 0 01-1.295 1.294zM122.785 168.61h-23.92a1.305 1.305 0 01-1.306-1.305 1.295 1.295 0 011.295-1.295h23.931a1.284 1.284 0 011.295 1.274v.02a1.295 1.295 0 01-1.284 1.306z"/></g><path d="M98.073 181.875c1.15-1.87 3.36-1.15 4.49.298 1.14-1.459 3.34-2.178 4.501-.308 1.942 3.155-2.055 6.083-3.946 7.193l-.534.329-.545-.33c-1.89-1.099-5.908-4.017-3.966-7.182z" fill="#fff"/><g opacity=".6" fill="#fff"><path d="M115.932 182.379h6.391l-.298 7.049h-5.785l-.308-7.049zM120.33 180.714l-.298-.616h-1.799l-.308.616-2.569.298v.699h7.553v-.699l-2.579-.298z"/></g><g opacity=".6" fill="#fff"><path d="M139.76 180.355h-1.644a.38.38 0 00-.38.308l-.113.534h-8.066l-.051.051v.124a.226.226 0 000 .082l.842 4.758a.39.39 0 00.38.318h6.33a.38.38 0 00.38-.308l.956-4.665a.483.483 0 000-.165l.082-.441h1.336a.39.39 0 000-.771zm-2.62 3.247h-1.664l.092-1.634h1.901zm-4.11 0l-.072-1.634h1.85l-.093 1.633zm1.644.77l-.092 1.583h-1.439l-.072-1.583zm-4.408-2.404h1.932l.072 1.633h-1.706zm.421 2.404h1.613l.072 1.583h-1.407zm5.98 1.583h-1.315l.093-1.583h1.541zM130.995 187.506a.966.966 0 10.956.976v-.01a.966.966 0 00-.956-.966zM137.397 187.506a.966.966 0 10.956.976v-.01a.966.966 0 00-.956-.966z"/></g><path d="M44.281 200.926h119.976a2.24 2.24 0 012.24 2.24v48.582a2.24 2.24 0 01-2.24 2.24H44.281a2.24 2.24 0 01-2.24-2.24v-48.582a2.24 2.24 0 012.24-2.24z" style="isolation:isolate" fill="#00ebc7" opacity=".6"/><path fill="#00ebc7" d="M47.508 206.094h43.496v39.971H47.508z"/><path style="isolation:isolate" fill="#fff" opacity=".6" d="M47.508 206.094h43.496v39.971H47.508z"/><path style="isolation:isolate" fill="#fff" opacity=".3" d="M49.727 208.201h39.17v35.645h-39.17z"/><path style="isolation:isolate" fill="#fff" opacity=".3" d="M88.897 236.304v7.542h-39.16l-.01-17.427 8.087-7.069 11.991 11.693 6.35-4.624 12.742 9.885z"/><g opacity=".6" fill="#fff"><path d="M82.372 219.34a3.144 3.144 0 110-.021v.02z"/><path d="M82.372 219.34a3.144 3.144 0 110-.021v.02z" style="isolation:isolate" opacity=".3"/></g><g opacity=".3" fill="#fff"><path d="M141.507 209.516H98.864a1.305 1.305 0 01-1.305-1.305 1.295 1.295 0 011.295-1.295h42.653a1.284 1.284 0 011.295 1.275v.02a1.295 1.295 0 01-1.284 1.305zM158.164 217.315h-59.3a1.295 1.295 0 01-1.305-1.284v-.01a1.305 1.305 0 011.305-1.305h59.3a1.305 1.305 0 011.305 1.305 1.295 1.295 0 01-1.295 1.294zM122.785 225.125h-23.92a1.305 1.305 0 01-1.306-1.305 1.295 1.295 0 011.295-1.295h23.931a1.284 1.284 0 011.295 1.274v.02a1.295 1.295 0 01-1.284 1.306z"/></g><path d="M98.073 238.39c1.15-1.87 3.36-1.15 4.49.298 1.14-1.459 3.34-2.178 4.501-.308 1.942 3.155-2.055 6.083-3.946 7.193l-.534.329-.545-.33c-1.89-1.099-5.908-4.017-3.966-7.182z" fill="#fff"/><g opacity=".6" fill="#fff"><path d="M115.932 238.883h6.391l-.298 7.06h-5.785l-.308-7.06zM120.33 237.229l-.298-.616h-1.799l-.308.616-2.569.298v.699h7.553v-.699l-2.579-.298z"/></g><g opacity=".6" fill="#fff"><path d="M139.76 236.87h-1.644a.38.38 0 00-.38.308l-.113.534h-8.066l-.051.051v.124a.226.226 0 000 .082l.842 4.757a.39.39 0 00.38.319h6.33a.38.38 0 00.38-.308l.956-4.665a.483.483 0 000-.165l.082-.442h1.336a.39.39 0 000-.77zm-2.62 3.246h-1.664l.092-1.633h1.901zm-4.11 0l-.072-1.633h1.85l-.093 1.633zm1.644.771l-.092 1.582h-1.439l-.072-1.582zm-4.408-2.404h1.932l.072 1.633h-1.706zm.421 2.404h1.613l.072 1.582h-1.407zm5.98 1.582h-1.315l.093-1.582h1.541zM130.995 244.021a.966.966 0 10.956.976v-.01a.966.966 0 00-.956-.966zM137.397 244.021a.966.966 0 10.956.976v-.01a.966.966 0 00-.956-.966z"/></g><path d="M44.281 87.896h119.976a2.24 2.24 0 012.24 2.24v48.582a2.24 2.24 0 01-2.24 2.24H44.281a2.24 2.24 0 01-2.24-2.24V90.136a2.24 2.24 0 012.24-2.24z" style="isolation:isolate" fill="#00ebc7" opacity=".6"/><path fill="#00ebc7" d="M47.508 93.065h43.496v39.971H47.508z"/><path style="isolation:isolate" fill="#fff" opacity=".6" d="M47.508 93.065h43.496v39.971H47.508z"/><path style="isolation:isolate" fill="#fff" opacity=".3" d="M49.727 95.171h39.17v35.645h-39.17z"/><path style="isolation:isolate" fill="#fff" opacity=".3" d="M88.897 123.274v7.543h-39.16l-.01-17.428 8.087-7.069 11.991 11.693 6.35-4.624 12.742 9.885z"/><g opacity=".6" fill="#fff"><path d="M82.372 106.31a3.144 3.144 0 110-.02v.02z"/><path d="M82.372 106.31a3.144 3.144 0 110-.02v.02z" style="isolation:isolate" opacity=".3"/></g><g opacity=".3" fill="#fff"><path d="M141.507 96.486H98.864a1.305 1.305 0 01-1.305-1.305 1.295 1.295 0 011.295-1.294h42.653a1.284 1.284 0 011.295 1.274v.02a1.295 1.295 0 01-1.284 1.305zM158.164 104.285h-59.3a1.295 1.295 0 01-1.305-1.284v-.01a1.305 1.305 0 011.305-1.305h59.3a1.305 1.305 0 011.305 1.305 1.295 1.295 0 01-1.295 1.294zM122.785 112.095h-23.92a1.305 1.305 0 01-1.306-1.305 1.295 1.295 0 011.295-1.295h23.931a1.284 1.284 0 011.295 1.274v.02a1.295 1.295 0 01-1.284 1.306z"/></g><path d="M98.073 125.36c1.15-1.87 3.36-1.15 4.49.298 1.14-1.459 3.34-2.178 4.501-.308 1.942 3.155-2.055 6.083-3.946 7.193l-.534.329-.545-.33c-1.89-1.099-5.908-4.017-3.966-7.182z" fill="#fff"/><g opacity=".6" fill="#fff"><path d="M115.932 125.864h6.391l-.298 7.049h-5.785l-.308-7.049zM120.33 124.199l-.298-.616h-1.799l-.308.616-2.569.298v.699h7.553v-.699l-2.579-.298z"/></g><g opacity=".6" fill="#fff"><path d="M139.76 123.84h-1.644a.38.38 0 00-.38.308l-.113.534h-8.066l-.051.052v.123a.226.226 0 000 .082l.842 4.758a.39.39 0 00.38.318h6.33a.38.38 0 00.38-.308l.956-4.665a.483.483 0 000-.165l.082-.441h1.336a.39.39 0 000-.771zm-2.62 3.247h-1.664l.092-1.634h1.901zm-4.11 0l-.072-1.634h1.85l-.093 1.634zm1.644.77l-.092 1.583h-1.439l-.072-1.583zm-4.408-2.404h1.932l.072 1.634h-1.706zm.421 2.404h1.613l.072 1.583h-1.407zm5.98 1.583h-1.315l.093-1.583h1.541zM130.995 130.991a.966.966 0 10.956.976v-.01a.966.966 0 00-.956-.966zM137.397 130.991a.966.966 0 10.956.976v-.01a.966.966 0 00-.956-.966z"/></g><path d="M259.778 173.162l-8.529 7.665s3.298 2.6 4.192 3.514-3.894 3.926-5.312 3.083-3.555-4.603-4.367-6.165 3.082-4.06 3.082-4.06l6.895-6.709z" fill="#b97964"/><path d="M273.906 156.598c-.298 6.165-15.968 19.163-15.968 19.163l-4.932-3.236s12.546-13.266 10.913-17.273c-.576-1.408-2.57-3.186-4.902-4.881a93.22 93.22 0 00-9.772-6.001l3.607-8.868 2.846-6.987c5.302 2.168 18.517 21.98 18.208 28.083z" fill="#00ebc7"/><path d="M259.017 150.432a93.22 93.22 0 00-9.772-6l3.607-8.868c2.939 3.031 7.47 8.888 6.165 14.868z" style="isolation:isolate" opacity=".2"/><path d="M174.183 133.416l-17.694-7.192s-1.377-2.292-2.559-2.59-8.477.154-9.032 1.028.586 6.401 2.055 6.864 7.738-.822 8.282-1.172l15.814 8.087zM275.18 352.437l-6.453 1.141-2.64-8.796-2.415-8.066 7.439-2.6 2.158 9.7 1.911 8.621z" fill="#b97964"/><path style="isolation:isolate" opacity=".2" d="M273.3 344.011l-7.183.946-2.435-8.159 7.429-2.641 2.189 9.854z"/><path fill="#b97964" d="M232.116 352.602h-6.545l-1.079-8.786-.976-8.21 7.778-1.182.442 9.639.38 8.539z"/><path style="isolation:isolate" opacity=".2" d="M231.736 344.648l-7.244-.318-.976-8.467 7.778-1.305.442 10.09z"/><path d="M273.906 336.962l-10.604 1.87c-10.697-26.716-18.31-48.92-23.633-67.386-2.898-9.967-5.19-18.824-6.926-26.716l.452 29.018v65.465h-10.748c-26.192-124.333-7.625-153.238-7.625-153.238l31.33-5.24a143.045 143.045 0 012.63 17.602l1.409 10.388 12.248 63.266z" fill="#00ebc7"/><path d="M273.906 336.962l-10.604 1.87c-9.772-24.362-16.975-45.037-22.236-62.505-.503-1.654-1.028-3.278-1.49-4.88-2.63-9.043-4.377-17.181-6.432-24.477a10.202 10.202 0 00-.494-2.188l.494 29.017v65.465h-10.697c-15.999-76.038-15.3-116.41-12.33-136.262 1.89-12.66 4.705-16.862 4.705-16.862l31.33-5.292a142.235 142.235 0 012.63 17.57l.422 3.083 1.028 7.255 12.248 63.255z" fill="#fff" opacity=".5"/><path fill="#00ebc7" d="M261.648 337.517l13.152-4.356-.185 5.589-10.871 3.473-2.096-4.706z"/><path style="isolation:isolate" fill="#fff" opacity=".6" d="M261.648 337.517l13.152-4.356-.185 5.589-10.871 3.473-2.096-4.706z"/><path fill="#00ebc7" d="M221.039 338.124l13.718-2.004-1.151 5.477-11.313 1.531-1.254-5.004z"/><path style="isolation:isolate" fill="#fff" opacity=".6" d="M221.039 338.124l13.718-2.004-1.151 5.477-11.313 1.531-1.254-5.004z"/><path d="M241.117 276.327c-.503-1.654-1.027-3.278-1.49-4.88-2.62-9.043-4.377-17.181-6.432-24.477l-1.028-13.44s6.7-14.766 4.193-25.165c.226.596 4.665 11.92 2.928 23.223a329.233 329.233 0 001.83 44.74z" style="isolation:isolate" opacity=".2"/><path d="M239.864 118.034a1.489 1.489 0 01-.226.216 11.467 11.467 0 01-3.761 2.476c-4.11 1.531-7.1 1.315-9.248-.36-3.021-2.537-4.336-7.562-4.757-13.769a23.366 23.366 0 01.431-7.367.348.348 0 010-.103.405.405 0 01.072-.277 8.457 8.457 0 015.518-5.919 17.11 17.11 0 013.586-.884c11.991-1.664 16.708 17.952 8.385 25.987z" fill="#b97964"/><path d="M239.638 118.25a11.303 11.303 0 01-3.792 2.312c-4.11 1.52-7.11 1.171-9.248-.535a12.022 12.022 0 007.532-1.603 6.32 6.32 0 015.508-.174z" style="isolation:isolate" opacity=".2"/><path d="M242.998 127.528c1.9 2.97-1.798 5.837-1.798 5.837-7.933-.38-10.553-3.555-10.553-3.555 4.613-5.138-.165-12.906-.165-12.906l1.377.133 8.745-1.418s-.648 5.138-.586 6.279c.38 5.774 2.98 5.63 2.98 5.63z" fill="#b97964"/><path d="M222.282 99.158s.422 8.498 8.858 11.097c0 0 4.552 8.303 9.607 7.779 6.906-.709 11.704-11.303 8.046-20.931-4.737-12.526-24.455-11.067-26.51 2.055z" fill="#263238"/><path d="M226.793 108.355c-.164-1.316.607-3.659 2.693-3.617s3.986 5.137-1.028 6.925c-.699.267-1.315-.565-1.665-3.308z" fill="#b97964"/><path d="M224.872 351.358h7.316a.678.678 0 01.647.524l1.5 6.782a1.12 1.12 0 01-.868 1.325h-.005a.955.955 0 01-.246 0c-2.99-.05-3.227-.236-6.988-.236-2.312 0-9.299.247-12.495.247s-3.606-3.155-2.301-3.453c5.867-1.274 10.275-3.082 12.166-4.737a1.829 1.829 0 011.274-.452z" fill="#263238"/><path d="M222.354 352.694a2.302 2.302 0 01-1.459-.38 1.028 1.028 0 01-.38-1.028.555.555 0 01.308-.503c.843-.432 3.309 1.079 3.576 1.254a.154.154 0 01.082.174.175.175 0 01-.133.154 9.248 9.248 0 01-1.994.33zm-1.13-1.572a.462.462 0 00-.236 0 .301.301 0 00-.113.216.76.76 0 00.236.647 3.7 3.7 0 002.713.144 7.254 7.254 0 00-2.6-1.007z" fill="#00ebc7"/><path d="M224.307 352.427h-.093c-.78-.421-2.301-2.106-2.147-2.908a.586.586 0 01.575-.473 1.027 1.027 0 01.77.237c.885.709 1.028 2.897 1.028 3.01a.185.185 0 01-.082.165.144.144 0 01-.051-.031zm-1.531-3.083h-.093c-.226 0-.246.144-.257.185-.102.494.874 1.768 1.655 2.353a4.316 4.316 0 00-.904-2.383.647.647 0 00-.401-.165z" fill="#00ebc7"/><path d="M268.48 351.358h7.307a.658.658 0 01.647.524l1.5 6.782a1.11 1.11 0 01-.846 1.322l-.017.004h-.247c-2.99-.052-3.236-.237-6.987-.237-2.322 0-9.3.247-12.495.247s-3.617-3.155-2.301-3.453c5.867-1.274 10.275-3.082 12.155-4.737a1.85 1.85 0 011.285-.452z" fill="#263238"/><path d="M265.963 352.694a2.312 2.312 0 01-1.469-.38 1.09 1.09 0 01-.37-1.028.545.545 0 01.308-.503c.843-.432 3.299 1.079 3.576 1.254a.164.164 0 01.082.174.185.185 0 01-.133.154 9.412 9.412 0 01-1.994.33zm-1.14-1.572a.442.442 0 00-.226 0c-.052 0-.113.072-.113.216a.73.73 0 00.236.647 3.7 3.7 0 002.713.144 7.193 7.193 0 00-2.61-1.007z" fill="#00ebc7"/><path d="M267.905 352.427h-.071c-.792-.421-2.312-2.106-2.158-2.908a.606.606 0 01.585-.473 1.028 1.028 0 01.76.237c.884.709 1.028 2.897 1.08 3.01a.216.216 0 01-.083.165.175.175 0 01-.113-.031zm-1.53-3.083h-.083c-.236 0-.257.144-.267.185-.092.494.873 1.768 1.654 2.353a4.223 4.223 0 00-.894-2.383.657.657 0 00-.41-.165z" fill="#00ebc7"/><path d="M214.823 186.119s-4.11-39.992 6.165-56.32c0 0 14.385-4.994 34.71-1.243 0 0-7.593 28.083-8.477 57.542z" fill="#263238"/><path d="M252.944 178.772l-33.909.894a62.105 62.105 0 01-4.243-18.064 94.744 94.744 0 01-.175-13.893 96.248 96.248 0 012.055-15.413c8.662-9.546 38.965-3.77 38.965-3.77-4.552 21.69-2.693 50.246-2.693 50.246z" fill="#00ebc7"/><path d="M223.65 93.147c-.217-.565-3.3 2.322-3.443 2.538a6.104 6.104 0 00-.4 6.453c1.201 2.055 3.698 3.483 3.914 5.857.092 1.09-.34 2.158-.34 3.257a5.672 5.672 0 001.737 3.823c2.004 2.055 5.292 2.928 5.498 6.257a41.605 41.605 0 01-.319 4.367 4.655 4.655 0 001.47 3.956 11.303 11.303 0 002.908 1.11c.976.36 1.962 1.161 1.921 2.2a8.755 8.755 0 01-.678 1.9 3.155 3.155 0 001.326 3.196c1.983 1.52 5.22 1.356 6.812 3.463a2.764 2.764 0 01-.514 4.202s3.823.267 4.501-3.39a3.668 3.668 0 01-2.312 4.603s3.638.544 4.326-4.059a3.083 3.083 0 003.535 1.623s-2.816-.965-.658-4.007c1.233-1.736 2.857-3.514 3.083-5.723.287-2.466-1.747-4.347-1.398-6.823.319-2.322 2.528-3.997 3.083-6.279a5.94 5.94 0 00-.75-4.264c-1.182-2.055-3.535-3.082-3.535-5.692 0-2.056.832-4.049 1.274-6.073a6.165 6.165 0 00-.329-4.244 10.275 10.275 0 00-2.425-2.538c-2.764-2.476-1.335-6.36-3.822-9.083a5.61 5.61 0 00-4.614-1.85 24.075 24.075 0 00-2.928.77c-2.055.504-3.288-.523-4.86-1.592-2.549-1.726-6.227-2.538-9.094-1.1a5.908 5.908 0 00-2.97 7.142z" fill="#263238"/><path d="M228.581 118.301a5.693 5.693 0 01-4.254-1.541c-1.336-1.387-1.5-3.309-1.49-5.138v-.493c0-1.901 0-3.535-1.027-5.138a14.563 14.563 0 00-1.09-1.459 11.447 11.447 0 01-1.849-2.887 5.004 5.004 0 01.123-3.997c1.439-3.083 5.405-4.594 6.587-4.984a.24.24 0 01.164.452c-2.353.791-5.24 2.456-6.309 4.737a4.47 4.47 0 00-.113 3.617 10.687 10.687 0 001.778 2.754c.38.483.77.976 1.11 1.5 1.13 1.716 1.11 3.504 1.089 5.395v.493c0 1.767.144 3.586 1.356 4.84 1.696 1.746 4.408 1.51 6.587 1.11a.247.247 0 01.092.482 16.163 16.163 0 01-2.754.257zM253.12 142.376a.247.247 0 01-.196-.102c-.884-1.274 1.027-3.443 2.363-4.881a12.224 12.224 0 00.802-.925 4.213 4.213 0 00.277-5.076l-.36-.503c-.822-1.151-1.757-2.467-1.027-4.049a7.563 7.563 0 011.202-1.716 6.895 6.895 0 001.09-1.5 3.997 3.997 0 00-1.676-5.354.236.236 0 01-.097-.32l.005-.009a.267.267 0 01.339-.092 4.521 4.521 0 011.86 5.99 7.85 7.85 0 01-1.151 1.604 6.936 6.936 0 00-1.13 1.592c-.596 1.336.185 2.425 1.027 3.576l.36.514a4.665 4.665 0 01-.288 5.62 11.08 11.08 0 01-.832.977c-1.12 1.233-2.99 3.319-2.333 4.274a.247.247 0 01-.051.34.257.257 0 01-.185.04z" fill="#263238"/><path d="M214.823 161.602a94.74 94.74 0 01-.175-13.893c3.77-3.144 6.7-5.384 6.7-5.384s1.099 11.807-6.525 19.277z" style="isolation:isolate" opacity=".2"/><path d="M222.899 128.854s2.733 13.78-8.344 20.695c0 0-26.5-.072-31.535-1.716s-20.386-11.745-20.386-11.745l3.873-6.73s14.818 5.25 19.287 6.73 37.105-7.234 37.105-7.234z" fill="#00ebc7"/></svg>