<svg xmlns="http://www.w3.org/2000/svg" viewBox="0 0 1029.83 265.65"><path d="M289.2 57c0-33 25.05-57 59.55-57s59.4 24 59.4 57-24.9 57-59.4 57-59.55-24-59.55-57zm89.7 0c0-18.3-12.75-31.5-30.15-31.5-17.55 0-30.15 13.2-30.15 31.5s12.6 31.5 30.15 31.5c17.4 0 30.15-13.2 30.15-31.5zM417.9 70.8c0-25.35 19.2-43 46.8-43s46.65 17.7 46.65 43.05c0 25.5-19.2 43.19-46.65 43.19S417.9 96.3 417.9 70.8zm65.85 0c0-11.85-7.8-19.95-19.05-19.95S445.65 59 445.65 70.8c0 12 7.65 20.25 19.05 20.25s19.05-8.25 19.05-20.25zM525.3 30h26.1v12.9c5.6-8.85 17.25-15.15 27.6-15.15 21.15 0 35.4 17.4 35.4 43.2 0 25.65-14.25 43-35.4 43-10.5 0-21.9-5.84-27.15-14.69v42.44H525.3zm61.5 40.8c0-12-7.2-19.95-17.55-19.95S551.7 58.8 551.7 70.8c0 12.15 7 20.1 17.55 20.1S586.8 83 586.8 70.8zM621.9 105.6l6.6-19.8c7.8 3.9 21.3 8 32.55 8 6.9 0 10.8-2.25 10.8-5.85 0-4.05-5.4-5.4-14.1-6.9-16.2-2.7-33.3-5.7-33.3-25.8 0-17.1 13.5-27.45 36.6-27.45a89.37 89.37 0 0132.1 6.45l-7.5 18.3a66.56 66.56 0 00-24.3-5.25c-7.35 0-11.25 2-11.25 5.7 0 4 6.6 5.25 14.55 6.75 17.25 3 32.4 7.65 32.4 24.9 0 18.3-14.1 29.39-37.35 29.39-12.3-.04-25.95-2.6-37.8-8.44zM710.25 97.94c0-9 6.45-15.29 15.45-15.29s15.45 6.3 15.45 15.29-6.45 15.15-15.45 15.15-15.45-6.3-15.45-15.15zm.9-87.74V2.25h29.25v8l-3.15 64.35h-23.1zM34 204.65l2-6.6a21.51 21.51 0 0010.56 3c2.4 0 4.08-.72 4.08-2.32s-1.52-1.92-7.44-3.16c-4.32-.92-9.12-2.92-9.12-9 0-6.27 5.6-9.27 12.16-9.27A25 25 0 0157 179.78l-2.4 6.12a21.24 21.24 0 00-8.88-2.21c-2.48 0-3.8.76-3.8 2 0 1.4 1.56 2 6 2.88 4.76 1 10.56 2.8 10.56 9.12 0 6.08-5.2 10-12.6 10A26.7 26.7 0 0134 204.65zM61 196.13c0-6.76 5.12-11.48 12.48-11.48S86 189.37 86 196.13s-5.12 11.52-12.44 11.52S61 202.93 61 196.13zm17.56 0a5 5 0 00-5.08-5.32c-3 0-5.08 2.16-5.08 5.32s2 5.4 5.08 5.4 5.12-2.2 5.12-5.4zM89.68 185.26h7.08v2.56a8.53 8.53 0 016.8-3.17 7.59 7.59 0 017.24 4.35 8.94 8.94 0 017.75-4.36c4.92 0 8.16 3.48 8.16 8.76v13.64h-7.08v-12.11c0-2.52-1.52-4.12-3.75-4.12-2.44 0-4.12 1.76-4.12 4.56v11.68h-7.12V195c0-2.56-1.44-4.2-3.76-4.2s-4.12 1.84-4.12 4.56v11.68h-7.08zM152.72 198.09h-14.84c.76 2.92 3 3.84 6 3.84a20.05 20.05 0 006.72-1.32l1.6 5a21.11 21.11 0 01-9.08 2c-7.32 0-12.8-4.2-12.8-11.52 0-6.76 4.8-11.48 11.76-11.48 6.56 0 10.84 4.36 10.84 11a17 17 0 01-.2 2.48zm-15-4h8.4c-.24-2.32-1.52-4.08-4.16-4.08-2.24.04-3.84 1.48-4.24 4.12zM158.6 199.57v-8.32h-3.88v-6h3.88V179h7.08v6.28h6.76v6h-6.76V199c0 1.76 1 2.48 2.76 2.48a12.68 12.68 0 004.08-.72v6.08a18 18 0 01-5.28.8c-5.68.01-8.72-2.87-8.64-8.07zM175.92 176.26H183v11.79a9.48 9.48 0 017.4-3.4c5 0 8.27 3.52 8.27 8.88v13.52h-7.07V195a3.92 3.92 0 00-4.16-4.2 4.27 4.27 0 00-4.44 4.56v11.68h-7.08zM203.24 178.7a3.91 3.91 0 013.88-3.88 3.87 3.87 0 013.88 3.88 3.83 3.83 0 01-3.92 3.92 3.87 3.87 0 01-3.84-3.92zm.36 6.56h7.08v21.79h-7.08zM215.6 185.26h7v2.79a9.74 9.74 0 017.52-3.4c5 0 8.27 3.52 8.27 8.88v13.52h-7.07V195a3.92 3.92 0 00-4.16-4.2 4.27 4.27 0 00-4.44 4.56v11.68h-7.12zM244.36 214.17l1.08-5.88a16.71 16.71 0 006.56 1.4c4 0 6.48-1 6.48-4.32v-2.16c-1.44 2.32-4.44 3.36-7.24 3.36-5.52 0-9.4-4.28-9.4-10.8s3.88-11.12 9.4-11.12a8.81 8.81 0 017.32 4v-3.43h7v20.31c0 6.76-5 10.08-12.63 10.08a23.65 23.65 0 01-8.57-1.44zm14.12-18.4c0-2.92-1.92-5-4.6-5s-4.64 2-4.64 5a4.57 4.57 0 004.64 4.92c2.68 0 4.6-2 4.6-4.92zM277.92 185.26h7.76l3.8 13.55 3.44-13.55h6.79l3.56 13.63 3.73-13.63h7.44L307 207.05h-7.6l-3.27-13-3.28 13h-7.32zM337.67 198.09h-14.83c.76 2.92 3 3.84 6 3.84a20 20 0 006.72-1.32l1.6 5a21.07 21.07 0 01-9.07 2c-7.32 0-12.8-4.2-12.8-11.52 0-6.76 4.8-11.48 11.76-11.48 6.55 0 10.83 4.36 10.83 11a17 17 0 01-.21 2.48zm-15-4h8.4c-.25-2.32-1.52-4.08-4.16-4.08-2.23.04-3.83 1.48-4.23 4.12zM341.56 185.26h7v2.79a9.74 9.74 0 017.52-3.4c5 0 8.27 3.52 8.27 8.88v13.52h-7.08V195a3.91 3.91 0 00-4.15-4.2 4.27 4.27 0 00-4.44 4.56v11.68h-7.08zM371.12 199.57v-8.32h-3.88v-6h3.88V179h7.08v6.28h6.8v6h-6.8V199c0 1.76 1 2.48 2.76 2.48a12.68 12.68 0 004.08-.72v6.08a18 18 0 01-5.28.8c-5.68.01-8.76-2.87-8.64-8.07zM395.8 185.26h7.76l3.8 13.55 3.43-13.55h6.8l3.56 13.63 3.68-13.63h7.44l-7.4 21.79h-7.6L414 194l-3.28 13h-7.32zM450.07 184.69v7.2a8.42 8.42 0 00-2.16-.24c-4.08 0-6.31 2.24-6.31 5.64v9.76h-7.08v-21.79h7.08v3a9.68 9.68 0 018.47-3.57zM451.72 196.13c0-6.76 5.12-11.48 12.47-11.48s12.44 4.72 12.44 11.48-5.12 11.52-12.44 11.52-12.47-4.72-12.47-11.52zm17.55 0a5 5 0 00-5.08-5.32c-3 0-5.07 2.16-5.07 5.32s2 5.4 5.07 5.4 5.08-2.2 5.08-5.4zM480.36 185.26h7v2.79a9.71 9.71 0 017.51-3.4c5 0 8.28 3.52 8.28 8.88v13.52H496V195a3.92 3.92 0 00-4.16-4.2 4.27 4.27 0 00-4.43 4.56v11.68h-7.08zM509.12 214.17l1.08-5.88a16.66 16.66 0 006.55 1.4c4 0 6.48-1 6.48-4.32v-2.16c-1.44 2.32-4.44 3.36-7.23 3.36-5.52 0-9.4-4.28-9.4-10.8s3.88-11.12 9.4-11.12a8.81 8.81 0 017.31 4v-3.43h7v20.31c0 6.76-5 10.08-12.64 10.08a23.6 23.6 0 01-8.55-1.44zm14.11-18.4c0-2.92-1.92-5-4.6-5s-4.63 2-4.63 5a4.57 4.57 0 004.63 4.92c2.68 0 4.6-2 4.6-4.92zM534.64 203.37a4.12 4.12 0 114.12 4 3.94 3.94 0 01-4.12-4zM557.72 177.86h7.59v29.19h-7.59zM570.67 185.26h7v2.79a9.74 9.74 0 017.52-3.4c5 0 8.28 3.52 8.28 8.88v13.52h-7.08V195a3.92 3.92 0 00-4.16-4.2 4.27 4.27 0 00-4.44 4.56v11.68h-7.08zM600.23 199.57v-8.32h-3.87v-6h3.87V179h7.08v6.28h6.76v6h-6.76V199c0 1.76 1 2.48 2.76 2.48a12.68 12.68 0 004.08-.72v6.08a18 18 0 01-5.28.8c-5.68.01-8.71-2.87-8.64-8.07zM638.55 198.09h-14.84c.76 2.92 3 3.84 6 3.84a20.05 20.05 0 006.72-1.32l1.6 5a21.11 21.11 0 01-9.08 2c-7.32 0-12.79-4.2-12.79-11.52 0-6.76 4.79-11.48 11.75-11.48 6.56 0 10.84 4.36 10.84 11a17 17 0 01-.2 2.48zm-15-4H632c-.24-2.32-1.52-4.08-4.16-4.08-2.29.04-3.84 1.48-4.29 4.12zM658 184.69v7.2a8.42 8.42 0 00-2.16-.24c-4.08 0-6.32 2.24-6.32 5.64v9.76h-7.08v-21.79h7.08v3a9.71 9.71 0 018.48-3.57zM661.11 185.26h7v2.79a9.74 9.74 0 017.52-3.4c5 0 8.28 3.52 8.28 8.88v13.52h-7.08V195a3.92 3.92 0 00-4.16-4.2 4.27 4.27 0 00-4.44 4.56v11.68h-7.08zM687.35 196.13c0-6.84 3.84-11.48 9.52-11.48a8.79 8.79 0 017.2 3.92v-3.31h7.08v21.79h-7v-3.44a9.14 9.14 0 01-7.36 4c-5.64.04-9.44-4.61-9.44-11.48zm16.76 0c0-3.2-1.92-5.32-4.68-5.32s-4.68 2.12-4.68 5.32 1.88 5.36 4.68 5.36 4.68-2.12 4.68-5.36zM715.91 176.26H723v30.79h-7.08zM736.59 205.41l1.76-5.28a21.83 21.83 0 008.68 2.12c1.84 0 2.88-.6 2.88-1.56s-1.44-1.44-3.76-1.84c-4.32-.72-8.88-1.52-8.88-6.88 0-4.56 3.6-7.32 9.76-7.32a24 24 0 018.56 1.72l-2 4.88a17.75 17.75 0 00-6.48-1.4c-2 0-3 .52-3 1.52s1.76 1.4 3.88 1.8c4.6.8 8.64 2 8.64 6.64 0 4.88-3.76 7.84-10 7.84a23.23 23.23 0 01-10.04-2.24zM781.51 198.09h-14.84c.76 2.92 3 3.84 6 3.84a20.05 20.05 0 006.72-1.32l1.6 5a21.11 21.11 0 01-9.08 2c-7.32 0-12.8-4.2-12.8-11.52 0-6.76 4.8-11.48 11.76-11.48 6.56 0 10.84 4.36 10.84 11a17 17 0 01-.2 2.48zm-15-4h8.4c-.24-2.32-1.52-4.08-4.16-4.08-2.24.04-3.84 1.48-4.24 4.12zM801 184.69v7.2a8.42 8.42 0 00-2.16-.24c-4.08 0-6.32 2.24-6.32 5.64v9.76h-7.08v-21.79h7.08v3a9.71 9.71 0 018.48-3.57zM801.27 185.26h7.84l5.36 14.51 5.36-14.51h7.84l-9.12 21.79h-8.2zM850.75 198.09h-14.84c.76 2.92 3 3.84 6 3.84a20.05 20.05 0 006.72-1.32l1.6 5a21.11 21.11 0 01-9.08 2c-7.32 0-12.8-4.2-12.8-11.52 0-6.76 4.8-11.48 11.76-11.48 6.56 0 10.84 4.36 10.84 11a17 17 0 01-.2 2.48zm-15-4h8.4c-.24-2.32-1.52-4.08-4.16-4.08-2.24.04-3.84 1.48-4.24 4.12zM870.19 184.69v7.2a8.42 8.42 0 00-2.16-.24c-4.08 0-6.32 2.24-6.32 5.64v9.76h-7.08v-21.79h7.08v3a9.71 9.71 0 018.48-3.57zM904.59 198.09h-14.84c.76 2.92 3 3.84 6 3.84a20.05 20.05 0 006.72-1.32l1.6 5a21.11 21.11 0 01-9.08 2c-7.32 0-12.8-4.2-12.8-11.52 0-6.76 4.8-11.48 11.76-11.48 6.56 0 10.84 4.36 10.84 11a17 17 0 01-.2 2.48zm-15-4H898c-.24-2.32-1.52-4.08-4.16-4.08-2.25.04-3.84 1.48-4.25 4.12zM924 184.69v7.2a8.42 8.42 0 00-2.16-.24c-4.08 0-6.32 2.24-6.32 5.64v9.76h-7.08v-21.79h7.08v3a9.71 9.71 0 018.48-3.57zM942.71 184.69v7.2a8.42 8.42 0 00-2.16-.24c-4.08 0-6.32 2.24-6.32 5.64v9.76h-7.08v-21.79h7.08v3a9.71 9.71 0 018.48-3.57zM944.35 196.13c0-6.76 5.12-11.48 12.48-11.48s12.44 4.72 12.44 11.48-5.12 11.52-12.44 11.52-12.48-4.72-12.48-11.52zm17.56 0a5 5 0 00-5.08-5.32c-3 0-5.08 2.16-5.08 5.32s2 5.4 5.08 5.4 5.08-2.2 5.08-5.4zM988.55 184.69v7.2a8.42 8.42 0 00-2.16-.24c-4.08 0-6.32 2.24-6.32 5.64v9.76H973v-21.79h7.08v3a9.71 9.71 0 018.47-3.57zM987.63 203.37a4.12 4.12 0 114.12 4 3.94 3.94 0 01-4.12-4zM0 254.65l2-6.6a21.51 21.51 0 0010.56 3c2.4 0 4.08-.72 4.08-2.32s-1.52-1.92-7.44-3.16c-4.32-.92-9.12-2.92-9.12-9 0-6.27 5.6-9.27 12.16-9.27a25 25 0 0110.8 2.52l-2.4 6.12a21.24 21.24 0 00-8.88-2.21c-2.48 0-3.8.76-3.8 2 0 1.4 1.56 2 6 2.88 4.76 1 10.56 2.8 10.56 9.12 0 6.08-5.2 10-12.6 10A26.7 26.7 0 010 254.65zM27.08 246.13c0-6.76 5.12-11.48 12.48-11.48S52 239.37 52 246.13s-5.12 11.52-12.44 11.52-12.48-4.72-12.48-11.52zm17.56 0a5 5 0 00-5.08-5.32c-3 0-5.08 2.16-5.08 5.32s2 5.4 5.08 5.4 5.08-2.2 5.08-5.4zM71.28 234.69v7.2a8.42 8.42 0 00-2.16-.24c-4.08 0-6.32 2.24-6.32 5.64v9.76h-7.08v-21.79h7.08v3a9.71 9.71 0 018.48-3.57zM90 234.69v7.2a8.42 8.42 0 00-2.16-.24c-4.08 0-6.32 2.24-6.32 5.64v9.76H74.4v-21.79h7.08v3a9.71 9.71 0 018.52-3.57zM116.2 235.26l-12.4 29.79h-7.72l3.56-7.88-9.36-21.91h7.84l5.2 13.67 5.08-13.67zM137.72 234.22v1h6.08v6h-6.08V257h-7.08v-15.75h-3.88v-6h3.88v-1c0-5.44 3.44-8.56 9.48-8.56a18.2 18.2 0 015.92 1l-1.6 5a8.83 8.83 0 00-3.16-.68c-2.28-.01-3.56 1.13-3.56 3.21zM145.72 246.13c0-6.76 5.12-11.48 12.48-11.48s12.43 4.72 12.43 11.48-5.12 11.52-12.43 11.52-12.48-4.72-12.48-11.52zm17.56 0a5 5 0 00-5.08-5.32c-3 0-5.08 2.16-5.08 5.32s2 5.4 5.08 5.4 5.08-2.2 5.08-5.4zM189.92 234.69v7.2a8.42 8.42 0 00-2.16-.24c-4.08 0-6.32 2.24-6.32 5.64v9.76h-7.08v-21.79h7.08v3a9.71 9.71 0 018.48-3.57zM205.2 249.57v-8.32h-3.88v-6h3.88V229h7.08v6.28H219v6h-6.76V249c0 1.76 1 2.48 2.76 2.48a12.68 12.68 0 004.08-.72v6.08a18 18 0 01-5.28.8c-5.64.01-8.68-2.87-8.6-8.07zM222.52 226.26h7.08v11.79a9.48 9.48 0 017.4-3.4c5 0 8.27 3.52 8.27 8.88v13.52h-7.08V245a3.91 3.91 0 00-4.15-4.2 4.27 4.27 0 00-4.44 4.56v11.68h-7.08zM271.43 248.09H256.6c.76 2.92 3 3.84 5.95 3.84a20.05 20.05 0 006.72-1.32l1.6 5a21.11 21.11 0 01-9.08 2c-7.31 0-12.79-4.2-12.79-11.52 0-6.76 4.8-11.48 11.76-11.48 6.55 0 10.83 4.36 10.83 11a17 17 0 01-.16 2.48zm-15-4h8.39c-.24-2.32-1.51-4.08-4.15-4.08-2.23.04-3.83 1.48-4.23 4.12zM285 228.7a3.91 3.91 0 013.88-3.88 3.87 3.87 0 013.92 3.88 3.83 3.83 0 01-3.92 3.92 3.87 3.87 0 01-3.88-3.92zm.36 6.56h7.08v21.79h-7.08zM297.36 235.26h7v2.79a9.71 9.71 0 017.51-3.4c5 0 8.28 3.52 8.28 8.88v13.52H313V245a3.91 3.91 0 00-4.15-4.2 4.27 4.27 0 00-4.44 4.56v11.68h-7.08zM323.6 246.13c0-7.28 5.6-11.44 12.52-11.48a19.62 19.62 0 018 1.76l-1.68 5.92a12.94 12.94 0 00-5.8-1.52c-3.39 0-5.67 1.84-5.67 5.32s2.28 5.36 5.67 5.36a12.94 12.94 0 005.8-1.52l1.68 5.92a19.46 19.46 0 01-8 1.76c-6.92 0-12.52-4.2-12.52-11.52zM346.08 246.13c0-6.76 5.12-11.48 12.47-11.48S371 239.37 371 246.13s-5.12 11.52-12.44 11.52-12.48-4.72-12.48-11.52zm17.55 0a5 5 0 00-5.08-5.32c-3 0-5.07 2.16-5.07 5.32s2 5.4 5.07 5.4 5.08-2.2 5.08-5.4zM374.72 235.26h7v2.79a9.73 9.73 0 017.51-3.4c5 0 8.28 3.52 8.28 8.88v13.52h-7.08V245a3.92 3.92 0 00-4.16-4.2 4.27 4.27 0 00-4.43 4.56v11.68h-7.08zM399.48 235.26h7.84l5.35 14.51 5.33-14.51h7.84l-9.12 21.79h-8.2zM449 248.09h-14.88c.76 2.92 3 3.84 5.95 3.84a20.05 20.05 0 006.72-1.32l1.6 5a21.11 21.11 0 01-9.08 2c-7.31 0-12.79-4.2-12.79-11.52 0-6.76 4.8-11.48 11.76-11.48 6.55 0 10.83 4.36 10.83 11a17 17 0 01-.11 2.48zm-15-4h8.39c-.24-2.32-1.52-4.08-4.15-4.08-2.24.04-3.88 1.48-4.24 4.12zM452.84 235.26h7v2.79a9.73 9.73 0 017.51-3.4c5 0 8.28 3.52 8.28 8.88v13.52h-7.08V245a3.92 3.92 0 00-4.16-4.2 4.27 4.27 0 00-4.43 4.56v11.68h-7.08zM479.92 228.7a3.91 3.91 0 013.88-3.88 3.86 3.86 0 013.91 3.88 3.82 3.82 0 01-3.91 3.92 3.87 3.87 0 01-3.88-3.92zm.36 6.56h7.08v21.79h-7.08zM513.39 248.09h-14.84c.77 2.92 3 3.84 6 3.84a20.05 20.05 0 006.72-1.32l1.6 5a21.11 21.11 0 01-9.08 2c-7.31 0-12.79-4.2-12.79-11.52 0-6.76 4.8-11.48 11.75-11.48 6.56 0 10.84 4.36 10.84 11a17 17 0 01-.2 2.48zm-15-4h8.39c-.24-2.32-1.52-4.08-4.16-4.08-2.23.04-3.83 1.48-4.22 4.12zM517.28 235.26h7v2.79a9.71 9.71 0 017.51-3.4c5 0 8.28 3.52 8.28 8.88v13.52H533V245a3.92 3.92 0 00-4.16-4.2 4.27 4.27 0 00-4.43 4.56v11.68h-7.08zM543.52 246.13c0-7.28 5.6-11.44 12.51-11.48a19.63 19.63 0 018 1.76l-1.68 5.92a12.94 12.94 0 00-5.8-1.52c-3.4 0-5.67 1.84-5.67 5.32s2.27 5.36 5.67 5.36a12.94 12.94 0 005.8-1.52l1.68 5.92a19.47 19.47 0 01-8 1.76c-6.91 0-12.51-4.2-12.51-11.52zM588.43 248.09h-14.84c.76 2.92 3 3.84 6 3.84a20.05 20.05 0 006.72-1.32l1.6 5a21.11 21.11 0 01-9.08 2c-7.32 0-12.79-4.2-12.79-11.52 0-6.76 4.79-11.48 11.75-11.48 6.56 0 10.84 4.36 10.84 11a17 17 0 01-.2 2.48zm-15-4h8.4c-.24-2.32-1.52-4.08-4.16-4.08-2.24.04-3.84 1.48-4.24 4.12zM593 261.25a9.08 9.08 0 003-4.24 1.76 1.76 0 01-1.28.4c-2 0-3.4-1.6-3.4-4a4 4 0 014-4.16c2.51 0 4.19 2 4.19 5.12a10.77 10.77 0 01-4.43 8.72zM611.6 235.26h7.75l3.8 13.55 3.44-13.55h6.8l3.61 13.63 3.68-13.63h7.44l-7.4 21.79h-7.6l-3.28-13-3.28 13h-7.36zM671.35 248.09h-14.84c.76 2.92 3 3.84 6 3.84a20.05 20.05 0 006.72-1.32l1.6 5a21.11 21.11 0 01-9.08 2c-7.32 0-12.79-4.2-12.79-11.52 0-6.76 4.79-11.48 11.75-11.48 6.56 0 10.84 4.36 10.84 11a17 17 0 01-.2 2.48zm-15-4h8.4c-.24-2.32-1.52-4.08-4.16-4.08-2.24.04-3.84 1.48-4.24 4.12zM675.84 239.21a9.14 9.14 0 003-4.23 1.91 1.91 0 01-1.27.39c-2 0-3.4-1.6-3.4-4a4 4 0 014-4.16c2.51 0 4.19 2 4.19 5.12a10.82 10.82 0 01-4.43 8.71zM702.67 234.69v7.2a8.42 8.42 0 00-2.16-.24c-4.08 0-6.32 2.24-6.32 5.64v9.76h-7.07v-21.79h7.07v3a9.71 9.71 0 018.48-3.57zM726.75 248.09h-14.84c.76 2.92 3 3.84 6 3.84a20.05 20.05 0 006.72-1.32l1.6 5a21.11 21.11 0 01-9.08 2c-7.32 0-12.79-4.2-12.79-11.52 0-6.76 4.8-11.48 11.75-11.48 6.56 0 10.84 4.36 10.84 11a17 17 0 01-.2 2.48zm-15-4h8.4c-.24-2.32-1.52-4.08-4.16-4.08-2.24.04-3.84 1.48-4.24 4.12zM738 235.26h7.75l3.8 13.55 3.45-13.55h6.8l3.56 13.63 3.64-13.63h7.44l-7.4 21.79h-7.6l-3.28-13-3.28 13h-7.32zM775.32 246.13c0-6.76 5.11-11.48 12.47-11.48s12.44 4.72 12.44 11.48-5.12 11.52-12.44 11.52-12.47-4.72-12.47-11.52zm17.55 0a5 5 0 00-5.08-5.32c-3 0-5.08 2.16-5.08 5.32s2 5.4 5.08 5.4 5.08-2.2 5.08-5.4zM819.51 234.69v7.2a8.42 8.42 0 00-2.16-.24c-4.08 0-6.32 2.24-6.32 5.64v9.76H804v-21.79h7v3a9.71 9.71 0 018.51-3.57zM832.23 249.05l-2.52 2.48v5.52h-7.08v-30.79h7.08v17l8.32-8h8.44l-8.88 9.07 9.68 12.72h-8.6zM848.55 228.7a3.91 3.91 0 013.88-3.88 3.87 3.87 0 013.92 3.88 3.83 3.83 0 01-3.92 3.92 3.87 3.87 0 01-3.88-3.92zm.36 6.56H856v21.79h-7.08zM860.91 235.26h7v2.79a9.74 9.74 0 017.52-3.4c5 0 8.28 3.52 8.28 8.88v13.52h-7.08V245a3.92 3.92 0 00-4.16-4.2 4.27 4.27 0 00-4.44 4.56v11.68h-7.08zM889.67 264.17l1.08-5.88a16.71 16.71 0 006.56 1.4c4 0 6.48-1 6.48-4.32v-2.16c-1.44 2.32-4.44 3.36-7.24 3.36-5.52 0-9.4-4.28-9.4-10.8s3.88-11.12 9.4-11.12a8.81 8.81 0 017.32 4v-3.43h7v20.31c0 6.76-5 10.08-12.64 10.08a23.65 23.65 0 01-8.56-1.44zm14.12-18.4c0-2.92-1.92-5-4.6-5s-4.64 2-4.64 5a4.57 4.57 0 004.64 4.92c2.68 0 4.6-2 4.6-4.92zM924.71 246.13c0-6.76 5.12-11.48 12.48-11.48s12.44 4.72 12.44 11.48-5.12 11.52-12.44 11.52-12.48-4.72-12.48-11.52zm17.56 0a5 5 0 00-5.08-5.32c-3 0-5.08 2.16-5.08 5.32s2 5.4 5.08 5.4 5.08-2.2 5.08-5.4zM953.35 235.26h7v2.79a9.74 9.74 0 017.52-3.4c5 0 8.28 3.52 8.28 8.88v13.52H969V245a3.92 3.92 0 00-4.16-4.2 4.27 4.27 0 00-4.44 4.56v11.68h-7.08zM990.59 228.7a3.91 3.91 0 013.88-3.88 3.87 3.87 0 013.92 3.88 3.83 3.83 0 01-3.92 3.92 3.87 3.87 0 01-3.88-3.92zm.36 6.56H998v21.79h-7zM1005 249.57v-8.32h-3.88v-6h3.88V229h7v6.28h6.76v6H1012V249c0 1.76 1 2.48 2.76 2.48a12.68 12.68 0 004.08-.72v6.08a18 18 0 01-5.28.8c-5.65.01-8.69-2.87-8.56-8.07zM1021.59 253.37a4.12 4.12 0 114.12 4 3.94 3.94 0 01-4.12-4z"/></svg>