<svg version="1.1" id="prefix__Layer_1" xmlns="http://www.w3.org/2000/svg" x="0" y="0" viewBox="0 0 450 450" xml:space="preserve"><style>.prefix__st0{fill:#fde24f}.prefix__st1{opacity:.15;enable-background:new}.prefix__st2{fill:#37474f}.prefix__st3{opacity:.3;enable-background:new}.prefix__st4{fill:#455a64}.prefix__st5{fill:#263238}.prefix__st6{opacity:.1;enable-background:new}.prefix__st7{opacity:5.000000e-02}.prefix__st10,.prefix__st7,.prefix__st9{enable-background:new}.prefix__st9{opacity:.7;fill:#fff}.prefix__st10{opacity:.5}.prefix__st11{opacity:.2}.prefix__st11,.prefix__st12,.prefix__st15,.prefix__st16{enable-background:new}.prefix__st12{opacity:.8;fill:#fff}.prefix__st15,.prefix__st16{opacity:.4}.prefix__st16{opacity:.25}.prefix__st17{fill:#ffa8a7}.prefix__st18{fill:#e0e0e0}.prefix__st19{fill:#f28f8f}</style><g id="prefix__freepik--Gate--inject-70"><g id="prefix__freepik--gate--inject-70"><path class="prefix__st0" d="M176.6 343.2l-58.8-33.9v-2.6l54-31.2 58.8 33.9v2.6z"/><path class="prefix__st0" d="M117.8 306.7l58.8 33.9 54-31.2-58.8-33.9z"/><path class="prefix__st1" d="M117.8 306.7l58.8 33.9 54-31.2-58.8-33.9z"/><path class="prefix__st2" d="M191.1 320.8c1.2.6 2.7.6 3.9 0 .6-.2 1-.9.7-1.5-.1-.4-.4-.6-.7-.7-1.2-.6-2.7-.6-3.9 0-.6.2-1 .9-.7 1.5.1.3.4.6.7.7z"/><path class="prefix__st3" d="M176.6 340.6v2.6l-58.8-33.9v-2.6z"/></g></g><g id="prefix__freepik--Server--inject-70"><g id="prefix__freepik--server--inject-70_1_"><path class="prefix__st0" d="M99.8 105.7l65.5 37.8c1.3.8 2.1 2.3 2.2 3.8v198.8c-.1 1.5-.9 3-2.2 3.8l-70.8 40.9c-1.4.7-3 .7-4.4 0L24.6 353c-1.3-.8-2.1-2.3-2.2-3.8V150.4c.1-1.5.9-3 2.2-3.8l70.8-40.9c1.4-.7 3-.7 4.4 0z"/><path class="prefix__st0" d="M22.5 150.4v198.8c.1 1.5.9 2.9 2.2 3.8l65.4 37.8c.7.4 1.4.5 2.2.5V187.4c-.8 0-1.5-.2-2.2-.5l-65.5-37.8-.6-.5-.8-.6c-.4.7-.7 1.5-.7 2.4z"/><path class="prefix__st3" d="M22.5 150.4v198.8c.1 1.5.9 2.9 2.2 3.8l65.4 37.8c.7.4 1.4.5 2.2.5V187.4c-.8 0-1.5-.2-2.2-.5l-65.5-37.8-.6-.5-.8-.6c-.4.7-.7 1.5-.7 2.4z"/><path class="prefix__st0" d="M24.6 146.6l70.8-40.9c1.4-.7 3-.7 4.4 0l65.5 37.8c.7.2 1.1 1 .8 1.7-.1.4-.4.7-.8.8l-70.8 40.9c-1.4.7-3 .7-4.4 0l-65.5-37.8c-.7-.2-1.1-1-.8-1.7.1-.4.4-.7.8-.8z"/><path class="prefix__st1" d="M24.6 146.6l70.8-40.9c1.4-.7 3-.7 4.4 0l65.5 37.8c.7.2 1.1 1 .8 1.7-.1.4-.4.7-.8.8l-70.8 40.9c-1.4.7-3 .7-4.4 0l-65.5-37.8c-.7-.2-1.1-1-.8-1.7.1-.4.4-.7.8-.8z"/><path class="prefix__st4" d="M159.6 281.4l-58.8 34v62.3l58.8-33.9z"/><path class="prefix__st5" d="M130.7 326c-.2-.1-.4-.1-.6.1l-23.9 13.8c-.3.2-.5.4-.6.6l-1.6-.9c.1-.3.3-.5.6-.6l23.4-13.5c.5-.3 1.2-.3 1.7 0l1 .5z"/><path class="prefix__st2" d="M105.3 341.3V368c0 .5.4.8.9.5l23.9-13.7c.5-.3.8-.9.9-1.5v-26.8c0-.5-.4-.8-.9-.5l-23.9 13.8c-.5.3-.8.9-.9 1.5z"/><path class="prefix__st5" d="M105.6 368.6l-1-.6c-.5-.3-.8-.9-.9-1.5v-26.2c0-.3.1-.6.2-.9l1.6.9c-.2.3-.2.6-.2.9V368c0 .3.1.5.3.6z"/><path class="prefix__st0" d="M107.3 366.1h-.2c-.2-.1-.2-.3-.2-.5v-23.8c0-.4.3-.8.6-1l21.3-12.2c.2-.1.4-.1.5 0 .2.1.2.3.2.5v23.8c0 .4-.2.8-.6 1l-21.3 12.2c-.1.1-.2.1-.3 0zm21.8-37.4h-.2L107.6 341c-.3.2-.5.5-.5.8v23.8c0 .1 0 .2.1.2h.3l21.3-12.2c.3-.2.5-.5.5-.8V329c-.1-.2-.1-.3-.2-.3z"/><path class="prefix__st0" d="M108.9 363h-.1c-.1-.1-.1-.1-.1-.2v-20.2c0-.2.1-.4.3-.5l18.2-10.5c.1-.1.2-.1.3 0 .1.1.1.2.1.3V352c0 .2-.1.4-.3.5L109.1 363h-.2zm18.4-31.2l-18.2 10.5c-.1.1-.1.2-.2.3v20.3l18.2-10.5c.1-.1.2-.2.2-.3v-20.3c0 .1.1 0 0 0 .1 0 .1 0 0 0zM110.2 336.7c-.1 0-.2-.1-.2-.2v-5.7c0-.1.1-.2.2-.2s.2.1.2.2v5.7c0 .1-.1.2-.2.2zM114.2 334.4c-.1 0-.2-.1-.2-.2v-5.7c0-.1.1-.2.2-.2s.2.1.2.2v5.7c0 .1-.1.2-.2.2zM118.1 332.1c-.1 0-.2-.1-.2-.2v-5.7c0-.1.2-.2.3-.2.1 0 .2.1.2.2v5.7c0 .1-.1.2-.3.2zM122.1 329.8c-.1 0-.2-.1-.2-.2v-5.7c0-.1.2-.2.3-.2.1 0 .2.1.2.2v5.7c0 .1-.1.2-.3.2zM126.1 327.6c-.1 0-.2-.1-.2-.2v-5.7c0-.1.1-.2.2-.2s.2.1.2.2v5.7c.1 0 0 .2-.2.2z"/><path class="prefix__st5" d="M130.7 304.9c-.2-.1-.4-.1-.6.1l-23.9 13.8c-.3.2-.5.4-.6.6l-1.6-.9c.1-.3.3-.5.6-.6l23.4-13.5c.5-.3 1.2-.3 1.7 0l1 .5z"/><path class="prefix__st2" d="M105.3 320.2v13.5c0 .5.4.8.9.5l23.9-13.8c.5-.3.8-.9.9-1.5v-13.5c0-.5-.4-.8-.9-.5l-23.9 13.8c-.5.4-.8.9-.9 1.5z"/><path class="prefix__st5" d="M105.6 334.3l-1-.6c-.5-.3-.8-.9-.9-1.5v-12.9c0-.3.1-.6.2-.8l1.6.9c-.2.3-.2.6-.2.9v13.5c0 .1.1.3.3.5z"/><path class="prefix__st0" d="M107.3 331.8h-.2c-.2-.1-.2-.3-.2-.5v-10.5c0-.4.3-.8.6-1l21.3-12.3c.2-.2.5-.1.6.1.1.1.1.2.1.3v10.5c0 .4-.2.8-.6 1l-21.3 12.2c-.1.2-.2.2-.3.2zm21.8-24.2c-.1 0-.1 0-.2.1l-21.3 12.2c-.3.2-.5.5-.5.8v10.5c0 .1 0 .2.1.2h.3l21.3-12.2c.3-.2.5-.5.5-.8v-10.6c-.1 0-.1-.1-.2-.2z"/><path class="prefix__st0" d="M108.9 328.7h-.1c-.1-.1-.1-.1-.1-.2v-6.9c0-.2.1-.4.3-.5l18.2-10.5h.3c.1.1.1.1.1.2v7c0 .2-.1.4-.3.5l-18.2 10.5c0-.1-.1-.1-.2-.1zm18.4-18l-18.2 10.5c-.1.1-.1.2-.2.3v7l18.2-10.5c.1-.1.2-.2.2-.3v-7zM135.5 302.2c-.8.5-1.4 1.5-1.4 2.5 0 .9.6 1.3 1.4.8.8-.5 1.4-1.4 1.4-2.4.1-1-.6-1.4-1.4-.9zM135.5 326.2c-.8.5-1.4 1.5-1.4 2.5 0 .9.6 1.3 1.4.8.8-.5 1.4-1.4 1.4-2.4.1-1-.6-1.4-1.4-.9zM135.5 332.6c-.8.5-1.4 1.4-1.4 2.4 0 .9.6 1.3 1.4.8.8-.5 1.4-1.4 1.4-2.4.1-.9-.6-1.2-1.4-.8zM135.5 339.1c-.8.5-1.4 1.5-1.4 2.5 0 .9.6 1.3 1.4.8.8-.5 1.4-1.4 1.4-2.4.1-1-.6-1.4-1.4-.9zM135.5 345.5c-.8.5-1.4 1.4-1.4 2.4 0 .9.6 1.3 1.4.8.8-.5 1.4-1.4 1.4-2.4.1-.9-.6-1.2-1.4-.8zM135.5 308c-.8.5-1.4 1.5-1.4 2.5 0 .9.6 1.3 1.4.8.8-.5 1.4-1.4 1.4-2.4.1-1-.6-1.4-1.4-.9zM135.5 313.8c-.8.5-1.4 1.5-1.4 2.5 0 .9.6 1.3 1.4.8.8-.5 1.4-1.4 1.4-2.4.1-1-.6-1.3-1.4-.9z"/><path class="prefix__st5" d="M151 305.2l-.1-1.3c0-.1-.1-.1-.1-.1-.2 0-.4.1-.6.1-.1 0-.2 0-.3.1l-.3.4 1.4.8c0 .1 0 0 0 0zm1.1-9.2v.3c-.1 1.6-.9 3.1-2.3 4l-.3.1c.1 1.2 1.1 1.7 2.3 1 1.4-.9 2.2-2.3 2.3-4 0-1.3-.9-1.9-2-1.4zm4.9-1.1l-1.6-.9-.2.5v.3l.3.6c0 .1.1.1.2.1l1.2-.5c0-.1.1-.1.1-.1zm-3-3.4l-.9-.5h-.1l-.7 1.1-.9-.5-.6-.4h-.1l-.9.5-.4.2h-.1v.2l-.1 1.5c0 .1-.1.1-.1.2-.3.2-.5.5-.8.8l-.1.1h-.1l-.9-.3h-.2l-.4.7-.4.8-.1.3v.1s0 .1.1.1l.7.6.1.1v.2c-.1.3-.2.7-.3 1 0 .1 0 .1-.1.2l-.1.1-1.2.9-.1.1V301.5l1.6.9-.6 1.1c0 .1 0 .2.1.2l1.9 1.1h.1l-.1-.1v-.2l.8-1.6v-.1-.2l-.3-.6c0-.1-.1-.1-.2-.1l-.6.3-.6.3h-.1l-.1-.1v-1.6c0-.1 0-.1.1-.2 0 0 0-.1.1-.1l1.2-.9.1-.1s.1-.1.1-.2c.1-.4.2-.7.3-1v-.1c0-.1 0-.1-.1-.2l-.7-.6-.1-.1v-.1l.3-.5.3-.6.4-.6c0-.1.1-.1.2-.1h.1l.9.3h.2s.1 0 .1-.1c.2-.3.5-.6.8-.8 0 0 .1-.1.1-.2v-.1l.1-1.5v-.1c0-.1.1-.1.1-.2l.2-.1.5-.3.6-.3h.1s.1 0 .1.1l.1.7.1.6c0 .1.1.1.1.1.2 0 .4-.1.6-.1.1 0 .1 0 .2-.1 0 0 .1 0 .1-.1l1-1.5c.1-.1.2-.1.2 0l-1.6-.2z"/><path class="prefix__st6" d="M151 293.3l-.1 1.6v.1l-2-1.1.1-1.5v-.1l2 1z"/><path class="prefix__st1" d="M149.8 296h-.2l-.9-.3h-.1l-2-1.1h.1l.9.3h.1l2.1 1.1zM148.4 298.5l-2-1.1v-.1l-.1-.1-.7-.6-.1-.1 2 1.1s0 .1.1.1l.7.6c.1.1.1.2.1.2zM148.4 303.1s0 .1 0 0l-.8 1.7v.2l-1.9-1.1c-.1 0-.1-.1-.1-.2l.6-1.1.4.2h.1l.6-.3 1.1.6zM151 305.2s0 .1 0 0l-1.5-.8.3-.4c.1-.1.2-.1.3-.1.2 0 .4 0 .6-.1.1 0 .2 0 .2.1l.1 1.3z"/><path class="prefix__st6" d="M155.1 292.1h-.2l-1 1.5s0 .1-.1.1l-.6-.3-.5-.3-.1-.7s0-.1-.1-.1l-.4-.2.7-1.1h.1l.9.5 1.3.6z"/><path class="prefix__st1" d="M148 299.8l-.1.1-1.2.9-.1.1-2-1.1.1-.1 1.2-.9.1-.1 2 1.1z"/><path class="prefix__st2" d="M156.9 294.9l-1.2.5c-.1 0-.2 0-.2-.1l-.3-.6v-.3l.8-1.6c0-.1 0-.2-.1-.2l-.9-.5h-.2l-1 1.5c-.1.1-.2.1-.3.1-.2 0-.4 0-.6.1-.1 0-.2 0-.2-.1l-.1-1.3c0-.1 0-.1-.1-.1h-.1l-1.4.8-.2.2-.1 1.5c0 .1-.1.2-.1.3-.3.2-.5.5-.8.8-.1.1-.2.1-.3.1l-.9-.3c-.1 0-.2 0-.2.1l-1 1.7c-.1.1-.1.2 0 .2l.7.6c.1.1.1.2.1.3-.1.3-.2.7-.3 1 0 .1-.1.2-.2.3l-1.2.9c-.1.1-.1.2-.1.3v1.6c0 .1 0 .1.1.1h.1l1.2-.5c.1 0 .2 0 .2.1l.3.6v.3l-.8 1.6c0 .1 0 .2.1.2l.9.5c.1.1.2.1.2 0l1-1.5c.1-.1.2-.1.3-.1.2 0 .4 0 .6-.1.1 0 .2 0 .2.1l.1 1.3c0 .1.1.1.2.1l1.4-.8.2-.2.1-1.5c0-.1.1-.2.1-.3.3-.2.5-.5.8-.8.1-.1.2-.1.3-.1l.9.3c.1 0 .2 0 .2-.1l1-1.7c.1-.1.1-.2 0-.2l-.7-.6c-.1-.1-.1-.2-.1-.3.1-.3.2-.7.3-1 0-.1.1-.2.2-.3l1.2-.9c.1-.1.1-.2.1-.3V295v-.1s-.1-.1-.2 0zm-5.1 6.5c-1.3.7-2.3.1-2.3-1.3.1-1.6.9-3.1 2.3-4 1.3-.7 2.3-.1 2.3 1.3-.1 1.7-.9 3.2-2.3 4z"/><path class="prefix__st5" d="M147.6 308.4l-.4-.2-.9-.5h-.2l-.9.1h-.1l-.5 1.2s0 .1-.1.1l-.1.1-.3.1-.9-.5h-.1l-.7.7-.3.3v.2l.3.9v.2c-.2.2-.3.5-.4.7l-.1.1h-.1l-.8.2h-.1-.1v.1l-.3 1-.1.4v.1l.5.3h.1l.3.2v.4c0 .1 0 .2-.1.2l-.8 1v.2l.4.8 1.6.9h.1v-.1l-.2-.4-.2-.4v-.1s0-.1.1-.1l.8-1v-.1-.1-.7c0-.1-.1-.1-.1-.1H142.1v-.1l.2-.6.2-.7v-.1l.1-.1.8-.2h.1l.1-.1c.1-.3.3-.5.4-.7v-.1-.1l-.3-.9v-.1s0-.1.1-.1l.6-.7.3-.3s.1-.1.1 0l.4.7h.2c.2-.1.3-.2.5-.3 0 0 .1 0 .1-.1l.1-.1.5-1.2v-.1l.3-.1.7-.1h.1-.1zm-3.6 9c0-.1 0-.1-.1-.1-.1-.1-.3-.1-.4-.2h-.2l-.9.8h-.1l.9.5.5.3v-.1l.3-1.2zm3.8-8.9c.1 0 .1.1 0 0l-.3 1.3c0 .1 0 .1.1.1.1.1.3.1.4.2h.2l.9-.8h.1l-1.4-.8zm-1.1 9l-.4-.7h-.2l-.3.2.9.5zm.7-5.5c-.1-.3-.4-.5-.7-.5h-.1c-.2 0-.4 0-.6.1v.2c-.1 1.2-.7 2.3-1.7 3l-.2.1c0 .2 0 .3.1.4.1.3.4.5.8.5h.3c.4-.1.8-.4 1.1-.7.9-.7 1.3-1.9 1-3.1zm1.3 0v.3c0 .1.1.1.1.1H149.6l-.9-.4z"/><path class="prefix__st1" d="M146.7 317.5l-.9-.5.3-.2h.2l.4.7z"/><path class="prefix__st6" d="M143.8 318.7s0 .1 0 0l-.5-.2-.9-.5h.1l.9-.8h.2c.1.1.2.2.4.2.1 0 .1.1.1.1l-.3 1.2zM142.9 315.8c0 .1 0 .1 0 0l-.9 1.1v.1l-1.7-1v-.1l.8-1s0-.1.1-.1l1.7 1z"/><path class="prefix__st7" d="M142.9 315V315.8l-1.7-1v-.1-.4l.8.5H142.8c.1 0 .1 0 .2.1 0 0 0 .1-.1.1z"/><path class="prefix__st6" d="M143.5 313h-.1l-.8.2c-.1 0-.1 0-.1.1l-1.7-1h.2l.8-.2s.1 0 .1-.1l1.6 1zM144 311.9v.1l-1.7-1v-.1l-.3-.9 1.7 1v.1l.3.8zM146.8 308.7l-.4 1.3-.1.1-1.7-1 .1-.1.5-1.2 1.6.9z"/><path d="M146.8 308.7l.1-.1h.2" fill="none"/><path class="prefix__st2" d="M149.6 312.5h-.8c-.1 0-.1 0-.1-.1v-.3-.4c0-.1 0-.2.1-.2l.8-1v-.2l-.4-.9h-.1l-.9.8c-.1 0-.1.1-.2 0s-.2-.2-.4-.2c-.1 0-.1-.1-.1-.1l.3-1.2v-.1h-.1l-.7.1h-.2c-.1 0-.1 0-.1.1v.1l-.5 1.2s0 .1-.1.1c0 0-.1 0-.1.1-.2.1-.4.2-.5.3h-.2l-.4-.7h-.1l-.3.3-.6.7-.1.1v.1l.3.9v.2c-.2.2-.3.5-.4.7l-.1.1h-.1l-.8.2c-.1 0-.1 0-.1.1v.1l-.2.7-.2.6v.1H143c.1 0 .1.1.1.1V315.8l-.8 1c0 .1-.1.1-.1.2l.2.4.1.1.1.1v.2h.1l.9-.8h.2c.1.1.2.2.4.2.1 0 .1.1.1.1l-.3 1.2v.1h.1l.9-.1c.1 0 .1-.1.2-.1l.5-1.2c0-.1.1-.1.2-.2l.3-.1.3-.2h.2l.4.7h.1l.9-1c.1 0 .1-.1.1-.2l-.3-.9c0-.1 0-.1.1-.2.2-.2.3-.5.4-.7 0-.1.1-.1.2-.1l.8-.2c.1 0 .1-.1.2-.1v-1.5c.1.1.1 0 0 0zm-4.2 3.3h-.3c-.4 0-.7-.2-.8-.5-.1-.1-.1-.3-.1-.4v-.2c.1-.9.4-1.8 1.1-2.4.2-.2.4-.4.6-.5l.2-.1c.2-.1.4-.1.6-.1h.1c.3 0 .6.2.7.5.3 1.1-.1 2.3-.9 3.1-.4.2-.8.5-1.2.6z"/><path class="prefix__st0" d="M146.8 331.5c-1.5.5-2.8 1.6-3.6 3-.9 1.8-.8 3.9.2 5.6-.7 1-1 2.3-1 3.5.2 3.1 2.2 5.8 5.1 6.9l.3.1.9-.5c-2.1-.8-3.8-2.3-4.7-4.3-.6-1.5-.5-3.1.1-4.6.5.6 1 1.1 1.7 1.6 1.7 1.1 5.1 2 6.7.2.9-1.1.8-2.7-.1-3.7-1-1.1-2.5-1.8-4-1.9-1.6 0-3.1.6-4.2 1.8-.3-.8-.5-1.7-.4-2.6.2-2 1.6-3.6 3.5-4.1 1.4 2.2 4.6 4.3 7.1 2.4s-1.5-3.6-3.1-3.8c-1.1-.1-2.3-.1-3.4.2-.3-.6-.3-1.3-.2-2 .2-1 .8-2 1.7-2.6 1.9-1.6 4.5-1.7 6.6-.4.2.1.4.1.5 0 .1-.2.1-.4-.1-.5-3.9-3.7-11.7.7-9.6 5.7zm-.6 7.4c1.1-.6 2.5-.7 3.7-.2 1 .5 2.2 1.4 2 2.7-.3 2.2-3.2 1.6-4.6 1-1.1-.5-2-1.2-2.6-2.2.4-.5.9-1 1.5-1.3zm3-6.9c1-.1 2.1-.1 3.1.2.5.1 1.8.6 1.7 1.3 0 .4-.6.7-1 .9-.5.2-1.1.2-1.6.1-1.1-.4-2.1-1.1-2.8-2l-.2-.3c.2-.1.5-.1.8-.2z"/><path class="prefix__st9" d="M146.8 331.5c-1.5.5-2.8 1.6-3.6 3-.9 1.8-.8 3.9.2 5.6-.7 1-1 2.3-1 3.5.2 3.1 2.2 5.8 5.1 6.9l.3.1.9-.5c-2.1-.8-3.8-2.3-4.7-4.3-.6-1.5-.5-3.1.1-4.6.5.6 1 1.1 1.7 1.6 1.7 1.1 5.1 2 6.7.2.9-1.1.8-2.7-.1-3.7-1-1.1-2.5-1.8-4-1.9-1.6 0-3.1.6-4.2 1.8-.3-.8-.5-1.7-.4-2.6.2-2 1.6-3.6 3.5-4.1 1.4 2.2 4.6 4.3 7.1 2.4s-1.5-3.6-3.1-3.8c-1.1-.1-2.3-.1-3.4.2-.3-.6-.3-1.3-.2-2 .2-1 .8-2 1.7-2.6 1.9-1.6 4.5-1.7 6.6-.4.2.1.4.1.5 0 .1-.2.1-.4-.1-.5-3.9-3.7-11.7.7-9.6 5.7zm-.6 7.4c1.1-.6 2.5-.7 3.7-.2 1 .5 2.2 1.4 2 2.7-.3 2.2-3.2 1.6-4.6 1-1.1-.5-2-1.2-2.6-2.2.4-.5.9-1 1.5-1.3zm3-6.9c1-.1 2.1-.1 3.1.2.5.1 1.8.6 1.7 1.3 0 .4-.6.7-1 .9-.5.2-1.1.2-1.6.1-1.1-.4-2.1-1.1-2.8-2l-.2-.3c.2-.1.5-.1.8-.2z"/><path class="prefix__st0" d="M143.7 342.2c.1-.3.2-.7.4-1-.3-.3-.5-.7-.7-1.1-.2.3-.4.7-.5 1.1.2.4.5.7.8 1zM146.1 333l1.2-.6c-.2-.3-.3-.6-.5-.9-.5.2-.9.4-1.4.6.2.4.4.7.7.9zM147.7 350.6l.9-.5c-.4-.2-.7-.3-1.1-.5l-.9.5c.3.1.6.3.9.4l.2.1zM170.9 334.5c-1.3-1-2.9-1.4-4.5-1.3-2 .3-3.7 1.6-4.5 3.4-.8 0-1.6.2-2.3.5l-1.2.6c-2.2 1.7-3.4 4.4-2.9 7.2 0 .3.1.6.1.9l.1.2.8-.4v-.2c-.2-1.8.1-3.6 1.1-5.1.5-.8 1.2-1.4 2.1-1.9.6-.3 1.2-.5 1.8-.6-.2.7-.3 1.5-.3 2.3 0 2.1 1.3 5.4 3.7 5.6 1.4.1 2.7-.8 3-2.2.4-1.5.1-3.1-.7-4.4-.9-1.3-2.2-2.2-3.8-2.4.5-.7 1.1-1.4 1.9-1.8 1.7-.9 3.9-.7 5.4.6-1 2.5-.9 6.2 2.1 7.1s2.2-3.3 1.4-4.7c-.6-1-1.3-1.9-2.1-2.7.4-.6.9-1 1.5-1.3 1-.4 2.1-.4 3.1-.1 2.3.7 4 2.8 4.1 5.2 0 .2.1.4.3.4.2 0 .4-.1.4-.3.4-5.3-7.6-9.2-10.6-4.6zm-6.4 3.7c1.2.6 2 1.7 2.2 2.9.2 1.1.1 2.6-1 3.2-2 1-3.1-1.8-3.4-3.2-.2-1.1-.1-2.3.4-3.4.6 0 1.2.2 1.8.5zm7.3-1.5c.7.8 1.2 1.7 1.6 2.7.1.5.5 1.8-.1 2.2-.4.2-1-.1-1.3-.3-.5-.3-.8-.8-1-1.3-.3-1.1-.3-2.3.1-3.4 0-.1.1-.3.1-.4.3.1.5.3.6.5z"/><path class="prefix__st9" d="M170.9 334.5c-1.3-1-2.9-1.4-4.5-1.3-2 .3-3.7 1.6-4.5 3.4-.8 0-1.6.2-2.3.5l-1.2.6c-2.2 1.7-3.4 4.4-2.9 7.2 0 .3.1.6.1.9l.1.2.8-.4v-.2c-.2-1.8.1-3.6 1.1-5.1.5-.8 1.2-1.4 2.1-1.9.6-.3 1.2-.5 1.8-.6-.2.7-.3 1.5-.3 2.3 0 2.1 1.3 5.4 3.7 5.6 1.4.1 2.7-.8 3-2.2.4-1.5.1-3.1-.7-4.4-.9-1.3-2.2-2.2-3.8-2.4.5-.7 1.1-1.4 1.9-1.8 1.7-.9 3.9-.7 5.4.6-1 2.5-.9 6.2 2.1 7.1s2.2-3.3 1.4-4.7c-.6-1-1.3-1.9-2.1-2.7.4-.6.9-1 1.5-1.3 1-.4 2.1-.4 3.1-.1 2.3.7 4 2.8 4.1 5.2 0 .2.1.4.3.4.2 0 .4-.1.4-.3.4-5.3-7.6-9.2-10.6-4.6zm-6.4 3.7c1.2.6 2 1.7 2.2 2.9.2 1.1.1 2.6-1 3.2-2 1-3.1-1.8-3.4-3.2-.2-1.1-.1-2.3.4-3.4.6 0 1.2.2 1.8.5zm7.3-1.5c.7.8 1.2 1.7 1.6 2.7.1.5.5 1.8-.1 2.2-.4.2-1-.1-1.3-.3-.5-.3-.8-.8-1-1.3-.3-1.1-.3-2.3.1-3.4 0-.1.1-.3.1-.4.3.1.5.3.6.5z"/><path class="prefix__st0" d="M160.4 338c.3-.1.7-.2 1-.3.1-.4.3-.8.5-1.2-.4 0-.8.1-1.2.2-.2.5-.3.9-.3 1.3zM169.2 334.7c.4.2.8.4 1.2.7.1-.3.3-.6.5-.9-.4-.3-.9-.5-1.3-.7-.1.3-.3.6-.4.9zM155.7 346l-.1-.2c-.1-.3-.1-.6-.1-.9l.9.5v.2l-.7.4z"/><path class="prefix__st4" d="M157.4 234.8L103 266.2c-1.3.8-2.1 2.3-2.2 3.8v18.7c0 1.4 1 2 2.2 1.3l54.4-31.4c1.3-.8 2.1-2.3 2.2-3.8v-18.7c0-1.4-1-2-2.2-1.3z"/><path class="prefix__st0" d="M155.5 243c-.1 1.5-.9 2.8-2.2 3.6l-46.2 26.6c-1.2.7-2.2.2-2.2-1.1.1-1.5.9-2.8 2.2-3.6l46.2-26.6c1.2-.7 2.2-.2 2.2 1.1z"/><path class="prefix__st5" d="M155.5 252.5c-.1 1.5-.9 2.8-2.2 3.6l-46.1 26.6c-1.2.7-2.2.2-2.2-1.1.1-1.5.9-2.8 2.2-3.6l46.2-26.6c1.1-.7 2.1-.2 2.1 1.1z"/><path class="prefix__st0" d="M153.3 251.4l-19.6 11.3v4.7l19.6-11.3c1.3-.8 2.1-2.1 2.2-3.6 0-1.3-1-1.8-2.2-1.1zM82 190.9c-2.3-1.3-4.1-.1-4.1 2.7V294c.1 3 1.6 5.8 4.1 7.4 2.3 1.3 4.1.1 4.1-2.7V198.3c-.1-3-1.6-5.7-4.1-7.4z"/><path class="prefix__st10" d="M82 190.9c-2.3-1.3-4.1-.1-4.1 2.7V294c.1 3 1.6 5.8 4.1 7.4 2.3 1.3 4.1.1 4.1-2.7V198.3c-.1-3-1.6-5.7-4.1-7.4z"/><path class="prefix__st2" d="M82 299c-1.2-.8-2-2.2-2.1-3.7V194.6c0-1.4.9-2 2.1-1.4 1.2.9 2 2.2 2 3.7v100.7c0 1.4-.9 2-2 1.4z"/><path class="prefix__st0" d="M82 299c-1.2-.8-2-2.2-2.1-3.7v-49.2l4.1 2.4v49.2c0 1.3-.9 1.9-2 1.3zM69.7 183.8c-2.3-1.3-4.1-.1-4.1 2.7v100.3c.1 3 1.6 5.8 4.1 7.4 2.3 1.3 4.1.1 4.1-2.7V191.2c-.2-3-1.7-5.7-4.1-7.4z"/><path class="prefix__st10" d="M69.7 183.8c-2.3-1.3-4.1-.1-4.1 2.7v100.3c.1 3 1.6 5.8 4.1 7.4 2.3 1.3 4.1.1 4.1-2.7V191.2c-.2-3-1.7-5.7-4.1-7.4z"/><path class="prefix__st0" d="M69.7 291.9c-1.2-.8-2-2.2-2.1-3.7V187.5c0-1.4.9-2 2.1-1.3 1.2.9 2 2.2 2 3.7v100.7c0 1.3-.9 1.9-2 1.3zM57.3 176.7c-2.3-1.3-4.1-.1-4.1 2.7v100.4c.1 3 1.6 5.8 4.1 7.4 2.3 1.3 4.1.1 4.1-2.7V184.1c-.1-3-1.6-5.8-4.1-7.4z"/><path class="prefix__st10" d="M57.3 176.7c-2.3-1.3-4.1-.1-4.1 2.7v100.4c.1 3 1.6 5.8 4.1 7.4 2.3 1.3 4.1.1 4.1-2.7V184.1c-.1-3-1.6-5.8-4.1-7.4z"/><path class="prefix__st2" d="M57.3 284.8c-1.2-.9-2-2.2-2-3.7V180.4c0-1.4.9-2 2-1.4 1.3.8 2 2.2 2.1 3.7v100.7c0 1.4-.9 2-2.1 1.4z"/><path class="prefix__st0" d="M57.3 284.8c-1.2-.9-2-2.2-2-3.7V208l4.1 2.4v73.1c0 1.3-.9 1.9-2.1 1.3zM45 169.5c-2.3-1.3-4.1-.1-4.1 2.7v100.4c.1 3 1.6 5.8 4.1 7.4 2.3 1.3 4.1.1 4.1-2.7V177c-.1-3-1.6-5.8-4.1-7.5z"/><path class="prefix__st10" d="M45 169.5c-2.3-1.3-4.1-.1-4.1 2.7v100.4c.1 3 1.6 5.8 4.1 7.4 2.3 1.3 4.1.1 4.1-2.7V177c-.1-3-1.6-5.8-4.1-7.5z"/><path class="prefix__st2" d="M45 277.6c-1.2-.8-2-2.2-2.1-3.7V173.2c0-1.4.9-2 2.1-1.3 1.2.8 2 2.2 2.1 3.7v100.7c0 1.4-.9 2-2.1 1.3z"/><path class="prefix__st0" d="M45 277.6c-1.2-.8-2-2.2-2.1-3.7v-18.4l4.1 2.4v18.4c.1 1.4-.8 2-2 1.3zM32.7 162.4c-2.3-1.3-4.1-.1-4.1 2.7v100.4c.1 3 1.6 5.8 4.1 7.4 2.3 1.3 4.1.1 4.1-2.7V169.9c-.1-3-1.6-5.8-4.1-7.5z"/><path class="prefix__st10" d="M32.7 162.4c-2.3-1.3-4.1-.1-4.1 2.7v100.4c.1 3 1.6 5.8 4.1 7.4 2.3 1.3 4.1.1 4.1-2.7V169.9c-.1-3-1.6-5.8-4.1-7.5z"/><path class="prefix__st2" d="M32.7 270.5c-1.2-.8-2-2.2-2.1-3.7V166.1c0-1.4.9-2 2.1-1.3 1.2.8 2 2.2 2.1 3.7v100.7c0 1.4-1 2-2.1 1.3z"/><path class="prefix__st0" d="M32.7 270.5c-1.2-.8-2-2.2-2.1-3.7v-53.9l4.1 2.4v53.9c.1 1.4-.9 2-2 1.3z"/><path class="prefix__st2" d="M157.4 159.1L103 190.5c-1.3.8-2.1 2.3-2.2 3.8v62.5c0 1.4 1 2 2.2 1.3l54.4-31.4c1.3-.8 2.1-2.3 2.2-3.8v-62.5c0-1.4-1-2-2.2-1.3z"/><path class="prefix__st5" d="M101.5 192.2c-.4.6-.6 1.3-.6 2.1v62.5c0 1.4 1 2 2.2 1.3l54.4-31.4c.7-.4 1.2-1 1.6-1.7l-57.6-32.8z"/><path class="prefix__st4" d="M103 190.5c-1.3.8-2.1 2.3-2.2 3.8v62.5l54.4-31.4c1.3-.8 2.1-2.3 2.2-3.8v-62.5L103 190.5z"/><g id="prefix__freepik--dead-emoji--inject-70"><path class="prefix__st0" d="M120.9 207c-.3 0-.6-.1-.8-.3l-7.2-7c-.4-.4-.5-1.1 0-1.6s1.1-.5 1.6 0l7.2 6.9c.4.4.5 1.2 0 1.6-.2.2-.5.3-.8.4z"/><path class="prefix__st0" d="M113.7 211.1c-.2 0-.3 0-.5-.1-.6-.3-.8-.9-.5-1.5l7.2-15.3c.3-.6.9-.8 1.5-.5.6.3.8.9.5 1.5l-7.2 15.3c-.2.4-.6.6-1 .6zM144.5 193.3c-.3 0-.6-.1-.8-.3l-7.2-6.9c-.5-.4-.5-1.1 0-1.6s1.1-.5 1.6 0l7.2 6.9c.4.4.4 1.2 0 1.6-.2.2-.5.3-.8.3z"/><path class="prefix__st0" d="M137.3 197.5c-.2 0-.3 0-.5-.1-.6-.3-.8-.9-.5-1.5l7.2-15.3c.4-.5 1.1-.6 1.6-.3.4.3.6.8.4 1.3l-7.2 15.2c-.2.4-.6.7-1 .7zM113.4 228.5c-.4 0-.8-.2-1-.6-.3-.5-.1-1.2.4-1.5l31.5-18.2c.5-.3 1.2-.1 1.5.4.3.5.1 1.2-.4 1.6l-31.5 18.2c-.2 0-.3.1-.5.1z"/><path class="prefix__st0" d="M135.3 229c-.6 0-1.1-.1-1.6-.4-1.2-.8-1.9-2.3-1.8-3.8V216c0-.6.5-1.1 1.1-1.1.6 0 1.1.5 1.1 1.1v8.8c-.1.7.2 1.4.7 1.8.5.2 1.1.1 1.6-.2 2-1.4 3.3-3.7 3.4-6.1v-8.8c-.1-.6.4-1.2 1-1.2s1.2.4 1.2 1v9c-.1 3.3-1.8 6.3-4.5 8.1-.6.4-1.4.6-2.2.6z"/><path class="prefix__st0" d="M137 223.3c-.6 0-1.1-.5-1.1-1.1v-8.5c0-.6.5-1.1 1.1-1.1.6 0 1.1.5 1.1 1.1v8.5c0 .6-.5 1.1-1.1 1.1z"/></g><g id="prefix__freepik--server--inject-70"><path class="prefix__st2" d="M37.6 353.2c.6.4 1 1 1 1.7 0 .6-.4.9-1 .6-.6-.4-1-1-1-1.7 0-.6.5-.9 1-.6zM45.7 357.9c.6.4 1 1 1 1.7 0 .6-.4.9-1 .6-.6-.4-1-1-1-1.7s.5-.9 1-.6zM53.6 362.5c.6.4 1 1 1 1.7 0 .6-.4.9-1 .6-.6-.4-1-1-1-1.7.1-.7.5-.9 1-.6zM61.6 367.1c.6.4 1 1 1 1.7 0 .6-.4.9-1 .6-.6-.4-1-1-1-1.7.1-.7.5-.9 1-.6zM28.2 305.7l8.3 4.7c1.4.9 2.2 2.4 2.3 4v4.7c0 1.5-1 2.1-2.3 1.3l-8.3-4.7c-1.4-.9-2.2-2.4-2.3-4V307c0-1.4 1-2 2.3-1.3z"/><path class="prefix__st0" d="M30.5 311l1.1-.6c.5-.2 1-.2 1.4.1 1.2.8 1.9 2.1 2 3.5.1.5-.2 1-.6 1.3l-1 .6-.2-.3c-.2 0-.4-.1-.6-.2-1.2-.8-1.9-2.1-2-3.5 0-.2 0-.3.1-.5l-.2-.4z"/><path class="prefix__st11" d="M30.5 311l1.1-.6c.5-.2 1-.2 1.4.1 1.2.8 1.9 2.1 2 3.5.1.5-.2 1-.6 1.3l-1 .6-.2-.3c-.2 0-.4-.1-.6-.2-1.2-.8-1.9-2.1-2-3.5 0-.2 0-.3.1-.5l-.2-.4z"/><path class="prefix__st0" d="M31.9 311.2c1.2.8 1.9 2.1 2 3.5 0 1.3-.9 1.8-2 1.2-1.2-.8-1.9-2.1-2-3.5 0-1.4.9-1.9 2-1.2z"/><path class="prefix__st4" d="M28.2 283.1l8.3 4.8c1.4.9 2.2 2.4 2.3 4v4.7c0 1.5-1 2.1-2.3 1.4l-8.2-4.7c-1.4-.9-2.2-2.4-2.3-4v-4.7c-.1-1.7.9-2.3 2.2-1.5z"/><path class="prefix__st0" d="M30.5 288.4l1.1-.6c.5-.2 1-.2 1.4.1 1.2.8 1.9 2.1 2 3.5.1.5-.2 1-.6 1.3l-1 .6-.2-.3c-.2 0-.4-.1-.6-.2-1.2-.8-1.9-2.1-2-3.5 0-.2 0-.3.1-.5l-.2-.4z"/><path class="prefix__st11" d="M30.5 288.4l1.1-.6c.5-.2 1-.2 1.4.1 1.2.8 1.9 2.1 2 3.5.1.5-.2 1-.6 1.3l-1 .6-.2-.3c-.2 0-.4-.1-.6-.2-1.2-.8-1.9-2.1-2-3.5 0-.2 0-.3.1-.5l-.2-.4z"/><path class="prefix__st0" d="M31.9 288.5c1.2.8 1.9 2.1 2 3.5 0 1.3-.9 1.8-2 1.2-1.2-.8-1.9-2.1-2-3.5 0-1.3.9-1.9 2-1.2z"/><path class="prefix__st4" d="M157 265.9l-38 22c-1.5 1-2.5 2.6-2.6 4.4v5.2c0 1.6 1.1 2.3 2.6 1.5l38-22c1.5-1 2.5-2.6 2.6-4.4v-5.2c0-1.7-1.1-2.3-2.6-1.5z"/><path class="prefix__st0" d="M156.9 270.3v2.5c0 .4-.2.7-.5.9l-.6.3c-.3.2-.5 0-.5-.3v-2.5c0-.4.2-.7.5-.9l.6-.3c.3-.2.5-.1.5.3zM154.3 271.8v2.5c0 .4-.2.7-.5.9l-.6.3c-.3.2-.5 0-.5-.3v-2.5c0-.4.2-.7.5-.9l.6-.3c.3-.2.5-.1.5.3zM151.7 273.2v2.5c0 .4-.2.7-.5.9l-.6.3c-.3.2-.5 0-.5-.3v-2.5c0-.4.2-.7.5-.9l.6-.3c.3-.1.5 0 .5.3zM149.1 274.7v2.5c0 .4-.2.7-.5.9l-.6.3c-.3.2-.5 0-.5-.3v-2.5c0-.4.2-.7.5-.9l.6-.3c.3-.1.5 0 .5.3z"/><path class="prefix__st2" d="M146.6 276.2v2.5c0 .4-.2.7-.5.9l-.6.3c-.3.2-.5 0-.5-.3v-2.5c0-.4.2-.7.5-.9l.6-.3c.2-.1.5 0 .5.3zM144 277.7v2.5c0 .4-.2.7-.5.9l-.6.3c-.3.2-.5 0-.5-.3v-2.5c0-.4.2-.7.5-.9l.6-.3c.2-.2.5 0 .5.3z"/><path class="prefix__st0" d="M141.4 279.2v2.5c0 .4-.2.7-.5.9l-.6.3c-.3.2-.5 0-.5-.3v-2.5c0-.4.2-.7.5-.9l.6-.3c.3-.2.5 0 .5.3zM138.8 280.7v2.5c0 .4-.2.7-.5.9l-.6.3c-.3.2-.5 0-.5-.3v-2.5c0-.4.2-.7.5-.9l.6-.3c.3-.2.5 0 .5.3zM136.2 282.2v2.5c0 .4-.2.7-.5.9l-.6.3c-.3.2-.5 0-.5-.3v-2.5c0-.4.2-.7.5-.9l.6-.3c.3-.2.5-.1.5.3z"/><path class="prefix__st2" d="M133.7 283.7v2.5c0 .4-.2.7-.5.9l-.6.3c-.3.2-.5 0-.5-.3v-2.5c0-.4.2-.7.5-.9l.6-.3c.3-.2.5-.1.5.3z"/><path class="prefix__st0" d="M131.1 285.1v2.5c0 .4-.2.7-.5.9l-.6.3c-.3.2-.5 0-.5-.3V286c0-.4.2-.7.5-.9l.6-.3c.2-.1.5 0 .5.3zM128.5 286.6v2.5c0 .4-.2.7-.5.9l-.6.3c-.3.2-.5 0-.5-.3v-2.5c0-.4.2-.7.5-.9l.6-.3c.3-.1.5 0 .5.3z"/><path class="prefix__st2" d="M125.9 288.1v2.5c0 .4-.2.7-.5.9l-.6.3c-.3.2-.5 0-.5-.3V289c0-.4.2-.7.5-.9l.6-.3c.3-.1.5 0 .5.3z"/><path class="prefix__st0" d="M123.3 289.6v2.5c0 .4-.2.7-.5.9l-.6.3c-.3.2-.5 0-.5-.3v-2.5c0-.4.2-.7.5-.9l.6-.3c.3-.1.5 0 .5.3z"/><path class="prefix__st2" d="M120.7 291.1v2.5c0 .4-.2.7-.5.9l-.6.3c-.3.2-.5 0-.5-.3V292c0-.4.2-.7.5-.9l.6-.3c.3-.2.5 0 .5.3z"/><path class="prefix__st4" d="M112.6 296.1l-1.1-.6c-.5-.2-1-.2-1.4.1-1.2.8-1.9 2.1-2 3.5-.1.5.2 1 .6 1.3l1 .6.2-.3c.2 0 .4-.1.6-.2 1.2-.8 1.9-2.1 2-3.5 0-.2 0-.3-.1-.5l.2-.4z"/><path class="prefix__st0" d="M111.1 296.2c-1.2.8-1.9 2.1-2 3.5 0 1.3.9 1.8 2 1.2 1.2-.8 1.9-2.1 2-3.5.1-1.3-.8-1.8-2-1.2z"/><path class="prefix__st12" d="M111.1 296.2c-1.2.8-1.9 2.1-2 3.5 0 1.3.9 1.8 2 1.2 1.2-.8 1.9-2.1 2-3.5.1-1.3-.8-1.8-2-1.2z"/><path class="prefix__st4" d="M103.8 301.2l-1.1-.6c-.5-.2-1-.1-1.4.1-1.2.8-1.9 2.1-2 3.5-.1.5.2 1 .6 1.3l1 .6.2-.3c.2 0 .4-.1.6-.2 1.2-.8 1.9-2.1 2-3.5 0-.2 0-.3-.1-.5l.2-.4z"/><path class="prefix__st0" d="M102.4 301.3c-1.2.8-1.9 2.1-2 3.5 0 1.3.9 1.8 2 1.2 1.2-.8 1.9-2.1 2-3.5 0-1.3-.9-1.8-2-1.2z"/><path class="prefix__st12" d="M102.4 301.3c-1.2.8-1.9 2.1-2 3.5 0 1.3.9 1.8 2 1.2 1.2-.8 1.9-2.1 2-3.5 0-1.3-.9-1.8-2-1.2z"/><path class="prefix__st4" d="M45.3 291.1l39.8 23c.8.5 1.2 1.3 1.3 2.2v11c0 .8-.6 1.1-1.3.7l-39.8-23c-.8-.5-1.3-1.3-1.3-2.3v-11c0-.7.6-1 1.3-.6z"/><path class="prefix__st0" d="M46.5 296c.1.9.5 1.7 1.3 2.1l35 20.2c.7.4 1.3.1 1.3-.7-.1-.9-.5-1.7-1.3-2.1l-35-20.2c-.8-.4-1.3-.1-1.3.7z"/><path class="prefix__st5" d="M46.5 301.5c.1.9.5 1.7 1.3 2.1l34.9 20.1c.7.4 1.3.1 1.3-.6-.1-.9-.5-1.7-1.3-2.1l-34.9-20.1c-.8-.4-1.3-.1-1.3.6z"/><path class="prefix__st0" d="M47.7 300.9L67.1 312v2.8l-19.3-11.1c-.7-.5-1.2-1.3-1.3-2.1 0-.8.5-1.1 1.2-.7z"/><path class="prefix__st2" d="M28.2 283.1l8.3 4.8c1.4.9 2.2 2.4 2.3 4v4.7c0 1.5-1 2.1-2.3 1.4l-8.2-4.7c-1.4-.9-2.2-2.4-2.3-4v-4.7c-.1-1.7.9-2.3 2.2-1.5z"/><path class="prefix__st0" d="M30.5 288.4l1.1-.6c.5-.2 1-.2 1.4.1 1.2.8 1.9 2.1 2 3.5.1.5-.2 1-.6 1.3l-1 .6-.2-.3c-.2 0-.4-.1-.6-.2-1.2-.8-1.9-2.1-2-3.5 0-.2 0-.3.1-.5l-.2-.4z"/><path class="prefix__st11" d="M30.5 288.4l1.1-.6c.5-.2 1-.2 1.4.1 1.2.8 1.9 2.1 2 3.5.1.5-.2 1-.6 1.3l-1 .6-.2-.3c-.2 0-.4-.1-.6-.2-1.2-.8-1.9-2.1-2-3.5 0-.2 0-.3.1-.5l-.2-.4z"/><path class="prefix__st0" d="M31.9 288.5c1.2.8 1.9 2.1 2 3.5 0 1.3-.9 1.8-2 1.2-1.2-.8-1.9-2.1-2-3.5 0-1.3.9-1.9 2-1.2z"/><path class="prefix__st2" d="M45.3 291.1l39.8 23c.8.5 1.2 1.3 1.3 2.2v11c0 .8-.6 1.1-1.3.7l-39.8-23c-.8-.5-1.3-1.3-1.3-2.3v-11c0-.7.6-1 1.3-.6z"/><path class="prefix__st0" d="M46.5 296c.1.9.5 1.7 1.3 2.1l35 20.2c.7.4 1.3.1 1.3-.7-.1-.9-.5-1.7-1.3-2.1l-35-20.2c-.8-.4-1.3-.1-1.3.7z"/><path class="prefix__st5" d="M46.5 301.5c.1.9.5 1.7 1.3 2.1l34.9 20.1c.7.4 1.3.1 1.3-.6-.1-.9-.5-1.7-1.3-2.1l-34.9-20.1c-.8-.4-1.3-.1-1.3.6z"/><path class="prefix__st0" d="M47.7 300.9L67.1 312v2.8l-19.3-11.1c-.7-.5-1.2-1.3-1.3-2.1 0-.8.5-1.1 1.2-.7z"/><path class="prefix__st2" d="M45.3 313.8l39.8 23c.8.5 1.2 1.3 1.3 2.2v11c0 .8-.6 1.1-1.3.7l-39.8-23c-.8-.5-1.2-1.3-1.3-2.2v-11c0-.7.6-1.1 1.3-.7z"/><path class="prefix__st0" d="M46.5 318.7c.1.9.5 1.7 1.3 2.1l35 20.2c.7.4 1.3.1 1.3-.6-.1-.9-.5-1.7-1.3-2.1l-35-20.1c-.8-.6-1.3-.3-1.3.5z"/><path class="prefix__st5" d="M46.5 324.3c.1.9.5 1.7 1.3 2.1l35 20.2c.7.4 1.3.1 1.3-.6-.1-.9-.5-1.7-1.3-2.1l-35-20.2c-.8-.5-1.3-.2-1.3.6z"/><path class="prefix__st0" d="M47.7 323.6l24.1 13.9v2.8l-24.1-13.9c-.7-.5-1.2-1.3-1.3-2.1.1-.8.6-1.1 1.3-.7z"/></g><path class="prefix__st4" d="M28.2 328.5l8.3 4.7c1.4.9 2.2 2.4 2.3 4v4.7c0 1.5-1 2.1-2.3 1.3l-8.2-4.7c-1.4-.9-2.2-2.4-2.3-4v-4.7c-.1-1.4.9-2 2.2-1.3z"/><path class="prefix__st0" d="M30.5 333.8l1.1-.6c.5-.2 1-.2 1.4.1 1.2.8 1.9 2.1 2 3.5.1.5-.2 1-.6 1.3l-1 .6-.2-.3c-.2 0-.4-.1-.6-.2-1.2-.8-1.9-2.1-2-3.5 0-.2 0-.3.1-.5l-.2-.4z"/><path class="prefix__st11" d="M30.5 333.8l1.1-.6c.5-.2 1-.2 1.4.1 1.2.8 1.9 2.1 2 3.5.1.5-.2 1-.6 1.3l-1 .6-.2-.3c-.2 0-.4-.1-.6-.2-1.2-.8-1.9-2.1-2-3.5 0-.2 0-.3.1-.5l-.2-.4z"/><path class="prefix__st0" d="M31.9 334c1.2.8 1.9 2.1 2 3.5 0 1.3-.9 1.8-2 1.2-1.2-.8-1.9-2.1-2-3.5 0-1.4.9-1.9 2-1.2z"/><path class="prefix__st2" d="M28.2 328.5l8.3 4.7c1.4.9 2.2 2.4 2.3 4v4.7c0 1.5-1 2.1-2.3 1.3l-8.2-4.7c-1.4-.9-2.2-2.4-2.3-4v-4.7c-.1-1.4.9-2 2.2-1.3z"/><path class="prefix__st0" d="M30.5 333.8l1.1-.6c.5-.2 1-.2 1.4.1 1.2.8 1.9 2.1 2 3.5.1.5-.2 1-.6 1.3l-1 .6-.2-.3c-.2 0-.4-.1-.6-.2-1.2-.8-1.9-2.1-2-3.5 0-.2 0-.3.1-.5l-.2-.4z"/><path class="prefix__st11" d="M30.5 333.8l1.1-.6c.5-.2 1-.2 1.4.1 1.2.8 1.9 2.1 2 3.5.1.5-.2 1-.6 1.3l-1 .6-.2-.3c-.2 0-.4-.1-.6-.2-1.2-.8-1.9-2.1-2-3.5 0-.2 0-.3.1-.5l-.2-.4z"/><path class="prefix__st0" d="M31.9 334c1.2.8 1.9 2.1 2 3.5 0 1.3-.9 1.8-2 1.2-1.2-.8-1.9-2.1-2-3.5 0-1.4.9-1.9 2-1.2z"/><path class="prefix__st2" d="M45.3 336.6l39.8 23c.8.5 1.3 1.3 1.3 2.2v11c0 .8-.6 1.2-1.3.8l-39.8-23c-.8-.5-1.2-1.3-1.3-2.2v-11c0-.9.6-1.2 1.3-.8z"/><path class="prefix__st0" d="M46.5 341.4c.1.9.5 1.7 1.3 2.1l35 20.2c.7.4 1.3.1 1.3-.6-.1-.9-.5-1.7-1.3-2.1l-35-20.1c-.8-.5-1.3-.2-1.3.5z"/><path class="prefix__st5" d="M46.5 347c.1.9.5 1.7 1.3 2.1l35 20.2c.7.4 1.3.1 1.3-.6-.1-.9-.5-1.7-1.3-2.1l-35-20.2c-.8-.5-1.3-.2-1.3.6z"/><path class="prefix__st0" d="M47.7 346.4L67 357.5v2.8l-19.3-11.1c-.7-.5-1.2-1.3-1.3-2.1.1-.9.6-1.2 1.3-.7z"/><path class="prefix__st6" d="M148.7 148.2l-53.1 30.6c-.9.4-1.9.4-2.7 0l-53.1-30.6c-.4-.1-.7-.6-.5-1.1.1-.2.3-.4.5-.5L92.9 117c.9-.4 1.9-.4 2.7 0l53.1 29.6c.4.2.6.7.4 1.2-.1.2-.2.3-.4.4z"/><path class="prefix__st0" d="M95.6 177.2l50.8-29.3c.8-.5 1.3-1.3 1.3-2.3v-1.7c-.1-.9-.5-1.8-1.3-2.3l-50.8-29.3c-.8-.4-1.8-.4-2.6 0l-50.8 29.3c-.8.5-1.3 1.4-1.3 2.3v1.7c.1.9.5 1.8 1.3 2.3L93 177.2c.8.4 1.8.4 2.6 0z"/><path d="M95.6 177.2l50.8-29.3c.8-.5 1.3-1.3 1.3-2.3v-1.7c-.1-.9-.5-1.8-1.3-2.3l-50.8-29.3c-.8-.4-1.8-.4-2.6 0l-50.8 29.3c-.8.5-1.3 1.4-1.3 2.3v1.7c.1.9.5 1.8 1.3 2.3L93 177.2c.8.4 1.8.4 2.6 0z" opacity=".5" fill="#fff"/><path class="prefix__st7" d="M95.6 177.2l50.8-29.3c.8-.5 1.3-1.3 1.3-2.3v-1.7c-.1-.9-.5-1.8-1.3-2.3l-50.8-29.3c-.8-.4-1.8-.4-2.6 0l-50.8 29.3c-.8.5-1.3 1.4-1.3 2.3v1.7c.1.9.5 1.8 1.3 2.3L93 177.2c.8.4 1.8.4 2.6 0z"/><path class="prefix__st0" d="M146.4 143.1l-50.8 29.3c-.8.4-1.8.4-2.6 0l-50.8-29.3c-.4-.1-.6-.6-.5-1 .1-.2.3-.4.5-.5L93 113.3c.8-.4 1.8-.4 2.6 0l50.8 28.3c.4.1.6.6.5 1-.1.3-.3.4-.5.5z"/><path class="prefix__st9" d="M146.4 143.1l-50.8 29.3c-.8.4-1.8.4-2.6 0l-50.8-29.3c-.4-.1-.6-.6-.5-1 .1-.2.3-.4.5-.5L93 113.3c.8-.4 1.8-.4 2.6 0l50.8 28.3c.4.1.6.6.5 1-.1.3-.3.4-.5.5z"/><path class="prefix__st0" d="M94.3 172.8v4.7c.5 0 .9-.1 1.3-.3l50.8-29.3c.8-.5 1.3-1.4 1.3-2.3v-1.7c0-.8-.4-1.6-1.1-2.1.5.4.4 1-.2 1.3l-50.8 29.3c-.4.3-.8.4-1.3.4z"/><path d="M94.3 172.8v4.7c.5 0 .9-.1 1.3-.3l50.8-29.3c.8-.5 1.3-1.4 1.3-2.3v-1.7c0-.8-.4-1.6-1.1-2.1.5.4.4 1-.2 1.3l-50.8 29.3c-.4.3-.8.4-1.3.4z" opacity=".6" fill="#fff"/><path class="prefix__st5" d="M95.6 163l34.4-19.8c.8-.5 1.3-1.4 1.3-2.3v-1.7c0-.9-.5-1.8-1.3-2.3l-22-12.7c-.8-.5-1.6-1.2-2.2-2L95.2 108c-.5-.7-1.5-.9-2.2-.5l-34.4 19.9c-.8.5-1.3 1.3-1.3 2.3v11.2c.1.9.5 1.8 1.3 2.3L93 162.9c.8.5 1.8.5 2.6.1z"/><path class="prefix__st4" d="M93 158.2l-22-12.7c-.4-.2-.8-.5-1.2-.9-.4-.3-.8-.7-1.1-1.1l-10.5-14.2c-.5-.6-.4-1.4.2-1.8.1-.1.2-.1.2-.2L93 107.5c.7-.4 1.7-.2 2.2.5l10.5 14.2c.5.8 1.2 1.5 2 2l22.2 12.6c.4.1.7.6.5 1-.1.2-.3.4-.5.5l-34.3 19.8c-.8.5-1.8.5-2.6.1z"/><path class="prefix__st2" d="M58.6 127.4L93 107.5c.7-.4 1.7-.2 2.2.5l10.5 14.2c.3.4.7.8 1.1 1.1 0 0-37 21.4-37 21.3-.4-.3-.8-.7-1.1-1.1l-10.5-14.2c-.4-.6-.4-1.4.2-1.8.1 0 .2-.1.2-.1z"/><path class="prefix__st0" d="M121.6 137.2c-1-.5-2.1-.5-3.1 0-.9.5-.9 1.3 0 1.8 1 .5 2.1.5 3.1 0 .5-.2.8-.7.6-1.2-.1-.3-.3-.5-.6-.6zM115.5 140.8c-1-.5-2.1-.5-3.1 0-.5.2-.8.7-.6 1.2.1.3.3.5.6.6 1 .5 2.1.5 3.1 0 .5-.2.8-.7.6-1.2-.2-.3-.4-.5-.6-.6z"/><path class="prefix__st5" d="M109.3 144.3c-1-.5-2.1-.5-3.1 0-.5.2-.8.7-.6 1.2.1.3.3.5.6.6 1 .5 2.1.5 3.1 0 .5-.2.8-.7.6-1.2-.1-.3-.3-.5-.6-.6zM103.1 147.9c-1-.5-2.1-.5-3.1 0-.5.2-.8.7-.6 1.2.1.3.3.5.6.6 1 .5 2.1.5 3.1 0 .5-.2.8-.7.6-1.2-.1-.3-.3-.5-.6-.6z"/><path class="prefix__st0" d="M117 134.5c-1-.5-2.1-.5-3.1 0-.5.2-.8.7-.6 1.2.1.3.3.5.6.6 1 .5 2.1.5 3.1 0 .5-.2.8-.7.6-1.2-.1-.2-.3-.5-.6-.6z"/><path class="prefix__st5" d="M110.8 138.1c-1-.5-2.1-.5-3.1 0-.5.2-.8.7-.6 1.2.1.3.3.5.6.6 1 .5 2.1.5 3.1 0 .5-.2.8-.7.6-1.2-.1-.3-.3-.5-.6-.6z"/><ellipse class="prefix__st0" cx="103.1" cy="142.5" rx="2.2" ry="1.3"/><path class="prefix__st5" d="M98.5 145.2c-1-.5-2.1-.5-3.1 0-.5.2-.8.7-.6 1.2.1.3.3.5.6.6 1 .5 2.1.5 3.1 0 .5-.2.8-.7.6-1.2-.1-.3-.3-.5-.6-.6zM112.4 131.9c-1-.5-2.1-.5-3.1 0-.5.2-.8.7-.6 1.2.1.3.3.5.6.6 1 .5 2.1.5 3.1 0 .5-.2.8-.7.6-1.2-.1-.3-.3-.5-.6-.6z"/><path class="prefix__st0" d="M106.2 135.4c-1-.5-2.1-.5-3.1 0-.5.2-.8.7-.6 1.2.1.3.3.5.6.6 1 .5 2.1.5 3.1 0 .5-.2.8-.7.6-1.2-.1-.2-.3-.5-.6-.6z"/><path class="prefix__st5" d="M100.1 139c-1-.5-2.1-.5-3.1 0-.5.2-.8.7-.6 1.2.1.3.3.5.6.6 1 .5 2.1.5 3.1 0 .5-.2.8-.7.6-1.2-.1-.3-.4-.5-.6-.6z"/><path class="prefix__st0" d="M96.9 151.4c-1-.5-2.1-.5-3.1 0-.5.2-.8.7-.6 1.2.1.3.3.5.6.6 1 .5 2.1.5 3.1 0 .5-.2.8-.7.6-1.2-.1-.3-.3-.5-.6-.6z"/><ellipse class="prefix__st5" cx="90.8" cy="149.6" rx="2.2" ry="1.3"/><path class="prefix__st5" d="M93.9 142.5c-1-.5-2.1-.5-3.1 0-.5.2-.8.7-.6 1.2.1.3.3.5.6.6 1 .5 2.1.5 3.1 0 .5-.2.8-.7.6-1.2-.1-.2-.3-.5-.6-.6z"/><path class="prefix__st0" d="M107.8 129.2c-1-.5-2.1-.5-3.1 0-.5.2-.8.7-.6 1.2.1.3.3.5.6.6 1 .5 2.1.5 3.1 0 .5-.2.8-.7.6-1.2-.1-.3-.4-.5-.6-.6z"/><path class="prefix__st5" d="M101.6 132.8c-1-.5-2.1-.5-3.1 0-.5.2-.8.7-.6 1.2.1.3.3.5.6.6 1 .5 2.1.5 3.1 0 .5-.2.8-.7.6-1.2-.1-.3-.3-.5-.6-.6z"/><path class="prefix__st0" d="M95.5 136.3c-1-.5-2.1-.5-3.1 0-.5.2-.8.7-.6 1.2.1.3.3.5.6.6 1 .5 2.1.5 3.1 0 .5-.2.8-.7.6-1.2-.2-.3-.4-.5-.6-.6z"/><path class="prefix__st5" d="M89.3 139.9c-1-.5-2.1-.5-3.1 0-.9.5-.9 1.3 0 1.8 1 .5 2.1.5 3.1 0 .5-.2.8-.7.6-1.2-.1-.3-.3-.5-.6-.6z"/><path class="prefix__st0" d="M87.7 146c-1-.5-2.1-.5-3.1 0-.5.2-.8.7-.6 1.2.1.3.3.5.6.6 1 .5 2.1.5 3.1 0 .5-.2.8-.7.6-1.2-.1-.2-.3-.5-.6-.6z"/><path class="prefix__st5" d="M83.1 143.4c-1-.5-2.1-.5-3.1 0-.5.2-.8.7-.6 1.2.1.3.3.5.6.6 1 .5 2.1.5 3.1 0 .5-.2.8-.7.6-1.2-.1-.3-.3-.5-.6-.6z"/><path class="prefix__st2" d="M94.2 158.5v4.7c.5 0 1-.1 1.4-.3l34.3-19.8c.8-.5 1.3-1.3 1.3-2.3v-1.7c0-.8-.4-1.6-1.1-2.1.5.4.4 1-.2 1.3l-34.3 19.8c-.4.3-.9.5-1.4.4z"/><path class="prefix__st5" d="M101.2 121.6c-.4-.5-1-.6-1.5-.3l-29.9 17.2c-.4.2-.6.8-.3 1.2 0 0 0 .1.1.1.4.4 1 .6 1.5.3l29.9-17.3c.3-.2.5-.7.2-1.2z"/><path class="prefix__st0" d="M101.2 121.6c-.4-.5-1-.6-1.5-.3l-22.2 12.8 1.2 1.7 22.2-12.8c.4-.2.6-.8.4-1.2-.1-.1-.1-.2-.1-.2z"/><path class="prefix__st5" d="M98.7 118.3c-.3-.5-1-.6-1.5-.3l-29.9 17.2c-.4.2-.6.8-.4 1.2l.1.1c.3.5 1 .6 1.5.3l29.9-17.2c.4-.2.6-.8.3-1.2.1-.1 0-.1 0-.1z"/><path class="prefix__st0" d="M98.7 118.3c-.3-.5-1-.6-1.5-.3l-7.4 4.3L91 124l7.4-4.3c.4-.2.6-.8.4-1.2 0-.1 0-.2-.1-.2z"/><path class="prefix__st5" d="M96.2 114.9c-.3-.5-1-.6-1.5-.3l-29.9 17.2c-.4.2-.6.8-.3 1.2 0 0 0 .1.1.1.4.5 1 .6 1.5.3L96 116.2c.4-.2.5-.8.2-1.3.1.1 0 .1 0 0z"/><path class="prefix__st0" d="M96.2 114.9c-.3-.5-1-.6-1.5-.3l-15.6 9 1.3 1.6 15.6-9c.4-.2.5-.8.2-1.3.1.1.1.1 0 0z"/><path class="prefix__st5" d="M93.8 111.6c-.4-.5-1-.6-1.5-.3l-29.9 17.2c-.4.2-.6.8-.4 1.2l.1.1c.3.5 1 .6 1.5.3l29.9-17.2c.4-.2.6-.7.4-1.2-.1 0-.1 0-.1-.1z"/><path class="prefix__st0" d="M93.8 111.6c-.4-.5-1-.6-1.5-.3l-27.2 15.6 1.2 1.7 27.1-15.7c.4-.2.6-.7.4-1.2v-.1z"/></g></g><g id="prefix__freepik--Gears--inject-70"><g id="prefix__freepik--gears--inject-70"><path class="prefix__st0" d="M103.9 402.5v7.5c0 .3.2.5.5.5l3.9.2v5.5c0 .1.1.2.2.3l4.1 2.4c.2.1.3.1.5.1.1 0 .3 0 .4-.1l4.2-1.9c.3-.1.7-.1 1-.1 1.1.3 2.2.6 3.3.8.3.1.5.3.6.6l.5 2.8c0 .1.1.3.2.4.1.1.2.1.4.1h6.1c.1 0 .2 0 .3-.1 0 0 .1 0 .1-.1l.1-.1v-.1c0-.1.1-.1.1-.2l.5-2.8c.1-.3.3-.5.6-.6 1.1-.2 2.2-.4 3.3-.8.3-.1.7-.1 1 .1l4.2 1.9h.5c.1 0 .3 0 .4-.1l4.1-2.4c.1 0 .1-.1.1-.1v-5.4l3.9-.2h.2c.1 0 .2-.1.3-.1 0-.1.1-.1.1-.2s.1-.1.1-.2v-10.2c0-.3-.2-.5-.5-.5l-3.9-.2v-5.5c0-.1-.1-.2-.2-.3L141 391c-.3-.1-.6-.1-.9 0l-4.2 1.9c-.3.1-.7.2-1 .1-1.1-.3-2.2-.6-3.3-.8-.3-.1-.5-.3-.6-.6l-.4-2.7c-.1-.3-.3-.5-.6-.5h-6.1c-.3 0-.6.2-.6.5l-.5 2.8c-.1.3-.3.5-.6.6-1.1.2-2.2.4-3.3.8-.3.1-.7.1-1-.1l-4.2-1.9c-.3-.1-.6-.1-.9 0l-4.1 2.4c-.1.1-.2.2-.2.3v5.5l-3.9.2c-.3 0-.5.3-.5.5v2.5h-.2zm15.9 2c4.4-2.2 9.6-2.2 14 0 .3.2.6.3.8.5-.3.2-.5.4-.8.5-4.4 2.2-9.6 2.2-14 0-.3-.2-.6-.3-.8-.5.2-.2.5-.3.8-.5z"/><path class="prefix__st3" d="M103.8 402.5v7.5c0 .3.2.5.5.5l3.9.2v5.5c0 .1.1.2.2.3l4.1 2.4c.2.1.3.1.5.1.1 0 .3 0 .4-.1l4.2-1.9c.1-.1.3-.1.4-.1h.6c1.1.3 2.2.6 3.3.8.1 0 .2 0 .3.1.2.1.3.3.4.5l.5 2.8c0 .1.1.3.2.4.1.1.2.1.4.1h6.2c.2 0 .3-.1.4-.3v-.1c0-.1.1-.1.1-.2l.5-2.8c0-.2.1-.3.2-.4.1-.1.2-.2.4-.2 1.1-.2 2.2-.4 3.3-.8h.6c.1 0 .2 0 .3.1l4.2 1.9h.3c.2 0 .4 0 .6-.1l4.1-2.4.1-.1.1-.1v-5.6h.7l3.1-.2h.1c.3 0 .5-.3.5-.5v-7c0 .3-.2.5-.5.5l-5.5.4c-.3 0-.6.2-.7.5-.3.6-.7 1.1-1.2 1.6-.2.2-.2.4 0 .6l.1.1 3.3 2.4c.2.1.2.3.1.4 0 .1-.1.1-.1.1l-4.1 2.4c-.3.1-.6.1-.9 0l-4.2-1.9c-.3-.1-.7-.1-1-.1-1.1.3-2.2.6-3.3.8-.3.1-.5.3-.6.6l-.5 2.8c-.1.3-.3.5-.6.5h-6.1c-.3 0-.6-.2-.6-.5l-.5-2.8c-.1-.3-.3-.5-.6-.6-1.1-.2-2.2-.4-3.3-.8-.3-.1-.7-.1-1 .1l-4.2 1.9c-.3.1-.6.1-.9 0l-4.1-2.3c-.2-.1-.2-.3-.1-.4 0-.1.1-.1.1-.1l3.3-2.4c.2-.1.2-.4.1-.6v-.1c-.5-.5-.9-1-1.2-1.6-.2-.3-.4-.5-.8-.5l-5.5-.3c-.3 0-.5-.3-.5-.5v-.6l-.1.1zM108.3 393.6v5.5l1.6-.1c.3 0 .6-.2.8-.5.3-.6.7-1.1 1.2-1.6.2-.2.2-.5 0-.6h-.1l-3.3-2.4c-.1-.1-.2-.2-.2-.3z"/><path class="prefix__st15" d="M119 405l.4-.2.4-.2c4.4-2.2 9.6-2.2 14 0l.4.2c.1.1.3.2.4.3 3-2.2 2.8-5.5-.8-7.5-4.4-2.2-9.6-2.2-14 0-3.6 1.9-3.9 5.2-.8 7.4z"/><path class="prefix__st3" d="M141.7 396.9c.5.5.9 1 1.2 1.6.2.3.4.5.7.5l1.6.1v-5.5c0 .1-.1.2-.2.3l-3.3 2.4c-.1.1-.2.4 0 .6z"/><path class="prefix__st0" d="M140 390.9l-4.2 1.9c-.3.1-.7.2-1 .1-1.1-.3-2.2-.6-3.3-.8-.3-.1-.5-.3-.6-.6l-.5-2.7c-.1-.3-.3-.5-.6-.5h-6.1c-.3 0-.6.2-.6.5l-.5 2.8c-.1.3-.3.5-.6.6-1.1.2-2.2.4-3.3.8-.3.1-.7.1-1-.1l-4.2-1.9c-.3-.1-.6-.1-.9 0l-4.1 2.4c-.2.1-.2.3-.1.4 0 .1.1.1.1.1l3.3 2.4c.2.1.2.4.1.6v.1c-.5.5-.8 1-1.2 1.6-.2.3-.4.5-.8.5l-5.5.4c-.3 0-.5.3-.5.5v3.1c0 .3.2.5.5.5l5.5.3c.3 0 .6.2.8.5.3.6.7 1.1 1.2 1.6.2.2.2.5 0 .6h-.1l-3.3 2.4c-.2.1-.2.3-.1.4 0 .1.1.1.1.1l4.1 2.4c.3.1.6.1.9 0l4.2-1.9c.3-.1.7-.1 1-.1 1.1.3 2.2.6 3.3.8.3.1.5.3.6.6l.5 2.8c.1.3.3.5.6.5h6.1c.3 0 .5-.2.6-.5l.5-2.8c.1-.3.3-.5.6-.6 1.1-.2 2.2-.4 3.3-.8.3-.1.7-.1 1 .1l4.2 1.9c.3.1.6.1.9 0l4.1-2.4c.2-.1.2-.3.1-.4 0-.1-.1-.1-.1-.1l-3.3-2.4c-.2-.1-.3-.4-.1-.6 0 0 0-.1.1-.1.5-.5.8-1 1.2-1.6.2-.3.4-.5.7-.5l5.5-.3c.3 0 .5-.3.5-.5v-3c0-.3-.2-.5-.5-.5l-5.5-.4c-.3 0-.6-.2-.7-.5-.3-.6-.7-1.1-1.2-1.6-.2-.2-.2-.4 0-.6l.1-.1 3.3-2.4c.2-.1.2-.3.1-.4 0-.1-.1-.1-.1-.1L141 391c-.4-.2-.7-.2-1-.1zm-6.2 6.6c3.9 2.2 3.9 5.9 0 8.1-4.4 2.2-9.6 2.2-14 0-3.9-2.2-3.9-5.9 0-8.1 4.4-2.3 9.6-2.3 14 0z"/><path class="prefix__st0" d="M145.2 409.4c0-.1-.1-.2-.2-.3l-1.6-1.2V404c.1 0 .1 0 .2-.1l5.5-.4c.3 0 .5-.3.5-.5v7c0 .3-.2.5-.5.5h-.1l-3.1.2h-.7c.1.1 0-1.2 0-1.3z"/><path class="prefix__st11" d="M145.2 409.4c0-.1-.1-.2-.2-.3l-1.6-1.2V404c.1 0 .1 0 .2-.1l5.5-.4c.3 0 .5-.3.5-.5v7c0 .3-.2.5-.5.5h-.1l-3.1.2h-.7c.1.1 0-1.2 0-1.3z"/><path class="prefix__st0" d="M135.5 410c.1 0 .2 0 .3.1l4.2 1.9c.2.1.4.1.5.1v7h-.6l-4.2-1.9c-.1 0-.2-.1-.3-.1V410z"/><path class="prefix__st11" d="M135.5 410c.1 0 .2 0 .3.1l4.2 1.9c.2.1.4.1.5.1v7h-.6l-4.2-1.9c-.1 0-.2-.1-.3-.1V410z"/><path class="prefix__st0" d="M130.3 414.4c0-.1.1-.1.1-.2l.5-2.8c0-.1 0-.1.1-.2v7c0 .1-.1.1-.1.2l-.5 2.8c0 .1-.1.1-.1.1v-6.9z"/><path class="prefix__st11" d="M130.3 414.4c0-.1.1-.1.1-.2l.5-2.8c0-.1 0-.1.1-.2v7c0 .1-.1.1-.1.2l-.5 2.8c0 .1-.1.1-.1.1v-6.9z"/><path class="prefix__st1" d="M122.5 411.2c0 .1.1.1.1.2l.5 2.8c0 .1 0 .1.1.2v7c0-.1-.1-.1-.1-.2l-.5-2.8c0-.1 0-.1-.1-.2v-7zM113 412.1c.2 0 .4 0 .5-.1l4.2-1.9c.1 0 .2-.1.3-.1v7c-.1 0-.2 0-.3.1l-4.2 1.9c-.1.1-.3.1-.4.1h-.1v-7zM104.4 403.6l5.5.3c.1 0 .2 0 .2.1v3.9l-1.7 1.2c-.1.1-.2.2-.2.3v1.5l-3.9-.2c-.3 0-.5-.3-.5-.5v-7.5-.1.6c0 .1.3.4.6.4z"/><path class="prefix__st0" d="M184.6 380.9v-5.1c0-.1 0-.2-.1-.2l-1.6-2.2c-.1-.2-.4-.3-.6-.3l-4.1.7c-.3 0-.5-.1-.8-.2-.3-.2-.5-.4-.8-.5v-3.2c0-.1-.1-.2-.3-.3l-4.1-1c-.2-.1-.5 0-.7.1l-2 2.1c-.2.1-.4.2-.6.2-.9-.1-1.8-.1-2.7 0-.3 0-.5-.1-.7-.3l-1.8-1.8c-.2-.2-.4-.3-.7-.2l-4.3 1c-.1 0-.2.1-.2.3v3.2c-.3.2-.7.4-1 .6-.2.1-.5.2-.7.1l-3.9-.7c-.2 0-.5 0-.6.2l-1.7 2.4V387.2c0 .1 0 .2.1.3l1.6 2.2c.1.2.4.3.6.3l4-.7c.3 0 .6.1.8.2.2.2.5.3.8.5v3.2c0 .1.1.3.3.3l4.1 1c.2.1.5 0 .7-.1l2-2.1c.2-.1.4-.2.6-.2h2.7c.3 0 .5.1.7.3l1.8 1.9c.2.2.4.3.7.3l4.3-1c.1 0 .2-.1.2-.2v-3.3c.3-.2.7-.4 1-.6.2-.1.5-.2.7-.1l3.9.7c.2 0 .5 0 .6-.2l1.7-2.4v-.1c.1-.4.1-6.3.1-6.5zm-22.9.1c.2-.1.4-.3.6-.4 3.3-1.7 7.3-1.7 10.6 0 .2.1.4.2.6.4-.2.2-.4.3-.6.4-2.5 1.3-5.4 1.6-8.2.9-.8-.2-1.7-.5-2.4-.9-.2-.1-.4-.3-.6-.4z"/><path class="prefix__st3" d="M184.6 380.9v-5.1c0-.1 0-.2-.1-.2l-1.6-2.2c-.1-.2-.4-.3-.6-.3l-4.1.7c-.3 0-.5-.1-.8-.2-.3-.2-.5-.4-.8-.5v-3.2c0-.1-.1-.2-.3-.3l-4.1-1c-.2-.1-.5 0-.7.1l-2 2.1c-.2.1-.4.2-.6.2-.9-.1-1.8-.1-2.7 0-.3 0-.5-.1-.7-.3l-1.8-1.8c-.2-.2-.4-.3-.7-.2l-4.3 1c-.1 0-.2.1-.2.3v3.2c-.3.2-.7.4-1 .6-.2.1-.5.2-.7.1l-3.9-.7c-.2 0-.5 0-.6.2l-1.7 2.4V387.2c0 .1 0 .2.1.3l1.6 2.2c.1.2.4.3.6.3l4-.7c.3 0 .6.1.8.2.2.2.5.3.8.5v3.2c0 .1.1.3.3.3l4.1 1c.2.1.5 0 .7-.1l2-2.1c.2-.1.4-.2.6-.2h2.7c.3 0 .5.1.7.3l1.8 1.9c.2.2.4.3.7.3l4.3-1c.1 0 .2-.1.2-.2v-3.3c.3-.2.7-.4 1-.6.2-.1.5-.2.7-.1l3.9.7c.2 0 .5 0 .6-.2l1.7-2.4v-.1c.1-.4.1-6.3.1-6.5zm-22.9.1c.2-.1.4-.3.6-.4 3.3-1.7 7.3-1.7 10.6 0 .2.1.4.2.6.4-.2.2-.4.3-.6.4-2.5 1.3-5.4 1.6-8.2.9-.8-.2-1.7-.5-2.4-.9-.2-.1-.4-.3-.6-.4z"/><path class="prefix__st0" d="M150.7 375.8z"/><path class="prefix__st3" d="M159.6 372.6c-.3.1-.6.3-.9.5v-3.2.2l1 2c.1 0 .1.3-.1.5 0-.1 0-.1 0 0z"/><path class="prefix__st1" d="M154.9 377.6c-.1.4-.1.9 0 1.3 0 .2-.1.4-.3.5l-3.7 1.2c-.1 0-.2.1-.2.2v-4.9c0 .1.1.2.3.3l3.5 1.1c.2 0 .3.1.4.3zM157.2 382.8v6.2h-.2l-4 .7h-.2v-6.2h.2l4.2-.7z"/><path class="prefix__st16" d="M158.6 389.8c-.3-.2-.6-.3-.8-.5-.2-.1-.4-.2-.6-.2v-6.3c.2 0 .4.1.6.2.5.4 1.1.7 1.6.9.2.1.4.3.3.5l-1.1 2.2v3.2z"/><path class="prefix__st1" d="M165.9 385.8v6.2c-.1 0-.2.1-.2.1l-2 2.1c-.1.1-.2.1-.4.1v-6.2c.1 0 .3 0 .4-.1l2-2.1c.1-.1.1-.1.2-.1z"/><path class="prefix__st16" d="M169.3 385.7v6.2h-3c-.1 0-.3 0-.4.1v-6.2c.1 0 .3-.1.4-.1.9.1 1.8.1 2.7 0h.3z"/><path class="prefix__st1" d="M171.9 388.1v6.2c-.1 0-.3-.1-.4-.2l-1.8-1.9c-.1-.1-.3-.2-.5-.3v-6.2c.2.1.3.1.5.3l1.7 1.8c.2.2.3.2.5.3z"/><path class="prefix__st0" d="M176.7 386.9v6.3c0 .1-.1.2-.2.2l-4.3 1h-.3v-6.2h.3l4.3-1c.1-.1.2-.2.2-.3z"/><path class="prefix__st11" d="M176.7 386.9v6.3c0 .1-.1.2-.2.2l-4.3 1h-.3v-6.2h.3l4.3-1c.1-.1.2-.2.2-.3z"/><path class="prefix__st1" d="M178 382.9v6.2c-.1 0-.3.1-.4.1-.3.2-.7.4-1 .6v-3c0-.1 0-.1-.1-.2l-1-2c-.1-.2-.1-.4.1-.5.7-.3 1.3-.7 1.9-1.1.2-.1.4-.1.5-.1z"/><path class="prefix__st0" d="M184.6 380.9v6.3l-1.7 2.4c-.1.1-.2.1-.3.2v-6.2c.1 0 .2-.1.3-.2l1.7-2.5z"/><path class="prefix__st0" d="M184.6 380.9v6.3l-1.7 2.4c-.1.1-.2.1-.3.2v-6.2c.1 0 .2-.1.3-.2l1.7-2.5z"/><path class="prefix__st11" d="M184.6 380.9v6.3l-1.7 2.4c-.1.1-.2.1-.3.2v-6.2c.1 0 .2-.1.3-.2l1.7-2.5z"/><path class="prefix__st0" d="M158.6 369.8v.2l1 2c.1.2.1.4-.1.5-.3.1-.6.3-.9.5-.3.2-.7.4-1 .6-.2.1-.5.2-.7.1l-3.9-.7c-.2 0-.5 0-.6.2l-1.7 2.4v.1c0 .1.1.2.3.3l3.5 1.1c.2 0 .4.2.4.5-.1.4-.1.9 0 1.3 0 .2-.1.4-.3.5l-3.7 1.2c-.1 0-.2.1-.2.2s0 .2.1.2l1.6 2.2c.2.2.4.3.6.3l4.1-.7c.3 0 .6.1.8.2.5.4 1.1.7 1.6.9.2.1.4.3.3.5l-1.1 2.2c-.1.2.1.3.3.4l4.1 1c.2.1.5 0 .7-.1l2-2.1c.2-.1.4-.2.6-.2h2.7c.3 0 .5.1.7.3l1.8 1.9c.2.2.4.3.7.3l4.3-1c.2 0 .3-.2.2-.3v-.1l-1-2c-.1-.2-.1-.4.1-.5.7-.3 1.3-.7 1.9-1.1.2-.1.5-.2.7-.1l3.9.7c.2 0 .5 0 .6-.2l1.7-2.4v-.2c-.1-.1-.2-.2-.3-.2l-3.5-1.1c-.2-.1-.4-.3-.4-.5.1-.4.1-.9 0-1.3 0-.2.1-.4.3-.5l3.7-1.2c.1 0 .2-.1.2-.2s0-.2-.1-.2l-1.6-2.2c-.1-.2-.4-.3-.6-.3l-4.1.7c-.3 0-.5-.1-.8-.2-.3-.2-.5-.4-.8-.5-.3-.1-.6-.3-.8-.4s-.4-.3-.3-.5l1.1-2.2v-.1c0-.1-.1-.2-.3-.3l-4.1-1c-.2-.1-.5 0-.7.1l-2 2.1c-.2.1-.4.2-.6.2-.9-.1-1.8-.1-2.7 0-.3 0-.5-.1-.7-.3l-1.7-1.8c-.2-.2-.4-.3-.7-.2l-4.3 1c-.2-.2-.3-.1-.3 0zm15.6 6.4l.1.1.1.1.1.2.2.2.1.1v.1c.6.9.5 2.1-.2 3-.3.4-.6.7-1 1-.2.2-.4.3-.6.4-2.5 1.3-5.4 1.6-8.2.9-.8-.2-1.7-.5-2.4-.9-.2-.1-.4-.3-.6-.4-.5-.4-1-.9-1.3-1.4v-.1-.1-.1c-.4-.9-.2-1.9.4-2.6 1.6-2.2 6-3.3 9.8-2.4 1.3.3 2.5.9 3.5 1.9z"/></g></g><g id="prefix__freepik--Wrench--inject-70"><g id="prefix__freepik--wrench--inject-70"><path class="prefix__st2" d="M208.3 362c-.9.5-2.4.5-2.9 1v2.1l9.7-1.4 3.7 2.1-1.4 3-9.8-.6v2.1c.2.2.4.3.7.4 4.7 2.4 10.2 2.4 14.9.1 2.1-1.2 3.1-2.8 3.1-4.3v-2.1l-.6.1-.1-.1 36.6-21.1c3.7.8 7.6.3 11-1.4 1.3-.7 2.4-1.8 2.9-3.1v-2.1l-9.7 3.5-3.7-2.1 1.4-2.9 9.8-1.4v-2.1s-11.4-.8-15.6 1.6c-1.1.6-1.9 1.4-2.6 2.4l-.5-.2v2.1c0 .8.2 1.5.6 2.2l-36.6 21.1c-3.6-1.1-7.5-.6-10.9 1.1z"/><path class="prefix__st2" d="M262.2 343.1l.1-2.1-36.7 21.2v2.1z"/><path class="prefix__st4" d="M256 337.4l-36.6 21.1c-3.7-.8-7.6-.3-11 1.4-1.3.7-2.4 1.8-2.9 3.1l9.7-1.4 3.7 2.1-1.4 2.9-9.8 1.4c.2.1.4.3.7.4 4.7 2.4 10.2 2.4 14.9.1 3-1.7 3.9-4.3 2.5-6.4l36.6-21.1c3.7.8 7.6.3 11-1.4 1.3-.7 2.4-1.8 2.9-3.1l-9.7 1.4-3.7-2.1 1.4-2.9 9.8-1.4-.7-.4c-4.7-2.4-10.2-2.4-14.9-.1-3 1.7-3.9 4.2-2.5 6.4z"/><path class="prefix__st5" d="M263.7 336.2l-.8-.4 1.4-2.9 9.7-1.5v2.1l-9.7 1.5zM217.9 365.4l.8-1.6-3.7-2.2-9.6 1.4v2.1l9.6-1.4z"/></g></g><g id="prefix__freepik--Screwdriver--inject-70"><g id="prefix__freepik--screwdriver--inject-70"><path class="prefix__st0" d="M230.7 392.8l7.7 13.3 25.8-14.9c1.1-.5 1.7-1.8 1.7-3.6-.2-3.8-2.2-7.3-5.4-9.4-1.1-.8-2.6-1-3.8-.4l-26 15z"/><path class="prefix__st0" d="M229.2 395.5c-.1 2-3 2.5-3 2.5l5.4 9.4s1.8-2.2 3.6-1.3c2.7 1.2 4.7-.3 4.7-3.5-.2-3.8-2.2-7.3-5.4-9.4-2.7-1.6-5-.6-5.3 2.3z"/><path class="prefix__st7" d="M229.2 395.5c-.1 2-3 2.5-3 2.5l5.4 9.4s1.8-2.2 3.6-1.3c2.7 1.2 4.7-.3 4.7-3.5-.2-3.8-2.2-7.3-5.4-9.4-2.7-1.6-5-.6-5.3 2.3z"/><path class="prefix__st7" d="M227.5 397.6c-.4.2-.8.3-1.3.4l5.4 9.4c.3-.3.6-.6 1-.9-.3-3.6-2.2-6.9-5.1-8.9z"/><path class="prefix__st0" d="M220.6 398.6l.4.8c-.2.5-.2 1.1-.2 1.7.2 3.8 2.2 7.3 5.4 9.4.5.3 1 .5 1.6.6l.5.8 1.8-1c1.1-.8 1.7-2.1 1.6-3.5-.2-3.8-2.2-7.3-5.4-9.4-1.1-.8-2.6-1-3.8-.4l-1.9 1z"/><path class="prefix__st0" d="M229.8 408.4c-.2-3.8-2.2-7.3-5.4-9.4-3-1.7-5.4-.3-5.4 3.1.2 3.8 2.2 7.3 5.4 9.4 3 1.8 5.4.3 5.4-3.1z"/><path class="prefix__st1" d="M229.8 408.4c-.2-3.8-2.2-7.3-5.4-9.4-3-1.7-5.4-.3-5.4 3.1.2 3.8 2.2 7.3 5.4 9.4 3 1.8 5.4.3 5.4-3.1z"/><path class="prefix__st1" d="M222.3 409.8c.4.4.9.8 1.3 1.2l1.3-3.6-1.5-1.1-1.1 3.5z"/><path class="prefix__st11" d="M261.5 383.8c.4.7.1 1.6-.5 2l-18.5 10.6c-.7.4-1.6.1-2-.5-.4-.7-.1-1.6.5-2l18.4-10.6c.8-.4 1.7-.2 2.1.5zM258.2 379.9c.4.2.5.8.3 1.2-.1.1-.2.3-.4.3l-18.8 10.9c-.7.3-1.6.3-2.2-.2-.4-.3-.5-.8-.3-1.2.1-.1.2-.3.4-.3l18.8-10.9c.7-.4 1.6-.3 2.2.2zM263.3 388.7c0-.5-.4-.9-.9-.9-.2 0-.3.1-.5.2l-18.8 10.8c-.7.4-1 1.2-.9 2 0 .5.4.9.9.9.2 0 .3-.1.5-.2l18.8-10.8c.7-.4 1-1.2.9-2z"/><path class="prefix__st4" d="M176.9 430.3v3.6l9-2.9s1.8-3.3 3.6-4.4l34.4-19.8 1.1-3-1.1-.6-34.4 19.8c-1.2.6-2.5.5-3.6-.2l-9 7.5z"/><path class="prefix__st2" d="M177.9 430.9v3.6l9-2.9s1.8-3.3 3.6-4.4l34.3-19.8v-3.6l-34.3 19.8c-1.1.6-2.5.5-3.6-.2l-9 7.5z"/><path class="prefix__st5" d="M177.9 434.5l-1-.6v-3.6l1 .6z"/><path class="prefix__st4" d="M176.9 430.3l1 .6 9.1-7.5-1.1-.6z"/></g></g><g id="prefix__freepik--Character--inject-70"><g id="prefix__freepik--character--inject-70"><path class="prefix__st17" d="M329 199.8c5.8-6 16.4-19.6 16.4-19.6l6-20.7c.1.1-3 .1-4 0-6.5.4-8.4 1-12.4 5.4-3.2 3.5-15.4 20.1-19.6 25.7l-11.2-14.3c-2.7-4.1-2.2-8.6-3.6-11.9s-3.6-4.8-5.5-7.8-2.2-5-3.7-3.4.2 5.7.5 6.6 2.5 3.8-1.3 2.3-9.6-8.4-11.1-9.8-2.3.8-2 2.5-1.3 5.6-.7 8.5c.6 3 1.1 4.4 4 7.4 2.7 2.8 9.4 6.1 12 9.7s8.2 14.8 11.6 21.6c4.3 8.6 8 11.4 12.9 8.5s9.5-8.5 11.7-10.7z"/><path class="prefix__st18" d="M349.5 159.3c-3.3-.3-6.6.1-9.7 1.3-3.5 1.6-5.9 5-9.3 9.6s-12 15.6-12 15.6c5.1 3.5 8.8 8.7 10.4 14.6l20.9-23.1-.3-18z"/><path class="prefix__st19" d="M315.5 190.6c2.1 2 3.5 4.7 4 7.5 0 0 1.3-4.1-3.1-8.8l-.9 1.3z"/><path d="M369.6 159.2c2.3.6 8.4 1.3 12.4 2.5 3 .9 6 4.5 6.6 7.2 2 8.7.2 14.2-.5 21.8s-.8 45.7-.8 45.7c-4.2 8.3-36.3 9.9-51.8-1.4 0 0 1.9-50.7 1.9-58.6s4.4-17.4 16.5-18.1l15.7.9z" fill="#f5f5f5"/><path class="prefix__st5" d="M355.9 134.2c0 .9.8 1.7 1.7 1.6s1.7-.8 1.6-1.7c0-.9-.8-1.6-1.7-1.6-.9 0-1.6.8-1.6 1.7zM357.6 128.6l3.5 1.9c.5-1 .2-2.2-.8-2.8-1-.5-2.2-.1-2.7.9 0-.1 0 0 0 0z"/><path class="prefix__st19" d="M356.3 144.5l-3.9 1.5c.3 1.1 1.4 1.7 2.5 1.3h.1c1.2-.5 1.7-1.7 1.3-2.8z"/><path class="prefix__st5" d="M342.6 130l3.1-2.4c-.6-.9-1.8-1.1-2.7-.5 0 0-.1 0-.1.1-.8.6-1 1.9-.3 2.8zM343.3 134.2c0 .9.8 1.6 1.7 1.6.9 0 1.6-.8 1.6-1.7 0-.9-.7-1.6-1.6-1.6-1 .1-1.8.8-1.7 1.7z"/><path class="prefix__st19" d="M352 131.5l-.5 10.1-5.3-1.8z"/><path class="prefix__st0" d="M355.9 131.9l23.8-1.8c4.6 3.5 13.2 10.8 13.2 12.9V144.6c-.8 1.6-3.9 2.6-8.6 2.7-5.6.1-14.3-.4-16.6-2.4-3.4-3-11.7-11.6-11.7-11.6l1.2-.1-1.3-1.3z"/><path class="prefix__st11" d="M355.9 131.9l23.8-1.8c4.6 3.5 13.2 10.8 13.2 12.9V144.6c-.8 1.6-3.9 2.6-8.6 2.7-5.6.1-14.3-.4-16.6-2.4-3.4-3-11.7-11.6-11.7-11.6l1.2-.1-1.3-1.3z"/><path class="prefix__st0" d="M379.7 131.5c4.8 3.6 14 11.5 13.1 13.1s-3.9 2.6-8.6 2.7c-5.6.1-14.3-.4-16.6-2.4-3.4-3-11.7-11.6-11.7-11.6l23.8-1.8z"/><path class="prefix__st15" d="M379.7 131.5c4.8 3.6 14 11.5 13.1 13.1s-3.9 2.6-8.6 2.7c-5.6.1-14.3-.4-16.6-2.4-3.4-3-11.7-11.6-11.7-11.6l23.8-1.8z"/><path class="prefix__st0" d="M379.7 131.5c.1.7-2.4 2.1-2.4 2.1l.7-4.2 1.7 2.1z"/><path class="prefix__st3" d="M379.7 131.5c.1.7-2.4 2.1-2.4 2.1l.7-4.2 1.7 2.1z"/><path class="prefix__st5" d="M373.5 117.6s3.7.5 5.1 3.3c1.2 2.4.8 8.3-.8 14.8-.9 4.1-2.2 8.2-4 12-.6 1.1-1.6 1.9-2.8 2.3l.2-7.6.3-5.3s-3.4-4.6-3.8-8.5c-.5-4.9.5-6.9.5-6.9l5.3-4.1z"/><path class="prefix__st5" d="M367.5 124.9c0 7.8-6.4 14.2-14.3 14.2s-13.7-6.5-13.7-14.3 6-14.1 13.8-14.1c7.8 0 14.2 6.4 14.2 14.2z"/><path class="prefix__st17" d="M371.2 136.2c1.3 1.1 2.3-1.8 3.4-2.9s4.6-2.6 6.3 1.1-1.5 9-4.2 10.1c-1.7.7-3.6.1-4.6-1.4V160c-4 7.3-11.2 7.1-15 6.6s-4.6-4.4-1.9-7.6v-5.2c-2.1.3-4.3.4-6.4.3-3.5-.6-5.3-3.2-6.4-7-1.7-6.1-2.4-16.3 0-28.1 3.9-3 17.5-2.5 25.7 2.7-.6 10.5 1.8 13.4 3.1 14.5z"/><path class="prefix__st5" d="M343.9 113.8c1.6-1.7 3.6-3.1 5.8-4 1.8-.8 3.6-1.2 5.5-1.2 2.5 0 5-.4 7.4-.3 4.3.1 9.5 1.9 11.4 6.1.9 1.9 1 3.9-.7 5.3-1.6 1.1-3.4 1.8-5.2 2-3.2.6-6.4 1.2-9.6 1.7-3.4.6-6.9.5-10.4-.1-1.6-.4-3.1-1-4.5-1.9-.7-.5-1.4-1-1.9-1.6-.2-.2-.8-.7-.9-1s.3-1 .5-1.3c.8-1.4 1.6-2.6 2.6-3.7z"/><path class="prefix__st19" d="M355.2 153.8s7.8-1.5 10.5-3c1.6-.8 2.9-2.1 3.8-3.7-.4 1.6-1.1 3.1-2.1 4.4-2 2.5-12.2 4.4-12.2 4.4v-2.1z"/><path class="prefix__st5" d="M357.4 133.6c0 .9.8 1.6 1.7 1.6.9 0 1.6-.8 1.6-1.7 0-.9-.8-1.6-1.6-1.6-1 0-1.8.8-1.7 1.7z"/><path class="prefix__st19" d="M353.6 146.2c0 .9.8 1.6 1.7 1.6.9 0 1.6-.8 1.6-1.7 0-.9-.8-1.6-1.6-1.6-1 0-1.7.8-1.7 1.7z"/><path class="prefix__st5" d="M359.6 127.2l3.2 2.5c.7-.9.5-2.1-.3-2.9-.9-.7-2.2-.5-2.9.4zM342.8 129.7l3.1-2.7c-.7-.9-2-1-2.8-.3-.9.9-1 2.2-.3 3zM343.8 133.1c0 .9.8 1.6 1.7 1.6.9 0 1.6-.8 1.6-1.7 0-.9-.8-1.6-1.6-1.6-1 0-1.7.8-1.7 1.7z"/><path class="prefix__st19" d="M352.8 130.3l-.6 11.6-5.5-1.4z"/><path class="prefix__st0" d="M380.8 125.7c0 2-.4 4-1 5.9-.4-.6-.9-1.2-1.5-1.6-3.2-2.7-6.8-4.7-10.7-6.1-9-3.5-19.5-4-27.9-1.1.1-1.7.5-3.4 1.1-5 3.1-8 9.2-12.2 19.1-11.1 11.6 1.1 21.2 7.5 20.9 19z"/><path class="prefix__st5" d="M359.6 118.6c-2.7-.9-9.5-1.4-11.5-.8-.9-.8-1.7-1.7-2.4-2.7-.9-1.5-.6-3.4.3-3.8s.9.8 4.4 2.5c-.4-1.1-.5-2.3-.3-3.4.6-1.4 1.7 1.1 4.3 2.7s4.8 2.5 5.2 5.5z"/><path class="prefix__st2" d="M394.7 152.5c2.2-1.8 15.8 14.2 10.1 18.9s-12.6-7-11.7-12.7 1.6-6.2 1.6-6.2z"/><path class="prefix__st17" d="M405.6 143.5c-3.4-4.2-12.4-14.2-14.4-16s-3.2-1.6-4.4-2c-1.4-.5-2.7-1.3-3.7-2.3l-1.8-2.1c-1.9-2.4-4.2-4.5-6.8-6.3-2.7-1.8-5.6-3.2-8.4-5-1.6-1.1-3.4-2.8-1.6-4.6.6-.5 1.3-.9 2-1.1 4.6-1.2 8.8.2 13.5 1.2 2 .4 4 1 5.9 1.7.9.3 1.8.8 2.6 1.4 1.6 1.3 3 2.8 4.4 4.4 3.2 3.9 5.9 5.1 9 7.8 3.7 3.2 20.1 14.8 23.6 18.3 2.9 2.9 2 5.2 1.6 6.1-2 4.7-4.5 6.5-7.4 9.4-1 1-1.9 2-2.9 3-3.7 3.8-7.5 7.4-11.4 11-4.2 3.9-5.9 5.7-9.6 9.5-2.3 2.4-4.2 5.2-5.6 8.3-6.7 1.5-11.3-12.7-8.9-20.9.7-2.1 2.1-3.9 3.9-5.1 7-5.5 20.4-16.7 20.4-16.7z"/><path class="prefix__st19" d="M405.6 143.5c2.3 2.6 5.2 4.4 8.5 5.3 0 0-4.3 1.3-10.4-3.8l1.9-1.5z"/><path class="prefix__st18" d="M382 161.7c1.5-1.2 5.2-3.8 12.6-9.1 0 0-1 2.6 1.2 8.7s6.4 9.9 8.9 10.2c0 0-4.1 3.7-7.9 7.7s-6.9 7-8.9 11.6c0 0-5.8-1.1-7.6-10.7-1.2-6.7-1.1-14.7 1.7-18.4z"/><path class="prefix__st5" d="M369.1 405.6c-.4.4-.1 3.1.3 3.8s3 2.7 7.6 2.8c4.5.1 8.4-.7 10.9-2.5s3.7-3.7 3.8-6.2-.3-5 .8-7c1-1.9 2.4-3.7 2.7-4.7.4-1.8.4-3.6 0-5.4l-26.1 19.2z"/><path class="prefix__st0" d="M379.9 384.2c0 1-.1 1.9-.4 2.8-.6 2-1.4 3.9-2.4 5.7-.5.9-1.1 1.8-1.7 2.7-1.3 1.7-2.9 3.1-4.2 4.7-1.4 1.5-2.3 3.5-2.5 5.6 0 3.5 3.8 4.5 6.8 4.8 3.2.4 6.4 0 9.4-1 3.3-1 5.6-3.9 6-7.3.1-1 0-2 .1-2.9.3-2.2 1.1-4.4 2.4-6.2.8-1.1 1.4-2.2 1.9-3.4.8-2.2-.1-4.6-.8-6.7-.6-1.8-1.1-4-1.7-3.8v1.2c-.2.4-.7.7-.8 1.2-.1.5-.3 1-.5 1.5-.3.7-.8 1.4-1.5 1.8-.1-1.3-.2-2.6-.4-3.9 0-.4-.1-.8-.4-1.1-.3-.3-.7-.4-1.1-.4-2.5-.5-5-.5-7.5-.2-.4 0-.8.2-1 .5-.1.3-.2.6-.1.9.3 1 .4 2.2.4 3.5z"/><path class="prefix__st11" d="M379.9 384.2c0 1-.1 1.9-.4 2.8-.6 2-1.4 3.9-2.4 5.7-.5.9-1.1 1.8-1.7 2.7-1.3 1.7-2.9 3.1-4.2 4.7-1.4 1.5-2.3 3.5-2.5 5.6 0 3.5 3.8 4.5 6.8 4.8 3.2.4 6.4 0 9.4-1 3.3-1 5.6-3.9 6-7.3.1-1 0-2 .1-2.9.3-2.2 1.1-4.4 2.4-6.2.8-1.1 1.4-2.2 1.9-3.4.8-2.2-.1-4.6-.8-6.7-.6-1.8-1.1-4-1.7-3.8v1.2c-.2.4-.7.7-.8 1.2-.1.5-.3 1-.5 1.5-.3.7-.8 1.4-1.5 1.8-.1-1.3-.2-2.6-.4-3.9 0-.4-.1-.8-.4-1.1-.3-.3-.7-.4-1.1-.4-2.5-.5-5-.5-7.5-.2-.4 0-.8.2-1 .5-.1.3-.2.6-.1.9.3 1 .4 2.2.4 3.5z"/><path class="prefix__st4" d="M376.6 393.5c1.2-1 4.1-1.2 5.7-1.1 1.6.1 3.2.5 4.6 1.3.4.3 1 .2 1.3-.2.4-.4.3-1-.1-1.4l-.1-.1c-1.5-1-3.3-1.6-5.2-1.6-3.9-.1-5 .7-5 .7s-1.6 1.2-1.2 2.4zM373.9 397.2c1.6-1 4.8-1.1 6.4-1 1.6.1 3.1.6 4.5 1.4.4.3 1 .2 1.3-.2.4-.4.3-1-.1-1.4 0 0-.1 0-.1-.1-1.6-1.1-3.4-1.7-5.3-1.8-3.9-.1-4.9.8-4.9.8-1 .5-1.6 1.3-1.8 2.3zM384.3 386.6c-1.7-.2-3.3 0-4.9.7-.7.4-1.1 1.5-.6 1.8 1.3-.6 2.8-.9 4.3-.8 1.5.1 2.9.4 4.3.9.4.1.7.3 1.1.5.5.2 1 0 1.2-.4.2-.4 0-.9-.4-1.1-1.5-1-3.2-1.5-5-1.6z"/><path class="prefix__st5" d="M315.2 391.6c-.3 1-.2 2.1.3 3.1.5.9 5.4 3.3 11.7 2.5 4.7-.6 9.2-2.4 13-5.3 2.4-1.7 4.9-2.2 8-2.5s5.5-1.5 6.1-3-.3-4-.3-4l-38.8 9.2z"/><path class="prefix__st0" d="M339.9 371.4c-.6-.1-1.1-.3-1.7-.5-.3-.1-.6-.1-1-.1-.4.2-.6.7-.6 1.1-.1 1-.3 1.9-.5 2.8-.4.8-1 1.4-1.7 2-1.5 1.4-3.2 2.6-4.9 3.6-2 1.2-4 2.2-6.1 3.3s-5 1.9-6.7 3.1c-2.4 1.8-2.5 6.1.4 7.6 2.5 1.3 9.1 2.5 15.8.2 3.6-1.2 7.5-5.4 12.4-6.1 3.1-.4 7.2-.9 9-3.3.7-1.1.1-4.1-.5-7.7-.5-3.2-.9-8.2-2-7.9 0 0-.4 1.2-.5 1.3-.3.4-.5.8-.9 1.1-.3.3-.6.6-.9.8-.3.4-.7.8-1.1 1.1-.5.4-1.1.7-1.8.7-.3 0-.6 0-.9-.2-.5-.3-.6-1-1-1.4-.5-.5-1.1-.9-1.7-1.1-.9-.3-1.8-.5-2.8-.6l-.3.2z"/><path class="prefix__st11" d="M339.9 371.4c-.6-.1-1.1-.3-1.7-.5-.3-.1-.6-.1-1-.1-.4.2-.6.7-.6 1.1-.1 1-.3 1.9-.5 2.8-.4.8-1 1.4-1.7 2-1.5 1.4-3.2 2.6-4.9 3.6-2 1.2-4 2.2-6.1 3.3s-5 1.9-6.7 3.1c-2.4 1.8-2.5 6.1.4 7.6 2.5 1.3 9.1 2.5 15.8.2 3.6-1.2 7.5-5.4 12.4-6.1 3.1-.4 7.2-.9 9-3.3.7-1.1.1-4.1-.5-7.7-.5-3.2-.9-8.2-2-7.9 0 0-.4 1.2-.5 1.3-.3.4-.5.8-.9 1.1-.3.3-.6.6-.9.8-.3.4-.7.8-1.1 1.1-.5.4-1.1.7-1.8.7-.3 0-.6 0-.9-.2-.5-.3-.6-1-1-1.4-.5-.5-1.1-.9-1.7-1.1-.9-.3-1.8-.5-2.8-.6l-.3.2z"/><path class="prefix__st4" d="M332.3 378.5c.4-.9 1.2-1.5 2.2-1.7 1.4-.3 3.9.6 5.5 1.8.5.4.6 1.1.3 1.6l-.3.3c-.4.3-.9.2-1.3-.1-1.9-1.4-4.1-2.1-6.4-1.9zM328.1 381.2c.6-.9 1.6-1.5 2.6-1.5 0 0 3.7-.1 6.1 1.9.5.4.6 1.1.2 1.6l-.3.3c-.4.3-.9.2-1.3-.1-2-1.9-4.7-2.7-7.3-2.2zM323.4 383.6c.7-.8 1.7-1.4 2.7-1.4 2.1 0 4.1.7 5.8 1.9.5.4.6 1.1.2 1.6l-.3.3c-.4.2-.9.2-1.3-.1-1.8-1.8-4.5-2.7-7.1-2.3zM333.6 233.4c-.2 14.6.8 63.9 1.1 71.2.3 6.4 1.4 69.8 1.4 69.8 7.4 2.3 17.5-.1 17.5-.1s5.1-39.5 5.5-46.5c.2-6.4-.1-12.9-1-19.3l3.8-40.3s4.1 30.2 6.1 43.4c2.3 15.1 10.8 73.2 10.8 73.2 6.8 2.6 16.3-1.1 16.3-1.1s-.5-45.1-1.2-60.5c-.5-10.6-3.4-15.7-3.8-18.7 0 0-1.5-55-1.6-68.9-.1-9.3-1.1-19.6-1.1-19.6s-10.2.8-11.1-2.1 0-31.5.4-37.1c0 0-21.4-4.8-40-1.2 0-.1-2.9 43.2-3.1 57.8z"/><path class="prefix__st2" d="M376.8 221.8c-.1 9.7 1.6 15.7 4.2 17.8s7.7 1.9 7.7 1.9v-1.4s-4.8.7-7-1.5-4.2-5.5-4.9-16.8zM343.8 185.8s11.1 0 21.7.7c0 0 .1 8.1-.8 11.1s-7.9 7.4-10.8 7.4c-2.5 0-9.5-5-10.1-7.6s0-11.6 0-11.6zM361.8 268.2l-1-6.2c-3-.5-10.7-5.2-15.3-9.5 3.2 4.9 7.6 9 12.8 11.8l.3 39.8 3.2-35.9zM382 161.7c-2-.5-3.1-.1-4.1 2.4s-2.2 10.8-2.6 18.4c0 0-4.6.8-7.8-.5 0 0 .4-10.1 1.5-15.3.3-1.5.8-3 1.5-4.4.9-1.9 3-2.9 5-2.5l7.3 1.3-.8.6z"/><path class="prefix__st0" d="M373.2 179.2c0 1-.8 1.8-1.8 1.8s-1.8-.8-1.8-1.8.8-1.8 1.8-1.8 1.8.8 1.8 1.8z"/><path class="prefix__st2" d="M355.2 159c-3.3.1-6.2 2.1-7.4 5.1-1.5 3.8-1.5 12.4-1.6 16.6-2.3.9-4.9.9-7.2 0 0 0 0-13.4 2.3-17.9s6.7-4.7 9-4.9c1.6-.1 3.3-.1 4.9 0v1.1z"/><path class="prefix__st0" d="M344.6 177.7c0 1-.8 1.8-1.8 1.8s-1.8-.8-1.8-1.8.8-1.8 1.8-1.8 1.8.8 1.8 1.8z"/></g></g><g id="prefix__freepik--error-500--inject-70"><g id="prefix__freepik--speech-bubble--inject-70"><g id="prefix__freepik--Text--inject-70"><path class="prefix__st0" d="M192 112.9l.9 1.2c.3.4.7.8 1.2 1 .5.3 1.1.4 1.7.3.8-.1 1.6-.4 2.4-.8.9-.5 1.6-1.1 2.3-1.9.8-.8 1.4-1.7 2-2.6.6-1 1.1-2.1 1.4-3.2.3-1.2.5-2.5.5-3.7 0-2-.5-3.4-1.6-4.1s-2.5-.5-4.2.5c-.6.3-1.1.8-1.6 1.3s-.9 1-1.4 1.5l-1.1 1.4c-.2.3-.5.6-.9.9l-9.1 5.3c-.3.3-.8.3-1.2 0-.3-.4-.5-1-.4-1.5l1.8-33.3c0-.7.2-1.4.5-2 .2-.6.6-1.1 1.1-1.4l25.1-14.5c.3-.3.8-.2 1.1.1.3.4.5.9.5 1.4v9.6c0 .7-.2 1.4-.5 2-.2.6-.6 1-1.1 1.4l-17.1 9.8-.4 8.3c.7-1 1.5-2 2.4-2.9.9-.9 1.9-1.7 3-2.3 1.9-1.2 4.1-1.9 6.3-2.2 1.8-.2 3.5.3 5 1.2 1.6 1.2 2.8 2.9 3.4 4.8.9 2.7 1.3 5.6 1.2 8.4 0 3.5-.4 7-1.3 10.3-.8 3.2-2.1 6.2-3.6 9.1-1.5 2.7-3.3 5.2-5.4 7.4-2 2.1-4.2 3.9-6.7 5.3-2.2 1.4-4.6 2.2-7.1 2.5-1.9.2-3.7-.2-5.3-1.2-1.5-1-2.7-2.5-3.4-4.2-.8-2.1-1.2-4.3-1.2-6.5 0-.6.1-1.1.4-1.6.2-.5.5-.8.9-1.1l7.5-4.3c.6-.4 1.1-.5 1.4-.3l.6.6zM237.7 41.2c2.9-1.7 5.5-2.5 7.6-2.4 2 0 3.9.9 5.3 2.3 1.5 1.7 2.6 3.8 3.1 6 .7 2.8 1.1 5.7 1.2 8.7.1 2.6.1 5.2.1 8.1 0 2.8 0 5.5-.1 8-.1 3.4-.5 6.7-1.2 10.1-.7 3.3-1.7 6.5-3.1 9.6-1.4 3-3.1 5.8-5.3 8.4-2.1 2.6-4.7 4.7-7.6 6.4-2.9 1.7-5.5 2.5-7.6 2.4-2 0-3.9-.9-5.2-2.3-1.5-1.7-2.6-3.8-3.1-6-.7-2.8-1.1-5.7-1.2-8.7-.1-2.4-.1-5-.1-7.8s0-5.6.1-8.2c.1-3.4.5-6.7 1.2-10s1.7-6.5 3.1-9.6c1.4-3 3.1-5.8 5.3-8.4 2.1-2.8 4.6-4.9 7.5-6.6zm6.3 36.5c.2-5.2.2-10.3 0-15.2-.1-1.3-.2-2.6-.4-3.9-.1-1-.5-1.9-1-2.7-.4-.6-1.1-1-1.9-1.1-1 0-2.1.3-2.9.9-1.1.6-2.1 1.5-2.9 2.5-.8 1-1.4 2.1-1.9 3.3-.5 1.3-.8 2.6-1.1 3.9-.2 1.5-.3 2.9-.4 4.4-.2 5.1-.2 10.2 0 15.2 0 1.3.2 2.6.4 3.9.1 1 .5 1.9 1.1 2.7.4.6 1.1 1 1.9 1.1 1 0 2.1-.3 2.9-.9 1.1-.6 2.1-1.5 2.9-2.5.8-1 1.4-2.1 1.9-3.3.5-1.3.9-2.6 1-3.9.2-1.4.3-2.9.4-4.4zM278.1 17.9c2.9-1.7 5.5-2.5 7.6-2.4 2 .1 3.9.9 5.3 2.3 1.5 1.7 2.6 3.8 3.1 6 .7 2.8 1.1 5.7 1.2 8.7.1 2.6.1 5.2.1 8.1 0 2.8 0 5.5-.1 8-.1 3.4-.5 6.7-1.2 10s-1.7 6.5-3.1 9.6c-1.4 3-3.1 5.8-5.3 8.4-2.1 2.6-4.7 4.7-7.6 6.4-2.9 1.7-5.5 2.5-7.6 2.4-2-.1-3.9-.9-5.3-2.3-1.5-1.7-2.6-3.8-3.1-6-.7-2.8-1.1-5.7-1.2-8.7-.1-2.4-.1-5.1-.1-7.9 0-2.8 0-5.6.1-8.2.1-3.4.5-6.7 1.2-10s1.7-6.5 3.1-9.6c1.4-3 3.1-5.8 5.3-8.4 2.1-2.7 4.7-4.8 7.6-6.4zm6.3 36.5c.2-5.2.2-10.3 0-15.2-.1-1.3-.2-2.6-.4-3.9-.1-1-.5-1.9-1-2.7-.4-.6-1.1-1.1-1.9-1.1-1 0-2.1.3-2.9.9-1.1.6-2.1 1.5-3 2.5-.8 1-1.4 2.1-1.9 3.3-.5 1.3-.8 2.6-1 3.9-.2 1.5-.4 2.9-.4 4.4-.2 5.1-.2 10.2 0 15.2 0 1.3.1 2.6.4 3.9.1 1 .5 1.9 1.1 2.7.4.6 1.1 1 1.9 1.1 1 0 2.1-.3 2.9-.9 1.1-.6 2.1-1.5 2.9-2.5.8-1 1.4-2.1 1.9-3.3.5-1.2.8-2.5 1.1-3.8l.3-4.5z"/><path class="prefix__st4" d="M214.7 169.1c.1-.1.3-.1.4 0 .1.1.2.3.2.5v3.4c0 .2-.1.5-.2.7-.1.2-.2.4-.4.5l-9.9 5.7c-.1.1-.3.1-.4 0-.1-.1-.2-.3-.2-.5v-20.7c0-.2.1-.5.2-.7.1-.2.2-.4.4-.5l9.7-5.6c.1-.1.3-.1.4 0 .1.1.2.3.2.5v3.4c0 .2-.1.5-.2.7-.1.2-.2.4-.4.5l-6.4 3.7v3.5l5.9-3.4c.1-.1.3-.1.4 0 .1.1.2.3.2.5v3.4c0 .2-.1.5-.2.7-.1.2-.2.4-.4.5l-5.9 3.4v3.6l6.6-3.8zM223.9 146.5c.8-.5 1.6-.8 2.5-1 .6-.1 1.3 0 1.8.3.6.4 1 1 1.2 1.6.3 1 .4 2 .4 3 0 1.5-.2 3-.6 4.4-.4 1.3-1 2.4-1.8 3.5l2.6 6.1c0 .1.1.2.1.3 0 .2-.1.4-.1.6-.1.2-.2.3-.3.4l-2.8 1.6c-.3.2-.5.2-.6.1-.1-.1-.2-.3-.3-.4l-2.3-5.5-1.9 1.1v6.9c0 .2-.1.5-.2.7-.1.2-.2.4-.4.5l-2.7 1.6c-.1.1-.3.1-.4 0-.1-.1-.2-.3-.2-.5V151c0-.2.1-.5.2-.7.1-.2.2-.4.4-.5l5.4-3.3zm-2.4 11.1l2.4-1.4c.6-.3 1.1-.8 1.4-1.4.4-.7.6-1.4.6-2.2 0-.9-.2-1.4-.6-1.5-.5-.1-1 0-1.4.3l-2.4 1.4v4.8zM238.3 138.2c.8-.5 1.6-.8 2.5-1 .6-.1 1.3 0 1.8.3.6.4 1 1 1.2 1.6.3 1 .4 2 .4 3 0 1.5-.2 3-.6 4.4-.4 1.3-1 2.4-1.8 3.5l2.6 6.1c0 .1.1.2.1.3 0 .2 0 .4-.1.6-.1.2-.2.3-.3.4l-2.8 1.6c-.3.2-.5.2-.6.1-.1-.1-.2-.3-.3-.4l-2.3-5.5-1.9 1.1v6.9c0 .2-.1.5-.2.7-.1.2-.2.4-.4.5l-2.7 1.6c-.1.1-.3.1-.4 0-.1-.1-.2-.3-.2-.5v-20.7c0-.2.1-.5.2-.7.1-.2.2-.4.4-.5l5.4-3.4zm-2.3 11.1l2.4-1.4c.6-.3 1.1-.8 1.4-1.4.4-.7.6-1.4.6-2.2 0-.9-.2-1.4-.6-1.5-.5-.1-1 0-1.4.3l-2.4 1.4v4.8zM246.1 142.1c0-1.2.2-2.5.5-3.7.3-1.2.7-2.4 1.3-3.5.5-1.1 1.2-2.1 2-3 .8-.9 1.7-1.7 2.7-2.3.8-.5 1.7-.8 2.7-.9.7 0 1.4.2 2 .7.6.5 1 1.2 1.3 2 .3 1 .5 2 .5 3.1v5.8c0 1.2-.2 2.5-.5 3.7-.3 1.2-.7 2.4-1.3 3.5-.5 1.1-1.2 2.1-2 3-.8.9-1.7 1.7-2.7 2.2-.8.5-1.7.8-2.7.9-.7 0-1.4-.2-2-.7-.6-.5-1-1.2-1.3-2-.3-1-.5-2-.5-3.1V145v-2.9zm9.2.2V141v-1.4-1.4-1.2c0-.5-.1-.9-.2-1.4-.1-.3-.3-.6-.5-.9-.2-.2-.5-.3-.8-.3-.4 0-.8.1-1.1.4-.4.2-.8.6-1.1.9-.3.4-.6.8-.8 1.2-.2.5-.4 1-.5 1.5-.1.5-.2 1.1-.2 1.6v5.3c0 .8.2 1.6.7 2.2.4.5 1.1.4 1.9-.1.9-.5 1.5-1.3 1.9-2.2.3-.8.6-1.8.7-2.9zM267.7 121.2c.8-.5 1.6-.8 2.5-1 .6-.1 1.3 0 1.8.3.6.4 1 1 1.2 1.6.3 1 .4 2 .4 3 0 1.5-.2 3-.6 4.4-.4 1.3-1 2.4-1.8 3.5l2.6 6.1c0 .1.1.2.1.3 0 .2-.1.4-.1.6-.1.2-.2.3-.3.4l-2.9 1.7c-.3.2-.5.2-.6.1-.1-.1-.2-.3-.3-.4l-2.3-5.5-1.9 1.1v6.9c0 .2-.1.5-.2.7-.1.2-.2.4-.4.5l-2.7 1.6c-.1.1-.3.1-.4 0-.1-.1-.2-.3-.2-.5v-20.7c0-.2.1-.5.2-.7.1-.2.2-.4.4-.5l5.5-3.5zm-2.3 11.1l2.4-1.4c.6-.3 1.1-.8 1.5-1.4.4-.7.6-1.4.6-2.2 0-.9-.2-1.4-.6-1.5-.5-.1-1 0-1.5.3l-2.4 1.4v4.8zM182.1 161.8c-.1.1-.2.1-.2 0-.1-.1-.1-.2-.1-.3v-12c0-.1 0-.3.1-.4 0-.1.1-.2.2-.3l1.6-.9c.1-.1.2-.1.2 0 .1.1.1.2.1.3v12c0 .1 0 .3-.1.4 0 .1-.1.2-.2.3l-1.6.9zM191.5 156.4c-.1.1-.2.1-.3 0-.1 0-.1-.1-.2-.2l-2.8-4.7v6.3c0 .1 0 .3-.1.4 0 .1-.1.2-.2.3l-1.6.9c-.1.1-.2.1-.2 0-.1-.1-.1-.2-.1-.3v-12c0-.1 0-.3.1-.4 0-.1.1-.2.2-.3l1.2-.7c.1-.1.2-.1.3 0 .1 0 .1.1.2.2l2.8 4.7v-6.3c0-.1 0-.3.1-.4 0-.1.1-.2.2-.3l1.6-.9c.1-.1.2-.1.2 0 .1.1.1.2.1.3v12c0 .1 0 .3-.1.4 0 .1-.1.2-.2.3l-1.2.7zM201.2 137.8c.1-.1.2-.1.2 0 .1.1.1.2.1.3v2c0 .1 0 .3-.1.4 0 .1-.1.2-.2.3l-2.1 1.2v9.5c0 .1 0 .3-.1.4 0 .1-.1.2-.2.3l-1.6.9c-.1.1-.2.1-.2 0-.1-.1-.1-.2-.1-.3v-9.5l-2.1 1.2c-.1.1-.2.1-.2 0-.1-.1-.1-.2-.1-.3v-2c0-.1 0-.3.1-.4 0-.1.1-.2.2-.3l6.4-3.7zM208.9 143.4c.1-.1.2-.1.2 0 .1.1.1.2.1.3v2c0 .1 0 .3-.1.4 0 .1-.1.2-.2.3l-5.7 3.3c-.1.1-.2.1-.2 0-.1-.1-.1-.2-.1-.3v-12c0-.1 0-.3.1-.4 0-.1.1-.2.2-.3l5.6-3.2c.1-.1.2-.1.2 0 .1.1.1.2.1.3v2c0 .1 0 .3-.1.4 0 .1-.1.2-.2.3l-3.7 2.1v2l3.4-2c.1-.1.2-.1.2 0 .1.1.1.2.1.3v2c0 .1 0 .3-.1.4 0 .1-.1.2-.2.3l-3.4 2v2.1l3.8-2.3zM214.5 130.2c.4-.3.9-.5 1.4-.6.4-.1.7 0 1.1.2.3.2.6.6.7.9.2.6.3 1.2.2 1.8 0 .9-.1 1.7-.4 2.5-.2.7-.6 1.4-1.1 2l1.5 3.6v.2c0 .1 0 .2-.1.3 0 .1-.1.2-.2.2l-1.6.9c-.2.1-.3.1-.3 0-.1-.1-.1-.2-.2-.2l-1.3-3.1-1.1.6v4c0 .1 0 .3-.1.4 0 .1-.1.2-.2.3l-1.6.9c-.1.1-.2.1-.2 0-.1-.1-.1-.2-.1-.3v-12c0-.1 0-.3.1-.4 0-.1.1-.2.2-.3l3.3-1.9zm-1.4 6.3l1.4-.8c.3-.2.6-.5.8-.8.2-.4.4-.8.3-1.3 0-.5-.1-.8-.3-.9-.3-.1-.6 0-.8.2l-1.4.8v2.8zM225 137c-.1.1-.2.1-.3 0-.1 0-.1-.1-.2-.2l-2.8-4.7v6.3c0 .1 0 .3-.1.4 0 .1-.1.2-.2.3l-1.6.9c-.1.1-.2.1-.2 0-.1-.1-.1-.2-.1-.3v-12c0-.1 0-.3.1-.4 0-.1.1-.2.2-.3l1.2-.7c.1-.1.2-.1.3 0 .1 0 .1.1.2.2l2.8 4.7v-6.3c0-.1 0-.3.1-.4 0-.1.1-.2.2-.3l1.6-.9c.1-.1.2-.1.2 0 .1.1.1.2.1.3v11.9c0 .1 0 .3-.1.4 0 .1-.1.2-.2.3l-1.2.8zM233 119.4c.1-.1.3-.1.4 0 .1.1.1.2.2.3l2.6 10.1v.2c0 .1 0 .2-.1.3 0 .1-.1.2-.2.2l-1.5.9c-.2.1-.3.1-.3 0-.1-.1-.1-.1-.1-.2l-.3-1.3-3.2 1.9-.3 1.7c0 .1-.1.3-.1.4-.1.1-.2.3-.3.4l-1.5.9h-.2c-.1-.1-.1-.2-.1-.2v-.3l2.6-13.2c0-.2.1-.3.2-.5s.2-.3.4-.4l1.8-1.2zm-1.9 9.3l2-1.1-1-3.9-1 5zM243.5 123.4c.1-.1.2-.1.2 0 .1.1.1.2.1.3v2c0 .1 0 .3-.1.4 0 .1-.1.2-.2.3l-5.6 3.2c-.1.1-.2.1-.2 0-.1-.1-.1-.2-.1-.3v-12c0-.1 0-.3.1-.4 0-.1.1-.2.2-.3l1.6-.9c.1-.1.2-.1.2 0 .1.1.1.2.1.3v9.5l3.7-2.1zM250.8 109c.4-.3.9-.4 1.4-.5.4 0 .8.1 1.1.2.3.2.6.4.7.8.2.3.3.7.3 1.1 0 .1 0 .2-.1.3-.1.1-.1.2-.2.2l-1.6.9c-.1.1-.2.1-.3.1-.1 0-.2 0-.2-.1l-.1-.1c-.1-.1-.1-.1-.2-.1h-.4c-.2 0-.4.1-.5.2-.2.1-.3.2-.4.3-.1.1-.3.2-.4.4-.1.1-.2.3-.3.4-.1.2-.1.3-.1.5 0 .1 0 .3.1.4.1.1.2.1.4.1s.5 0 .7-.1l1.1-.3c.4-.1.8-.2 1.2-.2.3 0 .6.1.8.3.2.2.4.5.5.8.1.5.2.9.2 1.4 0 .6-.1 1.2-.3 1.9-.2.6-.4 1.2-.8 1.7-.3.5-.7 1-1.2 1.5-.4.4-.9.8-1.5 1.1-.5.3-1 .5-1.5.5-.4 0-.8 0-1.2-.2-.3-.2-.6-.5-.7-.9-.2-.4-.3-.8-.3-1.2 0-.1 0-.2.1-.3 0-.1.1-.2.2-.2l1.6-.9c.1-.1.2-.1.3-.1.1 0 .1 0 .2.1l.1.2c.1.1.2.1.3.2.1.1.3.1.4.1.2 0 .4-.1.6-.2.4-.2.8-.5 1.1-.8.3-.3.4-.6.4-1 0-.2 0-.3-.2-.4-.1-.1-.3-.1-.5-.1-.3 0-.5.1-.8.2l-1.1.3c-.6.2-1.3.1-1.8-.3-.4-.6-.7-1.4-.6-2.2 0-.6.1-1.1.2-1.7.2-.6.4-1.1.7-1.7.3-.5.7-1 1.1-1.5.5-.4.9-.8 1.5-1.1zM262.1 112.7c.1-.1.2-.1.2 0 .1.1.1.2.1.3v2c0 .1 0 .3-.1.4 0 .1-.1.2-.2.3l-5.7 3.3c-.1.1-.2.1-.2 0-.1-.1-.1-.2-.1-.3v-12c0-.1 0-.3.1-.4 0-.1.1-.2.2-.3l5.6-3.2c.1-.1.2-.1.2 0 .1.1.1.2.1.3v2c0 .1 0 .3-.1.4 0 .1-.1.2-.2.3l-3.7 2.1v2l3.4-2c.1-.1.2-.1.2 0 .1.1.1.2.1.3v2c0 .1 0 .3-.1.4 0 .1-.1.2-.2.3l-3.4 2v2.1l3.8-2.3zM267.6 99.5c.4-.3.9-.5 1.4-.6.4-.1.7 0 1.1.2.3.2.6.6.7.9.2.6.2 1.2.2 1.7 0 .9-.1 1.7-.4 2.5-.2.7-.6 1.4-1 2l1.5 3.5v.2c0 .1 0 .2-.1.3 0 .1-.1.2-.2.2l-1.6 1c-.2.1-.3.1-.4 0-.1-.1-.1-.2-.2-.2l-1.3-3.2-1.1.6v4c0 .1 0 .3-.1.4 0 .1-.1.2-.2.3l-1.6.9c-.1.1-.2.1-.2 0-.1-.1-.1-.2-.1-.3v-12c0-.1 0-.3.1-.4 0-.1.1-.2.2-.3l3.3-1.7zm-1.3 6.3l1.4-.8c.3-.2.6-.5.8-.8.2-.4.4-.8.3-1.3 0-.5-.1-.8-.3-.9-.3-.1-.6 0-.8.2l-1.4.8v2.8zM275 108.2c-.3.2-.5.1-.6-.4l-2.5-10.2V97.3c0-.1 0-.2.1-.3 0-.1.1-.2.2-.2l1.5-.9c.2-.1.3-.1.3 0 .1.1.1.1.1.2l1.7 7.2 1.7-9.1c0-.1.1-.3.1-.4.1-.2.2-.3.4-.4l1.5-.9h.2c.1.1.1.2.1.2V93l-2.5 13c0 .4-.3.8-.6 1.1l-1.7 1.1zM287.1 98.2c.1-.1.2-.1.2 0 .1.1.1.2.1.3v2c0 .1 0 .3-.1.4 0 .1-.1.2-.2.3l-5.7 3.3c-.1.1-.2.1-.2 0-.1-.1-.1-.2-.1-.3v-12c0-.1 0-.3.1-.4 0-.1.1-.2.2-.3l5.6-3.2c.1-.1.2-.1.2 0 .1.1.1.2.1.3v2c0 .1 0 .3-.1.4 0 .1-.1.2-.2.3l-3.7 2.1v2l3.4-2c.1-.1.2-.1.2 0 .1.1.1.2.1.3v2c0 .1 0 .3-.1.4 0 .1-.1.2-.2.3l-3.4 2v2.1l3.8-2.3zM292.7 85c.4-.3.9-.5 1.4-.6.4-.1.7 0 1.1.2.3.2.6.6.7.9.2.6.3 1.2.2 1.7 0 .9-.1 1.7-.4 2.5-.2.7-.6 1.4-1.1 2l1.5 3.5v.2c0 .1 0 .2-.1.3 0 .1-.1.2-.2.2l-1.6.9c-.2.1-.3.1-.3 0-.1-.1-.1-.2-.2-.2l-1.3-3.2-1.1.6v4c0 .1 0 .3-.1.4 0 .1-.1.2-.2.3l-1.6.9c-.1.1-.2.1-.2 0-.1-.1-.1-.2-.1-.3v-12c0-.1 0-.3.1-.4 0-.1.1-.2.2-.3l3.3-1.6zm-1.3 6.4l1.4-.8c.3-.2.6-.5.8-.8.2-.4.3-.8.3-1.3s-.1-.8-.3-.9c-.3-.1-.6 0-.8.2l-1.4.8v2.8z"/></g><path class="prefix__st4" d="M223.5 181.2c-.6-.5-1.5-.5-2.1.1l-.1.1c-.7.8-.7 3.4-1 5.1-.3 1.8-.9 3.6-1.7 5.3-1.4 2.9-3.4 5.6-5.7 7.9-3.2 3.1-6.9 5.5-10.9 7.3-1.4.6-2.8 1.1-4.2 1.5-1.4.4-3.4.4-4.6 1.2-.2.2-.2.4 0 .6 1.5.6 3.3.4 4.9.1 2-.3 3.9-.8 5.8-1.6 3.8-1.5 7.4-3.6 10.4-6.4 3.1-2.6 5.6-5.7 7.4-9.3 1-1.9 1.7-3.9 2.1-6.1.2-1.1.4-2.2.4-3.3.3-.7 0-1.7-.7-2.5z"/></g></g></svg>