<svg xmlns="http://www.w3.org/2000/svg" viewBox="0 0 200 200"><path fill="#fff" d="M16.7 16.7h166.6v166.6H16.7z"/><path d="M185.1 0H14.8C6.7 0 0 6.7 0 14.8v170.4c0 8.1 6.7 14.8 14.8 14.8h170.4c8.1 0 14.8-6.7 14.8-14.8V14.8C199.9 6.7 193.2 0 185.1 0zM59.6 170.3h-30V74.8h30v95.5zM44.5 61.6c-9.6 0-17.2-7.9-17.2-17.3 0-9.6 7.9-17.2 17.3-17.2s17.2 7.7 17.2 17.3c.2 9.4-7.3 17-16.8 17.2h-.5zm125.8 108.7h-30v-52.1c0-15.3-6.5-20.1-14.9-20.1-8.9 0-17.7 6.7-17.7 20.5v51.7h-30V74.9h28.9v13.2h.4c2.9-5.9 13.1-15.9 28.5-15.9 16.8 0 34.9 10 34.9 39v59h-.1z" fill="#0082be"/></svg>