<svg xmlns="http://www.w3.org/2000/svg" viewBox="0 0 856 1228.4"><path d="M235.7 910c37.9 47.4 76.5 107 96.7 143 24.6 46.8 34.8 78.4 53.1 135 10.7 31 20.9 40.4 42.3 40.4 23.4 0 34.1-15.8 42.3-40.4 17.1-53.1 30.3-93.5 51.2-132 80.6-152 212-260 286-408 0 0 48.7-90.4 48.7-217 0-118-48-200-48-200L236 911z" fill="#34a853"/><path d="M41.7 632c46.1 105 134 197 194 278l318-377s-44.9 58.8-126 58.8c-90.4 0-164-72-164-163 0-62.6 37.3-106 37.3-106-234 34.8-221 91.5-260 309z" fill="#fbbc04"/><path d="M557.7 19.7c106 34.1 196 106 250 211l-254 303s37.3-43.6 37.3-106c0-92.9-78.4-163-163-163-80.3 0-126 58.1-126 58.1 19.5-44.4 221-288 256-303z" fill="#4285f4"/><path d="M99.7 153c63.2-75.2 174-153 327-153 73.9 0 130 19.6 130 19.6l-255 303c-17.2-9.33-185-140-202-170z" fill="#1a73e8"/><path d="M41.7 632S0 549.2 0 430c0-113 44.2-212 100-276l202 170L42 632z" fill="#ea4335"/></svg>