<svg xmlns="http://www.w3.org/2000/svg" viewBox="0 0 31.9 19.2"><path d="M30.8 19.2H1.2A1.2 1.2 0 010 18.1V1.2A1.2 1.2 0 011.2 0h29.5a1.2 1.2 0 011.2 1.1V18a1.1 1.1 0 01-.9 1.2z" fill="#fff"/><path d="M1.2 11.6L1.8 9c.4-1.4.8-2.7.8-2.9v-.3h1.7a6.5 6.5 0 012.3.2 1.1 1.1 0 01.5 1.3 2.4 2.4 0 01-1 1.4l-.2.2.2.2.2.3a1.7 1.7 0 01-.1 1c0 .3-.1.6-.1.8v.4H4.6c-.1 0-.1-.2.1-.7s.1-.9 0-1-.3-.2-.8-.2h-.6c-.1.1-.2.3-.4 1.2l-.2.8H1.2zM5 8.3c.4-.1.5-.3.5-.8v-.2c-.1-.2-.5-.2-1.1-.2h-.5v.3c0 .3-.1.6-.1.9H5zm2.5 3.4a1 1 0 01-.5-.4c-.1-.4 0-1.1.5-3a4.4 4.4 0 00.3-.8h1.4v.4a8.5 8.5 0 00-.5 2.1c-.1.3-.1.4 0 .5s.4.2.8.1.4-.4 1-2.5a.8.8 0 01.2-.5H12l-1.1 4v.2H9.6v-.2c.2-.4 0-.4-.5-.1a1.4 1.4 0 01-1 .4zm4.3-.1a24.6 24.6 0 01.7-2.9l.8-2.9h1.3A7.3 7.3 0 0117 6l.5.5a1.7 1.7 0 010 1.4 2.8 2.8 0 01-1.7 1.8h-.9c-1.2.1-1.1.1-1.2.3l-.2.8-.2.8h-1.5zm3.4-3.1a.8.8 0 00.7-.4.8.8 0 00.1-.8c-.1-.1-.3-.2-.9-.2h-.6l-.3 1.2h1zm2.2 3.2a.8.8 0 01-.4-1.1c.2-.9.6-1.2 2.2-1.5s1.2-.2 1.2-.6-.1-.4-.6-.4a.9.9 0 00-.6.3h-1.4a1.6 1.6 0 01.4-.7l.9-.4a4.1 4.1 0 012.2 0l.5.5c.1.1.1.3-.3 1.9l-.4 1.6v.2h-1.4c-.1-.3-.1-.3-.6 0a3.5 3.5 0 01-1.1.3zm2.1-.9a1.1 1.1 0 00.5-.9v-.2h-.2a2.3 2.3 0 00-1.1.3.8.8 0 00-.2.5c0 .2 0 .2.1.3zm2.1 2.6c-.2 0-.2-.1-.1-.5s.2-.6.5-.6l.7-.3a9.3 9.3 0 00-.1-2.9V7.4c.2 0 .5-.1.7 0h.7v1.2a6.6 6.6 0 00.1 1.4 21.1 21.1 0 001.3-2.4l.2-.2h1.2L25 10.6c-1.3 2.3-1.6 2.6-2.2 2.7z" style="isolation:isolate" fill="#2a2c83" opacity=".938"/><path d="M27.2 12.9L29 6.3l1.7 3.4z" fill="#097a44"/><path d="M26.1 12.9l1.8-6.6 1.7 3.4z" fill="#f46f20"/></svg>