<svg xmlns="http://www.w3.org/2000/svg" viewBox="0 0 246.15 200.013"><path d="M220.95 49.793c.15 2.17.15 4.34.15 6.53 0 66.73-50.8 143.69-143.69 143.69v-.04A142.966 142.966 0 010 177.333a102.726 102.726 0 0012.02.73 101.407 101.407 0 0062.72-21.66 50.564 50.564 0 01-47.18-35.07 50.338 50.338 0 0022.8-.87 50.505 50.505 0 01-40.51-49.5v-.64a50.18 50.18 0 0022.92 6.32 50.564 50.564 0 01-15.63-67.43 143.333 143.333 0 00104.08 52.76 50.548 50.548 0 0186.06-46.06 101.337 101.337 0 0032.07-12.26 50.69 50.69 0 01-22.2 27.93 100.435 100.435 0 0029-7.95 102.595 102.595 0 01-25.2 26.16z" fill="#1d9bf0"/></svg>