<svg xmlns="http://www.w3.org/2000/svg" viewBox="0 0 31.6 19"><path d="M30.5 19H1.2A1.2 1.2 0 010 17.9V1.2A1.2 1.2 0 011.2 0h29.2a1.2 1.2 0 011.2 1.1v16.7a1.2 1.2 0 01-1 1.2z" fill="#fff"/><path d="M23.2 12.9h-1.5l2.1-7.5h1.5zM22.4 5.6a.6.6 0 00-.5-.2h-8.2l-.4 1.4h7.5l-.4 1.6h-7.5l-1.2 4.5h1.4l.9-3h6.7l.6-.2a1.3 1.3 0 00.4-.6l.8-3a.7.7 0 00-.1-.5zM10.8 12.4a.8.8 0 01-.7.5H2.4l-.5-.2a.6.6 0 010-.6l1.9-6.7h1.5l-1.7 6h6l1.6-6h1.5z" fill="#6d6f70"/><path fill="#0b8041" d="M27.8 5.4l1.9 3.7-3.9 3.8 2-7.5z"/><path fill="#e87626" d="M26.5 5.4l1.9 3.7-4 3.8 2.1-7.5z"/></svg>