<svg xmlns="http://www.w3.org/2000/svg" viewBox="0 0 32 32"><defs><linearGradient id="prefix__a" x1="25" y1="41" x2="25" y2="9" gradientUnits="userSpaceOnUse"><stop offset="0" stop-color="#25cf43"/><stop offset="1" stop-color="#61fd7d"/></linearGradient></defs><path d="M41 32.9v.8a11.5 11.5 0 01-.2 2.1 4.9 4.9 0 01-.6 1.7 9.1 9.1 0 01-1.1 1.6 5.7 5.7 0 01-1.6 1.1 4.9 4.9 0 01-1.7.6l-2.1.2H16.3l-2.1-.2a4.9 4.9 0 01-1.7-.6 9.1 9.1 0 01-1.6-1.1 5.7 5.7 0 01-1.1-1.6 4.9 4.9 0 01-.6-1.7 11.5 11.5 0 01-.2-2.1V16.3a11.5 11.5 0 01.2-2.1 4.9 4.9 0 01.6-1.7 9.1 9.1 0 011.1-1.6 5.7 5.7 0 011.6-1.1 4.9 4.9 0 011.7-.6l2.1-.2h17.4l2.1.2a4.9 4.9 0 011.7.6 9.1 9.1 0 011.6 1.1 5.7 5.7 0 011.1 1.6 4.9 4.9 0 01.6 1.7 11.5 11.5 0 01.2 2.1v16.6z" transform="translate(-9 -9)" fill-rule="evenodd" fill="url(#prefix__a)"/><path d="M24.4 7.7a11.1 11.1 0 00-8.1-3.4 11.3 11.3 0 00-9.8 17.1l-1.7 5.9 6.1-1.6a10.4 10.4 0 005.4 1.4 11.5 11.5 0 0011.5-11.4 11 11 0 00-3.4-8zm-8.1 17.5a10.2 10.2 0 01-4.8-1.3l-.3-.2-3.6.9.9-3.5-.2-.3a10 10 0 01-1.4-5.1A9.5 9.5 0 0123.1 9a9.8 9.8 0 012.7 6.7 9.4 9.4 0 01-9.5 9.5zm5.2-7.1l-1.9-.9c-.3-.1-.5-.2-.6.1l-.9 1.1a.5.5 0 01-.7.1 7.2 7.2 0 01-2.3-1.4 7.6 7.6 0 01-1.5-2c-.2-.3-.1-.4.1-.6l.4-.5c.2-.1.2-.2.3-.4s0-.4 0-.5l-.9-2.1c-.2-.6-.5-.5-.6-.5h-.6a1 1 0 00-.8.3 3.6 3.6 0 00-.9 2.4 5.9 5.9 0 001.1 2.9 12.7 12.7 0 004.9 4.3l1.6.6a2.8 2.8 0 001.8.1 2.3 2.3 0 001.9-1.3 1.9 1.9 0 00.2-1.4z" fill="#fff" fill-rule="evenodd"/></svg>