<svg xmlns="http://www.w3.org/2000/svg" viewBox="0 0 544 264.6"><path d="M0 176.8h8.5l5.3 19 5-19h7.8l5 19 5.3-19h8.5L35.8 206h-8.2l-4.9-18.4-4.9 18.4H9.5zM67.8 197H53c.7 3 2.9 3.9 5.9 3.9a20.2 20.2 0 006.7-1.3l1.6 5a21.3 21.3 0 01-9 2c-7.4 0-12.8-4.2-12.8-11.5s4.8-11.5 11.7-11.5S68 188 68 194.6a19.4 19.4 0 01-.2 2.4zm-15-3.9h8.4c-.2-2.3-1.5-4.1-4.2-4.1s-3.8 1.4-4.2 4.1zM80.5 195.1c0-7.3 5.6-11.5 12.5-11.5a19.8 19.8 0 018.1 1.8l-1.7 5.9a11.9 11.9 0 00-5.8-1.5c-3.4 0-5.7 1.8-5.7 5.3s2.3 5.3 5.7 5.3a11.9 11.9 0 005.8-1.5l1.7 5.9a19.8 19.8 0 01-8.1 1.8c-6.9 0-12.5-4.2-12.5-11.5zM103 195.1c0-6.9 3.8-11.5 9.5-11.5a8.8 8.8 0 017.2 3.9v-3.3h7.1V206h-7v-3.4a9.3 9.3 0 01-7.4 4c-5.6 0-9.4-4.6-9.4-11.5zm16.8 0c0-3.2-2-5.3-4.7-5.3s-4.7 2.1-4.7 5.3 1.9 5.3 4.7 5.3 4.7-2.1 4.7-5.3zM131.6 184.2h6.9v2.8a9.9 9.9 0 017.5-3.4c5 0 8.3 3.5 8.3 8.9V206h-7.1v-12a3.9 3.9 0 00-4.1-4.2 4.3 4.3 0 00-4.5 4.5V206h-7zM159.2 188.2a9.9 9.9 0 003-4.3 1.7 1.7 0 01-1.3.4c-2 0-3.4-1.6-3.4-3.9a4 4 0 014.1-4.2c2.5 0 4.2 2 4.2 5.1a10.7 10.7 0 01-4.5 8.7zM172.5 198.5v-8.3h-3.9v-6h3.9v-6.3h7.1v6.3h6.7v6h-6.7v7.8c0 1.7 1 2.4 2.7 2.4a11.3 11.3 0 004.1-.7v6.1a17.1 17.1 0 01-5.3.8c-5.7 0-8.7-2.9-8.6-8.1zM198.4 204.4l1.8-5.3a21.8 21.8 0 008.6 2.1c1.9 0 2.9-.6 2.9-1.6s-1.4-1.4-3.7-1.8c-4.4-.7-8.9-1.5-8.9-6.9s3.6-7.3 9.7-7.3a23.9 23.9 0 018.6 1.7l-2 4.9a18 18 0 00-6.5-1.4c-1.9 0-3 .5-3 1.5s1.8 1.4 3.9 1.8c4.6.8 8.6 2.1 8.6 6.7s-3.7 7.8-9.9 7.8a24.2 24.2 0 01-10.1-2.2zM243.3 197h-14.8c.7 3 2.9 3.9 5.9 3.9a20.7 20.7 0 006.8-1.3l1.6 5a22.1 22.1 0 01-9.1 2c-7.3 0-12.8-4.2-12.8-11.5s4.8-11.5 11.7-11.5 10.9 4.4 10.9 11a19.4 19.4 0 01-.2 2.4zm-15-3.9h8.4c-.2-2.3-1.5-4.1-4.1-4.1s-3.9 1.4-4.3 4.1zM268.3 197h-14.8c.7 3 2.9 3.9 5.9 3.9a20.7 20.7 0 006.8-1.3l1.6 5a22.1 22.1 0 01-9.1 2c-7.3 0-12.8-4.2-12.8-11.5s4.8-11.5 11.7-11.5 10.9 4.4 10.9 11a19.4 19.4 0 01-.2 2.4zm-15-3.9h8.4c-.2-2.3-1.5-4.1-4.1-4.1s-3.9 1.4-4.3 4.1zM272.2 184.2h7.1v2.6a8.3 8.3 0 016.8-3.2 7.5 7.5 0 017.2 4.4 8.8 8.8 0 017.8-4.4c4.9 0 8.1 3.5 8.1 8.8V206h-7v-12.1a3.8 3.8 0 00-3.8-4.1c-2.4 0-4.1 1.7-4.1 4.5V206h-7.1v-12c0-2.6-1.5-4.2-3.8-4.2s-4.1 1.8-4.1 4.5V206h-7.1zM326.3 198.5v-8.3h-3.9v-6h3.9v-6.3h7.1v6.3h6.7v6h-6.7v7.8c0 1.7 1 2.4 2.7 2.4a11.3 11.3 0 004.1-.7v6.1a17.1 17.1 0 01-5.3.8c-5.7 0-8.7-2.9-8.6-8.1zM342.2 195.1c0-6.8 5.1-11.5 12.4-11.5s12.5 4.7 12.5 11.5-5.1 11.5-12.5 11.5-12.4-4.7-12.4-11.5zm17.5 0a4.9 4.9 0 00-5.1-5.3c-3 0-5 2.1-5 5.3s2 5.4 5 5.4 5.1-2.2 5.1-5.4zM390 183.2v1h6.1v6H390V206h-7v-15.8h-3.9v-6h3.9v-1c0-5.8 3.8-8.6 8.8-8.6a16.6 16.6 0 015.3 1l-1.5 4.8a9.1 9.1 0 00-2.6-.5c-1.8 0-3 1.1-3 3.3zm8.3-5.6a3.8 3.8 0 013.9-3.8 3.7 3.7 0 013.8 3.8 3.8 3.8 0 01-3.8 4 3.9 3.9 0 01-3.9-4zm.3 6.6h7.1V206h-7.1zM410.6 184.2h7v2.8a9.9 9.9 0 017.5-3.4c5 0 8.3 3.5 8.3 8.9V206h-7.1v-12a3.9 3.9 0 00-4.1-4.2 4.3 4.3 0 00-4.5 4.5V206h-7.1zM436.9 195.1c0-6.9 3.8-11.5 9.4-11.5a9 9 0 017.3 3.9v-12.3h7.1V206h-7v-3.4a9.4 9.4 0 01-7.4 4c-5.6 0-9.4-4.6-9.4-11.5zm16.7 0c0-3.2-1.9-5.3-4.6-5.3s-4.7 2.1-4.7 5.3 1.9 5.3 4.7 5.3 4.6-2.1 4.6-5.3zM477.6 198.5v-8.3h-3.9v-6h3.9v-6.3h7.1v6.3h6.7v6h-6.7v7.8c0 1.7 1 2.4 2.7 2.4a11.3 11.3 0 004.1-.7v6.1a16.7 16.7 0 01-5.3.8c-5.6 0-8.7-2.9-8.6-8.1zM494.9 175.2h7.1V187a9.5 9.5 0 017.4-3.4c5 0 8.3 3.5 8.3 8.9V206h-7.1v-12a3.9 3.9 0 00-4.2-4.2 4.2 4.2 0 00-4.4 4.5V206h-7.1zM543.8 197H529c.8 3 3 3.9 6 3.9a20.7 20.7 0 006.7-1.3l1.6 5a22.1 22.1 0 01-9.1 2c-7.3 0-12.8-4.2-12.8-11.5s4.8-11.5 11.8-11.5 10.8 4.4 10.8 11a9.7 9.7 0 01-.2 2.4zm-15-3.9h8.4c-.2-2.3-1.5-4.1-4.1-4.1s-3.9 1.4-4.3 4.1zM21.9 234.2h7v3.4a9.4 9.4 0 017.4-4c5.6 0 9.4 4.6 9.4 11.5s-3.8 11.5-9.4 11.5a9 9 0 01-7.3-3.9V264h-7.1zm16.4 10.9c0-3.2-1.9-5.3-4.6-5.3s-4.7 2.1-4.7 5.3 1.9 5.3 4.7 5.3 4.6-2.1 4.6-5.3zM48.1 245.1c0-6.9 3.8-11.5 9.5-11.5a8.8 8.8 0 017.2 3.9v-3.3h7.1V256h-7v-3.4a9.3 9.3 0 01-7.4 4c-5.6 0-9.4-4.6-9.4-11.5zm16.8 0c0-3.2-2-5.3-4.7-5.3s-4.7 2.1-4.7 5.3 1.9 5.3 4.7 5.3 4.7-2.1 4.7-5.3zM77.9 263.1l1-5.9a16.3 16.3 0 006.6 1.4c4 0 6.5-1 6.5-4.3v-2.1c-1.5 2.3-4.5 3.3-7.3 3.3-5.5 0-9.4-4.3-9.4-10.8s3.9-11.1 9.4-11.1a9 9 0 017.4 4v-3.4h7v20.3c0 6.8-5 10.1-12.7 10.1a22.1 22.1 0 01-8.5-1.5zM92 244.7a4.5 4.5 0 00-4.6-4.9 4.9 4.9 0 000 9.8 4.5 4.5 0 004.6-4.9zM125.2 247h-14.9c.8 3 3 3.9 6 3.9a20.2 20.2 0 006.7-1.3l1.6 5a21.4 21.4 0 01-9.1 2c-7.3 0-12.8-4.2-12.8-11.5s4.8-11.5 11.8-11.5 10.8 4.4 10.8 11a19.3 19.3 0 01-.1 2.4zm-15-3.9h8.4c-.3-2.3-1.5-4.1-4.2-4.1s-3.8 1.4-4.2 4.1zM162.3 234.2L149.9 264h-7.7l3.6-7.9-9.4-21.9h7.9l5.2 13.7 5-13.7zM163.2 245.1c0-6.8 5.1-11.5 12.5-11.5s12.4 4.7 12.4 11.5-5.1 11.5-12.4 11.5-12.5-4.7-12.5-11.5zm17.5 0c0-3.2-2-5.3-5-5.3s-5.1 2.1-5.1 5.3 2 5.4 5.1 5.4 5-2.2 5-5.4zM191.8 247.7v-13.5h7.1v12a3.9 3.9 0 004.2 4.2 4.2 4.2 0 004.4-4.5v-11.7h7.1V256h-7.1v-2.8a9.5 9.5 0 01-7.4 3.4c-5 0-8.3-3.5-8.3-8.9zM220.1 238.2a9.9 9.9 0 003-4.3 1.8 1.8 0 01-1.3.4c-2 0-3.4-1.6-3.4-3.9a3.9 3.9 0 014-4.2c2.5 0 4.2 2 4.2 5.1a10.8 10.8 0 01-4.4 8.7zM246.9 233.6v7.2a10.3 10.3 0 00-2.2-.2c-4 0-6.3 2.2-6.3 5.6v9.8h-7.1v-21.8h7.1v3a10.1 10.1 0 018.5-3.6zM271 247h-14.9c.8 3 3 3.9 6 3.9a20.2 20.2 0 006.7-1.3l1.6 5a21.4 21.4 0 01-9.1 2c-7.3 0-12.8-4.2-12.8-11.5s4.8-11.5 11.8-11.5 10.8 4.4 10.8 11a19.3 19.3 0 01-.1 2.4zm-15-3.9h8.4c-.3-2.3-1.5-4.1-4.2-4.1s-3.8 1.4-4.2 4.1zM285 225.2h7.1V256H285zM295.7 245.1c0-6.8 5.1-11.5 12.5-11.5s12.4 4.7 12.4 11.5-5.1 11.5-12.4 11.5-12.5-4.7-12.5-11.5zm17.6 0a4.9 4.9 0 00-5.1-5.3c-3.1 0-5.1 2.1-5.1 5.3s2 5.4 5.1 5.4 5.1-2.2 5.1-5.4zM323 245.1c0-6.8 5.1-11.5 12.5-11.5s12.4 4.7 12.4 11.5-5.1 11.5-12.4 11.5-12.5-4.7-12.5-11.5zm17.6 0a5.1 5.1 0 10-10.2 0c0 3.2 2.1 5.4 5.1 5.4s5.1-2.2 5.1-5.4zM361.3 248l-2.6 2.5v5.5h-7v-30.8h7v17l8.4-8h8.4l-8.9 9.1 9.7 12.7h-8.6zM377.6 227.6a3.8 3.8 0 013.9-3.8 3.9 3.9 0 013.9 3.8 3.9 3.9 0 01-3.9 4 3.9 3.9 0 01-3.9-4zm.3 6.6h7.1V256h-7.1zM389.9 234.2h7v2.8a9.9 9.9 0 017.5-3.4c5 0 8.3 3.5 8.3 8.9V256h-7.1v-12a3.9 3.9 0 00-4.1-4.2 4.3 4.3 0 00-4.5 4.5V256h-7.1zM418.7 263.1l1.1-5.9a15.9 15.9 0 006.5 1.4c4.1 0 6.5-1 6.5-4.3v-2.1c-1.4 2.3-4.4 3.3-7.2 3.3-5.5 0-9.4-4.3-9.4-10.8s3.9-11.1 9.4-11.1a8.8 8.8 0 017.3 4v-3.4h7v20.3c0 6.8-5 10.1-12.6 10.1a22.6 22.6 0 01-8.6-1.5zm14.1-18.4a4.6 4.6 0 10-4.6 4.9 4.5 4.5 0 004.6-4.9zM464.1 233.2v1h6.1v6h-6.1V256h-7v-15.8h-3.9v-6h3.9v-1c0-5.5 3.4-8.6 9.4-8.6a19.3 19.3 0 016 1l-1.6 5a10.3 10.3 0 00-3.2-.7c-2.3 0-3.6 1.2-3.6 3.3zM472.1 245.1c0-6.8 5.2-11.5 12.5-11.5s12.5 4.7 12.5 11.5-5.2 11.5-12.5 11.5-12.5-4.7-12.5-11.5zm17.6 0a5.1 5.1 0 10-10.2 0c0 3.2 2.1 5.4 5.1 5.4s5.1-2.2 5.1-5.4zM516.3 233.6v7.2a9.5 9.5 0 00-2.1-.2c-4.1 0-6.3 2.2-6.3 5.6v9.8h-7.1v-21.8h7.1v3a9.8 9.8 0 018.4-3.6zM515.4 252.3a3.9 3.9 0 014.1-4.1 4.1 4.1 0 110 8.2 3.9 3.9 0 01-4.1-4.1zM44.9 57c0-33 25.1-57 59.6-57s59.4 24 59.4 57-24.9 57-59.4 57-59.6-24-59.6-57zm89.7 0c0-18.3-12.7-31.5-30.1-31.5S74.3 38.7 74.3 57s12.6 31.5 30.2 31.5 30.1-13.2 30.1-31.5zM173.6 70.8c0-25.4 19.2-43.1 46.8-43.1s46.7 17.7 46.7 43.1-19.2 43.2-46.7 43.2-46.8-17.7-46.8-43.2zm65.9 0c0-11.9-7.8-20-19.1-20s-19 8.1-19 20S209 91 220.4 91s19.1-8.2 19.1-20.2zM281 30h26.1v12.9c5.6-8.9 17.3-15.2 27.6-15.2 21.2 0 35.4 17.4 35.4 43.2S355.9 114 334.7 114c-10.5 0-21.9-5.9-27.1-14.7v42.4H281zm61.5 40.8c0-12-7.2-20-17.5-20s-17.6 8-17.6 20 7.1 20.1 17.6 20.1 17.5-8 17.5-20.1zM377.6 105.6l6.6-19.8c7.8 3.9 21.3 7.9 32.6 7.9 6.9 0 10.8-2.2 10.8-5.8s-5.4-5.4-14.1-6.9c-16.2-2.7-33.3-5.7-33.3-25.8 0-17.1 13.5-27.5 36.6-27.5a89.7 89.7 0 0132.1 6.5l-7.5 18.3a66.6 66.6 0 00-24.3-5.3c-7.4 0-11.3 2-11.3 5.7s6.6 5.3 14.6 6.8c17.2 3 32.4 7.6 32.4 24.9S438.7 114 415.4 114a88 88 0 01-37.8-8.4zM466 97.9c0-9 6.4-15.3 15.4-15.3s15.5 6.3 15.5 15.3-6.5 15.2-15.5 15.2-15.4-6.3-15.4-15.2zm.9-87.7v-8h29.2v8L493 74.5h-23.1z"/></svg>