<svg id="eXHy0OFpDEa1" xmlns="http://www.w3.org/2000/svg" xmlns:xlink="http://www.w3.org/1999/xlink" viewBox="0 0 143.746 100.125" shape-rendering="geometricPrecision" text-rendering="geometricPrecision"><path id="eXHy0OFpDEa2" d="M125,88.04L125,134.1L116.9,134.1C115.528278,134.098951,114.414471,135.208285,114.41,136.58L114.41,175L90.62,175C89.750197,174.986088,89.056299,174.269806,89.07,173.4L89.07,123.77C89.064692,123.297171,89.269893,122.846461,89.63,122.54L90.34,121.83L123.93,88.49C124.211828,88.20249,124.597398,88.040335,125,88.04Z" transform="matrix(1 0 0 1 -31.254 -75)" fill="rgb(243,195,25)" fill-rule="evenodd" stroke="rgb(243,195,25)" stroke-width="0.25" stroke-miterlimit="10"/><path id="eXHy0OFpDEa3" d="M125,82.60309L80.11118,127.61916C79.543614,128.200213,78.759457,128.518272,77.947489,128.496765C77.135521,128.475258,76.369301,128.116134,75.83329,127.50585C74.682073,126.202717,74.728951,124.232749,75.94085,122.98585L122.9149,75.87856C123.463229,75.316768,124.215048,75,125.00008,75C125.785112,75,126.536931,75.316768,127.08526,75.87856L174.05905,122.98583C175.271083,124.232673,175.317964,126.202747,174.16661,127.50583C173.630628,128.116116,172.864427,128.475243,172.052477,128.49675C171.240527,128.518258,170.456389,128.200195,169.88885,127.61914Z" transform="matrix(1 0 0 1 -31.254 -75)" fill="rgb(0,0,0)" fill-rule="evenodd" stroke="none" stroke-width="1"/><g id="eXHy0OFpDEa4"><rect id="eXHy0OFpDEa5" width="23.2511" height="1.659" rx="0" ry="0" transform="matrix(1 0 0 1 11.1311 96.0977)" fill="rgb(0,0,0)" stroke="none" stroke-width="1"/><path id="eXHy0OFpDEa6" d="M51.98021,139.40232L51.98021,136.03409C51.98021,135.928592,51.938301,135.827415,51.863703,135.752817C51.789105,135.678219,51.687928,135.63631,51.58243,135.63631L50.55851,135.63631C50.338824,135.636316,50.160736,135.814404,50.16073,136.03409L50.16073,139.40232C49.274009,139.476638,48.592119,140.217971,48.592,141.1078L48.592,146.156C48.592,147.101452,49.358438,147.867894,50.30389,147.8679L51.83704,147.8679C52.291059,147.8679,52.726482,147.687542,53.047522,147.366502C53.368562,147.045462,53.54892,146.610039,53.54892,146.15602L53.54892,141.1078C53.548802,140.217978,52.866923,139.476648,51.98021,139.40232Z" transform="matrix(1 0 0 1 -31.254 -75)" fill="rgb(168,71,102)" stroke="none" stroke-width="1"/><rect id="eXHy0OFpDEa7" width="3.38821" height="4.72841" rx="0" ry="0" transform="matrix(1 0 0 1 18.1224 65.7618)" fill="rgb(255,214,227)" stroke="none" stroke-width="1"/><path id="eXHy0OFpDEa8" d="M51.98021,137.66772L51.98021,136.03409C51.98021,135.928592,51.938301,135.827415,51.863703,135.752817C51.789105,135.678219,51.687928,135.63631,51.58243,135.63631L50.55851,135.63631C50.453012,135.63631,50.351835,135.678219,50.277237,135.752817C50.202639,135.827415,50.16073,135.928592,50.16073,136.03409L50.16073,137.66772Z" transform="matrix(1 0 0 1 -31.254 -75)" fill="rgb(128,54,79)" stroke="none" stroke-width="1"/><path id="eXHy0OFpDEa9" d="M58.13132,139.40232L58.13132,136.03409C58.13132,135.928592,58.089411,135.827415,58.014813,135.752817C57.940215,135.678219,57.839038,135.63631,57.73354,135.63631L56.70962,135.63631C56.604122,135.63631,56.502945,135.678219,56.428347,135.752817C56.353749,135.827415,56.31184,135.928592,56.31184,136.03409L56.31184,139.40232C55.425122,139.476643,54.743234,140.217972,54.74311,141.1078L54.74311,146.156C54.743116,147.101454,55.509556,147.867894,56.45501,147.8679L57.98816,147.8679C58.933574,147.867878,59.699978,147.101474,59.7,146.15606L59.7,141.1078C59.699883,140.217988,59.018021,139.476663,58.13132,139.40232Z" transform="matrix(1 0 0 1 -31.254 -75)" fill="rgb(168,71,102)" stroke="none" stroke-width="1"/><rect id="eXHy0OFpDEa10" width="3.38821" height="4.72841" rx="0" ry="0" transform="matrix(1 0 0 1 24.2735 65.7618)" fill="rgb(255,214,227)" stroke="none" stroke-width="1"/><path id="eXHy0OFpDEa11" d="M58.13132,137.66772L58.13132,136.03409C58.13132,135.928592,58.089411,135.827415,58.014813,135.752817C57.940215,135.678219,57.839038,135.63631,57.73354,135.63631L56.70962,135.63631C56.604122,135.63631,56.502945,135.678219,56.428347,135.752817C56.353749,135.827415,56.31184,135.928592,56.31184,136.03409L56.31184,137.66772Z" transform="matrix(1 0 0 1 -31.254 -75)" fill="rgb(128,54,79)" stroke="none" stroke-width="1"/><path id="eXHy0OFpDEa12" d="M63.80879,142.20926L63.80879,138.841C63.80879,138.735502,63.766881,138.634325,63.692283,138.559727C63.617685,138.485129,63.516508,138.44322,63.41101,138.44322L62.38709,138.44322C62.281592,138.44322,62.180415,138.485129,62.105817,138.559727C62.031219,138.634325,61.98931,138.735502,61.98931,138.841L61.98931,142.20922C61.102592,142.283543,60.420704,143.024872,60.42058,143.9147L60.42058,148.963C60.42058,149.417023,60.600941,149.852451,60.921984,150.173493C61.243028,150.494534,61.678457,150.674893,62.13248,150.67489L63.66563,150.67489C64.119649,150.67489,64.555072,150.494532,64.876112,150.173492C65.197152,149.852452,65.37751,149.417029,65.37751,148.96301L65.37751,143.91475C65.377392,143.024922,64.695508,142.283588,63.80879,142.20926Z" transform="matrix(1 0 0 1 -31.254 -75)" fill="rgb(168,71,102)" stroke="none" stroke-width="1"/><rect id="eXHy0OFpDEa13" width="3.38821" height="4.72841" rx="0" ry="0" transform="matrix(1 0 0 1 29.9509 68.5688)" fill="rgb(255,214,227)" stroke="none" stroke-width="1"/><path id="eXHy0OFpDEa14" d="M63.80879,140.47467L63.80879,138.841C63.808784,138.621316,63.630694,138.44323,63.41101,138.44323L62.38709,138.44323C62.167406,138.44323,61.989316,138.621316,61.98931,138.841L61.98931,140.47464Z" transform="matrix(1 0 0 1 -31.254 -75)" fill="rgb(128,54,79)" stroke="none" stroke-width="1"/><ellipse id="eXHy0OFpDEa15" rx="3.4339" ry="5.94878" transform="matrix(0.840067 -0.542482 0.542482 0.840067 16.64588 77.851961)" fill="rgb(132,186,0)" stroke="none" stroke-width="1"/><path id="eXHy0OFpDEa16" d="M44.67306,147.8544Q44.64736,147.90463,44.62253,147.95523L51.01459,157.85373Q51.07093,157.8519,51.12728,157.84915C52.246601,155.665388,52.116083,153.050396,50.784877,150.988943C49.453671,148.927491,47.123953,147.732657,44.67306,147.8544Z" transform="matrix(1 0 0 1 -31.254 -75)" fill="rgb(109,153,0)" stroke="none" stroke-width="1"/><ellipse id="eXHy0OFpDEa17" rx="5.94878" ry="3.4339" transform="matrix(0.210424 -0.97761 0.97761 0.210424 24.792017 72.633099)" fill="rgb(132,186,0)" stroke="none" stroke-width="1"/><path id="eXHy0OFpDEa18" d="M57.29812,141.81752Q57.24443,141.83488,57.19112,141.85308L54.71169,153.37225Q54.75282,153.41078,54.79461,153.4487C57.130243,152.696026,58.887031,150.754657,59.403393,148.355685C59.919755,145.956712,59.117269,143.464477,57.29814,141.81752Z" transform="matrix(1 0 0 1 -31.254 -75)" fill="rgb(109,153,0)" stroke="none" stroke-width="1"/><ellipse id="eXHy0OFpDEa19" rx="3.4339" ry="5.94879" transform="matrix(0.811098 -0.58491 0.58491 0.811098 16.646689 69.975852)" fill="rgb(132,186,0)" stroke="none" stroke-width="1"/><path id="eXHy0OFpDEa20" d="M44.42067,140.15049Q44.3976,140.20199,44.37538,140.25378L51.26738,149.81094Q51.32354,149.80622,51.37968,149.80058C52.385372,147.562215,52.120728,144.957379,50.685409,142.967014C49.250091,140.976649,46.862085,139.903039,44.42068,140.15049Z" transform="matrix(1 0 0 1 -31.254 -75)" fill="rgb(109,153,0)" stroke="none" stroke-width="1"/><ellipse id="eXHy0OFpDEa21" rx="5.94878" ry="3.4339" transform="matrix(0.701867 -0.712308 0.712308 0.701867 35.518933 73.100005)" fill="rgb(132,186,0)" stroke="none" stroke-width="1"/><path id="eXHy0OFpDEa22" d="M70.94879,143.86279Q70.89416,143.84865,70.83938,143.83541L62.56928,152.22853Q62.58334,152.28311,62.59828,152.33753C64.973302,152.954751,67.497204,152.258244,69.219525,150.510302C70.941846,148.762361,71.601011,146.228449,70.94879,143.8628Z" transform="matrix(1 0 0 1 -31.254 -75)" fill="rgb(109,153,0)" stroke="none" stroke-width="1"/><circle id="eXHy0OFpDEa23" r="3.57573" transform="matrix(1 0 0 1 27.3263 74.3511)" fill="rgb(63,137,255)" stroke="none" stroke-width="1"/><circle id="eXHy0OFpDEa24" r="3.57573" transform="matrix(1 0 0 1 37.3186 76.6759)" fill="rgb(255,79,63)" stroke="none" stroke-width="1"/><circle id="eXHy0OFpDEa25" r="3.57573" transform="matrix(1 0 0 1 31.9438 74.3511)" fill="rgb(63,201,255)" stroke="none" stroke-width="1"/><circle id="eXHy0OFpDEa26" r="3.57573" transform="matrix(1 0 0 1 28.3681 77.9269)" fill="rgb(255,218,63)" stroke="none" stroke-width="1"/><circle id="eXHy0OFpDEa27" r="3.57573" transform="matrix(1 0 0 1 33.7429 77.9269)" fill="rgb(255,130,63)" stroke="none" stroke-width="1"/><circle id="eXHy0OFpDEa28" r="3.57573" transform="matrix(1 0 0 1 35.1438 82.9863)" fill="rgb(255,227,112)" stroke="none" stroke-width="1"/><rect id="eXHy0OFpDEa29" width="5.36883" height="7.30161" rx="0" ry="0" transform="matrix(1 0 0 1 14.5403 77.8518)" fill="rgb(245,72,0)" stroke="none" stroke-width="1"/><path id="eXHy0OFpDEa30" d="M51.3497,152.06785L45.6077,152.06785C45.391204,152.06785,45.2157,152.243354,45.2157,152.45985L45.2157,152.45985C45.2157,152.676346,45.391204,152.85185,45.6077,152.85185L51.3497,152.85185C51.566196,152.85185,51.7417,152.676346,51.7417,152.45985L51.7417,152.45985C51.7417,152.243354,51.566196,152.06785,51.3497,152.06785Z" transform="matrix(1 0 0 1 -31.254 -75)" fill="rgb(179,52,0)" stroke="none" stroke-width="1"/><rect id="eXHy0OFpDEa31" width="6.52591" height="0.78393" rx="0.12543" ry="0.12543" transform="matrix(1 0 0 1 13.9618 85.1534)" fill="rgb(179,52,0)" stroke="none" stroke-width="1"/><rect id="eXHy0OFpDEa32" width="5.36883" height="3.43605" rx="0" ry="0" transform="matrix(1 0 0 1 14.5403 79.7846)" fill="rgb(245,198,179)" stroke="none" stroke-width="1"/><ellipse id="eXHy0OFpDEa33" rx="1.85225" ry="2.65757" transform="matrix(1 0 0 1 17.2247 81.5026)" fill="rgb(255,244,240)" stroke="none" stroke-width="1"/><rect id="eXHy0OFpDEa34" width="5.36883" height="7.30161" rx="0" ry="0" transform="matrix(1 0 0 1 21.0662 77.8518)" fill="rgb(245,72,0)" stroke="none" stroke-width="1"/><path id="eXHy0OFpDEa35" d="M57.87561,152.06785L52.13361,152.06785C51.917114,152.06785,51.74161,152.243354,51.74161,152.45985L51.74161,152.45985C51.74161,152.676346,51.917114,152.85185,52.13361,152.85185L57.87561,152.85185C58.092106,152.85185,58.26761,152.676346,58.26761,152.45985L58.26761,152.45985C58.26761,152.243354,58.092106,152.06785,57.87561,152.06785Z" transform="matrix(1 0 0 1 -31.254 -75)" fill="rgb(179,52,0)" stroke="none" stroke-width="1"/><rect id="eXHy0OFpDEa36" width="6.52591" height="0.78393" rx="0.12543" ry="0.12543" transform="matrix(1 0 0 1 20.4877 85.1534)" fill="rgb(179,52,0)" stroke="none" stroke-width="1"/><rect id="eXHy0OFpDEa37" width="5.36883" height="3.43605" rx="0" ry="0" transform="matrix(1 0 0 1 21.0662 79.7846)" fill="rgb(245,198,179)" stroke="none" stroke-width="1"/><ellipse id="eXHy0OFpDEa38" rx="1.85225" ry="2.65757" transform="matrix(1 0 0 1 23.7506 81.5026)" fill="rgb(255,244,240)" stroke="none" stroke-width="1"/><rect id="eXHy0OFpDEa39" width="5.36883" height="7.30161" rx="0" ry="0" transform="matrix(1 0 0 1 17.2247 68.9823)" fill="rgb(245,72,0)" stroke="none" stroke-width="1"/><path id="eXHy0OFpDEa40" d="M54.03411,143.19837L48.29211,143.19837C48.075614,143.19837,47.90011,143.373874,47.90011,143.59037L47.90011,143.59037C47.90011,143.806866,48.075614,143.98237,48.29211,143.98237L54.03411,143.98237C54.250606,143.98237,54.42611,143.806866,54.42611,143.59037L54.42611,143.59037C54.42611,143.373874,54.250606,143.19837,54.03411,143.19837Z" transform="matrix(1 0 0 1 -31.254 -75)" fill="rgb(179,52,0)" stroke="none" stroke-width="1"/><path id="eXHy0OFpDEa41" d="M54.03411,151.28391L48.29211,151.28391C48.075614,151.28391,47.90011,151.459414,47.90011,151.67591L47.90011,151.67591C47.90011,151.892406,48.075614,152.06791,48.29211,152.06791L54.03411,152.06791C54.250606,152.06791,54.42611,151.892406,54.42611,151.67591L54.42611,151.67591C54.42611,151.459414,54.250606,151.28391,54.03411,151.28391Z" transform="matrix(1 0 0 1 -31.254 -75)" fill="rgb(179,52,0)" stroke="none" stroke-width="1"/><rect id="eXHy0OFpDEa42" width="5.36883" height="3.43605" rx="0" ry="0" transform="matrix(1 0 0 1 17.2247 70.9151)" fill="rgb(245,198,179)" stroke="none" stroke-width="1"/><ellipse id="eXHy0OFpDEa43" rx="1.85225" ry="2.65757" transform="matrix(1 0 0 1 19.9091 72.6331)" fill="rgb(255,244,240)" stroke="none" stroke-width="1"/><path id="eXHy0OFpDEa44" d="M51.433,161.30514C51.447898,159.422128,51.73546,157.551202,52.28673,155.75063C52.416527,155.204608,52.674586,154.697382,53.03952,154.27099C53.796675,153.677294,54.74589,153.383104,55.70609,153.44454C56.570776,153.356462,57.443575,153.391186,58.29853,153.54768C59.162914,153.711635,59.917331,154.234217,60.37466,154.98581C61.452159,153.517506,63.098047,152.570691,64.909,152.37738C66.74809,152.198924,68.578888,152.790708,69.96557,154.01186C70.076108,156.552064,68.242022,158.761975,65.72495,159.12143C65.971349,159.822506,65.981076,160.585037,65.75264,161.29217C61.083118,162.694818,56.105056,162.699327,51.433,161.30514Z" transform="matrix(1 0 0 1 -31.254 -75)" fill="rgb(171,106,0)" stroke="none" stroke-width="1"/><polygon id="eXHy0OFpDEa45" points="37.523,78.253 39.304,71.391 38.661,71.225 36.845,78.222 33.256,78.058 34.479,70.741 33.824,70.631 32.588,78.028 29.006,77.865 29.651,70.092 28.99,70.037 28.343,77.835 24.773,77.672 24.821,69.444 24.158,69.44 24.109,77.642 20.552,77.48 19.99,68.799 19.328,68.842 19.885,77.449 16.344,77.288 15.157,68.156 14.499,68.241 15.671,77.257 11.824,77.082 11.793,77.745 15.758,77.926 17.02,87.639 17.678,87.554 16.431,77.956 19.929,78.116 20.535,87.479 21.198,87.436 20.596,78.146 24.105,78.306 24.052,87.317 24.715,87.321 24.769,78.336 28.288,78.496 27.57,87.152 28.231,87.207 28.951,78.527 32.478,78.687 31.09,86.986 31.745,87.096 33.145,78.718 36.675,78.878 34.613,86.819 35.256,86.986 37.352,78.909 40.037,79.031 40.067,78.369 37.523,78.253" fill="rgb(204,165,114)" stroke="none" stroke-width="1"/><path id="eXHy0OFpDEa46" d="M74.20292,146.39256C74.07256,146.188443,73.859507,146.051489,73.61969,146.01765L41.35564,141.46684L40.45946,137.52484C40.388701,137.213592,40.145628,136.970555,39.83437,136.89984L32.26743,135.18084C31.820989,135.080072,31.37729,135.359928,31.275904,135.806229C31.174518,136.25253,31.45376,136.696617,31.89992,136.79862L38.95755,138.40189L39.86471,142.39218L39.86504,142.39341L39.86537,142.39505L44.32579,161.697L39.90567,172.518C39.80117,172.773799,39.830908,173.06484,39.984983,173.294219C40.139058,173.523597,40.397238,173.661192,40.67356,173.66119L43.80678,173.66119C43.436224,173.717896,43.070689,173.532372,42.897709,173.199798C42.724729,172.867224,42.7827,172.461423,43.041882,172.190587C43.301063,171.91975,43.703924,171.843996,44.04378,172.00219L41.90841,172.00219L45.75048,162.59637L68.98411,162.59637C69.34964,162.596359,69.672082,162.357085,69.77801,162.00724L74.29773,147.07941C74.367939,146.8476,74.333303,146.596681,74.20292,146.39256ZM68.36859,160.93733L45.85293,160.93733L41.75369,143.19833L72.42941,147.52511Z" transform="matrix(1 0 0 1 -31.254 -75)" fill="rgb(0,0,0)" stroke="none" stroke-width="1"/><circle id="eXHy0OFpDEa47" r="3.0728" transform="matrix(1 0 0 1 10.324 96.9272)" fill="rgb(128,128,128)" stroke="none" stroke-width="1"/><circle id="eXHy0OFpDEa48" r="3.0728" transform="matrix(1 0 0 1 35.7985 96.9272)" fill="rgb(128,128,128)" stroke="none" stroke-width="1"/></g><path id="eXHy0OFpDEa49" d="M160.93,124.04L160.93,173.4C160.943701,174.269806,160.249803,174.986088,159.38,175L135.59,175L135.59,136.58C135.585502,135.208297,134.47171,134.098978,133.1,134.1L125,134.1L125,88.04C125.402604,88.040326,125.788177,88.202483,126.07,88.49L126.08,88.5L159.32,121.84L159.33,121.85L160.42,122.85C160.744134,123.161236,160.928162,123.590637,160.93,124.04Z" transform="matrix(1 0 0 1 -31.254 -75)" fill="rgb(243,195,25)" fill-rule="evenodd" stroke="rgb(243,195,25)" stroke-width="0.25" stroke-miterlimit="10"/><path id="eXHy0OFpDEa50" d="M125.00007,103.46123C128.638919,103.461058,131.771146,106.031388,132.481186,109.60029C133.191225,113.169192,131.281318,116.742664,127.919501,118.135287C124.557683,119.527911,120.680281,118.351816,118.658586,115.326263C116.636891,112.30071,117.033982,108.268371,119.60701,105.69529C121.0358,104.262639,122.976725,103.458616,125.00007,103.46123Z" transform="matrix(1 0 0 1 -31.254 -75)" fill="rgb(0,0,0)" stroke="none" stroke-width="1"/><script><![CDATA[!function(t,n){"object"==typeof exports&&"undefined"!=typeof module?module.exports=n():"function"==typeof define&&define.amd?define(n):(t="undefined"!=typeof globalThis?globalThis:t||self).__SVGATOR_PLAYER__=n()}(this,(function(){"use strict";function t(n){return(t="function"==typeof Symbol&&"symbol"==typeof Symbol.iterator?function(t){return typeof t}:function(t){return t&&"function"==typeof Symbol&&t.constructor===Symbol&&t!==Symbol.prototype?"symbol":typeof t})(n)}function n(t,n){if(!(t instanceof n))throw new TypeError("Cannot call a class as a function")}function r(t,n){for(var r=0;r<n.length;r++){var e=n[r];e.enumerable=e.enumerable||!1,e.configurable=!0,"value"in e&&(e.writable=!0),Object.defineProperty(t,e.key,e)}}function e(t,n,e){return n&&r(t.prototype,n),e&&r(t,e),t}function i(t){return(i=Object.setPrototypeOf?Object.getPrototypeOf:function(t){return t.__proto__||Object.getPrototypeOf(t)})(t)}function o(t,n){return(o=Object.setPrototypeOf||function(t,n){return t.__proto__=n,t})(t,n)}function u(t,n){return!n||"object"!=typeof n&&"function"!=typeof n?function(t){if(void 0===t)throw new ReferenceError("this hasn't been initialised - super() hasn't been called");return t}(t):n}function a(t){var n=function(){if("undefined"==typeof Reflect||!Reflect.construct)return!1;if(Reflect.construct.sham)return!1;if("function"==typeof Proxy)return!0;try{return Boolean.prototype.valueOf.call(Reflect.construct(Boolean,[],(function(){}))),!0}catch(t){return!1}}();return function(){var r,e=i(t);if(n){var o=i(this).constructor;r=Reflect.construct(e,arguments,o)}else r=e.apply(this,arguments);return u(this,r)}}function l(t,n,r){return(l="undefined"!=typeof Reflect&&Reflect.get?Reflect.get:function(t,n,r){var e=function(t,n){for(;!Object.prototype.hasOwnProperty.call(t,n)&&null!==(t=i(t)););return t}(t,n);if(e){var o=Object.getOwnPropertyDescriptor(e,n);return o.get?o.get.call(r):o.value}})(t,n,r||t)}var f=s(Math.pow(10,-6));function s(t){var n=arguments.length>1&&void 0!==arguments[1]?arguments[1]:6;if(Number.isInteger(t))return t;var r=Math.pow(10,n);return Math.round((+t+Number.EPSILON)*r)/r}function c(t,n){var r=arguments.length>2&&void 0!==arguments[2]?arguments[2]:f;return Math.abs(t-n)<r}var h=Math.PI/180;function v(t){return t}function y(t,n,r){var e=1-r;return 3*r*e*(t*e+n*r)+r*r*r}function d(){var t=arguments.length>0&&void 0!==arguments[0]?arguments[0]:0,n=arguments.length>1&&void 0!==arguments[1]?arguments[1]:0,r=arguments.length>2&&void 0!==arguments[2]?arguments[2]:1,e=arguments.length>3&&void 0!==arguments[3]?arguments[3]:1;return t<0||t>1||r<0||r>1?null:c(t,n)&&c(r,e)?v:function(i){if(i<=0)return t>0?i*n/t:0===n&&r>0?i*e/r:0;if(i>=1)return r<1?1+(i-1)*(e-1)/(r-1):1===r&&t<1?1+(i-1)*(n-1)/(t-1):1;for(var o,u=0,a=1;u<a;){var l=y(t,r,o=(u+a)/2);if(c(i,l))break;l<i?u=o:a=o}return y(n,e,o)}}function g(){return 1}function p(t){return 1===t?1:0}function m(){var t=arguments.length>0&&void 0!==arguments[0]?arguments[0]:1,n=arguments.length>1&&void 0!==arguments[1]?arguments[1]:0;if(1===t){if(0===n)return p;if(1===n)return g}var r=1/t;return function(t){return t>=1?1:(t+=n*r)-t%r}}function b(t,n,r){return t>=.5?r:n}function w(t,n,r){return 0===t||n===r?n:t*(r-n)+n}function x(t,n,r){var e=w(t,n,r);return e<=0?0:e}function k(t,n,r){return 0===t?n:1===t?r:{x:w(t,n.x,r.x),y:w(t,n.y,r.y)}}function A(t,n,r){var e=function(t,n,r){return Math.round(w(t,n,r))}(t,n,r);return e<=0?0:e>=255?255:e}function _(t,n,r){return 0===t?n:1===t?r:{r:A(t,n.r,r.r),g:A(t,n.g,r.g),b:A(t,n.b,r.b),a:w(t,null==n.a?1:n.a,null==r.a?1:r.a)}}function S(t,n,r){if(0===t)return n;if(1===t)return r;var e=n.length;if(e!==r.length)return b(t,n,r);for(var i=[],o=0;o<e;o++)i.push(_(t,n[o],r[o]));return i}function O(t,n){for(var r=[],e=0;e<t;e++)r.push(n);return r}function M(t,n){if(--n<=0)return t;var r=(t=Object.assign([],t)).length;do{for(var e=0;e<r;e++)t.push(t[e])}while(--n>0);return t}var j,P=function(){function t(r){n(this,t),this.list=r,this.length=r.length}return e(t,[{key:"setAttribute",value:function(t,n){for(var r=this.list,e=0;e<this.length;e++)r[e].setAttribute(t,n)}},{key:"removeAttribute",value:function(t){for(var n=this.list,r=0;r<this.length;r++)n[r].removeAttribute(t)}},{key:"style",value:function(t,n){for(var r=this.list,e=0;e<this.length;e++)r[e].style[t]=n}}]),t}(),B=/-./g,E=function(t,n){return n.toUpperCase()};function F(t){return"function"==typeof t?t:b}function I(t){return t?"function"==typeof t?t:Array.isArray(t)?function(t){var n=arguments.length>1&&void 0!==arguments[1]?arguments[1]:v;if(!Array.isArray(t))return n;switch(t.length){case 1:return m(t[0])||n;case 2:return m(t[0],t[1])||n;case 4:return d(t[0],t[1],t[2],t[3])||n}return n}(t,null):function(t,n){var r=arguments.length>2&&void 0!==arguments[2]?arguments[2]:v;switch(t){case"linear":return v;case"steps":return m(n.steps||1,n.jump||0)||r;case"bezier":case"cubic-bezier":return d(n.x1||0,n.y1||0,n.x2||0,n.y2||0)||r}return r}(t.type,t.value,null):null}function R(t,n,r){var e=arguments.length>3&&void 0!==arguments[3]&&arguments[3],i=n.length-1;if(t<=n[0].t)return e?[0,0,n[0].v]:n[0].v;if(t>=n[i].t)return e?[i,1,n[i].v]:n[i].v;var o,u=n[0],a=null;for(o=1;o<=i;o++){if(!(t>n[o].t)){a=n[o];break}u=n[o]}return null==a?e?[i,1,n[i].v]:n[i].v:u.t===a.t?e?[o,1,a.v]:a.v:(t=(t-u.t)/(a.t-u.t),u.e&&(t=u.e(t)),e?[o,t,r(t,u.v,a.v)]:r(t,u.v,a.v))}function q(t,n){var r=arguments.length>2&&void 0!==arguments[2]?arguments[2]:null;return t&&t.length?"function"!=typeof n?null:("function"!=typeof r&&(r=null),function(e){var i=R(e,t,n);return null!=i&&r&&(i=r(i)),i}):null}function T(t,n){return t.t-n.t}function N(n,r,e,i,o){var u,a="@"===e[0],l="#"===e[0],f=j[e],s=b;switch(a?(u=e.substr(1),e=u.replace(B,E)):l&&(e=e.substr(1)),t(f)){case"function":if(s=f(i,o,R,I,e,a,r,n),l)return s;break;case"string":s=q(i,F(f));break;case"object":if((s=q(i,F(f.i),f.f))&&"function"==typeof f.u)return f.u(r,s,e,a,n)}return s?function(t,n,r){var e=arguments.length>3&&void 0!==arguments[3]&&arguments[3];if(e)return t instanceof P?function(e){return t.style(n,r(e))}:function(e){return t.style[n]=r(e)};if(Array.isArray(n)){var i=n.length;return function(e){var o=r(e);if(null==o)for(var u=0;u<i;u++)t[u].removeAttribute(n);else for(var a=0;a<i;a++)t[a].setAttribute(n,o)}}return function(e){var i=r(e);null==i?t.removeAttribute(n):t.setAttribute(n,i)}}(r,e,s,a):null}function C(n,r,e,i){if(!i||"object"!==t(i))return null;var o=null,u=null;return Array.isArray(i)?u=function(t){if(!t||!t.length)return null;for(var n=0;n<t.length;n++)t[n].e&&(t[n].e=I(t[n].e));return t.sort(T)}(i):(u=i.keys,o=i.data||null),u?N(n,r,e,u,o):null}function z(t,n,r){if(!r)return null;var e=[];for(var i in r)if(r.hasOwnProperty(i)){var o=C(t,n,i,r[i]);o&&e.push(o)}return e.length?e:null}function L(t,n){if(!n.duration||n.duration<0)return null;var r=function(t,n){if(!n)return null;var r=[];if(Array.isArray(n))for(var e=n.length,i=0;i<e;i++){var o=n[i];if(2===o.length){var u=null;if("string"==typeof o[0])u=t.getElementById(o[0]);else if(Array.isArray(o[0])){u=[];for(var a=0;a<o[0].length;a++)if("string"==typeof o[0][a]){var l=t.getElementById(o[0][a]);l&&u.push(l)}u=u.length?1===u.length?u[0]:new P(u):null}if(u){var f=z(t,u,o[1]);f&&(r=r.concat(f))}}}else for(var s in n)if(n.hasOwnProperty(s)){var c=t.getElementById(s);if(c){var h=z(t,c,n[s]);h&&(r=r.concat(h))}}return r.length?r:null}(t,n.elements);return r?function(t,n){var r=arguments.length>2&&void 0!==arguments[2]?arguments[2]:1/0,e=arguments.length>3&&void 0!==arguments[3]?arguments[3]:1,i=arguments.length>4&&void 0!==arguments[4]&&arguments[4],o=arguments.length>5&&void 0!==arguments[5]?arguments[5]:1,u=t.length,a=e>0?n:0;i&&r%2==0&&(a=n-a);var l=null;return function(f,s){var c=f%n,h=1+(f-c)/n;s*=e,i&&h%2==0&&(s=-s);var v=!1;if(h>r)c=a,v=!0,-1===o&&(c=e>0?0:n);else if(s<0&&(c=n-c),c===l)return!1;l=c;for(var y=0;y<u;y++)t[y](c);return v}}(r,n.duration,n.iterations||1/0,n.direction||1,!!n.alternate,n.fill||1):null}var D=function(){function t(r,e){var i=arguments.length>2&&void 0!==arguments[2]?arguments[2]:{};n(this,t),this._id=0,this._running=!1,this._rollingBack=!1,this._animations=r,this.duration=e.duration,this.alternate=e.alternate,this.fill=e.fill,this.iterations=e.iterations,this.direction=i.direction||1,this.speed=i.speed||1,this.fps=i.fps||100,this.offset=i.offset||0,this.rollbackStartOffset=0}return e(t,[{key:"_rollback",value:function(){var t=this,n=1/0,r=null;this.rollbackStartOffset=this.offset,this._rollingBack||(this._rollingBack=!0,this._running=!0);this._id=window.requestAnimationFrame((function e(i){if(t._rollingBack){null==r&&(r=i);var o=i-r,u=t.rollbackStartOffset-o,a=Math.round(u*t.speed);if(a>t.duration&&n!=1/0){var l=!!t.alternate&&a/t.duration%2>1,f=a%t.duration;a=(f+=l?t.duration:0)||t.duration}var s=t.fps?1e3/t.fps:0,c=Math.max(0,a);if(c<n-s){t.offset=c,n=c;for(var h=t._animations,v=h.length,y=0;y<v;y++)h[y](c,t.direction)}var d=!1;if(t.iterations>0&&-1===t.fill){var g=t.iterations*t.duration,p=g==a;a=p?0:a,t.offset=p?0:t.offset,d=a>g}a>0&&t.offset>=a&&!d?t._id=window.requestAnimationFrame(e):t.stop()}}))}},{key:"_start",value:function(){var t=this,n=arguments.length>0&&void 0!==arguments[0]?arguments[0]:0,r=-1/0,e=null,i={},o=function o(u){t._running=!0,null==e&&(e=u);var a=Math.round((u-e+n)*t.speed),l=t.fps?1e3/t.fps:0;if(a>r+l&&!t._rollingBack){t.offset=a,r=a;for(var f=t._animations,s=f.length,c=0,h=0;h<s;h++)i[h]?c++:(i[h]=f[h](a,t.direction),i[h]&&c++);if(c===s)return void t._stop()}t._id=window.requestAnimationFrame(o)};this._id=window.requestAnimationFrame(o)}},{key:"_stop",value:function(){this._id&&window.cancelAnimationFrame(this._id),this._running=!1,this._rollingBack=!1}},{key:"play",value:function(){!this._rollingBack&&this._running||(this._rollingBack=!1,this.rollbackStartOffset>this.duration&&(this.offset=this.rollbackStartOffset-(this.rollbackStartOffset-this.offset)%this.duration,this.rollbackStartOffset=0),this._start(this.offset))}},{key:"stop",value:function(){this._stop(),this.offset=0,this.rollbackStartOffset=0;var t=this.direction,n=this._animations;window.requestAnimationFrame((function(){for(var r=0;r<n.length;r++)n[r](0,t)}))}},{key:"reachedToEnd",value:function(){return this.iterations>0&&this.offset>=this.iterations*this.duration}},{key:"restart",value:function(){this._stop(),this.offset=0,this._start()}},{key:"pause",value:function(){this._stop()}},{key:"reverse",value:function(){this.direction=-this.direction}}],[{key:"build",value:function(n,r){return(n=function(t,n){if(j=n,!t||!t.root||!Array.isArray(t.animations))return null;for(var r=document.getElementsByTagName("svg"),e=!1,i=0;i<r.length;i++)if(r[i].id===t.root&&!r[i].svgatorAnimation){(e=r[i]).svgatorAnimation=!0;break}if(!e)return null;var o=t.animations.map((function(t){return L(e,t)})).filter((function(t){return!!t}));return o.length?{element:e,animations:o,animationSettings:t.animationSettings,options:t.options||void 0}:null}(n,r))?{el:n.element,options:n.options||{},player:new t(n.animations,n.animationSettings,n.options)}:null}}]),t}();function Q(t){return s(t)+""}function U(t){var n=arguments.length>1&&void 0!==arguments[1]?arguments[1]:" ";return t&&t.length?t.map(Q).join(n):""}function V(t){return t?null==t.a||t.a>=1?"rgb("+t.r+","+t.g+","+t.b+")":"rgba("+t.r+","+t.g+","+t.b+","+t.a+")":"transparent"}!function(){for(var t=0,n=["ms","moz","webkit","o"],r=0;r<n.length&&!window.requestAnimationFrame;++r)window.requestAnimationFrame=window[n[r]+"RequestAnimationFrame"],window.cancelAnimationFrame=window[n[r]+"CancelAnimationFrame"]||window[n[r]+"CancelRequestAnimationFrame"];window.requestAnimationFrame||(window.requestAnimationFrame=function(n){var r=Date.now(),e=Math.max(0,16-(r-t)),i=window.setTimeout((function(){n(r+e)}),e);return t=r+e,i},window.cancelAnimationFrame=window.clearTimeout)}();var G={f:null,i:function(t,n,r){return 0===t?n:1===t?r:{x:x(t,n.x,r.x),y:x(t,n.y,r.y)}},u:function(t,n){return function(r){var e=n(r);t.setAttribute("rx",Q(e.x)),t.setAttribute("ry",Q(e.y))}}},H={f:null,i:function(t,n,r){return 0===t?n:1===t?r:{width:x(t,n.width,r.width),height:x(t,n.height,r.height)}},u:function(t,n){return function(r){var e=n(r);t.setAttribute("width",Q(e.width)),t.setAttribute("height",Q(e.height))}}},Y=Math.sin,Z=Math.cos,J=Math.acos,K=Math.asin,W=Math.tan,X=Math.atan2,$=Math.PI/180,tt=180/Math.PI,nt=Math.sqrt,rt=function(){function t(){var r=arguments.length>0&&void 0!==arguments[0]?arguments[0]:1,e=arguments.length>1&&void 0!==arguments[1]?arguments[1]:0,i=arguments.length>2&&void 0!==arguments[2]?arguments[2]:0,o=arguments.length>3&&void 0!==arguments[3]?arguments[3]:1,u=arguments.length>4&&void 0!==arguments[4]?arguments[4]:0,a=arguments.length>5&&void 0!==arguments[5]?arguments[5]:0;n(this,t),this.m=[r,e,i,o,u,a],this.i=null,this.w=null,this.s=null}return e(t,[{key:"determinant",get:function(){var t=this.m;return t[0]*t[3]-t[1]*t[2]}},{key:"isIdentity",get:function(){if(null===this.i){var t=this.m;this.i=1===t[0]&&0===t[1]&&0===t[2]&&1===t[3]&&0===t[4]&&0===t[5]}return this.i}},{key:"point",value:function(t,n){var r=this.m;return{x:r[0]*t+r[2]*n+r[4],y:r[1]*t+r[3]*n+r[5]}}},{key:"translateSelf",value:function(){var t=arguments.length>0&&void 0!==arguments[0]?arguments[0]:0,n=arguments.length>1&&void 0!==arguments[1]?arguments[1]:0;if(!t&&!n)return this;var r=this.m;return r[4]+=r[0]*t+r[2]*n,r[5]+=r[1]*t+r[3]*n,this.w=this.s=this.i=null,this}},{key:"rotateSelf",value:function(){var t=arguments.length>0&&void 0!==arguments[0]?arguments[0]:0;if(t%=360){var n=Y(t*=$),r=Z(t),e=this.m,i=e[0],o=e[1];e[0]=i*r+e[2]*n,e[1]=o*r+e[3]*n,e[2]=e[2]*r-i*n,e[3]=e[3]*r-o*n,this.w=this.s=this.i=null}return this}},{key:"scaleSelf",value:function(){var t=arguments.length>0&&void 0!==arguments[0]?arguments[0]:1,n=arguments.length>1&&void 0!==arguments[1]?arguments[1]:1;if(1!==t||1!==n){var r=this.m;r[0]*=t,r[1]*=t,r[2]*=n,r[3]*=n,this.w=this.s=this.i=null}return this}},{key:"skewSelf",value:function(t,n){if(n%=360,(t%=360)||n){var r=this.m,e=r[0],i=r[1],o=r[2],u=r[3];t&&(t=W(t*$),r[2]+=e*t,r[3]+=i*t),n&&(n=W(n*$),r[0]+=o*n,r[1]+=u*n),this.w=this.s=this.i=null}return this}},{key:"resetSelf",value:function(){var t=arguments.length>0&&void 0!==arguments[0]?arguments[0]:1,n=arguments.length>1&&void 0!==arguments[1]?arguments[1]:0,r=arguments.length>2&&void 0!==arguments[2]?arguments[2]:0,e=arguments.length>3&&void 0!==arguments[3]?arguments[3]:1,i=arguments.length>4&&void 0!==arguments[4]?arguments[4]:0,o=arguments.length>5&&void 0!==arguments[5]?arguments[5]:0,u=this.m;return u[0]=t,u[1]=n,u[2]=r,u[3]=e,u[4]=i,u[5]=o,this.w=this.s=this.i=null,this}},{key:"recomposeSelf",value:function(){var t=arguments.length>0&&void 0!==arguments[0]?arguments[0]:null,n=arguments.length>1&&void 0!==arguments[1]?arguments[1]:null,r=arguments.length>2&&void 0!==arguments[2]?arguments[2]:null,e=arguments.length>3&&void 0!==arguments[3]?arguments[3]:null,i=arguments.length>4&&void 0!==arguments[4]?arguments[4]:null;return this.isIdentity||this.resetSelf(),t&&(t.x||t.y)&&this.translateSelf(t.x,t.y),n&&this.rotateSelf(n),r&&(r.x&&this.skewSelf(r.x,0),r.y&&this.skewSelf(0,r.y)),!e||1===e.x&&1===e.y||this.scaleSelf(e.x,e.y),i&&(i.x||i.y)&&this.translateSelf(i.x,i.y),this}},{key:"decompose",value:function(){var t=arguments.length>0&&void 0!==arguments[0]?arguments[0]:0,n=arguments.length>1&&void 0!==arguments[1]?arguments[1]:0,r=this.m,e=r[0]*r[0]+r[1]*r[1],i=[[r[0],r[1]],[r[2],r[3]]],o=nt(e);if(0===o)return{origin:{x:s(r[4]),y:s(r[5])},translate:{x:s(t),y:s(n)},scale:{x:0,y:0},skew:{x:0,y:0},rotate:0};i[0][0]/=o,i[0][1]/=o;var u=r[0]*r[3]-r[1]*r[2]<0;u&&(o=-o);var a=i[0][0]*i[1][0]+i[0][1]*i[1][1];i[1][0]-=i[0][0]*a,i[1][1]-=i[0][1]*a;var l=nt(i[1][0]*i[1][0]+i[1][1]*i[1][1]);if(0===l)return{origin:{x:s(r[4]),y:s(r[5])},translate:{x:s(t),y:s(n)},scale:{x:s(o),y:0},skew:{x:0,y:0},rotate:0};i[1][0]/=l,i[1][1]/=l,a/=l;var f=0;return i[1][1]<0?(f=J(i[1][1])*tt,i[0][1]<0&&(f=360-f)):f=K(i[0][1])*tt,u&&(f=-f),a=X(a,nt(i[0][0]*i[0][0]+i[0][1]*i[0][1]))*tt,u&&(a=-a),{origin:{x:s(r[4]),y:s(r[5])},translate:{x:s(t),y:s(n)},scale:{x:s(o),y:s(l)},skew:{x:s(a),y:0},rotate:s(f)}}},{key:"toString",value:function(){return null===this.s&&(this.s="matrix("+this.m.map((function(t){return s(t)})).join(" ")+")"),this.s}}]),t}();Object.freeze({M:2,L:2,Z:0,H:1,V:1,C:6,Q:4,T:2,S:4,A:7});var et={},it=null;function ot(n){var r=function(){if(it)return it;if("object"!==("undefined"==typeof document?"undefined":t(document))||!document.createElementNS)return{};var n=document.createElementNS("http://www.w3.org/2000/svg","svg");return n&&n.style?(n.style.position="absolute",n.style.opacity="0.01",n.style.zIndex="-9999",n.style.left="-9999px",n.style.width="1px",n.style.height="1px",it={svg:n}):{}}().svg;if(!r)return function(t){return null};var e=document.createElementNS(r.namespaceURI,"path");e.setAttributeNS(null,"d",n),e.setAttributeNS(null,"fill","none"),e.setAttributeNS(null,"stroke","none"),r.appendChild(e);var i=e.getTotalLength();return function(t){var n=e.getPointAtLength(i*t);return{x:n.x,y:n.y}}}function ut(t){return et[t]?et[t]:et[t]=ot(t)}function at(t,n,r,e){if(!t||!e)return!1;var i=["M",t.x,t.y];if(n&&r&&(i.push("C"),i.push(n.x),i.push(n.y),i.push(r.x),i.push(r.y)),n?!r:r){var o=n||r;i.push("Q"),i.push(o.x),i.push(o.y)}return n||r||i.push("L"),i.push(e.x),i.push(e.y),i.join(" ")}function lt(t,n,r,e){var i=arguments.length>4&&void 0!==arguments[4]?arguments[4]:1,o=at(t,n,r,e),u=ut(o);try{return u(i)}catch(t){return null}}function ft(t,n,r,e){var i=1-e;return i*i*t+2*i*e*n+e*e*r}function st(t,n,r,e){return 2*(1-e)*(n-t)+2*e*(r-n)}function ct(t,n,r,e){var i=arguments.length>4&&void 0!==arguments[4]&&arguments[4],o=lt(t,n,null,r,e);return o||(o={x:ft(t.x,n.x,r.x,e),y:ft(t.y,n.y,r.y,e)}),i&&(o.a=ht(t,n,r,e)),o}function ht(t,n,r,e){return Math.atan2(st(t.y,n.y,r.y,e),st(t.x,n.x,r.x,e))}function vt(t,n,r,e,i){var o=i*i;return i*o*(e-t+3*(n-r))+3*o*(t+r-2*n)+3*i*(n-t)+t}function yt(t,n,r,e,i){var o=1-i;return 3*(o*o*(n-t)+2*o*i*(r-n)+i*i*(e-r))}function dt(t,n,r,e,i){var o=arguments.length>5&&void 0!==arguments[5]&&arguments[5],u=lt(t,n,r,e,i);return u||(u={x:vt(t.x,n.x,r.x,e.x,i),y:vt(t.y,n.y,r.y,e.y,i)}),o&&(u.a=gt(t,n,r,e,i)),u}function gt(t,n,r,e,i){return Math.atan2(yt(t.y,n.y,r.y,e.y,i),yt(t.x,n.x,r.x,e.x,i))}function pt(t,n,r){return t+(n-t)*r}function mt(t,n,r){var e=arguments.length>3&&void 0!==arguments[3]&&arguments[3],i={x:pt(t.x,n.x,r),y:pt(t.y,n.y,r)};return e&&(i.a=bt(t,n)),i}function bt(t,n){return Math.atan2(n.y-t.y,n.x-t.x)}function wt(t,n,r){var e=arguments.length>3&&void 0!==arguments[3]&&arguments[3];if(kt(n)){if(At(r))return ct(n,r.start,r,t,e)}else if(kt(r)){if(n.end)return ct(n,n.end,r,t,e)}else{if(n.end)return r.start?dt(n,n.end,r.start,r,t,e):ct(n,n.end,r,t,e);if(r.start)return ct(n,r.start,r,t,e)}return mt(n,r,t,e)}function xt(t,n,r){var e=wt(t,n,r,!0);return e.a=function(t){var n=arguments.length>1&&void 0!==arguments[1]&&arguments[1];return n?t+Math.PI:t}(e.a)/h,e}function kt(t){return!t.type||"corner"===t.type}function At(t){return null!=t.start&&!kt(t)}var _t=new rt;var St={f:Q,i:w},Ot={f:Q,i:function(t,n,r){var e=w(t,n,r);return e<=0?0:e>=1?1:e}};function Mt(t,n,r,e,i,o,u,a){return n=function(t,n,r){for(var e,i,o,u=t.length-1,a={},l=0;l<=u;l++)(e=t[l]).e&&(e.e=n(e.e)),e.v&&"g"===(i=e.v).t&&i.r&&(o=r.getElementById(i.r))&&(a[i.r]=o.querySelectorAll("stop"));return a}(t,e,a),function(e){var i,o=r(e,t,jt);return o?"c"===o.t?V(o.v):"g"===o.t?(n[o.r]&&function(t,n){for(var r=0,e=t.length;r<e;r++)t[r].setAttribute("stop-color",V(n[r]))}(n[o.r],o.v),(i=o.r)?"url(#"+i+")":"none"):"none":"none"}}function jt(t,n,r){if(0===t)return n;if(1===t)return r;if(n&&r){var e=n.t;if(e===r.t)switch(n.t){case"c":return{t:e,v:_(t,n.v,r.v)};case"g":if(n.r===r.r)return{t:e,v:S(t,n.v,r.v),r:n.r}}}return b(t,n,r)}var Pt={fill:Mt,"fill-opacity":Ot,stroke:Mt,"stroke-opacity":Ot,"stroke-width":St,"stroke-dashoffset":{f:Q,i:w},"stroke-dasharray":{f:function(t){var n=arguments.length>1&&void 0!==arguments[1]?arguments[1]:" ";return t&&t.length>0&&(t=t.map((function(t){return s(t,4)}))),U(t,n)},i:function(t,n,r){var e,i,o,u=n.length,a=r.length;if(u!==a)if(0===u)n=O(u=a,0);else if(0===a)a=u,r=O(u,0);else{var l=(o=(e=u)*(i=a)/function(t,n){for(var r;n;)r=n,n=t%n,t=r;return t||1}(e,i))<0?-o:o;n=M(n,Math.floor(l/u)),r=M(r,Math.floor(l/a)),u=a=l}for(var f=[],c=0;c<u;c++)f.push(s(x(t,n[c],r[c])));return f}},opacity:Ot,transform:function(n,r,e,i){if(!(n=function(n,r){if(!n||"object"!==t(n))return null;var e=!1;for(var i in n)n.hasOwnProperty(i)&&(n[i]&&n[i].length?(n[i].forEach((function(t){t.e&&(t.e=r(t.e))})),e=!0):delete n[i]);return e?n:null}(n,i)))return null;var o=function(t,i,o){var u=arguments.length>3&&void 0!==arguments[3]?arguments[3]:null;return n[t]?e(i,n[t],o):r&&r[t]?r[t]:u};return r&&r.a&&n.o?function(t){var r=e(t,n.o,xt);return _t.recomposeSelf(r,o("r",t,w,0)+r.a,o("k",t,k),o("s",t,k),o("t",t,k)).toString()}:function(t){return _t.recomposeSelf(o("o",t,wt,null),o("r",t,w,0),o("k",t,k),o("s",t,k),o("t",t,k)).toString()}},r:St,"#size":H,"#radius":G,_:function(t,n){if(Array.isArray(t))for(var r=0;r<t.length;r++)this[t[r]]=n;else this[t]=n}};return function(t){!function(t,n){if("function"!=typeof n&&null!==n)throw new TypeError("Super expression must either be null or a function");t.prototype=Object.create(n&&n.prototype,{constructor:{value:t,writable:!0,configurable:!0}}),n&&o(t,n)}(u,t);var r=a(u);function u(){return n(this,u),r.apply(this,arguments)}return e(u,null,[{key:"build",value:function(t){var n=l(i(u),"build",this).call(this,t,Pt);if(!n)return null;n.el,n.options;var r=n.player;return function(t,n,r){t.play()}(r),r}}]),u}(D)}));
__SVGATOR_PLAYER__.build({"root":"eXHy0OFpDEa1","animations":[{"duration":2000,"direction":1,"iterations":0,"fill":1,"alternate":false,"speed":1,"elements":{"eXHy0OFpDEa4":{"transform":{"data":{"t":{"x":-21.54023,"y":-80.080154}},"keys":{"o":[{"t":0,"v":{"x":21.54023,"y":80.080154,"type":"corner"}},{"t":2000,"v":{"x":106.54023,"y":80.080154,"type":"corner"}}]}}}}}],"options":{"start":"load","hover":null,"click":null,"scroll":null,"font":"embed","exportedIds":"unique","svgFormat":"animated","title":"KFH Icon - Copy"},"animationSettings":{"duration":2000,"direction":1,"iterations":0,"fill":1,"alternate":false,"speed":1}})]]></script></svg>